G04 #@! TF.FileFunction,Legend,Bot*
%FSLAX46Y46*%
G04 Gerber Fmt 4.6, Leading zero omitted, Abs format (unit mm)*
G04 Created by KiCad (PCBNEW 4.0.7) date 04/14/18 16:40:09*
%MOMM*%
%LPD*%
G01*
G04 APERTURE LIST*
%ADD10C,0.100000*%
%ADD11C,0.120000*%
%ADD12C,0.150000*%
G04 APERTURE END LIST*
D10*
D11*
X40929520Y-55044694D02*
X37088769Y-54367466D01*
X40582223Y-57014309D02*
X36741473Y-56337081D01*
X40929520Y-55044694D02*
X40582223Y-57014309D01*
X37621522Y-73805282D02*
X37274225Y-75774897D01*
X37274225Y-75774897D02*
X33433475Y-75097669D01*
X37621522Y-73805282D02*
X33780771Y-73128054D01*
X34313524Y-92565870D02*
X30472773Y-91888642D01*
X33966227Y-94535485D02*
X30125477Y-93858257D01*
X34313524Y-92565870D02*
X33966227Y-94535485D01*
X31005526Y-111326458D02*
X30658229Y-113296073D01*
X30658229Y-113296073D02*
X26817479Y-112618845D01*
X31005526Y-111326458D02*
X27164775Y-110649230D01*
X63345402Y-37622488D02*
X59504651Y-36945260D01*
X62998105Y-39592103D02*
X59157355Y-38914875D01*
X63345402Y-37622488D02*
X62998105Y-39592103D01*
X60037404Y-56383076D02*
X59690107Y-58352691D01*
X59690107Y-58352691D02*
X55849357Y-57675463D01*
X60037404Y-56383076D02*
X56196653Y-55705848D01*
X56729406Y-75143664D02*
X52888655Y-74466436D01*
X56382109Y-77113279D02*
X52541359Y-76436051D01*
X56729406Y-75143664D02*
X56382109Y-77113279D01*
X53421408Y-93904252D02*
X53074111Y-95873867D01*
X53074111Y-95873867D02*
X49233361Y-95196639D01*
X53421408Y-93904252D02*
X49580657Y-93227024D01*
X50113410Y-112664840D02*
X46272659Y-111987612D01*
X49766113Y-114634455D02*
X45925363Y-113957227D01*
X50113410Y-112664840D02*
X49766113Y-114634455D01*
X82626934Y-37976062D02*
X82279637Y-39945677D01*
X82279637Y-39945677D02*
X78438887Y-39268449D01*
X82626934Y-37976062D02*
X78786183Y-37298834D01*
X79318936Y-56736650D02*
X75478185Y-56059422D01*
X78971639Y-58706265D02*
X75130889Y-58029037D01*
X79318936Y-56736650D02*
X78971639Y-58706265D01*
X76010938Y-75497238D02*
X75663641Y-77466853D01*
X75663641Y-77466853D02*
X71822891Y-76789625D01*
X76010938Y-75497238D02*
X72170187Y-74820010D01*
X72702940Y-94257826D02*
X68862189Y-93580598D01*
X72355643Y-96227441D02*
X68514893Y-95550213D01*
X72702940Y-94257826D02*
X72355643Y-96227441D01*
X69394942Y-113018414D02*
X69047645Y-114988029D01*
X69047645Y-114988029D02*
X65206895Y-114310801D01*
X69394942Y-113018414D02*
X65554191Y-112341186D01*
X101908466Y-38329636D02*
X98067715Y-37652408D01*
X101561169Y-40299251D02*
X97720419Y-39622023D01*
X101908466Y-38329636D02*
X101561169Y-40299251D01*
X98600468Y-57090224D02*
X98253171Y-59059839D01*
X98253171Y-59059839D02*
X94412421Y-58382611D01*
X98600468Y-57090224D02*
X94759717Y-56412996D01*
X95292470Y-75850812D02*
X91451719Y-75173584D01*
X94945173Y-77820427D02*
X91104423Y-77143199D01*
X95292470Y-75850812D02*
X94945173Y-77820427D01*
X91984472Y-94611400D02*
X91637175Y-96581015D01*
X91637175Y-96581015D02*
X87796425Y-95903787D01*
X91984472Y-94611400D02*
X88143721Y-93934172D01*
X88676474Y-113371988D02*
X88329177Y-115341603D01*
X88329177Y-115341603D02*
X84488427Y-114664375D01*
X88676474Y-113371988D02*
X84835723Y-112694760D01*
X120148109Y-44592057D02*
X116307358Y-43914829D01*
X119800812Y-46561672D02*
X115960062Y-45884444D01*
X120148109Y-44592057D02*
X119800812Y-46561672D01*
X116840111Y-63352645D02*
X112999360Y-62675417D01*
X116492814Y-65322260D02*
X112652064Y-64645032D01*
X116840111Y-63352645D02*
X116492814Y-65322260D01*
X113532113Y-82113233D02*
X113184816Y-84082848D01*
X113184816Y-84082848D02*
X109344066Y-83405620D01*
X113532113Y-82113233D02*
X109691362Y-81436005D01*
X110224115Y-100873821D02*
X106383364Y-100196593D01*
X109876818Y-102843436D02*
X106036068Y-102166208D01*
X110224115Y-100873821D02*
X109876818Y-102843436D01*
X106916117Y-119634409D02*
X106568820Y-121604024D01*
X106568820Y-121604024D02*
X102728070Y-120926796D01*
X106916117Y-119634409D02*
X103075366Y-118957181D01*
X138387752Y-50854478D02*
X134547001Y-50177250D01*
X138040455Y-52824093D02*
X134199705Y-52146865D01*
X138387752Y-50854478D02*
X138040455Y-52824093D01*
X135079754Y-69615066D02*
X134732457Y-71584681D01*
X134732457Y-71584681D02*
X130891707Y-70907453D01*
X135079754Y-69615066D02*
X131239003Y-68937838D01*
X131771756Y-88375654D02*
X127931005Y-87698426D01*
X131424459Y-90345269D02*
X127583709Y-89668041D01*
X131771756Y-88375654D02*
X131424459Y-90345269D01*
X128463758Y-107136242D02*
X124623007Y-106459014D01*
X128116461Y-109105857D02*
X124275711Y-108428629D01*
X128463758Y-107136242D02*
X128116461Y-109105857D01*
X125155760Y-125896830D02*
X124808463Y-127866445D01*
X124808463Y-127866445D02*
X120967713Y-127189217D01*
X125155760Y-125896830D02*
X121315009Y-125219602D01*
X218135029Y-51114951D02*
X218482326Y-53084566D01*
X218482326Y-53084566D02*
X214641575Y-53761794D01*
X218135029Y-51114951D02*
X214294279Y-51792179D01*
X221443027Y-69875539D02*
X217602277Y-70552767D01*
X221790324Y-71845154D02*
X217949573Y-72522382D01*
X221443027Y-69875539D02*
X221790324Y-71845154D01*
X224751025Y-88636127D02*
X225098322Y-90605742D01*
X225098322Y-90605742D02*
X221257571Y-91282970D01*
X224751025Y-88636127D02*
X220910275Y-89313355D01*
X228059023Y-107396715D02*
X224218273Y-108073943D01*
X228406320Y-109366330D02*
X224565569Y-110043558D01*
X228059023Y-107396715D02*
X228406320Y-109366330D01*
X231367021Y-126157303D02*
X231714318Y-128126918D01*
X231714318Y-128126918D02*
X227873567Y-128804146D01*
X231367021Y-126157303D02*
X227526271Y-126834531D01*
X236374673Y-44852530D02*
X232533923Y-45529758D01*
X236721970Y-46822145D02*
X232881219Y-47499373D01*
X236374673Y-44852530D02*
X236721970Y-46822145D01*
X239682671Y-63613118D02*
X240029968Y-65582733D01*
X240029968Y-65582733D02*
X236189217Y-66259961D01*
X239682671Y-63613118D02*
X235841921Y-64290346D01*
X242990669Y-82373706D02*
X239149919Y-83050934D01*
X243337966Y-84343321D02*
X239497215Y-85020549D01*
X242990669Y-82373706D02*
X243337966Y-84343321D01*
X246298667Y-101134294D02*
X242457917Y-101811522D01*
X246645964Y-103103909D02*
X242805213Y-103781137D01*
X246298667Y-101134294D02*
X246645964Y-103103909D01*
X249606665Y-119894882D02*
X249953962Y-121864497D01*
X249953962Y-121864497D02*
X246113211Y-122541725D01*
X249606665Y-119894882D02*
X245765915Y-120572110D01*
X254614317Y-38590109D02*
X254961614Y-40559724D01*
X254961614Y-40559724D02*
X251120863Y-41236952D01*
X254614317Y-38590109D02*
X250773567Y-39267337D01*
X257922315Y-57350697D02*
X254081565Y-58027925D01*
X258269612Y-59320312D02*
X254428861Y-59997540D01*
X257922315Y-57350697D02*
X258269612Y-59320312D01*
X261230313Y-76111285D02*
X257389563Y-76788513D01*
X261577610Y-78080900D02*
X257736859Y-78758128D01*
X261230313Y-76111285D02*
X261577610Y-78080900D01*
X264538311Y-94871873D02*
X260697561Y-95549101D01*
X264885608Y-96841488D02*
X261044857Y-97518716D01*
X264538311Y-94871873D02*
X264885608Y-96841488D01*
X267846309Y-113632461D02*
X264005559Y-114309689D01*
X268193606Y-115602076D02*
X264352855Y-116279304D01*
X267846309Y-113632461D02*
X268193606Y-115602076D01*
X273895850Y-38236535D02*
X270055100Y-38913763D01*
X274243147Y-40206150D02*
X270402396Y-40883378D01*
X273895850Y-38236535D02*
X274243147Y-40206150D01*
X277203848Y-56997123D02*
X273363098Y-57674351D01*
X277551145Y-58966738D02*
X273710394Y-59643966D01*
X277203848Y-56997123D02*
X277551145Y-58966738D01*
X280511846Y-75757711D02*
X280859143Y-77727326D01*
X280859143Y-77727326D02*
X277018392Y-78404554D01*
X280511846Y-75757711D02*
X276671096Y-76434939D01*
X283819844Y-94518299D02*
X284167141Y-96487914D01*
X284167141Y-96487914D02*
X280326390Y-97165142D01*
X283819844Y-94518299D02*
X279979094Y-95195527D01*
X287127842Y-113278887D02*
X283287092Y-113956115D01*
X287475139Y-115248502D02*
X283634388Y-115925730D01*
X287127842Y-113278887D02*
X287475139Y-115248502D01*
X293177383Y-37882961D02*
X293524680Y-39852576D01*
X293524680Y-39852576D02*
X289683929Y-40529804D01*
X293177383Y-37882961D02*
X289336633Y-38560189D01*
X296485381Y-56643549D02*
X296832678Y-58613164D01*
X296832678Y-58613164D02*
X292991927Y-59290392D01*
X296485381Y-56643549D02*
X292644631Y-57320777D01*
X299793379Y-75404137D02*
X295952629Y-76081365D01*
X300140676Y-77373752D02*
X296299925Y-78050980D01*
X299793379Y-75404137D02*
X300140676Y-77373752D01*
X303101377Y-94164725D02*
X303448674Y-96134340D01*
X303448674Y-96134340D02*
X299607923Y-96811568D01*
X303101377Y-94164725D02*
X299260627Y-94841953D01*
X306409375Y-112925313D02*
X306756672Y-114894928D01*
X306756672Y-114894928D02*
X302915921Y-115572156D01*
X306409375Y-112925313D02*
X302568625Y-113602541D01*
X312285268Y-36544579D02*
X308444518Y-37221807D01*
X312632565Y-38514194D02*
X308791814Y-39191422D01*
X312285268Y-36544579D02*
X312632565Y-38514194D01*
X315593266Y-55305167D02*
X315940563Y-57274782D01*
X315940563Y-57274782D02*
X312099812Y-57952010D01*
X315593266Y-55305167D02*
X311752516Y-55982395D01*
X318901264Y-74065755D02*
X319248561Y-76035370D01*
X319248561Y-76035370D02*
X315407810Y-76712598D01*
X318901264Y-74065755D02*
X315060514Y-74742983D01*
X322209262Y-92826343D02*
X318368512Y-93503571D01*
X322556559Y-94795958D02*
X318715808Y-95473186D01*
X322209262Y-92826343D02*
X322556559Y-94795958D01*
X325517260Y-111586931D02*
X325864557Y-113556546D01*
X325864557Y-113556546D02*
X322023806Y-114233774D01*
X325517260Y-111586931D02*
X321676510Y-112264159D01*
X150200099Y-136501466D02*
X148230484Y-136154169D01*
X148230484Y-136154169D02*
X148907712Y-132313419D01*
X150200099Y-136501466D02*
X150877327Y-132660715D01*
X155837382Y-137157467D02*
X155160154Y-140998218D01*
X157806997Y-137504764D02*
X157129769Y-141345514D01*
X155837382Y-137157467D02*
X157806997Y-137504764D01*
X207793484Y-136387831D02*
X208470712Y-140228581D01*
X209763099Y-136040534D02*
X210440327Y-139881285D01*
X207793484Y-136387831D02*
X209763099Y-136040534D01*
X202162516Y-137043169D02*
X200192901Y-137390466D01*
X200192901Y-137390466D02*
X199515673Y-133549715D01*
X202162516Y-137043169D02*
X201485288Y-133202419D01*
X44237518Y-36284106D02*
X40396767Y-35606878D01*
X43890221Y-38253721D02*
X40049471Y-37576493D01*
X44237518Y-36284106D02*
X43890221Y-38253721D01*
D12*
X39535677Y-54242854D02*
X39709325Y-53258046D01*
X39474847Y-53216702D01*
X39325890Y-53238790D01*
X39215561Y-53316043D01*
X39152128Y-53401566D01*
X39072156Y-53580879D01*
X39047349Y-53721567D01*
X39061169Y-53917418D01*
X39091527Y-54019478D01*
X39168780Y-54129807D01*
X39301199Y-54201509D01*
X39535677Y-54242854D01*
X38754875Y-53186458D02*
X38716248Y-53131294D01*
X38630726Y-53067860D01*
X38396247Y-53026515D01*
X38294187Y-53056873D01*
X38239022Y-53095500D01*
X38175589Y-53181022D01*
X38159051Y-53274813D01*
X38181140Y-53423769D01*
X38644660Y-54085744D01*
X38035017Y-53978247D01*
X36227679Y-73003442D02*
X36401327Y-72018634D01*
X36166849Y-71977290D01*
X36017892Y-71999378D01*
X35907563Y-72076631D01*
X35844130Y-72162154D01*
X35764158Y-72341467D01*
X35739351Y-72482155D01*
X35753171Y-72678006D01*
X35783529Y-72780066D01*
X35860782Y-72890395D01*
X35993201Y-72962097D01*
X36227679Y-73003442D01*
X35510310Y-71861524D02*
X34900667Y-71754028D01*
X35162785Y-72187075D01*
X35022097Y-72162268D01*
X34920037Y-72192626D01*
X34864873Y-72231252D01*
X34801439Y-72316775D01*
X34760094Y-72551253D01*
X34790452Y-72653313D01*
X34829079Y-72708478D01*
X34914601Y-72771911D01*
X35195975Y-72821525D01*
X35298035Y-72791167D01*
X35353200Y-72752541D01*
X32919681Y-91764030D02*
X33093329Y-90779222D01*
X32858851Y-90737878D01*
X32709894Y-90759966D01*
X32599565Y-90837219D01*
X32536132Y-90922742D01*
X32456160Y-91102055D01*
X32431353Y-91242743D01*
X32445173Y-91438594D01*
X32475531Y-91540654D01*
X32552784Y-91650983D01*
X32685203Y-91722685D01*
X32919681Y-91764030D01*
X31628577Y-90859422D02*
X31512812Y-91515961D01*
X31929208Y-90525603D02*
X32039651Y-91270382D01*
X31430008Y-91162885D01*
X29611683Y-110524618D02*
X29785331Y-109539810D01*
X29550853Y-109498466D01*
X29401896Y-109520554D01*
X29291567Y-109597807D01*
X29228134Y-109683330D01*
X29148162Y-109862643D01*
X29123355Y-110003331D01*
X29137175Y-110199182D01*
X29167533Y-110301242D01*
X29244786Y-110411571D01*
X29377205Y-110483273D01*
X29611683Y-110524618D01*
X28331566Y-109283473D02*
X28800523Y-109366162D01*
X28764729Y-109843387D01*
X28726102Y-109788222D01*
X28640580Y-109724789D01*
X28406101Y-109683444D01*
X28304041Y-109713802D01*
X28248877Y-109752428D01*
X28185443Y-109837951D01*
X28144098Y-110072429D01*
X28174456Y-110174489D01*
X28213083Y-110229654D01*
X28298605Y-110293087D01*
X28533084Y-110334432D01*
X28635144Y-110304074D01*
X28690308Y-110265448D01*
X61951559Y-36820648D02*
X62125207Y-35835840D01*
X61890729Y-35794496D01*
X61741772Y-35816584D01*
X61631443Y-35893837D01*
X61568010Y-35979360D01*
X61488038Y-36158673D01*
X61463231Y-36299361D01*
X61477051Y-36495212D01*
X61507409Y-36597272D01*
X61584662Y-36707601D01*
X61717081Y-36779303D01*
X61951559Y-36820648D01*
X60718338Y-35587771D02*
X60905921Y-35620847D01*
X60991443Y-35684281D01*
X61030070Y-35739445D01*
X61099054Y-35896670D01*
X61112874Y-36092521D01*
X61046722Y-36467687D01*
X60983289Y-36553209D01*
X60928124Y-36591835D01*
X60826064Y-36622193D01*
X60638481Y-36589117D01*
X60552959Y-36525684D01*
X60514332Y-36470519D01*
X60483974Y-36368459D01*
X60525319Y-36133981D01*
X60588753Y-36048458D01*
X60643917Y-36009832D01*
X60745977Y-35979474D01*
X60933561Y-36012550D01*
X61019083Y-36075983D01*
X61057709Y-36131148D01*
X61088067Y-36233209D01*
X58643561Y-55581236D02*
X58817209Y-54596428D01*
X58582731Y-54555084D01*
X58433774Y-54577172D01*
X58323445Y-54654425D01*
X58260012Y-54739948D01*
X58180040Y-54919261D01*
X58155233Y-55059949D01*
X58169053Y-55255800D01*
X58199411Y-55357860D01*
X58276664Y-55468189D01*
X58409083Y-55539891D01*
X58643561Y-55581236D01*
X57926192Y-54439318D02*
X57269653Y-54323553D01*
X57518066Y-55382781D01*
X55335563Y-74341824D02*
X55509211Y-73357016D01*
X55274733Y-73315672D01*
X55125776Y-73337760D01*
X55015447Y-73415013D01*
X54952014Y-73500536D01*
X54872042Y-73679849D01*
X54847235Y-73820537D01*
X54861055Y-74016388D01*
X54891413Y-74118448D01*
X54968666Y-74228777D01*
X55101085Y-74300479D01*
X55335563Y-74341824D01*
X54309296Y-73580621D02*
X54411356Y-73550264D01*
X54466520Y-73511637D01*
X54529954Y-73426115D01*
X54538223Y-73379219D01*
X54507865Y-73277159D01*
X54469238Y-73221995D01*
X54383716Y-73158561D01*
X54196133Y-73125485D01*
X54094073Y-73155843D01*
X54038908Y-73194470D01*
X53975475Y-73279992D01*
X53967206Y-73326887D01*
X53997564Y-73428947D01*
X54036190Y-73484112D01*
X54121712Y-73547545D01*
X54309296Y-73580621D01*
X54394818Y-73644055D01*
X54433444Y-73699219D01*
X54463802Y-73801280D01*
X54430726Y-73988863D01*
X54367293Y-74074385D01*
X54312128Y-74113011D01*
X54210068Y-74143369D01*
X54022485Y-74110293D01*
X53936963Y-74046860D01*
X53898336Y-73991695D01*
X53867978Y-73889635D01*
X53901054Y-73702053D01*
X53964488Y-73616530D01*
X54019652Y-73577903D01*
X54121712Y-73547545D01*
X52027565Y-93102412D02*
X52201213Y-92117604D01*
X51966735Y-92076260D01*
X51817778Y-92098348D01*
X51707449Y-92175601D01*
X51644016Y-92261124D01*
X51564044Y-92440437D01*
X51539237Y-92581125D01*
X51553057Y-92776976D01*
X51583415Y-92879036D01*
X51660668Y-92989365D01*
X51793087Y-93061067D01*
X52027565Y-93102412D01*
X50995861Y-92920495D02*
X50808279Y-92887419D01*
X50722756Y-92823986D01*
X50684129Y-92768821D01*
X50615145Y-92611596D01*
X50601325Y-92415745D01*
X50667477Y-92040580D01*
X50730910Y-91955058D01*
X50786075Y-91916431D01*
X50888135Y-91886073D01*
X51075718Y-91919149D01*
X51161240Y-91982583D01*
X51199867Y-92037747D01*
X51230225Y-92139807D01*
X51188880Y-92374285D01*
X51125446Y-92459807D01*
X51070282Y-92498435D01*
X50968222Y-92528793D01*
X50780639Y-92495717D01*
X50695116Y-92432283D01*
X50656490Y-92377118D01*
X50626132Y-92275058D01*
X49188523Y-111945690D02*
X49362171Y-110960882D01*
X49127694Y-110919537D01*
X48978737Y-110941626D01*
X48868408Y-111018879D01*
X48804974Y-111104401D01*
X48725003Y-111283715D01*
X48700196Y-111424402D01*
X48714016Y-111620253D01*
X48744373Y-111722313D01*
X48821627Y-111832643D01*
X48954045Y-111904345D01*
X49188523Y-111945690D01*
X47687863Y-111681083D02*
X48250611Y-111780311D01*
X47969238Y-111730697D02*
X48142886Y-110745889D01*
X48211870Y-110903114D01*
X48289123Y-111013443D01*
X48374645Y-111076876D01*
X47251869Y-110588779D02*
X47158077Y-110572241D01*
X47056017Y-110602598D01*
X47000852Y-110641225D01*
X46937419Y-110726747D01*
X46857448Y-110906061D01*
X46816103Y-111140539D01*
X46829922Y-111336391D01*
X46860280Y-111438451D01*
X46898907Y-111493615D01*
X46984429Y-111557049D01*
X47078221Y-111573587D01*
X47180281Y-111543229D01*
X47235446Y-111504602D01*
X47298879Y-111419080D01*
X47378850Y-111239767D01*
X47420195Y-111005288D01*
X47406376Y-110809437D01*
X47376018Y-110707377D01*
X47337391Y-110652212D01*
X47251869Y-110588779D01*
X81702047Y-37256912D02*
X81875695Y-36272104D01*
X81641218Y-36230759D01*
X81492261Y-36252848D01*
X81381932Y-36330101D01*
X81318498Y-36415623D01*
X81238527Y-36594937D01*
X81213720Y-36735624D01*
X81227540Y-36931475D01*
X81257897Y-37033535D01*
X81335151Y-37143865D01*
X81467569Y-37215567D01*
X81702047Y-37256912D01*
X80201387Y-36992305D02*
X80764135Y-37091533D01*
X80482762Y-37041919D02*
X80656410Y-36057111D01*
X80725394Y-36214336D01*
X80802647Y-36324665D01*
X80888169Y-36388098D01*
X79263475Y-36826926D02*
X79826223Y-36926153D01*
X79544849Y-36876540D02*
X79718498Y-35891732D01*
X79787482Y-36048957D01*
X79864735Y-36159286D01*
X79950257Y-36222719D01*
X78394049Y-56017500D02*
X78567697Y-55032692D01*
X78333220Y-54991347D01*
X78184263Y-55013436D01*
X78073934Y-55090689D01*
X78010500Y-55176211D01*
X77930529Y-55355525D01*
X77905722Y-55496212D01*
X77919542Y-55692063D01*
X77949899Y-55794123D01*
X78027153Y-55904453D01*
X78159571Y-55976155D01*
X78394049Y-56017500D01*
X76893389Y-55752893D02*
X77456137Y-55852121D01*
X77174764Y-55802507D02*
X77348412Y-54817699D01*
X77417396Y-54974924D01*
X77494649Y-55085253D01*
X77580171Y-55148686D01*
X76675335Y-54795725D02*
X76636708Y-54740560D01*
X76551186Y-54677127D01*
X76316707Y-54635782D01*
X76214647Y-54666140D01*
X76159483Y-54704766D01*
X76096049Y-54790288D01*
X76079511Y-54884079D01*
X76101600Y-55033035D01*
X76565120Y-55695010D01*
X75955477Y-55587514D01*
X75086051Y-74778088D02*
X75259699Y-73793280D01*
X75025222Y-73751935D01*
X74876265Y-73774024D01*
X74765936Y-73851277D01*
X74702502Y-73936799D01*
X74622531Y-74116113D01*
X74597724Y-74256800D01*
X74611544Y-74452651D01*
X74641901Y-74554711D01*
X74719155Y-74665041D01*
X74851573Y-74736743D01*
X75086051Y-74778088D01*
X73585391Y-74513481D02*
X74148139Y-74612709D01*
X73866766Y-74563095D02*
X74040414Y-73578287D01*
X74109398Y-73735512D01*
X74186651Y-73845841D01*
X74272173Y-73909274D01*
X73430770Y-73470791D02*
X72821127Y-73363294D01*
X73083246Y-73796341D01*
X72942558Y-73771534D01*
X72840498Y-73801892D01*
X72785333Y-73840519D01*
X72721900Y-73926042D01*
X72680555Y-74160520D01*
X72710913Y-74262580D01*
X72749539Y-74317744D01*
X72835061Y-74381178D01*
X73116436Y-74430792D01*
X73218496Y-74400434D01*
X73273660Y-74361807D01*
X71778053Y-93538676D02*
X71951701Y-92553868D01*
X71717224Y-92512523D01*
X71568267Y-92534612D01*
X71457938Y-92611865D01*
X71394504Y-92697387D01*
X71314533Y-92876701D01*
X71289726Y-93017388D01*
X71303546Y-93213239D01*
X71333903Y-93315299D01*
X71411157Y-93425629D01*
X71543575Y-93497331D01*
X71778053Y-93538676D01*
X70277393Y-93274069D02*
X70840141Y-93373297D01*
X70558768Y-93323683D02*
X70732416Y-92338875D01*
X70801400Y-92496100D01*
X70878653Y-92606429D01*
X70964175Y-92669862D01*
X69549038Y-92468689D02*
X69433272Y-93125228D01*
X69849668Y-92134869D02*
X69960111Y-92879648D01*
X69350468Y-92772152D01*
X68470055Y-112299264D02*
X68643703Y-111314456D01*
X68409226Y-111273111D01*
X68260269Y-111295200D01*
X68149940Y-111372453D01*
X68086506Y-111457975D01*
X68006535Y-111637289D01*
X67981728Y-111777976D01*
X67995548Y-111973827D01*
X68025905Y-112075887D01*
X68103159Y-112186217D01*
X68235577Y-112257919D01*
X68470055Y-112299264D01*
X66969395Y-112034657D02*
X67532143Y-112133885D01*
X67250770Y-112084271D02*
X67424418Y-111099463D01*
X67493402Y-111256688D01*
X67570655Y-111367017D01*
X67656177Y-111430450D01*
X66252027Y-110892739D02*
X66720983Y-110975429D01*
X66685189Y-111452653D01*
X66646563Y-111397489D01*
X66561041Y-111334055D01*
X66326562Y-111292710D01*
X66224502Y-111323068D01*
X66169337Y-111361695D01*
X66105904Y-111447218D01*
X66064559Y-111681696D01*
X66094917Y-111783756D01*
X66133543Y-111838920D01*
X66219065Y-111902354D01*
X66453544Y-111943699D01*
X66555604Y-111913341D01*
X66610769Y-111874714D01*
X100983579Y-37610486D02*
X101157227Y-36625678D01*
X100922750Y-36584333D01*
X100773793Y-36606422D01*
X100663464Y-36683675D01*
X100600030Y-36769197D01*
X100520059Y-36948511D01*
X100495252Y-37089198D01*
X100509072Y-37285049D01*
X100539429Y-37387109D01*
X100616683Y-37497439D01*
X100749101Y-37569141D01*
X100983579Y-37610486D01*
X99482919Y-37345879D02*
X100045667Y-37445107D01*
X99764294Y-37395493D02*
X99937942Y-36410685D01*
X100006926Y-36567910D01*
X100084179Y-36678239D01*
X100169701Y-36741672D01*
X98812446Y-36212230D02*
X99000030Y-36245306D01*
X99085552Y-36308739D01*
X99124178Y-36363904D01*
X99193163Y-36521129D01*
X99206982Y-36716980D01*
X99140831Y-37092145D01*
X99077397Y-37177667D01*
X99022233Y-37216294D01*
X98920173Y-37246652D01*
X98732589Y-37213576D01*
X98647067Y-37150142D01*
X98608441Y-37094978D01*
X98578083Y-36992918D01*
X98619428Y-36758440D01*
X98682861Y-36672917D01*
X98738026Y-36634290D01*
X98840086Y-36603932D01*
X99027669Y-36637008D01*
X99113191Y-36700442D01*
X99151818Y-36755606D01*
X99182175Y-36857667D01*
X97675581Y-56371074D02*
X97849229Y-55386266D01*
X97614752Y-55344921D01*
X97465795Y-55367010D01*
X97355466Y-55444263D01*
X97292032Y-55529785D01*
X97212061Y-55709099D01*
X97187254Y-55849786D01*
X97201074Y-56045637D01*
X97231431Y-56147697D01*
X97308685Y-56258027D01*
X97441103Y-56329729D01*
X97675581Y-56371074D01*
X96174921Y-56106467D02*
X96737669Y-56205695D01*
X96456296Y-56156081D02*
X96629944Y-55171273D01*
X96698928Y-55328498D01*
X96776181Y-55438827D01*
X96861703Y-55502260D01*
X96020300Y-55063777D02*
X95363762Y-54948011D01*
X95612175Y-56007240D01*
X94367583Y-75131662D02*
X94541231Y-74146854D01*
X94306754Y-74105509D01*
X94157797Y-74127598D01*
X94047468Y-74204851D01*
X93984034Y-74290373D01*
X93904063Y-74469687D01*
X93879256Y-74610374D01*
X93893076Y-74806225D01*
X93923433Y-74908285D01*
X94000687Y-75018615D01*
X94133105Y-75090317D01*
X94367583Y-75131662D01*
X92866923Y-74867055D02*
X93429671Y-74966283D01*
X93148298Y-74916669D02*
X93321946Y-73931861D01*
X93390930Y-74089086D01*
X93468183Y-74199415D01*
X93553705Y-74262848D01*
X92403404Y-74205080D02*
X92505464Y-74174722D01*
X92560629Y-74136096D01*
X92624062Y-74050573D01*
X92632331Y-74003678D01*
X92601973Y-73901618D01*
X92563347Y-73846453D01*
X92477825Y-73783020D01*
X92290241Y-73749944D01*
X92188181Y-73780302D01*
X92133017Y-73818928D01*
X92069583Y-73904450D01*
X92061314Y-73951346D01*
X92091672Y-74053406D01*
X92130299Y-74108570D01*
X92215821Y-74172004D01*
X92403404Y-74205080D01*
X92488926Y-74268513D01*
X92527553Y-74323678D01*
X92557910Y-74425739D01*
X92524835Y-74613321D01*
X92461401Y-74698843D01*
X92406237Y-74737470D01*
X92304177Y-74767828D01*
X92116593Y-74734752D01*
X92031071Y-74671318D01*
X91992445Y-74616154D01*
X91962087Y-74514094D01*
X91995163Y-74326511D01*
X92058596Y-74240988D01*
X92113761Y-74202362D01*
X92215821Y-74172004D01*
X91059585Y-93892250D02*
X91233233Y-92907442D01*
X90998756Y-92866097D01*
X90849799Y-92888186D01*
X90739470Y-92965439D01*
X90676036Y-93050961D01*
X90596065Y-93230275D01*
X90571258Y-93370962D01*
X90585078Y-93566813D01*
X90615435Y-93668873D01*
X90692689Y-93779203D01*
X90825107Y-93850905D01*
X91059585Y-93892250D01*
X89558925Y-93627643D02*
X90121673Y-93726871D01*
X89840300Y-93677257D02*
X90013948Y-92692449D01*
X90082932Y-92849674D01*
X90160185Y-92960003D01*
X90245707Y-93023436D01*
X89089970Y-93544954D02*
X88902387Y-93511878D01*
X88816864Y-93448444D01*
X88778238Y-93393280D01*
X88709253Y-93236055D01*
X88695434Y-93040204D01*
X88761585Y-92665038D01*
X88825019Y-92579516D01*
X88880183Y-92540890D01*
X88982243Y-92510532D01*
X89169827Y-92543608D01*
X89255349Y-92607041D01*
X89293975Y-92662206D01*
X89324333Y-92764266D01*
X89282988Y-92998744D01*
X89219555Y-93084266D01*
X89164390Y-93122893D01*
X89062330Y-93153251D01*
X88874747Y-93120175D01*
X88789225Y-93056742D01*
X88750598Y-93001576D01*
X88720241Y-92899516D01*
X87751587Y-112652838D02*
X87925235Y-111668030D01*
X87690758Y-111626685D01*
X87541801Y-111648774D01*
X87431472Y-111726027D01*
X87368038Y-111811549D01*
X87288067Y-111990863D01*
X87263260Y-112131550D01*
X87277080Y-112327401D01*
X87307437Y-112429461D01*
X87384691Y-112539791D01*
X87517109Y-112611493D01*
X87751587Y-112652838D01*
X86970785Y-111596442D02*
X86932159Y-111541277D01*
X86846636Y-111477844D01*
X86612158Y-111436499D01*
X86510098Y-111466857D01*
X86454933Y-111505483D01*
X86391500Y-111591006D01*
X86374962Y-111684797D01*
X86397050Y-111833752D01*
X86860570Y-112495728D01*
X86250927Y-112388231D01*
X85814933Y-111295927D02*
X85721141Y-111279389D01*
X85619081Y-111309746D01*
X85563916Y-111348373D01*
X85500483Y-111433895D01*
X85420512Y-111613209D01*
X85379167Y-111847687D01*
X85392986Y-112043539D01*
X85423344Y-112145599D01*
X85461971Y-112200763D01*
X85547493Y-112264197D01*
X85641285Y-112280735D01*
X85743345Y-112250377D01*
X85798510Y-112211750D01*
X85861943Y-112126228D01*
X85941914Y-111946915D01*
X85983259Y-111712436D01*
X85969440Y-111516585D01*
X85939082Y-111414525D01*
X85900455Y-111359360D01*
X85814933Y-111295927D01*
X119223222Y-43872907D02*
X119396870Y-42888099D01*
X119162393Y-42846754D01*
X119013436Y-42868843D01*
X118903107Y-42946096D01*
X118839673Y-43031618D01*
X118759702Y-43210932D01*
X118734895Y-43351619D01*
X118748715Y-43547470D01*
X118779072Y-43649530D01*
X118856326Y-43759860D01*
X118988744Y-43831562D01*
X119223222Y-43872907D01*
X118442420Y-42816511D02*
X118403794Y-42761346D01*
X118318271Y-42697913D01*
X118083793Y-42656568D01*
X117981733Y-42686926D01*
X117926568Y-42725552D01*
X117863135Y-42811075D01*
X117846597Y-42904866D01*
X117868685Y-43053821D01*
X118332205Y-43715797D01*
X117722562Y-43608300D01*
X116784650Y-43442921D02*
X117347398Y-43542148D01*
X117066024Y-43492535D02*
X117239673Y-42507727D01*
X117308657Y-42664952D01*
X117385910Y-42775281D01*
X117471432Y-42838714D01*
X115915224Y-62633495D02*
X116088872Y-61648687D01*
X115854395Y-61607342D01*
X115705438Y-61629431D01*
X115595109Y-61706684D01*
X115531675Y-61792206D01*
X115451704Y-61971520D01*
X115426897Y-62112207D01*
X115440717Y-62308058D01*
X115471074Y-62410118D01*
X115548328Y-62520448D01*
X115680746Y-62592150D01*
X115915224Y-62633495D01*
X115134422Y-61577099D02*
X115095796Y-61521934D01*
X115010273Y-61458501D01*
X114775795Y-61417156D01*
X114673735Y-61447514D01*
X114618570Y-61486140D01*
X114555137Y-61571663D01*
X114538599Y-61665454D01*
X114560687Y-61814409D01*
X115024207Y-62476385D01*
X114414564Y-62368888D01*
X114196510Y-61411720D02*
X114157883Y-61356555D01*
X114072361Y-61293122D01*
X113837882Y-61251777D01*
X113735822Y-61282135D01*
X113680658Y-61320761D01*
X113617224Y-61406283D01*
X113600686Y-61500074D01*
X113622775Y-61649030D01*
X114086295Y-62311005D01*
X113476652Y-62203509D01*
X112607226Y-81394083D02*
X112780874Y-80409275D01*
X112546397Y-80367930D01*
X112397440Y-80390019D01*
X112287111Y-80467272D01*
X112223677Y-80552794D01*
X112143706Y-80732108D01*
X112118899Y-80872795D01*
X112132719Y-81068646D01*
X112163076Y-81170706D01*
X112240330Y-81281036D01*
X112372748Y-81352738D01*
X112607226Y-81394083D01*
X111826424Y-80337687D02*
X111787798Y-80282522D01*
X111702275Y-80219089D01*
X111467797Y-80177744D01*
X111365737Y-80208102D01*
X111310572Y-80246728D01*
X111247139Y-80332251D01*
X111230601Y-80426042D01*
X111252689Y-80574997D01*
X111716209Y-81236973D01*
X111106566Y-81129476D01*
X110951945Y-80086786D02*
X110342302Y-79979289D01*
X110604421Y-80412336D01*
X110463733Y-80387529D01*
X110361673Y-80417887D01*
X110306508Y-80456514D01*
X110243075Y-80542037D01*
X110201730Y-80776515D01*
X110232088Y-80878575D01*
X110270714Y-80933739D01*
X110356236Y-80997173D01*
X110637611Y-81046787D01*
X110739671Y-81016429D01*
X110794835Y-80977802D01*
X109299228Y-100154671D02*
X109472876Y-99169863D01*
X109238399Y-99128518D01*
X109089442Y-99150607D01*
X108979113Y-99227860D01*
X108915679Y-99313382D01*
X108835708Y-99492696D01*
X108810901Y-99633383D01*
X108824721Y-99829234D01*
X108855078Y-99931294D01*
X108932332Y-100041624D01*
X109064750Y-100113326D01*
X109299228Y-100154671D01*
X108518426Y-99098275D02*
X108479800Y-99043110D01*
X108394277Y-98979677D01*
X108159799Y-98938332D01*
X108057739Y-98968690D01*
X108002574Y-99007316D01*
X107939141Y-99092839D01*
X107922603Y-99186630D01*
X107944691Y-99335585D01*
X108408211Y-99997561D01*
X107798568Y-99890064D01*
X107070213Y-99084684D02*
X106954447Y-99741223D01*
X107370843Y-98750864D02*
X107481286Y-99495643D01*
X106871643Y-99388147D01*
X105991230Y-118915259D02*
X106164878Y-117930451D01*
X105930401Y-117889106D01*
X105781444Y-117911195D01*
X105671115Y-117988448D01*
X105607681Y-118073970D01*
X105527710Y-118253284D01*
X105502903Y-118393971D01*
X105516723Y-118589822D01*
X105547080Y-118691882D01*
X105624334Y-118802212D01*
X105756752Y-118873914D01*
X105991230Y-118915259D01*
X105210428Y-117858863D02*
X105171802Y-117803698D01*
X105086279Y-117740265D01*
X104851801Y-117698920D01*
X104749741Y-117729278D01*
X104694576Y-117767904D01*
X104631143Y-117853427D01*
X104614605Y-117947218D01*
X104636693Y-118096173D01*
X105100213Y-118758149D01*
X104490570Y-118650652D01*
X103773202Y-117508734D02*
X104242158Y-117591424D01*
X104206364Y-118068648D01*
X104167738Y-118013484D01*
X104082216Y-117950050D01*
X103847737Y-117908705D01*
X103745677Y-117939063D01*
X103690512Y-117977690D01*
X103627079Y-118063213D01*
X103585734Y-118297691D01*
X103616092Y-118399751D01*
X103654718Y-118454915D01*
X103740240Y-118518349D01*
X103974719Y-118559694D01*
X104076779Y-118529336D01*
X104131944Y-118490709D01*
X137462865Y-50135328D02*
X137636513Y-49150520D01*
X137402036Y-49109175D01*
X137253079Y-49131264D01*
X137142750Y-49208517D01*
X137079316Y-49294039D01*
X136999345Y-49473353D01*
X136974538Y-49614040D01*
X136988358Y-49809891D01*
X137018715Y-49911951D01*
X137095969Y-50022281D01*
X137228387Y-50093983D01*
X137462865Y-50135328D01*
X136682063Y-49078932D02*
X136643437Y-49023767D01*
X136557914Y-48960334D01*
X136323436Y-48918989D01*
X136221376Y-48949347D01*
X136166211Y-48987973D01*
X136102778Y-49073496D01*
X136086240Y-49167287D01*
X136108328Y-49316242D01*
X136571848Y-49978218D01*
X135962205Y-49870721D01*
X135291732Y-48737072D02*
X135479316Y-48770148D01*
X135564838Y-48833581D01*
X135603464Y-48888746D01*
X135672449Y-49045971D01*
X135686268Y-49241822D01*
X135620117Y-49616987D01*
X135556683Y-49702509D01*
X135501519Y-49741136D01*
X135399459Y-49771494D01*
X135211875Y-49738418D01*
X135126353Y-49674984D01*
X135087727Y-49619820D01*
X135057369Y-49517760D01*
X135098714Y-49283282D01*
X135162147Y-49197759D01*
X135217312Y-49159132D01*
X135319372Y-49128774D01*
X135506955Y-49161850D01*
X135592477Y-49225284D01*
X135631104Y-49280448D01*
X135661461Y-49382509D01*
X134154867Y-68895916D02*
X134328515Y-67911108D01*
X134094038Y-67869763D01*
X133945081Y-67891852D01*
X133834752Y-67969105D01*
X133771318Y-68054627D01*
X133691347Y-68233941D01*
X133666540Y-68374628D01*
X133680360Y-68570479D01*
X133710717Y-68672539D01*
X133787971Y-68782869D01*
X133920389Y-68854571D01*
X134154867Y-68895916D01*
X133374065Y-67839520D02*
X133335439Y-67784355D01*
X133249916Y-67720922D01*
X133015438Y-67679577D01*
X132913378Y-67709935D01*
X132858213Y-67748561D01*
X132794780Y-67834084D01*
X132778242Y-67927875D01*
X132800330Y-68076830D01*
X133263850Y-68738806D01*
X132654207Y-68631309D01*
X132499586Y-67588619D02*
X131843048Y-67472853D01*
X132091461Y-68532082D01*
X130846869Y-87656504D02*
X131020517Y-86671696D01*
X130786040Y-86630351D01*
X130637083Y-86652440D01*
X130526754Y-86729693D01*
X130463320Y-86815215D01*
X130383349Y-86994529D01*
X130358542Y-87135216D01*
X130372362Y-87331067D01*
X130402719Y-87433127D01*
X130479973Y-87543457D01*
X130612391Y-87615159D01*
X130846869Y-87656504D01*
X130066067Y-86600108D02*
X130027441Y-86544943D01*
X129941918Y-86481510D01*
X129707440Y-86440165D01*
X129605380Y-86470523D01*
X129550215Y-86509149D01*
X129486782Y-86594672D01*
X129470244Y-86688463D01*
X129492332Y-86837418D01*
X129955852Y-87499394D01*
X129346209Y-87391897D01*
X128882690Y-86729922D02*
X128984750Y-86699564D01*
X129039915Y-86660938D01*
X129103348Y-86575415D01*
X129111617Y-86528520D01*
X129081259Y-86426460D01*
X129042633Y-86371295D01*
X128957111Y-86307862D01*
X128769527Y-86274786D01*
X128667467Y-86305144D01*
X128612303Y-86343770D01*
X128548869Y-86429292D01*
X128540600Y-86476188D01*
X128570958Y-86578248D01*
X128609585Y-86633412D01*
X128695107Y-86696846D01*
X128882690Y-86729922D01*
X128968212Y-86793355D01*
X129006839Y-86848520D01*
X129037196Y-86950581D01*
X129004121Y-87138163D01*
X128940687Y-87223685D01*
X128885523Y-87262312D01*
X128783463Y-87292670D01*
X128595879Y-87259594D01*
X128510357Y-87196160D01*
X128471731Y-87140996D01*
X128441373Y-87038936D01*
X128474449Y-86851353D01*
X128537882Y-86765830D01*
X128593047Y-86727204D01*
X128695107Y-86696846D01*
X127538871Y-106417092D02*
X127712519Y-105432284D01*
X127478042Y-105390939D01*
X127329085Y-105413028D01*
X127218756Y-105490281D01*
X127155322Y-105575803D01*
X127075351Y-105755117D01*
X127050544Y-105895804D01*
X127064364Y-106091655D01*
X127094721Y-106193715D01*
X127171975Y-106304045D01*
X127304393Y-106375747D01*
X127538871Y-106417092D01*
X126758069Y-105360696D02*
X126719443Y-105305531D01*
X126633920Y-105242098D01*
X126399442Y-105200753D01*
X126297382Y-105231111D01*
X126242217Y-105269737D01*
X126178784Y-105355260D01*
X126162246Y-105449051D01*
X126184334Y-105598006D01*
X126647854Y-106259982D01*
X126038211Y-106152485D01*
X125569256Y-106069796D02*
X125381673Y-106036720D01*
X125296150Y-105973286D01*
X125257524Y-105918122D01*
X125188539Y-105760897D01*
X125174720Y-105565046D01*
X125240871Y-105189880D01*
X125304305Y-105104358D01*
X125359469Y-105065732D01*
X125461529Y-105035374D01*
X125649113Y-105068450D01*
X125734635Y-105131883D01*
X125773261Y-105187048D01*
X125803619Y-105289108D01*
X125762274Y-105523586D01*
X125698841Y-105609108D01*
X125643676Y-105647735D01*
X125541616Y-105678093D01*
X125354033Y-105645017D01*
X125268511Y-105581584D01*
X125229884Y-105526418D01*
X125199527Y-105424358D01*
X124230873Y-125177680D02*
X124404521Y-124192872D01*
X124170044Y-124151527D01*
X124021087Y-124173616D01*
X123910758Y-124250869D01*
X123847324Y-124336391D01*
X123767353Y-124515705D01*
X123742546Y-124656392D01*
X123756366Y-124852243D01*
X123786723Y-124954303D01*
X123863977Y-125064633D01*
X123996395Y-125136335D01*
X124230873Y-125177680D01*
X123513505Y-124035762D02*
X122903861Y-123928265D01*
X123165980Y-124361313D01*
X123025292Y-124336506D01*
X122923232Y-124366863D01*
X122868067Y-124405490D01*
X122804634Y-124491013D01*
X122763289Y-124725491D01*
X122793647Y-124827551D01*
X122832273Y-124882715D01*
X122917795Y-124946149D01*
X123199170Y-124995763D01*
X123301230Y-124965405D01*
X123356394Y-124926778D01*
X122294219Y-123820769D02*
X122200427Y-123804231D01*
X122098367Y-123834588D01*
X122043202Y-123873215D01*
X121979769Y-123958737D01*
X121899798Y-124138051D01*
X121858453Y-124372529D01*
X121872272Y-124568381D01*
X121902630Y-124670441D01*
X121941257Y-124725605D01*
X122026779Y-124789039D01*
X122120571Y-124805577D01*
X122222631Y-124775219D01*
X122277796Y-124736592D01*
X122341229Y-124651070D01*
X122421200Y-124471757D01*
X122462545Y-124237278D01*
X122448726Y-124041427D01*
X122418368Y-123939367D01*
X122379741Y-123884202D01*
X122294219Y-123820769D01*
X217019957Y-50755501D02*
X216846309Y-49770693D01*
X216611831Y-49812038D01*
X216479413Y-49883740D01*
X216402159Y-49994069D01*
X216371802Y-50096129D01*
X216357982Y-50291981D01*
X216382789Y-50432668D01*
X216462760Y-50611982D01*
X216526194Y-50697504D01*
X216636523Y-50774757D01*
X216785480Y-50796846D01*
X217019957Y-50755501D01*
X215955293Y-49927803D02*
X215345649Y-50035300D01*
X215740071Y-50352581D01*
X215599383Y-50377389D01*
X215513861Y-50440822D01*
X215475234Y-50495986D01*
X215444877Y-50598048D01*
X215486222Y-50832525D01*
X215549655Y-50918048D01*
X215604820Y-50956674D01*
X215706880Y-50987032D01*
X215988254Y-50937418D01*
X216073776Y-50873984D01*
X216112403Y-50818820D01*
X214581385Y-51185487D02*
X215144133Y-51086259D01*
X214862760Y-51135873D02*
X214689111Y-50151065D01*
X214807709Y-50275214D01*
X214918038Y-50352467D01*
X215020099Y-50382825D01*
X220327955Y-69516089D02*
X220154307Y-68531281D01*
X219919829Y-68572626D01*
X219787411Y-68644328D01*
X219710157Y-68754657D01*
X219679800Y-68856717D01*
X219665980Y-69052569D01*
X219690787Y-69193256D01*
X219770758Y-69372570D01*
X219834192Y-69458092D01*
X219944521Y-69535345D01*
X220093478Y-69557434D01*
X220327955Y-69516089D01*
X219263291Y-68688391D02*
X218653647Y-68795888D01*
X219048069Y-69113169D01*
X218907381Y-69137977D01*
X218821859Y-69201410D01*
X218783232Y-69256574D01*
X218752875Y-69358636D01*
X218794220Y-69593113D01*
X218857653Y-69678636D01*
X218912818Y-69717262D01*
X219014878Y-69747620D01*
X219296252Y-69698006D01*
X219381774Y-69634572D01*
X219420401Y-69579408D01*
X218295021Y-68955831D02*
X218239856Y-68917204D01*
X218137796Y-68886846D01*
X217903317Y-68928191D01*
X217817795Y-68991625D01*
X217779169Y-69046789D01*
X217748811Y-69148849D01*
X217765349Y-69242640D01*
X217837051Y-69375058D01*
X218499027Y-69838578D01*
X217889383Y-69946075D01*
X223635953Y-88276677D02*
X223462305Y-87291869D01*
X223227827Y-87333214D01*
X223095409Y-87404916D01*
X223018155Y-87515245D01*
X222987798Y-87617305D01*
X222973978Y-87813157D01*
X222998785Y-87953844D01*
X223078756Y-88133158D01*
X223142190Y-88218680D01*
X223252519Y-88295933D01*
X223401476Y-88318022D01*
X223635953Y-88276677D01*
X222571289Y-87448979D02*
X221961645Y-87556476D01*
X222356067Y-87873757D01*
X222215379Y-87898565D01*
X222129857Y-87961998D01*
X222091230Y-88017162D01*
X222060873Y-88119224D01*
X222102218Y-88353701D01*
X222165651Y-88439224D01*
X222220816Y-88477850D01*
X222322876Y-88508208D01*
X222604250Y-88458594D01*
X222689772Y-88395160D01*
X222728399Y-88339996D01*
X221633376Y-87614359D02*
X221023733Y-87721855D01*
X221418155Y-88039137D01*
X221277467Y-88063944D01*
X221191945Y-88127377D01*
X221153318Y-88182542D01*
X221122961Y-88284603D01*
X221164305Y-88519081D01*
X221227739Y-88604603D01*
X221282903Y-88643229D01*
X221384964Y-88673587D01*
X221666338Y-88623973D01*
X221751860Y-88560540D01*
X221790487Y-88505375D01*
X226943951Y-107037265D02*
X226770303Y-106052457D01*
X226535825Y-106093802D01*
X226403407Y-106165504D01*
X226326153Y-106275833D01*
X226295796Y-106377893D01*
X226281976Y-106573745D01*
X226306783Y-106714432D01*
X226386754Y-106893746D01*
X226450188Y-106979268D01*
X226560517Y-107056521D01*
X226709474Y-107078610D01*
X226943951Y-107037265D01*
X225879287Y-106209567D02*
X225269643Y-106317064D01*
X225664065Y-106634345D01*
X225523377Y-106659153D01*
X225437855Y-106722586D01*
X225399228Y-106777750D01*
X225368871Y-106879812D01*
X225410216Y-107114289D01*
X225473649Y-107199812D01*
X225528814Y-107238438D01*
X225630874Y-107268796D01*
X225912248Y-107219182D01*
X225997770Y-107155748D01*
X226036397Y-107100584D01*
X224483405Y-106794174D02*
X224599170Y-107450713D01*
X224651732Y-106377665D02*
X225010244Y-107039754D01*
X224400601Y-107147251D01*
X230251949Y-125797853D02*
X230078301Y-124813045D01*
X229843823Y-124854390D01*
X229711405Y-124926092D01*
X229634151Y-125036421D01*
X229603794Y-125138481D01*
X229589974Y-125334333D01*
X229614781Y-125475020D01*
X229694752Y-125654334D01*
X229758186Y-125739856D01*
X229868515Y-125817109D01*
X230017472Y-125839198D01*
X230251949Y-125797853D01*
X229187285Y-124970155D02*
X228577641Y-125077652D01*
X228972063Y-125394933D01*
X228831375Y-125419741D01*
X228745853Y-125483174D01*
X228707226Y-125538338D01*
X228676869Y-125640400D01*
X228718214Y-125874877D01*
X228781647Y-125960400D01*
X228836812Y-125999026D01*
X228938872Y-126029384D01*
X229220246Y-125979770D01*
X229305768Y-125916336D01*
X229344395Y-125861172D01*
X227686625Y-125234762D02*
X228155581Y-125152072D01*
X228285166Y-125612759D01*
X228230002Y-125574132D01*
X228127942Y-125543775D01*
X227893463Y-125585120D01*
X227807941Y-125648553D01*
X227769314Y-125703718D01*
X227738957Y-125805779D01*
X227780301Y-126040257D01*
X227843735Y-126125779D01*
X227898899Y-126164405D01*
X228000960Y-126194763D01*
X228235438Y-126153418D01*
X228320961Y-126089985D01*
X228359587Y-126034820D01*
X235259601Y-44493080D02*
X235085953Y-43508272D01*
X234851475Y-43549617D01*
X234719057Y-43621319D01*
X234641803Y-43731648D01*
X234611446Y-43833708D01*
X234597626Y-44029560D01*
X234622433Y-44170247D01*
X234702404Y-44349561D01*
X234765838Y-44435083D01*
X234876167Y-44512336D01*
X235025124Y-44534425D01*
X235259601Y-44493080D01*
X234194937Y-43665382D02*
X233585293Y-43772879D01*
X233979715Y-44090160D01*
X233839027Y-44114968D01*
X233753505Y-44178401D01*
X233714878Y-44233565D01*
X233684521Y-44335627D01*
X233725866Y-44570104D01*
X233789299Y-44655627D01*
X233844464Y-44694253D01*
X233946524Y-44724611D01*
X234227898Y-44674997D01*
X234313420Y-44611563D01*
X234352047Y-44556399D01*
X232741172Y-43921720D02*
X232928755Y-43888644D01*
X233030816Y-43919002D01*
X233085980Y-43957628D01*
X233204578Y-44081777D01*
X233284549Y-44261091D01*
X233350701Y-44636256D01*
X233320344Y-44738316D01*
X233281717Y-44793481D01*
X233196195Y-44856914D01*
X233008612Y-44889990D01*
X232906551Y-44859632D01*
X232851387Y-44821006D01*
X232787953Y-44735484D01*
X232746609Y-44501006D01*
X232776966Y-44398945D01*
X232815593Y-44343780D01*
X232901115Y-44280347D01*
X233088698Y-44247271D01*
X233190758Y-44277628D01*
X233245923Y-44316255D01*
X233309356Y-44401778D01*
X238567599Y-63253668D02*
X238393951Y-62268860D01*
X238159473Y-62310205D01*
X238027055Y-62381907D01*
X237949801Y-62492236D01*
X237919444Y-62594296D01*
X237905624Y-62790148D01*
X237930431Y-62930835D01*
X238010402Y-63110149D01*
X238073836Y-63195671D01*
X238184165Y-63272924D01*
X238333122Y-63295013D01*
X238567599Y-63253668D01*
X237502935Y-62425970D02*
X236893291Y-62533467D01*
X237287713Y-62850748D01*
X237147025Y-62875556D01*
X237061503Y-62938989D01*
X237022876Y-62994153D01*
X236992519Y-63096215D01*
X237033864Y-63330692D01*
X237097297Y-63416215D01*
X237152462Y-63454841D01*
X237254522Y-63485199D01*
X237535896Y-63435585D01*
X237621418Y-63372151D01*
X237660045Y-63316987D01*
X236565022Y-62591350D02*
X235908484Y-62707115D01*
X236504193Y-63617502D01*
X241875597Y-82014256D02*
X241701949Y-81029448D01*
X241467471Y-81070793D01*
X241335053Y-81142495D01*
X241257799Y-81252824D01*
X241227442Y-81354884D01*
X241213622Y-81550736D01*
X241238429Y-81691423D01*
X241318400Y-81870737D01*
X241381834Y-81956259D01*
X241492163Y-82033512D01*
X241641120Y-82055601D01*
X241875597Y-82014256D01*
X240810933Y-81186558D02*
X240201289Y-81294055D01*
X240595711Y-81611336D01*
X240455023Y-81636144D01*
X240369501Y-81699577D01*
X240330874Y-81754741D01*
X240300517Y-81856803D01*
X240341862Y-82091280D01*
X240405295Y-82176803D01*
X240460460Y-82215429D01*
X240562520Y-82245787D01*
X240843894Y-82196173D01*
X240929416Y-82132739D01*
X240968043Y-82077575D01*
X239712963Y-81815342D02*
X239798485Y-81751909D01*
X239837112Y-81696744D01*
X239867470Y-81594684D01*
X239859201Y-81547789D01*
X239795767Y-81462267D01*
X239740603Y-81423640D01*
X239638543Y-81393282D01*
X239450959Y-81426358D01*
X239365437Y-81489792D01*
X239326811Y-81544956D01*
X239296453Y-81647016D01*
X239304722Y-81693912D01*
X239368155Y-81779434D01*
X239423320Y-81818061D01*
X239525380Y-81848418D01*
X239712963Y-81815342D01*
X239815023Y-81845700D01*
X239870188Y-81884327D01*
X239933621Y-81969850D01*
X239966697Y-82157432D01*
X239936340Y-82259492D01*
X239897713Y-82314657D01*
X239812191Y-82378090D01*
X239624608Y-82411166D01*
X239522547Y-82380808D01*
X239467383Y-82342182D01*
X239403949Y-82256660D01*
X239370874Y-82069077D01*
X239401231Y-81967016D01*
X239439858Y-81911852D01*
X239525380Y-81848418D01*
X245183595Y-100774844D02*
X245009947Y-99790036D01*
X244775469Y-99831381D01*
X244643051Y-99903083D01*
X244565797Y-100013412D01*
X244535440Y-100115472D01*
X244521620Y-100311324D01*
X244546427Y-100452011D01*
X244626398Y-100631325D01*
X244689832Y-100716847D01*
X244800161Y-100794100D01*
X244949118Y-100816189D01*
X245183595Y-100774844D01*
X244118931Y-99947146D02*
X243509287Y-100054643D01*
X243903709Y-100371924D01*
X243763021Y-100396732D01*
X243677499Y-100460165D01*
X243638872Y-100515329D01*
X243608515Y-100617391D01*
X243649860Y-100851868D01*
X243713293Y-100937391D01*
X243768458Y-100976017D01*
X243870518Y-101006375D01*
X244151892Y-100956761D01*
X244237414Y-100893327D01*
X244276041Y-100838163D01*
X243213980Y-101122140D02*
X243026398Y-101155216D01*
X242924337Y-101124858D01*
X242869172Y-101086232D01*
X242750574Y-100962083D01*
X242670603Y-100782770D01*
X242604451Y-100407604D01*
X242634809Y-100305544D01*
X242673435Y-100250380D01*
X242758957Y-100186946D01*
X242946541Y-100153870D01*
X243048601Y-100184228D01*
X243103765Y-100222855D01*
X243167199Y-100308377D01*
X243208543Y-100542855D01*
X243178186Y-100644915D01*
X243139559Y-100700080D01*
X243054037Y-100763514D01*
X242866454Y-100796590D01*
X242764394Y-100766232D01*
X242709229Y-100727604D01*
X242645796Y-100642082D01*
X248491593Y-119535432D02*
X248317945Y-118550624D01*
X248083467Y-118591969D01*
X247951049Y-118663671D01*
X247873795Y-118774000D01*
X247843438Y-118876060D01*
X247829618Y-119071912D01*
X247854425Y-119212599D01*
X247934396Y-119391913D01*
X247997830Y-119477435D01*
X248108159Y-119554688D01*
X248257116Y-119576777D01*
X248491593Y-119535432D01*
X246968959Y-119126962D02*
X247084725Y-119783501D01*
X247137286Y-118710452D02*
X247495799Y-119372542D01*
X246886155Y-119480039D01*
X246207643Y-118922727D02*
X246113851Y-118939265D01*
X246028329Y-119002699D01*
X245989702Y-119057863D01*
X245959345Y-119159923D01*
X245945525Y-119355775D01*
X245986870Y-119590253D01*
X246066841Y-119769567D01*
X246130275Y-119855089D01*
X246185439Y-119893715D01*
X246287499Y-119924073D01*
X246381291Y-119907535D01*
X246466813Y-119844102D01*
X246505440Y-119788937D01*
X246535798Y-119686877D01*
X246549617Y-119491026D01*
X246508272Y-119256547D01*
X246428301Y-119077234D01*
X246364868Y-118991711D01*
X246309703Y-118953085D01*
X246207643Y-118922727D01*
X253499245Y-38230659D02*
X253325597Y-37245851D01*
X253091119Y-37287196D01*
X252958701Y-37358898D01*
X252881447Y-37469227D01*
X252851090Y-37571287D01*
X252837270Y-37767139D01*
X252862077Y-37907826D01*
X252942048Y-38087140D01*
X253005482Y-38172662D01*
X253115811Y-38249915D01*
X253264768Y-38272004D01*
X253499245Y-38230659D01*
X251976611Y-37822189D02*
X252092377Y-38478728D01*
X252144938Y-37405679D02*
X252503451Y-38067769D01*
X251893807Y-38175266D01*
X251060673Y-38660645D02*
X251623421Y-38561417D01*
X251342048Y-38611031D02*
X251168399Y-37626223D01*
X251286997Y-37750372D01*
X251397326Y-37827625D01*
X251499387Y-37857983D01*
X256807243Y-56991247D02*
X256633595Y-56006439D01*
X256399117Y-56047784D01*
X256266699Y-56119486D01*
X256189445Y-56229815D01*
X256159088Y-56331875D01*
X256145268Y-56527727D01*
X256170075Y-56668414D01*
X256250046Y-56847728D01*
X256313480Y-56933250D01*
X256423809Y-57010503D01*
X256572766Y-57032592D01*
X256807243Y-56991247D01*
X255284609Y-56582777D02*
X255400375Y-57239316D01*
X255452936Y-56166267D02*
X255811449Y-56828357D01*
X255201805Y-56935854D01*
X254774309Y-56430989D02*
X254719144Y-56392362D01*
X254617084Y-56362004D01*
X254382605Y-56403349D01*
X254297083Y-56466783D01*
X254258457Y-56521947D01*
X254228099Y-56624007D01*
X254244637Y-56717798D01*
X254316339Y-56850216D01*
X254978315Y-57313736D01*
X254368671Y-57421233D01*
X260115241Y-75751835D02*
X259941593Y-74767027D01*
X259707115Y-74808372D01*
X259574697Y-74880074D01*
X259497443Y-74990403D01*
X259467086Y-75092463D01*
X259453266Y-75288315D01*
X259478073Y-75429002D01*
X259558044Y-75608316D01*
X259621478Y-75693838D01*
X259731807Y-75771091D01*
X259880764Y-75793180D01*
X260115241Y-75751835D01*
X258592607Y-75343365D02*
X258708373Y-75999904D01*
X258760934Y-74926855D02*
X259119447Y-75588945D01*
X258509803Y-75696442D01*
X258112664Y-75089517D02*
X257503021Y-75197013D01*
X257897443Y-75514295D01*
X257756755Y-75539102D01*
X257671233Y-75602535D01*
X257632606Y-75657700D01*
X257602249Y-75759761D01*
X257643593Y-75994239D01*
X257707027Y-76079761D01*
X257762191Y-76118387D01*
X257864252Y-76148745D01*
X258145626Y-76099131D01*
X258231148Y-76035698D01*
X258269775Y-75980533D01*
X263423239Y-94512423D02*
X263249591Y-93527615D01*
X263015113Y-93568960D01*
X262882695Y-93640662D01*
X262805441Y-93750991D01*
X262775084Y-93853051D01*
X262761264Y-94048903D01*
X262786071Y-94189590D01*
X262866042Y-94368904D01*
X262929476Y-94454426D01*
X263039805Y-94531679D01*
X263188762Y-94553768D01*
X263423239Y-94512423D01*
X261900605Y-94103953D02*
X262016371Y-94760492D01*
X262068932Y-93687443D02*
X262427445Y-94349533D01*
X261817801Y-94457030D01*
X260962693Y-94269332D02*
X261078458Y-94925871D01*
X261131020Y-93852823D02*
X261489532Y-94514912D01*
X260879889Y-94622409D01*
X266731237Y-113273011D02*
X266557589Y-112288203D01*
X266323111Y-112329548D01*
X266190693Y-112401250D01*
X266113439Y-112511579D01*
X266083082Y-112613639D01*
X266069262Y-112809491D01*
X266094069Y-112950178D01*
X266174040Y-113129492D01*
X266237474Y-113215014D01*
X266347803Y-113292267D01*
X266496760Y-113314356D01*
X266731237Y-113273011D01*
X265208603Y-112864541D02*
X265324369Y-113521080D01*
X265376930Y-112448031D02*
X265735443Y-113110121D01*
X265125799Y-113217618D01*
X264165913Y-112709920D02*
X264634869Y-112627230D01*
X264764454Y-113087917D01*
X264709290Y-113049290D01*
X264607230Y-113018933D01*
X264372751Y-113060278D01*
X264287229Y-113123711D01*
X264248602Y-113178876D01*
X264218245Y-113280937D01*
X264259589Y-113515415D01*
X264323023Y-113600937D01*
X264378187Y-113639563D01*
X264480248Y-113669921D01*
X264714726Y-113628576D01*
X264800249Y-113565143D01*
X264838875Y-113509978D01*
X272780778Y-37877085D02*
X272607130Y-36892277D01*
X272372652Y-36933622D01*
X272240234Y-37005324D01*
X272162980Y-37115653D01*
X272132623Y-37217713D01*
X272118803Y-37413565D01*
X272143610Y-37554252D01*
X272223581Y-37733566D01*
X272287015Y-37819088D01*
X272397344Y-37896341D01*
X272546301Y-37918430D01*
X272780778Y-37877085D01*
X271258144Y-37468615D02*
X271373910Y-38125154D01*
X271426471Y-37052105D02*
X271784984Y-37714195D01*
X271175340Y-37821692D01*
X270262349Y-37305725D02*
X270449932Y-37272649D01*
X270551993Y-37303007D01*
X270607157Y-37341633D01*
X270725755Y-37465782D01*
X270805726Y-37645096D01*
X270871878Y-38020261D01*
X270841521Y-38122321D01*
X270802894Y-38177486D01*
X270717372Y-38240919D01*
X270529789Y-38273995D01*
X270427728Y-38243637D01*
X270372564Y-38205011D01*
X270309130Y-38119489D01*
X270267786Y-37885011D01*
X270298143Y-37782950D01*
X270336770Y-37727785D01*
X270422292Y-37664352D01*
X270609875Y-37631276D01*
X270711935Y-37661633D01*
X270767100Y-37700260D01*
X270830533Y-37785783D01*
X276088776Y-56637673D02*
X275915128Y-55652865D01*
X275680650Y-55694210D01*
X275548232Y-55765912D01*
X275470978Y-55876241D01*
X275440621Y-55978301D01*
X275426801Y-56174153D01*
X275451608Y-56314840D01*
X275531579Y-56494154D01*
X275595013Y-56579676D01*
X275705342Y-56656929D01*
X275854299Y-56679018D01*
X276088776Y-56637673D01*
X274566142Y-56229203D02*
X274681908Y-56885742D01*
X274734469Y-55812693D02*
X275092982Y-56474783D01*
X274483338Y-56582280D01*
X274086199Y-55975355D02*
X273429661Y-56091120D01*
X274025370Y-57001507D01*
X279396774Y-75398261D02*
X279223126Y-74413453D01*
X278988648Y-74454798D01*
X278856230Y-74526500D01*
X278778976Y-74636829D01*
X278748619Y-74738889D01*
X278734799Y-74934741D01*
X278759606Y-75075428D01*
X278839577Y-75254742D01*
X278903011Y-75340264D01*
X279013340Y-75417517D01*
X279162297Y-75439606D01*
X279396774Y-75398261D01*
X277874140Y-74989791D02*
X277989906Y-75646330D01*
X278042467Y-74573281D02*
X278400980Y-75235371D01*
X277791336Y-75342868D01*
X277234140Y-75199347D02*
X277319662Y-75135914D01*
X277358289Y-75080749D01*
X277388647Y-74978689D01*
X277380378Y-74931794D01*
X277316944Y-74846272D01*
X277261780Y-74807645D01*
X277159720Y-74777287D01*
X276972136Y-74810363D01*
X276886614Y-74873797D01*
X276847988Y-74928961D01*
X276817630Y-75031021D01*
X276825899Y-75077917D01*
X276889332Y-75163439D01*
X276944497Y-75202066D01*
X277046557Y-75232423D01*
X277234140Y-75199347D01*
X277336200Y-75229705D01*
X277391365Y-75268332D01*
X277454798Y-75353855D01*
X277487874Y-75541437D01*
X277457517Y-75643497D01*
X277418890Y-75698662D01*
X277333368Y-75762095D01*
X277145785Y-75795171D01*
X277043724Y-75764813D01*
X276988560Y-75726187D01*
X276925126Y-75640665D01*
X276892051Y-75453082D01*
X276922408Y-75351021D01*
X276961035Y-75295857D01*
X277046557Y-75232423D01*
X282704772Y-94158849D02*
X282531124Y-93174041D01*
X282296646Y-93215386D01*
X282164228Y-93287088D01*
X282086974Y-93397417D01*
X282056617Y-93499477D01*
X282042797Y-93695329D01*
X282067604Y-93836016D01*
X282147575Y-94015330D01*
X282211009Y-94100852D01*
X282321338Y-94178105D01*
X282470295Y-94200194D01*
X282704772Y-94158849D01*
X281182138Y-93750379D02*
X281297904Y-94406918D01*
X281350465Y-93333869D02*
X281708978Y-93995959D01*
X281099334Y-94103456D01*
X280735157Y-94506145D02*
X280547575Y-94539221D01*
X280445514Y-94508863D01*
X280390349Y-94470237D01*
X280271751Y-94346088D01*
X280191780Y-94166775D01*
X280125628Y-93791609D01*
X280155986Y-93689549D01*
X280194612Y-93634385D01*
X280280134Y-93570951D01*
X280467718Y-93537875D01*
X280569778Y-93568233D01*
X280624942Y-93606860D01*
X280688376Y-93692382D01*
X280729720Y-93926860D01*
X280699363Y-94028920D01*
X280660736Y-94084085D01*
X280575214Y-94147519D01*
X280387631Y-94180595D01*
X280285571Y-94150237D01*
X280230406Y-94111609D01*
X280166973Y-94026087D01*
X286012770Y-112919437D02*
X285839122Y-111934629D01*
X285604644Y-111975974D01*
X285472226Y-112047676D01*
X285394972Y-112158005D01*
X285364615Y-112260065D01*
X285350795Y-112455917D01*
X285375602Y-112596604D01*
X285455573Y-112775918D01*
X285519007Y-112861440D01*
X285629336Y-112938693D01*
X285778293Y-112960782D01*
X286012770Y-112919437D01*
X284385358Y-112190967D02*
X284854314Y-112108277D01*
X284983900Y-112568964D01*
X284928735Y-112530337D01*
X284826675Y-112499980D01*
X284592196Y-112541325D01*
X284506674Y-112604758D01*
X284468047Y-112659922D01*
X284437690Y-112761984D01*
X284479035Y-112996461D01*
X284542468Y-113081984D01*
X284597633Y-113120610D01*
X284699693Y-113150968D01*
X284934172Y-113109623D01*
X285019694Y-113046189D01*
X285058320Y-112991025D01*
X283728820Y-112306732D02*
X283635028Y-112323270D01*
X283549506Y-112386704D01*
X283510879Y-112441868D01*
X283480522Y-112543928D01*
X283466702Y-112739780D01*
X283508047Y-112974258D01*
X283588018Y-113153572D01*
X283651452Y-113239094D01*
X283706616Y-113277720D01*
X283808676Y-113308078D01*
X283902468Y-113291540D01*
X283987990Y-113228107D01*
X284026617Y-113172942D01*
X284056975Y-113070882D01*
X284070794Y-112875031D01*
X284029449Y-112640552D01*
X283949478Y-112461239D01*
X283886045Y-112375716D01*
X283830880Y-112337090D01*
X283728820Y-112306732D01*
X292062311Y-37523511D02*
X291888663Y-36538703D01*
X291654185Y-36580048D01*
X291521767Y-36651750D01*
X291444513Y-36762079D01*
X291414156Y-36864139D01*
X291400336Y-37059991D01*
X291425143Y-37200678D01*
X291505114Y-37379992D01*
X291568548Y-37465514D01*
X291678877Y-37542767D01*
X291827834Y-37564856D01*
X292062311Y-37523511D01*
X290434899Y-36795041D02*
X290903855Y-36712351D01*
X291033441Y-37173038D01*
X290978276Y-37134411D01*
X290876216Y-37104054D01*
X290641737Y-37145399D01*
X290556215Y-37208832D01*
X290517588Y-37263996D01*
X290487231Y-37366058D01*
X290528576Y-37600535D01*
X290592009Y-37686058D01*
X290647174Y-37724684D01*
X290749234Y-37755042D01*
X290983713Y-37713697D01*
X291069235Y-37650263D01*
X291107861Y-37595099D01*
X289623739Y-37953497D02*
X290186487Y-37854269D01*
X289905114Y-37903883D02*
X289731465Y-36919075D01*
X289850063Y-37043224D01*
X289960392Y-37120477D01*
X290062453Y-37150835D01*
X295370309Y-56284099D02*
X295196661Y-55299291D01*
X294962183Y-55340636D01*
X294829765Y-55412338D01*
X294752511Y-55522667D01*
X294722154Y-55624727D01*
X294708334Y-55820579D01*
X294733141Y-55961266D01*
X294813112Y-56140580D01*
X294876546Y-56226102D01*
X294986875Y-56303355D01*
X295135832Y-56325444D01*
X295370309Y-56284099D01*
X293742897Y-55555629D02*
X294211853Y-55472939D01*
X294341439Y-55933626D01*
X294286274Y-55894999D01*
X294184214Y-55864642D01*
X293949735Y-55905987D01*
X293864213Y-55969420D01*
X293825586Y-56024584D01*
X293795229Y-56126646D01*
X293836574Y-56361123D01*
X293900007Y-56446646D01*
X293955172Y-56485272D01*
X294057232Y-56515630D01*
X294291711Y-56474285D01*
X294377233Y-56410851D01*
X294415859Y-56355687D01*
X293337375Y-55723841D02*
X293282210Y-55685214D01*
X293180150Y-55654856D01*
X292945671Y-55696201D01*
X292860149Y-55759635D01*
X292821523Y-55814799D01*
X292791165Y-55916859D01*
X292807703Y-56010650D01*
X292879405Y-56143068D01*
X293541381Y-56606588D01*
X292931737Y-56714085D01*
X298678307Y-75044687D02*
X298504659Y-74059879D01*
X298270181Y-74101224D01*
X298137763Y-74172926D01*
X298060509Y-74283255D01*
X298030152Y-74385315D01*
X298016332Y-74581167D01*
X298041139Y-74721854D01*
X298121110Y-74901168D01*
X298184544Y-74986690D01*
X298294873Y-75063943D01*
X298443830Y-75086032D01*
X298678307Y-75044687D01*
X297050895Y-74316217D02*
X297519851Y-74233527D01*
X297649437Y-74694214D01*
X297594272Y-74655587D01*
X297492212Y-74625230D01*
X297257733Y-74666575D01*
X297172211Y-74730008D01*
X297133584Y-74785172D01*
X297103227Y-74887234D01*
X297144572Y-75121711D01*
X297208005Y-75207234D01*
X297263170Y-75245860D01*
X297365230Y-75276218D01*
X297599709Y-75234873D01*
X297685231Y-75171439D01*
X297723857Y-75116275D01*
X296675730Y-74382369D02*
X296066087Y-74489865D01*
X296460509Y-74807147D01*
X296319821Y-74831954D01*
X296234299Y-74895387D01*
X296195672Y-74950552D01*
X296165315Y-75052613D01*
X296206659Y-75287091D01*
X296270093Y-75372613D01*
X296325257Y-75411239D01*
X296427318Y-75441597D01*
X296708692Y-75391983D01*
X296794214Y-75328550D01*
X296832841Y-75273385D01*
X301986305Y-93805275D02*
X301812657Y-92820467D01*
X301578179Y-92861812D01*
X301445761Y-92933514D01*
X301368507Y-93043843D01*
X301338150Y-93145903D01*
X301324330Y-93341755D01*
X301349137Y-93482442D01*
X301429108Y-93661756D01*
X301492542Y-93747278D01*
X301602871Y-93824531D01*
X301751828Y-93846620D01*
X301986305Y-93805275D01*
X300358893Y-93076805D02*
X300827849Y-92994115D01*
X300957435Y-93454802D01*
X300902270Y-93416175D01*
X300800210Y-93385818D01*
X300565731Y-93427163D01*
X300480209Y-93490596D01*
X300441582Y-93545760D01*
X300411225Y-93647822D01*
X300452570Y-93882299D01*
X300516003Y-93967822D01*
X300571168Y-94006448D01*
X300673228Y-94036806D01*
X300907707Y-93995461D01*
X300993229Y-93932027D01*
X301031855Y-93876863D01*
X299525759Y-93562184D02*
X299641524Y-94218723D01*
X299694086Y-93145675D02*
X300052598Y-93807764D01*
X299442955Y-93915261D01*
X305294303Y-112565863D02*
X305120655Y-111581055D01*
X304886177Y-111622400D01*
X304753759Y-111694102D01*
X304676505Y-111804431D01*
X304646148Y-111906491D01*
X304632328Y-112102343D01*
X304657135Y-112243030D01*
X304737106Y-112422344D01*
X304800540Y-112507866D01*
X304910869Y-112585119D01*
X305059826Y-112607208D01*
X305294303Y-112565863D01*
X303666891Y-111837393D02*
X304135847Y-111754703D01*
X304265433Y-112215390D01*
X304210268Y-112176763D01*
X304108208Y-112146406D01*
X303873729Y-112187751D01*
X303788207Y-112251184D01*
X303749580Y-112306348D01*
X303719223Y-112408410D01*
X303760568Y-112642887D01*
X303824001Y-112728410D01*
X303879166Y-112767036D01*
X303981226Y-112797394D01*
X304215705Y-112756049D01*
X304301227Y-112692615D01*
X304339853Y-112637451D01*
X302728979Y-112002772D02*
X303197935Y-111920082D01*
X303327520Y-112380769D01*
X303272356Y-112342142D01*
X303170296Y-112311785D01*
X302935817Y-112353130D01*
X302850295Y-112416563D01*
X302811668Y-112471728D01*
X302781311Y-112573789D01*
X302822655Y-112808267D01*
X302886089Y-112893789D01*
X302941253Y-112932415D01*
X303043314Y-112962773D01*
X303277792Y-112921428D01*
X303363315Y-112857995D01*
X303401941Y-112802830D01*
X311170196Y-36185129D02*
X310996548Y-35200321D01*
X310762070Y-35241666D01*
X310629652Y-35313368D01*
X310552398Y-35423697D01*
X310522041Y-35525757D01*
X310508221Y-35721609D01*
X310533028Y-35862296D01*
X310612999Y-36041610D01*
X310676433Y-36127132D01*
X310786762Y-36204385D01*
X310935719Y-36226474D01*
X311170196Y-36185129D01*
X309542784Y-35456659D02*
X310011740Y-35373969D01*
X310141326Y-35834656D01*
X310086161Y-35796029D01*
X309984101Y-35765672D01*
X309749622Y-35807017D01*
X309664100Y-35870450D01*
X309625473Y-35925614D01*
X309595116Y-36027676D01*
X309636461Y-36262153D01*
X309699894Y-36347676D01*
X309755059Y-36386302D01*
X309857119Y-36416660D01*
X310091598Y-36375315D01*
X310177120Y-36311881D01*
X310215746Y-36256717D01*
X308651767Y-35613769D02*
X308839350Y-35580693D01*
X308941411Y-35611051D01*
X308996575Y-35649677D01*
X309115173Y-35773826D01*
X309195144Y-35953140D01*
X309261296Y-36328305D01*
X309230939Y-36430365D01*
X309192312Y-36485530D01*
X309106790Y-36548963D01*
X308919207Y-36582039D01*
X308817146Y-36551681D01*
X308761982Y-36513055D01*
X308698548Y-36427533D01*
X308657204Y-36193055D01*
X308687561Y-36090994D01*
X308726188Y-36035829D01*
X308811710Y-35972396D01*
X308999293Y-35939320D01*
X309101353Y-35969677D01*
X309156518Y-36008304D01*
X309219951Y-36093827D01*
X314478194Y-54945717D02*
X314304546Y-53960909D01*
X314070068Y-54002254D01*
X313937650Y-54073956D01*
X313860396Y-54184285D01*
X313830039Y-54286345D01*
X313816219Y-54482197D01*
X313841026Y-54622884D01*
X313920997Y-54802198D01*
X313984431Y-54887720D01*
X314094760Y-54964973D01*
X314243717Y-54987062D01*
X314478194Y-54945717D01*
X312850782Y-54217247D02*
X313319738Y-54134557D01*
X313449324Y-54595244D01*
X313394159Y-54556617D01*
X313292099Y-54526260D01*
X313057620Y-54567605D01*
X312972098Y-54631038D01*
X312933471Y-54686202D01*
X312903114Y-54788264D01*
X312944459Y-55022741D01*
X313007892Y-55108264D01*
X313063057Y-55146890D01*
X313165117Y-55177248D01*
X313399596Y-55135903D01*
X313485118Y-55072469D01*
X313523744Y-55017305D01*
X312475617Y-54283399D02*
X311819079Y-54399164D01*
X312414788Y-55309551D01*
X317786192Y-73706305D02*
X317612544Y-72721497D01*
X317378066Y-72762842D01*
X317245648Y-72834544D01*
X317168394Y-72944873D01*
X317138037Y-73046933D01*
X317124217Y-73242785D01*
X317149024Y-73383472D01*
X317228995Y-73562786D01*
X317292429Y-73648308D01*
X317402758Y-73725561D01*
X317551715Y-73747650D01*
X317786192Y-73706305D01*
X316158780Y-72977835D02*
X316627736Y-72895145D01*
X316757322Y-73355832D01*
X316702157Y-73317205D01*
X316600097Y-73286848D01*
X316365618Y-73328193D01*
X316280096Y-73391626D01*
X316241469Y-73446790D01*
X316211112Y-73548852D01*
X316252457Y-73783329D01*
X316315890Y-73868852D01*
X316371055Y-73907478D01*
X316473115Y-73937836D01*
X316707594Y-73896491D01*
X316793116Y-73833057D01*
X316831742Y-73777893D01*
X315623558Y-73507391D02*
X315709080Y-73443958D01*
X315747707Y-73388793D01*
X315778065Y-73286733D01*
X315769796Y-73239838D01*
X315706362Y-73154316D01*
X315651198Y-73115689D01*
X315549138Y-73085331D01*
X315361554Y-73118407D01*
X315276032Y-73181841D01*
X315237406Y-73237005D01*
X315207048Y-73339065D01*
X315215317Y-73385961D01*
X315278750Y-73471483D01*
X315333915Y-73510110D01*
X315435975Y-73540467D01*
X315623558Y-73507391D01*
X315725618Y-73537749D01*
X315780783Y-73576376D01*
X315844216Y-73661899D01*
X315877292Y-73849481D01*
X315846935Y-73951541D01*
X315808308Y-74006706D01*
X315722786Y-74070139D01*
X315535203Y-74103215D01*
X315433142Y-74072857D01*
X315377978Y-74034231D01*
X315314544Y-73948709D01*
X315281469Y-73761126D01*
X315311826Y-73659065D01*
X315350453Y-73603901D01*
X315435975Y-73540467D01*
X321094190Y-92466893D02*
X320920542Y-91482085D01*
X320686064Y-91523430D01*
X320553646Y-91595132D01*
X320476392Y-91705461D01*
X320446035Y-91807521D01*
X320432215Y-92003373D01*
X320457022Y-92144060D01*
X320536993Y-92323374D01*
X320600427Y-92408896D01*
X320710756Y-92486149D01*
X320859713Y-92508238D01*
X321094190Y-92466893D01*
X319466778Y-91738423D02*
X319935734Y-91655733D01*
X320065320Y-92116420D01*
X320010155Y-92077793D01*
X319908095Y-92047436D01*
X319673616Y-92088781D01*
X319588094Y-92152214D01*
X319549467Y-92207378D01*
X319519110Y-92309440D01*
X319560455Y-92543917D01*
X319623888Y-92629440D01*
X319679053Y-92668066D01*
X319781113Y-92698424D01*
X320015592Y-92657079D01*
X320101114Y-92593645D01*
X320139740Y-92538481D01*
X319124575Y-92814189D02*
X318936993Y-92847265D01*
X318834932Y-92816907D01*
X318779767Y-92778281D01*
X318661169Y-92654132D01*
X318581198Y-92474819D01*
X318515046Y-92099653D01*
X318545404Y-91997593D01*
X318584030Y-91942429D01*
X318669552Y-91878995D01*
X318857136Y-91845919D01*
X318959196Y-91876277D01*
X319014360Y-91914904D01*
X319077794Y-92000426D01*
X319119138Y-92234904D01*
X319088781Y-92336964D01*
X319050154Y-92392129D01*
X318964632Y-92455563D01*
X318777049Y-92488639D01*
X318674989Y-92458281D01*
X318619824Y-92419653D01*
X318556391Y-92334131D01*
X324402188Y-111227481D02*
X324228540Y-110242673D01*
X323994062Y-110284018D01*
X323861644Y-110355720D01*
X323784390Y-110466049D01*
X323754033Y-110568109D01*
X323740213Y-110763961D01*
X323765020Y-110904648D01*
X323844991Y-111083962D01*
X323908425Y-111169484D01*
X324018754Y-111246737D01*
X324167711Y-111268826D01*
X324402188Y-111227481D01*
X322821671Y-110490742D02*
X323009255Y-110457666D01*
X323111315Y-110488024D01*
X323166479Y-110526650D01*
X323285077Y-110650799D01*
X323365049Y-110830112D01*
X323431200Y-111205278D01*
X323400843Y-111307338D01*
X323362216Y-111362502D01*
X323276694Y-111425936D01*
X323089111Y-111459012D01*
X322987051Y-111428654D01*
X322931886Y-111390028D01*
X322868453Y-111304505D01*
X322827108Y-111070028D01*
X322857465Y-110967966D01*
X322896092Y-110912802D01*
X322981614Y-110849369D01*
X323169197Y-110816293D01*
X323271257Y-110846650D01*
X323326422Y-110885277D01*
X323389856Y-110970800D01*
X322118238Y-110614776D02*
X322024446Y-110631314D01*
X321938924Y-110694748D01*
X321900297Y-110749912D01*
X321869940Y-110851972D01*
X321856120Y-111047824D01*
X321897465Y-111282302D01*
X321977436Y-111461616D01*
X322040870Y-111547138D01*
X322096034Y-111585764D01*
X322198094Y-111616122D01*
X322291886Y-111599584D01*
X322377408Y-111536151D01*
X322416035Y-111480986D01*
X322446393Y-111378926D01*
X322460212Y-111183075D01*
X322418867Y-110948596D01*
X322338896Y-110769283D01*
X322275463Y-110683760D01*
X322220298Y-110645134D01*
X322118238Y-110614776D01*
X152231983Y-133342013D02*
X151247175Y-133168365D01*
X151205830Y-133402842D01*
X151227919Y-133551799D01*
X151305172Y-133662128D01*
X151390694Y-133725562D01*
X151570008Y-133805533D01*
X151710695Y-133830340D01*
X151906546Y-133816520D01*
X152008606Y-133786163D01*
X152118936Y-133708909D01*
X152190638Y-133576491D01*
X152231983Y-133342013D01*
X150999106Y-134575233D02*
X151032182Y-134387650D01*
X151095616Y-134302128D01*
X151150780Y-134263501D01*
X151308005Y-134194517D01*
X151503856Y-134180697D01*
X151879021Y-134246849D01*
X151964544Y-134310283D01*
X152003170Y-134365447D01*
X152033528Y-134467507D01*
X152000452Y-134655091D01*
X151937018Y-134740613D01*
X151881854Y-134779239D01*
X151779794Y-134809597D01*
X151545316Y-134768252D01*
X151459793Y-134704819D01*
X151421166Y-134649654D01*
X151390809Y-134547594D01*
X151423885Y-134360011D01*
X151487318Y-134274489D01*
X151542483Y-134235862D01*
X151644544Y-134205504D01*
X151801997Y-135780585D02*
X151901224Y-135217837D01*
X151851611Y-135499211D02*
X150866803Y-135325562D01*
X151024028Y-135256578D01*
X151134357Y-135179325D01*
X151197790Y-135093803D01*
X155118232Y-138082354D02*
X154133424Y-137908706D01*
X154092079Y-138143183D01*
X154114168Y-138292140D01*
X154191421Y-138402469D01*
X154276943Y-138465903D01*
X154456257Y-138545874D01*
X154596944Y-138570681D01*
X154792795Y-138556861D01*
X154894855Y-138526504D01*
X155005185Y-138449250D01*
X155076887Y-138316832D01*
X155118232Y-138082354D01*
X153885355Y-139315574D02*
X153918431Y-139127991D01*
X153981865Y-139042469D01*
X154037029Y-139003842D01*
X154194254Y-138934858D01*
X154390105Y-138921038D01*
X154765270Y-138987190D01*
X154850793Y-139050624D01*
X154889419Y-139105788D01*
X154919777Y-139207848D01*
X154886701Y-139395432D01*
X154823267Y-139480954D01*
X154768103Y-139519580D01*
X154666043Y-139549938D01*
X154431565Y-139508593D01*
X154346042Y-139445160D01*
X154307415Y-139389995D01*
X154277058Y-139287935D01*
X154310134Y-139100352D01*
X154373567Y-139014830D01*
X154428732Y-138976203D01*
X154530793Y-138945845D01*
X153896457Y-139801068D02*
X153841292Y-139839695D01*
X153777859Y-139925217D01*
X153736514Y-140159696D01*
X153766872Y-140261756D01*
X153805498Y-140316920D01*
X153891020Y-140380354D01*
X153984811Y-140396892D01*
X154133767Y-140374803D01*
X154795742Y-139911283D01*
X154688246Y-140520926D01*
X206964734Y-140051689D02*
X207949542Y-139878041D01*
X207908197Y-139643563D01*
X207836495Y-139511145D01*
X207726166Y-139433891D01*
X207624106Y-139403534D01*
X207428254Y-139389714D01*
X207287567Y-139414521D01*
X207108253Y-139494492D01*
X207022731Y-139557926D01*
X206945478Y-139668255D01*
X206923389Y-139817212D01*
X206964734Y-140051689D01*
X207701473Y-138471172D02*
X207734549Y-138658756D01*
X207704191Y-138760816D01*
X207665565Y-138815980D01*
X207541416Y-138934578D01*
X207362103Y-139014550D01*
X206986937Y-139080701D01*
X206884877Y-139050344D01*
X206829713Y-139011717D01*
X206766279Y-138926195D01*
X206733203Y-138738612D01*
X206763561Y-138636552D01*
X206802187Y-138581387D01*
X206887710Y-138517954D01*
X207122187Y-138476609D01*
X207224249Y-138506966D01*
X207279413Y-138545593D01*
X207342846Y-138631115D01*
X207375922Y-138818698D01*
X207345565Y-138920758D01*
X207306938Y-138975923D01*
X207221415Y-139039357D01*
X207627052Y-138049112D02*
X207519556Y-137439469D01*
X207202274Y-137833891D01*
X207177467Y-137693203D01*
X207114034Y-137607681D01*
X207058869Y-137569054D01*
X206956808Y-137538697D01*
X206722330Y-137580041D01*
X206636808Y-137643475D01*
X206598182Y-137698639D01*
X206567824Y-137800700D01*
X206617438Y-138082074D01*
X206680871Y-138167596D01*
X206736036Y-138206223D01*
X202521966Y-135928097D02*
X203506774Y-135754449D01*
X203465429Y-135519971D01*
X203393727Y-135387553D01*
X203283398Y-135310299D01*
X203181338Y-135279942D01*
X202985486Y-135266122D01*
X202844799Y-135290929D01*
X202665485Y-135370900D01*
X202579963Y-135434334D01*
X202502710Y-135544663D01*
X202480621Y-135693620D01*
X202521966Y-135928097D01*
X203258705Y-134347580D02*
X203291781Y-134535164D01*
X203261423Y-134637224D01*
X203222797Y-134692388D01*
X203098648Y-134810986D01*
X202919335Y-134890958D01*
X202544169Y-134957109D01*
X202442109Y-134926752D01*
X202386945Y-134888125D01*
X202323511Y-134802603D01*
X202290435Y-134615020D01*
X202320793Y-134512960D01*
X202359419Y-134457795D01*
X202444942Y-134394362D01*
X202679419Y-134353017D01*
X202781481Y-134383374D01*
X202836645Y-134422001D01*
X202900078Y-134507523D01*
X202933154Y-134695106D01*
X202902797Y-134797166D01*
X202864170Y-134852331D01*
X202778647Y-134915765D01*
X202765057Y-133467551D02*
X202108518Y-133583316D01*
X203181566Y-133635878D02*
X202519477Y-133994390D01*
X202411980Y-133384747D01*
X42843675Y-35482266D02*
X43017323Y-34497458D01*
X42782845Y-34456114D01*
X42633888Y-34478202D01*
X42523559Y-34555455D01*
X42460126Y-34640978D01*
X42380154Y-34820291D01*
X42355347Y-34960979D01*
X42369167Y-35156830D01*
X42399525Y-35258890D01*
X42476778Y-35369219D01*
X42609197Y-35440921D01*
X42843675Y-35482266D01*
X41343015Y-35217659D02*
X41905762Y-35316887D01*
X41624389Y-35267273D02*
X41798037Y-34282465D01*
X41867021Y-34439690D01*
X41944275Y-34550019D01*
X42029797Y-34613453D01*
M02*
