G04 #@! TF.GenerationSoftware,KiCad,Pcbnew,(2017-07-28 revision 75cda5021)-master*
G04 #@! TF.CreationDate,2017-07-29T18:22:56-04:00*
G04 #@! TF.ProjectId,keyboard,6B6579626F6172642E6B696361645F70,rev?*
G04 #@! TF.SameCoordinates,Original*
G04 #@! TF.FileFunction,Soldermask,Bot*
G04 #@! TF.FilePolarity,Negative*
%FSLAX46Y46*%
G04 Gerber Fmt 4.6, Leading zero omitted, Abs format (unit mm)*
G04 Created by KiCad (PCBNEW (2017-07-28 revision 75cda5021)-master) date Sat Jul 29 18:22:56 2017*
%MOMM*%
%LPD*%
G01*
G04 APERTURE LIST*
%ADD10C,3.200000*%
%ADD11C,2.286000*%
%ADD12O,1.200000X1.900000*%
%ADD13C,1.450000*%
%ADD14C,0.900000*%
%ADD15C,0.100000*%
G04 APERTURE END LIST*
D10*
X178999998Y-154926683D03*
X333808056Y-129462701D03*
X24191942Y-129462701D03*
X231965706Y-37273705D03*
X126034292Y-37273705D03*
D11*
X221708452Y-52434479D03*
X215895989Y-56038557D03*
X47144131Y-38746240D03*
X40449536Y-40144986D03*
X134678369Y-90837788D03*
X127983774Y-92236534D03*
X137986367Y-72077200D03*
X131291772Y-73475946D03*
X201035500Y-139974224D03*
X197431422Y-134161761D03*
X208908308Y-133427669D03*
X212512386Y-139240132D03*
D12*
X175555000Y-33876000D03*
X182555000Y-33876000D03*
D13*
X176555000Y-36576000D03*
X181555000Y-36576000D03*
D11*
X43836133Y-57506828D03*
X37141538Y-58905574D03*
X40528135Y-76267416D03*
X33833540Y-77666162D03*
X37220137Y-95028004D03*
X30525542Y-96426750D03*
X33912139Y-113788592D03*
X27217544Y-115187338D03*
X66252015Y-40084622D03*
X59557420Y-41483368D03*
X62944017Y-58845210D03*
X56249422Y-60243956D03*
X59636019Y-77605798D03*
X52941424Y-79004544D03*
X56328021Y-96366386D03*
X49633426Y-97765132D03*
X53020023Y-115126974D03*
X46325428Y-116525720D03*
X85533547Y-40438196D03*
X78838952Y-41836942D03*
X82225549Y-59198784D03*
X75530954Y-60597530D03*
X78917551Y-77959372D03*
X72222956Y-79358118D03*
X75609553Y-96719960D03*
X68914958Y-98118706D03*
X72301555Y-115480548D03*
X65606960Y-116879294D03*
X104815079Y-40791770D03*
X98120484Y-42190516D03*
X101507081Y-59552358D03*
X94812486Y-60951104D03*
X98199083Y-78312946D03*
X91504488Y-79711692D03*
X94891085Y-97073534D03*
X88196490Y-98472280D03*
X91583087Y-115834122D03*
X84888492Y-117232868D03*
X123054722Y-47054191D03*
X116360127Y-48452937D03*
X119746724Y-65814779D03*
X113052129Y-67213525D03*
X116438726Y-84575367D03*
X109744131Y-85974113D03*
X113130728Y-103335955D03*
X106436133Y-104734701D03*
X109822730Y-122096543D03*
X103128135Y-123495289D03*
X141294365Y-53316612D03*
X134599770Y-54715358D03*
X131370371Y-109598376D03*
X124675776Y-110997122D03*
X128062373Y-128358964D03*
X121367778Y-129757710D03*
X225016450Y-71195067D03*
X219203987Y-74799145D03*
X228324448Y-89955655D03*
X222511985Y-93559733D03*
X231632446Y-108716243D03*
X225819983Y-112320321D03*
X234940444Y-127476831D03*
X229127981Y-131080909D03*
X239948096Y-46172058D03*
X234135633Y-49776136D03*
X243256094Y-64932646D03*
X237443631Y-68536724D03*
X246564092Y-83693234D03*
X240751629Y-87297312D03*
X249872090Y-102453822D03*
X244059627Y-106057900D03*
X253180088Y-121214410D03*
X247367625Y-124818488D03*
X258187740Y-39909637D03*
X252375277Y-43513715D03*
X261495738Y-58670225D03*
X255683275Y-62274303D03*
X264803736Y-77430813D03*
X258991273Y-81034891D03*
X268111734Y-96191401D03*
X262299271Y-99795479D03*
X271419732Y-114951989D03*
X265607269Y-118556067D03*
X277469273Y-39556063D03*
X271656810Y-43160141D03*
X280777271Y-58316651D03*
X274964808Y-61920729D03*
X284085269Y-77077239D03*
X278272806Y-80681317D03*
X287393267Y-95837827D03*
X281580804Y-99441905D03*
X290701265Y-114598415D03*
X284888802Y-118202493D03*
X296750806Y-39202489D03*
X290938343Y-42806567D03*
X300058804Y-57963077D03*
X294246341Y-61567155D03*
X303366802Y-76723665D03*
X297554339Y-80327743D03*
X306674800Y-95484253D03*
X300862337Y-99088331D03*
X309982798Y-114244841D03*
X304170335Y-117848919D03*
X315858691Y-37864107D03*
X310046228Y-41468185D03*
X319166689Y-56624695D03*
X313354226Y-60228773D03*
X322474687Y-75385283D03*
X316662224Y-78989361D03*
X325782685Y-94145871D03*
X319970222Y-97749949D03*
X329090683Y-112906459D03*
X323278220Y-116510537D03*
X148209552Y-138430492D03*
X146810806Y-131735897D03*
X157846625Y-134971401D03*
X159245371Y-141665996D03*
D14*
X43472985Y-37164724D03*
D15*
G36*
X44020337Y-36651981D02*
X43811960Y-37833750D01*
X42925633Y-37677467D01*
X43134010Y-36495698D01*
X44020337Y-36651981D01*
X44020337Y-36651981D01*
G37*
D14*
X40223119Y-36591686D03*
D15*
G36*
X40770471Y-36078943D02*
X40562094Y-37260712D01*
X39675767Y-37104429D01*
X39884144Y-35922660D01*
X40770471Y-36078943D01*
X40770471Y-36078943D01*
G37*
D14*
X36915121Y-55352274D03*
D15*
G36*
X37462473Y-54839531D02*
X37254096Y-56021300D01*
X36367769Y-55865017D01*
X36576146Y-54683248D01*
X37462473Y-54839531D01*
X37462473Y-54839531D01*
G37*
D14*
X40164987Y-55925312D03*
D15*
G36*
X40712339Y-55412569D02*
X40503962Y-56594338D01*
X39617635Y-56438055D01*
X39826012Y-55256286D01*
X40712339Y-55412569D01*
X40712339Y-55412569D01*
G37*
D14*
X36856989Y-74685900D03*
D15*
G36*
X37404341Y-74173157D02*
X37195964Y-75354926D01*
X36309637Y-75198643D01*
X36518014Y-74016874D01*
X37404341Y-74173157D01*
X37404341Y-74173157D01*
G37*
D14*
X33607123Y-74112862D03*
D15*
G36*
X34154475Y-73600119D02*
X33946098Y-74781888D01*
X33059771Y-74625605D01*
X33268148Y-73443836D01*
X34154475Y-73600119D01*
X34154475Y-73600119D01*
G37*
D14*
X30299125Y-92873450D03*
D15*
G36*
X30846477Y-92360707D02*
X30638100Y-93542476D01*
X29751773Y-93386193D01*
X29960150Y-92204424D01*
X30846477Y-92360707D01*
X30846477Y-92360707D01*
G37*
D14*
X33548991Y-93446488D03*
D15*
G36*
X34096343Y-92933745D02*
X33887966Y-94115514D01*
X33001639Y-93959231D01*
X33210016Y-92777462D01*
X34096343Y-92933745D01*
X34096343Y-92933745D01*
G37*
D14*
X30240993Y-112207076D03*
D15*
G36*
X30788345Y-111694333D02*
X30579968Y-112876102D01*
X29693641Y-112719819D01*
X29902018Y-111538050D01*
X30788345Y-111694333D01*
X30788345Y-111694333D01*
G37*
D14*
X26991127Y-111634038D03*
D15*
G36*
X27538479Y-111121295D02*
X27330102Y-112303064D01*
X26443775Y-112146781D01*
X26652152Y-110965012D01*
X27538479Y-111121295D01*
X27538479Y-111121295D01*
G37*
D14*
X59331003Y-37930068D03*
D15*
G36*
X59878355Y-37417325D02*
X59669978Y-38599094D01*
X58783651Y-38442811D01*
X58992028Y-37261042D01*
X59878355Y-37417325D01*
X59878355Y-37417325D01*
G37*
D14*
X62580869Y-38503106D03*
D15*
G36*
X63128221Y-37990363D02*
X62919844Y-39172132D01*
X62033517Y-39015849D01*
X62241894Y-37834080D01*
X63128221Y-37990363D01*
X63128221Y-37990363D01*
G37*
D14*
X59272871Y-57263694D03*
D15*
G36*
X59820223Y-56750951D02*
X59611846Y-57932720D01*
X58725519Y-57776437D01*
X58933896Y-56594668D01*
X59820223Y-56750951D01*
X59820223Y-56750951D01*
G37*
D14*
X56023005Y-56690656D03*
D15*
G36*
X56570357Y-56177913D02*
X56361980Y-57359682D01*
X55475653Y-57203399D01*
X55684030Y-56021630D01*
X56570357Y-56177913D01*
X56570357Y-56177913D01*
G37*
D14*
X52715007Y-75451244D03*
D15*
G36*
X53262359Y-74938501D02*
X53053982Y-76120270D01*
X52167655Y-75963987D01*
X52376032Y-74782218D01*
X53262359Y-74938501D01*
X53262359Y-74938501D01*
G37*
D14*
X55964873Y-76024282D03*
D15*
G36*
X56512225Y-75511539D02*
X56303848Y-76693308D01*
X55417521Y-76537025D01*
X55625898Y-75355256D01*
X56512225Y-75511539D01*
X56512225Y-75511539D01*
G37*
D14*
X52656875Y-94784870D03*
D15*
G36*
X53204227Y-94272127D02*
X52995850Y-95453896D01*
X52109523Y-95297613D01*
X52317900Y-94115844D01*
X53204227Y-94272127D01*
X53204227Y-94272127D01*
G37*
D14*
X49407009Y-94211832D03*
D15*
G36*
X49954361Y-93699089D02*
X49745984Y-94880858D01*
X48859657Y-94724575D01*
X49068034Y-93542806D01*
X49954361Y-93699089D01*
X49954361Y-93699089D01*
G37*
D14*
X46099011Y-112972420D03*
D15*
G36*
X46646363Y-112459677D02*
X46437986Y-113641446D01*
X45551659Y-113485163D01*
X45760036Y-112303394D01*
X46646363Y-112459677D01*
X46646363Y-112459677D01*
G37*
D14*
X49348877Y-113545458D03*
D15*
G36*
X49896229Y-113032715D02*
X49687852Y-114214484D01*
X48801525Y-114058201D01*
X49009902Y-112876432D01*
X49896229Y-113032715D01*
X49896229Y-113032715D01*
G37*
D14*
X81862401Y-38856680D03*
D15*
G36*
X82409753Y-38343937D02*
X82201376Y-39525706D01*
X81315049Y-39369423D01*
X81523426Y-38187654D01*
X82409753Y-38343937D01*
X82409753Y-38343937D01*
G37*
D14*
X78612535Y-38283642D03*
D15*
G36*
X79159887Y-37770899D02*
X78951510Y-38952668D01*
X78065183Y-38796385D01*
X78273560Y-37614616D01*
X79159887Y-37770899D01*
X79159887Y-37770899D01*
G37*
D14*
X75304537Y-57044230D03*
D15*
G36*
X75851889Y-56531487D02*
X75643512Y-57713256D01*
X74757185Y-57556973D01*
X74965562Y-56375204D01*
X75851889Y-56531487D01*
X75851889Y-56531487D01*
G37*
D14*
X78554403Y-57617268D03*
D15*
G36*
X79101755Y-57104525D02*
X78893378Y-58286294D01*
X78007051Y-58130011D01*
X78215428Y-56948242D01*
X79101755Y-57104525D01*
X79101755Y-57104525D01*
G37*
D14*
X75246405Y-76377856D03*
D15*
G36*
X75793757Y-75865113D02*
X75585380Y-77046882D01*
X74699053Y-76890599D01*
X74907430Y-75708830D01*
X75793757Y-75865113D01*
X75793757Y-75865113D01*
G37*
D14*
X71996539Y-75804818D03*
D15*
G36*
X72543891Y-75292075D02*
X72335514Y-76473844D01*
X71449187Y-76317561D01*
X71657564Y-75135792D01*
X72543891Y-75292075D01*
X72543891Y-75292075D01*
G37*
D14*
X68688541Y-94565406D03*
D15*
G36*
X69235893Y-94052663D02*
X69027516Y-95234432D01*
X68141189Y-95078149D01*
X68349566Y-93896380D01*
X69235893Y-94052663D01*
X69235893Y-94052663D01*
G37*
D14*
X71938407Y-95138444D03*
D15*
G36*
X72485759Y-94625701D02*
X72277382Y-95807470D01*
X71391055Y-95651187D01*
X71599432Y-94469418D01*
X72485759Y-94625701D01*
X72485759Y-94625701D01*
G37*
D14*
X68630409Y-113899032D03*
D15*
G36*
X69177761Y-113386289D02*
X68969384Y-114568058D01*
X68083057Y-114411775D01*
X68291434Y-113230006D01*
X69177761Y-113386289D01*
X69177761Y-113386289D01*
G37*
D14*
X65380543Y-113325994D03*
D15*
G36*
X65927895Y-112813251D02*
X65719518Y-113995020D01*
X64833191Y-113838737D01*
X65041568Y-112656968D01*
X65927895Y-112813251D01*
X65927895Y-112813251D01*
G37*
D14*
X97894067Y-38637216D03*
D15*
G36*
X98441419Y-38124473D02*
X98233042Y-39306242D01*
X97346715Y-39149959D01*
X97555092Y-37968190D01*
X98441419Y-38124473D01*
X98441419Y-38124473D01*
G37*
D14*
X101143933Y-39210254D03*
D15*
G36*
X101691285Y-38697511D02*
X101482908Y-39879280D01*
X100596581Y-39722997D01*
X100804958Y-38541228D01*
X101691285Y-38697511D01*
X101691285Y-38697511D01*
G37*
D14*
X97835935Y-57970842D03*
D15*
G36*
X98383287Y-57458099D02*
X98174910Y-58639868D01*
X97288583Y-58483585D01*
X97496960Y-57301816D01*
X98383287Y-57458099D01*
X98383287Y-57458099D01*
G37*
D14*
X94586069Y-57397804D03*
D15*
G36*
X95133421Y-56885061D02*
X94925044Y-58066830D01*
X94038717Y-57910547D01*
X94247094Y-56728778D01*
X95133421Y-56885061D01*
X95133421Y-56885061D01*
G37*
D14*
X91278071Y-76158392D03*
D15*
G36*
X91825423Y-75645649D02*
X91617046Y-76827418D01*
X90730719Y-76671135D01*
X90939096Y-75489366D01*
X91825423Y-75645649D01*
X91825423Y-75645649D01*
G37*
D14*
X94527937Y-76731430D03*
D15*
G36*
X95075289Y-76218687D02*
X94866912Y-77400456D01*
X93980585Y-77244173D01*
X94188962Y-76062404D01*
X95075289Y-76218687D01*
X95075289Y-76218687D01*
G37*
D14*
X91219939Y-95492018D03*
D15*
G36*
X91767291Y-94979275D02*
X91558914Y-96161044D01*
X90672587Y-96004761D01*
X90880964Y-94822992D01*
X91767291Y-94979275D01*
X91767291Y-94979275D01*
G37*
D14*
X87970073Y-94918980D03*
D15*
G36*
X88517425Y-94406237D02*
X88309048Y-95588006D01*
X87422721Y-95431723D01*
X87631098Y-94249954D01*
X88517425Y-94406237D01*
X88517425Y-94406237D01*
G37*
D14*
X87911941Y-114252606D03*
D15*
G36*
X88459293Y-113739863D02*
X88250916Y-114921632D01*
X87364589Y-114765349D01*
X87572966Y-113583580D01*
X88459293Y-113739863D01*
X88459293Y-113739863D01*
G37*
D14*
X84662075Y-113679568D03*
D15*
G36*
X85209427Y-113166825D02*
X85001050Y-114348594D01*
X84114723Y-114192311D01*
X84323100Y-113010542D01*
X85209427Y-113166825D01*
X85209427Y-113166825D01*
G37*
D14*
X116133710Y-44899637D03*
D15*
G36*
X116681062Y-44386894D02*
X116472685Y-45568663D01*
X115586358Y-45412380D01*
X115794735Y-44230611D01*
X116681062Y-44386894D01*
X116681062Y-44386894D01*
G37*
D14*
X119383576Y-45472675D03*
D15*
G36*
X119930928Y-44959932D02*
X119722551Y-46141701D01*
X118836224Y-45985418D01*
X119044601Y-44803649D01*
X119930928Y-44959932D01*
X119930928Y-44959932D01*
G37*
D14*
X112825712Y-63660225D03*
D15*
G36*
X113373064Y-63147482D02*
X113164687Y-64329251D01*
X112278360Y-64172968D01*
X112486737Y-62991199D01*
X113373064Y-63147482D01*
X113373064Y-63147482D01*
G37*
D14*
X116075578Y-64233263D03*
D15*
G36*
X116622930Y-63720520D02*
X116414553Y-64902289D01*
X115528226Y-64746006D01*
X115736603Y-63564237D01*
X116622930Y-63720520D01*
X116622930Y-63720520D01*
G37*
D14*
X112767580Y-82993851D03*
D15*
G36*
X113314932Y-82481108D02*
X113106555Y-83662877D01*
X112220228Y-83506594D01*
X112428605Y-82324825D01*
X113314932Y-82481108D01*
X113314932Y-82481108D01*
G37*
D14*
X109517714Y-82420813D03*
D15*
G36*
X110065066Y-81908070D02*
X109856689Y-83089839D01*
X108970362Y-82933556D01*
X109178739Y-81751787D01*
X110065066Y-81908070D01*
X110065066Y-81908070D01*
G37*
D14*
X106209716Y-101181401D03*
D15*
G36*
X106757068Y-100668658D02*
X106548691Y-101850427D01*
X105662364Y-101694144D01*
X105870741Y-100512375D01*
X106757068Y-100668658D01*
X106757068Y-100668658D01*
G37*
D14*
X109459582Y-101754439D03*
D15*
G36*
X110006934Y-101241696D02*
X109798557Y-102423465D01*
X108912230Y-102267182D01*
X109120607Y-101085413D01*
X110006934Y-101241696D01*
X110006934Y-101241696D01*
G37*
D14*
X106151584Y-120515027D03*
D15*
G36*
X106698936Y-120002284D02*
X106490559Y-121184053D01*
X105604232Y-121027770D01*
X105812609Y-119846001D01*
X106698936Y-120002284D01*
X106698936Y-120002284D01*
G37*
D14*
X102901718Y-119941989D03*
D15*
G36*
X103449070Y-119429246D02*
X103240693Y-120611015D01*
X102354366Y-120454732D01*
X102562743Y-119272963D01*
X103449070Y-119429246D01*
X103449070Y-119429246D01*
G37*
D14*
X134373353Y-51162058D03*
D15*
G36*
X134920705Y-50649315D02*
X134712328Y-51831084D01*
X133826001Y-51674801D01*
X134034378Y-50493032D01*
X134920705Y-50649315D01*
X134920705Y-50649315D01*
G37*
D14*
X137623219Y-51735096D03*
D15*
G36*
X138170571Y-51222353D02*
X137962194Y-52404122D01*
X137075867Y-52247839D01*
X137284244Y-51066070D01*
X138170571Y-51222353D01*
X138170571Y-51222353D01*
G37*
D14*
X134315221Y-70495684D03*
D15*
G36*
X134862573Y-69982941D02*
X134654196Y-71164710D01*
X133767869Y-71008427D01*
X133976246Y-69826658D01*
X134862573Y-69982941D01*
X134862573Y-69982941D01*
G37*
D14*
X131065355Y-69922646D03*
D15*
G36*
X131612707Y-69409903D02*
X131404330Y-70591672D01*
X130518003Y-70435389D01*
X130726380Y-69253620D01*
X131612707Y-69409903D01*
X131612707Y-69409903D01*
G37*
D14*
X127757357Y-88683234D03*
D15*
G36*
X128304709Y-88170491D02*
X128096332Y-89352260D01*
X127210005Y-89195977D01*
X127418382Y-88014208D01*
X128304709Y-88170491D01*
X128304709Y-88170491D01*
G37*
D14*
X131007223Y-89256272D03*
D15*
G36*
X131554575Y-88743529D02*
X131346198Y-89925298D01*
X130459871Y-89769015D01*
X130668248Y-88587246D01*
X131554575Y-88743529D01*
X131554575Y-88743529D01*
G37*
D14*
X124449359Y-107443822D03*
D15*
G36*
X124996711Y-106931079D02*
X124788334Y-108112848D01*
X123902007Y-107956565D01*
X124110384Y-106774796D01*
X124996711Y-106931079D01*
X124996711Y-106931079D01*
G37*
D14*
X127699225Y-108016860D03*
D15*
G36*
X128246577Y-107504117D02*
X128038200Y-108685886D01*
X127151873Y-108529603D01*
X127360250Y-107347834D01*
X128246577Y-107504117D01*
X128246577Y-107504117D01*
G37*
D14*
X124391227Y-126777448D03*
D15*
G36*
X124938579Y-126264705D02*
X124730202Y-127446474D01*
X123843875Y-127290191D01*
X124052252Y-126108422D01*
X124938579Y-126264705D01*
X124938579Y-126264705D01*
G37*
D14*
X121141361Y-126204410D03*
D15*
G36*
X121688713Y-125691667D02*
X121480336Y-126873436D01*
X120594009Y-126717153D01*
X120802386Y-125535384D01*
X121688713Y-125691667D01*
X121688713Y-125691667D01*
G37*
D14*
X217717793Y-52203948D03*
D15*
G36*
X218056768Y-51534922D02*
X218265145Y-52716691D01*
X217378818Y-52872974D01*
X217170441Y-51691205D01*
X218056768Y-51534922D01*
X218056768Y-51534922D01*
G37*
D14*
X214467927Y-52776986D03*
D15*
G36*
X214806902Y-52107960D02*
X215015279Y-53289729D01*
X214128952Y-53446012D01*
X213920575Y-52264243D01*
X214806902Y-52107960D01*
X214806902Y-52107960D01*
G37*
D14*
X217775925Y-71537574D03*
D15*
G36*
X218114900Y-70868548D02*
X218323277Y-72050317D01*
X217436950Y-72206600D01*
X217228573Y-71024831D01*
X218114900Y-70868548D01*
X218114900Y-70868548D01*
G37*
D14*
X221025791Y-70964536D03*
D15*
G36*
X221364766Y-70295510D02*
X221573143Y-71477279D01*
X220686816Y-71633562D01*
X220478439Y-70451793D01*
X221364766Y-70295510D01*
X221364766Y-70295510D01*
G37*
D14*
X224333789Y-89725124D03*
D15*
G36*
X224672764Y-89056098D02*
X224881141Y-90237867D01*
X223994814Y-90394150D01*
X223786437Y-89212381D01*
X224672764Y-89056098D01*
X224672764Y-89056098D01*
G37*
D14*
X221083923Y-90298162D03*
D15*
G36*
X221422898Y-89629136D02*
X221631275Y-90810905D01*
X220744948Y-90967188D01*
X220536571Y-89785419D01*
X221422898Y-89629136D01*
X221422898Y-89629136D01*
G37*
D14*
X224391921Y-109058750D03*
D15*
G36*
X224730896Y-108389724D02*
X224939273Y-109571493D01*
X224052946Y-109727776D01*
X223844569Y-108546007D01*
X224730896Y-108389724D01*
X224730896Y-108389724D01*
G37*
D14*
X227641787Y-108485712D03*
D15*
G36*
X227980762Y-107816686D02*
X228189139Y-108998455D01*
X227302812Y-109154738D01*
X227094435Y-107972969D01*
X227980762Y-107816686D01*
X227980762Y-107816686D01*
G37*
D14*
X230949785Y-127246300D03*
D15*
G36*
X231288760Y-126577274D02*
X231497137Y-127759043D01*
X230610810Y-127915326D01*
X230402433Y-126733557D01*
X231288760Y-126577274D01*
X231288760Y-126577274D01*
G37*
D14*
X227699919Y-127819338D03*
D15*
G36*
X228038894Y-127150312D02*
X228247271Y-128332081D01*
X227360944Y-128488364D01*
X227152567Y-127306595D01*
X228038894Y-127150312D01*
X228038894Y-127150312D01*
G37*
D14*
X232707571Y-46514565D03*
D15*
G36*
X233046546Y-45845539D02*
X233254923Y-47027308D01*
X232368596Y-47183591D01*
X232160219Y-46001822D01*
X233046546Y-45845539D01*
X233046546Y-45845539D01*
G37*
D14*
X235957437Y-45941527D03*
D15*
G36*
X236296412Y-45272501D02*
X236504789Y-46454270D01*
X235618462Y-46610553D01*
X235410085Y-45428784D01*
X236296412Y-45272501D01*
X236296412Y-45272501D01*
G37*
D14*
X239265435Y-64702115D03*
D15*
G36*
X239604410Y-64033089D02*
X239812787Y-65214858D01*
X238926460Y-65371141D01*
X238718083Y-64189372D01*
X239604410Y-64033089D01*
X239604410Y-64033089D01*
G37*
D14*
X236015569Y-65275153D03*
D15*
G36*
X236354544Y-64606127D02*
X236562921Y-65787896D01*
X235676594Y-65944179D01*
X235468217Y-64762410D01*
X236354544Y-64606127D01*
X236354544Y-64606127D01*
G37*
D14*
X239323567Y-84035741D03*
D15*
G36*
X239662542Y-83366715D02*
X239870919Y-84548484D01*
X238984592Y-84704767D01*
X238776215Y-83522998D01*
X239662542Y-83366715D01*
X239662542Y-83366715D01*
G37*
D14*
X242573433Y-83462703D03*
D15*
G36*
X242912408Y-82793677D02*
X243120785Y-83975446D01*
X242234458Y-84131729D01*
X242026081Y-82949960D01*
X242912408Y-82793677D01*
X242912408Y-82793677D01*
G37*
D14*
X242631565Y-102796329D03*
D15*
G36*
X242970540Y-102127303D02*
X243178917Y-103309072D01*
X242292590Y-103465355D01*
X242084213Y-102283586D01*
X242970540Y-102127303D01*
X242970540Y-102127303D01*
G37*
D14*
X245881431Y-102223291D03*
D15*
G36*
X246220406Y-101554265D02*
X246428783Y-102736034D01*
X245542456Y-102892317D01*
X245334079Y-101710548D01*
X246220406Y-101554265D01*
X246220406Y-101554265D01*
G37*
D14*
X249189429Y-120983879D03*
D15*
G36*
X249528404Y-120314853D02*
X249736781Y-121496622D01*
X248850454Y-121652905D01*
X248642077Y-120471136D01*
X249528404Y-120314853D01*
X249528404Y-120314853D01*
G37*
D14*
X245939563Y-121556917D03*
D15*
G36*
X246278538Y-120887891D02*
X246486915Y-122069660D01*
X245600588Y-122225943D01*
X245392211Y-121044174D01*
X246278538Y-120887891D01*
X246278538Y-120887891D01*
G37*
D14*
X254197081Y-39679106D03*
D15*
G36*
X254536056Y-39010080D02*
X254744433Y-40191849D01*
X253858106Y-40348132D01*
X253649729Y-39166363D01*
X254536056Y-39010080D01*
X254536056Y-39010080D01*
G37*
D14*
X250947215Y-40252144D03*
D15*
G36*
X251286190Y-39583118D02*
X251494567Y-40764887D01*
X250608240Y-40921170D01*
X250399863Y-39739401D01*
X251286190Y-39583118D01*
X251286190Y-39583118D01*
G37*
D14*
X254255213Y-59012732D03*
D15*
G36*
X254594188Y-58343706D02*
X254802565Y-59525475D01*
X253916238Y-59681758D01*
X253707861Y-58499989D01*
X254594188Y-58343706D01*
X254594188Y-58343706D01*
G37*
D14*
X257505079Y-58439694D03*
D15*
G36*
X257844054Y-57770668D02*
X258052431Y-58952437D01*
X257166104Y-59108720D01*
X256957727Y-57926951D01*
X257844054Y-57770668D01*
X257844054Y-57770668D01*
G37*
D14*
X257563211Y-77773320D03*
D15*
G36*
X257902186Y-77104294D02*
X258110563Y-78286063D01*
X257224236Y-78442346D01*
X257015859Y-77260577D01*
X257902186Y-77104294D01*
X257902186Y-77104294D01*
G37*
D14*
X260813077Y-77200282D03*
D15*
G36*
X261152052Y-76531256D02*
X261360429Y-77713025D01*
X260474102Y-77869308D01*
X260265725Y-76687539D01*
X261152052Y-76531256D01*
X261152052Y-76531256D01*
G37*
D14*
X260871209Y-96533908D03*
D15*
G36*
X261210184Y-95864882D02*
X261418561Y-97046651D01*
X260532234Y-97202934D01*
X260323857Y-96021165D01*
X261210184Y-95864882D01*
X261210184Y-95864882D01*
G37*
D14*
X264121075Y-95960870D03*
D15*
G36*
X264460050Y-95291844D02*
X264668427Y-96473613D01*
X263782100Y-96629896D01*
X263573723Y-95448127D01*
X264460050Y-95291844D01*
X264460050Y-95291844D01*
G37*
D14*
X264179207Y-115294496D03*
D15*
G36*
X264518182Y-114625470D02*
X264726559Y-115807239D01*
X263840232Y-115963522D01*
X263631855Y-114781753D01*
X264518182Y-114625470D01*
X264518182Y-114625470D01*
G37*
D14*
X267429073Y-114721458D03*
D15*
G36*
X267768048Y-114052432D02*
X267976425Y-115234201D01*
X267090098Y-115390484D01*
X266881721Y-114208715D01*
X267768048Y-114052432D01*
X267768048Y-114052432D01*
G37*
D14*
X270228748Y-39898570D03*
D15*
G36*
X270567723Y-39229544D02*
X270776100Y-40411313D01*
X269889773Y-40567596D01*
X269681396Y-39385827D01*
X270567723Y-39229544D01*
X270567723Y-39229544D01*
G37*
D14*
X273478614Y-39325532D03*
D15*
G36*
X273817589Y-38656506D02*
X274025966Y-39838275D01*
X273139639Y-39994558D01*
X272931262Y-38812789D01*
X273817589Y-38656506D01*
X273817589Y-38656506D01*
G37*
D14*
X273536746Y-58659158D03*
D15*
G36*
X273875721Y-57990132D02*
X274084098Y-59171901D01*
X273197771Y-59328184D01*
X272989394Y-58146415D01*
X273875721Y-57990132D01*
X273875721Y-57990132D01*
G37*
D14*
X276786612Y-58086120D03*
D15*
G36*
X277125587Y-57417094D02*
X277333964Y-58598863D01*
X276447637Y-58755146D01*
X276239260Y-57573377D01*
X277125587Y-57417094D01*
X277125587Y-57417094D01*
G37*
D14*
X280094610Y-76846708D03*
D15*
G36*
X280433585Y-76177682D02*
X280641962Y-77359451D01*
X279755635Y-77515734D01*
X279547258Y-76333965D01*
X280433585Y-76177682D01*
X280433585Y-76177682D01*
G37*
D14*
X276844744Y-77419746D03*
D15*
G36*
X277183719Y-76750720D02*
X277392096Y-77932489D01*
X276505769Y-78088772D01*
X276297392Y-76907003D01*
X277183719Y-76750720D01*
X277183719Y-76750720D01*
G37*
D14*
X283402608Y-95607296D03*
D15*
G36*
X283741583Y-94938270D02*
X283949960Y-96120039D01*
X283063633Y-96276322D01*
X282855256Y-95094553D01*
X283741583Y-94938270D01*
X283741583Y-94938270D01*
G37*
D14*
X280152742Y-96180334D03*
D15*
G36*
X280491717Y-95511308D02*
X280700094Y-96693077D01*
X279813767Y-96849360D01*
X279605390Y-95667591D01*
X280491717Y-95511308D01*
X280491717Y-95511308D01*
G37*
D14*
X283460740Y-114940922D03*
D15*
G36*
X283799715Y-114271896D02*
X284008092Y-115453665D01*
X283121765Y-115609948D01*
X282913388Y-114428179D01*
X283799715Y-114271896D01*
X283799715Y-114271896D01*
G37*
D14*
X286710606Y-114367884D03*
D15*
G36*
X287049581Y-113698858D02*
X287257958Y-114880627D01*
X286371631Y-115036910D01*
X286163254Y-113855141D01*
X287049581Y-113698858D01*
X287049581Y-113698858D01*
G37*
D14*
X292760147Y-38971958D03*
D15*
G36*
X293099122Y-38302932D02*
X293307499Y-39484701D01*
X292421172Y-39640984D01*
X292212795Y-38459215D01*
X293099122Y-38302932D01*
X293099122Y-38302932D01*
G37*
D14*
X289510281Y-39544996D03*
D15*
G36*
X289849256Y-38875970D02*
X290057633Y-40057739D01*
X289171306Y-40214022D01*
X288962929Y-39032253D01*
X289849256Y-38875970D01*
X289849256Y-38875970D01*
G37*
D14*
X296068145Y-57732546D03*
D15*
G36*
X296407120Y-57063520D02*
X296615497Y-58245289D01*
X295729170Y-58401572D01*
X295520793Y-57219803D01*
X296407120Y-57063520D01*
X296407120Y-57063520D01*
G37*
D14*
X292818279Y-58305584D03*
D15*
G36*
X293157254Y-57636558D02*
X293365631Y-58818327D01*
X292479304Y-58974610D01*
X292270927Y-57792841D01*
X293157254Y-57636558D01*
X293157254Y-57636558D01*
G37*
D14*
X296126277Y-77066172D03*
D15*
G36*
X296465252Y-76397146D02*
X296673629Y-77578915D01*
X295787302Y-77735198D01*
X295578925Y-76553429D01*
X296465252Y-76397146D01*
X296465252Y-76397146D01*
G37*
D14*
X299376143Y-76493134D03*
D15*
G36*
X299715118Y-75824108D02*
X299923495Y-77005877D01*
X299037168Y-77162160D01*
X298828791Y-75980391D01*
X299715118Y-75824108D01*
X299715118Y-75824108D01*
G37*
D14*
X302684141Y-95253722D03*
D15*
G36*
X303023116Y-94584696D02*
X303231493Y-95766465D01*
X302345166Y-95922748D01*
X302136789Y-94740979D01*
X303023116Y-94584696D01*
X303023116Y-94584696D01*
G37*
D14*
X299434275Y-95826760D03*
D15*
G36*
X299773250Y-95157734D02*
X299981627Y-96339503D01*
X299095300Y-96495786D01*
X298886923Y-95314017D01*
X299773250Y-95157734D01*
X299773250Y-95157734D01*
G37*
D14*
X305992139Y-114014310D03*
D15*
G36*
X306331114Y-113345284D02*
X306539491Y-114527053D01*
X305653164Y-114683336D01*
X305444787Y-113501567D01*
X306331114Y-113345284D01*
X306331114Y-113345284D01*
G37*
D14*
X302742273Y-114587348D03*
D15*
G36*
X303081248Y-113918322D02*
X303289625Y-115100091D01*
X302403298Y-115256374D01*
X302194921Y-114074605D01*
X303081248Y-113918322D01*
X303081248Y-113918322D01*
G37*
D14*
X308618166Y-38206614D03*
D15*
G36*
X308957141Y-37537588D02*
X309165518Y-38719357D01*
X308279191Y-38875640D01*
X308070814Y-37693871D01*
X308957141Y-37537588D01*
X308957141Y-37537588D01*
G37*
D14*
X311868032Y-37633576D03*
D15*
G36*
X312207007Y-36964550D02*
X312415384Y-38146319D01*
X311529057Y-38302602D01*
X311320680Y-37120833D01*
X312207007Y-36964550D01*
X312207007Y-36964550D01*
G37*
D14*
X315176030Y-56394164D03*
D15*
G36*
X315515005Y-55725138D02*
X315723382Y-56906907D01*
X314837055Y-57063190D01*
X314628678Y-55881421D01*
X315515005Y-55725138D01*
X315515005Y-55725138D01*
G37*
D14*
X311926164Y-56967202D03*
D15*
G36*
X312265139Y-56298176D02*
X312473516Y-57479945D01*
X311587189Y-57636228D01*
X311378812Y-56454459D01*
X312265139Y-56298176D01*
X312265139Y-56298176D01*
G37*
D14*
X318484028Y-75154752D03*
D15*
G36*
X318823003Y-74485726D02*
X319031380Y-75667495D01*
X318145053Y-75823778D01*
X317936676Y-74642009D01*
X318823003Y-74485726D01*
X318823003Y-74485726D01*
G37*
D14*
X315234162Y-75727790D03*
D15*
G36*
X315573137Y-75058764D02*
X315781514Y-76240533D01*
X314895187Y-76396816D01*
X314686810Y-75215047D01*
X315573137Y-75058764D01*
X315573137Y-75058764D01*
G37*
D14*
X318542160Y-94488378D03*
D15*
G36*
X318881135Y-93819352D02*
X319089512Y-95001121D01*
X318203185Y-95157404D01*
X317994808Y-93975635D01*
X318881135Y-93819352D01*
X318881135Y-93819352D01*
G37*
D14*
X321792026Y-93915340D03*
D15*
G36*
X322131001Y-93246314D02*
X322339378Y-94428083D01*
X321453051Y-94584366D01*
X321244674Y-93402597D01*
X322131001Y-93246314D01*
X322131001Y-93246314D01*
G37*
D14*
X325100024Y-112675928D03*
D15*
G36*
X325438999Y-112006902D02*
X325647376Y-113188671D01*
X324761049Y-113344954D01*
X324552672Y-112163185D01*
X325438999Y-112006902D01*
X325438999Y-112006902D01*
G37*
D14*
X321850158Y-113248966D03*
D15*
G36*
X322189133Y-112579940D02*
X322397510Y-113761709D01*
X321511183Y-113917992D01*
X321302806Y-112736223D01*
X322189133Y-112579940D01*
X322189133Y-112579940D01*
G37*
D14*
X149313009Y-135482933D03*
D15*
G36*
X149825752Y-136030285D02*
X148643983Y-135821908D01*
X148800266Y-134935581D01*
X149982035Y-135143958D01*
X149825752Y-136030285D01*
X149825752Y-136030285D01*
G37*
D14*
X149886047Y-132233067D03*
D15*
G36*
X150398790Y-132780419D02*
X149217021Y-132572042D01*
X149373304Y-131685715D01*
X150555073Y-131894092D01*
X150398790Y-132780419D01*
X150398790Y-132780419D01*
G37*
D14*
X156177481Y-141197933D03*
D15*
G36*
X155664738Y-140650581D02*
X156846507Y-140858958D01*
X156690224Y-141745285D01*
X155508455Y-141536908D01*
X155664738Y-140650581D01*
X155664738Y-140650581D01*
G37*
D14*
X156750519Y-137948067D03*
D15*
G36*
X156237776Y-137400715D02*
X157419545Y-137609092D01*
X157263262Y-138495419D01*
X156081493Y-138287042D01*
X156237776Y-137400715D01*
X156237776Y-137400715D01*
G37*
D14*
X209455519Y-140054933D03*
D15*
G36*
X208786493Y-139715958D02*
X209968262Y-139507581D01*
X210124545Y-140393908D01*
X208942776Y-140602285D01*
X208786493Y-139715958D01*
X208786493Y-139715958D01*
G37*
D14*
X208882481Y-136805067D03*
D15*
G36*
X208213455Y-136466092D02*
X209395224Y-136257715D01*
X209551507Y-137144042D01*
X208369738Y-137352419D01*
X208213455Y-136466092D01*
X208213455Y-136466092D01*
G37*
D14*
X201073519Y-136625933D03*
D15*
G36*
X201742545Y-136964908D02*
X200560776Y-137173285D01*
X200404493Y-136286958D01*
X201586262Y-136078581D01*
X201742545Y-136964908D01*
X201742545Y-136964908D01*
G37*
D14*
X200500481Y-133376067D03*
D15*
G36*
X201169507Y-133715042D02*
X199987738Y-133923419D01*
X199831455Y-133037092D01*
X201013224Y-132828715D01*
X201169507Y-133715042D01*
X201169507Y-133715042D01*
G37*
M02*
