M48
;DRILL file {KiCad 4.0.7} date 04/14/18 16:40:19
;FORMAT={-:-/ absolute / metric / decimal}
FMAT,2
METRIC,TZ
T1C0.400
T2C0.500
T3C0.650
T4C0.700
T5C0.900
T6C1.499
%
G90
G05
M71
T1
X40.048Y-47.688
X55.817Y-66.675
X71.791Y-88.011
X87.764Y-108.077
X106.004Y-117.094
X124.244Y-117.856
X145.415Y-97.79
X145.415Y-106.68
X146.05Y-83.058
X146.05Y-106.045
X146.685Y-61.595
X146.685Y-105.41
X147.32Y-53.34
X147.32Y-81.915
X150.876Y-81.915
X151.638Y-105.41
X152.146Y-72.077
X152.908Y-106.045
X153.416Y-97.536
X154.178Y-106.68
X154.686Y-103.
X155.448Y-107.315
X155.956Y-86.106
X156.718Y-107.965
X157.988Y-108.615
X159.385Y-72.077
X159.385Y-82.776
X159.766Y-136.906
X164.084Y-86.076
X164.084Y-128.359
X164.973Y-83.693
X164.973Y-97.536
X169.291Y-77.216
X169.545Y-84.455
X169.545Y-103.
X170.942Y-102.362
X170.942Y-110.236
X171.35Y-141.117
X174.75Y-32.25
X175.15Y-77.15
X175.15Y-81.18
X175.26Y-75.946
X176.276Y-62.75
X176.276Y-84.836
X177.75Y-41.75
X177.75Y-78.75
X178.5Y-41.75
X178.5Y-78.
X178.816Y-102.362
X178.816Y-110.58
X179.324Y-83.439
X179.324Y-84.709
X179.5Y-64.
X179.5Y-73.25
X180.213Y-84.709
X180.213Y-111.125
X180.25Y-65.25
X180.25Y-73.25
X181.Y-66.5
X181.Y-73.25
X181.102Y-84.709
X181.102Y-111.76
X181.75Y-67.75
X181.75Y-73.25
X183.83Y-83.378
X184.277Y-75.565
X184.404Y-40.
X184.404Y-61.5
X184.785Y-100.584
X185.Y-27.75
X185.293Y-101.854
X189.484Y-48.25
X189.484Y-79.502
X190.246Y-47.25
X190.246Y-78.74
X191.008Y-46.25
X191.008Y-77.978
X191.008Y-105.38
X191.008Y-136.144
X195.834Y-105.41
X197.104Y-106.03
X198.12Y-136.144
X198.374Y-106.68
X199.644Y-107.33
X200.914Y-107.98
X202.184Y-108.63
X203.454Y-109.28
X208.908Y-97.536
X217.17Y-110.236
X217.17Y-141.224
X227.494Y-113.8
X245.734Y-110.807
X260.665Y-93.287
X279.947Y-90.805
X299.228Y-90.17
X318.336Y-89.408
T2
X178.25Y-88.65
X179.75Y-88.65
T3
X150.876Y-89.916
X151.638Y-111.506
X152.146Y-89.916
X152.908Y-111.506
X153.416Y-89.916
X154.178Y-111.506
X154.686Y-89.916
X155.448Y-111.506
X155.956Y-89.916
X156.718Y-111.506
X157.988Y-111.506
X186.69Y-61.468
X186.69Y-62.738
X186.69Y-64.008
X186.69Y-65.278
X186.69Y-66.548
X186.69Y-67.818
X186.69Y-69.088
X187.706Y-99.314
X187.706Y-100.584
X187.706Y-101.854
X187.706Y-103.124
X187.75Y-27.75
X187.75Y-29.02
X187.75Y-30.29
X187.75Y-31.56
X195.834Y-111.506
X197.104Y-111.506
X198.374Y-111.506
X199.644Y-111.506
X200.914Y-111.506
X202.184Y-111.506
X203.454Y-111.506
T4
X177.376Y-32.228
X178.176Y-31.028
X178.976Y-32.228
X179.776Y-31.028
X180.576Y-32.228
T5
X166.96Y-36.75
X168.23Y-36.75
X169.5Y-36.75
X170.77Y-36.75
T6
X27.218Y-115.187
X30.526Y-96.427
X33.834Y-77.666
X33.912Y-113.789
X37.142Y-58.906
X37.22Y-95.028
X40.45Y-40.145
X40.528Y-76.267
X43.836Y-57.507
X46.325Y-116.526
X47.144Y-38.746
X49.633Y-97.765
X52.941Y-79.005
X53.02Y-115.127
X56.249Y-60.244
X56.328Y-96.366
X59.557Y-41.483
X59.636Y-77.606
X62.944Y-58.845
X65.607Y-116.879
X66.252Y-40.085
X68.915Y-98.119
X72.223Y-79.358
X72.302Y-115.481
X75.531Y-60.598
X75.61Y-96.72
X78.839Y-41.837
X78.918Y-77.959
X82.226Y-59.199
X84.888Y-117.233
X85.534Y-40.438
X88.196Y-98.472
X91.504Y-79.712
X91.583Y-115.834
X94.812Y-60.951
X94.891Y-97.074
X98.12Y-42.191
X98.199Y-78.313
X101.507Y-59.552
X103.128Y-123.495
X104.815Y-40.792
X106.436Y-104.735
X109.744Y-85.974
X109.823Y-122.097
X113.052Y-67.214
X113.131Y-103.336
X116.36Y-48.453
X116.439Y-84.575
X119.747Y-65.815
X121.368Y-129.758
X123.055Y-47.054
X124.676Y-110.997
X127.984Y-92.237
X128.062Y-128.359
X131.292Y-73.476
X131.37Y-109.598
X134.6Y-54.715
X134.678Y-90.838
X137.986Y-72.077
X141.294Y-53.317
X146.811Y-131.736
X148.21Y-138.43
X157.847Y-134.971
X159.245Y-141.666
X197.431Y-134.162
X201.035Y-139.974
X208.908Y-133.428
X212.512Y-139.24
X215.896Y-56.039
X219.204Y-74.799
X221.708Y-52.434
X222.512Y-93.56
X225.016Y-71.195
X225.82Y-112.32
X228.324Y-89.956
X229.128Y-131.081
X231.632Y-108.716
X234.136Y-49.776
X234.94Y-127.477
X237.444Y-68.537
X239.948Y-46.172
X240.752Y-87.297
X243.256Y-64.933
X244.06Y-106.058
X246.564Y-83.693
X247.368Y-124.818
X249.872Y-102.454
X252.375Y-43.514
X253.18Y-121.214
X255.683Y-62.274
X258.188Y-39.91
X258.991Y-81.035
X261.496Y-58.67
X262.299Y-99.795
X264.804Y-77.431
X265.607Y-118.556
X268.112Y-96.191
X271.42Y-114.952
X271.657Y-43.16
X274.965Y-61.921
X277.469Y-39.556
X278.273Y-80.681
X280.777Y-58.317
X281.581Y-99.442
X284.085Y-77.077
X284.889Y-118.202
X287.393Y-95.838
X290.701Y-114.598
X290.938Y-42.807
X294.246Y-61.567
X296.751Y-39.202
X297.554Y-80.328
X300.059Y-57.963
X300.862Y-99.088
X303.367Y-76.724
X304.17Y-117.849
X306.675Y-95.484
X309.983Y-114.245
X310.046Y-41.468
X313.354Y-60.229
X315.859Y-37.864
X316.662Y-78.989
X319.167Y-56.625
X319.97Y-97.75
X322.475Y-75.385
X323.278Y-116.511
X325.783Y-94.146
X329.091Y-112.906
T4
X175.326Y-26.578G85X175.326Y-27.778
G05
X182.626Y-26.578G85X182.626Y-27.778
G05
T0
M30
