M48
;DRILL file {KiCad (2017-07-28 revision 75cda5021)-master} date Sat Jul 29 18:23:26 2017
;FORMAT={-:-/ absolute / metric / decimal}
FMAT,2
METRIC,TZ
T1C1.702
T2C3.048
T3C3.200
T4C3.988
%
G90
G05
M71
T1
X57.866Y-43.764
X67.871Y-45.529
X312.545Y-62.951
X322.55Y-61.186
X225.01Y-115.042
X235.016Y-113.278
X44.634Y-118.807
X54.639Y-120.571
X315.853Y-81.711
X325.858Y-79.947
X284.079Y-120.924
X294.085Y-119.16
X215.086Y-58.761
X225.092Y-56.996
X293.437Y-64.289
X303.442Y-62.525
X296.745Y-83.05
X306.75Y-81.285
X251.566Y-46.236
X261.571Y-44.471
X104.744Y-107.016
X114.75Y-108.78
X142.766Y-140.05
X144.53Y-130.044
X38.758Y-42.426
X48.763Y-44.19
X47.942Y-100.046
X57.947Y-101.81
X67.223Y-100.4
X77.229Y-102.164
X322.469Y-119.232
X332.474Y-117.468
X213.47Y-130.044
X215.234Y-140.05
X54.558Y-62.525
X64.563Y-64.289
X101.436Y-125.776
X111.442Y-127.54
X35.45Y-61.186
X45.455Y-62.951
X218.394Y-77.521
X228.4Y-75.757
X70.531Y-81.639
X80.537Y-83.403
X83.197Y-119.514
X93.202Y-121.278
X114.668Y-50.734
X124.674Y-52.498
X300.053Y-101.81
X310.058Y-100.046
X236.634Y-71.259
X246.64Y-69.494
X258.182Y-83.757
X268.187Y-81.993
X303.361Y-120.571
X313.366Y-118.807
X246.558Y-127.54
X256.564Y-125.776
X319.161Y-100.472
X329.166Y-98.708
X270.847Y-45.882
X280.853Y-44.118
X239.942Y-90.019
X249.948Y-88.255
X233.326Y-52.498
X243.332Y-50.734
X280.771Y-102.164
X290.777Y-100.4
X264.798Y-121.278
X274.803Y-119.514
X261.49Y-102.517
X271.495Y-100.753
X254.874Y-64.996
X264.879Y-63.232
X290.129Y-45.529
X300.134Y-43.764
X89.813Y-81.993
X99.818Y-83.757
X243.25Y-108.78
X253.256Y-107.016
X25.526Y-117.468
X35.531Y-119.232
X274.155Y-64.643
X284.161Y-62.878
X111.36Y-69.494
X121.366Y-71.259
X309.237Y-44.19
X319.242Y-42.426
X96.429Y-44.471
X106.434Y-46.236
X194.709Y-133.352
X196.474Y-143.358
X277.463Y-83.403
X287.469Y-81.639
X122.984Y-113.278
X132.99Y-115.042
X77.147Y-44.118
X87.153Y-45.882
X161.526Y-143.358
X163.291Y-133.352
X51.25Y-81.285
X61.255Y-83.05
X28.834Y-98.708
X38.839Y-100.472
X129.6Y-75.757
X139.606Y-77.521
X73.839Y-62.878
X83.845Y-64.643
X132.908Y-56.996
X142.914Y-58.761
X108.052Y-88.255
X118.058Y-90.019
X86.505Y-100.753
X96.51Y-102.517
X228.318Y-133.803
X238.324Y-132.039
X126.292Y-94.517
X136.298Y-96.282
X93.121Y-63.232
X103.126Y-64.996
X119.676Y-132.039
X129.682Y-133.803
X221.702Y-96.282
X231.708Y-94.517
X63.915Y-119.16
X73.921Y-120.924
X32.142Y-79.947
X42.147Y-81.711
T2
X200.397Y-125.385
X204.544Y-148.899
X153.456Y-148.899
X157.603Y-125.385
X148.454Y-148.017
X152.6Y-124.503
X205.4Y-124.503
X209.546Y-148.017
T3
X24.192Y-129.463
X333.808Y-129.463
X126.034Y-37.274
X179.Y-154.927
X231.966Y-37.274
T4
X327.471Y-118.35
X214.352Y-135.047
X220.409Y-121.857
X224.555Y-145.37
X59.56Y-63.407
X106.439Y-126.658
X40.453Y-62.069
X223.397Y-76.639
X75.534Y-82.521
X88.2Y-120.396
X119.671Y-51.616
X305.056Y-100.928
X241.637Y-70.377
X263.184Y-82.875
X308.364Y-119.689
X251.561Y-126.658
X324.163Y-99.59
X275.85Y-45.
X244.945Y-89.137
X238.329Y-51.616
X285.774Y-101.282
X269.8Y-120.396
X266.492Y-101.635
X259.876Y-64.114
X295.132Y-44.646
X94.816Y-82.875
X248.253Y-107.898
X30.529Y-118.35
X279.158Y-63.761
X116.363Y-70.377
X314.239Y-43.308
X101.432Y-45.354
X185.389Y-128.032
X189.535Y-151.545
X195.592Y-138.355
X282.466Y-82.521
X127.987Y-114.16
X82.15Y-45.
X162.408Y-138.355
X168.465Y-151.545
X172.611Y-128.032
X56.252Y-82.168
X33.837Y-99.59
X134.603Y-76.639
X78.842Y-63.761
X137.911Y-57.878
X113.055Y-89.137
X91.508Y-101.635
X233.321Y-132.921
X131.295Y-95.4
X98.124Y-64.114
X124.679Y-132.921
X226.705Y-95.4
X68.918Y-120.042
X37.145Y-80.829
X62.868Y-44.646
X317.547Y-62.069
X230.013Y-114.16
X49.636Y-119.689
X320.855Y-80.829
X289.082Y-120.042
X220.089Y-57.878
X298.44Y-63.407
X301.748Y-82.168
X256.568Y-45.354
X109.747Y-107.898
X133.445Y-145.37
X137.591Y-121.857
X143.648Y-135.047
X43.761Y-43.308
X52.944Y-100.928
X72.226Y-101.282
T0
M30
