M48
;DRILL file {KiCad 4.0.7} date Sat Nov 25 15:50:54 2017
;FORMAT={-:-/ absolute / metric / decimal}
FMAT,2
METRIC,TZ
T1C0.400
T2C0.500
T3C0.700
T4C0.900
T5C1.000
T6C1.499
%
G90
G05
M71
T1
X40.048Y-47.688
X55.817Y-66.675
X71.791Y-88.011
X87.764Y-108.077
X106.004Y-117.094
X124.244Y-117.856
X145.415Y-97.79
X145.415Y-106.68
X146.05Y-83.058
X146.05Y-106.045
X146.685Y-61.595
X146.685Y-105.41
X147.32Y-53.34
X147.32Y-81.915
X159.385Y-72.077
X159.385Y-82.776
X160.782Y-135.89
X164.973Y-83.693
X164.973Y-97.536
X166.878Y-104.648
X166.878Y-110.236
X169.291Y-77.216
X169.4Y-139.8
X169.545Y-84.455
X169.545Y-103.
X170.942Y-102.362
X172.212Y-32.258
X175.15Y-77.16
X175.15Y-81.18
X175.26Y-75.946
X176.276Y-84.836
X176.53Y-37.338
X176.784Y-78.74
X177.8Y-69.85
X177.8Y-73.406
X178.562Y-68.072
X178.562Y-73.406
X179.07Y-37.338
X179.07Y-77.978
X179.324Y-83.439
X179.324Y-84.709
X179.578Y-66.294
X179.578Y-73.406
X180.213Y-84.709
X180.213Y-111.125
X180.34Y-66.294
X180.34Y-73.406
X181.102Y-68.072
X181.102Y-73.406
X181.102Y-84.709
X181.102Y-111.76
X181.864Y-69.85
X181.864Y-73.406
X182.626Y-87.884
X182.88Y-93.472
X183.388Y-87.376
X183.388Y-91.44
X183.83Y-83.378
X184.277Y-75.565
X184.404Y-38.862
X190.5Y-46.99
X190.5Y-79.502
X191.008Y-82.804
X191.77Y-105.156
X191.77Y-136.036
X192.786Y-45.974
X192.786Y-78.74
X193.802Y-82.296
X195.072Y-44.45
X195.072Y-81.026
X199.136Y-136.144
X208.908Y-97.536
X217.17Y-110.236
X217.17Y-141.224
X227.494Y-113.8
X245.734Y-110.807
X260.665Y-93.287
X279.947Y-90.805
X299.228Y-90.17
X318.336Y-89.408
T2
X178.25Y-88.65
X179.75Y-88.65
T3
X177.47Y-31.72
X178.27Y-30.52
X179.07Y-31.72
X179.87Y-30.52
X180.67Y-31.72
T4
X166.878Y-35.814
X168.148Y-35.814
X169.418Y-35.814
X170.688Y-35.814
T5
X170.942Y-68.072
X171.196Y-74.422
X173.228Y-89.662
X173.482Y-66.294
X173.482Y-69.85
X185.928Y-66.294
X185.928Y-69.85
X187.96Y-89.662
X187.96Y-93.472
X188.468Y-68.072
X191.008Y-89.662
X191.008Y-93.472
X193.802Y-89.662
T6
X27.218Y-115.187
X30.526Y-96.427
X33.834Y-77.666
X33.912Y-113.789
X37.142Y-58.906
X37.22Y-95.028
X40.45Y-40.145
X40.528Y-76.267
X43.836Y-57.507
X46.325Y-116.526
X47.144Y-38.746
X49.633Y-97.765
X52.941Y-79.005
X53.02Y-115.127
X56.249Y-60.244
X56.328Y-96.366
X59.557Y-41.483
X59.636Y-77.606
X62.944Y-58.845
X65.607Y-116.879
X66.252Y-40.085
X68.915Y-98.119
X72.223Y-79.358
X72.302Y-115.481
X75.531Y-60.598
X75.61Y-96.72
X78.839Y-41.837
X78.918Y-77.959
X82.226Y-59.199
X84.888Y-117.233
X85.534Y-40.438
X88.196Y-98.472
X91.504Y-79.712
X91.583Y-115.834
X94.812Y-60.951
X94.891Y-97.074
X98.12Y-42.191
X98.199Y-78.313
X101.507Y-59.552
X103.128Y-123.495
X104.815Y-40.792
X106.436Y-104.735
X109.744Y-85.974
X109.823Y-122.097
X113.052Y-67.214
X113.131Y-103.336
X116.36Y-48.453
X116.439Y-84.575
X119.747Y-65.815
X121.368Y-129.758
X123.055Y-47.054
X124.676Y-110.997
X127.984Y-92.237
X128.062Y-128.359
X131.292Y-73.476
X131.37Y-109.598
X134.6Y-54.715
X134.678Y-90.838
X137.986Y-72.077
X141.294Y-53.317
X146.811Y-131.736
X148.21Y-138.43
X157.847Y-134.971
X159.245Y-141.666
X197.431Y-134.162
X201.035Y-139.974
X208.908Y-133.428
X212.512Y-139.24
X215.896Y-56.039
X219.204Y-74.799
X221.708Y-52.434
X222.512Y-93.56
X225.016Y-71.195
X225.82Y-112.32
X228.324Y-89.956
X229.128Y-131.081
X231.632Y-108.716
X234.136Y-49.776
X234.94Y-127.477
X237.444Y-68.537
X239.948Y-46.172
X240.752Y-87.297
X243.256Y-64.933
X244.06Y-106.058
X246.564Y-83.693
X247.368Y-124.818
X249.872Y-102.454
X252.375Y-43.514
X253.18Y-121.214
X255.683Y-62.274
X258.188Y-39.91
X258.991Y-81.035
X261.496Y-58.67
X262.299Y-99.795
X264.804Y-77.431
X265.607Y-118.556
X268.112Y-96.191
X271.42Y-114.952
X271.657Y-43.16
X274.965Y-61.921
X277.469Y-39.556
X278.273Y-80.681
X280.777Y-58.317
X281.581Y-99.442
X284.085Y-77.077
X284.889Y-118.202
X287.393Y-95.838
X290.701Y-114.598
X290.938Y-42.807
X294.246Y-61.567
X296.751Y-39.202
X297.554Y-80.328
X300.059Y-57.963
X300.862Y-99.088
X303.367Y-76.724
X304.17Y-117.849
X306.675Y-95.484
X309.983Y-114.245
X310.046Y-41.468
X313.354Y-60.229
X315.859Y-37.864
X316.662Y-78.989
X319.167Y-56.625
X319.97Y-97.75
X322.475Y-75.385
X323.278Y-116.511
X325.783Y-94.146
X329.091Y-112.906
T3
X175.42Y-26.07G85X175.42Y-27.27
G05
X182.72Y-26.07G85X182.72Y-27.27
G05
T0
M30
