G04 #@! TF.FileFunction,Legend,Top*
%FSLAX46Y46*%
G04 Gerber Fmt 4.6, Leading zero omitted, Abs format (unit mm)*
G04 Created by KiCad (PCBNEW 4.0.7) date Sat Nov 25 15:50:47 2017*
%MOMM*%
%LPD*%
G01*
G04 APERTURE LIST*
%ADD10C,0.100000*%
%ADD11C,0.120000*%
%ADD12C,0.150000*%
%ADD13C,0.381000*%
%ADD14C,0.203200*%
G04 APERTURE END LIST*
D10*
D11*
X178250610Y-87949348D02*
G75*
G02X179750000Y-87950000I749390J-700652D01*
G01*
X178250610Y-89350652D02*
G75*
G03X179750000Y-89350000I749390J700652D01*
G01*
X188776000Y-73676000D02*
X188776000Y-75676000D01*
X186636000Y-75676000D02*
X186636000Y-73676000D01*
D12*
X174289000Y-75776000D02*
X173014000Y-75776000D01*
X184639000Y-75201000D02*
X183964000Y-75201000D01*
X184639000Y-85551000D02*
X183964000Y-85551000D01*
X174289000Y-85551000D02*
X174964000Y-85551000D01*
X174289000Y-75201000D02*
X174964000Y-75201000D01*
X174289000Y-85551000D02*
X174289000Y-84876000D01*
X184639000Y-85551000D02*
X184639000Y-84876000D01*
X184639000Y-75201000D02*
X184639000Y-75876000D01*
X174289000Y-75201000D02*
X174289000Y-75776000D01*
D13*
X212732978Y-52727506D02*
X214483966Y-52418759D01*
X223489048Y-50830920D02*
X225240036Y-50522174D01*
X225240036Y-50522174D02*
X225548783Y-52273162D01*
X227136622Y-61278244D02*
X227445368Y-63029232D01*
X227445368Y-63029232D02*
X225694380Y-63337979D01*
X216689298Y-64925818D02*
X214938310Y-65234564D01*
X214938310Y-65234564D02*
X214629563Y-63483576D01*
X213041724Y-54478494D02*
X212732978Y-52727506D01*
X38609724Y-35951802D02*
X40360712Y-36260548D01*
X49365794Y-37848387D02*
X51116782Y-38157134D01*
X51116782Y-38157134D02*
X50808036Y-39908122D01*
X49220197Y-48913204D02*
X48911450Y-50664192D01*
X48911450Y-50664192D02*
X47160462Y-50355446D01*
X38155380Y-48767607D02*
X36404392Y-48458860D01*
X36404392Y-48458860D02*
X36713138Y-46707872D01*
X38300977Y-37702790D02*
X38609724Y-35951802D01*
X126143962Y-88043350D02*
X127894950Y-88352096D01*
X136900032Y-89939935D02*
X138651020Y-90248682D01*
X138651020Y-90248682D02*
X138342274Y-91999670D01*
X136754435Y-101004752D02*
X136445688Y-102755740D01*
X136445688Y-102755740D02*
X134694700Y-102446994D01*
X125689618Y-100859155D02*
X123938630Y-100550408D01*
X123938630Y-100550408D02*
X124247376Y-98799420D01*
X125835215Y-89794338D02*
X126143962Y-88043350D01*
X129451960Y-69282762D02*
X131202948Y-69591508D01*
X140208030Y-71179347D02*
X141959018Y-71488094D01*
X141959018Y-71488094D02*
X141650272Y-73239082D01*
X140062433Y-82244164D02*
X139753686Y-83995152D01*
X139753686Y-83995152D02*
X138002698Y-83686406D01*
X128997616Y-82098567D02*
X127246628Y-81789820D01*
X127246628Y-81789820D02*
X127555374Y-80038832D01*
X129143213Y-71033750D02*
X129451960Y-69282762D01*
X202947805Y-143505808D02*
X201196817Y-143814555D01*
X192191735Y-145402394D02*
X190440747Y-145711140D01*
X190440747Y-145711140D02*
X190132000Y-143960152D01*
X188544161Y-134955070D02*
X188235415Y-133204082D01*
X188235415Y-133204082D02*
X189986403Y-132895335D01*
X198991485Y-131307496D02*
X200742473Y-130998750D01*
X200742473Y-130998750D02*
X201051220Y-132749738D01*
X202639059Y-141754820D02*
X202947805Y-143505808D01*
X206996003Y-129896085D02*
X208746991Y-129587338D01*
X217752073Y-127999499D02*
X219503061Y-127690753D01*
X219503061Y-127690753D02*
X219811808Y-129441741D01*
X221399647Y-138446823D02*
X221708393Y-140197811D01*
X221708393Y-140197811D02*
X219957405Y-140506558D01*
X210952323Y-142094397D02*
X209201335Y-142403143D01*
X209201335Y-142403143D02*
X208892588Y-140652155D01*
X207304749Y-131647073D02*
X206996003Y-129896085D01*
D11*
X177520000Y-94000000D02*
X177520000Y-92000000D01*
X175480000Y-92000000D02*
X175480000Y-94000000D01*
X170418000Y-79371000D02*
X168418000Y-79371000D01*
X168418000Y-81411000D02*
X170418000Y-81411000D01*
X170418000Y-76196000D02*
X168418000Y-76196000D01*
X168418000Y-78236000D02*
X170418000Y-78236000D01*
X178070000Y-103382000D02*
X180070000Y-103382000D01*
X180070000Y-101342000D02*
X178070000Y-101342000D01*
X169980000Y-41386000D02*
X169980000Y-43386000D01*
X167840000Y-43386000D02*
X167840000Y-41386000D01*
X169974000Y-109293000D02*
X171974000Y-109293000D01*
X171974000Y-111433000D02*
X169974000Y-111433000D01*
X169974000Y-111579000D02*
X171974000Y-111579000D01*
X171974000Y-113719000D02*
X169974000Y-113719000D01*
X175460000Y-37830000D02*
X175460000Y-35830000D01*
X177600000Y-35830000D02*
X177600000Y-37830000D01*
X178000000Y-37862000D02*
X178000000Y-35862000D01*
X180140000Y-35862000D02*
X180140000Y-37862000D01*
X165392000Y-26274000D02*
X165392000Y-25824000D01*
X172092000Y-25824000D02*
X172092000Y-26274000D01*
X165392000Y-25824000D02*
X172092000Y-25824000D01*
X172092000Y-27574000D02*
X172092000Y-30274000D01*
X165392000Y-30274000D02*
X165392000Y-27574000D01*
X172092000Y-32024000D02*
X172092000Y-31624000D01*
X165392000Y-32024000D02*
X172092000Y-32024000D01*
X165392000Y-31574000D02*
X165392000Y-32024000D01*
D13*
X35301726Y-54712390D02*
X37052714Y-55021136D01*
X46057796Y-56608975D02*
X47808784Y-56917722D01*
X47808784Y-56917722D02*
X47500038Y-58668710D01*
X45912199Y-67673792D02*
X45603452Y-69424780D01*
X45603452Y-69424780D02*
X43852464Y-69116034D01*
X34847382Y-67528195D02*
X33096394Y-67219448D01*
X33096394Y-67219448D02*
X33405140Y-65468460D01*
X34992979Y-56463378D02*
X35301726Y-54712390D01*
X31993728Y-73472978D02*
X33744716Y-73781724D01*
X42749798Y-75369563D02*
X44500786Y-75678310D01*
X44500786Y-75678310D02*
X44192040Y-77429298D01*
X42604201Y-86434380D02*
X42295454Y-88185368D01*
X42295454Y-88185368D02*
X40544466Y-87876622D01*
X31539384Y-86288783D02*
X29788396Y-85980036D01*
X29788396Y-85980036D02*
X30097142Y-84229048D01*
X31684981Y-75223966D02*
X31993728Y-73472978D01*
X28685730Y-92233566D02*
X30436718Y-92542312D01*
X39441800Y-94130151D02*
X41192788Y-94438898D01*
X41192788Y-94438898D02*
X40884042Y-96189886D01*
X39296203Y-105194968D02*
X38987456Y-106945956D01*
X38987456Y-106945956D02*
X37236468Y-106637210D01*
X28231386Y-105049371D02*
X26480398Y-104740624D01*
X26480398Y-104740624D02*
X26789144Y-102989636D01*
X28376983Y-93984554D02*
X28685730Y-92233566D01*
X25377732Y-110994154D02*
X27128720Y-111302900D01*
X36133802Y-112890739D02*
X37884790Y-113199486D01*
X37884790Y-113199486D02*
X37576044Y-114950474D01*
X35988205Y-123955556D02*
X35679458Y-125706544D01*
X35679458Y-125706544D02*
X33928470Y-125397798D01*
X24923388Y-123809959D02*
X23172400Y-123501212D01*
X23172400Y-123501212D02*
X23481146Y-121750224D01*
X25068985Y-112745142D02*
X25377732Y-110994154D01*
X57717608Y-37290184D02*
X59468596Y-37598930D01*
X68473678Y-39186769D02*
X70224666Y-39495516D01*
X70224666Y-39495516D02*
X69915920Y-41246504D01*
X68328081Y-50251586D02*
X68019334Y-52002574D01*
X68019334Y-52002574D02*
X66268346Y-51693828D01*
X57263264Y-50105989D02*
X55512276Y-49797242D01*
X55512276Y-49797242D02*
X55821022Y-48046254D01*
X57408861Y-39041172D02*
X57717608Y-37290184D01*
X54409610Y-56050772D02*
X56160598Y-56359518D01*
X65165680Y-57947357D02*
X66916668Y-58256104D01*
X66916668Y-58256104D02*
X66607922Y-60007092D01*
X65020083Y-69012174D02*
X64711336Y-70763162D01*
X64711336Y-70763162D02*
X62960348Y-70454416D01*
X53955266Y-68866577D02*
X52204278Y-68557830D01*
X52204278Y-68557830D02*
X52513024Y-66806842D01*
X54100863Y-57801760D02*
X54409610Y-56050772D01*
X51101612Y-74811360D02*
X52852600Y-75120106D01*
X61857682Y-76707945D02*
X63608670Y-77016692D01*
X63608670Y-77016692D02*
X63299924Y-78767680D01*
X61712085Y-87772762D02*
X61403338Y-89523750D01*
X61403338Y-89523750D02*
X59652350Y-89215004D01*
X50647268Y-87627165D02*
X48896280Y-87318418D01*
X48896280Y-87318418D02*
X49205026Y-85567430D01*
X50792865Y-76562348D02*
X51101612Y-74811360D01*
X47793614Y-93571948D02*
X49544602Y-93880694D01*
X58549684Y-95468533D02*
X60300672Y-95777280D01*
X60300672Y-95777280D02*
X59991926Y-97528268D01*
X58404087Y-106533350D02*
X58095340Y-108284338D01*
X58095340Y-108284338D02*
X56344352Y-107975592D01*
X47339270Y-106387753D02*
X45588282Y-106079006D01*
X45588282Y-106079006D02*
X45897028Y-104328018D01*
X47484867Y-95322936D02*
X47793614Y-93571948D01*
X44485616Y-112332536D02*
X46236604Y-112641282D01*
X55241686Y-114229121D02*
X56992674Y-114537868D01*
X56992674Y-114537868D02*
X56683928Y-116288856D01*
X55096089Y-125293938D02*
X54787342Y-127044926D01*
X54787342Y-127044926D02*
X53036354Y-126736180D01*
X44031272Y-125148341D02*
X42280284Y-124839594D01*
X42280284Y-124839594D02*
X42589030Y-123088606D01*
X44176869Y-114083524D02*
X44485616Y-112332536D01*
X76999140Y-37643758D02*
X78750128Y-37952504D01*
X87755210Y-39540343D02*
X89506198Y-39849090D01*
X89506198Y-39849090D02*
X89197452Y-41600078D01*
X87609613Y-50605160D02*
X87300866Y-52356148D01*
X87300866Y-52356148D02*
X85549878Y-52047402D01*
X76544796Y-50459563D02*
X74793808Y-50150816D01*
X74793808Y-50150816D02*
X75102554Y-48399828D01*
X76690393Y-39394746D02*
X76999140Y-37643758D01*
X73691142Y-56404346D02*
X75442130Y-56713092D01*
X84447212Y-58300931D02*
X86198200Y-58609678D01*
X86198200Y-58609678D02*
X85889454Y-60360666D01*
X84301615Y-69365748D02*
X83992868Y-71116736D01*
X83992868Y-71116736D02*
X82241880Y-70807990D01*
X73236798Y-69220151D02*
X71485810Y-68911404D01*
X71485810Y-68911404D02*
X71794556Y-67160416D01*
X73382395Y-58155334D02*
X73691142Y-56404346D01*
X70383144Y-75164934D02*
X72134132Y-75473680D01*
X81139214Y-77061519D02*
X82890202Y-77370266D01*
X82890202Y-77370266D02*
X82581456Y-79121254D01*
X80993617Y-88126336D02*
X80684870Y-89877324D01*
X80684870Y-89877324D02*
X78933882Y-89568578D01*
X69928800Y-87980739D02*
X68177812Y-87671992D01*
X68177812Y-87671992D02*
X68486558Y-85921004D01*
X70074397Y-76915922D02*
X70383144Y-75164934D01*
X67075146Y-93925522D02*
X68826134Y-94234268D01*
X77831216Y-95822107D02*
X79582204Y-96130854D01*
X79582204Y-96130854D02*
X79273458Y-97881842D01*
X77685619Y-106886924D02*
X77376872Y-108637912D01*
X77376872Y-108637912D02*
X75625884Y-108329166D01*
X66620802Y-106741327D02*
X64869814Y-106432580D01*
X64869814Y-106432580D02*
X65178560Y-104681592D01*
X66766399Y-95676510D02*
X67075146Y-93925522D01*
X63767148Y-112686110D02*
X65518136Y-112994856D01*
X74523218Y-114582695D02*
X76274206Y-114891442D01*
X76274206Y-114891442D02*
X75965460Y-116642430D01*
X74377621Y-125647512D02*
X74068874Y-127398500D01*
X74068874Y-127398500D02*
X72317886Y-127089754D01*
X63312804Y-125501915D02*
X61561816Y-125193168D01*
X61561816Y-125193168D02*
X61870562Y-123442180D01*
X63458401Y-114437098D02*
X63767148Y-112686110D01*
X96280672Y-37997332D02*
X98031660Y-38306078D01*
X107036742Y-39893917D02*
X108787730Y-40202664D01*
X108787730Y-40202664D02*
X108478984Y-41953652D01*
X106891145Y-50958734D02*
X106582398Y-52709722D01*
X106582398Y-52709722D02*
X104831410Y-52400976D01*
X95826328Y-50813137D02*
X94075340Y-50504390D01*
X94075340Y-50504390D02*
X94384086Y-48753402D01*
X95971925Y-39748320D02*
X96280672Y-37997332D01*
X92972674Y-56757920D02*
X94723662Y-57066666D01*
X103728744Y-58654505D02*
X105479732Y-58963252D01*
X105479732Y-58963252D02*
X105170986Y-60714240D01*
X103583147Y-69719322D02*
X103274400Y-71470310D01*
X103274400Y-71470310D02*
X101523412Y-71161564D01*
X92518330Y-69573725D02*
X90767342Y-69264978D01*
X90767342Y-69264978D02*
X91076088Y-67513990D01*
X92663927Y-58508908D02*
X92972674Y-56757920D01*
X89664676Y-75518508D02*
X91415664Y-75827254D01*
X100420746Y-77415093D02*
X102171734Y-77723840D01*
X102171734Y-77723840D02*
X101862988Y-79474828D01*
X100275149Y-88479910D02*
X99966402Y-90230898D01*
X99966402Y-90230898D02*
X98215414Y-89922152D01*
X89210332Y-88334313D02*
X87459344Y-88025566D01*
X87459344Y-88025566D02*
X87768090Y-86274578D01*
X89355929Y-77269496D02*
X89664676Y-75518508D01*
X86356678Y-94279096D02*
X88107666Y-94587842D01*
X97112748Y-96175681D02*
X98863736Y-96484428D01*
X98863736Y-96484428D02*
X98554990Y-98235416D01*
X96967151Y-107240498D02*
X96658404Y-108991486D01*
X96658404Y-108991486D02*
X94907416Y-108682740D01*
X85902334Y-107094901D02*
X84151346Y-106786154D01*
X84151346Y-106786154D02*
X84460092Y-105035166D01*
X86047931Y-96030084D02*
X86356678Y-94279096D01*
X83048680Y-113039684D02*
X84799668Y-113348430D01*
X93804750Y-114936269D02*
X95555738Y-115245016D01*
X95555738Y-115245016D02*
X95246992Y-116996004D01*
X93659153Y-126001086D02*
X93350406Y-127752074D01*
X93350406Y-127752074D02*
X91599418Y-127443328D01*
X82594336Y-125855489D02*
X80843348Y-125546742D01*
X80843348Y-125546742D02*
X81152094Y-123795754D01*
X82739933Y-114790672D02*
X83048680Y-113039684D01*
X114520315Y-44259753D02*
X116271303Y-44568499D01*
X125276385Y-46156338D02*
X127027373Y-46465085D01*
X127027373Y-46465085D02*
X126718627Y-48216073D01*
X125130788Y-57221155D02*
X124822041Y-58972143D01*
X124822041Y-58972143D02*
X123071053Y-58663397D01*
X114065971Y-57075558D02*
X112314983Y-56766811D01*
X112314983Y-56766811D02*
X112623729Y-55015823D01*
X114211568Y-46010741D02*
X114520315Y-44259753D01*
X111212317Y-63020341D02*
X112963305Y-63329087D01*
X121968387Y-64916926D02*
X123719375Y-65225673D01*
X123719375Y-65225673D02*
X123410629Y-66976661D01*
X121822790Y-75981743D02*
X121514043Y-77732731D01*
X121514043Y-77732731D02*
X119763055Y-77423985D01*
X110757973Y-75836146D02*
X109006985Y-75527399D01*
X109006985Y-75527399D02*
X109315731Y-73776411D01*
X110903570Y-64771329D02*
X111212317Y-63020341D01*
X107904319Y-81780929D02*
X109655307Y-82089675D01*
X118660389Y-83677514D02*
X120411377Y-83986261D01*
X120411377Y-83986261D02*
X120102631Y-85737249D01*
X118514792Y-94742331D02*
X118206045Y-96493319D01*
X118206045Y-96493319D02*
X116455057Y-96184573D01*
X107449975Y-94596734D02*
X105698987Y-94287987D01*
X105698987Y-94287987D02*
X106007733Y-92536999D01*
X107595572Y-83531917D02*
X107904319Y-81780929D01*
X104596321Y-100541517D02*
X106347309Y-100850263D01*
X115352391Y-102438102D02*
X117103379Y-102746849D01*
X117103379Y-102746849D02*
X116794633Y-104497837D01*
X115206794Y-113502919D02*
X114898047Y-115253907D01*
X114898047Y-115253907D02*
X113147059Y-114945161D01*
X104141977Y-113357322D02*
X102390989Y-113048575D01*
X102390989Y-113048575D02*
X102699735Y-111297587D01*
X104287574Y-102292505D02*
X104596321Y-100541517D01*
X101288323Y-119302105D02*
X103039311Y-119610851D01*
X112044393Y-121198690D02*
X113795381Y-121507437D01*
X113795381Y-121507437D02*
X113486635Y-123258425D01*
X111898796Y-132263507D02*
X111590049Y-134014495D01*
X111590049Y-134014495D02*
X109839061Y-133705749D01*
X100833979Y-132117910D02*
X99082991Y-131809163D01*
X99082991Y-131809163D02*
X99391737Y-130058175D01*
X100979576Y-121053093D02*
X101288323Y-119302105D01*
X132759958Y-50522174D02*
X134510946Y-50830920D01*
X143516028Y-52418759D02*
X145267016Y-52727506D01*
X145267016Y-52727506D02*
X144958270Y-54478494D01*
X143370431Y-63483576D02*
X143061684Y-65234564D01*
X143061684Y-65234564D02*
X141310696Y-64925818D01*
X132305614Y-63337979D02*
X130554626Y-63029232D01*
X130554626Y-63029232D02*
X130863372Y-61278244D01*
X132451211Y-52273162D02*
X132759958Y-50522174D01*
X122835964Y-106803938D02*
X124586952Y-107112684D01*
X133592034Y-108700523D02*
X135343022Y-109009270D01*
X135343022Y-109009270D02*
X135034276Y-110760258D01*
X133446437Y-119765340D02*
X133137690Y-121516328D01*
X133137690Y-121516328D02*
X131386702Y-121207582D01*
X122381620Y-119619743D02*
X120630632Y-119310996D01*
X120630632Y-119310996D02*
X120939378Y-117560008D01*
X122527217Y-108554926D02*
X122835964Y-106803938D01*
X119527966Y-125564526D02*
X121278954Y-125873272D01*
X130284036Y-127461111D02*
X132035024Y-127769858D01*
X132035024Y-127769858D02*
X131726278Y-129520846D01*
X130138439Y-138525928D02*
X129829692Y-140276916D01*
X129829692Y-140276916D02*
X128078704Y-139968170D01*
X119073622Y-138380331D02*
X117322634Y-138071584D01*
X117322634Y-138071584D02*
X117631380Y-136320596D01*
X119219219Y-127315514D02*
X119527966Y-125564526D01*
X216040976Y-71488094D02*
X217791964Y-71179347D01*
X226797046Y-69591508D02*
X228548034Y-69282762D01*
X228548034Y-69282762D02*
X228856781Y-71033750D01*
X230444620Y-80038832D02*
X230753366Y-81789820D01*
X230753366Y-81789820D02*
X229002378Y-82098567D01*
X219997296Y-83686406D02*
X218246308Y-83995152D01*
X218246308Y-83995152D02*
X217937561Y-82244164D01*
X216349722Y-73239082D02*
X216040976Y-71488094D01*
X219348974Y-90248682D02*
X221099962Y-89939935D01*
X230105044Y-88352096D02*
X231856032Y-88043350D01*
X231856032Y-88043350D02*
X232164779Y-89794338D01*
X233752618Y-98799420D02*
X234061364Y-100550408D01*
X234061364Y-100550408D02*
X232310376Y-100859155D01*
X223305294Y-102446994D02*
X221554306Y-102755740D01*
X221554306Y-102755740D02*
X221245559Y-101004752D01*
X219657720Y-91999670D02*
X219348974Y-90248682D01*
X222656972Y-109009270D02*
X224407960Y-108700523D01*
X233413042Y-107112684D02*
X235164030Y-106803938D01*
X235164030Y-106803938D02*
X235472777Y-108554926D01*
X237060616Y-117560008D02*
X237369362Y-119310996D01*
X237369362Y-119310996D02*
X235618374Y-119619743D01*
X226613292Y-121207582D02*
X224862304Y-121516328D01*
X224862304Y-121516328D02*
X224553557Y-119765340D01*
X222965718Y-110760258D02*
X222656972Y-109009270D01*
X225964970Y-127769858D02*
X227715958Y-127461111D01*
X236721040Y-125873272D02*
X238472028Y-125564526D01*
X238472028Y-125564526D02*
X238780775Y-127315514D01*
X240368614Y-136320596D02*
X240677360Y-138071584D01*
X240677360Y-138071584D02*
X238926372Y-138380331D01*
X229921290Y-139968170D02*
X228170302Y-140276916D01*
X228170302Y-140276916D02*
X227861555Y-138525928D01*
X226273716Y-129520846D02*
X225964970Y-127769858D01*
X230972622Y-46465085D02*
X232723610Y-46156338D01*
X241728692Y-44568499D02*
X243479680Y-44259753D01*
X243479680Y-44259753D02*
X243788427Y-46010741D01*
X245376266Y-55015823D02*
X245685012Y-56766811D01*
X245685012Y-56766811D02*
X243934024Y-57075558D01*
X234928942Y-58663397D02*
X233177954Y-58972143D01*
X233177954Y-58972143D02*
X232869207Y-57221155D01*
X231281368Y-48216073D02*
X230972622Y-46465085D01*
X234280620Y-65225673D02*
X236031608Y-64916926D01*
X245036690Y-63329087D02*
X246787678Y-63020341D01*
X246787678Y-63020341D02*
X247096425Y-64771329D01*
X248684264Y-73776411D02*
X248993010Y-75527399D01*
X248993010Y-75527399D02*
X247242022Y-75836146D01*
X238236940Y-77423985D02*
X236485952Y-77732731D01*
X236485952Y-77732731D02*
X236177205Y-75981743D01*
X234589366Y-66976661D02*
X234280620Y-65225673D01*
X237588618Y-83986261D02*
X239339606Y-83677514D01*
X248344688Y-82089675D02*
X250095676Y-81780929D01*
X250095676Y-81780929D02*
X250404423Y-83531917D01*
X251992262Y-92536999D02*
X252301008Y-94287987D01*
X252301008Y-94287987D02*
X250550020Y-94596734D01*
X241544938Y-96184573D02*
X239793950Y-96493319D01*
X239793950Y-96493319D02*
X239485203Y-94742331D01*
X237897364Y-85737249D02*
X237588618Y-83986261D01*
X240896616Y-102746849D02*
X242647604Y-102438102D01*
X251652686Y-100850263D02*
X253403674Y-100541517D01*
X253403674Y-100541517D02*
X253712421Y-102292505D01*
X255300260Y-111297587D02*
X255609006Y-113048575D01*
X255609006Y-113048575D02*
X253858018Y-113357322D01*
X244852936Y-114945161D02*
X243101948Y-115253907D01*
X243101948Y-115253907D02*
X242793201Y-113502919D01*
X241205362Y-104497837D02*
X240896616Y-102746849D01*
X244204614Y-121507437D02*
X245955602Y-121198690D01*
X254960684Y-119610851D02*
X256711672Y-119302105D01*
X256711672Y-119302105D02*
X257020419Y-121053093D01*
X258608258Y-130058175D02*
X258917004Y-131809163D01*
X258917004Y-131809163D02*
X257166016Y-132117910D01*
X248160934Y-133705749D02*
X246409946Y-134014495D01*
X246409946Y-134014495D02*
X246101199Y-132263507D01*
X244513360Y-123258425D02*
X244204614Y-121507437D01*
X249212266Y-40202664D02*
X250963254Y-39893917D01*
X259968336Y-38306078D02*
X261719324Y-37997332D01*
X261719324Y-37997332D02*
X262028071Y-39748320D01*
X263615910Y-48753402D02*
X263924656Y-50504390D01*
X263924656Y-50504390D02*
X262173668Y-50813137D01*
X253168586Y-52400976D02*
X251417598Y-52709722D01*
X251417598Y-52709722D02*
X251108851Y-50958734D01*
X249521012Y-41953652D02*
X249212266Y-40202664D01*
X252520264Y-58963252D02*
X254271252Y-58654505D01*
X263276334Y-57066666D02*
X265027322Y-56757920D01*
X265027322Y-56757920D02*
X265336069Y-58508908D01*
X266923908Y-67513990D02*
X267232654Y-69264978D01*
X267232654Y-69264978D02*
X265481666Y-69573725D01*
X256476584Y-71161564D02*
X254725596Y-71470310D01*
X254725596Y-71470310D02*
X254416849Y-69719322D01*
X252829010Y-60714240D02*
X252520264Y-58963252D01*
X255828262Y-77723840D02*
X257579250Y-77415093D01*
X266584332Y-75827254D02*
X268335320Y-75518508D01*
X268335320Y-75518508D02*
X268644067Y-77269496D01*
X270231906Y-86274578D02*
X270540652Y-88025566D01*
X270540652Y-88025566D02*
X268789664Y-88334313D01*
X259784582Y-89922152D02*
X258033594Y-90230898D01*
X258033594Y-90230898D02*
X257724847Y-88479910D01*
X256137008Y-79474828D02*
X255828262Y-77723840D01*
X259136260Y-96484428D02*
X260887248Y-96175681D01*
X269892330Y-94587842D02*
X271643318Y-94279096D01*
X271643318Y-94279096D02*
X271952065Y-96030084D01*
X273539904Y-105035166D02*
X273848650Y-106786154D01*
X273848650Y-106786154D02*
X272097662Y-107094901D01*
X263092580Y-108682740D02*
X261341592Y-108991486D01*
X261341592Y-108991486D02*
X261032845Y-107240498D01*
X259445006Y-98235416D02*
X259136260Y-96484428D01*
X262444258Y-115245016D02*
X264195246Y-114936269D01*
X273200328Y-113348430D02*
X274951316Y-113039684D01*
X274951316Y-113039684D02*
X275260063Y-114790672D01*
X276847902Y-123795754D02*
X277156648Y-125546742D01*
X277156648Y-125546742D02*
X275405660Y-125855489D01*
X266400578Y-127443328D02*
X264649590Y-127752074D01*
X264649590Y-127752074D02*
X264340843Y-126001086D01*
X262753004Y-116996004D02*
X262444258Y-115245016D01*
X268493799Y-39849090D02*
X270244787Y-39540343D01*
X279249869Y-37952504D02*
X281000857Y-37643758D01*
X281000857Y-37643758D02*
X281309604Y-39394746D01*
X282897443Y-48399828D02*
X283206189Y-50150816D01*
X283206189Y-50150816D02*
X281455201Y-50459563D01*
X272450119Y-52047402D02*
X270699131Y-52356148D01*
X270699131Y-52356148D02*
X270390384Y-50605160D01*
X268802545Y-41600078D02*
X268493799Y-39849090D01*
X271801797Y-58609678D02*
X273552785Y-58300931D01*
X282557867Y-56713092D02*
X284308855Y-56404346D01*
X284308855Y-56404346D02*
X284617602Y-58155334D01*
X286205441Y-67160416D02*
X286514187Y-68911404D01*
X286514187Y-68911404D02*
X284763199Y-69220151D01*
X275758117Y-70807990D02*
X274007129Y-71116736D01*
X274007129Y-71116736D02*
X273698382Y-69365748D01*
X272110543Y-60360666D02*
X271801797Y-58609678D01*
X275109795Y-77370266D02*
X276860783Y-77061519D01*
X285865865Y-75473680D02*
X287616853Y-75164934D01*
X287616853Y-75164934D02*
X287925600Y-76915922D01*
X289513439Y-85921004D02*
X289822185Y-87671992D01*
X289822185Y-87671992D02*
X288071197Y-87980739D01*
X279066115Y-89568578D02*
X277315127Y-89877324D01*
X277315127Y-89877324D02*
X277006380Y-88126336D01*
X275418541Y-79121254D02*
X275109795Y-77370266D01*
X278417793Y-96130854D02*
X280168781Y-95822107D01*
X289173863Y-94234268D02*
X290924851Y-93925522D01*
X290924851Y-93925522D02*
X291233598Y-95676510D01*
X292821437Y-104681592D02*
X293130183Y-106432580D01*
X293130183Y-106432580D02*
X291379195Y-106741327D01*
X282374113Y-108329166D02*
X280623125Y-108637912D01*
X280623125Y-108637912D02*
X280314378Y-106886924D01*
X278726539Y-97881842D02*
X278417793Y-96130854D01*
X281725791Y-114891442D02*
X283476779Y-114582695D01*
X292481861Y-112994856D02*
X294232849Y-112686110D01*
X294232849Y-112686110D02*
X294541596Y-114437098D01*
X296129435Y-123442180D02*
X296438181Y-125193168D01*
X296438181Y-125193168D02*
X294687193Y-125501915D01*
X285682111Y-127089754D02*
X283931123Y-127398500D01*
X283931123Y-127398500D02*
X283622376Y-125647512D01*
X282034537Y-116642430D02*
X281725791Y-114891442D01*
X287775332Y-39495516D02*
X289526320Y-39186769D01*
X298531402Y-37598930D02*
X300282390Y-37290184D01*
X300282390Y-37290184D02*
X300591137Y-39041172D01*
X302178976Y-48046254D02*
X302487722Y-49797242D01*
X302487722Y-49797242D02*
X300736734Y-50105989D01*
X291731652Y-51693828D02*
X289980664Y-52002574D01*
X289980664Y-52002574D02*
X289671917Y-50251586D01*
X288084078Y-41246504D02*
X287775332Y-39495516D01*
X291083330Y-58256104D02*
X292834318Y-57947357D01*
X301839400Y-56359518D02*
X303590388Y-56050772D01*
X303590388Y-56050772D02*
X303899135Y-57801760D01*
X305486974Y-66806842D02*
X305795720Y-68557830D01*
X305795720Y-68557830D02*
X304044732Y-68866577D01*
X295039650Y-70454416D02*
X293288662Y-70763162D01*
X293288662Y-70763162D02*
X292979915Y-69012174D01*
X291392076Y-60007092D02*
X291083330Y-58256104D01*
X294391328Y-77016692D02*
X296142316Y-76707945D01*
X305147398Y-75120106D02*
X306898386Y-74811360D01*
X306898386Y-74811360D02*
X307207133Y-76562348D01*
X308794972Y-85567430D02*
X309103718Y-87318418D01*
X309103718Y-87318418D02*
X307352730Y-87627165D01*
X298347648Y-89215004D02*
X296596660Y-89523750D01*
X296596660Y-89523750D02*
X296287913Y-87772762D01*
X294700074Y-78767680D02*
X294391328Y-77016692D01*
X297699326Y-95777280D02*
X299450314Y-95468533D01*
X308455396Y-93880694D02*
X310206384Y-93571948D01*
X310206384Y-93571948D02*
X310515131Y-95322936D01*
X312102970Y-104328018D02*
X312411716Y-106079006D01*
X312411716Y-106079006D02*
X310660728Y-106387753D01*
X301655646Y-107975592D02*
X299904658Y-108284338D01*
X299904658Y-108284338D02*
X299595911Y-106533350D01*
X298008072Y-97528268D02*
X297699326Y-95777280D01*
X301007324Y-114537868D02*
X302758312Y-114229121D01*
X311763394Y-112641282D02*
X313514382Y-112332536D01*
X313514382Y-112332536D02*
X313823129Y-114083524D01*
X315410968Y-123088606D02*
X315719714Y-124839594D01*
X315719714Y-124839594D02*
X313968726Y-125148341D01*
X304963644Y-126736180D02*
X303212656Y-127044926D01*
X303212656Y-127044926D02*
X302903909Y-125293938D01*
X301316070Y-116288856D02*
X301007324Y-114537868D01*
X306883217Y-38157134D02*
X308634205Y-37848387D01*
X317639287Y-36260548D02*
X319390275Y-35951802D01*
X319390275Y-35951802D02*
X319699022Y-37702790D01*
X321286861Y-46707872D02*
X321595607Y-48458860D01*
X321595607Y-48458860D02*
X319844619Y-48767607D01*
X310839537Y-50355446D02*
X309088549Y-50664192D01*
X309088549Y-50664192D02*
X308779802Y-48913204D01*
X307191963Y-39908122D02*
X306883217Y-38157134D01*
X310191215Y-56917722D02*
X311942203Y-56608975D01*
X320947285Y-55021136D02*
X322698273Y-54712390D01*
X322698273Y-54712390D02*
X323007020Y-56463378D01*
X324594859Y-65468460D02*
X324903605Y-67219448D01*
X324903605Y-67219448D02*
X323152617Y-67528195D01*
X314147535Y-69116034D02*
X312396547Y-69424780D01*
X312396547Y-69424780D02*
X312087800Y-67673792D01*
X310499961Y-58668710D02*
X310191215Y-56917722D01*
X313499213Y-75678310D02*
X315250201Y-75369563D01*
X324255283Y-73781724D02*
X326006271Y-73472978D01*
X326006271Y-73472978D02*
X326315018Y-75223966D01*
X327902857Y-84229048D02*
X328211603Y-85980036D01*
X328211603Y-85980036D02*
X326460615Y-86288783D01*
X317455533Y-87876622D02*
X315704545Y-88185368D01*
X315704545Y-88185368D02*
X315395798Y-86434380D01*
X313807959Y-77429298D02*
X313499213Y-75678310D01*
X316807211Y-94438898D02*
X318558199Y-94130151D01*
X327563281Y-92542312D02*
X329314269Y-92233566D01*
X329314269Y-92233566D02*
X329623016Y-93984554D01*
X331210855Y-102989636D02*
X331519601Y-104740624D01*
X331519601Y-104740624D02*
X329768613Y-105049371D01*
X320763531Y-106637210D02*
X319012543Y-106945956D01*
X319012543Y-106945956D02*
X318703796Y-105194968D01*
X317115957Y-96189886D02*
X316807211Y-94438898D01*
X320115209Y-113199486D02*
X321866197Y-112890739D01*
X330871279Y-111302900D02*
X332622267Y-110994154D01*
X332622267Y-110994154D02*
X332931014Y-112745142D01*
X334518853Y-121750224D02*
X334827599Y-123501212D01*
X334827599Y-123501212D02*
X333076611Y-123809959D01*
X324071529Y-125397798D02*
X322320541Y-125706544D01*
X322320541Y-125706544D02*
X322011794Y-123955556D01*
X320423955Y-114950474D02*
X320115209Y-113199486D01*
X148798658Y-142403143D02*
X147047670Y-142094397D01*
X138042588Y-140506558D02*
X136291600Y-140197811D01*
X136291600Y-140197811D02*
X136600346Y-138446823D01*
X138188185Y-129441741D02*
X138496932Y-127690753D01*
X138496932Y-127690753D02*
X140247920Y-127999499D01*
X149253002Y-129587338D02*
X151003990Y-129896085D01*
X151003990Y-129896085D02*
X150695244Y-131647073D01*
X149107405Y-140652155D02*
X148798658Y-142403143D01*
X157257519Y-130998750D02*
X159008507Y-131307496D01*
X168013589Y-132895335D02*
X169764577Y-133204082D01*
X169764577Y-133204082D02*
X169455831Y-134955070D01*
X167867992Y-143960152D02*
X167559245Y-145711140D01*
X167559245Y-145711140D02*
X165808257Y-145402394D01*
X156803175Y-143814555D02*
X155052187Y-143505808D01*
X155052187Y-143505808D02*
X155360933Y-141754820D01*
X156948772Y-132749738D02*
X157257519Y-130998750D01*
D12*
X175935000Y-104205000D02*
X174335000Y-104205000D01*
X175935000Y-112630000D02*
X181685000Y-112630000D01*
X175935000Y-103980000D02*
X181685000Y-103980000D01*
X175935000Y-112630000D02*
X175935000Y-112330000D01*
X181685000Y-112630000D02*
X181685000Y-112330000D01*
X181685000Y-103980000D02*
X181685000Y-104280000D01*
X175935000Y-103980000D02*
X175935000Y-104205000D01*
D11*
X182520000Y-94000000D02*
X182520000Y-92000000D01*
X180480000Y-92000000D02*
X180480000Y-94000000D01*
X180540000Y-37862000D02*
X180540000Y-35862000D01*
X182680000Y-35862000D02*
X182680000Y-37862000D01*
X166223000Y-36894000D02*
X166223000Y-37359000D01*
X166223000Y-34269000D02*
X166223000Y-34734000D01*
X171037479Y-36894429D02*
G75*
G02X166528316Y-36894000I-2254479J1080429D01*
G01*
X171037479Y-34733571D02*
G75*
G03X166528316Y-34734000I-2254479J-1080429D01*
G01*
X171570815Y-36894827D02*
G75*
G02X166223000Y-37358830I-2787815J1080827D01*
G01*
X171570815Y-34733173D02*
G75*
G03X166223000Y-34269170I-2787815J-1080827D01*
G01*
X167694000Y-41386000D02*
X167694000Y-43386000D01*
X165554000Y-43386000D02*
X165554000Y-41386000D01*
X172266000Y-41386000D02*
X172266000Y-43386000D01*
X170126000Y-43386000D02*
X170126000Y-41386000D01*
D12*
X178523809Y-90326190D02*
X178523809Y-90802381D01*
X178190476Y-89802381D02*
X178523809Y-90326190D01*
X178857143Y-89802381D01*
X179714286Y-90802381D02*
X179142857Y-90802381D01*
X179428571Y-90802381D02*
X179428571Y-89802381D01*
X179333333Y-89945238D01*
X179238095Y-90040476D01*
X179142857Y-90088095D01*
X188158381Y-74842666D02*
X187682190Y-75176000D01*
X188158381Y-75414095D02*
X187158381Y-75414095D01*
X187158381Y-75033142D01*
X187206000Y-74937904D01*
X187253619Y-74890285D01*
X187348857Y-74842666D01*
X187491714Y-74842666D01*
X187586952Y-74890285D01*
X187634571Y-74937904D01*
X187682190Y-75033142D01*
X187682190Y-75414095D01*
X187586952Y-74271238D02*
X187539333Y-74366476D01*
X187491714Y-74414095D01*
X187396476Y-74461714D01*
X187348857Y-74461714D01*
X187253619Y-74414095D01*
X187206000Y-74366476D01*
X187158381Y-74271238D01*
X187158381Y-74080761D01*
X187206000Y-73985523D01*
X187253619Y-73937904D01*
X187348857Y-73890285D01*
X187396476Y-73890285D01*
X187491714Y-73937904D01*
X187539333Y-73985523D01*
X187586952Y-74080761D01*
X187586952Y-74271238D01*
X187634571Y-74366476D01*
X187682190Y-74414095D01*
X187777429Y-74461714D01*
X187967905Y-74461714D01*
X188063143Y-74414095D01*
X188110762Y-74366476D01*
X188158381Y-74271238D01*
X188158381Y-74080761D01*
X188110762Y-73985523D01*
X188063143Y-73937904D01*
X187967905Y-73890285D01*
X187777429Y-73890285D01*
X187682190Y-73937904D01*
X187634571Y-73985523D01*
X187586952Y-74080761D01*
X178689095Y-79779881D02*
X178689095Y-80589405D01*
X178736714Y-80684643D01*
X178784333Y-80732262D01*
X178879571Y-80779881D01*
X179070048Y-80779881D01*
X179165286Y-80732262D01*
X179212905Y-80684643D01*
X179260524Y-80589405D01*
X179260524Y-79779881D01*
X180260524Y-80779881D02*
X179689095Y-80779881D01*
X179974809Y-80779881D02*
X179974809Y-79779881D01*
X179879571Y-79922738D01*
X179784333Y-80017976D01*
X179689095Y-80065595D01*
D14*
X218871578Y-61839022D02*
X219096486Y-61860773D01*
X219453830Y-61797764D01*
X219586267Y-61713003D01*
X219647234Y-61640843D01*
X219697700Y-61509126D01*
X219676697Y-61390012D01*
X219584224Y-61283498D01*
X219502254Y-61236543D01*
X219348815Y-61202190D01*
X219052437Y-61193040D01*
X218898999Y-61158686D01*
X218817027Y-61111730D01*
X218724556Y-61005218D01*
X218703553Y-60886103D01*
X218754018Y-60754386D01*
X218814986Y-60682227D01*
X218947421Y-60597466D01*
X219304767Y-60534456D01*
X219529675Y-60556208D01*
X220019456Y-60408437D02*
X220948552Y-60244612D01*
X220532282Y-60809285D01*
X220746688Y-60771479D01*
X220900128Y-60805833D01*
X220982098Y-60852789D01*
X221074571Y-60959301D01*
X221127079Y-61257088D01*
X221076612Y-61388805D01*
X221015645Y-61460965D01*
X220883209Y-61545726D01*
X220454396Y-61621337D01*
X220300957Y-61586984D01*
X220218985Y-61540028D01*
X222598463Y-61243280D02*
X221740837Y-61394503D01*
X222169650Y-61318892D02*
X221949116Y-60068186D01*
X221837683Y-60272061D01*
X221715749Y-60416380D01*
X221583313Y-60501142D01*
X41976488Y-46739370D02*
X42180393Y-46836733D01*
X42537737Y-46899742D01*
X42691177Y-46865389D01*
X42773147Y-46818433D01*
X42865619Y-46711920D01*
X42886623Y-46592806D01*
X42836156Y-46461088D01*
X42775189Y-46388929D01*
X42642753Y-46304168D01*
X42367379Y-46194203D01*
X42234943Y-46109442D01*
X42173975Y-46037282D01*
X42123510Y-45905566D01*
X42144513Y-45786451D01*
X42236985Y-45679938D01*
X42318956Y-45632983D01*
X42472394Y-45598629D01*
X42829740Y-45661639D01*
X43033645Y-45759001D01*
X44252992Y-47202188D02*
X43395365Y-47050965D01*
X43824178Y-47126577D02*
X44044711Y-45875871D01*
X43870268Y-46029339D01*
X43706328Y-46123250D01*
X43552889Y-46157604D01*
X128796037Y-98704899D02*
X128999942Y-98802262D01*
X129357286Y-98865272D01*
X129510726Y-98830918D01*
X129592696Y-98783962D01*
X129685169Y-98677449D01*
X129706172Y-98558335D01*
X129655706Y-98426617D01*
X129594739Y-98354458D01*
X129462302Y-98269697D01*
X129186928Y-98159732D01*
X129054492Y-98074971D01*
X128993525Y-98002811D01*
X128943059Y-97871095D01*
X128964062Y-97751980D01*
X129056534Y-97645467D01*
X129138505Y-97598512D01*
X129291944Y-97564158D01*
X129649289Y-97627168D01*
X129853194Y-97724531D01*
X130414444Y-97884903D02*
X130496414Y-97837948D01*
X130649854Y-97803594D01*
X131007198Y-97866604D01*
X131139634Y-97951365D01*
X131200601Y-98023524D01*
X131251068Y-98155241D01*
X131230065Y-98274356D01*
X131127090Y-98440426D01*
X130143445Y-99003892D01*
X131072541Y-99167717D01*
X132056186Y-98604251D02*
X131923751Y-98519489D01*
X131862783Y-98447330D01*
X131812318Y-98315614D01*
X131822819Y-98256056D01*
X131915291Y-98149543D01*
X131997262Y-98102588D01*
X132150701Y-98068234D01*
X132436577Y-98118642D01*
X132569013Y-98203403D01*
X132629980Y-98275562D01*
X132680446Y-98407279D01*
X132669945Y-98466836D01*
X132577472Y-98573349D01*
X132495502Y-98620304D01*
X132342062Y-98654659D01*
X132056186Y-98604251D01*
X131902748Y-98638605D01*
X131820777Y-98685560D01*
X131728305Y-98792073D01*
X131686299Y-99030302D01*
X131736764Y-99162019D01*
X131797732Y-99234179D01*
X131930168Y-99318940D01*
X132216043Y-99369348D01*
X132369483Y-99334994D01*
X132451453Y-99288038D01*
X132543926Y-99181525D01*
X132585932Y-98943295D01*
X132535466Y-98811579D01*
X132474499Y-98739420D01*
X132342062Y-98654659D01*
X132104035Y-79944311D02*
X132307940Y-80041674D01*
X132665284Y-80104684D01*
X132818724Y-80070330D01*
X132900694Y-80023374D01*
X132993167Y-79916861D01*
X133014170Y-79797747D01*
X132963704Y-79666029D01*
X132902737Y-79593870D01*
X132770300Y-79509109D01*
X132494926Y-79399144D01*
X132362490Y-79314383D01*
X132301523Y-79242223D01*
X132251057Y-79110507D01*
X132272060Y-78991392D01*
X132364532Y-78884879D01*
X132446503Y-78837924D01*
X132599942Y-78803570D01*
X132957287Y-78866580D01*
X133161192Y-78963943D01*
X133722442Y-79124315D02*
X133804412Y-79077360D01*
X133957852Y-79043006D01*
X134315196Y-79106016D01*
X134447632Y-79190777D01*
X134508599Y-79262936D01*
X134559066Y-79394653D01*
X134538063Y-79513768D01*
X134435088Y-79679838D01*
X133451443Y-80243304D01*
X134380539Y-80407129D01*
X135101354Y-79244637D02*
X136101919Y-79421063D01*
X135238166Y-80558352D01*
X191630957Y-137137350D02*
X191609206Y-137362258D01*
X191672215Y-137719602D01*
X191756976Y-137852039D01*
X191829136Y-137913006D01*
X191960853Y-137963472D01*
X192079967Y-137942469D01*
X192186481Y-137849996D01*
X192233436Y-137768026D01*
X192267789Y-137614587D01*
X192276939Y-137318209D01*
X192311293Y-137164771D01*
X192358249Y-137082799D01*
X192464761Y-136990328D01*
X192583876Y-136969325D01*
X192715593Y-137019790D01*
X192787752Y-137080758D01*
X192872513Y-137213193D01*
X192935523Y-137570539D01*
X192913771Y-137795447D01*
X193200163Y-139071386D02*
X193149755Y-138785510D01*
X193064994Y-138653073D01*
X192992835Y-138592107D01*
X192788959Y-138480673D01*
X192538127Y-138451211D01*
X192061668Y-138535224D01*
X191955155Y-138627695D01*
X191908199Y-138709667D01*
X191873845Y-138863105D01*
X191924253Y-139148981D01*
X192009014Y-139281417D01*
X192081174Y-139342384D01*
X192212891Y-139392851D01*
X192510678Y-139340343D01*
X192617190Y-139247870D01*
X192664146Y-139165900D01*
X192698500Y-139012460D01*
X192648092Y-138726584D01*
X192563331Y-138594149D01*
X192491171Y-138533181D01*
X192359455Y-138482716D01*
X193035299Y-140574275D02*
X192201495Y-140721297D01*
X193448749Y-140132918D02*
X192492379Y-139933098D01*
X192656203Y-140862193D01*
X216645075Y-132726687D02*
X216623324Y-132951595D01*
X216686333Y-133308939D01*
X216771094Y-133441376D01*
X216843254Y-133502343D01*
X216974971Y-133552809D01*
X217094085Y-133531806D01*
X217200599Y-133439333D01*
X217247554Y-133357363D01*
X217281907Y-133203924D01*
X217291057Y-132907546D01*
X217325411Y-132754108D01*
X217372367Y-132672136D01*
X217478879Y-132579665D01*
X217597994Y-132558662D01*
X217729711Y-132609127D01*
X217801870Y-132670095D01*
X217886631Y-132802530D01*
X217949641Y-133159876D01*
X217927889Y-133384784D01*
X218214281Y-134660723D02*
X218163873Y-134374847D01*
X218079112Y-134242410D01*
X218006953Y-134181444D01*
X217803077Y-134070010D01*
X217552245Y-134040548D01*
X217075786Y-134124561D01*
X216969273Y-134217032D01*
X216922317Y-134299004D01*
X216887963Y-134452442D01*
X216938371Y-134738318D01*
X217023132Y-134870754D01*
X217095292Y-134931721D01*
X217227009Y-134982188D01*
X217524796Y-134929680D01*
X217631308Y-134837207D01*
X217678264Y-134755237D01*
X217712618Y-134601797D01*
X217662210Y-134315921D01*
X217577449Y-134183486D01*
X217505289Y-134122518D01*
X217373573Y-134072053D01*
X218327698Y-135303943D02*
X218491523Y-136233039D01*
X217926850Y-135816769D01*
X217964656Y-136031176D01*
X217930302Y-136184616D01*
X217883346Y-136266586D01*
X217776834Y-136359058D01*
X217479047Y-136411566D01*
X217347330Y-136361100D01*
X217275170Y-136300133D01*
X217190409Y-136167697D01*
X217114798Y-135738884D01*
X217149151Y-135585444D01*
X217196107Y-135503473D01*
D12*
X176857143Y-93166666D02*
X176904762Y-93214285D01*
X176952381Y-93357142D01*
X176952381Y-93452380D01*
X176904762Y-93595238D01*
X176809524Y-93690476D01*
X176714286Y-93738095D01*
X176523810Y-93785714D01*
X176380952Y-93785714D01*
X176190476Y-93738095D01*
X176095238Y-93690476D01*
X176000000Y-93595238D01*
X175952381Y-93452380D01*
X175952381Y-93357142D01*
X176000000Y-93214285D01*
X176047619Y-93166666D01*
X176047619Y-92785714D02*
X176000000Y-92738095D01*
X175952381Y-92642857D01*
X175952381Y-92404761D01*
X176000000Y-92309523D01*
X176047619Y-92261904D01*
X176142857Y-92214285D01*
X176238095Y-92214285D01*
X176380952Y-92261904D01*
X176952381Y-92833333D01*
X176952381Y-92214285D01*
X169187834Y-80748143D02*
X169140215Y-80795762D01*
X168997358Y-80843381D01*
X168902120Y-80843381D01*
X168759262Y-80795762D01*
X168664024Y-80700524D01*
X168616405Y-80605286D01*
X168568786Y-80414810D01*
X168568786Y-80271952D01*
X168616405Y-80081476D01*
X168664024Y-79986238D01*
X168759262Y-79891000D01*
X168902120Y-79843381D01*
X168997358Y-79843381D01*
X169140215Y-79891000D01*
X169187834Y-79938619D01*
X169521167Y-79843381D02*
X170140215Y-79843381D01*
X169806881Y-80224333D01*
X169949739Y-80224333D01*
X170044977Y-80271952D01*
X170092596Y-80319571D01*
X170140215Y-80414810D01*
X170140215Y-80652905D01*
X170092596Y-80748143D01*
X170044977Y-80795762D01*
X169949739Y-80843381D01*
X169664024Y-80843381D01*
X169568786Y-80795762D01*
X169521167Y-80748143D01*
X169251334Y-77573143D02*
X169203715Y-77620762D01*
X169060858Y-77668381D01*
X168965620Y-77668381D01*
X168822762Y-77620762D01*
X168727524Y-77525524D01*
X168679905Y-77430286D01*
X168632286Y-77239810D01*
X168632286Y-77096952D01*
X168679905Y-76906476D01*
X168727524Y-76811238D01*
X168822762Y-76716000D01*
X168965620Y-76668381D01*
X169060858Y-76668381D01*
X169203715Y-76716000D01*
X169251334Y-76763619D01*
X170108477Y-77001714D02*
X170108477Y-77668381D01*
X169870381Y-76620762D02*
X169632286Y-77335048D01*
X170251334Y-77335048D01*
X178903334Y-102655643D02*
X178855715Y-102703262D01*
X178712858Y-102750881D01*
X178617620Y-102750881D01*
X178474762Y-102703262D01*
X178379524Y-102608024D01*
X178331905Y-102512786D01*
X178284286Y-102322310D01*
X178284286Y-102179452D01*
X178331905Y-101988976D01*
X178379524Y-101893738D01*
X178474762Y-101798500D01*
X178617620Y-101750881D01*
X178712858Y-101750881D01*
X178855715Y-101798500D01*
X178903334Y-101846119D01*
X179808096Y-101750881D02*
X179331905Y-101750881D01*
X179284286Y-102227071D01*
X179331905Y-102179452D01*
X179427143Y-102131833D01*
X179665239Y-102131833D01*
X179760477Y-102179452D01*
X179808096Y-102227071D01*
X179855715Y-102322310D01*
X179855715Y-102560405D01*
X179808096Y-102655643D01*
X179760477Y-102703262D01*
X179665239Y-102750881D01*
X179427143Y-102750881D01*
X179331905Y-102703262D01*
X179284286Y-102655643D01*
X169362381Y-42552666D02*
X168886190Y-42886000D01*
X169362381Y-43124095D02*
X168362381Y-43124095D01*
X168362381Y-42743142D01*
X168410000Y-42647904D01*
X168457619Y-42600285D01*
X168552857Y-42552666D01*
X168695714Y-42552666D01*
X168790952Y-42600285D01*
X168838571Y-42647904D01*
X168886190Y-42743142D01*
X168886190Y-43124095D01*
X168457619Y-42171714D02*
X168410000Y-42124095D01*
X168362381Y-42028857D01*
X168362381Y-41790761D01*
X168410000Y-41695523D01*
X168457619Y-41647904D01*
X168552857Y-41600285D01*
X168648095Y-41600285D01*
X168790952Y-41647904D01*
X169362381Y-42219333D01*
X169362381Y-41600285D01*
X170775334Y-110815381D02*
X170442000Y-110339190D01*
X170203905Y-110815381D02*
X170203905Y-109815381D01*
X170584858Y-109815381D01*
X170680096Y-109863000D01*
X170727715Y-109910619D01*
X170775334Y-110005857D01*
X170775334Y-110148714D01*
X170727715Y-110243952D01*
X170680096Y-110291571D01*
X170584858Y-110339190D01*
X170203905Y-110339190D01*
X171632477Y-110148714D02*
X171632477Y-110815381D01*
X171394381Y-109767762D02*
X171156286Y-110482048D01*
X171775334Y-110482048D01*
X170775334Y-113101381D02*
X170442000Y-112625190D01*
X170203905Y-113101381D02*
X170203905Y-112101381D01*
X170584858Y-112101381D01*
X170680096Y-112149000D01*
X170727715Y-112196619D01*
X170775334Y-112291857D01*
X170775334Y-112434714D01*
X170727715Y-112529952D01*
X170680096Y-112577571D01*
X170584858Y-112625190D01*
X170203905Y-112625190D01*
X171680096Y-112101381D02*
X171203905Y-112101381D01*
X171156286Y-112577571D01*
X171203905Y-112529952D01*
X171299143Y-112482333D01*
X171537239Y-112482333D01*
X171632477Y-112529952D01*
X171680096Y-112577571D01*
X171727715Y-112672810D01*
X171727715Y-112910905D01*
X171680096Y-113006143D01*
X171632477Y-113053762D01*
X171537239Y-113101381D01*
X171299143Y-113101381D01*
X171203905Y-113053762D01*
X171156286Y-113006143D01*
X176982381Y-36990666D02*
X176506190Y-37324000D01*
X176982381Y-37562095D02*
X175982381Y-37562095D01*
X175982381Y-37181142D01*
X176030000Y-37085904D01*
X176077619Y-37038285D01*
X176172857Y-36990666D01*
X176315714Y-36990666D01*
X176410952Y-37038285D01*
X176458571Y-37085904D01*
X176506190Y-37181142D01*
X176506190Y-37562095D01*
X175982381Y-36133523D02*
X175982381Y-36324000D01*
X176030000Y-36419238D01*
X176077619Y-36466857D01*
X176220476Y-36562095D01*
X176410952Y-36609714D01*
X176791905Y-36609714D01*
X176887143Y-36562095D01*
X176934762Y-36514476D01*
X176982381Y-36419238D01*
X176982381Y-36228761D01*
X176934762Y-36133523D01*
X176887143Y-36085904D01*
X176791905Y-36038285D01*
X176553810Y-36038285D01*
X176458571Y-36085904D01*
X176410952Y-36133523D01*
X176363333Y-36228761D01*
X176363333Y-36419238D01*
X176410952Y-36514476D01*
X176458571Y-36562095D01*
X176553810Y-36609714D01*
X179536381Y-36997166D02*
X179060190Y-37330500D01*
X179536381Y-37568595D02*
X178536381Y-37568595D01*
X178536381Y-37187642D01*
X178584000Y-37092404D01*
X178631619Y-37044785D01*
X178726857Y-36997166D01*
X178869714Y-36997166D01*
X178964952Y-37044785D01*
X179012571Y-37092404D01*
X179060190Y-37187642D01*
X179060190Y-37568595D01*
X178536381Y-36663833D02*
X178536381Y-35997166D01*
X179536381Y-36425738D01*
D14*
X38668490Y-65499958D02*
X38872395Y-65597321D01*
X39229739Y-65660330D01*
X39383179Y-65625977D01*
X39465149Y-65579021D01*
X39557621Y-65472508D01*
X39578625Y-65353394D01*
X39528158Y-65221676D01*
X39467191Y-65149517D01*
X39334755Y-65064756D01*
X39059381Y-64954791D01*
X38926945Y-64870030D01*
X38865977Y-64797870D01*
X38815512Y-64666154D01*
X38836515Y-64547039D01*
X38928987Y-64440526D01*
X39010958Y-64393571D01*
X39164396Y-64359217D01*
X39521742Y-64422227D01*
X39725647Y-64519589D01*
X40286897Y-64679962D02*
X40368867Y-64633007D01*
X40522306Y-64598653D01*
X40879651Y-64661663D01*
X41012087Y-64746424D01*
X41073054Y-64818583D01*
X41123520Y-64950300D01*
X41102517Y-65069415D01*
X40999543Y-65235485D01*
X40015897Y-65798951D01*
X40944994Y-65962776D01*
X35360492Y-84260546D02*
X35564397Y-84357909D01*
X35921741Y-84420918D01*
X36075181Y-84386565D01*
X36157151Y-84339609D01*
X36249623Y-84233096D01*
X36270627Y-84113982D01*
X36220160Y-83982264D01*
X36159193Y-83910105D01*
X36026757Y-83825344D01*
X35751383Y-83715379D01*
X35618947Y-83630618D01*
X35557979Y-83558458D01*
X35507514Y-83426742D01*
X35528517Y-83307627D01*
X35620989Y-83201114D01*
X35702960Y-83154159D01*
X35856398Y-83119805D01*
X36213744Y-83182815D01*
X36417649Y-83280177D01*
X36928433Y-83308833D02*
X37857529Y-83472658D01*
X37273234Y-83860904D01*
X37487640Y-83898709D01*
X37620077Y-83983471D01*
X37681043Y-84055631D01*
X37731510Y-84187347D01*
X37679002Y-84485134D01*
X37586529Y-84591647D01*
X37504559Y-84638603D01*
X37351120Y-84672956D01*
X36922307Y-84597345D01*
X36789870Y-84512584D01*
X36728903Y-84440424D01*
X32052494Y-103021134D02*
X32256399Y-103118497D01*
X32613743Y-103181506D01*
X32767183Y-103147153D01*
X32849153Y-103100197D01*
X32941625Y-102993684D01*
X32962629Y-102874570D01*
X32912162Y-102742852D01*
X32851195Y-102670693D01*
X32718759Y-102585932D01*
X32443385Y-102475967D01*
X32310949Y-102391206D01*
X32249981Y-102319046D01*
X32199516Y-102187330D01*
X32220519Y-102068215D01*
X32312991Y-101961702D01*
X32394962Y-101914747D01*
X32548400Y-101880393D01*
X32905746Y-101943403D01*
X33109651Y-102040765D01*
X34333082Y-102624944D02*
X34186060Y-103458748D01*
X34059750Y-102085476D02*
X33544882Y-102915827D01*
X34473977Y-103079651D01*
X28744496Y-121781722D02*
X28948401Y-121879085D01*
X29305745Y-121942094D01*
X29459185Y-121907741D01*
X29541155Y-121860785D01*
X29633627Y-121754272D01*
X29654631Y-121635158D01*
X29604164Y-121503440D01*
X29543197Y-121431281D01*
X29410761Y-121346520D01*
X29135387Y-121236555D01*
X29002951Y-121151794D01*
X28941983Y-121079634D01*
X28891518Y-120947918D01*
X28912521Y-120828803D01*
X29004993Y-120722290D01*
X29086964Y-120675335D01*
X29240402Y-120640981D01*
X29597748Y-120703991D01*
X29801653Y-120801353D01*
X31170063Y-120981232D02*
X30455375Y-120855213D01*
X30278890Y-121438186D01*
X30360860Y-121391230D01*
X30514300Y-121356876D01*
X30871644Y-121419885D01*
X31004081Y-121504647D01*
X31065047Y-121576807D01*
X31115514Y-121708523D01*
X31063006Y-122006310D01*
X30970533Y-122112823D01*
X30888563Y-122159779D01*
X30735124Y-122194132D01*
X30377779Y-122131123D01*
X30245343Y-122046362D01*
X30184376Y-121974202D01*
X61084372Y-48077752D02*
X61288277Y-48175115D01*
X61645621Y-48238124D01*
X61799061Y-48203771D01*
X61881031Y-48156815D01*
X61973503Y-48050302D01*
X61994507Y-47931188D01*
X61944040Y-47799470D01*
X61883073Y-47727311D01*
X61750637Y-47642550D01*
X61475263Y-47532585D01*
X61342827Y-47447824D01*
X61281859Y-47375664D01*
X61231394Y-47243948D01*
X61252397Y-47124833D01*
X61344869Y-47018320D01*
X61426840Y-46971365D01*
X61580278Y-46937011D01*
X61937624Y-47000021D01*
X62141529Y-47097383D01*
X63438471Y-47264660D02*
X63152595Y-47214253D01*
X62999155Y-47248606D01*
X62917185Y-47295562D01*
X62742743Y-47449030D01*
X62629268Y-47674659D01*
X62545255Y-48151117D01*
X62595721Y-48282834D01*
X62656688Y-48354994D01*
X62789124Y-48439755D01*
X63075000Y-48490162D01*
X63228439Y-48455809D01*
X63310409Y-48408853D01*
X63402882Y-48302340D01*
X63455390Y-48004553D01*
X63404923Y-47872837D01*
X63343957Y-47800677D01*
X63211520Y-47715915D01*
X62925644Y-47665508D01*
X62772206Y-47699862D01*
X62690235Y-47746818D01*
X62597763Y-47853330D01*
X57776374Y-66838340D02*
X57980279Y-66935703D01*
X58337623Y-66998712D01*
X58491063Y-66964359D01*
X58573033Y-66917403D01*
X58665505Y-66810890D01*
X58686509Y-66691776D01*
X58636042Y-66560058D01*
X58575075Y-66487899D01*
X58442639Y-66403138D01*
X58167265Y-66293173D01*
X58034829Y-66208412D01*
X57973861Y-66136252D01*
X57923396Y-66004536D01*
X57944399Y-65885421D01*
X58036871Y-65778908D01*
X58118842Y-65731953D01*
X58272280Y-65697599D01*
X58629626Y-65760609D01*
X58833531Y-65857971D01*
X59344315Y-65886627D02*
X60344879Y-66063054D01*
X59481126Y-67200343D01*
X54468376Y-85598928D02*
X54672281Y-85696291D01*
X55029625Y-85759300D01*
X55183065Y-85724947D01*
X55265035Y-85677991D01*
X55357507Y-85571478D01*
X55378511Y-85452364D01*
X55328044Y-85320646D01*
X55267077Y-85248487D01*
X55134641Y-85163726D01*
X54859267Y-85053761D01*
X54726831Y-84969000D01*
X54665863Y-84896840D01*
X54615398Y-84765124D01*
X54636401Y-84646009D01*
X54728873Y-84539496D01*
X54810844Y-84492541D01*
X54964282Y-84458187D01*
X55321628Y-84521197D01*
X55525533Y-84618559D01*
X56299147Y-85246242D02*
X56166711Y-85161480D01*
X56105744Y-85089321D01*
X56055278Y-84957605D01*
X56065780Y-84898047D01*
X56158251Y-84791534D01*
X56240222Y-84744579D01*
X56393661Y-84710225D01*
X56679537Y-84760633D01*
X56811973Y-84845394D01*
X56872940Y-84917553D01*
X56923406Y-85049270D01*
X56912905Y-85108827D01*
X56820432Y-85215340D01*
X56738462Y-85262295D01*
X56585023Y-85296650D01*
X56299147Y-85246242D01*
X56145708Y-85280596D01*
X56063737Y-85327551D01*
X55971266Y-85434063D01*
X55929259Y-85672293D01*
X55979725Y-85804010D01*
X56040692Y-85876170D01*
X56173128Y-85960931D01*
X56459004Y-86011338D01*
X56612443Y-85976985D01*
X56694413Y-85930029D01*
X56786886Y-85823516D01*
X56828892Y-85585286D01*
X56778426Y-85453570D01*
X56717459Y-85381411D01*
X56585023Y-85296650D01*
X51160378Y-104359516D02*
X51364283Y-104456879D01*
X51721627Y-104519888D01*
X51875067Y-104485535D01*
X51957037Y-104438579D01*
X52049509Y-104332066D01*
X52070513Y-104212952D01*
X52020046Y-104081234D01*
X51959079Y-104009075D01*
X51826643Y-103924314D01*
X51551269Y-103814349D01*
X51418833Y-103729588D01*
X51357865Y-103657428D01*
X51307400Y-103525712D01*
X51328403Y-103406597D01*
X51420875Y-103300084D01*
X51502846Y-103253129D01*
X51656284Y-103218775D01*
X52013630Y-103281785D01*
X52217535Y-103379147D01*
X52722193Y-104696315D02*
X53008068Y-104746723D01*
X53161507Y-104712369D01*
X53243478Y-104665413D01*
X53417920Y-104511945D01*
X53531396Y-104286317D01*
X53615408Y-103809858D01*
X53564942Y-103678141D01*
X53503975Y-103605982D01*
X53371539Y-103521221D01*
X53085663Y-103470813D01*
X52932224Y-103505167D01*
X52850253Y-103552122D01*
X52757782Y-103658635D01*
X52705274Y-103956423D01*
X52755739Y-104088139D01*
X52816707Y-104160298D01*
X52949143Y-104245059D01*
X53235018Y-104295467D01*
X53388458Y-104261113D01*
X53470428Y-104214158D01*
X53562900Y-104107645D01*
X47137691Y-122994085D02*
X47341596Y-123091448D01*
X47698940Y-123154458D01*
X47852380Y-123120104D01*
X47934350Y-123073148D01*
X48026823Y-122966635D01*
X48047826Y-122847521D01*
X47997360Y-122715803D01*
X47936393Y-122643644D01*
X47803956Y-122558883D01*
X47528582Y-122448918D01*
X47396146Y-122364157D01*
X47335179Y-122291997D01*
X47284713Y-122160281D01*
X47305716Y-122041166D01*
X47398188Y-121934653D01*
X47480159Y-121887698D01*
X47633598Y-121853344D01*
X47990943Y-121916354D01*
X48194848Y-122013717D01*
X49414195Y-123456903D02*
X48556568Y-123305680D01*
X48985381Y-123381292D02*
X49205914Y-122130586D01*
X49031472Y-122284054D01*
X48867531Y-122377966D01*
X48714092Y-122412319D01*
X50563824Y-122370022D02*
X50706762Y-122395226D01*
X50839199Y-122479987D01*
X50900165Y-122552146D01*
X50950631Y-122683863D01*
X50980094Y-122934694D01*
X50927586Y-123232481D01*
X50814110Y-123458109D01*
X50721639Y-123564622D01*
X50639668Y-123611578D01*
X50486229Y-123645932D01*
X50343291Y-123620728D01*
X50210855Y-123535967D01*
X50149888Y-123463807D01*
X50099421Y-123332090D01*
X50069959Y-123081259D01*
X50122467Y-122783471D01*
X50235942Y-122557844D01*
X50328415Y-122451331D01*
X50410385Y-122404375D01*
X50563824Y-122370022D01*
X79651215Y-48305307D02*
X79855120Y-48402670D01*
X80212464Y-48465680D01*
X80365904Y-48431326D01*
X80447874Y-48384370D01*
X80540347Y-48277857D01*
X80561350Y-48158743D01*
X80510884Y-48027025D01*
X80449917Y-47954866D01*
X80317480Y-47870105D01*
X80042106Y-47760140D01*
X79909670Y-47675379D01*
X79848703Y-47603219D01*
X79798237Y-47471503D01*
X79819240Y-47352388D01*
X79911712Y-47245875D01*
X79993683Y-47198920D01*
X80147122Y-47164566D01*
X80504467Y-47227576D01*
X80708372Y-47324939D01*
X81927719Y-48768125D02*
X81070092Y-48616902D01*
X81498905Y-48692514D02*
X81719438Y-47441808D01*
X81544996Y-47595276D01*
X81381055Y-47689188D01*
X81227616Y-47723541D01*
X83357097Y-49020163D02*
X82499471Y-48868940D01*
X82928283Y-48944552D02*
X83148817Y-47693846D01*
X82974374Y-47847314D01*
X82810434Y-47941226D01*
X82656994Y-47975579D01*
X76343217Y-67065895D02*
X76547122Y-67163258D01*
X76904466Y-67226268D01*
X77057906Y-67191914D01*
X77139876Y-67144958D01*
X77232349Y-67038445D01*
X77253352Y-66919331D01*
X77202886Y-66787613D01*
X77141919Y-66715454D01*
X77009482Y-66630693D01*
X76734108Y-66520728D01*
X76601672Y-66435967D01*
X76540705Y-66363807D01*
X76490239Y-66232091D01*
X76511242Y-66112976D01*
X76603714Y-66006463D01*
X76685685Y-65959508D01*
X76839124Y-65925154D01*
X77196469Y-65988164D01*
X77400374Y-66085527D01*
X78619721Y-67528713D02*
X77762094Y-67377490D01*
X78190907Y-67453102D02*
X78411440Y-66202396D01*
X78236998Y-66355864D01*
X78073057Y-66449776D01*
X77919618Y-66484129D01*
X79391003Y-66497937D02*
X79472973Y-66450982D01*
X79626412Y-66416628D01*
X79983757Y-66479638D01*
X80116193Y-66564399D01*
X80177160Y-66636558D01*
X80227626Y-66768275D01*
X80206623Y-66887390D01*
X80103649Y-67053460D01*
X79120003Y-67616926D01*
X80049099Y-67780751D01*
X73035219Y-85826483D02*
X73239124Y-85923846D01*
X73596468Y-85986856D01*
X73749908Y-85952502D01*
X73831878Y-85905546D01*
X73924351Y-85799033D01*
X73945354Y-85679919D01*
X73894888Y-85548201D01*
X73833921Y-85476042D01*
X73701484Y-85391281D01*
X73426110Y-85281316D01*
X73293674Y-85196555D01*
X73232707Y-85124395D01*
X73182241Y-84992679D01*
X73203244Y-84873564D01*
X73295716Y-84767051D01*
X73377687Y-84720096D01*
X73531126Y-84685742D01*
X73888471Y-84748752D01*
X74092376Y-84846115D01*
X75311723Y-86289301D02*
X74454096Y-86138078D01*
X74882909Y-86213690D02*
X75103442Y-84962984D01*
X74929000Y-85116452D01*
X74765059Y-85210364D01*
X74611620Y-85244717D01*
X76032538Y-85126809D02*
X76961635Y-85290633D01*
X76377340Y-85678879D01*
X76591746Y-85716685D01*
X76724182Y-85801447D01*
X76785149Y-85873606D01*
X76835616Y-86005322D01*
X76783108Y-86303109D01*
X76690635Y-86409622D01*
X76608665Y-86456578D01*
X76455225Y-86490932D01*
X76026413Y-86415320D01*
X75893976Y-86330559D01*
X75833008Y-86258399D01*
X69727221Y-104587071D02*
X69931126Y-104684434D01*
X70288470Y-104747444D01*
X70441910Y-104713090D01*
X70523880Y-104666134D01*
X70616353Y-104559621D01*
X70637356Y-104440507D01*
X70586890Y-104308789D01*
X70525923Y-104236630D01*
X70393486Y-104151869D01*
X70118112Y-104041904D01*
X69985676Y-103957143D01*
X69924709Y-103884983D01*
X69874243Y-103753267D01*
X69895246Y-103634152D01*
X69987718Y-103527639D01*
X70069689Y-103480684D01*
X70223128Y-103446330D01*
X70580473Y-103509340D01*
X70784378Y-103606703D01*
X72003725Y-105049889D02*
X71146098Y-104898666D01*
X71574911Y-104974278D02*
X71795444Y-103723572D01*
X71621002Y-103877040D01*
X71457061Y-103970952D01*
X71303622Y-104005305D01*
X73437188Y-104442919D02*
X73290165Y-105276723D01*
X73163856Y-103903451D02*
X72648988Y-104733802D01*
X73578083Y-104897626D01*
X66419223Y-123347659D02*
X66623128Y-123445022D01*
X66980472Y-123508032D01*
X67133912Y-123473678D01*
X67215882Y-123426722D01*
X67308355Y-123320209D01*
X67329358Y-123201095D01*
X67278892Y-123069377D01*
X67217925Y-122997218D01*
X67085488Y-122912457D01*
X66810114Y-122802492D01*
X66677678Y-122717731D01*
X66616711Y-122645571D01*
X66566245Y-122513855D01*
X66587248Y-122394740D01*
X66679720Y-122288227D01*
X66761691Y-122241272D01*
X66915130Y-122206918D01*
X67272475Y-122269928D01*
X67476380Y-122367291D01*
X68695727Y-123810477D02*
X67838100Y-123659254D01*
X68266913Y-123734866D02*
X68487446Y-122484160D01*
X68313004Y-122637628D01*
X68149063Y-122731540D01*
X67995624Y-122765893D01*
X70274169Y-122799207D02*
X69559480Y-122673188D01*
X69382996Y-123256161D01*
X69464966Y-123209205D01*
X69618406Y-123174851D01*
X69975750Y-123237861D01*
X70108186Y-123322623D01*
X70169153Y-123394782D01*
X70219620Y-123526498D01*
X70167112Y-123824285D01*
X70074639Y-123930798D01*
X69992669Y-123977754D01*
X69839229Y-124012108D01*
X69481885Y-123949098D01*
X69349449Y-123864337D01*
X69288482Y-123792177D01*
X98932747Y-48658881D02*
X99136652Y-48756244D01*
X99493996Y-48819254D01*
X99647436Y-48784900D01*
X99729406Y-48737944D01*
X99821879Y-48631431D01*
X99842882Y-48512317D01*
X99792416Y-48380599D01*
X99731449Y-48308440D01*
X99599012Y-48223679D01*
X99323638Y-48113714D01*
X99191202Y-48028953D01*
X99130235Y-47956793D01*
X99079769Y-47825077D01*
X99100772Y-47705962D01*
X99193244Y-47599449D01*
X99275215Y-47552494D01*
X99428654Y-47518140D01*
X99785999Y-47581150D01*
X99989904Y-47678513D01*
X101209251Y-49121699D02*
X100351624Y-48970476D01*
X100780437Y-49046088D02*
X101000970Y-47795382D01*
X100826528Y-47948850D01*
X100662587Y-48042762D01*
X100509148Y-48077115D01*
X102716225Y-48097827D02*
X102430349Y-48047420D01*
X102276909Y-48081773D01*
X102194939Y-48128729D01*
X102020496Y-48282198D01*
X101907022Y-48507826D01*
X101823009Y-48984284D01*
X101873474Y-49116001D01*
X101934442Y-49188161D01*
X102066878Y-49272922D01*
X102352753Y-49323330D01*
X102506193Y-49288976D01*
X102588163Y-49242020D01*
X102680636Y-49135507D01*
X102733144Y-48837720D01*
X102682677Y-48706004D01*
X102621710Y-48633845D01*
X102489274Y-48549083D01*
X102203398Y-48498675D01*
X102049959Y-48533029D01*
X101967988Y-48579985D01*
X101875517Y-48686497D01*
X95624749Y-67419469D02*
X95828654Y-67516832D01*
X96185998Y-67579842D01*
X96339438Y-67545488D01*
X96421408Y-67498532D01*
X96513881Y-67392019D01*
X96534884Y-67272905D01*
X96484418Y-67141187D01*
X96423451Y-67069028D01*
X96291014Y-66984267D01*
X96015640Y-66874302D01*
X95883204Y-66789541D01*
X95822237Y-66717381D01*
X95771771Y-66585665D01*
X95792774Y-66466550D01*
X95885246Y-66360037D01*
X95967217Y-66313082D01*
X96120656Y-66278728D01*
X96478001Y-66341738D01*
X96681906Y-66439101D01*
X97901253Y-67882287D02*
X97043626Y-67731064D01*
X97472439Y-67806676D02*
X97692972Y-66555970D01*
X97518530Y-66709438D01*
X97354589Y-66803350D01*
X97201150Y-66837703D01*
X98622068Y-66719795D02*
X99622633Y-66896221D01*
X98758880Y-68033510D01*
X92316751Y-86180057D02*
X92520656Y-86277420D01*
X92878000Y-86340430D01*
X93031440Y-86306076D01*
X93113410Y-86259120D01*
X93205883Y-86152607D01*
X93226886Y-86033493D01*
X93176420Y-85901775D01*
X93115453Y-85829616D01*
X92983016Y-85744855D01*
X92707642Y-85634890D01*
X92575206Y-85550129D01*
X92514239Y-85477969D01*
X92463773Y-85346253D01*
X92484776Y-85227138D01*
X92577248Y-85120625D01*
X92659219Y-85073670D01*
X92812658Y-85039316D01*
X93170003Y-85102326D01*
X93373908Y-85199689D01*
X94593255Y-86642875D02*
X93735628Y-86491652D01*
X94164441Y-86567264D02*
X94384974Y-85316558D01*
X94210532Y-85470026D01*
X94046591Y-85563938D01*
X93893152Y-85598291D01*
X95576900Y-86079409D02*
X95444465Y-85994647D01*
X95383497Y-85922488D01*
X95333032Y-85790772D01*
X95343533Y-85731214D01*
X95436005Y-85624701D01*
X95517976Y-85577746D01*
X95671415Y-85543392D01*
X95957291Y-85593800D01*
X96089727Y-85678561D01*
X96150694Y-85750720D01*
X96201160Y-85882437D01*
X96190659Y-85941994D01*
X96098186Y-86048507D01*
X96016216Y-86095462D01*
X95862776Y-86129817D01*
X95576900Y-86079409D01*
X95423462Y-86113763D01*
X95341491Y-86160718D01*
X95249019Y-86267231D01*
X95207013Y-86505460D01*
X95257478Y-86637177D01*
X95318446Y-86709337D01*
X95450882Y-86794098D01*
X95736757Y-86844506D01*
X95890197Y-86810152D01*
X95972167Y-86763196D01*
X96064640Y-86656683D01*
X96106646Y-86418453D01*
X96056180Y-86286737D01*
X95995213Y-86214578D01*
X95862776Y-86129817D01*
X89008753Y-104940645D02*
X89212658Y-105038008D01*
X89570002Y-105101018D01*
X89723442Y-105066664D01*
X89805412Y-105019708D01*
X89897885Y-104913195D01*
X89918888Y-104794081D01*
X89868422Y-104662363D01*
X89807455Y-104590204D01*
X89675018Y-104505443D01*
X89399644Y-104395478D01*
X89267208Y-104310717D01*
X89206241Y-104238557D01*
X89155775Y-104106841D01*
X89176778Y-103987726D01*
X89269250Y-103881213D01*
X89351221Y-103834258D01*
X89504660Y-103799904D01*
X89862005Y-103862914D01*
X90065910Y-103960277D01*
X91285257Y-105403463D02*
X90427630Y-105252240D01*
X90856443Y-105327852D02*
X91076976Y-104077146D01*
X90902534Y-104230614D01*
X90738593Y-104324526D01*
X90585154Y-104358879D01*
X91999947Y-105529482D02*
X92285821Y-105579890D01*
X92439261Y-105545536D01*
X92521232Y-105498580D01*
X92695674Y-105345112D01*
X92809150Y-105119484D01*
X92893162Y-104643025D01*
X92842696Y-104511308D01*
X92781729Y-104439149D01*
X92649293Y-104354388D01*
X92363417Y-104303980D01*
X92209978Y-104338334D01*
X92128007Y-104385289D01*
X92035535Y-104491802D01*
X91983028Y-104789590D01*
X92033493Y-104921306D01*
X92094461Y-104993465D01*
X92226896Y-105078226D01*
X92512772Y-105128634D01*
X92666212Y-105094280D01*
X92748182Y-105047325D01*
X92840654Y-104940812D01*
X85700755Y-123701233D02*
X85904660Y-123798596D01*
X86262004Y-123861606D01*
X86415444Y-123827252D01*
X86497414Y-123780296D01*
X86589887Y-123673783D01*
X86610890Y-123554669D01*
X86560424Y-123422951D01*
X86499457Y-123350792D01*
X86367020Y-123266031D01*
X86091646Y-123156066D01*
X85959210Y-123071305D01*
X85898243Y-122999145D01*
X85847777Y-122867429D01*
X85868780Y-122748314D01*
X85961252Y-122641801D01*
X86043223Y-122594846D01*
X86196662Y-122560492D01*
X86554007Y-122623502D01*
X86757912Y-122720865D01*
X87319162Y-122881237D02*
X87401132Y-122834282D01*
X87554572Y-122799928D01*
X87911916Y-122862938D01*
X88044352Y-122947699D01*
X88105319Y-123019858D01*
X88155786Y-123151575D01*
X88134783Y-123270690D01*
X88031808Y-123436760D01*
X87048163Y-124000226D01*
X87977259Y-124164051D01*
X89126888Y-123077170D02*
X89269826Y-123102374D01*
X89402263Y-123187135D01*
X89463229Y-123259294D01*
X89513695Y-123391011D01*
X89543158Y-123641842D01*
X89490650Y-123939629D01*
X89377174Y-124165257D01*
X89284703Y-124271770D01*
X89202732Y-124318726D01*
X89049293Y-124353080D01*
X88906355Y-124327876D01*
X88773919Y-124243115D01*
X88712952Y-124170955D01*
X88662485Y-124039238D01*
X88633023Y-123788407D01*
X88685531Y-123490619D01*
X88799006Y-123264992D01*
X88891479Y-123158479D01*
X88973449Y-123111523D01*
X89126888Y-123077170D01*
X117172390Y-54921302D02*
X117376295Y-55018665D01*
X117733639Y-55081675D01*
X117887079Y-55047321D01*
X117969049Y-55000365D01*
X118061522Y-54893852D01*
X118082525Y-54774738D01*
X118032059Y-54643020D01*
X117971092Y-54570861D01*
X117838655Y-54486100D01*
X117563281Y-54376135D01*
X117430845Y-54291374D01*
X117369878Y-54219214D01*
X117319412Y-54087498D01*
X117340415Y-53968383D01*
X117432887Y-53861870D01*
X117514858Y-53814915D01*
X117668297Y-53780561D01*
X118025642Y-53843571D01*
X118229547Y-53940934D01*
X118790797Y-54101306D02*
X118872767Y-54054351D01*
X119026207Y-54019997D01*
X119383551Y-54083007D01*
X119515987Y-54167768D01*
X119576954Y-54239927D01*
X119627421Y-54371644D01*
X119606418Y-54490759D01*
X119503443Y-54656829D01*
X118519798Y-55220295D01*
X119448894Y-55384120D01*
X120878272Y-55636158D02*
X120020646Y-55484935D01*
X120449458Y-55560547D02*
X120669992Y-54309841D01*
X120495549Y-54463309D01*
X120331609Y-54557221D01*
X120178169Y-54591574D01*
X113864392Y-73681890D02*
X114068297Y-73779253D01*
X114425641Y-73842263D01*
X114579081Y-73807909D01*
X114661051Y-73760953D01*
X114753524Y-73654440D01*
X114774527Y-73535326D01*
X114724061Y-73403608D01*
X114663094Y-73331449D01*
X114530657Y-73246688D01*
X114255283Y-73136723D01*
X114122847Y-73051962D01*
X114061880Y-72979802D01*
X114011414Y-72848086D01*
X114032417Y-72728971D01*
X114124889Y-72622458D01*
X114206860Y-72575503D01*
X114360299Y-72541149D01*
X114717644Y-72604159D01*
X114921549Y-72701522D01*
X115482799Y-72861894D02*
X115564769Y-72814939D01*
X115718209Y-72780585D01*
X116075553Y-72843595D01*
X116207989Y-72928356D01*
X116268956Y-73000515D01*
X116319423Y-73132232D01*
X116298420Y-73251347D01*
X116195445Y-73417417D01*
X115211800Y-73980883D01*
X116140896Y-74144708D01*
X116912178Y-73113932D02*
X116994148Y-73066977D01*
X117147587Y-73032623D01*
X117504932Y-73095633D01*
X117637368Y-73180394D01*
X117698335Y-73252553D01*
X117748801Y-73384270D01*
X117727798Y-73503385D01*
X117624824Y-73669455D01*
X116641178Y-74232921D01*
X117570274Y-74396746D01*
X110556394Y-92442478D02*
X110760299Y-92539841D01*
X111117643Y-92602851D01*
X111271083Y-92568497D01*
X111353053Y-92521541D01*
X111445526Y-92415028D01*
X111466529Y-92295914D01*
X111416063Y-92164196D01*
X111355096Y-92092037D01*
X111222659Y-92007276D01*
X110947285Y-91897311D01*
X110814849Y-91812550D01*
X110753882Y-91740390D01*
X110703416Y-91608674D01*
X110724419Y-91489559D01*
X110816891Y-91383046D01*
X110898862Y-91336091D01*
X111052301Y-91301737D01*
X111409646Y-91364747D01*
X111613551Y-91462110D01*
X112174801Y-91622482D02*
X112256771Y-91575527D01*
X112410211Y-91541173D01*
X112767555Y-91604183D01*
X112899991Y-91688944D01*
X112960958Y-91761103D01*
X113011425Y-91892820D01*
X112990422Y-92011935D01*
X112887447Y-92178005D01*
X111903802Y-92741471D01*
X112832898Y-92905296D01*
X113553713Y-91742804D02*
X114482810Y-91906628D01*
X113898515Y-92294874D01*
X114112921Y-92332680D01*
X114245357Y-92417442D01*
X114306324Y-92489601D01*
X114356791Y-92621317D01*
X114304283Y-92919104D01*
X114211810Y-93025617D01*
X114129840Y-93072573D01*
X113976400Y-93106927D01*
X113547588Y-93031315D01*
X113415151Y-92946554D01*
X113354183Y-92874394D01*
X107248396Y-111203066D02*
X107452301Y-111300429D01*
X107809645Y-111363439D01*
X107963085Y-111329085D01*
X108045055Y-111282129D01*
X108137528Y-111175616D01*
X108158531Y-111056502D01*
X108108065Y-110924784D01*
X108047098Y-110852625D01*
X107914661Y-110767864D01*
X107639287Y-110657899D01*
X107506851Y-110573138D01*
X107445884Y-110500978D01*
X107395418Y-110369262D01*
X107416421Y-110250147D01*
X107508893Y-110143634D01*
X107590864Y-110096679D01*
X107744303Y-110062325D01*
X108101648Y-110125335D01*
X108305553Y-110222698D01*
X108866803Y-110383070D02*
X108948773Y-110336115D01*
X109102213Y-110301761D01*
X109459557Y-110364771D01*
X109591993Y-110449532D01*
X109652960Y-110521691D01*
X109703427Y-110653408D01*
X109682424Y-110772523D01*
X109579449Y-110938593D01*
X108595804Y-111502059D01*
X109524900Y-111665884D01*
X110958363Y-111058914D02*
X110811340Y-111892718D01*
X110685031Y-110519446D02*
X110170163Y-111349797D01*
X111099258Y-111513621D01*
X103940398Y-129963654D02*
X104144303Y-130061017D01*
X104501647Y-130124027D01*
X104655087Y-130089673D01*
X104737057Y-130042717D01*
X104829530Y-129936204D01*
X104850533Y-129817090D01*
X104800067Y-129685372D01*
X104739100Y-129613213D01*
X104606663Y-129528452D01*
X104331289Y-129418487D01*
X104198853Y-129333726D01*
X104137886Y-129261566D01*
X104087420Y-129129850D01*
X104108423Y-129010735D01*
X104200895Y-128904222D01*
X104282866Y-128857267D01*
X104436305Y-128822913D01*
X104793650Y-128885923D01*
X104997555Y-128983286D01*
X105558805Y-129143658D02*
X105640775Y-129096703D01*
X105794215Y-129062349D01*
X106151559Y-129125359D01*
X106283995Y-129210120D01*
X106344962Y-129282279D01*
X106395429Y-129413996D01*
X106374426Y-129533111D01*
X106271451Y-129699181D01*
X105287806Y-130262647D01*
X106216902Y-130426472D01*
X107795344Y-129415202D02*
X107080655Y-129289183D01*
X106904171Y-129872156D01*
X106986141Y-129825200D01*
X107139581Y-129790846D01*
X107496925Y-129853856D01*
X107629361Y-129938618D01*
X107690328Y-130010777D01*
X107740795Y-130142493D01*
X107688287Y-130440280D01*
X107595814Y-130546793D01*
X107513844Y-130593749D01*
X107360404Y-130628103D01*
X107003060Y-130565093D01*
X106870624Y-130480332D01*
X106809657Y-130408172D01*
X135412033Y-61183723D02*
X135615938Y-61281086D01*
X135973282Y-61344096D01*
X136126722Y-61309742D01*
X136208692Y-61262786D01*
X136301165Y-61156273D01*
X136322168Y-61037159D01*
X136271702Y-60905441D01*
X136210735Y-60833282D01*
X136078298Y-60748521D01*
X135802924Y-60638556D01*
X135670488Y-60553795D01*
X135609521Y-60481635D01*
X135559055Y-60349919D01*
X135580058Y-60230804D01*
X135672530Y-60124291D01*
X135754501Y-60077336D01*
X135907940Y-60042982D01*
X136265285Y-60105992D01*
X136469190Y-60203355D01*
X137030440Y-60363727D02*
X137112410Y-60316772D01*
X137265850Y-60282418D01*
X137623194Y-60345428D01*
X137755630Y-60430189D01*
X137816597Y-60502348D01*
X137867064Y-60634065D01*
X137846061Y-60753180D01*
X137743086Y-60919250D01*
X136759441Y-61482716D01*
X137688537Y-61646541D01*
X139195511Y-60622669D02*
X138909635Y-60572262D01*
X138756195Y-60606615D01*
X138674225Y-60653571D01*
X138499782Y-60807040D01*
X138386308Y-61032668D01*
X138302295Y-61509126D01*
X138352760Y-61640843D01*
X138413728Y-61713003D01*
X138546164Y-61797764D01*
X138832039Y-61848172D01*
X138985479Y-61813818D01*
X139067449Y-61766862D01*
X139159922Y-61660349D01*
X139212430Y-61362562D01*
X139161963Y-61230846D01*
X139100996Y-61158687D01*
X138968560Y-61073925D01*
X138682684Y-61023517D01*
X138529245Y-61057871D01*
X138447274Y-61104827D01*
X138354803Y-61211339D01*
X125488039Y-117465487D02*
X125691944Y-117562850D01*
X126049288Y-117625860D01*
X126202728Y-117591506D01*
X126284698Y-117544550D01*
X126377171Y-117438037D01*
X126398174Y-117318923D01*
X126347708Y-117187205D01*
X126286741Y-117115046D01*
X126154304Y-117030285D01*
X125878930Y-116920320D01*
X125746494Y-116835559D01*
X125685527Y-116763399D01*
X125635061Y-116631683D01*
X125656064Y-116512568D01*
X125748536Y-116406055D01*
X125830507Y-116359100D01*
X125983946Y-116324746D01*
X126341291Y-116387756D01*
X126545196Y-116485119D01*
X127106446Y-116645491D02*
X127188416Y-116598536D01*
X127341856Y-116564182D01*
X127699200Y-116627192D01*
X127831636Y-116711953D01*
X127892603Y-116784112D01*
X127943070Y-116915829D01*
X127922067Y-117034944D01*
X127819092Y-117201014D01*
X126835447Y-117764480D01*
X127764543Y-117928305D01*
X128479233Y-118054324D02*
X128765107Y-118104732D01*
X128918547Y-118070378D01*
X129000518Y-118023422D01*
X129174960Y-117869954D01*
X129288436Y-117644326D01*
X129372448Y-117167867D01*
X129321982Y-117036150D01*
X129261015Y-116963991D01*
X129128579Y-116879230D01*
X128842703Y-116828822D01*
X128689264Y-116863176D01*
X128607293Y-116910131D01*
X128514821Y-117016644D01*
X128462314Y-117314432D01*
X128512779Y-117446148D01*
X128573747Y-117518307D01*
X128706182Y-117603068D01*
X128992058Y-117653476D01*
X129145498Y-117619122D01*
X129227468Y-117572167D01*
X129319940Y-117465654D01*
X122180041Y-136226075D02*
X122383946Y-136323438D01*
X122741290Y-136386448D01*
X122894730Y-136352094D01*
X122976700Y-136305138D01*
X123069173Y-136198625D01*
X123090176Y-136079511D01*
X123039710Y-135947793D01*
X122978743Y-135875634D01*
X122846306Y-135790873D01*
X122570932Y-135680908D01*
X122438496Y-135596147D01*
X122377529Y-135523987D01*
X122327063Y-135392271D01*
X122348066Y-135273156D01*
X122440538Y-135166643D01*
X122522509Y-135119688D01*
X122675948Y-135085334D01*
X123033293Y-135148344D01*
X123237198Y-135245707D01*
X123747982Y-135274363D02*
X124677078Y-135438187D01*
X124092783Y-135826433D01*
X124307190Y-135864239D01*
X124439626Y-135949001D01*
X124500593Y-136021160D01*
X124551059Y-136152876D01*
X124498551Y-136450663D01*
X124406079Y-136557176D01*
X124324108Y-136604132D01*
X124170669Y-136638486D01*
X123741856Y-136562874D01*
X123609420Y-136478113D01*
X123548452Y-136405953D01*
X125606174Y-135602012D02*
X125749112Y-135627216D01*
X125881549Y-135711977D01*
X125942515Y-135784136D01*
X125992981Y-135915853D01*
X126022444Y-136166684D01*
X125969936Y-136464471D01*
X125856460Y-136690099D01*
X125763989Y-136796612D01*
X125682018Y-136843568D01*
X125528579Y-136877922D01*
X125385641Y-136852718D01*
X125253205Y-136767957D01*
X125192238Y-136695797D01*
X125141771Y-136564080D01*
X125112309Y-136313249D01*
X125164817Y-136015461D01*
X125278292Y-135789834D01*
X125370765Y-135683321D01*
X125452735Y-135636365D01*
X125606174Y-135602012D01*
X222179576Y-80599610D02*
X222404484Y-80621361D01*
X222761828Y-80558352D01*
X222894265Y-80473591D01*
X222955232Y-80401431D01*
X223005698Y-80269714D01*
X222984695Y-80150600D01*
X222892222Y-80044086D01*
X222810252Y-79997131D01*
X222656813Y-79962778D01*
X222360435Y-79953628D01*
X222206997Y-79919274D01*
X222125025Y-79872318D01*
X222032554Y-79765806D01*
X222011551Y-79646691D01*
X222062016Y-79514974D01*
X222122984Y-79442815D01*
X222255419Y-79358054D01*
X222612765Y-79295044D01*
X222837673Y-79316796D01*
X223327454Y-79169025D02*
X224256550Y-79005200D01*
X223840280Y-79569873D01*
X224054686Y-79532067D01*
X224208126Y-79566421D01*
X224290096Y-79613377D01*
X224382569Y-79719889D01*
X224435077Y-80017676D01*
X224384610Y-80149393D01*
X224323643Y-80221553D01*
X224191207Y-80306314D01*
X223762394Y-80381925D01*
X223608955Y-80347572D01*
X223526983Y-80300616D01*
X224849305Y-79023500D02*
X224910272Y-78951341D01*
X225042708Y-78866579D01*
X225400052Y-78803570D01*
X225553492Y-78837923D01*
X225635462Y-78884879D01*
X225727935Y-78991392D01*
X225748938Y-79110507D01*
X225708973Y-79301781D01*
X224977365Y-80167693D01*
X225906461Y-80003868D01*
X225487574Y-99360198D02*
X225712482Y-99381949D01*
X226069826Y-99318940D01*
X226202263Y-99234179D01*
X226263230Y-99162019D01*
X226313696Y-99030302D01*
X226292693Y-98911188D01*
X226200220Y-98804674D01*
X226118250Y-98757719D01*
X225964811Y-98723366D01*
X225668433Y-98714216D01*
X225514995Y-98679862D01*
X225433023Y-98632906D01*
X225340552Y-98526394D01*
X225319549Y-98407279D01*
X225370014Y-98275562D01*
X225430982Y-98203403D01*
X225563417Y-98118642D01*
X225920763Y-98055632D01*
X226145671Y-98077384D01*
X226635452Y-97929613D02*
X227564548Y-97765788D01*
X227148278Y-98330461D01*
X227362684Y-98292655D01*
X227516124Y-98327009D01*
X227598094Y-98373965D01*
X227690567Y-98480477D01*
X227743075Y-98778264D01*
X227692608Y-98909981D01*
X227631641Y-98982141D01*
X227499205Y-99066902D01*
X227070392Y-99142513D01*
X226916953Y-99108160D01*
X226834981Y-99061204D01*
X228064830Y-97677575D02*
X228993926Y-97513750D01*
X228577656Y-98078423D01*
X228792063Y-98040617D01*
X228945503Y-98074971D01*
X229027473Y-98121927D01*
X229119945Y-98228439D01*
X229172453Y-98526226D01*
X229121987Y-98657943D01*
X229061020Y-98730103D01*
X228928584Y-98814864D01*
X228499771Y-98890475D01*
X228346331Y-98856122D01*
X228264360Y-98809166D01*
X228795572Y-118120786D02*
X229020480Y-118142537D01*
X229377824Y-118079528D01*
X229510261Y-117994767D01*
X229571228Y-117922607D01*
X229621694Y-117790890D01*
X229600691Y-117671776D01*
X229508218Y-117565262D01*
X229426248Y-117518307D01*
X229272809Y-117483954D01*
X228976431Y-117474804D01*
X228822993Y-117440450D01*
X228741021Y-117393494D01*
X228648550Y-117286982D01*
X228627547Y-117167867D01*
X228678012Y-117036150D01*
X228738980Y-116963991D01*
X228871415Y-116879230D01*
X229228761Y-116816220D01*
X229453669Y-116837972D01*
X229943450Y-116690201D02*
X230872546Y-116526376D01*
X230456276Y-117091049D01*
X230670682Y-117053243D01*
X230824122Y-117087597D01*
X230906092Y-117134553D01*
X230998565Y-117241065D01*
X231051073Y-117538852D01*
X231000606Y-117670569D01*
X230939639Y-117742729D01*
X230807203Y-117827490D01*
X230378390Y-117903101D01*
X230224951Y-117868748D01*
X230142979Y-117821792D01*
X232232497Y-116716444D02*
X232379519Y-117550248D01*
X231791140Y-116302994D02*
X231591320Y-117259364D01*
X232520415Y-117095540D01*
X232103570Y-136881374D02*
X232328478Y-136903125D01*
X232685822Y-136840116D01*
X232818259Y-136755355D01*
X232879226Y-136683195D01*
X232929692Y-136551478D01*
X232908689Y-136432364D01*
X232816216Y-136325850D01*
X232734246Y-136278895D01*
X232580807Y-136244542D01*
X232284429Y-136235392D01*
X232130991Y-136201038D01*
X232049019Y-136154082D01*
X231956548Y-136047570D01*
X231935545Y-135928455D01*
X231986010Y-135796738D01*
X232046978Y-135724579D01*
X232179413Y-135639818D01*
X232536759Y-135576808D01*
X232761667Y-135598560D01*
X233251448Y-135450789D02*
X234180544Y-135286964D01*
X233764274Y-135851637D01*
X233978680Y-135813831D01*
X234132120Y-135848185D01*
X234214090Y-135895141D01*
X234306563Y-136001653D01*
X234359071Y-136299440D01*
X234308604Y-136431157D01*
X234247637Y-136503317D01*
X234115201Y-136588078D01*
X233686388Y-136663689D01*
X233532949Y-136629336D01*
X233450977Y-136582380D01*
X235538453Y-135047528D02*
X234823764Y-135173547D01*
X234857311Y-135781723D01*
X234918278Y-135709564D01*
X235050715Y-135624802D01*
X235408059Y-135561793D01*
X235561499Y-135596147D01*
X235643469Y-135643103D01*
X235735941Y-135749615D01*
X235788449Y-136047402D01*
X235737983Y-136179119D01*
X235677016Y-136251279D01*
X235544580Y-136336040D01*
X235187235Y-136399049D01*
X235033796Y-136364696D01*
X234951825Y-136317740D01*
X237111222Y-55576601D02*
X237336130Y-55598352D01*
X237693474Y-55535343D01*
X237825911Y-55450582D01*
X237886878Y-55378422D01*
X237937344Y-55246705D01*
X237916341Y-55127591D01*
X237823868Y-55021077D01*
X237741898Y-54974122D01*
X237588459Y-54939769D01*
X237292081Y-54930619D01*
X237138643Y-54896265D01*
X237056671Y-54849309D01*
X236964200Y-54742797D01*
X236943197Y-54623682D01*
X236993662Y-54491965D01*
X237054630Y-54419806D01*
X237187065Y-54335045D01*
X237544411Y-54272035D01*
X237769319Y-54293787D01*
X238259100Y-54146016D02*
X239188196Y-53982191D01*
X238771926Y-54546864D01*
X238986332Y-54509058D01*
X239139772Y-54543412D01*
X239221742Y-54590368D01*
X239314215Y-54696880D01*
X239366723Y-54994667D01*
X239316256Y-55126384D01*
X239255289Y-55198544D01*
X239122853Y-55283305D01*
X238694040Y-55358916D01*
X238540601Y-55324563D01*
X238458629Y-55277607D01*
X240474636Y-53755357D02*
X240188760Y-53805765D01*
X240056324Y-53890526D01*
X239995357Y-53962685D01*
X239883924Y-54166561D01*
X239854462Y-54417393D01*
X239938474Y-54893852D01*
X240030946Y-55000365D01*
X240112917Y-55047321D01*
X240266356Y-55081675D01*
X240552232Y-55031267D01*
X240684668Y-54946506D01*
X240745635Y-54874346D01*
X240796101Y-54742629D01*
X240743593Y-54444842D01*
X240651121Y-54338330D01*
X240569151Y-54291374D01*
X240415711Y-54257020D01*
X240129835Y-54307428D01*
X239997400Y-54392189D01*
X239936432Y-54464349D01*
X239885966Y-54596065D01*
X240419220Y-74337189D02*
X240644128Y-74358940D01*
X241001472Y-74295931D01*
X241133909Y-74211170D01*
X241194876Y-74139010D01*
X241245342Y-74007293D01*
X241224339Y-73888179D01*
X241131866Y-73781665D01*
X241049896Y-73734710D01*
X240896457Y-73700357D01*
X240600079Y-73691207D01*
X240446641Y-73656853D01*
X240364669Y-73609897D01*
X240272198Y-73503385D01*
X240251195Y-73384270D01*
X240301660Y-73252553D01*
X240362628Y-73180394D01*
X240495063Y-73095633D01*
X240852409Y-73032623D01*
X241077317Y-73054375D01*
X241567098Y-72906604D02*
X242496194Y-72742779D01*
X242079924Y-73307452D01*
X242294330Y-73269646D01*
X242447770Y-73304000D01*
X242529740Y-73350956D01*
X242622213Y-73457468D01*
X242674721Y-73755255D01*
X242624254Y-73886972D01*
X242563287Y-73959132D01*
X242430851Y-74043893D01*
X242002038Y-74119504D01*
X241848599Y-74085151D01*
X241766627Y-74038195D01*
X242996476Y-72654566D02*
X243997041Y-72478140D01*
X243574354Y-73842263D01*
X243727218Y-93097777D02*
X243952126Y-93119528D01*
X244309470Y-93056519D01*
X244441907Y-92971758D01*
X244502874Y-92899598D01*
X244553340Y-92767881D01*
X244532337Y-92648767D01*
X244439864Y-92542253D01*
X244357894Y-92495298D01*
X244204455Y-92460945D01*
X243908077Y-92451795D01*
X243754639Y-92417441D01*
X243672667Y-92370485D01*
X243580196Y-92263973D01*
X243559193Y-92144858D01*
X243609658Y-92013141D01*
X243670626Y-91940982D01*
X243803061Y-91856221D01*
X244160407Y-91793211D01*
X244385315Y-91814963D01*
X244875096Y-91667192D02*
X245804192Y-91503367D01*
X245387922Y-92068040D01*
X245602328Y-92030234D01*
X245755768Y-92064588D01*
X245837738Y-92111544D01*
X245930211Y-92218056D01*
X245982719Y-92515843D01*
X245932252Y-92647560D01*
X245871285Y-92719720D01*
X245738849Y-92804481D01*
X245310036Y-92880092D01*
X245156597Y-92845739D01*
X245074625Y-92798783D01*
X246756333Y-91888162D02*
X246602894Y-91853807D01*
X246520923Y-91806852D01*
X246428451Y-91700339D01*
X246417950Y-91640782D01*
X246468415Y-91509065D01*
X246529383Y-91436906D01*
X246661818Y-91352145D01*
X246947694Y-91301737D01*
X247101134Y-91336090D01*
X247183104Y-91383046D01*
X247275577Y-91489559D01*
X247286078Y-91549117D01*
X247235612Y-91680833D01*
X247174645Y-91752992D01*
X247042209Y-91837754D01*
X246756333Y-91888162D01*
X246623897Y-91972923D01*
X246562929Y-92045082D01*
X246512464Y-92176798D01*
X246554470Y-92415028D01*
X246646942Y-92521541D01*
X246728913Y-92568497D01*
X246882352Y-92602851D01*
X247168228Y-92552443D01*
X247300664Y-92467682D01*
X247361631Y-92395522D01*
X247412097Y-92263805D01*
X247370091Y-92025575D01*
X247277618Y-91919063D01*
X247195648Y-91872108D01*
X247042209Y-91837754D01*
X247035216Y-111858365D02*
X247260124Y-111880116D01*
X247617468Y-111817107D01*
X247749905Y-111732346D01*
X247810872Y-111660186D01*
X247861338Y-111528469D01*
X247840335Y-111409355D01*
X247747862Y-111302841D01*
X247665892Y-111255886D01*
X247512453Y-111221533D01*
X247216075Y-111212383D01*
X247062637Y-111178029D01*
X246980665Y-111131073D01*
X246888194Y-111024561D01*
X246867191Y-110905446D01*
X246917656Y-110773729D01*
X246978624Y-110701570D01*
X247111059Y-110616809D01*
X247468405Y-110553799D01*
X247693313Y-110575551D01*
X248183094Y-110427780D02*
X249112190Y-110263955D01*
X248695920Y-110828628D01*
X248910326Y-110790822D01*
X249063766Y-110825176D01*
X249145736Y-110872132D01*
X249238209Y-110978644D01*
X249290717Y-111276431D01*
X249240250Y-111408148D01*
X249179283Y-111480308D01*
X249046847Y-111565069D01*
X248618034Y-111640680D01*
X248464595Y-111606327D01*
X248382623Y-111559371D01*
X250047413Y-111388642D02*
X250333288Y-111338235D01*
X250465724Y-111253474D01*
X250526692Y-111181313D01*
X250638124Y-110977438D01*
X250667587Y-110726606D01*
X250583575Y-110250147D01*
X250491102Y-110143634D01*
X250409132Y-110096678D01*
X250255692Y-110062325D01*
X249969816Y-110112733D01*
X249837381Y-110197494D01*
X249776413Y-110269653D01*
X249725948Y-110401370D01*
X249778456Y-110699157D01*
X249870927Y-110805670D01*
X249952898Y-110852625D01*
X250106337Y-110886979D01*
X250392213Y-110836571D01*
X250524649Y-110751810D01*
X250585616Y-110679651D01*
X250636083Y-110547934D01*
X250343214Y-130618953D02*
X250568122Y-130640704D01*
X250925466Y-130577695D01*
X251057903Y-130492934D01*
X251118870Y-130420774D01*
X251169336Y-130289057D01*
X251148333Y-130169943D01*
X251055860Y-130063429D01*
X250973890Y-130016474D01*
X250820451Y-129982121D01*
X250524073Y-129972971D01*
X250370635Y-129938617D01*
X250288663Y-129891661D01*
X250196192Y-129785149D01*
X250175189Y-129666034D01*
X250225654Y-129534317D01*
X250286622Y-129462158D01*
X250419057Y-129377397D01*
X250776403Y-129314387D01*
X251001311Y-129336139D01*
X252350761Y-129466649D02*
X252497783Y-130300453D01*
X251909404Y-129053199D02*
X251709583Y-130009569D01*
X252638678Y-129845745D01*
X253349284Y-128860719D02*
X253492222Y-128835515D01*
X253645661Y-128869868D01*
X253727631Y-128916824D01*
X253820103Y-129023337D01*
X253933579Y-129248964D01*
X253986087Y-129546751D01*
X253956624Y-129797583D01*
X253906158Y-129929300D01*
X253845191Y-130001460D01*
X253712755Y-130086221D01*
X253569817Y-130111425D01*
X253416378Y-130077071D01*
X253334407Y-130030115D01*
X253241935Y-129923602D01*
X253128460Y-129697974D01*
X253075952Y-129400187D01*
X253105414Y-129149356D01*
X253155881Y-129017639D01*
X253216848Y-128945480D01*
X253349284Y-128860719D01*
X255350866Y-49314180D02*
X255575774Y-49335931D01*
X255933118Y-49272922D01*
X256065555Y-49188161D01*
X256126522Y-49116001D01*
X256176988Y-48984284D01*
X256155985Y-48865170D01*
X256063512Y-48758656D01*
X255981542Y-48711701D01*
X255828103Y-48677348D01*
X255531725Y-48668198D01*
X255378287Y-48633844D01*
X255296315Y-48586888D01*
X255203844Y-48480376D01*
X255182841Y-48361261D01*
X255233306Y-48229544D01*
X255294274Y-48157385D01*
X255426709Y-48072624D01*
X255784055Y-48009614D01*
X256008963Y-48031366D01*
X257358413Y-48161876D02*
X257505435Y-48995680D01*
X256917056Y-47748426D02*
X256717235Y-48704796D01*
X257646330Y-48540972D01*
X259077751Y-48718438D02*
X258220125Y-48869661D01*
X258648938Y-48794050D02*
X258428404Y-47543344D01*
X258316971Y-47747219D01*
X258195037Y-47891538D01*
X258062601Y-47976300D01*
X258658864Y-68074768D02*
X258883772Y-68096519D01*
X259241116Y-68033510D01*
X259373553Y-67948749D01*
X259434520Y-67876589D01*
X259484986Y-67744872D01*
X259463983Y-67625758D01*
X259371510Y-67519244D01*
X259289540Y-67472289D01*
X259136101Y-67437936D01*
X258839723Y-67428786D01*
X258686285Y-67394432D01*
X258604313Y-67347476D01*
X258511842Y-67240964D01*
X258490839Y-67121849D01*
X258541304Y-66990132D01*
X258602272Y-66917973D01*
X258734707Y-66833212D01*
X259092053Y-66770202D01*
X259316961Y-66791954D01*
X260666411Y-66922464D02*
X260813433Y-67756268D01*
X260225054Y-66509014D02*
X260025233Y-67465384D01*
X260954328Y-67301560D01*
X261328593Y-66498658D02*
X261389560Y-66426499D01*
X261521996Y-66341737D01*
X261879340Y-66278728D01*
X262032780Y-66313081D01*
X262114750Y-66360037D01*
X262207223Y-66466550D01*
X262228226Y-66585665D01*
X262188261Y-66776939D01*
X261456653Y-67642851D01*
X262385749Y-67479026D01*
X261966862Y-86835356D02*
X262191770Y-86857107D01*
X262549114Y-86794098D01*
X262681551Y-86709337D01*
X262742518Y-86637177D01*
X262792984Y-86505460D01*
X262771981Y-86386346D01*
X262679508Y-86279832D01*
X262597538Y-86232877D01*
X262444099Y-86198524D01*
X262147721Y-86189374D01*
X261994283Y-86155020D01*
X261912311Y-86108064D01*
X261819840Y-86001552D01*
X261798837Y-85882437D01*
X261849302Y-85750720D01*
X261910270Y-85678561D01*
X262042705Y-85593800D01*
X262400051Y-85530790D01*
X262624959Y-85552542D01*
X263974409Y-85683052D02*
X264121431Y-86516856D01*
X263533052Y-85269602D02*
X263333231Y-86225972D01*
X264262326Y-86062148D01*
X264544118Y-85152733D02*
X265473214Y-84988908D01*
X265056944Y-85553581D01*
X265271351Y-85515775D01*
X265424791Y-85550129D01*
X265506761Y-85597085D01*
X265599233Y-85703597D01*
X265651741Y-86001384D01*
X265601275Y-86133101D01*
X265540308Y-86205261D01*
X265407872Y-86290022D01*
X264979059Y-86365633D01*
X264825619Y-86331280D01*
X264743648Y-86284324D01*
X265274860Y-105595944D02*
X265499768Y-105617695D01*
X265857112Y-105554686D01*
X265989549Y-105469925D01*
X266050516Y-105397765D01*
X266100982Y-105266048D01*
X266079979Y-105146934D01*
X265987506Y-105040420D01*
X265905536Y-104993465D01*
X265752097Y-104959112D01*
X265455719Y-104949962D01*
X265302281Y-104915608D01*
X265220309Y-104868652D01*
X265127838Y-104762140D01*
X265106835Y-104643025D01*
X265157300Y-104511308D01*
X265218268Y-104439149D01*
X265350703Y-104354388D01*
X265708049Y-104291378D01*
X265932957Y-104313130D01*
X267282407Y-104443640D02*
X267429429Y-105277444D01*
X266841050Y-104030190D02*
X266641229Y-104986560D01*
X267570324Y-104822736D01*
X268711785Y-104191602D02*
X268858807Y-105025406D01*
X268270428Y-103778152D02*
X268070608Y-104734522D01*
X268999703Y-104570698D01*
X268582858Y-124356532D02*
X268807766Y-124378283D01*
X269165110Y-124315274D01*
X269297547Y-124230513D01*
X269358514Y-124158353D01*
X269408980Y-124026636D01*
X269387977Y-123907522D01*
X269295504Y-123801008D01*
X269213534Y-123754053D01*
X269060095Y-123719700D01*
X268763717Y-123710550D01*
X268610279Y-123676196D01*
X268528307Y-123629240D01*
X268435836Y-123522728D01*
X268414833Y-123403613D01*
X268465298Y-123271896D01*
X268526266Y-123199737D01*
X268658701Y-123114976D01*
X269016047Y-123051966D01*
X269240955Y-123073718D01*
X270590405Y-123204228D02*
X270737427Y-124038032D01*
X270149048Y-122790778D02*
X269949227Y-123747148D01*
X270878322Y-123583324D01*
X272017741Y-122522686D02*
X271303052Y-122648705D01*
X271336599Y-123256881D01*
X271397566Y-123184722D01*
X271530003Y-123099960D01*
X271887347Y-123036951D01*
X272040787Y-123071305D01*
X272122757Y-123118261D01*
X272215229Y-123224773D01*
X272267737Y-123522560D01*
X272217271Y-123654277D01*
X272156304Y-123726437D01*
X272023868Y-123811198D01*
X271666523Y-123874207D01*
X271513084Y-123839854D01*
X271431113Y-123792898D01*
X274632399Y-48960606D02*
X274857307Y-48982357D01*
X275214651Y-48919348D01*
X275347088Y-48834587D01*
X275408055Y-48762427D01*
X275458521Y-48630710D01*
X275437518Y-48511596D01*
X275345045Y-48405082D01*
X275263075Y-48358127D01*
X275109636Y-48323774D01*
X274813258Y-48314624D01*
X274659820Y-48280270D01*
X274577848Y-48233314D01*
X274485377Y-48126802D01*
X274464374Y-48007687D01*
X274514839Y-47875970D01*
X274575807Y-47803811D01*
X274708242Y-47719050D01*
X275065588Y-47656040D01*
X275290496Y-47677792D01*
X276639946Y-47808302D02*
X276786968Y-48642106D01*
X276198589Y-47394852D02*
X275998768Y-48351222D01*
X276927863Y-48187398D01*
X277995813Y-47139362D02*
X277709937Y-47189770D01*
X277577501Y-47274531D01*
X277516534Y-47346690D01*
X277405101Y-47550566D01*
X277375639Y-47801398D01*
X277459651Y-48277857D01*
X277552123Y-48384370D01*
X277634094Y-48431326D01*
X277787533Y-48465680D01*
X278073409Y-48415272D01*
X278205845Y-48330511D01*
X278266812Y-48258351D01*
X278317278Y-48126634D01*
X278264770Y-47828847D01*
X278172298Y-47722335D01*
X278090328Y-47675379D01*
X277936888Y-47641025D01*
X277651012Y-47691433D01*
X277518577Y-47776194D01*
X277457609Y-47848354D01*
X277407143Y-47980070D01*
X277940397Y-67721194D02*
X278165305Y-67742945D01*
X278522649Y-67679936D01*
X278655086Y-67595175D01*
X278716053Y-67523015D01*
X278766519Y-67391298D01*
X278745516Y-67272184D01*
X278653043Y-67165670D01*
X278571073Y-67118715D01*
X278417634Y-67084362D01*
X278121256Y-67075212D01*
X277967818Y-67040858D01*
X277885846Y-66993902D01*
X277793375Y-66887390D01*
X277772372Y-66768275D01*
X277822837Y-66636558D01*
X277883805Y-66564399D01*
X278016240Y-66479638D01*
X278373586Y-66416628D01*
X278598494Y-66438380D01*
X279947944Y-66568890D02*
X280094966Y-67402694D01*
X279506587Y-66155440D02*
X279306766Y-67111810D01*
X280235861Y-66947986D01*
X280517653Y-66038571D02*
X281518218Y-65862145D01*
X281095531Y-67226268D01*
X281248395Y-86481782D02*
X281473303Y-86503533D01*
X281830647Y-86440524D01*
X281963084Y-86355763D01*
X282024051Y-86283603D01*
X282074517Y-86151886D01*
X282053514Y-86032772D01*
X281961041Y-85926258D01*
X281879071Y-85879303D01*
X281725632Y-85844950D01*
X281429254Y-85835800D01*
X281275816Y-85801446D01*
X281193844Y-85754490D01*
X281101373Y-85647978D01*
X281080370Y-85528863D01*
X281130835Y-85397146D01*
X281191803Y-85324987D01*
X281324238Y-85240226D01*
X281681584Y-85177216D01*
X281906492Y-85198968D01*
X283255942Y-85329478D02*
X283402964Y-86163282D01*
X282814585Y-84916028D02*
X282614764Y-85872398D01*
X283543859Y-85708574D01*
X284277510Y-85272167D02*
X284124071Y-85237812D01*
X284042100Y-85190857D01*
X283949628Y-85084344D01*
X283939127Y-85024787D01*
X283989592Y-84893070D01*
X284050560Y-84820911D01*
X284182995Y-84736150D01*
X284468871Y-84685742D01*
X284622311Y-84720095D01*
X284704281Y-84767051D01*
X284796754Y-84873564D01*
X284807255Y-84933122D01*
X284756789Y-85064838D01*
X284695822Y-85136997D01*
X284563386Y-85221759D01*
X284277510Y-85272167D01*
X284145074Y-85356928D01*
X284084106Y-85429087D01*
X284033641Y-85560803D01*
X284075647Y-85799033D01*
X284168119Y-85905546D01*
X284250090Y-85952502D01*
X284403529Y-85986856D01*
X284689405Y-85936448D01*
X284821841Y-85851687D01*
X284882808Y-85779527D01*
X284933274Y-85647810D01*
X284891268Y-85409580D01*
X284798795Y-85303068D01*
X284716825Y-85256113D01*
X284563386Y-85221759D01*
X284556393Y-105242370D02*
X284781301Y-105264121D01*
X285138645Y-105201112D01*
X285271082Y-105116351D01*
X285332049Y-105044191D01*
X285382515Y-104912474D01*
X285361512Y-104793360D01*
X285269039Y-104686846D01*
X285187069Y-104639891D01*
X285033630Y-104605538D01*
X284737252Y-104596388D01*
X284583814Y-104562034D01*
X284501842Y-104515078D01*
X284409371Y-104408566D01*
X284388368Y-104289451D01*
X284438833Y-104157734D01*
X284499801Y-104085575D01*
X284632236Y-104000814D01*
X284989582Y-103937804D01*
X285214490Y-103959556D01*
X286563940Y-104090066D02*
X286710962Y-104923870D01*
X286122583Y-103676616D02*
X285922762Y-104632986D01*
X286851857Y-104469162D01*
X287568590Y-104772647D02*
X287854465Y-104722240D01*
X287986901Y-104637479D01*
X288047869Y-104565318D01*
X288159301Y-104361443D01*
X288188764Y-104110611D01*
X288104752Y-103634152D01*
X288012279Y-103527639D01*
X287930309Y-103480683D01*
X287776869Y-103446330D01*
X287490993Y-103496738D01*
X287358558Y-103581499D01*
X287297590Y-103653658D01*
X287247125Y-103785375D01*
X287299633Y-104083162D01*
X287392104Y-104189675D01*
X287474075Y-104236630D01*
X287627514Y-104270984D01*
X287913390Y-104220576D01*
X288045826Y-104135815D01*
X288106793Y-104063656D01*
X288157260Y-103931939D01*
X287864391Y-124002958D02*
X288089299Y-124024709D01*
X288446643Y-123961700D01*
X288579080Y-123876939D01*
X288640047Y-123804779D01*
X288690513Y-123673062D01*
X288669510Y-123553948D01*
X288577037Y-123447434D01*
X288495067Y-123400479D01*
X288341628Y-123366126D01*
X288045250Y-123356976D01*
X287891812Y-123322622D01*
X287809840Y-123275666D01*
X287717369Y-123169154D01*
X287696366Y-123050039D01*
X287746831Y-122918322D01*
X287807799Y-122846163D01*
X287940234Y-122761402D01*
X288297580Y-122698392D01*
X288522488Y-122720144D01*
X289869895Y-122421150D02*
X289155206Y-122547169D01*
X289188754Y-123155345D01*
X289249721Y-123083186D01*
X289382157Y-122998424D01*
X289739501Y-122935415D01*
X289892941Y-122969769D01*
X289974911Y-123016725D01*
X290067384Y-123123237D01*
X290119892Y-123421024D01*
X290069425Y-123552741D01*
X290008458Y-123624901D01*
X289876022Y-123709662D01*
X289518678Y-123772671D01*
X289365238Y-123738318D01*
X289283268Y-123691362D01*
X290870461Y-122244724D02*
X291013399Y-122219520D01*
X291166838Y-122253873D01*
X291248808Y-122300829D01*
X291341280Y-122407342D01*
X291454756Y-122632969D01*
X291507264Y-122930756D01*
X291477801Y-123181588D01*
X291427335Y-123313305D01*
X291366368Y-123385465D01*
X291233932Y-123470226D01*
X291090994Y-123495430D01*
X290937555Y-123461076D01*
X290855584Y-123414120D01*
X290763112Y-123307607D01*
X290649637Y-123081979D01*
X290597129Y-122784192D01*
X290626591Y-122533361D01*
X290677058Y-122401644D01*
X290738025Y-122329485D01*
X290870461Y-122244724D01*
X293913932Y-48607032D02*
X294138840Y-48628783D01*
X294496184Y-48565774D01*
X294628621Y-48481013D01*
X294689588Y-48408853D01*
X294740054Y-48277136D01*
X294719051Y-48158022D01*
X294626578Y-48051508D01*
X294544608Y-48004553D01*
X294391169Y-47970200D01*
X294094791Y-47961050D01*
X293941353Y-47926696D01*
X293859381Y-47879740D01*
X293766910Y-47773228D01*
X293745907Y-47654113D01*
X293796372Y-47522396D01*
X293857340Y-47450237D01*
X293989775Y-47365476D01*
X294347121Y-47302466D01*
X294572029Y-47324218D01*
X295919436Y-47025224D02*
X295204747Y-47151243D01*
X295238295Y-47759419D01*
X295299262Y-47687260D01*
X295431698Y-47602498D01*
X295789042Y-47539489D01*
X295942482Y-47573843D01*
X296024452Y-47620799D01*
X296116925Y-47727311D01*
X296169433Y-48025098D01*
X296118966Y-48156815D01*
X296057999Y-48228975D01*
X295925563Y-48313736D01*
X295568219Y-48376745D01*
X295414779Y-48342392D01*
X295332809Y-48295436D01*
X297640817Y-48011290D02*
X296783191Y-48162513D01*
X297212004Y-48086902D02*
X296991470Y-46836196D01*
X296880037Y-47040071D01*
X296758103Y-47184390D01*
X296625667Y-47269152D01*
X297221930Y-67367620D02*
X297446838Y-67389371D01*
X297804182Y-67326362D01*
X297936619Y-67241601D01*
X297997586Y-67169441D01*
X298048052Y-67037724D01*
X298027049Y-66918610D01*
X297934576Y-66812096D01*
X297852606Y-66765141D01*
X297699167Y-66730788D01*
X297402789Y-66721638D01*
X297249351Y-66687284D01*
X297167379Y-66640328D01*
X297074908Y-66533816D01*
X297053905Y-66414701D01*
X297104370Y-66282984D01*
X297165338Y-66210825D01*
X297297773Y-66126064D01*
X297655119Y-66063054D01*
X297880027Y-66084806D01*
X299227434Y-65785812D02*
X298512745Y-65911831D01*
X298546293Y-66520007D01*
X298607260Y-66447848D01*
X298739696Y-66363086D01*
X299097040Y-66300077D01*
X299250480Y-66334431D01*
X299332450Y-66381387D01*
X299424923Y-66487899D01*
X299477431Y-66785686D01*
X299426964Y-66917403D01*
X299365997Y-66989563D01*
X299233561Y-67074324D01*
X298876217Y-67137333D01*
X298722777Y-67102980D01*
X298640807Y-67056024D01*
X299891659Y-65791510D02*
X299952626Y-65719351D01*
X300085062Y-65634589D01*
X300442406Y-65571580D01*
X300595846Y-65605933D01*
X300677816Y-65652889D01*
X300770289Y-65759402D01*
X300791292Y-65878517D01*
X300751327Y-66069791D01*
X300019719Y-66935703D01*
X300948815Y-66771878D01*
X300529928Y-86128208D02*
X300754836Y-86149959D01*
X301112180Y-86086950D01*
X301244617Y-86002189D01*
X301305584Y-85930029D01*
X301356050Y-85798312D01*
X301335047Y-85679198D01*
X301242574Y-85572684D01*
X301160604Y-85525729D01*
X301007165Y-85491376D01*
X300710787Y-85482226D01*
X300557349Y-85447872D01*
X300475377Y-85400916D01*
X300382906Y-85294404D01*
X300361903Y-85175289D01*
X300412368Y-85043572D01*
X300473336Y-84971413D01*
X300605771Y-84886652D01*
X300963117Y-84823642D01*
X301188025Y-84845394D01*
X302535432Y-84546400D02*
X301820743Y-84672419D01*
X301854291Y-85280595D01*
X301915258Y-85208436D01*
X302047694Y-85123674D01*
X302405038Y-85060665D01*
X302558478Y-85095019D01*
X302640448Y-85141975D01*
X302732921Y-85248487D01*
X302785429Y-85546274D01*
X302734962Y-85677991D01*
X302673995Y-85750151D01*
X302541559Y-85834912D01*
X302184215Y-85897921D01*
X302030775Y-85863568D01*
X301948805Y-85816612D01*
X303107184Y-84445585D02*
X304036280Y-84281760D01*
X303620010Y-84846433D01*
X303834417Y-84808627D01*
X303987857Y-84842981D01*
X304069827Y-84889937D01*
X304162299Y-84996449D01*
X304214807Y-85294236D01*
X304164341Y-85425953D01*
X304103374Y-85498113D01*
X303970938Y-85582874D01*
X303542125Y-85658485D01*
X303388685Y-85624132D01*
X303306714Y-85577176D01*
X303837926Y-104888796D02*
X304062834Y-104910547D01*
X304420178Y-104847538D01*
X304552615Y-104762777D01*
X304613582Y-104690617D01*
X304664048Y-104558900D01*
X304643045Y-104439786D01*
X304550572Y-104333272D01*
X304468602Y-104286317D01*
X304315163Y-104251964D01*
X304018785Y-104242814D01*
X303865347Y-104208460D01*
X303783375Y-104161504D01*
X303690904Y-104054992D01*
X303669901Y-103935877D01*
X303720366Y-103804160D01*
X303781334Y-103732001D01*
X303913769Y-103647240D01*
X304271115Y-103584230D01*
X304496023Y-103605982D01*
X305843430Y-103306988D02*
X305128741Y-103433007D01*
X305162289Y-104041183D01*
X305223256Y-103969024D01*
X305355692Y-103884262D01*
X305713036Y-103821253D01*
X305866476Y-103855607D01*
X305948446Y-103902563D01*
X306040919Y-104009075D01*
X306093427Y-104306862D01*
X306042960Y-104438579D01*
X305981993Y-104510739D01*
X305849557Y-104595500D01*
X305492213Y-104658509D01*
X305338773Y-104624156D01*
X305256803Y-104577200D01*
X307274851Y-103484454D02*
X307421873Y-104318258D01*
X306833494Y-103071004D02*
X306633674Y-104027374D01*
X307562769Y-103863550D01*
X307145924Y-123649384D02*
X307370832Y-123671135D01*
X307728176Y-123608126D01*
X307860613Y-123523365D01*
X307921580Y-123451205D01*
X307972046Y-123319488D01*
X307951043Y-123200374D01*
X307858570Y-123093860D01*
X307776600Y-123046905D01*
X307623161Y-123012552D01*
X307326783Y-123003402D01*
X307173345Y-122969048D01*
X307091373Y-122922092D01*
X306998902Y-122815580D01*
X306977899Y-122696465D01*
X307028364Y-122564748D01*
X307089332Y-122492589D01*
X307221767Y-122407828D01*
X307579113Y-122344818D01*
X307804021Y-122366570D01*
X309151428Y-122067576D02*
X308436739Y-122193595D01*
X308470287Y-122801771D01*
X308531254Y-122729612D01*
X308663690Y-122644850D01*
X309021034Y-122581841D01*
X309174474Y-122616195D01*
X309256444Y-122663151D01*
X309348917Y-122769663D01*
X309401425Y-123067450D01*
X309350958Y-123199167D01*
X309289991Y-123271327D01*
X309157555Y-123356088D01*
X308800211Y-123419097D01*
X308646771Y-123384744D01*
X308564801Y-123337788D01*
X310580807Y-121815538D02*
X309866118Y-121941557D01*
X309899665Y-122549733D01*
X309960632Y-122477574D01*
X310093069Y-122392812D01*
X310450413Y-122329803D01*
X310603853Y-122364157D01*
X310685823Y-122411113D01*
X310778295Y-122517625D01*
X310830803Y-122815412D01*
X310780337Y-122947129D01*
X310719370Y-123019289D01*
X310586934Y-123104050D01*
X310229589Y-123167059D01*
X310076150Y-123132706D01*
X309994179Y-123085750D01*
X313021817Y-47268650D02*
X313246725Y-47290401D01*
X313604069Y-47227392D01*
X313736506Y-47142631D01*
X313797473Y-47070471D01*
X313847939Y-46938754D01*
X313826936Y-46819640D01*
X313734463Y-46713126D01*
X313652493Y-46666171D01*
X313499054Y-46631818D01*
X313202676Y-46622668D01*
X313049238Y-46588314D01*
X312967266Y-46541358D01*
X312874795Y-46434846D01*
X312853792Y-46315731D01*
X312904257Y-46184014D01*
X312965225Y-46111855D01*
X313097660Y-46027094D01*
X313455006Y-45964084D01*
X313679914Y-45985836D01*
X315027321Y-45686842D02*
X314312632Y-45812861D01*
X314346180Y-46421037D01*
X314407147Y-46348878D01*
X314539583Y-46264116D01*
X314896927Y-46201107D01*
X315050367Y-46235461D01*
X315132337Y-46282417D01*
X315224810Y-46388929D01*
X315277318Y-46686716D01*
X315226851Y-46818433D01*
X315165884Y-46890593D01*
X315033448Y-46975354D01*
X314676104Y-47038363D01*
X314522664Y-47004010D01*
X314440694Y-46957054D01*
X316385231Y-45447406D02*
X316099355Y-45497814D01*
X315966919Y-45582575D01*
X315905952Y-45654734D01*
X315794519Y-45858610D01*
X315765057Y-46109442D01*
X315849069Y-46585901D01*
X315941541Y-46692414D01*
X316023512Y-46739370D01*
X316176951Y-46773724D01*
X316462827Y-46723316D01*
X316595263Y-46638555D01*
X316656230Y-46566395D01*
X316706696Y-46434678D01*
X316654188Y-46136891D01*
X316561716Y-46030379D01*
X316479746Y-45983423D01*
X316326306Y-45949069D01*
X316040430Y-45999477D01*
X315907995Y-46084238D01*
X315847027Y-46156398D01*
X315796561Y-46288114D01*
X316329815Y-66029238D02*
X316554723Y-66050989D01*
X316912067Y-65987980D01*
X317044504Y-65903219D01*
X317105471Y-65831059D01*
X317155937Y-65699342D01*
X317134934Y-65580228D01*
X317042461Y-65473714D01*
X316960491Y-65426759D01*
X316807052Y-65392406D01*
X316510674Y-65383256D01*
X316357236Y-65348902D01*
X316275264Y-65301946D01*
X316182793Y-65195434D01*
X316161790Y-65076319D01*
X316212255Y-64944602D01*
X316273223Y-64872443D01*
X316405658Y-64787682D01*
X316763004Y-64724672D01*
X316987912Y-64746424D01*
X318335319Y-64447430D02*
X317620630Y-64573449D01*
X317654178Y-65181625D01*
X317715145Y-65109466D01*
X317847581Y-65024704D01*
X318204925Y-64961695D01*
X318358365Y-64996049D01*
X318440335Y-65043005D01*
X318532808Y-65149517D01*
X318585316Y-65447304D01*
X318534849Y-65579021D01*
X318473882Y-65651181D01*
X318341446Y-65735942D01*
X317984102Y-65798951D01*
X317830662Y-65764598D01*
X317748692Y-65717642D01*
X318907071Y-64346615D02*
X319907636Y-64170189D01*
X319484949Y-65534312D01*
X319637813Y-84789826D02*
X319862721Y-84811577D01*
X320220065Y-84748568D01*
X320352502Y-84663807D01*
X320413469Y-84591647D01*
X320463935Y-84459930D01*
X320442932Y-84340816D01*
X320350459Y-84234302D01*
X320268489Y-84187347D01*
X320115050Y-84152994D01*
X319818672Y-84143844D01*
X319665234Y-84109490D01*
X319583262Y-84062534D01*
X319490791Y-83956022D01*
X319469788Y-83836907D01*
X319520253Y-83705190D01*
X319581221Y-83633031D01*
X319713656Y-83548270D01*
X320071002Y-83485260D01*
X320295910Y-83507012D01*
X321643317Y-83208018D02*
X320928628Y-83334037D01*
X320962176Y-83942213D01*
X321023143Y-83870054D01*
X321155579Y-83785292D01*
X321512923Y-83722283D01*
X321666363Y-83756637D01*
X321748333Y-83803593D01*
X321840806Y-83910105D01*
X321893314Y-84207892D01*
X321842847Y-84339609D01*
X321781880Y-84411769D01*
X321649444Y-84496530D01*
X321292100Y-84559539D01*
X321138660Y-84525186D01*
X321056690Y-84478230D01*
X322666928Y-83580211D02*
X322513489Y-83545856D01*
X322431518Y-83498901D01*
X322339046Y-83392388D01*
X322328545Y-83332831D01*
X322379010Y-83201114D01*
X322439978Y-83128955D01*
X322572413Y-83044194D01*
X322858289Y-82993786D01*
X323011729Y-83028139D01*
X323093699Y-83075095D01*
X323186172Y-83181608D01*
X323196673Y-83241166D01*
X323146207Y-83372882D01*
X323085240Y-83445041D01*
X322952804Y-83529803D01*
X322666928Y-83580211D01*
X322534492Y-83664972D01*
X322473524Y-83737131D01*
X322423059Y-83868847D01*
X322465065Y-84107077D01*
X322557537Y-84213590D01*
X322639508Y-84260546D01*
X322792947Y-84294900D01*
X323078823Y-84244492D01*
X323211259Y-84159731D01*
X323272226Y-84087571D01*
X323322692Y-83955854D01*
X323280686Y-83717624D01*
X323188213Y-83611112D01*
X323106243Y-83564157D01*
X322952804Y-83529803D01*
X322945811Y-103550414D02*
X323170719Y-103572165D01*
X323528063Y-103509156D01*
X323660500Y-103424395D01*
X323721467Y-103352235D01*
X323771933Y-103220518D01*
X323750930Y-103101404D01*
X323658457Y-102994890D01*
X323576487Y-102947935D01*
X323423048Y-102913582D01*
X323126670Y-102904432D01*
X322973232Y-102870078D01*
X322891260Y-102823122D01*
X322798789Y-102716610D01*
X322777786Y-102597495D01*
X322828251Y-102465778D01*
X322889219Y-102393619D01*
X323021654Y-102308858D01*
X323379000Y-102245848D01*
X323603908Y-102267600D01*
X324951315Y-101968606D02*
X324236626Y-102094625D01*
X324270174Y-102702801D01*
X324331141Y-102630642D01*
X324463577Y-102545880D01*
X324820921Y-102482871D01*
X324974361Y-102517225D01*
X325056331Y-102564181D01*
X325148804Y-102670693D01*
X325201312Y-102968480D01*
X325150845Y-103100197D01*
X325089878Y-103172357D01*
X324957442Y-103257118D01*
X324600098Y-103320127D01*
X324446658Y-103285774D01*
X324364688Y-103238818D01*
X325958008Y-103080691D02*
X326243883Y-103030284D01*
X326376319Y-102945523D01*
X326437287Y-102873362D01*
X326548719Y-102669487D01*
X326578182Y-102418655D01*
X326494170Y-101942196D01*
X326401697Y-101835683D01*
X326319727Y-101788727D01*
X326166287Y-101754374D01*
X325880411Y-101804782D01*
X325747976Y-101889543D01*
X325687008Y-101961702D01*
X325636543Y-102093419D01*
X325689051Y-102391206D01*
X325781522Y-102497719D01*
X325863493Y-102544674D01*
X326016932Y-102579028D01*
X326302808Y-102528620D01*
X326435244Y-102443859D01*
X326496211Y-102371700D01*
X326546678Y-102239983D01*
X326253809Y-122311002D02*
X326478717Y-122332753D01*
X326836061Y-122269744D01*
X326968498Y-122184983D01*
X327029465Y-122112823D01*
X327079931Y-121981106D01*
X327058928Y-121861992D01*
X326966455Y-121755478D01*
X326884485Y-121708523D01*
X326731046Y-121674170D01*
X326434668Y-121665020D01*
X326281230Y-121630666D01*
X326199258Y-121583710D01*
X326106787Y-121477198D01*
X326085784Y-121358083D01*
X326136249Y-121226366D01*
X326197217Y-121154207D01*
X326329652Y-121069446D01*
X326686998Y-121006436D01*
X326911906Y-121028188D01*
X328187845Y-120741796D02*
X327901969Y-120792204D01*
X327769532Y-120876965D01*
X327708566Y-120949124D01*
X327597132Y-121153000D01*
X327567670Y-121403832D01*
X327651683Y-121880291D01*
X327744154Y-121986804D01*
X327826126Y-122033760D01*
X327979564Y-122068114D01*
X328265440Y-122017706D01*
X328397876Y-121932945D01*
X328458843Y-121860785D01*
X328509310Y-121729068D01*
X328456802Y-121431281D01*
X328364329Y-121324769D01*
X328282359Y-121277813D01*
X328128919Y-121243459D01*
X327843043Y-121293867D01*
X327710608Y-121378628D01*
X327649640Y-121450788D01*
X327599175Y-121582504D01*
X329259879Y-120552768D02*
X329402817Y-120527564D01*
X329556256Y-120561917D01*
X329638226Y-120608873D01*
X329730698Y-120715386D01*
X329844174Y-120941013D01*
X329896682Y-121238800D01*
X329867219Y-121489632D01*
X329816753Y-121621349D01*
X329755786Y-121693509D01*
X329623350Y-121778270D01*
X329480412Y-121803474D01*
X329326973Y-121769120D01*
X329245002Y-121722164D01*
X329152530Y-121615651D01*
X329039055Y-121390023D01*
X328986547Y-121092236D01*
X329016009Y-120841405D01*
X329066476Y-120709688D01*
X329127443Y-120637529D01*
X329259879Y-120552768D01*
X140699619Y-136443070D02*
X140796982Y-136239165D01*
X140859992Y-135881821D01*
X140825638Y-135728381D01*
X140778682Y-135646411D01*
X140672169Y-135553938D01*
X140553055Y-135532935D01*
X140421337Y-135583401D01*
X140349178Y-135644368D01*
X140264417Y-135776805D01*
X140154452Y-136052179D01*
X140069691Y-136184615D01*
X139997531Y-136245582D01*
X139865815Y-136296048D01*
X139746700Y-136275045D01*
X139640187Y-136182573D01*
X139593232Y-136100602D01*
X139558878Y-135947163D01*
X139621888Y-135589818D01*
X139719251Y-135385913D01*
X139886527Y-134088971D02*
X139836120Y-134374847D01*
X139870473Y-134528286D01*
X139917429Y-134610256D01*
X140070898Y-134784699D01*
X140296526Y-134898174D01*
X140772984Y-134982187D01*
X140904701Y-134931721D01*
X140976861Y-134870753D01*
X141061622Y-134738318D01*
X141112030Y-134452442D01*
X141077676Y-134299003D01*
X141030720Y-134217032D01*
X140924207Y-134124560D01*
X140626420Y-134072052D01*
X140494704Y-134122518D01*
X140422545Y-134183485D01*
X140337783Y-134315921D01*
X140287375Y-134601797D01*
X140321729Y-134755236D01*
X140368685Y-134837207D01*
X140475197Y-134929679D01*
X141414475Y-132737188D02*
X141263252Y-133594814D01*
X141338864Y-133166002D02*
X140088158Y-132945468D01*
X140241626Y-133119911D01*
X140335538Y-133283851D01*
X140369891Y-133437291D01*
X165713736Y-140853733D02*
X165811099Y-140649828D01*
X165874109Y-140292484D01*
X165839755Y-140139044D01*
X165792799Y-140057074D01*
X165686286Y-139964601D01*
X165567172Y-139943598D01*
X165435454Y-139994064D01*
X165363295Y-140055031D01*
X165278534Y-140187468D01*
X165168569Y-140462842D01*
X165083808Y-140595278D01*
X165011648Y-140656245D01*
X164879932Y-140706711D01*
X164760817Y-140685708D01*
X164654304Y-140593236D01*
X164607349Y-140511265D01*
X164572995Y-140357826D01*
X164636005Y-140000481D01*
X164733368Y-139796576D01*
X164900644Y-138499634D02*
X164850237Y-138785510D01*
X164884590Y-138938949D01*
X164931546Y-139020919D01*
X165085015Y-139195362D01*
X165310643Y-139308837D01*
X165787101Y-139392850D01*
X165918818Y-139342384D01*
X165990978Y-139281416D01*
X166075739Y-139148981D01*
X166126147Y-138863105D01*
X166091793Y-138709666D01*
X166044837Y-138627695D01*
X165938324Y-138535223D01*
X165640537Y-138482715D01*
X165508821Y-138533181D01*
X165436662Y-138594148D01*
X165351900Y-138726584D01*
X165301492Y-139012460D01*
X165335846Y-139165899D01*
X165382802Y-139247870D01*
X165489314Y-139340342D01*
X165145778Y-137805947D02*
X165098823Y-137723977D01*
X165064469Y-137570538D01*
X165127479Y-137213193D01*
X165212240Y-137080757D01*
X165284399Y-137019790D01*
X165416116Y-136969324D01*
X165535231Y-136990327D01*
X165701301Y-137093301D01*
X166264767Y-138076947D01*
X166428592Y-137147851D01*
D12*
X170772381Y-29003333D02*
X171486667Y-29003333D01*
X171629524Y-29050953D01*
X171724762Y-29146191D01*
X171772381Y-29289048D01*
X171772381Y-29384286D01*
X171772381Y-28003333D02*
X171772381Y-28574762D01*
X171772381Y-28289048D02*
X170772381Y-28289048D01*
X170915238Y-28384286D01*
X171010476Y-28479524D01*
X171058095Y-28574762D01*
X178048095Y-102507381D02*
X178048095Y-103316905D01*
X178095714Y-103412143D01*
X178143333Y-103459762D01*
X178238571Y-103507381D01*
X178429048Y-103507381D01*
X178524286Y-103459762D01*
X178571905Y-103412143D01*
X178619524Y-103316905D01*
X178619524Y-102507381D01*
X179048095Y-102602619D02*
X179095714Y-102555000D01*
X179190952Y-102507381D01*
X179429048Y-102507381D01*
X179524286Y-102555000D01*
X179571905Y-102602619D01*
X179619524Y-102697857D01*
X179619524Y-102793095D01*
X179571905Y-102935952D01*
X179000476Y-103507381D01*
X179619524Y-103507381D01*
X181857143Y-93166666D02*
X181904762Y-93214285D01*
X181952381Y-93357142D01*
X181952381Y-93452380D01*
X181904762Y-93595238D01*
X181809524Y-93690476D01*
X181714286Y-93738095D01*
X181523810Y-93785714D01*
X181380952Y-93785714D01*
X181190476Y-93738095D01*
X181095238Y-93690476D01*
X181000000Y-93595238D01*
X180952381Y-93452380D01*
X180952381Y-93357142D01*
X181000000Y-93214285D01*
X181047619Y-93166666D01*
X181952381Y-92214285D02*
X181952381Y-92785714D01*
X181952381Y-92500000D02*
X180952381Y-92500000D01*
X181095238Y-92595238D01*
X181190476Y-92690476D01*
X181238095Y-92785714D01*
X181504571Y-37157333D02*
X181504571Y-37490667D01*
X182028381Y-37490667D02*
X181028381Y-37490667D01*
X181028381Y-37014476D01*
X182028381Y-36109714D02*
X182028381Y-36681143D01*
X182028381Y-36395429D02*
X181028381Y-36395429D01*
X181171238Y-36490667D01*
X181266476Y-36585905D01*
X181314095Y-36681143D01*
X186721905Y-88464381D02*
X186721905Y-87464381D01*
X187102858Y-87464381D01*
X187198096Y-87512000D01*
X187245715Y-87559619D01*
X187293334Y-87654857D01*
X187293334Y-87797714D01*
X187245715Y-87892952D01*
X187198096Y-87940571D01*
X187102858Y-87988190D01*
X186721905Y-87988190D01*
X187721905Y-88464381D02*
X187721905Y-87464381D01*
X187960000Y-87464381D01*
X188102858Y-87512000D01*
X188198096Y-87607238D01*
X188245715Y-87702476D01*
X188293334Y-87892952D01*
X188293334Y-88035810D01*
X188245715Y-88226286D01*
X188198096Y-88321524D01*
X188102858Y-88416762D01*
X187960000Y-88464381D01*
X187721905Y-88464381D01*
X188674286Y-87559619D02*
X188721905Y-87512000D01*
X188817143Y-87464381D01*
X189055239Y-87464381D01*
X189150477Y-87512000D01*
X189198096Y-87559619D01*
X189245715Y-87654857D01*
X189245715Y-87750095D01*
X189198096Y-87892952D01*
X188626667Y-88464381D01*
X189245715Y-88464381D01*
X186721905Y-92274381D02*
X186721905Y-91274381D01*
X187102858Y-91274381D01*
X187198096Y-91322000D01*
X187245715Y-91369619D01*
X187293334Y-91464857D01*
X187293334Y-91607714D01*
X187245715Y-91702952D01*
X187198096Y-91750571D01*
X187102858Y-91798190D01*
X186721905Y-91798190D01*
X187721905Y-92274381D02*
X187721905Y-91274381D01*
X187960000Y-91274381D01*
X188102858Y-91322000D01*
X188198096Y-91417238D01*
X188245715Y-91512476D01*
X188293334Y-91702952D01*
X188293334Y-91845810D01*
X188245715Y-92036286D01*
X188198096Y-92131524D01*
X188102858Y-92226762D01*
X187960000Y-92274381D01*
X187721905Y-92274381D01*
X188626667Y-91274381D02*
X189245715Y-91274381D01*
X188912381Y-91655333D01*
X189055239Y-91655333D01*
X189150477Y-91702952D01*
X189198096Y-91750571D01*
X189245715Y-91845810D01*
X189245715Y-92083905D01*
X189198096Y-92179143D01*
X189150477Y-92226762D01*
X189055239Y-92274381D01*
X188769524Y-92274381D01*
X188674286Y-92226762D01*
X188626667Y-92179143D01*
X189769905Y-88464381D02*
X189769905Y-87464381D01*
X190150858Y-87464381D01*
X190246096Y-87512000D01*
X190293715Y-87559619D01*
X190341334Y-87654857D01*
X190341334Y-87797714D01*
X190293715Y-87892952D01*
X190246096Y-87940571D01*
X190150858Y-87988190D01*
X189769905Y-87988190D01*
X190769905Y-88464381D02*
X190769905Y-87464381D01*
X191008000Y-87464381D01*
X191150858Y-87512000D01*
X191246096Y-87607238D01*
X191293715Y-87702476D01*
X191341334Y-87892952D01*
X191341334Y-88035810D01*
X191293715Y-88226286D01*
X191246096Y-88321524D01*
X191150858Y-88416762D01*
X191008000Y-88464381D01*
X190769905Y-88464381D01*
X192198477Y-87797714D02*
X192198477Y-88464381D01*
X191960381Y-87416762D02*
X191722286Y-88131048D01*
X192341334Y-88131048D01*
X189769905Y-92274381D02*
X189769905Y-91274381D01*
X190150858Y-91274381D01*
X190246096Y-91322000D01*
X190293715Y-91369619D01*
X190341334Y-91464857D01*
X190341334Y-91607714D01*
X190293715Y-91702952D01*
X190246096Y-91750571D01*
X190150858Y-91798190D01*
X189769905Y-91798190D01*
X190769905Y-92274381D02*
X190769905Y-91274381D01*
X191008000Y-91274381D01*
X191150858Y-91322000D01*
X191246096Y-91417238D01*
X191293715Y-91512476D01*
X191341334Y-91702952D01*
X191341334Y-91845810D01*
X191293715Y-92036286D01*
X191246096Y-92131524D01*
X191150858Y-92226762D01*
X191008000Y-92274381D01*
X190769905Y-92274381D01*
X192246096Y-91274381D02*
X191769905Y-91274381D01*
X191722286Y-91750571D01*
X191769905Y-91702952D01*
X191865143Y-91655333D01*
X192103239Y-91655333D01*
X192198477Y-91702952D01*
X192246096Y-91750571D01*
X192293715Y-91845810D01*
X192293715Y-92083905D01*
X192246096Y-92179143D01*
X192198477Y-92226762D01*
X192103239Y-92274381D01*
X191865143Y-92274381D01*
X191769905Y-92226762D01*
X191722286Y-92179143D01*
X192563905Y-88464381D02*
X192563905Y-87464381D01*
X192944858Y-87464381D01*
X193040096Y-87512000D01*
X193087715Y-87559619D01*
X193135334Y-87654857D01*
X193135334Y-87797714D01*
X193087715Y-87892952D01*
X193040096Y-87940571D01*
X192944858Y-87988190D01*
X192563905Y-87988190D01*
X193563905Y-88464381D02*
X193563905Y-87464381D01*
X193802000Y-87464381D01*
X193944858Y-87512000D01*
X194040096Y-87607238D01*
X194087715Y-87702476D01*
X194135334Y-87892952D01*
X194135334Y-88035810D01*
X194087715Y-88226286D01*
X194040096Y-88321524D01*
X193944858Y-88416762D01*
X193802000Y-88464381D01*
X193563905Y-88464381D01*
X194992477Y-87464381D02*
X194802000Y-87464381D01*
X194706762Y-87512000D01*
X194659143Y-87559619D01*
X194563905Y-87702476D01*
X194516286Y-87892952D01*
X194516286Y-88273905D01*
X194563905Y-88369143D01*
X194611524Y-88416762D01*
X194706762Y-88464381D01*
X194897239Y-88464381D01*
X194992477Y-88416762D01*
X195040096Y-88369143D01*
X195087715Y-88273905D01*
X195087715Y-88035810D01*
X195040096Y-87940571D01*
X194992477Y-87892952D01*
X194897239Y-87845333D01*
X194706762Y-87845333D01*
X194611524Y-87892952D01*
X194563905Y-87940571D01*
X194516286Y-88035810D01*
X170005524Y-73224381D02*
X170005524Y-72224381D01*
X170386477Y-72224381D01*
X170481715Y-72272000D01*
X170529334Y-72319619D01*
X170576953Y-72414857D01*
X170576953Y-72557714D01*
X170529334Y-72652952D01*
X170481715Y-72700571D01*
X170386477Y-72748190D01*
X170005524Y-72748190D01*
X171005524Y-72700571D02*
X171338858Y-72700571D01*
X171481715Y-73224381D02*
X171005524Y-73224381D01*
X171005524Y-72224381D01*
X171481715Y-72224381D01*
X172338858Y-72224381D02*
X172148381Y-72224381D01*
X172053143Y-72272000D01*
X172005524Y-72319619D01*
X171910286Y-72462476D01*
X171862667Y-72652952D01*
X171862667Y-73033905D01*
X171910286Y-73129143D01*
X171957905Y-73176762D01*
X172053143Y-73224381D01*
X172243620Y-73224381D01*
X172338858Y-73176762D01*
X172386477Y-73129143D01*
X172434096Y-73033905D01*
X172434096Y-72795810D01*
X172386477Y-72700571D01*
X172338858Y-72652952D01*
X172243620Y-72605333D01*
X172053143Y-72605333D01*
X171957905Y-72652952D01*
X171910286Y-72700571D01*
X171862667Y-72795810D01*
X172315333Y-68652381D02*
X172315333Y-67652381D01*
X172696286Y-67652381D01*
X172791524Y-67700000D01*
X172839143Y-67747619D01*
X172886762Y-67842857D01*
X172886762Y-67985714D01*
X172839143Y-68080952D01*
X172791524Y-68128571D01*
X172696286Y-68176190D01*
X172315333Y-68176190D01*
X173648667Y-68128571D02*
X173315333Y-68128571D01*
X173315333Y-68652381D02*
X173315333Y-67652381D01*
X173791524Y-67652381D01*
X174362952Y-67652381D02*
X174458191Y-67652381D01*
X174553429Y-67700000D01*
X174601048Y-67747619D01*
X174648667Y-67842857D01*
X174696286Y-68033333D01*
X174696286Y-68271429D01*
X174648667Y-68461905D01*
X174601048Y-68557143D01*
X174553429Y-68604762D01*
X174458191Y-68652381D01*
X174362952Y-68652381D01*
X174267714Y-68604762D01*
X174220095Y-68557143D01*
X174172476Y-68461905D01*
X174124857Y-68271429D01*
X174124857Y-68033333D01*
X174172476Y-67842857D01*
X174220095Y-67747619D01*
X174267714Y-67700000D01*
X174362952Y-67652381D01*
X169775333Y-66874381D02*
X169775333Y-65874381D01*
X170156286Y-65874381D01*
X170251524Y-65922000D01*
X170299143Y-65969619D01*
X170346762Y-66064857D01*
X170346762Y-66207714D01*
X170299143Y-66302952D01*
X170251524Y-66350571D01*
X170156286Y-66398190D01*
X169775333Y-66398190D01*
X171108667Y-66350571D02*
X170775333Y-66350571D01*
X170775333Y-66874381D02*
X170775333Y-65874381D01*
X171251524Y-65874381D01*
X172156286Y-66874381D02*
X171584857Y-66874381D01*
X171870571Y-66874381D02*
X171870571Y-65874381D01*
X171775333Y-66017238D01*
X171680095Y-66112476D01*
X171584857Y-66160095D01*
X172315333Y-65096381D02*
X172315333Y-64096381D01*
X172696286Y-64096381D01*
X172791524Y-64144000D01*
X172839143Y-64191619D01*
X172886762Y-64286857D01*
X172886762Y-64429714D01*
X172839143Y-64524952D01*
X172791524Y-64572571D01*
X172696286Y-64620190D01*
X172315333Y-64620190D01*
X173648667Y-64572571D02*
X173315333Y-64572571D01*
X173315333Y-65096381D02*
X173315333Y-64096381D01*
X173791524Y-64096381D01*
X174601048Y-64429714D02*
X174601048Y-65096381D01*
X174362952Y-64048762D02*
X174124857Y-64763048D01*
X174743905Y-64763048D01*
X184761333Y-65096381D02*
X184761333Y-64096381D01*
X185142286Y-64096381D01*
X185237524Y-64144000D01*
X185285143Y-64191619D01*
X185332762Y-64286857D01*
X185332762Y-64429714D01*
X185285143Y-64524952D01*
X185237524Y-64572571D01*
X185142286Y-64620190D01*
X184761333Y-64620190D01*
X186094667Y-64572571D02*
X185761333Y-64572571D01*
X185761333Y-65096381D02*
X185761333Y-64096381D01*
X186237524Y-64096381D01*
X187094667Y-64096381D02*
X186618476Y-64096381D01*
X186570857Y-64572571D01*
X186618476Y-64524952D01*
X186713714Y-64477333D01*
X186951810Y-64477333D01*
X187047048Y-64524952D01*
X187094667Y-64572571D01*
X187142286Y-64667810D01*
X187142286Y-64905905D01*
X187094667Y-65001143D01*
X187047048Y-65048762D01*
X186951810Y-65096381D01*
X186713714Y-65096381D01*
X186618476Y-65048762D01*
X186570857Y-65001143D01*
X187301333Y-66874381D02*
X187301333Y-65874381D01*
X187682286Y-65874381D01*
X187777524Y-65922000D01*
X187825143Y-65969619D01*
X187872762Y-66064857D01*
X187872762Y-66207714D01*
X187825143Y-66302952D01*
X187777524Y-66350571D01*
X187682286Y-66398190D01*
X187301333Y-66398190D01*
X188634667Y-66350571D02*
X188301333Y-66350571D01*
X188301333Y-66874381D02*
X188301333Y-65874381D01*
X188777524Y-65874381D01*
X189587048Y-65874381D02*
X189396571Y-65874381D01*
X189301333Y-65922000D01*
X189253714Y-65969619D01*
X189158476Y-66112476D01*
X189110857Y-66302952D01*
X189110857Y-66683905D01*
X189158476Y-66779143D01*
X189206095Y-66826762D01*
X189301333Y-66874381D01*
X189491810Y-66874381D01*
X189587048Y-66826762D01*
X189634667Y-66779143D01*
X189682286Y-66683905D01*
X189682286Y-66445810D01*
X189634667Y-66350571D01*
X189587048Y-66302952D01*
X189491810Y-66255333D01*
X189301333Y-66255333D01*
X189206095Y-66302952D01*
X189158476Y-66350571D01*
X189110857Y-66445810D01*
X184761333Y-68652381D02*
X184761333Y-67652381D01*
X185142286Y-67652381D01*
X185237524Y-67700000D01*
X185285143Y-67747619D01*
X185332762Y-67842857D01*
X185332762Y-67985714D01*
X185285143Y-68080952D01*
X185237524Y-68128571D01*
X185142286Y-68176190D01*
X184761333Y-68176190D01*
X186094667Y-68128571D02*
X185761333Y-68128571D01*
X185761333Y-68652381D02*
X185761333Y-67652381D01*
X186237524Y-67652381D01*
X186523238Y-67652381D02*
X187189905Y-67652381D01*
X186761333Y-68652381D01*
X171989905Y-88464381D02*
X171989905Y-87464381D01*
X172370858Y-87464381D01*
X172466096Y-87512000D01*
X172513715Y-87559619D01*
X172561334Y-87654857D01*
X172561334Y-87797714D01*
X172513715Y-87892952D01*
X172466096Y-87940571D01*
X172370858Y-87988190D01*
X171989905Y-87988190D01*
X173323239Y-87940571D02*
X173466096Y-87988190D01*
X173513715Y-88035810D01*
X173561334Y-88131048D01*
X173561334Y-88273905D01*
X173513715Y-88369143D01*
X173466096Y-88416762D01*
X173370858Y-88464381D01*
X172989905Y-88464381D01*
X172989905Y-87464381D01*
X173323239Y-87464381D01*
X173418477Y-87512000D01*
X173466096Y-87559619D01*
X173513715Y-87654857D01*
X173513715Y-87750095D01*
X173466096Y-87845333D01*
X173418477Y-87892952D01*
X173323239Y-87940571D01*
X172989905Y-87940571D01*
X173894667Y-87464381D02*
X174561334Y-87464381D01*
X174132762Y-88464381D01*
X167695714Y-34742381D02*
X167695714Y-33742381D01*
X167933809Y-33742381D01*
X168076667Y-33790000D01*
X168171905Y-33885238D01*
X168219524Y-33980476D01*
X168267143Y-34170952D01*
X168267143Y-34313810D01*
X168219524Y-34504286D01*
X168171905Y-34599524D01*
X168076667Y-34694762D01*
X167933809Y-34742381D01*
X167695714Y-34742381D01*
X168743333Y-34742381D02*
X168933809Y-34742381D01*
X169029048Y-34694762D01*
X169076667Y-34647143D01*
X169171905Y-34504286D01*
X169219524Y-34313810D01*
X169219524Y-33932857D01*
X169171905Y-33837619D01*
X169124286Y-33790000D01*
X169029048Y-33742381D01*
X168838571Y-33742381D01*
X168743333Y-33790000D01*
X168695714Y-33837619D01*
X168648095Y-33932857D01*
X168648095Y-34170952D01*
X168695714Y-34266190D01*
X168743333Y-34313810D01*
X168838571Y-34361429D01*
X169029048Y-34361429D01*
X169124286Y-34313810D01*
X169171905Y-34266190D01*
X169219524Y-34170952D01*
X169695714Y-34742381D02*
X169886190Y-34742381D01*
X169981429Y-34694762D01*
X170029048Y-34647143D01*
X170124286Y-34504286D01*
X170171905Y-34313810D01*
X170171905Y-33932857D01*
X170124286Y-33837619D01*
X170076667Y-33790000D01*
X169981429Y-33742381D01*
X169790952Y-33742381D01*
X169695714Y-33790000D01*
X169648095Y-33837619D01*
X169600476Y-33932857D01*
X169600476Y-34170952D01*
X169648095Y-34266190D01*
X169695714Y-34313810D01*
X169790952Y-34361429D01*
X169981429Y-34361429D01*
X170076667Y-34313810D01*
X170124286Y-34266190D01*
X170171905Y-34170952D01*
X167076381Y-42552666D02*
X166600190Y-42886000D01*
X167076381Y-43124095D02*
X166076381Y-43124095D01*
X166076381Y-42743142D01*
X166124000Y-42647904D01*
X166171619Y-42600285D01*
X166266857Y-42552666D01*
X166409714Y-42552666D01*
X166504952Y-42600285D01*
X166552571Y-42647904D01*
X166600190Y-42743142D01*
X166600190Y-43124095D01*
X167076381Y-41600285D02*
X167076381Y-42171714D01*
X167076381Y-41886000D02*
X166076381Y-41886000D01*
X166219238Y-41981238D01*
X166314476Y-42076476D01*
X166362095Y-42171714D01*
X171648381Y-42552666D02*
X171172190Y-42886000D01*
X171648381Y-43124095D02*
X170648381Y-43124095D01*
X170648381Y-42743142D01*
X170696000Y-42647904D01*
X170743619Y-42600285D01*
X170838857Y-42552666D01*
X170981714Y-42552666D01*
X171076952Y-42600285D01*
X171124571Y-42647904D01*
X171172190Y-42743142D01*
X171172190Y-43124095D01*
X170648381Y-42219333D02*
X170648381Y-41600285D01*
X171029333Y-41933619D01*
X171029333Y-41790761D01*
X171076952Y-41695523D01*
X171124571Y-41647904D01*
X171219810Y-41600285D01*
X171457905Y-41600285D01*
X171553143Y-41647904D01*
X171600762Y-41695523D01*
X171648381Y-41790761D01*
X171648381Y-42076476D01*
X171600762Y-42171714D01*
X171553143Y-42219333D01*
M02*
