M48
;DRILL file {KiCad (2017-07-28 revision 75cda5021)-master} date Sun Jul 30 20:24:54 2017
;FORMAT={-:-/ absolute / metric / decimal}
FMAT,2
METRIC,TZ
T1C0.400
T2C0.600
T3C0.850
T4C1.499
%
G90
G05
M71
T1
X40.048Y-47.688
X55.817Y-66.675
X71.791Y-88.011
X87.764Y-108.077
X106.004Y-117.094
X124.244Y-117.856
X145.415Y-97.79
X145.415Y-106.68
X146.05Y-83.058
X146.05Y-106.045
X146.685Y-61.595
X146.685Y-105.41
X147.32Y-53.34
X147.32Y-81.915
X157.988Y-136.906
X159.385Y-72.077
X159.385Y-82.776
X164.973Y-83.693
X164.973Y-97.536
X166.878Y-104.648
X166.878Y-110.236
X169.291Y-77.216
X169.4Y-139.8
X169.545Y-84.455
X169.545Y-103.
X170.942Y-102.362
X172.72Y-38.481
X172.72Y-73.406
X173.736Y-40.64
X176.276Y-84.709
X176.901Y-77.216
X176.901Y-81.153
X176.911Y-81.153
X177.038Y-45.339
X177.8Y-78.74
X177.8Y-79.576
X177.8Y-84.963
X178.689Y-77.978
X178.816Y-45.339
X179.197Y-92.519
X179.197Y-102.362
X179.197Y-110.363
X179.324Y-83.439
X179.324Y-84.709
X180.213Y-84.709
X180.213Y-111.125
X180.594Y-77.089
X181.102Y-84.709
X181.102Y-111.76
X181.737Y-45.339
X182.372Y-76.454
X182.372Y-80.518
X183.516Y-84.376
X183.83Y-83.378
X184.277Y-75.565
X187.325Y-38.608
X187.325Y-79.502
X187.96Y-37.465
X187.96Y-78.74
X188.595Y-36.322
X188.595Y-84.455
X199.136Y-136.144
X202.235Y-107.95
X208.908Y-97.536
X217.17Y-110.236
X217.17Y-141.224
X227.494Y-113.8
X245.734Y-110.807
X260.665Y-93.287
X279.947Y-90.805
X299.228Y-86.995
X318.336Y-85.09
T3
X176.555Y-36.576
X181.555Y-36.576
T4
X121.368Y-129.758
X128.062Y-128.359
X222.512Y-93.56
X228.324Y-89.956
X116.36Y-48.453
X123.055Y-47.054
X240.752Y-87.297
X246.564Y-83.693
X304.17Y-117.849
X309.983Y-114.245
X65.607Y-116.879
X72.302Y-115.481
X33.834Y-77.666
X40.528Y-76.267
X72.223Y-79.358
X78.918Y-77.959
X30.526Y-96.427
X37.22Y-95.028
X131.292Y-73.476
X137.986Y-72.077
X98.12Y-42.191
X104.815Y-40.792
X281.581Y-99.442
X287.393Y-95.838
X262.299Y-99.795
X268.112Y-96.191
X234.136Y-49.776
X239.948Y-46.172
X258.991Y-81.035
X264.804Y-77.431
X59.557Y-41.483
X66.252Y-40.085
X313.354Y-60.229
X319.167Y-56.625
X106.436Y-104.735
X113.131Y-103.336
X290.938Y-42.807
X296.751Y-39.202
X68.915Y-98.119
X75.61Y-96.72
X274.965Y-61.921
X280.777Y-58.317
X265.607Y-118.556
X271.42Y-114.952
X229.128Y-131.081
X234.94Y-127.477
X78.839Y-41.837
X85.534Y-40.438
X124.676Y-110.997
X131.37Y-109.598
X278.273Y-80.681
X284.085Y-77.077
X219.204Y-74.799
X225.016Y-71.195
X146.811Y-131.736
X148.21Y-138.43
X310.046Y-41.468
X315.859Y-37.864
X49.633Y-97.765
X56.328Y-96.366
X208.908Y-133.428
X212.512Y-139.24
X91.504Y-79.712
X98.199Y-78.313
X319.97Y-97.75
X325.783Y-94.146
X316.662Y-78.989
X322.475Y-75.385
X297.554Y-80.328
X303.367Y-76.724
X75.531Y-60.598
X82.226Y-59.199
X88.196Y-98.472
X94.891Y-97.074
X113.052Y-67.214
X119.747Y-65.815
X323.278Y-116.511
X329.091Y-112.906
X37.142Y-58.906
X43.836Y-57.507
X84.888Y-117.233
X91.583Y-115.834
X215.896Y-56.039
X221.708Y-52.434
X252.375Y-43.514
X258.188Y-39.91
X40.45Y-40.145
X47.144Y-38.746
X94.812Y-60.951
X101.507Y-59.552
X52.941Y-79.005
X59.636Y-77.606
X271.657Y-43.16
X277.469Y-39.556
X284.889Y-118.202
X290.701Y-114.598
X294.246Y-61.567
X300.059Y-57.963
X225.82Y-112.32
X231.632Y-108.716
X134.6Y-54.715
X141.294Y-53.317
X300.862Y-99.088
X306.675Y-95.484
X197.431Y-134.162
X201.035Y-139.974
X46.325Y-116.526
X53.02Y-115.127
X109.744Y-85.974
X116.439Y-84.575
X103.128Y-123.495
X109.823Y-122.097
X244.06Y-106.058
X249.872Y-102.454
X27.218Y-115.187
X33.912Y-113.789
X127.984Y-92.237
X134.678Y-90.838
X237.444Y-68.537
X243.256Y-64.933
X157.847Y-134.971
X159.245Y-141.666
X255.683Y-62.274
X261.496Y-58.67
X247.368Y-124.818
X253.18Y-121.214
X56.249Y-60.244
X62.944Y-58.845
T2
X175.555Y-34.226G85X175.555Y-33.526
G05
X182.555Y-33.526G85X182.555Y-34.226
G05
T0
M30
