G04 #@! TF.GenerationSoftware,KiCad,Pcbnew,(2017-07-28 revision 75cda5021)-master*
G04 #@! TF.CreationDate,2017-07-29T18:22:56-04:00*
G04 #@! TF.ProjectId,keyboard,6B6579626F6172642E6B696361645F70,rev?*
G04 #@! TF.SameCoordinates,Original*
G04 #@! TF.FileFunction,Legend,Bot*
G04 #@! TF.FilePolarity,Positive*
%FSLAX46Y46*%
G04 Gerber Fmt 4.6, Leading zero omitted, Abs format (unit mm)*
G04 Created by KiCad (PCBNEW (2017-07-28 revision 75cda5021)-master) date Sat Jul 29 18:22:56 2017*
%MOMM*%
%LPD*%
G01*
G04 APERTURE LIST*
%ADD10C,0.120000*%
%ADD11C,0.150000*%
G04 APERTURE END LIST*
D10*
X44237518Y-36284106D02*
X43890221Y-38253721D01*
X43890221Y-38253721D02*
X40049471Y-37576493D01*
X44237518Y-36284106D02*
X40396767Y-35606878D01*
X40929520Y-55044694D02*
X37088769Y-54367466D01*
X40582223Y-57014309D02*
X36741473Y-56337081D01*
X40929520Y-55044694D02*
X40582223Y-57014309D01*
X37621522Y-73805282D02*
X37274225Y-75774897D01*
X37274225Y-75774897D02*
X33433475Y-75097669D01*
X37621522Y-73805282D02*
X33780771Y-73128054D01*
X34313524Y-92565870D02*
X30472773Y-91888642D01*
X33966227Y-94535485D02*
X30125477Y-93858257D01*
X34313524Y-92565870D02*
X33966227Y-94535485D01*
X31005526Y-111326458D02*
X30658229Y-113296073D01*
X30658229Y-113296073D02*
X26817479Y-112618845D01*
X31005526Y-111326458D02*
X27164775Y-110649230D01*
X63345402Y-37622488D02*
X59504651Y-36945260D01*
X62998105Y-39592103D02*
X59157355Y-38914875D01*
X63345402Y-37622488D02*
X62998105Y-39592103D01*
X60037404Y-56383076D02*
X59690107Y-58352691D01*
X59690107Y-58352691D02*
X55849357Y-57675463D01*
X60037404Y-56383076D02*
X56196653Y-55705848D01*
X56729406Y-75143664D02*
X52888655Y-74466436D01*
X56382109Y-77113279D02*
X52541359Y-76436051D01*
X56729406Y-75143664D02*
X56382109Y-77113279D01*
X53421408Y-93904252D02*
X53074111Y-95873867D01*
X53074111Y-95873867D02*
X49233361Y-95196639D01*
X53421408Y-93904252D02*
X49580657Y-93227024D01*
X50113410Y-112664840D02*
X46272659Y-111987612D01*
X49766113Y-114634455D02*
X45925363Y-113957227D01*
X50113410Y-112664840D02*
X49766113Y-114634455D01*
X82626934Y-37976062D02*
X82279637Y-39945677D01*
X82279637Y-39945677D02*
X78438887Y-39268449D01*
X82626934Y-37976062D02*
X78786183Y-37298834D01*
X79318936Y-56736650D02*
X75478185Y-56059422D01*
X78971639Y-58706265D02*
X75130889Y-58029037D01*
X79318936Y-56736650D02*
X78971639Y-58706265D01*
X76010938Y-75497238D02*
X75663641Y-77466853D01*
X75663641Y-77466853D02*
X71822891Y-76789625D01*
X76010938Y-75497238D02*
X72170187Y-74820010D01*
X72702940Y-94257826D02*
X68862189Y-93580598D01*
X72355643Y-96227441D02*
X68514893Y-95550213D01*
X72702940Y-94257826D02*
X72355643Y-96227441D01*
X69394942Y-113018414D02*
X69047645Y-114988029D01*
X69047645Y-114988029D02*
X65206895Y-114310801D01*
X69394942Y-113018414D02*
X65554191Y-112341186D01*
X101908466Y-38329636D02*
X98067715Y-37652408D01*
X101561169Y-40299251D02*
X97720419Y-39622023D01*
X101908466Y-38329636D02*
X101561169Y-40299251D01*
X98600468Y-57090224D02*
X98253171Y-59059839D01*
X98253171Y-59059839D02*
X94412421Y-58382611D01*
X98600468Y-57090224D02*
X94759717Y-56412996D01*
X95292470Y-75850812D02*
X91451719Y-75173584D01*
X94945173Y-77820427D02*
X91104423Y-77143199D01*
X95292470Y-75850812D02*
X94945173Y-77820427D01*
X91984472Y-94611400D02*
X91637175Y-96581015D01*
X91637175Y-96581015D02*
X87796425Y-95903787D01*
X91984472Y-94611400D02*
X88143721Y-93934172D01*
X88676474Y-113371988D02*
X88329177Y-115341603D01*
X88329177Y-115341603D02*
X84488427Y-114664375D01*
X88676474Y-113371988D02*
X84835723Y-112694760D01*
X120148109Y-44592057D02*
X116307358Y-43914829D01*
X119800812Y-46561672D02*
X115960062Y-45884444D01*
X120148109Y-44592057D02*
X119800812Y-46561672D01*
X116840111Y-63352645D02*
X112999360Y-62675417D01*
X116492814Y-65322260D02*
X112652064Y-64645032D01*
X116840111Y-63352645D02*
X116492814Y-65322260D01*
X113532113Y-82113233D02*
X113184816Y-84082848D01*
X113184816Y-84082848D02*
X109344066Y-83405620D01*
X113532113Y-82113233D02*
X109691362Y-81436005D01*
X110224115Y-100873821D02*
X106383364Y-100196593D01*
X109876818Y-102843436D02*
X106036068Y-102166208D01*
X110224115Y-100873821D02*
X109876818Y-102843436D01*
X106916117Y-119634409D02*
X106568820Y-121604024D01*
X106568820Y-121604024D02*
X102728070Y-120926796D01*
X106916117Y-119634409D02*
X103075366Y-118957181D01*
X138387752Y-50854478D02*
X134547001Y-50177250D01*
X138040455Y-52824093D02*
X134199705Y-52146865D01*
X138387752Y-50854478D02*
X138040455Y-52824093D01*
X135079754Y-69615066D02*
X134732457Y-71584681D01*
X134732457Y-71584681D02*
X130891707Y-70907453D01*
X135079754Y-69615066D02*
X131239003Y-68937838D01*
X131771756Y-88375654D02*
X127931005Y-87698426D01*
X131424459Y-90345269D02*
X127583709Y-89668041D01*
X131771756Y-88375654D02*
X131424459Y-90345269D01*
X128463758Y-107136242D02*
X124623007Y-106459014D01*
X128116461Y-109105857D02*
X124275711Y-108428629D01*
X128463758Y-107136242D02*
X128116461Y-109105857D01*
X125155760Y-125896830D02*
X124808463Y-127866445D01*
X124808463Y-127866445D02*
X120967713Y-127189217D01*
X125155760Y-125896830D02*
X121315009Y-125219602D01*
X218135029Y-51114951D02*
X218482326Y-53084566D01*
X218482326Y-53084566D02*
X214641575Y-53761794D01*
X218135029Y-51114951D02*
X214294279Y-51792179D01*
X221443027Y-69875539D02*
X217602277Y-70552767D01*
X221790324Y-71845154D02*
X217949573Y-72522382D01*
X221443027Y-69875539D02*
X221790324Y-71845154D01*
X224751025Y-88636127D02*
X225098322Y-90605742D01*
X225098322Y-90605742D02*
X221257571Y-91282970D01*
X224751025Y-88636127D02*
X220910275Y-89313355D01*
X228059023Y-107396715D02*
X224218273Y-108073943D01*
X228406320Y-109366330D02*
X224565569Y-110043558D01*
X228059023Y-107396715D02*
X228406320Y-109366330D01*
X231367021Y-126157303D02*
X231714318Y-128126918D01*
X231714318Y-128126918D02*
X227873567Y-128804146D01*
X231367021Y-126157303D02*
X227526271Y-126834531D01*
X236374673Y-44852530D02*
X232533923Y-45529758D01*
X236721970Y-46822145D02*
X232881219Y-47499373D01*
X236374673Y-44852530D02*
X236721970Y-46822145D01*
X239682671Y-63613118D02*
X240029968Y-65582733D01*
X240029968Y-65582733D02*
X236189217Y-66259961D01*
X239682671Y-63613118D02*
X235841921Y-64290346D01*
X242990669Y-82373706D02*
X239149919Y-83050934D01*
X243337966Y-84343321D02*
X239497215Y-85020549D01*
X242990669Y-82373706D02*
X243337966Y-84343321D01*
X246298667Y-101134294D02*
X242457917Y-101811522D01*
X246645964Y-103103909D02*
X242805213Y-103781137D01*
X246298667Y-101134294D02*
X246645964Y-103103909D01*
X249606665Y-119894882D02*
X249953962Y-121864497D01*
X249953962Y-121864497D02*
X246113211Y-122541725D01*
X249606665Y-119894882D02*
X245765915Y-120572110D01*
X254614317Y-38590109D02*
X254961614Y-40559724D01*
X254961614Y-40559724D02*
X251120863Y-41236952D01*
X254614317Y-38590109D02*
X250773567Y-39267337D01*
X257922315Y-57350697D02*
X254081565Y-58027925D01*
X258269612Y-59320312D02*
X254428861Y-59997540D01*
X257922315Y-57350697D02*
X258269612Y-59320312D01*
X261230313Y-76111285D02*
X257389563Y-76788513D01*
X261577610Y-78080900D02*
X257736859Y-78758128D01*
X261230313Y-76111285D02*
X261577610Y-78080900D01*
X264538311Y-94871873D02*
X260697561Y-95549101D01*
X264885608Y-96841488D02*
X261044857Y-97518716D01*
X264538311Y-94871873D02*
X264885608Y-96841488D01*
X267846309Y-113632461D02*
X264005559Y-114309689D01*
X268193606Y-115602076D02*
X264352855Y-116279304D01*
X267846309Y-113632461D02*
X268193606Y-115602076D01*
X273895850Y-38236535D02*
X270055100Y-38913763D01*
X274243147Y-40206150D02*
X270402396Y-40883378D01*
X273895850Y-38236535D02*
X274243147Y-40206150D01*
X277203848Y-56997123D02*
X273363098Y-57674351D01*
X277551145Y-58966738D02*
X273710394Y-59643966D01*
X277203848Y-56997123D02*
X277551145Y-58966738D01*
X280511846Y-75757711D02*
X280859143Y-77727326D01*
X280859143Y-77727326D02*
X277018392Y-78404554D01*
X280511846Y-75757711D02*
X276671096Y-76434939D01*
X283819844Y-94518299D02*
X284167141Y-96487914D01*
X284167141Y-96487914D02*
X280326390Y-97165142D01*
X283819844Y-94518299D02*
X279979094Y-95195527D01*
X287127842Y-113278887D02*
X283287092Y-113956115D01*
X287475139Y-115248502D02*
X283634388Y-115925730D01*
X287127842Y-113278887D02*
X287475139Y-115248502D01*
X293177383Y-37882961D02*
X293524680Y-39852576D01*
X293524680Y-39852576D02*
X289683929Y-40529804D01*
X293177383Y-37882961D02*
X289336633Y-38560189D01*
X296485381Y-56643549D02*
X296832678Y-58613164D01*
X296832678Y-58613164D02*
X292991927Y-59290392D01*
X296485381Y-56643549D02*
X292644631Y-57320777D01*
X299793379Y-75404137D02*
X295952629Y-76081365D01*
X300140676Y-77373752D02*
X296299925Y-78050980D01*
X299793379Y-75404137D02*
X300140676Y-77373752D01*
X303101377Y-94164725D02*
X303448674Y-96134340D01*
X303448674Y-96134340D02*
X299607923Y-96811568D01*
X303101377Y-94164725D02*
X299260627Y-94841953D01*
X306409375Y-112925313D02*
X306756672Y-114894928D01*
X306756672Y-114894928D02*
X302915921Y-115572156D01*
X306409375Y-112925313D02*
X302568625Y-113602541D01*
X312285268Y-36544579D02*
X308444518Y-37221807D01*
X312632565Y-38514194D02*
X308791814Y-39191422D01*
X312285268Y-36544579D02*
X312632565Y-38514194D01*
X315593266Y-55305167D02*
X315940563Y-57274782D01*
X315940563Y-57274782D02*
X312099812Y-57952010D01*
X315593266Y-55305167D02*
X311752516Y-55982395D01*
X318901264Y-74065755D02*
X319248561Y-76035370D01*
X319248561Y-76035370D02*
X315407810Y-76712598D01*
X318901264Y-74065755D02*
X315060514Y-74742983D01*
X322209262Y-92826343D02*
X318368512Y-93503571D01*
X322556559Y-94795958D02*
X318715808Y-95473186D01*
X322209262Y-92826343D02*
X322556559Y-94795958D01*
X325517260Y-111586931D02*
X325864557Y-113556546D01*
X325864557Y-113556546D02*
X322023806Y-114233774D01*
X325517260Y-111586931D02*
X321676510Y-112264159D01*
X150193627Y-136247466D02*
X148224012Y-135900169D01*
X148224012Y-135900169D02*
X148901240Y-132059419D01*
X150193627Y-136247466D02*
X150870855Y-132406715D01*
X155869901Y-137183534D02*
X155192673Y-141024285D01*
X157839516Y-137530831D02*
X157162288Y-141371581D01*
X155869901Y-137183534D02*
X157839516Y-137530831D01*
X207793484Y-136387831D02*
X208470712Y-140228581D01*
X209763099Y-136040534D02*
X210440327Y-139881285D01*
X207793484Y-136387831D02*
X209763099Y-136040534D01*
X202162516Y-137043169D02*
X200192901Y-137390466D01*
X200192901Y-137390466D02*
X199515673Y-133549715D01*
X202162516Y-137043169D02*
X201485288Y-133202419D01*
D11*
X42843674Y-35482266D02*
X43017322Y-34497458D01*
X42782844Y-34456113D01*
X42633889Y-34478202D01*
X42523560Y-34555455D01*
X42460126Y-34640977D01*
X42380155Y-34820291D01*
X42355348Y-34960978D01*
X42369167Y-35156829D01*
X42399525Y-35258889D01*
X42476778Y-35369218D01*
X42609196Y-35440921D01*
X42843674Y-35482266D01*
X41343015Y-35217659D02*
X41905762Y-35316886D01*
X41624388Y-35267273D02*
X41798037Y-34282465D01*
X41867021Y-34439690D01*
X41944274Y-34550019D01*
X42029797Y-34613452D01*
X39535676Y-54242854D02*
X39709324Y-53258046D01*
X39474846Y-53216701D01*
X39325891Y-53238790D01*
X39215562Y-53316043D01*
X39152128Y-53401565D01*
X39072157Y-53580879D01*
X39047350Y-53721566D01*
X39061169Y-53917417D01*
X39091527Y-54019477D01*
X39168780Y-54129806D01*
X39301198Y-54201509D01*
X39535676Y-54242854D01*
X38754874Y-53186458D02*
X38716248Y-53131293D01*
X38630725Y-53067860D01*
X38396247Y-53026515D01*
X38294187Y-53056873D01*
X38239023Y-53095499D01*
X38175589Y-53181022D01*
X38159051Y-53274813D01*
X38181140Y-53423769D01*
X38644660Y-54085743D01*
X38035017Y-53978247D01*
X36227678Y-73003442D02*
X36401326Y-72018634D01*
X36166848Y-71977289D01*
X36017893Y-71999378D01*
X35907564Y-72076631D01*
X35844130Y-72162153D01*
X35764159Y-72341467D01*
X35739352Y-72482154D01*
X35753171Y-72678005D01*
X35783529Y-72780065D01*
X35860782Y-72890394D01*
X35993200Y-72962097D01*
X36227678Y-73003442D01*
X35510310Y-71861524D02*
X34900667Y-71754027D01*
X35162785Y-72187075D01*
X35022098Y-72162268D01*
X34920038Y-72192626D01*
X34864873Y-72231252D01*
X34801439Y-72316774D01*
X34760095Y-72551252D01*
X34790452Y-72653313D01*
X34829079Y-72708477D01*
X34914601Y-72771911D01*
X35195975Y-72821525D01*
X35298035Y-72791167D01*
X35353200Y-72752540D01*
X32919680Y-91764030D02*
X33093328Y-90779222D01*
X32858850Y-90737877D01*
X32709895Y-90759966D01*
X32599566Y-90837219D01*
X32536132Y-90922741D01*
X32456161Y-91102055D01*
X32431354Y-91242742D01*
X32445173Y-91438593D01*
X32475531Y-91540653D01*
X32552784Y-91650982D01*
X32685202Y-91722685D01*
X32919680Y-91764030D01*
X31628578Y-90859422D02*
X31512812Y-91515961D01*
X31929207Y-90525602D02*
X32039651Y-91270381D01*
X31430008Y-91162885D01*
X29611682Y-110524618D02*
X29785330Y-109539810D01*
X29550852Y-109498465D01*
X29401897Y-109520554D01*
X29291568Y-109597807D01*
X29228134Y-109683329D01*
X29148163Y-109862643D01*
X29123356Y-110003330D01*
X29137175Y-110199181D01*
X29167533Y-110301241D01*
X29244786Y-110411570D01*
X29377204Y-110483273D01*
X29611682Y-110524618D01*
X28331567Y-109283472D02*
X28800523Y-109366162D01*
X28764729Y-109843387D01*
X28726102Y-109788222D01*
X28640580Y-109724789D01*
X28406102Y-109683444D01*
X28304042Y-109713802D01*
X28248877Y-109752428D01*
X28185443Y-109837950D01*
X28144099Y-110072428D01*
X28174456Y-110174489D01*
X28213083Y-110229653D01*
X28298605Y-110293087D01*
X28533083Y-110334432D01*
X28635143Y-110304074D01*
X28690308Y-110265447D01*
X61951558Y-36820648D02*
X62125206Y-35835840D01*
X61890728Y-35794495D01*
X61741773Y-35816584D01*
X61631444Y-35893837D01*
X61568010Y-35979359D01*
X61488039Y-36158673D01*
X61463232Y-36299360D01*
X61477051Y-36495211D01*
X61507409Y-36597271D01*
X61584662Y-36707600D01*
X61717080Y-36779303D01*
X61951558Y-36820648D01*
X60718338Y-35587771D02*
X60905921Y-35620847D01*
X60991443Y-35684280D01*
X61030070Y-35739445D01*
X61099054Y-35896670D01*
X61112874Y-36092521D01*
X61046722Y-36467686D01*
X60983288Y-36553208D01*
X60928124Y-36591835D01*
X60826064Y-36622193D01*
X60638481Y-36589117D01*
X60552959Y-36525683D01*
X60514332Y-36470519D01*
X60483975Y-36368458D01*
X60525319Y-36133980D01*
X60588753Y-36048458D01*
X60643918Y-36009832D01*
X60745978Y-35979474D01*
X60933560Y-36012550D01*
X61019082Y-36075983D01*
X61057709Y-36131148D01*
X61088067Y-36233208D01*
X58643560Y-55581236D02*
X58817208Y-54596428D01*
X58582730Y-54555083D01*
X58433775Y-54577172D01*
X58323446Y-54654425D01*
X58260012Y-54739947D01*
X58180041Y-54919261D01*
X58155234Y-55059948D01*
X58169053Y-55255799D01*
X58199411Y-55357859D01*
X58276664Y-55468188D01*
X58409082Y-55539891D01*
X58643560Y-55581236D01*
X57926192Y-54439318D02*
X57269653Y-54323552D01*
X57518066Y-55382781D01*
X55335562Y-74341824D02*
X55509210Y-73357016D01*
X55274732Y-73315671D01*
X55125777Y-73337760D01*
X55015448Y-73415013D01*
X54952014Y-73500535D01*
X54872043Y-73679849D01*
X54847236Y-73820536D01*
X54861055Y-74016387D01*
X54891413Y-74118447D01*
X54968666Y-74228776D01*
X55101084Y-74300479D01*
X55335562Y-74341824D01*
X54309295Y-73580621D02*
X54411355Y-73550264D01*
X54466520Y-73511637D01*
X54529954Y-73426115D01*
X54538222Y-73379219D01*
X54507865Y-73277159D01*
X54469238Y-73221994D01*
X54383716Y-73158561D01*
X54196133Y-73125485D01*
X54094073Y-73155843D01*
X54038909Y-73194469D01*
X53975475Y-73279992D01*
X53967206Y-73326887D01*
X53997564Y-73428947D01*
X54036191Y-73484112D01*
X54121713Y-73547545D01*
X54309295Y-73580621D01*
X54394817Y-73644055D01*
X54433444Y-73699219D01*
X54463802Y-73801280D01*
X54430726Y-73988862D01*
X54367292Y-74074384D01*
X54312128Y-74113011D01*
X54210068Y-74143369D01*
X54022485Y-74110293D01*
X53936963Y-74046859D01*
X53898336Y-73991695D01*
X53867979Y-73889634D01*
X53901055Y-73702052D01*
X53964488Y-73616530D01*
X54019653Y-73577903D01*
X54121713Y-73547545D01*
X52027564Y-93102412D02*
X52201212Y-92117604D01*
X51966734Y-92076259D01*
X51817779Y-92098348D01*
X51707450Y-92175601D01*
X51644016Y-92261123D01*
X51564045Y-92440437D01*
X51539238Y-92581124D01*
X51553057Y-92776975D01*
X51583415Y-92879035D01*
X51660668Y-92989364D01*
X51793086Y-93061067D01*
X52027564Y-93102412D01*
X50995861Y-92920495D02*
X50808278Y-92887419D01*
X50722756Y-92823985D01*
X50684130Y-92768821D01*
X50615145Y-92611596D01*
X50601325Y-92415744D01*
X50667477Y-92040580D01*
X50730911Y-91955057D01*
X50786075Y-91916431D01*
X50888135Y-91886073D01*
X51075718Y-91919149D01*
X51161240Y-91982582D01*
X51199867Y-92037747D01*
X51230224Y-92139807D01*
X51188880Y-92374285D01*
X51125446Y-92459807D01*
X51070282Y-92498434D01*
X50968221Y-92528792D01*
X50780639Y-92495716D01*
X50695117Y-92432282D01*
X50656490Y-92377118D01*
X50626132Y-92275058D01*
X49188522Y-111945689D02*
X49362171Y-110960882D01*
X49127692Y-110919537D01*
X48978737Y-110941625D01*
X48868408Y-111018879D01*
X48804974Y-111104401D01*
X48725003Y-111283714D01*
X48700196Y-111424401D01*
X48714015Y-111620253D01*
X48744373Y-111722313D01*
X48821626Y-111832642D01*
X48954044Y-111904344D01*
X49188522Y-111945689D01*
X47687863Y-111681083D02*
X48250610Y-111780310D01*
X47969237Y-111730696D02*
X48142885Y-110745889D01*
X48211869Y-110903113D01*
X48289122Y-111013442D01*
X48374645Y-111076876D01*
X47251868Y-110588778D02*
X47158077Y-110572240D01*
X47056017Y-110602598D01*
X47000852Y-110641225D01*
X46937419Y-110726747D01*
X46857447Y-110906060D01*
X46816102Y-111140538D01*
X46829922Y-111336390D01*
X46860280Y-111438450D01*
X46898907Y-111493615D01*
X46984429Y-111557048D01*
X47078220Y-111573586D01*
X47180280Y-111543228D01*
X47235445Y-111504602D01*
X47298878Y-111419079D01*
X47378850Y-111239766D01*
X47420195Y-111005288D01*
X47406375Y-110809437D01*
X47376017Y-110707376D01*
X47337390Y-110652212D01*
X47251868Y-110588778D01*
X81702046Y-37256911D02*
X81875695Y-36272104D01*
X81641216Y-36230759D01*
X81492261Y-36252847D01*
X81381932Y-36330101D01*
X81318498Y-36415623D01*
X81238527Y-36594936D01*
X81213720Y-36735623D01*
X81227539Y-36931475D01*
X81257897Y-37033535D01*
X81335150Y-37143864D01*
X81467568Y-37215566D01*
X81702046Y-37256911D01*
X80201387Y-36992305D02*
X80764134Y-37091532D01*
X80482761Y-37041918D02*
X80656409Y-36057111D01*
X80725393Y-36214335D01*
X80802646Y-36324664D01*
X80888169Y-36388098D01*
X79263475Y-36826925D02*
X79826222Y-36926153D01*
X79544848Y-36876539D02*
X79718497Y-35891731D01*
X79787481Y-36048956D01*
X79864734Y-36159285D01*
X79950256Y-36222719D01*
X78394048Y-56017499D02*
X78567697Y-55032692D01*
X78333218Y-54991347D01*
X78184263Y-55013435D01*
X78073934Y-55090689D01*
X78010500Y-55176211D01*
X77930529Y-55355524D01*
X77905722Y-55496211D01*
X77919541Y-55692063D01*
X77949899Y-55794123D01*
X78027152Y-55904452D01*
X78159570Y-55976154D01*
X78394048Y-56017499D01*
X76893389Y-55752893D02*
X77456136Y-55852120D01*
X77174763Y-55802506D02*
X77348411Y-54817699D01*
X77417395Y-54974923D01*
X77494648Y-55085252D01*
X77580171Y-55148686D01*
X76675334Y-54795724D02*
X76636708Y-54740560D01*
X76551185Y-54677126D01*
X76316707Y-54635781D01*
X76214647Y-54666139D01*
X76159483Y-54704766D01*
X76096049Y-54790288D01*
X76079511Y-54884079D01*
X76101600Y-55033035D01*
X76565120Y-55695010D01*
X75955477Y-55587513D01*
X75086050Y-74778087D02*
X75259699Y-73793280D01*
X75025220Y-73751935D01*
X74876265Y-73774023D01*
X74765936Y-73851277D01*
X74702502Y-73936799D01*
X74622531Y-74116112D01*
X74597724Y-74256799D01*
X74611543Y-74452651D01*
X74641901Y-74554711D01*
X74719154Y-74665040D01*
X74851572Y-74736742D01*
X75086050Y-74778087D01*
X73585391Y-74513481D02*
X74148138Y-74612708D01*
X73866765Y-74563094D02*
X74040413Y-73578287D01*
X74109397Y-73735511D01*
X74186650Y-73845840D01*
X74272173Y-73909274D01*
X73430770Y-73470790D02*
X72821127Y-73363294D01*
X73083245Y-73796341D01*
X72942558Y-73771534D01*
X72840498Y-73801892D01*
X72785333Y-73840519D01*
X72721899Y-73926041D01*
X72680555Y-74160519D01*
X72710912Y-74262579D01*
X72749539Y-74317744D01*
X72835061Y-74381177D01*
X73116435Y-74430791D01*
X73218495Y-74400433D01*
X73273660Y-74361807D01*
X71778052Y-93538675D02*
X71951701Y-92553868D01*
X71717222Y-92512523D01*
X71568267Y-92534611D01*
X71457938Y-92611865D01*
X71394504Y-92697387D01*
X71314533Y-92876700D01*
X71289726Y-93017387D01*
X71303545Y-93213239D01*
X71333903Y-93315299D01*
X71411156Y-93425628D01*
X71543574Y-93497330D01*
X71778052Y-93538675D01*
X70277393Y-93274069D02*
X70840140Y-93373296D01*
X70558767Y-93323682D02*
X70732415Y-92338875D01*
X70801399Y-92496099D01*
X70878652Y-92606428D01*
X70964175Y-92669862D01*
X69549037Y-92468689D02*
X69433272Y-93125227D01*
X69849667Y-92134869D02*
X69960111Y-92879648D01*
X69350468Y-92772151D01*
X68470054Y-112299263D02*
X68643703Y-111314456D01*
X68409224Y-111273111D01*
X68260269Y-111295199D01*
X68149940Y-111372453D01*
X68086506Y-111457975D01*
X68006535Y-111637288D01*
X67981728Y-111777975D01*
X67995547Y-111973827D01*
X68025905Y-112075887D01*
X68103158Y-112186216D01*
X68235576Y-112257918D01*
X68470054Y-112299263D01*
X66969395Y-112034657D02*
X67532142Y-112133884D01*
X67250769Y-112084270D02*
X67424417Y-111099463D01*
X67493401Y-111256687D01*
X67570654Y-111367016D01*
X67656177Y-111430450D01*
X66252027Y-110892739D02*
X66720983Y-110975428D01*
X66685189Y-111452653D01*
X66646562Y-111397489D01*
X66561040Y-111334055D01*
X66326562Y-111292710D01*
X66224502Y-111323068D01*
X66169337Y-111361695D01*
X66105903Y-111447217D01*
X66064559Y-111681695D01*
X66094916Y-111783755D01*
X66133543Y-111838920D01*
X66219065Y-111902353D01*
X66453543Y-111943698D01*
X66555603Y-111913340D01*
X66610768Y-111874714D01*
X100983578Y-37610485D02*
X101157227Y-36625678D01*
X100922748Y-36584333D01*
X100773793Y-36606421D01*
X100663464Y-36683675D01*
X100600030Y-36769197D01*
X100520059Y-36948510D01*
X100495252Y-37089197D01*
X100509071Y-37285049D01*
X100539429Y-37387109D01*
X100616682Y-37497438D01*
X100749100Y-37569140D01*
X100983578Y-37610485D01*
X99482919Y-37345879D02*
X100045666Y-37445106D01*
X99764293Y-37395492D02*
X99937941Y-36410685D01*
X100006925Y-36567909D01*
X100084178Y-36678238D01*
X100169701Y-36741672D01*
X98812446Y-36212229D02*
X99000029Y-36245305D01*
X99085551Y-36308739D01*
X99124178Y-36363903D01*
X99193162Y-36521128D01*
X99206982Y-36716980D01*
X99140830Y-37092144D01*
X99077396Y-37177667D01*
X99022232Y-37216293D01*
X98920172Y-37246651D01*
X98732589Y-37213575D01*
X98647067Y-37150142D01*
X98608440Y-37094977D01*
X98578083Y-36992917D01*
X98619427Y-36758439D01*
X98682861Y-36672917D01*
X98738026Y-36634290D01*
X98840086Y-36603932D01*
X99027668Y-36637008D01*
X99113190Y-36700442D01*
X99151817Y-36755606D01*
X99182175Y-36857666D01*
X97675580Y-56371073D02*
X97849229Y-55386266D01*
X97614750Y-55344921D01*
X97465795Y-55367009D01*
X97355466Y-55444263D01*
X97292032Y-55529785D01*
X97212061Y-55709098D01*
X97187254Y-55849785D01*
X97201073Y-56045637D01*
X97231431Y-56147697D01*
X97308684Y-56258026D01*
X97441102Y-56329728D01*
X97675580Y-56371073D01*
X96174921Y-56106467D02*
X96737668Y-56205694D01*
X96456295Y-56156080D02*
X96629943Y-55171273D01*
X96698927Y-55328497D01*
X96776180Y-55438826D01*
X96861703Y-55502260D01*
X96020300Y-55063776D02*
X95363761Y-54948011D01*
X95612174Y-56007239D01*
X94367582Y-75131661D02*
X94541231Y-74146854D01*
X94306752Y-74105509D01*
X94157797Y-74127597D01*
X94047468Y-74204851D01*
X93984034Y-74290373D01*
X93904063Y-74469686D01*
X93879256Y-74610373D01*
X93893075Y-74806225D01*
X93923433Y-74908285D01*
X94000686Y-75018614D01*
X94133104Y-75090316D01*
X94367582Y-75131661D01*
X92866923Y-74867055D02*
X93429670Y-74966282D01*
X93148297Y-74916668D02*
X93321945Y-73931861D01*
X93390929Y-74089085D01*
X93468182Y-74199414D01*
X93553705Y-74262848D01*
X92403403Y-74205080D02*
X92505463Y-74174722D01*
X92560628Y-74136095D01*
X92624061Y-74050573D01*
X92632330Y-74003678D01*
X92601973Y-73901617D01*
X92563346Y-73846453D01*
X92477824Y-73783019D01*
X92290241Y-73749943D01*
X92188181Y-73780301D01*
X92133017Y-73818928D01*
X92069583Y-73904450D01*
X92061314Y-73951346D01*
X92091672Y-74053406D01*
X92130298Y-74108570D01*
X92215821Y-74172004D01*
X92403403Y-74205080D01*
X92488925Y-74268513D01*
X92527552Y-74323678D01*
X92557910Y-74425738D01*
X92524834Y-74613320D01*
X92461400Y-74698843D01*
X92406236Y-74737469D01*
X92304176Y-74767827D01*
X92116593Y-74734751D01*
X92031071Y-74671318D01*
X91992444Y-74616153D01*
X91962087Y-74514093D01*
X91995162Y-74326510D01*
X92058596Y-74240988D01*
X92113761Y-74202362D01*
X92215821Y-74172004D01*
X91059584Y-93892249D02*
X91233233Y-92907442D01*
X90998754Y-92866097D01*
X90849799Y-92888185D01*
X90739470Y-92965439D01*
X90676036Y-93050961D01*
X90596065Y-93230274D01*
X90571258Y-93370961D01*
X90585077Y-93566813D01*
X90615435Y-93668873D01*
X90692688Y-93779202D01*
X90825106Y-93850904D01*
X91059584Y-93892249D01*
X89558925Y-93627643D02*
X90121672Y-93726870D01*
X89840299Y-93677256D02*
X90013947Y-92692449D01*
X90082931Y-92849673D01*
X90160184Y-92960002D01*
X90245707Y-93023436D01*
X89089969Y-93544953D02*
X88902386Y-93511877D01*
X88816864Y-93448444D01*
X88778238Y-93393279D01*
X88709253Y-93236054D01*
X88695433Y-93040203D01*
X88761585Y-92665038D01*
X88825019Y-92579516D01*
X88880183Y-92540889D01*
X88982243Y-92510531D01*
X89169826Y-92543607D01*
X89255348Y-92607041D01*
X89293975Y-92662205D01*
X89324332Y-92764266D01*
X89282988Y-92998744D01*
X89219554Y-93084266D01*
X89164389Y-93122892D01*
X89062329Y-93153250D01*
X88874747Y-93120174D01*
X88789225Y-93056741D01*
X88750598Y-93001576D01*
X88720240Y-92899516D01*
X87751586Y-112652837D02*
X87925235Y-111668030D01*
X87690756Y-111626685D01*
X87541801Y-111648773D01*
X87431472Y-111726027D01*
X87368038Y-111811549D01*
X87288067Y-111990862D01*
X87263260Y-112131549D01*
X87277079Y-112327401D01*
X87307437Y-112429461D01*
X87384690Y-112539790D01*
X87517108Y-112611492D01*
X87751586Y-112652837D01*
X86970784Y-111596442D02*
X86932158Y-111541277D01*
X86846636Y-111477843D01*
X86612158Y-111436499D01*
X86510097Y-111466856D01*
X86454933Y-111505483D01*
X86391499Y-111591005D01*
X86374961Y-111684796D01*
X86397050Y-111833752D01*
X86860570Y-112495727D01*
X86250927Y-112388231D01*
X85814932Y-111295926D02*
X85721141Y-111279388D01*
X85619081Y-111309746D01*
X85563916Y-111348373D01*
X85500483Y-111433895D01*
X85420511Y-111613208D01*
X85379166Y-111847686D01*
X85392986Y-112043538D01*
X85423344Y-112145598D01*
X85461971Y-112200763D01*
X85547493Y-112264196D01*
X85641284Y-112280734D01*
X85743344Y-112250376D01*
X85798509Y-112211750D01*
X85861942Y-112126227D01*
X85941914Y-111946914D01*
X85983259Y-111712436D01*
X85969439Y-111516585D01*
X85939081Y-111414524D01*
X85900454Y-111359360D01*
X85814932Y-111295926D01*
X119223221Y-43872906D02*
X119396870Y-42888099D01*
X119162391Y-42846754D01*
X119013436Y-42868842D01*
X118903107Y-42946096D01*
X118839673Y-43031618D01*
X118759702Y-43210931D01*
X118734895Y-43351618D01*
X118748714Y-43547470D01*
X118779072Y-43649530D01*
X118856325Y-43759859D01*
X118988743Y-43831561D01*
X119223221Y-43872906D01*
X118442419Y-42816511D02*
X118403793Y-42761346D01*
X118318271Y-42697912D01*
X118083793Y-42656568D01*
X117981732Y-42686925D01*
X117926568Y-42725552D01*
X117863134Y-42811074D01*
X117846596Y-42904865D01*
X117868685Y-43053821D01*
X118332205Y-43715796D01*
X117722562Y-43608300D01*
X116784650Y-43442920D02*
X117347397Y-43542148D01*
X117066023Y-43492534D02*
X117239672Y-42507726D01*
X117308656Y-42664951D01*
X117385909Y-42775280D01*
X117471431Y-42838714D01*
X115915223Y-62633494D02*
X116088872Y-61648687D01*
X115854393Y-61607342D01*
X115705438Y-61629430D01*
X115595109Y-61706684D01*
X115531675Y-61792206D01*
X115451704Y-61971519D01*
X115426897Y-62112206D01*
X115440716Y-62308058D01*
X115471074Y-62410118D01*
X115548327Y-62520447D01*
X115680745Y-62592149D01*
X115915223Y-62633494D01*
X115134421Y-61577099D02*
X115095795Y-61521934D01*
X115010273Y-61458500D01*
X114775795Y-61417156D01*
X114673734Y-61447513D01*
X114618570Y-61486140D01*
X114555136Y-61571662D01*
X114538598Y-61665453D01*
X114560687Y-61814409D01*
X115024207Y-62476384D01*
X114414564Y-62368888D01*
X114196509Y-61411719D02*
X114157883Y-61356555D01*
X114072360Y-61293121D01*
X113837882Y-61251776D01*
X113735822Y-61282134D01*
X113680658Y-61320761D01*
X113617224Y-61406283D01*
X113600686Y-61500074D01*
X113622775Y-61649030D01*
X114086295Y-62311005D01*
X113476652Y-62203508D01*
X112607225Y-81394082D02*
X112780874Y-80409275D01*
X112546395Y-80367930D01*
X112397440Y-80390018D01*
X112287111Y-80467272D01*
X112223677Y-80552794D01*
X112143706Y-80732107D01*
X112118899Y-80872794D01*
X112132718Y-81068646D01*
X112163076Y-81170706D01*
X112240329Y-81281035D01*
X112372747Y-81352737D01*
X112607225Y-81394082D01*
X111826423Y-80337687D02*
X111787797Y-80282522D01*
X111702275Y-80219088D01*
X111467797Y-80177744D01*
X111365736Y-80208101D01*
X111310572Y-80246728D01*
X111247138Y-80332250D01*
X111230600Y-80426041D01*
X111252689Y-80574997D01*
X111716209Y-81236972D01*
X111106566Y-81129476D01*
X110951945Y-80086785D02*
X110342302Y-79979289D01*
X110604420Y-80412336D01*
X110463733Y-80387529D01*
X110361673Y-80417887D01*
X110306508Y-80456514D01*
X110243074Y-80542036D01*
X110201730Y-80776514D01*
X110232087Y-80878574D01*
X110270714Y-80933739D01*
X110356236Y-80997172D01*
X110637610Y-81046786D01*
X110739670Y-81016428D01*
X110794835Y-80977802D01*
X109299227Y-100154670D02*
X109472876Y-99169863D01*
X109238397Y-99128518D01*
X109089442Y-99150606D01*
X108979113Y-99227860D01*
X108915679Y-99313382D01*
X108835708Y-99492695D01*
X108810901Y-99633382D01*
X108824720Y-99829234D01*
X108855078Y-99931294D01*
X108932331Y-100041623D01*
X109064749Y-100113325D01*
X109299227Y-100154670D01*
X108518425Y-99098275D02*
X108479799Y-99043110D01*
X108394277Y-98979676D01*
X108159799Y-98938332D01*
X108057738Y-98968689D01*
X108002574Y-99007316D01*
X107939140Y-99092838D01*
X107922602Y-99186629D01*
X107944691Y-99335585D01*
X108408211Y-99997560D01*
X107798568Y-99890064D01*
X107070212Y-99084684D02*
X106954447Y-99741222D01*
X107370842Y-98750864D02*
X107481286Y-99495643D01*
X106871643Y-99388146D01*
X105991229Y-118915258D02*
X106164878Y-117930451D01*
X105930399Y-117889106D01*
X105781444Y-117911194D01*
X105671115Y-117988448D01*
X105607681Y-118073970D01*
X105527710Y-118253283D01*
X105502903Y-118393970D01*
X105516722Y-118589822D01*
X105547080Y-118691882D01*
X105624333Y-118802211D01*
X105756751Y-118873913D01*
X105991229Y-118915258D01*
X105210427Y-117858863D02*
X105171801Y-117803698D01*
X105086279Y-117740264D01*
X104851801Y-117698920D01*
X104749740Y-117729277D01*
X104694576Y-117767904D01*
X104631142Y-117853426D01*
X104614604Y-117947217D01*
X104636693Y-118096173D01*
X105100213Y-118758148D01*
X104490570Y-118650652D01*
X103773202Y-117508734D02*
X104242158Y-117591423D01*
X104206364Y-118068648D01*
X104167737Y-118013484D01*
X104082215Y-117950050D01*
X103847737Y-117908705D01*
X103745677Y-117939063D01*
X103690512Y-117977690D01*
X103627078Y-118063212D01*
X103585734Y-118297690D01*
X103616091Y-118399750D01*
X103654718Y-118454915D01*
X103740240Y-118518348D01*
X103974718Y-118559693D01*
X104076778Y-118529335D01*
X104131943Y-118490709D01*
X137462864Y-50135327D02*
X137636513Y-49150520D01*
X137402034Y-49109175D01*
X137253079Y-49131263D01*
X137142750Y-49208517D01*
X137079316Y-49294039D01*
X136999345Y-49473352D01*
X136974538Y-49614039D01*
X136988357Y-49809891D01*
X137018715Y-49911951D01*
X137095968Y-50022280D01*
X137228386Y-50093982D01*
X137462864Y-50135327D01*
X136682062Y-49078932D02*
X136643436Y-49023767D01*
X136557914Y-48960333D01*
X136323436Y-48918989D01*
X136221375Y-48949346D01*
X136166211Y-48987973D01*
X136102777Y-49073495D01*
X136086239Y-49167286D01*
X136108328Y-49316242D01*
X136571848Y-49978217D01*
X135962205Y-49870721D01*
X135291732Y-48737071D02*
X135479315Y-48770147D01*
X135564837Y-48833581D01*
X135603464Y-48888745D01*
X135672448Y-49045970D01*
X135686268Y-49241822D01*
X135620116Y-49616986D01*
X135556682Y-49702509D01*
X135501518Y-49741135D01*
X135399458Y-49771493D01*
X135211875Y-49738417D01*
X135126353Y-49674984D01*
X135087726Y-49619819D01*
X135057369Y-49517759D01*
X135098713Y-49283281D01*
X135162147Y-49197759D01*
X135217312Y-49159132D01*
X135319372Y-49128774D01*
X135506954Y-49161850D01*
X135592476Y-49225284D01*
X135631103Y-49280448D01*
X135661461Y-49382508D01*
X134154866Y-68895915D02*
X134328515Y-67911108D01*
X134094036Y-67869763D01*
X133945081Y-67891851D01*
X133834752Y-67969105D01*
X133771318Y-68054627D01*
X133691347Y-68233940D01*
X133666540Y-68374627D01*
X133680359Y-68570479D01*
X133710717Y-68672539D01*
X133787970Y-68782868D01*
X133920388Y-68854570D01*
X134154866Y-68895915D01*
X133374064Y-67839520D02*
X133335438Y-67784355D01*
X133249916Y-67720921D01*
X133015438Y-67679577D01*
X132913377Y-67709934D01*
X132858213Y-67748561D01*
X132794779Y-67834083D01*
X132778241Y-67927874D01*
X132800330Y-68076830D01*
X133263850Y-68738805D01*
X132654207Y-68631309D01*
X132499586Y-67588618D02*
X131843047Y-67472853D01*
X132091460Y-68532081D01*
X130846868Y-87656503D02*
X131020517Y-86671696D01*
X130786038Y-86630351D01*
X130637083Y-86652439D01*
X130526754Y-86729693D01*
X130463320Y-86815215D01*
X130383349Y-86994528D01*
X130358542Y-87135215D01*
X130372361Y-87331067D01*
X130402719Y-87433127D01*
X130479972Y-87543456D01*
X130612390Y-87615158D01*
X130846868Y-87656503D01*
X130066066Y-86600108D02*
X130027440Y-86544943D01*
X129941918Y-86481509D01*
X129707440Y-86440165D01*
X129605379Y-86470522D01*
X129550215Y-86509149D01*
X129486781Y-86594671D01*
X129470243Y-86688462D01*
X129492332Y-86837418D01*
X129955852Y-87499393D01*
X129346209Y-87391897D01*
X128882689Y-86729922D02*
X128984749Y-86699564D01*
X129039914Y-86660937D01*
X129103347Y-86575415D01*
X129111616Y-86528520D01*
X129081259Y-86426459D01*
X129042632Y-86371295D01*
X128957110Y-86307861D01*
X128769527Y-86274785D01*
X128667467Y-86305143D01*
X128612303Y-86343770D01*
X128548869Y-86429292D01*
X128540600Y-86476188D01*
X128570958Y-86578248D01*
X128609584Y-86633412D01*
X128695107Y-86696846D01*
X128882689Y-86729922D01*
X128968211Y-86793355D01*
X129006838Y-86848520D01*
X129037196Y-86950580D01*
X129004120Y-87138162D01*
X128940686Y-87223685D01*
X128885522Y-87262311D01*
X128783462Y-87292669D01*
X128595879Y-87259593D01*
X128510357Y-87196160D01*
X128471730Y-87140995D01*
X128441373Y-87038935D01*
X128474448Y-86851352D01*
X128537882Y-86765830D01*
X128593047Y-86727204D01*
X128695107Y-86696846D01*
X127538870Y-106417091D02*
X127712519Y-105432284D01*
X127478040Y-105390939D01*
X127329085Y-105413027D01*
X127218756Y-105490281D01*
X127155322Y-105575803D01*
X127075351Y-105755116D01*
X127050544Y-105895803D01*
X127064363Y-106091655D01*
X127094721Y-106193715D01*
X127171974Y-106304044D01*
X127304392Y-106375746D01*
X127538870Y-106417091D01*
X126758068Y-105360696D02*
X126719442Y-105305531D01*
X126633920Y-105242097D01*
X126399442Y-105200753D01*
X126297381Y-105231110D01*
X126242217Y-105269737D01*
X126178783Y-105355259D01*
X126162245Y-105449050D01*
X126184334Y-105598006D01*
X126647854Y-106259981D01*
X126038211Y-106152485D01*
X125569255Y-106069795D02*
X125381672Y-106036719D01*
X125296150Y-105973286D01*
X125257524Y-105918121D01*
X125188539Y-105760896D01*
X125174719Y-105565045D01*
X125240871Y-105189880D01*
X125304305Y-105104358D01*
X125359469Y-105065731D01*
X125461529Y-105035373D01*
X125649112Y-105068449D01*
X125734634Y-105131883D01*
X125773261Y-105187047D01*
X125803618Y-105289108D01*
X125762274Y-105523586D01*
X125698840Y-105609108D01*
X125643675Y-105647734D01*
X125541615Y-105678092D01*
X125354033Y-105645016D01*
X125268511Y-105581583D01*
X125229884Y-105526418D01*
X125199526Y-105424358D01*
X124230872Y-125177679D02*
X124404521Y-124192872D01*
X124170042Y-124151527D01*
X124021087Y-124173615D01*
X123910758Y-124250869D01*
X123847324Y-124336391D01*
X123767353Y-124515704D01*
X123742546Y-124656391D01*
X123756365Y-124852243D01*
X123786723Y-124954303D01*
X123863976Y-125064632D01*
X123996394Y-125136334D01*
X124230872Y-125177679D01*
X123513504Y-124035761D02*
X122903861Y-123928265D01*
X123165979Y-124361312D01*
X123025292Y-124336505D01*
X122923232Y-124366863D01*
X122868067Y-124405490D01*
X122804634Y-124491012D01*
X122763289Y-124725490D01*
X122793646Y-124827550D01*
X122832273Y-124882715D01*
X122917795Y-124946148D01*
X123199169Y-124995762D01*
X123301229Y-124965404D01*
X123356394Y-124926778D01*
X122294218Y-123820768D02*
X122200427Y-123804230D01*
X122098367Y-123834588D01*
X122043202Y-123873215D01*
X121979769Y-123958737D01*
X121899797Y-124138050D01*
X121858452Y-124372528D01*
X121872272Y-124568380D01*
X121902630Y-124670440D01*
X121941257Y-124725605D01*
X122026779Y-124789038D01*
X122120570Y-124805576D01*
X122222630Y-124775218D01*
X122277795Y-124736592D01*
X122341228Y-124651069D01*
X122421200Y-124471756D01*
X122462545Y-124237278D01*
X122448725Y-124041427D01*
X122418367Y-123939366D01*
X122379740Y-123884202D01*
X122294218Y-123820768D01*
X217019957Y-50755500D02*
X216846308Y-49770693D01*
X216611830Y-49812037D01*
X216479413Y-49883740D01*
X216402159Y-49994069D01*
X216371802Y-50096129D01*
X216357982Y-50291981D01*
X216382789Y-50432667D01*
X216462760Y-50611981D01*
X216526194Y-50697503D01*
X216636523Y-50774756D01*
X216785479Y-50796845D01*
X217019957Y-50755500D01*
X215955292Y-49927803D02*
X215345649Y-50035299D01*
X215740070Y-50352581D01*
X215599383Y-50377388D01*
X215513861Y-50440822D01*
X215475234Y-50495986D01*
X215444877Y-50598047D01*
X215486221Y-50832525D01*
X215549655Y-50918047D01*
X215604819Y-50956673D01*
X215706880Y-50987031D01*
X215988253Y-50937417D01*
X216073776Y-50873984D01*
X216112402Y-50818819D01*
X214581385Y-51185486D02*
X215144132Y-51086259D01*
X214862759Y-51135872D02*
X214689111Y-50151065D01*
X214807709Y-50275214D01*
X214918038Y-50352467D01*
X215020098Y-50382825D01*
X220327955Y-69516088D02*
X220154306Y-68531281D01*
X219919828Y-68572625D01*
X219787411Y-68644328D01*
X219710157Y-68754657D01*
X219679800Y-68856717D01*
X219665980Y-69052569D01*
X219690787Y-69193255D01*
X219770758Y-69372569D01*
X219834192Y-69458091D01*
X219944521Y-69535344D01*
X220093477Y-69557433D01*
X220327955Y-69516088D01*
X219263290Y-68688391D02*
X218653647Y-68795887D01*
X219048068Y-69113169D01*
X218907381Y-69137976D01*
X218821859Y-69201410D01*
X218783232Y-69256574D01*
X218752875Y-69358635D01*
X218794219Y-69593113D01*
X218857653Y-69678635D01*
X218912817Y-69717261D01*
X219014878Y-69747619D01*
X219296251Y-69698005D01*
X219381774Y-69634572D01*
X219420400Y-69579407D01*
X218295020Y-68955830D02*
X218239855Y-68917204D01*
X218137795Y-68886846D01*
X217903317Y-68928191D01*
X217817795Y-68991624D01*
X217779168Y-69046789D01*
X217748811Y-69148849D01*
X217765349Y-69242640D01*
X217837051Y-69375058D01*
X218499026Y-69838578D01*
X217889383Y-69946074D01*
X223635953Y-88276676D02*
X223462304Y-87291869D01*
X223227826Y-87333213D01*
X223095409Y-87404916D01*
X223018155Y-87515245D01*
X222987798Y-87617305D01*
X222973978Y-87813157D01*
X222998785Y-87953843D01*
X223078756Y-88133157D01*
X223142190Y-88218679D01*
X223252519Y-88295932D01*
X223401475Y-88318021D01*
X223635953Y-88276676D01*
X222571288Y-87448979D02*
X221961645Y-87556475D01*
X222356066Y-87873757D01*
X222215379Y-87898564D01*
X222129857Y-87961998D01*
X222091230Y-88017162D01*
X222060873Y-88119223D01*
X222102217Y-88353701D01*
X222165651Y-88439223D01*
X222220815Y-88477849D01*
X222322876Y-88508207D01*
X222604249Y-88458593D01*
X222689772Y-88395160D01*
X222728398Y-88339995D01*
X221633376Y-87614358D02*
X221023733Y-87721854D01*
X221418154Y-88039137D01*
X221277467Y-88063943D01*
X221191945Y-88127377D01*
X221153318Y-88182542D01*
X221122960Y-88284602D01*
X221164305Y-88519080D01*
X221227739Y-88604602D01*
X221282903Y-88643229D01*
X221384963Y-88673586D01*
X221666337Y-88623973D01*
X221751859Y-88560539D01*
X221790486Y-88505375D01*
X226943951Y-107037264D02*
X226770302Y-106052457D01*
X226535824Y-106093801D01*
X226403407Y-106165504D01*
X226326153Y-106275833D01*
X226295796Y-106377893D01*
X226281976Y-106573745D01*
X226306783Y-106714431D01*
X226386754Y-106893745D01*
X226450188Y-106979267D01*
X226560517Y-107056520D01*
X226709473Y-107078609D01*
X226943951Y-107037264D01*
X225879286Y-106209567D02*
X225269643Y-106317063D01*
X225664064Y-106634345D01*
X225523377Y-106659152D01*
X225437855Y-106722586D01*
X225399228Y-106777750D01*
X225368871Y-106879811D01*
X225410215Y-107114289D01*
X225473649Y-107199811D01*
X225528813Y-107238437D01*
X225630874Y-107268795D01*
X225912247Y-107219181D01*
X225997770Y-107155748D01*
X226036396Y-107100583D01*
X224483405Y-106794174D02*
X224599170Y-107450712D01*
X224651731Y-106377664D02*
X225010244Y-107039753D01*
X224400601Y-107147250D01*
X230251949Y-125797852D02*
X230078300Y-124813045D01*
X229843822Y-124854389D01*
X229711405Y-124926092D01*
X229634151Y-125036421D01*
X229603794Y-125138481D01*
X229589974Y-125334333D01*
X229614781Y-125475019D01*
X229694752Y-125654333D01*
X229758186Y-125739855D01*
X229868515Y-125817108D01*
X230017471Y-125839197D01*
X230251949Y-125797852D01*
X229187284Y-124970155D02*
X228577641Y-125077651D01*
X228972062Y-125394933D01*
X228831375Y-125419740D01*
X228745853Y-125483174D01*
X228707226Y-125538338D01*
X228676869Y-125640399D01*
X228718213Y-125874877D01*
X228781647Y-125960399D01*
X228836811Y-125999025D01*
X228938872Y-126029383D01*
X229220245Y-125979769D01*
X229305768Y-125916336D01*
X229344394Y-125861171D01*
X227686624Y-125234762D02*
X228155581Y-125152072D01*
X228285166Y-125612759D01*
X228230001Y-125574132D01*
X228127941Y-125543775D01*
X227893463Y-125585119D01*
X227807941Y-125648553D01*
X227769314Y-125703718D01*
X227738956Y-125805778D01*
X227780301Y-126040256D01*
X227843735Y-126125778D01*
X227898899Y-126164405D01*
X228000959Y-126194762D01*
X228235438Y-126153418D01*
X228320960Y-126089984D01*
X228359586Y-126034819D01*
X235259601Y-44493079D02*
X235085952Y-43508272D01*
X234851474Y-43549616D01*
X234719057Y-43621319D01*
X234641803Y-43731648D01*
X234611446Y-43833708D01*
X234597626Y-44029560D01*
X234622433Y-44170246D01*
X234702404Y-44349560D01*
X234765838Y-44435082D01*
X234876167Y-44512335D01*
X235025123Y-44534424D01*
X235259601Y-44493079D01*
X234194936Y-43665382D02*
X233585293Y-43772878D01*
X233979714Y-44090160D01*
X233839027Y-44114967D01*
X233753505Y-44178401D01*
X233714878Y-44233565D01*
X233684521Y-44335626D01*
X233725865Y-44570104D01*
X233789299Y-44655626D01*
X233844463Y-44694252D01*
X233946524Y-44724610D01*
X234227897Y-44674996D01*
X234313420Y-44611563D01*
X234352046Y-44556398D01*
X232741172Y-43921720D02*
X232928755Y-43888644D01*
X233030815Y-43919001D01*
X233085979Y-43957628D01*
X233204577Y-44081777D01*
X233284549Y-44261090D01*
X233350700Y-44636255D01*
X233320343Y-44738315D01*
X233281716Y-44793480D01*
X233196194Y-44856914D01*
X233008611Y-44889989D01*
X232906551Y-44859632D01*
X232851387Y-44821005D01*
X232787953Y-44735483D01*
X232746608Y-44501005D01*
X232776966Y-44398945D01*
X232815593Y-44343780D01*
X232901115Y-44280346D01*
X233088697Y-44247271D01*
X233190758Y-44277628D01*
X233245922Y-44316255D01*
X233309356Y-44401777D01*
X238567599Y-63253667D02*
X238393950Y-62268860D01*
X238159472Y-62310204D01*
X238027055Y-62381907D01*
X237949801Y-62492236D01*
X237919444Y-62594296D01*
X237905624Y-62790148D01*
X237930431Y-62930834D01*
X238010402Y-63110148D01*
X238073836Y-63195670D01*
X238184165Y-63272923D01*
X238333121Y-63295012D01*
X238567599Y-63253667D01*
X237502934Y-62425970D02*
X236893291Y-62533466D01*
X237287712Y-62850748D01*
X237147025Y-62875555D01*
X237061503Y-62938989D01*
X237022876Y-62994153D01*
X236992519Y-63096214D01*
X237033863Y-63330692D01*
X237097297Y-63416214D01*
X237152461Y-63454840D01*
X237254522Y-63485198D01*
X237535895Y-63435584D01*
X237621418Y-63372151D01*
X237660044Y-63316986D01*
X236565022Y-62591349D02*
X235908483Y-62707114D01*
X236504192Y-63617502D01*
X241875597Y-82014255D02*
X241701948Y-81029448D01*
X241467470Y-81070792D01*
X241335053Y-81142495D01*
X241257799Y-81252824D01*
X241227442Y-81354884D01*
X241213622Y-81550736D01*
X241238429Y-81691422D01*
X241318400Y-81870736D01*
X241381834Y-81956258D01*
X241492163Y-82033511D01*
X241641119Y-82055600D01*
X241875597Y-82014255D01*
X240810932Y-81186558D02*
X240201289Y-81294054D01*
X240595710Y-81611336D01*
X240455023Y-81636143D01*
X240369501Y-81699577D01*
X240330874Y-81754741D01*
X240300517Y-81856802D01*
X240341861Y-82091280D01*
X240405295Y-82176802D01*
X240460459Y-82215428D01*
X240562520Y-82245786D01*
X240843893Y-82196172D01*
X240929416Y-82132739D01*
X240968042Y-82077574D01*
X239712962Y-81815342D02*
X239798485Y-81751909D01*
X239837111Y-81696744D01*
X239867469Y-81594684D01*
X239859200Y-81547788D01*
X239795766Y-81462266D01*
X239740602Y-81423639D01*
X239638542Y-81393282D01*
X239450959Y-81426358D01*
X239365437Y-81489791D01*
X239326810Y-81544956D01*
X239296453Y-81647016D01*
X239304722Y-81693912D01*
X239368155Y-81779434D01*
X239423320Y-81818060D01*
X239525380Y-81848418D01*
X239712962Y-81815342D01*
X239815023Y-81845700D01*
X239870187Y-81884327D01*
X239933621Y-81969849D01*
X239966696Y-82157431D01*
X239936339Y-82259491D01*
X239897712Y-82314656D01*
X239812190Y-82378090D01*
X239624607Y-82411165D01*
X239522547Y-82380808D01*
X239467383Y-82342181D01*
X239403949Y-82256659D01*
X239370873Y-82069076D01*
X239401231Y-81967016D01*
X239439858Y-81911852D01*
X239525380Y-81848418D01*
X245183595Y-100774843D02*
X245009946Y-99790036D01*
X244775468Y-99831380D01*
X244643051Y-99903083D01*
X244565797Y-100013412D01*
X244535440Y-100115472D01*
X244521620Y-100311324D01*
X244546427Y-100452010D01*
X244626398Y-100631324D01*
X244689832Y-100716846D01*
X244800161Y-100794099D01*
X244949117Y-100816188D01*
X245183595Y-100774843D01*
X244118930Y-99947146D02*
X243509287Y-100054642D01*
X243903708Y-100371924D01*
X243763021Y-100396731D01*
X243677499Y-100460165D01*
X243638872Y-100515329D01*
X243608515Y-100617390D01*
X243649859Y-100851868D01*
X243713293Y-100937390D01*
X243768457Y-100976016D01*
X243870518Y-101006374D01*
X244151891Y-100956760D01*
X244237414Y-100893327D01*
X244276040Y-100838162D01*
X243213979Y-101122140D02*
X243026397Y-101155215D01*
X242924337Y-101124858D01*
X242869172Y-101086231D01*
X242750574Y-100962082D01*
X242670602Y-100782769D01*
X242604451Y-100407604D01*
X242634808Y-100305544D01*
X242673435Y-100250379D01*
X242758957Y-100186946D01*
X242946540Y-100153870D01*
X243048600Y-100184227D01*
X243103764Y-100222854D01*
X243167198Y-100308376D01*
X243208543Y-100542854D01*
X243178185Y-100644915D01*
X243139558Y-100700079D01*
X243054036Y-100763513D01*
X242866454Y-100796589D01*
X242764394Y-100766231D01*
X242709229Y-100727604D01*
X242645796Y-100642082D01*
X248491593Y-119535431D02*
X248317944Y-118550624D01*
X248083466Y-118591968D01*
X247951049Y-118663671D01*
X247873795Y-118774000D01*
X247843438Y-118876060D01*
X247829618Y-119071912D01*
X247854425Y-119212598D01*
X247934396Y-119391912D01*
X247997830Y-119477434D01*
X248108159Y-119554687D01*
X248257115Y-119576776D01*
X248491593Y-119535431D01*
X246968959Y-119126962D02*
X247084724Y-119783500D01*
X247137285Y-118710452D02*
X247495798Y-119372541D01*
X246886155Y-119480038D01*
X246207642Y-118922727D02*
X246113851Y-118939265D01*
X246028329Y-119002698D01*
X245989702Y-119057863D01*
X245959344Y-119159923D01*
X245945525Y-119355774D01*
X245986869Y-119590252D01*
X246066841Y-119769566D01*
X246130274Y-119855088D01*
X246185439Y-119893715D01*
X246287499Y-119924072D01*
X246381290Y-119907535D01*
X246466813Y-119844101D01*
X246505439Y-119788936D01*
X246535797Y-119686876D01*
X246549617Y-119491025D01*
X246508272Y-119256547D01*
X246428300Y-119077233D01*
X246364867Y-118991711D01*
X246309702Y-118953084D01*
X246207642Y-118922727D01*
X253499245Y-38230658D02*
X253325596Y-37245851D01*
X253091118Y-37287195D01*
X252958701Y-37358898D01*
X252881447Y-37469227D01*
X252851090Y-37571287D01*
X252837270Y-37767139D01*
X252862077Y-37907825D01*
X252942048Y-38087139D01*
X253005482Y-38172661D01*
X253115811Y-38249914D01*
X253264767Y-38272003D01*
X253499245Y-38230658D01*
X251976611Y-37822189D02*
X252092376Y-38478727D01*
X252144937Y-37405679D02*
X252503450Y-38067768D01*
X251893807Y-38175265D01*
X251060673Y-38660644D02*
X251623420Y-38561417D01*
X251342047Y-38611030D02*
X251168399Y-37626223D01*
X251286997Y-37750372D01*
X251397326Y-37827625D01*
X251499386Y-37857983D01*
X256807243Y-56991246D02*
X256633594Y-56006439D01*
X256399116Y-56047783D01*
X256266699Y-56119486D01*
X256189445Y-56229815D01*
X256159088Y-56331875D01*
X256145268Y-56527727D01*
X256170075Y-56668413D01*
X256250046Y-56847727D01*
X256313480Y-56933249D01*
X256423809Y-57010502D01*
X256572765Y-57032591D01*
X256807243Y-56991246D01*
X255284609Y-56582777D02*
X255400374Y-57239315D01*
X255452935Y-56166267D02*
X255811448Y-56828356D01*
X255201805Y-56935853D01*
X254774308Y-56430988D02*
X254719143Y-56392362D01*
X254617083Y-56362004D01*
X254382605Y-56403349D01*
X254297083Y-56466782D01*
X254258456Y-56521947D01*
X254228099Y-56624007D01*
X254244637Y-56717798D01*
X254316339Y-56850216D01*
X254978314Y-57313736D01*
X254368671Y-57421232D01*
X260115241Y-75751834D02*
X259941592Y-74767027D01*
X259707114Y-74808371D01*
X259574697Y-74880074D01*
X259497443Y-74990403D01*
X259467086Y-75092463D01*
X259453266Y-75288315D01*
X259478073Y-75429001D01*
X259558044Y-75608315D01*
X259621478Y-75693837D01*
X259731807Y-75771090D01*
X259880763Y-75793179D01*
X260115241Y-75751834D01*
X258592607Y-75343365D02*
X258708372Y-75999903D01*
X258760933Y-74926855D02*
X259119446Y-75588944D01*
X258509803Y-75696441D01*
X258112664Y-75089516D02*
X257503021Y-75197012D01*
X257897442Y-75514295D01*
X257756755Y-75539101D01*
X257671233Y-75602535D01*
X257632606Y-75657700D01*
X257602248Y-75759760D01*
X257643593Y-75994238D01*
X257707027Y-76079760D01*
X257762191Y-76118387D01*
X257864251Y-76148744D01*
X258145625Y-76099131D01*
X258231147Y-76035697D01*
X258269774Y-75980533D01*
X263423239Y-94512422D02*
X263249590Y-93527615D01*
X263015112Y-93568959D01*
X262882695Y-93640662D01*
X262805441Y-93750991D01*
X262775084Y-93853051D01*
X262761264Y-94048903D01*
X262786071Y-94189589D01*
X262866042Y-94368903D01*
X262929476Y-94454425D01*
X263039805Y-94531678D01*
X263188761Y-94553767D01*
X263423239Y-94512422D01*
X261900605Y-94103953D02*
X262016370Y-94760491D01*
X262068931Y-93687443D02*
X262427444Y-94349532D01*
X261817801Y-94457029D01*
X260962693Y-94269332D02*
X261078458Y-94925870D01*
X261131019Y-93852822D02*
X261489532Y-94514911D01*
X260879889Y-94622408D01*
X266731237Y-113273010D02*
X266557588Y-112288203D01*
X266323110Y-112329547D01*
X266190693Y-112401250D01*
X266113439Y-112511579D01*
X266083082Y-112613639D01*
X266069262Y-112809491D01*
X266094069Y-112950177D01*
X266174040Y-113129491D01*
X266237474Y-113215013D01*
X266347803Y-113292266D01*
X266496759Y-113314355D01*
X266731237Y-113273010D01*
X265208603Y-112864541D02*
X265324368Y-113521079D01*
X265376929Y-112448031D02*
X265735442Y-113110120D01*
X265125799Y-113217617D01*
X264165912Y-112709920D02*
X264634869Y-112627230D01*
X264764454Y-113087917D01*
X264709289Y-113049290D01*
X264607229Y-113018933D01*
X264372751Y-113060277D01*
X264287229Y-113123711D01*
X264248602Y-113178876D01*
X264218244Y-113280936D01*
X264259589Y-113515414D01*
X264323023Y-113600936D01*
X264378187Y-113639563D01*
X264480247Y-113669920D01*
X264714726Y-113628576D01*
X264800248Y-113565142D01*
X264838874Y-113509977D01*
X272780778Y-37877084D02*
X272607129Y-36892277D01*
X272372651Y-36933621D01*
X272240234Y-37005324D01*
X272162980Y-37115653D01*
X272132623Y-37217713D01*
X272118803Y-37413565D01*
X272143610Y-37554251D01*
X272223581Y-37733565D01*
X272287015Y-37819087D01*
X272397344Y-37896340D01*
X272546300Y-37918429D01*
X272780778Y-37877084D01*
X271258144Y-37468615D02*
X271373909Y-38125153D01*
X271426470Y-37052105D02*
X271784983Y-37714194D01*
X271175340Y-37821691D01*
X270262349Y-37305725D02*
X270449932Y-37272649D01*
X270551992Y-37303006D01*
X270607156Y-37341633D01*
X270725754Y-37465782D01*
X270805726Y-37645095D01*
X270871877Y-38020260D01*
X270841520Y-38122320D01*
X270802893Y-38177485D01*
X270717371Y-38240919D01*
X270529788Y-38273994D01*
X270427728Y-38243637D01*
X270372564Y-38205010D01*
X270309130Y-38119488D01*
X270267785Y-37885010D01*
X270298143Y-37782950D01*
X270336770Y-37727785D01*
X270422292Y-37664351D01*
X270609874Y-37631276D01*
X270711935Y-37661633D01*
X270767099Y-37700260D01*
X270830533Y-37785782D01*
X276088776Y-56637672D02*
X275915127Y-55652865D01*
X275680649Y-55694209D01*
X275548232Y-55765912D01*
X275470978Y-55876241D01*
X275440621Y-55978301D01*
X275426801Y-56174153D01*
X275451608Y-56314839D01*
X275531579Y-56494153D01*
X275595013Y-56579675D01*
X275705342Y-56656928D01*
X275854298Y-56679017D01*
X276088776Y-56637672D01*
X274566142Y-56229203D02*
X274681907Y-56885741D01*
X274734468Y-55812693D02*
X275092981Y-56474782D01*
X274483338Y-56582279D01*
X274086199Y-55975354D02*
X273429660Y-56091119D01*
X274025369Y-57001507D01*
X279396774Y-75398260D02*
X279223125Y-74413453D01*
X278988647Y-74454797D01*
X278856230Y-74526500D01*
X278778976Y-74636829D01*
X278748619Y-74738889D01*
X278734799Y-74934741D01*
X278759606Y-75075427D01*
X278839577Y-75254741D01*
X278903011Y-75340263D01*
X279013340Y-75417516D01*
X279162296Y-75439605D01*
X279396774Y-75398260D01*
X277874140Y-74989791D02*
X277989905Y-75646329D01*
X278042466Y-74573281D02*
X278400979Y-75235370D01*
X277791336Y-75342867D01*
X277234139Y-75199347D02*
X277319662Y-75135914D01*
X277358288Y-75080749D01*
X277388646Y-74978689D01*
X277380377Y-74931793D01*
X277316943Y-74846271D01*
X277261779Y-74807644D01*
X277159719Y-74777287D01*
X276972136Y-74810363D01*
X276886614Y-74873796D01*
X276847987Y-74928961D01*
X276817630Y-75031021D01*
X276825899Y-75077917D01*
X276889332Y-75163439D01*
X276944497Y-75202065D01*
X277046557Y-75232423D01*
X277234139Y-75199347D01*
X277336200Y-75229705D01*
X277391364Y-75268332D01*
X277454798Y-75353854D01*
X277487873Y-75541436D01*
X277457516Y-75643496D01*
X277418889Y-75698661D01*
X277333367Y-75762095D01*
X277145784Y-75795170D01*
X277043724Y-75764813D01*
X276988560Y-75726186D01*
X276925126Y-75640664D01*
X276892050Y-75453081D01*
X276922408Y-75351021D01*
X276961035Y-75295857D01*
X277046557Y-75232423D01*
X282704772Y-94158848D02*
X282531123Y-93174041D01*
X282296645Y-93215385D01*
X282164228Y-93287088D01*
X282086974Y-93397417D01*
X282056617Y-93499477D01*
X282042797Y-93695329D01*
X282067604Y-93836015D01*
X282147575Y-94015329D01*
X282211009Y-94100851D01*
X282321338Y-94178104D01*
X282470294Y-94200193D01*
X282704772Y-94158848D01*
X281182138Y-93750379D02*
X281297903Y-94406917D01*
X281350464Y-93333869D02*
X281708977Y-93995958D01*
X281099334Y-94103455D01*
X280735156Y-94506145D02*
X280547574Y-94539220D01*
X280445514Y-94508863D01*
X280390349Y-94470236D01*
X280271751Y-94346087D01*
X280191779Y-94166774D01*
X280125628Y-93791609D01*
X280155985Y-93689549D01*
X280194612Y-93634384D01*
X280280134Y-93570951D01*
X280467717Y-93537875D01*
X280569777Y-93568232D01*
X280624941Y-93606859D01*
X280688375Y-93692381D01*
X280729720Y-93926859D01*
X280699362Y-94028920D01*
X280660735Y-94084084D01*
X280575213Y-94147518D01*
X280387631Y-94180594D01*
X280285571Y-94150236D01*
X280230406Y-94111609D01*
X280166973Y-94026087D01*
X286012770Y-112919436D02*
X285839121Y-111934629D01*
X285604643Y-111975973D01*
X285472226Y-112047676D01*
X285394972Y-112158005D01*
X285364615Y-112260065D01*
X285350795Y-112455917D01*
X285375602Y-112596603D01*
X285455573Y-112775917D01*
X285519007Y-112861439D01*
X285629336Y-112938692D01*
X285778292Y-112960781D01*
X286012770Y-112919436D01*
X284385358Y-112190966D02*
X284854314Y-112108277D01*
X284983899Y-112568964D01*
X284928734Y-112530337D01*
X284826674Y-112499979D01*
X284592196Y-112541324D01*
X284506674Y-112604758D01*
X284468047Y-112659922D01*
X284437690Y-112761983D01*
X284479034Y-112996461D01*
X284542468Y-113081983D01*
X284597632Y-113120609D01*
X284699693Y-113150967D01*
X284934171Y-113109622D01*
X285019693Y-113046189D01*
X285058320Y-112991024D01*
X283728819Y-112306732D02*
X283635028Y-112323270D01*
X283549506Y-112386703D01*
X283510879Y-112441868D01*
X283480521Y-112543928D01*
X283466702Y-112739779D01*
X283508046Y-112974257D01*
X283588018Y-113153571D01*
X283651451Y-113239093D01*
X283706616Y-113277720D01*
X283808676Y-113308077D01*
X283902467Y-113291540D01*
X283987990Y-113228106D01*
X284026616Y-113172941D01*
X284056974Y-113070881D01*
X284070794Y-112875030D01*
X284029449Y-112640552D01*
X283949477Y-112461238D01*
X283886044Y-112375716D01*
X283830879Y-112337089D01*
X283728819Y-112306732D01*
X292062311Y-37523510D02*
X291888662Y-36538703D01*
X291654184Y-36580047D01*
X291521767Y-36651750D01*
X291444513Y-36762079D01*
X291414156Y-36864139D01*
X291400336Y-37059991D01*
X291425143Y-37200677D01*
X291505114Y-37379991D01*
X291568548Y-37465513D01*
X291678877Y-37542766D01*
X291827833Y-37564855D01*
X292062311Y-37523510D01*
X290434899Y-36795040D02*
X290903855Y-36712351D01*
X291033440Y-37173038D01*
X290978275Y-37134411D01*
X290876215Y-37104053D01*
X290641737Y-37145398D01*
X290556215Y-37208832D01*
X290517588Y-37263996D01*
X290487231Y-37366057D01*
X290528575Y-37600535D01*
X290592009Y-37686057D01*
X290647173Y-37724683D01*
X290749234Y-37755041D01*
X290983712Y-37713696D01*
X291069234Y-37650263D01*
X291107861Y-37595098D01*
X289623739Y-37953496D02*
X290186486Y-37854269D01*
X289905113Y-37903882D02*
X289731465Y-36919075D01*
X289850063Y-37043224D01*
X289960392Y-37120477D01*
X290062452Y-37150835D01*
X295370309Y-56284098D02*
X295196660Y-55299291D01*
X294962182Y-55340635D01*
X294829765Y-55412338D01*
X294752511Y-55522667D01*
X294722154Y-55624727D01*
X294708334Y-55820579D01*
X294733141Y-55961265D01*
X294813112Y-56140579D01*
X294876546Y-56226101D01*
X294986875Y-56303354D01*
X295135831Y-56325443D01*
X295370309Y-56284098D01*
X293742897Y-55555628D02*
X294211853Y-55472939D01*
X294341438Y-55933626D01*
X294286273Y-55894999D01*
X294184213Y-55864641D01*
X293949735Y-55905986D01*
X293864213Y-55969420D01*
X293825586Y-56024584D01*
X293795229Y-56126645D01*
X293836573Y-56361123D01*
X293900007Y-56446645D01*
X293955171Y-56485271D01*
X294057232Y-56515629D01*
X294291710Y-56474284D01*
X294377232Y-56410851D01*
X294415859Y-56355686D01*
X293337374Y-55723840D02*
X293282209Y-55685214D01*
X293180149Y-55654856D01*
X292945671Y-55696201D01*
X292860149Y-55759634D01*
X292821522Y-55814799D01*
X292791165Y-55916859D01*
X292807703Y-56010650D01*
X292879405Y-56143068D01*
X293541380Y-56606588D01*
X292931737Y-56714084D01*
X298678307Y-75044686D02*
X298504658Y-74059879D01*
X298270180Y-74101223D01*
X298137763Y-74172926D01*
X298060509Y-74283255D01*
X298030152Y-74385315D01*
X298016332Y-74581167D01*
X298041139Y-74721853D01*
X298121110Y-74901167D01*
X298184544Y-74986689D01*
X298294873Y-75063942D01*
X298443829Y-75086031D01*
X298678307Y-75044686D01*
X297050895Y-74316216D02*
X297519851Y-74233527D01*
X297649436Y-74694214D01*
X297594271Y-74655587D01*
X297492211Y-74625229D01*
X297257733Y-74666574D01*
X297172211Y-74730008D01*
X297133584Y-74785172D01*
X297103227Y-74887233D01*
X297144571Y-75121711D01*
X297208005Y-75207233D01*
X297263169Y-75245859D01*
X297365230Y-75276217D01*
X297599708Y-75234872D01*
X297685230Y-75171439D01*
X297723857Y-75116274D01*
X296675730Y-74382368D02*
X296066087Y-74489864D01*
X296460508Y-74807147D01*
X296319821Y-74831953D01*
X296234299Y-74895387D01*
X296195672Y-74950552D01*
X296165314Y-75052612D01*
X296206659Y-75287090D01*
X296270093Y-75372612D01*
X296325257Y-75411239D01*
X296427317Y-75441596D01*
X296708691Y-75391983D01*
X296794213Y-75328549D01*
X296832840Y-75273385D01*
X301986305Y-93805274D02*
X301812656Y-92820467D01*
X301578178Y-92861811D01*
X301445761Y-92933514D01*
X301368507Y-93043843D01*
X301338150Y-93145903D01*
X301324330Y-93341755D01*
X301349137Y-93482441D01*
X301429108Y-93661755D01*
X301492542Y-93747277D01*
X301602871Y-93824530D01*
X301751827Y-93846619D01*
X301986305Y-93805274D01*
X300358893Y-93076804D02*
X300827849Y-92994115D01*
X300957434Y-93454802D01*
X300902269Y-93416175D01*
X300800209Y-93385817D01*
X300565731Y-93427162D01*
X300480209Y-93490596D01*
X300441582Y-93545760D01*
X300411225Y-93647821D01*
X300452569Y-93882299D01*
X300516003Y-93967821D01*
X300571167Y-94006447D01*
X300673228Y-94036805D01*
X300907706Y-93995460D01*
X300993228Y-93932027D01*
X301031855Y-93876862D01*
X299525759Y-93562184D02*
X299641524Y-94218722D01*
X299694085Y-93145674D02*
X300052598Y-93807763D01*
X299442955Y-93915260D01*
X305294303Y-112565862D02*
X305120654Y-111581055D01*
X304886176Y-111622399D01*
X304753759Y-111694102D01*
X304676505Y-111804431D01*
X304646148Y-111906491D01*
X304632328Y-112102343D01*
X304657135Y-112243029D01*
X304737106Y-112422343D01*
X304800540Y-112507865D01*
X304910869Y-112585118D01*
X305059825Y-112607207D01*
X305294303Y-112565862D01*
X303666891Y-111837392D02*
X304135847Y-111754703D01*
X304265432Y-112215390D01*
X304210267Y-112176763D01*
X304108207Y-112146405D01*
X303873729Y-112187750D01*
X303788207Y-112251184D01*
X303749580Y-112306348D01*
X303719223Y-112408409D01*
X303760567Y-112642887D01*
X303824001Y-112728409D01*
X303879165Y-112767035D01*
X303981226Y-112797393D01*
X304215704Y-112756048D01*
X304301226Y-112692615D01*
X304339853Y-112637450D01*
X302728978Y-112002772D02*
X303197935Y-111920082D01*
X303327520Y-112380769D01*
X303272355Y-112342142D01*
X303170295Y-112311785D01*
X302935817Y-112353129D01*
X302850295Y-112416563D01*
X302811668Y-112471728D01*
X302781310Y-112573788D01*
X302822655Y-112808266D01*
X302886089Y-112893788D01*
X302941253Y-112932415D01*
X303043313Y-112962772D01*
X303277792Y-112921428D01*
X303363314Y-112857994D01*
X303401940Y-112802829D01*
X311170196Y-36185128D02*
X310996547Y-35200321D01*
X310762069Y-35241665D01*
X310629652Y-35313368D01*
X310552398Y-35423697D01*
X310522041Y-35525757D01*
X310508221Y-35721609D01*
X310533028Y-35862295D01*
X310612999Y-36041609D01*
X310676433Y-36127131D01*
X310786762Y-36204384D01*
X310935718Y-36226473D01*
X311170196Y-36185128D01*
X309542784Y-35456658D02*
X310011740Y-35373969D01*
X310141325Y-35834656D01*
X310086160Y-35796029D01*
X309984100Y-35765671D01*
X309749622Y-35807016D01*
X309664100Y-35870450D01*
X309625473Y-35925614D01*
X309595116Y-36027675D01*
X309636460Y-36262153D01*
X309699894Y-36347675D01*
X309755058Y-36386301D01*
X309857119Y-36416659D01*
X310091597Y-36375314D01*
X310177119Y-36311881D01*
X310215746Y-36256716D01*
X308651767Y-35613769D02*
X308839350Y-35580693D01*
X308941410Y-35611050D01*
X308996574Y-35649677D01*
X309115172Y-35773826D01*
X309195144Y-35953139D01*
X309261295Y-36328304D01*
X309230938Y-36430364D01*
X309192311Y-36485529D01*
X309106789Y-36548963D01*
X308919206Y-36582038D01*
X308817146Y-36551681D01*
X308761982Y-36513054D01*
X308698548Y-36427532D01*
X308657203Y-36193054D01*
X308687561Y-36090994D01*
X308726188Y-36035829D01*
X308811710Y-35972395D01*
X308999292Y-35939320D01*
X309101353Y-35969677D01*
X309156517Y-36008304D01*
X309219951Y-36093826D01*
X314478194Y-54945716D02*
X314304545Y-53960909D01*
X314070067Y-54002253D01*
X313937650Y-54073956D01*
X313860396Y-54184285D01*
X313830039Y-54286345D01*
X313816219Y-54482197D01*
X313841026Y-54622883D01*
X313920997Y-54802197D01*
X313984431Y-54887719D01*
X314094760Y-54964972D01*
X314243716Y-54987061D01*
X314478194Y-54945716D01*
X312850782Y-54217246D02*
X313319738Y-54134557D01*
X313449323Y-54595244D01*
X313394158Y-54556617D01*
X313292098Y-54526259D01*
X313057620Y-54567604D01*
X312972098Y-54631038D01*
X312933471Y-54686202D01*
X312903114Y-54788263D01*
X312944458Y-55022741D01*
X313007892Y-55108263D01*
X313063056Y-55146889D01*
X313165117Y-55177247D01*
X313399595Y-55135902D01*
X313485117Y-55072469D01*
X313523744Y-55017304D01*
X312475617Y-54283398D02*
X311819078Y-54399163D01*
X312414787Y-55309551D01*
X317786192Y-73706304D02*
X317612543Y-72721497D01*
X317378065Y-72762841D01*
X317245648Y-72834544D01*
X317168394Y-72944873D01*
X317138037Y-73046933D01*
X317124217Y-73242785D01*
X317149024Y-73383471D01*
X317228995Y-73562785D01*
X317292429Y-73648307D01*
X317402758Y-73725560D01*
X317551714Y-73747649D01*
X317786192Y-73706304D01*
X316158780Y-72977834D02*
X316627736Y-72895145D01*
X316757321Y-73355832D01*
X316702156Y-73317205D01*
X316600096Y-73286847D01*
X316365618Y-73328192D01*
X316280096Y-73391626D01*
X316241469Y-73446790D01*
X316211112Y-73548851D01*
X316252456Y-73783329D01*
X316315890Y-73868851D01*
X316371054Y-73907477D01*
X316473115Y-73937835D01*
X316707593Y-73896490D01*
X316793115Y-73833057D01*
X316831742Y-73777892D01*
X315623557Y-73507391D02*
X315709080Y-73443958D01*
X315747706Y-73388793D01*
X315778064Y-73286733D01*
X315769795Y-73239837D01*
X315706361Y-73154315D01*
X315651197Y-73115688D01*
X315549137Y-73085331D01*
X315361554Y-73118407D01*
X315276032Y-73181840D01*
X315237405Y-73237005D01*
X315207048Y-73339065D01*
X315215317Y-73385961D01*
X315278750Y-73471483D01*
X315333915Y-73510109D01*
X315435975Y-73540467D01*
X315623557Y-73507391D01*
X315725618Y-73537749D01*
X315780782Y-73576376D01*
X315844216Y-73661898D01*
X315877291Y-73849480D01*
X315846934Y-73951540D01*
X315808307Y-74006705D01*
X315722785Y-74070139D01*
X315535202Y-74103214D01*
X315433142Y-74072857D01*
X315377978Y-74034230D01*
X315314544Y-73948708D01*
X315281468Y-73761125D01*
X315311826Y-73659065D01*
X315350453Y-73603901D01*
X315435975Y-73540467D01*
X321094190Y-92466892D02*
X320920541Y-91482085D01*
X320686063Y-91523429D01*
X320553646Y-91595132D01*
X320476392Y-91705461D01*
X320446035Y-91807521D01*
X320432215Y-92003373D01*
X320457022Y-92144059D01*
X320536993Y-92323373D01*
X320600427Y-92408895D01*
X320710756Y-92486148D01*
X320859712Y-92508237D01*
X321094190Y-92466892D01*
X319466778Y-91738422D02*
X319935734Y-91655733D01*
X320065319Y-92116420D01*
X320010154Y-92077793D01*
X319908094Y-92047435D01*
X319673616Y-92088780D01*
X319588094Y-92152214D01*
X319549467Y-92207378D01*
X319519110Y-92309439D01*
X319560454Y-92543917D01*
X319623888Y-92629439D01*
X319679052Y-92668065D01*
X319781113Y-92698423D01*
X320015591Y-92657078D01*
X320101113Y-92593645D01*
X320139740Y-92538480D01*
X319124574Y-92814189D02*
X318936992Y-92847264D01*
X318834932Y-92816907D01*
X318779767Y-92778280D01*
X318661169Y-92654131D01*
X318581197Y-92474818D01*
X318515046Y-92099653D01*
X318545403Y-91997593D01*
X318584030Y-91942428D01*
X318669552Y-91878995D01*
X318857135Y-91845919D01*
X318959195Y-91876276D01*
X319014359Y-91914903D01*
X319077793Y-92000425D01*
X319119138Y-92234903D01*
X319088780Y-92336964D01*
X319050153Y-92392128D01*
X318964631Y-92455562D01*
X318777049Y-92488638D01*
X318674989Y-92458280D01*
X318619824Y-92419653D01*
X318556391Y-92334131D01*
X324402188Y-111227480D02*
X324228539Y-110242673D01*
X323994061Y-110284017D01*
X323861644Y-110355720D01*
X323784390Y-110466049D01*
X323754033Y-110568109D01*
X323740213Y-110763961D01*
X323765020Y-110904647D01*
X323844991Y-111083961D01*
X323908425Y-111169483D01*
X324018754Y-111246736D01*
X324167710Y-111268825D01*
X324402188Y-111227480D01*
X322821671Y-110490741D02*
X323009254Y-110457665D01*
X323111314Y-110488023D01*
X323166478Y-110526650D01*
X323285076Y-110650799D01*
X323365048Y-110830112D01*
X323431200Y-111205277D01*
X323400842Y-111307337D01*
X323362215Y-111362502D01*
X323276693Y-111425935D01*
X323089111Y-111459011D01*
X322987050Y-111428653D01*
X322931886Y-111390027D01*
X322868452Y-111304505D01*
X322827108Y-111070027D01*
X322857465Y-110967966D01*
X322896092Y-110912802D01*
X322981614Y-110849368D01*
X323169197Y-110816292D01*
X323271257Y-110846650D01*
X323326421Y-110885277D01*
X323389855Y-110970799D01*
X322118237Y-110614776D02*
X322024446Y-110631314D01*
X321938924Y-110694747D01*
X321900297Y-110749912D01*
X321869939Y-110851972D01*
X321856120Y-111047823D01*
X321897464Y-111282301D01*
X321977436Y-111461615D01*
X322040869Y-111547137D01*
X322096034Y-111585764D01*
X322198094Y-111616121D01*
X322291885Y-111599584D01*
X322377408Y-111536150D01*
X322416034Y-111480985D01*
X322446392Y-111378925D01*
X322460212Y-111183074D01*
X322418867Y-110948596D01*
X322338895Y-110769282D01*
X322275462Y-110683760D01*
X322220297Y-110645133D01*
X322118237Y-110614776D01*
X152225510Y-133088013D02*
X151240703Y-132914364D01*
X151199358Y-133148843D01*
X151221446Y-133297798D01*
X151298700Y-133408127D01*
X151384222Y-133471561D01*
X151563535Y-133551532D01*
X151704222Y-133576339D01*
X151900074Y-133562520D01*
X152002134Y-133532162D01*
X152112463Y-133454909D01*
X152184165Y-133322491D01*
X152225510Y-133088013D01*
X150992634Y-134321233D02*
X151025710Y-134133650D01*
X151089143Y-134048128D01*
X151144308Y-134009501D01*
X151301532Y-133940517D01*
X151497384Y-133926697D01*
X151872549Y-133992849D01*
X151958071Y-134056282D01*
X151996698Y-134111447D01*
X152027055Y-134213507D01*
X151993979Y-134401090D01*
X151930546Y-134486612D01*
X151875381Y-134525239D01*
X151773321Y-134555596D01*
X151538843Y-134514251D01*
X151453321Y-134450818D01*
X151414694Y-134395653D01*
X151384336Y-134293593D01*
X151417412Y-134106011D01*
X151480846Y-134020488D01*
X151536010Y-133981862D01*
X151638071Y-133951504D01*
X151795524Y-135526584D02*
X151894752Y-134963837D01*
X151845138Y-135245211D02*
X150860330Y-135071562D01*
X151017555Y-135002578D01*
X151127884Y-134925325D01*
X151191318Y-134839803D01*
X155150750Y-138108421D02*
X154165943Y-137934772D01*
X154124598Y-138169251D01*
X154146686Y-138318206D01*
X154223940Y-138428535D01*
X154309462Y-138491969D01*
X154488775Y-138571940D01*
X154629462Y-138596747D01*
X154825314Y-138582928D01*
X154927374Y-138552570D01*
X155037703Y-138475317D01*
X155109405Y-138342899D01*
X155150750Y-138108421D01*
X153917874Y-139341641D02*
X153950950Y-139154058D01*
X154014383Y-139068536D01*
X154069548Y-139029909D01*
X154226772Y-138960925D01*
X154422624Y-138947105D01*
X154797789Y-139013257D01*
X154883311Y-139076690D01*
X154921938Y-139131855D01*
X154952295Y-139233915D01*
X154919219Y-139421498D01*
X154855786Y-139507020D01*
X154800621Y-139545647D01*
X154698561Y-139576004D01*
X154464083Y-139534659D01*
X154378561Y-139471226D01*
X154339934Y-139416061D01*
X154309576Y-139314001D01*
X154342652Y-139126419D01*
X154406086Y-139040896D01*
X154461250Y-139002270D01*
X154563311Y-138971912D01*
X153928975Y-139827135D02*
X153873811Y-139865761D01*
X153810377Y-139951284D01*
X153769032Y-140185762D01*
X153799390Y-140287822D01*
X153838017Y-140342986D01*
X153923539Y-140406420D01*
X154017330Y-140422958D01*
X154166286Y-140400869D01*
X154828261Y-139937349D01*
X154720764Y-140546992D01*
X206964734Y-140051689D02*
X207949541Y-139878040D01*
X207908197Y-139643562D01*
X207836494Y-139511145D01*
X207726165Y-139433891D01*
X207624105Y-139403534D01*
X207428253Y-139389714D01*
X207287567Y-139414521D01*
X207108253Y-139494492D01*
X207022731Y-139557926D01*
X206945478Y-139668255D01*
X206923389Y-139817211D01*
X206964734Y-140051689D01*
X207701473Y-138471172D02*
X207734549Y-138658755D01*
X207704191Y-138760815D01*
X207665564Y-138815979D01*
X207541415Y-138934577D01*
X207362102Y-139014549D01*
X206986937Y-139080701D01*
X206884877Y-139050343D01*
X206829712Y-139011716D01*
X206766279Y-138926194D01*
X206733203Y-138738612D01*
X206763561Y-138636551D01*
X206802187Y-138581387D01*
X206887709Y-138517953D01*
X207122187Y-138476609D01*
X207224248Y-138506966D01*
X207279412Y-138545593D01*
X207342846Y-138631115D01*
X207375922Y-138818698D01*
X207345564Y-138920758D01*
X207306937Y-138975922D01*
X207221415Y-139039356D01*
X207627052Y-138049112D02*
X207519556Y-137439469D01*
X207202273Y-137833890D01*
X207177467Y-137693203D01*
X207114033Y-137607681D01*
X207058868Y-137569054D01*
X206956808Y-137538696D01*
X206722330Y-137580041D01*
X206636808Y-137643475D01*
X206598181Y-137698639D01*
X206567824Y-137800699D01*
X206617437Y-138082073D01*
X206680871Y-138167595D01*
X206736035Y-138206222D01*
X202521966Y-135928097D02*
X203506773Y-135754448D01*
X203465429Y-135519970D01*
X203393726Y-135387553D01*
X203283397Y-135310299D01*
X203181337Y-135279942D01*
X202985485Y-135266122D01*
X202844799Y-135290929D01*
X202665485Y-135370900D01*
X202579963Y-135434334D01*
X202502710Y-135544663D01*
X202480621Y-135693619D01*
X202521966Y-135928097D01*
X203258705Y-134347580D02*
X203291781Y-134535163D01*
X203261423Y-134637223D01*
X203222796Y-134692387D01*
X203098647Y-134810985D01*
X202919334Y-134890957D01*
X202544169Y-134957109D01*
X202442109Y-134926751D01*
X202386944Y-134888124D01*
X202323511Y-134802602D01*
X202290435Y-134615020D01*
X202320793Y-134512959D01*
X202359419Y-134457795D01*
X202444941Y-134394361D01*
X202679419Y-134353017D01*
X202781480Y-134383374D01*
X202836644Y-134422001D01*
X202900078Y-134507523D01*
X202933154Y-134695106D01*
X202902796Y-134797166D01*
X202864169Y-134852330D01*
X202778647Y-134915764D01*
X202765056Y-133467551D02*
X202108518Y-133583316D01*
X203181566Y-133635877D02*
X202519477Y-133994390D01*
X202411980Y-133384747D01*
M02*
