G04 #@! TF.FileFunction,Profile,NP*
%FSLAX46Y46*%
G04 Gerber Fmt 4.6, Leading zero omitted, Abs format (unit mm)*
G04 Created by KiCad (PCBNEW 4.0.7) date 04/14/18 16:40:09*
%MOMM*%
%LPD*%
G01*
G04 APERTURE LIST*
%ADD10C,0.100000*%
G04 APERTURE END LIST*
D10*
X39262000Y-25508340D02*
X39140000Y-25537640D01*
X39386000Y-25482840D02*
X39262000Y-25508340D01*
X39019000Y-25570840D02*
X38899000Y-25607740D01*
X177530000Y-158906140D02*
X177533000Y-158814140D01*
X38899000Y-25607740D02*
X38780000Y-25648440D01*
X39509000Y-25461240D02*
X39386000Y-25482840D01*
X39759000Y-25429740D02*
X39634000Y-25443540D01*
X177602000Y-158450140D02*
X177634000Y-158363140D01*
X179945000Y-160043140D02*
X179872000Y-160100140D01*
X18438000Y-130928040D02*
X18464000Y-131051140D01*
X18604000Y-131533440D02*
X18648000Y-131651040D01*
X41538000Y-29867740D02*
X41506000Y-29954940D01*
X38890000Y-30202320D02*
X38843000Y-30122560D01*
X178912000Y-157434140D02*
X179005000Y-157431140D01*
X23442000Y-131188240D02*
X23377000Y-131253740D01*
X317084600Y-28166540D02*
X317164400Y-28119440D01*
X321638500Y-28057040D02*
X321594100Y-27939440D01*
X337071470Y-129811740D02*
X337091690Y-129902140D01*
X38999000Y-30352160D02*
X38942000Y-30278950D01*
X318151300Y-30860850D02*
X318059800Y-30875340D01*
X317508100Y-27983340D02*
X317598600Y-27963140D01*
X37992000Y-26034640D02*
X37887000Y-26103640D01*
X318884700Y-30487200D02*
X318815200Y-30548480D01*
X335827680Y-128715140D02*
X335919200Y-128729640D01*
X180480000Y-158906140D02*
X180477000Y-158999140D01*
X334449500Y-129311540D02*
X334506300Y-129238340D01*
X18696000Y-131767140D02*
X18748000Y-131881640D01*
X316446300Y-29778740D02*
X316426100Y-29688340D01*
X334633100Y-131253740D02*
X334567580Y-131188240D01*
X318500700Y-25461240D02*
X318376300Y-25443540D01*
X21739000Y-131513140D02*
X21657000Y-131471140D01*
X334167810Y-130178540D02*
X334170710Y-130085940D01*
X338724860Y-132728240D02*
X338803430Y-132630140D01*
X336185790Y-131549940D02*
X336098610Y-131581340D01*
X334193930Y-130454940D02*
X334179440Y-130363440D01*
X320226100Y-26175940D02*
X320123300Y-26103640D01*
X177533000Y-158814140D02*
X177542000Y-158721140D01*
X21739000Y-128843940D02*
X21824000Y-128807140D01*
X316934700Y-30548480D02*
X316865200Y-30487200D01*
X179633000Y-160241140D02*
X179548000Y-160278140D01*
X39768000Y-30840630D02*
X39679000Y-30814780D01*
X178729000Y-157457140D02*
X178820000Y-157443140D01*
X317419200Y-28009140D02*
X317508100Y-27983340D01*
X37887000Y-26103640D02*
X37784000Y-26175940D01*
X336098610Y-128775740D02*
X336185790Y-128807140D01*
X20331000Y-133621540D02*
X20440000Y-133683740D01*
X319323800Y-29135540D02*
X319338300Y-29227140D01*
X180298000Y-158196140D02*
X180340000Y-158278140D01*
X177930000Y-159916140D02*
X177868000Y-159846140D01*
X38706000Y-29778740D02*
X38686000Y-29688340D01*
X38732000Y-29867740D02*
X38706000Y-29778740D01*
X19722000Y-133178940D02*
X19817000Y-133260640D01*
X38764000Y-29954940D02*
X38732000Y-29867740D01*
X36261000Y-28417240D02*
X36231000Y-28539440D01*
X23702000Y-129550540D02*
X23739000Y-129635540D01*
X22644000Y-131627440D02*
X22552000Y-131641940D01*
X336353390Y-128885940D02*
X336433150Y-128933140D01*
X39507000Y-30746590D02*
X39424000Y-30704520D01*
X39634000Y-25443540D02*
X39509000Y-25461240D01*
X177868000Y-157966140D02*
X177930000Y-157897140D01*
X334308190Y-129550540D02*
X334350260Y-129467940D01*
X37397000Y-26496140D02*
X37307000Y-26583540D01*
X39592000Y-30783390D02*
X39507000Y-30746590D01*
X18748000Y-131881640D02*
X18803000Y-131994540D01*
X178377000Y-157572140D02*
X178462000Y-157535140D01*
X41428000Y-28701340D02*
X41470000Y-28783940D01*
X318241800Y-27983340D02*
X318330800Y-28009140D01*
X41328000Y-28544940D02*
X41380000Y-28621640D01*
X41380000Y-28621640D02*
X41428000Y-28701340D01*
X41272000Y-28471740D02*
X41328000Y-28544940D01*
X41210000Y-28402240D02*
X41272000Y-28471740D01*
X18416000Y-129552840D02*
X18399000Y-129677240D01*
X40846000Y-28119440D02*
X40925000Y-28166540D01*
X40763000Y-28077340D02*
X40846000Y-28119440D01*
X41145000Y-28336740D02*
X41210000Y-28402240D01*
X41075000Y-28275440D02*
X41145000Y-28336740D01*
X40925000Y-28166540D02*
X41002000Y-28218640D01*
X41002000Y-28218640D02*
X41075000Y-28275440D01*
X38672000Y-29596840D02*
X38663000Y-29504540D01*
X39884000Y-25419840D02*
X39759000Y-25429740D01*
X18862000Y-132105540D02*
X18924000Y-132214740D01*
X38843000Y-28701340D02*
X38890000Y-28621640D01*
X37135000Y-26766740D02*
X37053000Y-26862240D01*
X179872000Y-157713140D02*
X179945000Y-157770140D01*
X21500000Y-131371840D02*
X21427000Y-131315040D01*
X21251000Y-134019740D02*
X21372000Y-134052840D01*
X22367000Y-128703540D02*
X22460000Y-128706440D01*
X23377000Y-131253740D02*
X23307000Y-131315040D01*
X18369000Y-130304140D02*
X18375000Y-130429740D01*
X319347000Y-29504540D02*
X319338300Y-29596840D01*
X21357000Y-129103340D02*
X21427000Y-129042040D01*
X178820000Y-157443140D02*
X178912000Y-157434140D01*
X20895000Y-130271140D02*
X20892000Y-130178540D01*
X319347000Y-29319340D02*
X319350000Y-29411940D01*
X36899000Y-27060840D02*
X36827000Y-27163640D01*
X334506300Y-129238340D02*
X334567580Y-129168840D01*
X180468000Y-158721140D02*
X180477000Y-158814140D01*
X179381000Y-162889140D02*
X179506000Y-162875140D01*
X179190000Y-157443140D02*
X179281000Y-157457140D01*
X178912000Y-160378140D02*
X178820000Y-160370140D01*
X23660000Y-130889140D02*
X23613000Y-130968840D01*
X336583000Y-129042040D02*
X336652510Y-129103340D01*
X38663000Y-29319340D02*
X38672000Y-29227140D01*
X339262110Y-131881640D02*
X339313820Y-131767140D01*
X319111000Y-25607740D02*
X318990900Y-25570840D01*
X179548000Y-157535140D02*
X179633000Y-157572140D01*
X20551000Y-133742540D02*
X20664000Y-133797840D01*
X335187010Y-128775740D02*
X335276000Y-128749840D01*
X335099820Y-128807140D02*
X335187010Y-128775740D01*
X316402900Y-29504540D02*
X316400000Y-29411940D01*
X316402900Y-29319340D02*
X316411600Y-29227140D01*
X339361920Y-131651040D02*
X339406340Y-131533440D01*
X321439000Y-27596040D02*
X321380200Y-27484940D01*
X335099820Y-131549940D02*
X335014780Y-131513140D01*
X335642800Y-128703540D02*
X335735420Y-128706440D01*
X23613000Y-129388140D02*
X23660000Y-129467940D01*
X318503000Y-30746590D02*
X318417900Y-30783390D01*
X180080000Y-159916140D02*
X180015000Y-159981140D01*
X20779000Y-133849540D02*
X20895000Y-133897640D01*
X337458770Y-133742540D02*
X337569820Y-133683740D01*
X338951120Y-132426840D02*
X339020120Y-132321840D01*
X178638000Y-157478140D02*
X178729000Y-157457140D01*
X21577000Y-131423940D02*
X21500000Y-131371840D01*
X336836100Y-129311540D02*
X336888190Y-129388140D01*
X23504000Y-131118740D02*
X23442000Y-131188240D01*
X321380200Y-27484940D02*
X321317900Y-27375840D01*
X179795000Y-157661140D02*
X179872000Y-157713140D01*
X178629000Y-162889140D02*
X178754000Y-162898140D01*
X178638000Y-160335140D02*
X178549000Y-160309140D01*
X179098000Y-157434140D02*
X179190000Y-157443140D01*
X318741900Y-30605280D02*
X318665300Y-30657350D01*
X40228000Y-27939840D02*
X40320000Y-27948640D01*
X20224000Y-133555840D02*
X20331000Y-133621540D01*
X178138000Y-157713140D02*
X178215000Y-157661140D01*
X338878870Y-132529640D02*
X338951120Y-132426840D01*
X337045620Y-130634340D02*
X337014230Y-130721540D01*
X318503000Y-28077340D02*
X318585500Y-28119440D01*
X23816000Y-130454940D02*
X23796000Y-130545340D01*
X23158000Y-131423940D02*
X23078000Y-131471140D01*
X22091000Y-128729640D02*
X22182000Y-128715140D01*
X338471230Y-133006940D02*
X338558680Y-132916740D01*
X318665300Y-28166540D02*
X318741900Y-28218640D01*
X23234000Y-131371840D02*
X23158000Y-131423940D01*
X335187010Y-131581340D02*
X335099820Y-131549940D01*
X339571960Y-130928040D02*
X339593560Y-130804240D01*
X36464000Y-27823340D02*
X36416000Y-27939440D01*
X335457940Y-128715140D02*
X335550200Y-128706440D01*
X336997750Y-133942040D02*
X337115310Y-133897640D01*
X180408000Y-159362140D02*
X180376000Y-159449140D01*
X178215000Y-157661140D02*
X178294000Y-157614140D01*
X21174000Y-129311540D02*
X21231000Y-129238340D01*
X38780000Y-25648440D02*
X38663000Y-25692840D01*
X23816000Y-129902140D02*
X23831000Y-129993640D01*
X321716100Y-28296040D02*
X321679200Y-28175940D01*
X316503500Y-28869040D02*
X316540300Y-28783940D01*
X178754000Y-162898140D02*
X178879000Y-162904140D01*
X320613100Y-26496140D02*
X320520200Y-26411540D01*
X179098000Y-160378140D02*
X179005000Y-160381140D01*
X320018300Y-26034640D02*
X319911100Y-25969040D01*
X317782300Y-30884050D02*
X317690100Y-30875340D01*
X41598000Y-29227140D02*
X41607000Y-29319340D01*
X334775830Y-128985240D02*
X334852460Y-128933140D01*
X180142000Y-157966140D02*
X180198000Y-158039140D01*
X18369000Y-130052940D02*
X18367000Y-130178540D01*
X316582400Y-28701340D02*
X316629600Y-28621640D01*
X321594100Y-27939440D02*
X321546000Y-27823340D01*
X37219000Y-26673740D02*
X37135000Y-26766740D01*
X336098610Y-131581340D02*
X336009620Y-131607240D01*
X179945000Y-157770140D02*
X180015000Y-157831140D01*
X318330800Y-30814780D02*
X318241800Y-30840630D01*
X19285000Y-132728240D02*
X19367000Y-132823740D01*
X318330800Y-28009140D02*
X318417900Y-28040540D01*
X177995000Y-159981140D02*
X177930000Y-159916140D01*
X21657000Y-131471140D02*
X21577000Y-131423940D01*
X39950000Y-27948640D02*
X40042000Y-27939840D01*
X334775830Y-131371840D02*
X334702600Y-131315040D01*
X20664000Y-133797840D02*
X20779000Y-133849540D01*
X316629600Y-30202320D02*
X316582400Y-30122560D01*
X40042000Y-27939840D02*
X40135000Y-27936940D01*
X180298000Y-159617140D02*
X180250000Y-159697140D01*
X320957000Y-26862240D02*
X320875400Y-26766740D01*
X18375000Y-129927340D02*
X18369000Y-130052940D01*
X22910000Y-128807140D02*
X22995000Y-128843940D01*
X21231000Y-131118740D02*
X21174000Y-131045540D01*
X18493000Y-131173340D02*
X18526000Y-131294540D01*
X180198000Y-159773140D02*
X180142000Y-159846140D01*
X18399000Y-129677240D02*
X18385000Y-129802140D01*
X21131000Y-133982740D02*
X21251000Y-134019740D01*
X317164400Y-30704520D02*
X317084600Y-30657350D01*
X179131000Y-162904140D02*
X179256000Y-162898140D01*
X22182000Y-128715140D02*
X22275000Y-128706440D01*
X21075000Y-130889140D02*
X21033000Y-130806540D01*
X334170710Y-130085940D02*
X334179440Y-129993640D01*
X336888190Y-130968840D02*
X336836100Y-131045540D01*
X22275000Y-131650640D02*
X22182000Y-131641940D01*
X319690900Y-25847940D02*
X319578100Y-25792640D01*
X179461000Y-157503140D02*
X179548000Y-157535140D01*
X336718030Y-131188240D02*
X336652510Y-131253740D01*
X38546000Y-25740940D02*
X38432000Y-25792640D01*
X337014230Y-130721540D02*
X336977430Y-130806540D01*
X178294000Y-160199140D02*
X178215000Y-160152140D01*
X22000000Y-128749840D02*
X22091000Y-128729640D01*
X23504000Y-129238340D02*
X23560000Y-129311540D01*
X335457940Y-131641940D02*
X335366420Y-131627440D01*
X319578100Y-25792640D02*
X319463500Y-25740940D01*
X22552000Y-131641940D02*
X22460000Y-131650640D01*
X18648000Y-131651040D02*
X18696000Y-131767140D01*
X320790800Y-26673740D02*
X320703400Y-26583540D01*
X180015000Y-157831140D02*
X180080000Y-157897140D01*
X38672000Y-29227140D02*
X38686000Y-29135540D01*
X317508100Y-30840630D02*
X317419200Y-30814780D01*
X21372000Y-134052840D02*
X21495000Y-134082240D01*
X22091000Y-131627440D02*
X22000000Y-131607240D01*
X22275000Y-128706440D02*
X22367000Y-128703540D01*
X23560000Y-131045540D02*
X23504000Y-131118740D01*
X41607000Y-29504540D02*
X41598000Y-29596840D01*
X36372000Y-28057040D02*
X36331000Y-28175940D01*
X22823000Y-128775740D02*
X22910000Y-128807140D01*
X338192500Y-133260640D02*
X338288050Y-133178940D01*
X38432000Y-25792640D02*
X38319000Y-25847940D01*
X337114890Y-130085940D02*
X337117810Y-130178540D01*
X37784000Y-26175940D02*
X37683000Y-26251340D01*
X336977430Y-130806540D02*
X336935360Y-130889140D01*
X19629000Y-133094440D02*
X19722000Y-133178940D01*
X38099000Y-25969040D02*
X37992000Y-26034640D01*
X317598600Y-27963140D02*
X317690100Y-27948640D01*
X180340000Y-158278140D02*
X180376000Y-158363140D01*
X179872000Y-160100140D02*
X179795000Y-160152140D01*
X21495000Y-134082240D02*
X21618000Y-134107640D01*
X21657000Y-128885940D02*
X21739000Y-128843940D01*
X180015000Y-159981140D02*
X179945000Y-160043140D01*
X336779310Y-129238340D02*
X336836100Y-129311540D01*
X37683000Y-26251340D02*
X37585000Y-26329940D01*
X178215000Y-160152140D02*
X178138000Y-160100140D01*
X38800000Y-28783940D02*
X38843000Y-28701340D01*
X319347500Y-25692840D02*
X319229900Y-25648440D01*
X21577000Y-128933140D02*
X21657000Y-128885940D01*
X23770000Y-129722740D02*
X23796000Y-129811740D01*
X316411600Y-29596840D02*
X316402900Y-29504540D01*
X334567580Y-131188240D02*
X334506300Y-131118740D01*
X316411600Y-29227140D02*
X316426100Y-29135540D01*
X316446300Y-29045140D02*
X316472100Y-28956140D01*
X335014780Y-128843940D02*
X335099820Y-128807140D01*
X178504000Y-162875140D02*
X178629000Y-162889140D01*
X36571000Y-27596040D02*
X36516000Y-27708840D01*
X319323800Y-29688340D02*
X319303600Y-29778740D01*
X36294000Y-28296040D02*
X36261000Y-28417240D01*
X334932220Y-128885940D02*
X335014780Y-128843940D01*
X316400000Y-29411940D02*
X316402900Y-29319340D01*
X318869700Y-25537640D02*
X318747500Y-25508340D01*
X318241800Y-30840630D02*
X318151300Y-30860850D01*
X18385000Y-129802140D02*
X18375000Y-129927340D01*
X321494300Y-27708840D02*
X321439000Y-27596040D01*
X178729000Y-160355140D02*
X178638000Y-160335140D01*
X178879000Y-162904140D02*
X179005000Y-162906140D01*
X318417900Y-30783390D02*
X318330800Y-30814780D01*
X178294000Y-157614140D02*
X178377000Y-157572140D01*
X20895000Y-130085940D02*
X20904000Y-129993640D01*
X36231000Y-28539440D02*
X36206000Y-28662440D01*
X39195000Y-28275440D02*
X39268000Y-28218640D01*
X316738400Y-28471740D02*
X316799700Y-28402240D01*
X319911100Y-25969040D02*
X319802000Y-25906740D01*
X38706000Y-29045140D02*
X38732000Y-28956140D01*
X39268000Y-28218640D02*
X39345000Y-28166540D01*
X21824000Y-128807140D02*
X21911000Y-128775740D01*
X334852460Y-128933140D02*
X334932220Y-128885940D01*
X336836100Y-131045540D02*
X336779310Y-131118740D01*
X338288050Y-133178940D02*
X338380990Y-133094440D01*
X178462000Y-160278140D02*
X178377000Y-160241140D01*
X339642800Y-130178540D02*
X339640830Y-130052940D01*
X38764000Y-28869040D02*
X38800000Y-28783940D01*
X321778600Y-28539440D02*
X321749300Y-28417240D01*
X334506300Y-131118740D02*
X334449500Y-131045540D01*
X20964000Y-130634340D02*
X20939000Y-130545340D01*
X335014780Y-131513140D02*
X334932220Y-131471140D01*
X318059800Y-30875340D02*
X317967600Y-30884050D01*
X318059800Y-27948640D02*
X318151300Y-27963140D01*
X321252300Y-27268640D02*
X321183300Y-27163640D01*
X23842000Y-130178540D02*
X23839000Y-130271140D01*
X337091690Y-130454940D02*
X337071470Y-130545340D01*
X317967600Y-27939840D02*
X318059800Y-27948640D01*
X337345930Y-133797840D02*
X337458770Y-133742540D01*
X18385000Y-130554940D02*
X18399000Y-130679840D01*
X39060000Y-28402240D02*
X39125000Y-28336740D01*
X180080000Y-157897140D02*
X180142000Y-157966140D01*
X317246900Y-30746590D02*
X317164400Y-30704520D01*
X179005000Y-160381140D02*
X178912000Y-160378140D01*
X179256000Y-162898140D02*
X179381000Y-162889140D01*
X18375000Y-130429740D02*
X18385000Y-130554940D01*
X18399000Y-130679840D02*
X18416000Y-130804240D01*
X179461000Y-160309140D02*
X179372000Y-160335140D01*
X180408000Y-158450140D02*
X180434000Y-158539140D01*
X339085780Y-132214740D02*
X339148040Y-132105540D01*
X319011500Y-30352160D02*
X318950200Y-30421680D01*
X318585500Y-30704520D02*
X318503000Y-30746590D01*
X20996000Y-130721540D02*
X20964000Y-130634340D01*
X338558680Y-132916740D02*
X338643240Y-132823740D01*
X180454000Y-159183140D02*
X180434000Y-159273140D01*
X20939000Y-130545340D02*
X20918000Y-130454940D01*
X316865200Y-30487200D02*
X316799700Y-30421680D01*
X21618000Y-134107640D02*
X178255000Y-162835140D01*
X21357000Y-131253740D02*
X21292000Y-131188240D01*
X339483970Y-131294540D02*
X339517150Y-131173340D01*
X334271390Y-130721540D02*
X334240000Y-130634340D01*
X339611260Y-130679840D02*
X339625060Y-130554940D01*
X316934700Y-28275440D02*
X317008000Y-28218640D01*
X22734000Y-128749840D02*
X22823000Y-128775740D01*
X23739000Y-129635540D02*
X23770000Y-129722740D01*
X21824000Y-131549940D02*
X21739000Y-131513140D01*
X334170710Y-130271140D02*
X334167810Y-130178540D01*
X316540300Y-28783940D02*
X316582400Y-28701340D01*
X337115310Y-133897640D02*
X337231390Y-133849540D01*
X335550200Y-128706440D02*
X335642800Y-128703540D01*
X339406340Y-131533440D02*
X339447030Y-131414640D01*
X38208000Y-25906740D02*
X38099000Y-25969040D01*
X36516000Y-27708840D02*
X36464000Y-27823340D01*
X180376000Y-158363140D02*
X180408000Y-158450140D01*
X23078000Y-128885940D02*
X23158000Y-128933140D01*
X23839000Y-130271140D02*
X23831000Y-130363440D01*
X321317900Y-27375840D02*
X321252300Y-27268640D01*
X318251400Y-25429740D02*
X318126100Y-25419840D01*
X179755000Y-162835140D02*
X336392330Y-134107640D01*
X317967600Y-30884050D02*
X317874900Y-30886970D01*
X38732000Y-28956140D02*
X38764000Y-28869040D01*
X337891140Y-133486840D02*
X337993950Y-133414640D01*
X39125000Y-28336740D02*
X39195000Y-28275440D01*
X334449500Y-131045540D02*
X334397430Y-130968840D01*
X18526000Y-131294540D02*
X18563000Y-131414640D01*
X336353390Y-131471140D02*
X336270820Y-131513140D01*
X321183300Y-27163640D02*
X321111000Y-27060840D01*
X316503500Y-29954940D02*
X316472100Y-29867740D01*
X318950200Y-30421680D02*
X318884700Y-30487200D01*
X334567580Y-129168840D02*
X334633100Y-129103340D01*
X20996000Y-129635540D02*
X21033000Y-129550540D01*
X320520200Y-26411540D02*
X320424600Y-26329940D01*
X316681700Y-30278950D02*
X316629600Y-30202320D01*
X178549000Y-160309140D02*
X178462000Y-160278140D01*
X334214150Y-129811740D02*
X334240000Y-129722740D01*
X335919200Y-128729640D02*
X336009620Y-128749840D01*
X335642800Y-131653540D02*
X335550200Y-131650640D01*
X316738400Y-30352160D02*
X316681700Y-30278950D01*
X336637570Y-134052840D02*
X336758770Y-134019740D01*
X339313820Y-131767140D02*
X339361920Y-131651040D01*
X337993950Y-133414640D02*
X338094430Y-133339140D01*
X18367000Y-130178540D02*
X18369000Y-130304140D01*
X319338300Y-29596840D02*
X319323800Y-29688340D01*
X180434000Y-159273140D02*
X180408000Y-159362140D01*
X178255000Y-162835140D02*
X178379000Y-162857140D01*
X318747500Y-25508340D02*
X318624500Y-25482840D01*
X36630000Y-27484940D02*
X36571000Y-27596040D01*
X21122000Y-130968840D02*
X21075000Y-130889140D01*
X179631000Y-162857140D02*
X179755000Y-162835140D01*
X318815200Y-28275440D02*
X318884700Y-28336740D01*
X178462000Y-157535140D02*
X178549000Y-157503140D01*
X339634910Y-129927340D02*
X339625060Y-129802140D01*
X319229900Y-25648440D02*
X319111000Y-25607740D01*
X317008000Y-28218640D02*
X317084600Y-28166540D01*
X22460000Y-131650640D02*
X22367000Y-131653540D01*
X21174000Y-131045540D02*
X21122000Y-130968840D01*
X316426100Y-29135540D02*
X316446300Y-29045140D01*
X21427000Y-129042040D02*
X21500000Y-128985240D01*
X21292000Y-129168840D02*
X21357000Y-129103340D01*
X177533000Y-158999140D02*
X177530000Y-158906140D01*
X179795000Y-160152140D02*
X179716000Y-160199140D01*
X335550200Y-131650640D02*
X335457940Y-131641940D01*
X179716000Y-157614140D02*
X179795000Y-157661140D01*
X20895000Y-133897640D02*
X21012000Y-133942040D01*
X316629600Y-28621640D02*
X316681700Y-28544940D01*
X23377000Y-129103340D02*
X23442000Y-129168840D01*
X339447030Y-131414640D02*
X339483970Y-131294540D01*
X336509790Y-131371840D02*
X336433150Y-131423940D01*
X335827680Y-131641940D02*
X335735420Y-131650640D01*
X317084600Y-30657350D02*
X317008000Y-30605280D01*
X39140000Y-25537640D02*
X39019000Y-25570840D01*
X339611260Y-129677240D02*
X339593560Y-129552840D01*
X179190000Y-160370140D02*
X179098000Y-160378140D01*
X178379000Y-162857140D02*
X178504000Y-162875140D01*
X316681700Y-28544940D02*
X316738400Y-28471740D01*
X22460000Y-128706440D02*
X22552000Y-128715140D01*
X336878870Y-133982740D02*
X336997750Y-133942040D01*
X318151300Y-27963140D02*
X318241800Y-27983340D01*
X318624500Y-25482840D02*
X318500700Y-25461240D01*
X318417900Y-28040540D02*
X318503000Y-28077340D01*
X318815200Y-30548480D02*
X318741900Y-30605280D01*
X339546470Y-131051140D02*
X339571960Y-130928040D01*
X180477000Y-158814140D02*
X180480000Y-158906140D01*
X318000600Y-25413940D02*
X317874900Y-25411940D01*
X38319000Y-25847940D02*
X38208000Y-25906740D01*
X22734000Y-131607240D02*
X22644000Y-131627440D01*
X19916000Y-133339140D02*
X20016000Y-133414640D01*
X319338300Y-29227140D02*
X319347000Y-29319340D01*
X334633100Y-129103340D02*
X334702600Y-129042040D01*
X317332000Y-30783390D02*
X317246900Y-30746590D01*
X316540300Y-30040000D02*
X316503500Y-29954940D01*
X336935360Y-129467940D02*
X336977430Y-129550540D01*
X21292000Y-131188240D02*
X21231000Y-131118740D01*
X178549000Y-157503140D02*
X178638000Y-157478140D01*
X38999000Y-28471740D02*
X39060000Y-28402240D01*
X319120300Y-30202320D02*
X319068300Y-30278950D01*
X18803000Y-131994540D02*
X18862000Y-132105540D01*
X337786110Y-133555840D02*
X337891140Y-133486840D01*
X180477000Y-158999140D02*
X180468000Y-159091140D01*
X335276000Y-128749840D02*
X335366420Y-128729640D01*
X316582400Y-30122560D02*
X316540300Y-30040000D01*
X177576000Y-158539140D02*
X177602000Y-158450140D01*
X317690100Y-27948640D02*
X317782300Y-27939840D01*
X37053000Y-26862240D02*
X36974000Y-26960340D01*
X318990900Y-25570840D02*
X318869700Y-25537640D01*
X23560000Y-129311540D02*
X23613000Y-129388140D01*
X317246900Y-28077340D02*
X317332000Y-28040540D01*
X321035600Y-26960340D02*
X320957000Y-26862240D01*
X339148040Y-132105540D02*
X339206830Y-131994540D01*
X319068300Y-28544940D02*
X319120300Y-28621640D01*
X316472100Y-29867740D02*
X316446300Y-29778740D01*
X317164400Y-28119440D02*
X317246900Y-28077340D01*
X23796000Y-130545340D02*
X23770000Y-130634340D01*
X23796000Y-129811740D02*
X23816000Y-129902140D01*
X337569820Y-133683740D02*
X337678970Y-133621540D01*
X180250000Y-158116140D02*
X180298000Y-158196140D01*
X317874900Y-30886970D02*
X317782300Y-30884050D01*
X321679200Y-28175940D02*
X321638500Y-28057040D01*
X180376000Y-159449140D02*
X180340000Y-159534140D01*
X339625060Y-129802140D02*
X339611260Y-129677240D01*
X23739000Y-130721540D02*
X23702000Y-130806540D01*
X318126100Y-25419840D02*
X318000600Y-25413940D01*
X334702600Y-129042040D02*
X334775830Y-128985240D01*
X320875400Y-26766740D02*
X320790800Y-26673740D01*
X179281000Y-160355140D02*
X179190000Y-160370140D01*
X23307000Y-129042040D02*
X23377000Y-129103340D01*
X38663000Y-29504540D02*
X38660000Y-29411940D01*
X319277800Y-29867740D02*
X319246400Y-29954940D01*
X36331000Y-28175940D02*
X36294000Y-28296040D01*
X334932220Y-131471140D02*
X334852460Y-131423940D01*
X178065000Y-160043140D02*
X177995000Y-159981140D01*
X38942000Y-28544940D02*
X38999000Y-28471740D01*
X317874900Y-27936940D02*
X317967600Y-27939840D01*
X23613000Y-130968840D02*
X23560000Y-131045540D01*
X337117810Y-130178540D02*
X337114890Y-130271140D01*
X21012000Y-133942040D02*
X21131000Y-133982740D01*
X179633000Y-157572140D02*
X179716000Y-157614140D01*
X319246400Y-29954940D02*
X319209600Y-30040000D01*
X336433150Y-131423940D02*
X336353390Y-131471140D01*
X179372000Y-157478140D02*
X179461000Y-157503140D01*
X337678970Y-133621540D02*
X337786110Y-133555840D01*
X39345000Y-28166540D02*
X39424000Y-28119440D01*
X41607000Y-29319340D02*
X41610000Y-29411940D01*
X20119000Y-133486840D02*
X20224000Y-133555840D01*
X21500000Y-128985240D02*
X21577000Y-128933140D01*
X177556000Y-158630140D02*
X177576000Y-158539140D01*
X337106180Y-129993640D02*
X337114890Y-130085940D01*
X317690100Y-30875340D02*
X317598600Y-30860850D01*
X319303600Y-29778740D02*
X319277800Y-29867740D01*
X36416000Y-27939440D02*
X36372000Y-28057040D01*
X319463500Y-25740940D02*
X319347500Y-25692840D01*
X335919200Y-131627440D02*
X335827680Y-131641940D01*
X339593560Y-129552840D02*
X321804100Y-28662440D01*
X339020120Y-132321840D02*
X339085780Y-132214740D01*
X321804100Y-28662440D02*
X321778600Y-28539440D01*
X21033000Y-130806540D02*
X20996000Y-130721540D01*
X335735420Y-128706440D02*
X335827680Y-128715140D01*
X179005000Y-162906140D02*
X179131000Y-162904140D01*
X37307000Y-26583540D02*
X37219000Y-26673740D01*
X337091690Y-129902140D02*
X337106180Y-129993640D01*
X321749300Y-28417240D02*
X321716100Y-28296040D01*
X38890000Y-28621640D02*
X38942000Y-28544940D01*
X40135000Y-25411940D02*
X40009000Y-25413940D01*
X318665300Y-30657350D02*
X318585500Y-30704520D01*
X22910000Y-131549940D02*
X22823000Y-131581340D01*
X41380000Y-30202320D02*
X41328000Y-30278950D01*
X39268000Y-30605280D02*
X39195000Y-30548480D01*
X39424000Y-30704520D02*
X39345000Y-30657350D01*
X22995000Y-131513140D02*
X22910000Y-131549940D01*
X39507000Y-28077340D02*
X39592000Y-28040540D01*
X22367000Y-131653540D02*
X22275000Y-131650640D01*
X336888190Y-129388140D02*
X336935360Y-129467940D01*
X20904000Y-130363440D02*
X20895000Y-130271140D01*
X23078000Y-131471140D02*
X22995000Y-131513140D01*
X22552000Y-128715140D02*
X22644000Y-128729640D01*
X319246400Y-28869040D02*
X319277800Y-28956140D01*
X21033000Y-129550540D02*
X21075000Y-129467940D01*
X18924000Y-132214740D02*
X18990000Y-132321840D01*
X334350260Y-129467940D02*
X334397430Y-129388140D01*
X336509790Y-128985240D02*
X336583000Y-129042040D01*
X336185790Y-128807140D02*
X336270820Y-128843940D01*
X336270820Y-128843940D02*
X336353390Y-128885940D01*
X338643240Y-132823740D02*
X338724860Y-132728240D01*
X319167500Y-28701340D02*
X319209600Y-28783940D01*
X336433150Y-128933140D02*
X336509790Y-128985240D01*
X23831000Y-130363440D02*
X23816000Y-130454940D01*
X23839000Y-130085940D02*
X23842000Y-130178540D01*
X19539000Y-133006940D02*
X19629000Y-133094440D01*
X334193930Y-129902140D02*
X334214150Y-129811740D01*
X40135000Y-27936940D02*
X40228000Y-27939840D01*
X319209600Y-30040000D02*
X319167500Y-30122560D01*
X41584000Y-29135540D02*
X41598000Y-29227140D01*
X177930000Y-157897140D02*
X177995000Y-157831140D01*
X23702000Y-130806540D02*
X23660000Y-130889140D01*
X319167500Y-30122560D02*
X319120300Y-30202320D01*
X40320000Y-27948640D02*
X40411000Y-27963140D01*
X336652510Y-129103340D02*
X336718030Y-129168840D01*
X19207000Y-132630140D02*
X19285000Y-132728240D01*
X316799700Y-28402240D02*
X316865200Y-28336740D01*
X37585000Y-26329940D02*
X37490000Y-26411540D01*
X41470000Y-28783940D02*
X41506000Y-28869040D01*
X38942000Y-30278950D02*
X38890000Y-30202320D01*
X339634910Y-130429740D02*
X339640830Y-130304140D01*
X41564000Y-29778740D02*
X41538000Y-29867740D01*
X334852460Y-131423940D02*
X334775830Y-131371840D01*
X39060000Y-30421680D02*
X38999000Y-30352160D01*
X317332000Y-28040540D02*
X317419200Y-28009140D01*
X23158000Y-128933140D02*
X23234000Y-128985240D01*
X40042000Y-30884050D02*
X39950000Y-30875340D01*
X40411000Y-27963140D02*
X40502000Y-27983340D01*
X38686000Y-29688340D02*
X38672000Y-29596840D01*
X39859000Y-30860850D02*
X39768000Y-30840630D01*
X39859000Y-27963140D02*
X39950000Y-27948640D01*
X38686000Y-29135540D02*
X38706000Y-29045140D01*
X319277800Y-28956140D02*
X319303600Y-29045140D01*
X177602000Y-159362140D02*
X177576000Y-159273140D01*
X19817000Y-133260640D02*
X19916000Y-133339140D01*
X319303600Y-29045140D02*
X319323800Y-29135540D01*
X19059000Y-132426840D02*
X19131000Y-132529640D01*
X177556000Y-159183140D02*
X177542000Y-159091140D01*
X38663000Y-25692840D02*
X38546000Y-25740940D01*
X337045620Y-129722740D02*
X337071470Y-129811740D01*
X40763000Y-30746590D02*
X40678000Y-30783390D01*
X36206000Y-28662440D02*
X18416000Y-129552840D01*
X40678000Y-30783390D02*
X40591000Y-30814780D01*
X19451000Y-132916740D02*
X19539000Y-133006940D01*
X19367000Y-132823740D02*
X19451000Y-132916740D01*
X177542000Y-158721140D02*
X177556000Y-158630140D01*
X41564000Y-29045140D02*
X41584000Y-29135540D01*
X177670000Y-159534140D02*
X177634000Y-159449140D01*
X319120300Y-28621640D02*
X319167500Y-28701340D01*
X178065000Y-157770140D02*
X178138000Y-157713140D01*
X21122000Y-129388140D02*
X21174000Y-129311540D01*
X321111000Y-27060840D02*
X321035600Y-26960340D01*
X177995000Y-157831140D02*
X178065000Y-157770140D01*
X21075000Y-129467940D02*
X21122000Y-129388140D01*
X37490000Y-26411540D02*
X37397000Y-26496140D01*
X320424600Y-26329940D02*
X320326600Y-26251340D01*
X20964000Y-129722740D02*
X20996000Y-129635540D01*
X334397430Y-129388140D02*
X334449500Y-129311540D01*
X178138000Y-160100140D02*
X178065000Y-160043140D01*
X41428000Y-30122560D02*
X41380000Y-30202320D01*
X40502000Y-30840630D02*
X40411000Y-30860850D01*
X41210000Y-30421680D02*
X41145000Y-30487200D01*
X40846000Y-30704520D02*
X40763000Y-30746590D01*
X41328000Y-30278950D02*
X41272000Y-30352160D01*
X40411000Y-30860850D02*
X40320000Y-30875340D01*
X41610000Y-29411940D02*
X41607000Y-29504540D01*
X39950000Y-30875340D02*
X39859000Y-30860850D01*
X41075000Y-30548480D02*
X41002000Y-30605280D01*
X18990000Y-132321840D02*
X19059000Y-132426840D01*
X41598000Y-29596840D02*
X41584000Y-29688340D01*
X334214150Y-130545340D02*
X334193930Y-130454940D01*
X177760000Y-159697140D02*
X177712000Y-159617140D01*
X318741900Y-28218640D02*
X318815200Y-28275440D01*
X20939000Y-129811740D02*
X20964000Y-129722740D01*
X318950200Y-28402240D02*
X319011500Y-28471740D01*
X318585500Y-28119440D02*
X318665300Y-28166540D01*
X180142000Y-159846140D02*
X180080000Y-159916140D01*
X41506000Y-28869040D02*
X41538000Y-28956140D01*
X177868000Y-159846140D02*
X177812000Y-159773140D01*
X41272000Y-30352160D02*
X41210000Y-30421680D01*
X177634000Y-158363140D02*
X177670000Y-158278140D01*
X41145000Y-30487200D02*
X41075000Y-30548480D01*
X23660000Y-129467940D02*
X23702000Y-129550540D01*
X40009000Y-25413940D02*
X39884000Y-25419840D01*
X335366420Y-131627440D02*
X335276000Y-131607240D01*
X22823000Y-131581340D02*
X22734000Y-131607240D01*
X20016000Y-133414640D02*
X20119000Y-133486840D01*
X316865200Y-28336740D02*
X316934700Y-28275440D01*
X179506000Y-162875140D02*
X179631000Y-162857140D01*
X336779310Y-131118740D02*
X336718030Y-131188240D01*
X335735420Y-131650640D02*
X335642800Y-131653540D01*
X39768000Y-27983340D02*
X39859000Y-27963140D01*
X336652510Y-131253740D02*
X336583000Y-131315040D01*
X41584000Y-29688340D02*
X41564000Y-29778740D01*
X40678000Y-28040540D02*
X40763000Y-28077340D01*
X21911000Y-128775740D02*
X22000000Y-128749840D01*
X177812000Y-158039140D02*
X177868000Y-157966140D01*
X334271390Y-129635540D02*
X334308190Y-129550540D01*
X22995000Y-128843940D02*
X23078000Y-128885940D01*
X339625060Y-130554940D02*
X339634910Y-130429740D01*
X317008000Y-30605280D02*
X316934700Y-30548480D01*
X179716000Y-160199140D02*
X179633000Y-160241140D01*
X179281000Y-157457140D02*
X179372000Y-157478140D01*
X179372000Y-160335140D02*
X179281000Y-160355140D01*
X337114890Y-130271140D02*
X337106180Y-130363440D01*
X180340000Y-159534140D02*
X180298000Y-159617140D01*
X339640830Y-130304140D02*
X339642800Y-130178540D01*
X321546000Y-27823340D02*
X321494300Y-27708840D01*
X23442000Y-129168840D02*
X23504000Y-129238340D01*
X21427000Y-131315040D02*
X21357000Y-131253740D01*
X334350260Y-130889140D02*
X334308190Y-130806540D01*
X316426100Y-29688340D02*
X316411600Y-29596840D01*
X337071470Y-130545340D02*
X337045620Y-130634340D01*
X36827000Y-27163640D02*
X36758000Y-27268640D01*
X339517150Y-131173340D02*
X339546470Y-131051140D01*
X317874900Y-25411940D02*
X40135000Y-25411940D01*
X18416000Y-130804240D02*
X18438000Y-130928040D01*
X337231390Y-133849540D02*
X337345930Y-133797840D01*
X320703400Y-26583540D02*
X320613100Y-26496140D01*
X180434000Y-158539140D02*
X180454000Y-158630140D01*
X23770000Y-130634340D02*
X23739000Y-130721540D01*
X320123300Y-26103640D02*
X320018300Y-26034640D01*
X316799700Y-30421680D02*
X316738400Y-30352160D01*
X338803430Y-132630140D02*
X338878870Y-132529640D01*
X317598600Y-30860850D02*
X317508100Y-30840630D01*
X336270820Y-131513140D02*
X336185790Y-131549940D01*
X334308190Y-130806540D02*
X334271390Y-130721540D01*
X18563000Y-131414640D02*
X18604000Y-131533440D01*
X179548000Y-160278140D02*
X179461000Y-160309140D01*
X334702600Y-131315040D02*
X334633100Y-131253740D01*
X318376300Y-25443540D02*
X318251400Y-25429740D01*
X336515380Y-134082240D02*
X336637570Y-134052840D01*
X334397430Y-130968840D02*
X334350260Y-130889140D01*
X338094430Y-133339140D02*
X338192500Y-133260640D01*
X180468000Y-159091140D02*
X180454000Y-159183140D01*
X336009620Y-131607240D02*
X335919200Y-131627440D01*
X21911000Y-131581340D02*
X21824000Y-131549940D01*
X20440000Y-133683740D02*
X20551000Y-133742540D01*
X320326600Y-26251340D02*
X320226100Y-26175940D01*
X319802000Y-25906740D02*
X319690900Y-25847940D01*
X336392330Y-134107640D02*
X336515380Y-134082240D01*
X336758770Y-134019740D02*
X336878870Y-133982740D01*
X334179440Y-130363440D02*
X334170710Y-130271140D01*
X177712000Y-158196140D02*
X177760000Y-158116140D01*
X319011500Y-28471740D02*
X319068300Y-28544940D01*
X337106180Y-130363440D02*
X337091690Y-130454940D01*
X319209600Y-28783940D02*
X319246400Y-28869040D01*
X335366420Y-128729640D02*
X335457940Y-128715140D01*
X36758000Y-27268640D02*
X36692000Y-27375840D01*
X177760000Y-158116140D02*
X177812000Y-158039140D01*
X334240000Y-129722740D02*
X334271390Y-129635540D01*
X334179440Y-129993640D02*
X334193930Y-129902140D01*
X177542000Y-159091140D02*
X177533000Y-158999140D01*
X39345000Y-30657350D02*
X39268000Y-30605280D01*
X39424000Y-28119440D02*
X39507000Y-28077340D01*
X39679000Y-28009140D02*
X39768000Y-27983340D01*
X40502000Y-27983340D02*
X40591000Y-28009140D01*
X41470000Y-30040000D02*
X41428000Y-30122560D01*
X41506000Y-29954940D02*
X41470000Y-30040000D01*
X180454000Y-158630140D02*
X180468000Y-158721140D01*
X38660000Y-29411940D02*
X38663000Y-29319340D01*
X178377000Y-160241140D02*
X178294000Y-160199140D01*
X336583000Y-131315040D02*
X336509790Y-131371840D01*
X23831000Y-129993640D02*
X23839000Y-130085940D01*
X23234000Y-128985240D02*
X23307000Y-129042040D01*
X179005000Y-157431140D02*
X179098000Y-157434140D01*
X180198000Y-158039140D02*
X180250000Y-158116140D01*
X339593560Y-130804240D02*
X339611260Y-130679840D01*
X317419200Y-30814780D02*
X317332000Y-30783390D01*
X18464000Y-131051140D02*
X18493000Y-131173340D01*
X316472100Y-28956140D02*
X316503500Y-28869040D01*
X22182000Y-131641940D02*
X22091000Y-131627440D01*
X336718030Y-129168840D02*
X336779310Y-129238340D01*
X23307000Y-131315040D02*
X23234000Y-131371840D01*
X335276000Y-131607240D02*
X335187010Y-131581340D01*
X336935360Y-130889140D02*
X336888190Y-130968840D01*
X178820000Y-160370140D02*
X178729000Y-160355140D01*
X180250000Y-159697140D02*
X180198000Y-159773140D01*
X20892000Y-130178540D02*
X20895000Y-130085940D01*
X20918000Y-130454940D02*
X20904000Y-130363440D01*
X339640830Y-130052940D02*
X339634910Y-129927340D01*
X22644000Y-128729640D02*
X22734000Y-128749840D01*
X36692000Y-27375840D02*
X36630000Y-27484940D01*
X319350000Y-29411940D02*
X319347000Y-29504540D01*
X338380990Y-133094440D02*
X338471230Y-133006940D01*
X36974000Y-26960340D02*
X36899000Y-27060840D01*
X336977430Y-129550540D02*
X337014230Y-129635540D01*
X337014230Y-129635540D02*
X337045620Y-129722740D01*
X317782300Y-27939840D02*
X317874900Y-27936940D01*
X339206830Y-131994540D02*
X339262110Y-131881640D01*
X177812000Y-159773140D02*
X177760000Y-159697140D01*
X334240000Y-130634340D02*
X334214150Y-130545340D01*
X318884700Y-28336740D02*
X318950200Y-28402240D01*
X41002000Y-30605280D02*
X40925000Y-30657350D01*
X40925000Y-30657350D02*
X40846000Y-30704520D01*
X41538000Y-28956140D02*
X41564000Y-29045140D01*
X177634000Y-159449140D02*
X177602000Y-159362140D01*
X319068300Y-30278950D02*
X319011500Y-30352160D01*
X177576000Y-159273140D02*
X177556000Y-159183140D01*
X40228000Y-30884050D02*
X40135000Y-30886970D01*
X39679000Y-30814780D02*
X39592000Y-30783390D01*
X40135000Y-30886970D02*
X40042000Y-30884050D01*
X40591000Y-30814780D02*
X40502000Y-30840630D01*
X40320000Y-30875340D02*
X40228000Y-30884050D01*
X336009620Y-128749840D02*
X336098610Y-128775740D01*
X19131000Y-132529640D02*
X19207000Y-132630140D01*
X177670000Y-158278140D02*
X177712000Y-158196140D01*
X177712000Y-159617140D02*
X177670000Y-159534140D01*
X39125000Y-30487200D02*
X39060000Y-30421680D01*
X22000000Y-131607240D02*
X21911000Y-131581340D01*
X40591000Y-28009140D02*
X40678000Y-28040540D01*
X39195000Y-30548480D02*
X39125000Y-30487200D01*
X39592000Y-28040540D02*
X39679000Y-28009140D01*
X20918000Y-129902140D02*
X20939000Y-129811740D01*
X38843000Y-30122560D02*
X38800000Y-30040000D01*
X21231000Y-129238340D02*
X21292000Y-129168840D01*
X20904000Y-129993640D02*
X20918000Y-129902140D01*
X38800000Y-30040000D02*
X38764000Y-29954940D01*
M02*
