<?xml version="1.0" encoding="UTF-8" standalone="no"?>
<svg
   xmlns:dc="http://purl.org/dc/elements/1.1/"
   xmlns:cc="http://creativecommons.org/ns#"
   xmlns:rdf="http://www.w3.org/1999/02/22-rdf-syntax-ns#"
   xmlns:svg="http://www.w3.org/2000/svg"
   xmlns="http://www.w3.org/2000/svg"
   xmlns:sodipodi="http://sodipodi.sourceforge.net/DTD/sodipodi-0.dtd"
   xmlns:inkscape="http://www.inkscape.org/namespaces/inkscape"
   height="8.5in"
   version="1.1"
   viewBox="-7 -123 355.6 215.9"
   width="14in"
   id="svg869"
   sodipodi:docname="plate.svg"
   inkscape:version="0.92.2 2405546, 2018-03-11">
  <metadata
     id="metadata875">
    <rdf:RDF>
      <cc:Work
         rdf:about="">
        <dc:format>image/svg+xml</dc:format>
        <dc:type
           rdf:resource="http://purl.org/dc/dcmitype/StillImage" />
        <dc:title>OpenSCAD Model</dc:title>
      </cc:Work>
    </rdf:RDF>
  </metadata>
  <defs
     id="defs873">
    <marker
       inkscape:stockid="Arrow2Lstart"
       orient="auto"
       refY="0"
       refX="0"
       id="Arrow2Lstart"
       style="overflow:visible"
       inkscape:isstock="true">
      <path
         id="path895"
         style="fill:#000000;fill-opacity:1;fill-rule:evenodd;stroke:#000000;stroke-width:0.625;stroke-linejoin:round;stroke-opacity:1"
         d="M 8.7185878,4.0337352 -2.2072895,0.01601326 8.7185884,-4.0017078 c -1.7454984,2.3720609 -1.7354408,5.6174519 -6e-7,8.035443 z"
         transform="matrix(1.1,0,0,1.1,1.1,0)"
         inkscape:connector-curvature="0" />
    </marker>
    <marker
       inkscape:stockid="Arrow1Send"
       orient="auto"
       refY="0"
       refX="0"
       id="Arrow1Send"
       style="overflow:visible"
       inkscape:isstock="true">
      <path
         id="path892"
         d="M 0,0 5,-5 -12.5,0 5,5 Z"
         style="fill:#d3d3d3;fill-opacity:1;fill-rule:evenodd;stroke:#000000;stroke-width:1.00000003pt;stroke-opacity:1"
         transform="matrix(-0.2,0,0,-0.2,-1.2,0)"
         inkscape:connector-curvature="0" />
    </marker>
    <marker
       inkscape:stockid="Arrow1Sstart"
       orient="auto"
       refY="0"
       refX="0"
       id="Arrow1Sstart"
       style="overflow:visible"
       inkscape:isstock="true">
      <path
         id="path889"
         d="M 0,0 5,-5 -12.5,0 5,5 Z"
         style="fill:#d3d3d3;fill-opacity:1;fill-rule:evenodd;stroke:#000000;stroke-width:1.00000003pt;stroke-opacity:1"
         transform="matrix(0.2,0,0,0.2,1.2,0)"
         inkscape:connector-curvature="0" />
    </marker>
    <marker
       inkscape:stockid="Arrow1Mend"
       orient="auto"
       refY="0"
       refX="0"
       id="Arrow1Mend"
       style="overflow:visible"
       inkscape:isstock="true">
      <path
         id="path886"
         d="M 0,0 5,-5 -12.5,0 5,5 Z"
         style="fill:#d3d3d3;fill-opacity:1;fill-rule:evenodd;stroke:#000000;stroke-width:1.00000003pt;stroke-opacity:1"
         transform="matrix(-0.4,0,0,-0.4,-4,0)"
         inkscape:connector-curvature="0" />
    </marker>
    <marker
       inkscape:stockid="Arrow1Mstart"
       orient="auto"
       refY="0"
       refX="0"
       id="Arrow1Mstart"
       style="overflow:visible"
       inkscape:isstock="true">
      <path
         id="path883"
         d="M 0,0 5,-5 -12.5,0 5,5 Z"
         style="fill:#d3d3d3;fill-opacity:1;fill-rule:evenodd;stroke:#000000;stroke-width:1.00000003pt;stroke-opacity:1"
         transform="matrix(0.4,0,0,0.4,4,0)"
         inkscape:connector-curvature="0" />
    </marker>
    <marker
       inkscape:stockid="Arrow1Lend"
       orient="auto"
       refY="0"
       refX="0"
       id="Arrow1Lend"
       style="overflow:visible"
       inkscape:isstock="true">
      <path
         id="path880"
         d="M 0,0 5,-5 -12.5,0 5,5 Z"
         style="fill:#d3d3d3;fill-opacity:1;fill-rule:evenodd;stroke:#000000;stroke-width:1.00000003pt;stroke-opacity:1"
         transform="matrix(-0.8,0,0,-0.8,-10,0)"
         inkscape:connector-curvature="0" />
    </marker>
    <marker
       inkscape:stockid="Arrow1Lstart"
       orient="auto"
       refY="0"
       refX="0"
       id="Arrow1Lstart"
       style="overflow:visible"
       inkscape:isstock="true">
      <path
         id="path877"
         d="M 0,0 5,-5 -12.5,0 5,5 Z"
         style="fill:#d3d3d3;fill-opacity:1;fill-rule:evenodd;stroke:#000000;stroke-width:1.00000003pt;stroke-opacity:1"
         transform="matrix(0.8,0,0,0.8,10,0)"
         inkscape:connector-curvature="0" />
    </marker>
  </defs>
  <sodipodi:namedview
     pagecolor="#ffffff"
     bordercolor="#666666"
     borderopacity="1"
     objecttolerance="10"
     gridtolerance="10"
     guidetolerance="10"
     inkscape:pageopacity="0"
     inkscape:pageshadow="2"
     inkscape:window-width="1916"
     inkscape:window-height="1021"
     id="namedview871"
     showgrid="false"
     inkscape:document-units="mm"
     units="in"
     inkscape:zoom="0.96568627"
     inkscape:cx="672"
     inkscape:cy="408"
     inkscape:window-x="0"
     inkscape:window-y="28"
     inkscape:window-maximized="0"
     inkscape:current-layer="svg869" />
  <title
     id="title865">OpenSCAD Model</title>
  <path
     d="m 299.57163,33.311485 0.125,-0.0059 0.125,-0.0099 0.125,-0.0138 0.125,-0.0177 0.123,-0.0216 0.124,-0.0255 0.122,-0.0293 0.121,-0.0332 0.12,-0.0369 0.119,-0.0407 0.117,-0.0444 0.117,-0.0481 0.114,-0.0517 0.113,-0.0553 0.111,-0.0588 0.109,-0.0623 0.107,-0.0656 0.105,-0.069 0.103,-0.0723 0.101,-0.0754 0.098,-0.0786 0.095,-0.0816 0.093,-0.0846 0.09,-0.0874 0.088,-0.0902 0.084,-0.093 0.082,-0.0955 0.079,-0.0981 0.075,-0.1005 0.072,-0.1028 0.069,-0.105 0.066,-0.1072 0.062,-0.1091 0.059,-0.1111 0.055,-0.1128 0.052,-0.1145 0.048,-0.1161 0.044,-0.1176 0.041,-0.1189 0.037,-0.1201 0.033,-0.1212 0.03,-0.1222 0.025,-0.123 17.79,-100.8904 0.017,-0.1244 0.014,-0.1249 0.01,-0.1252 0.006,-0.1256 0.002,-0.1256 -0.002,-0.1256 -0.006,-0.1256 -0.01,-0.1252 -0.014,-0.1249 -0.017,-0.1244 -0.022,-0.1238 -0.026,-0.1231 -0.029,-0.1222 -0.033,-0.1212 -0.037,-0.1201 -0.041,-0.1188 -0.044,-0.1176 -0.048,-0.1161 -0.052,-0.1145 -0.055,-0.1129 -0.059,-0.111 -0.062,-0.1092 -0.066,-0.1071 -0.069,-0.105 -0.072,-0.1028 -0.076,-0.1005 -0.078,-0.0981 -0.082,-0.0955 -0.084,-0.093 -0.088,-0.0902 -0.09,-0.0875 -0.093,-0.0845 -0.095,-0.0817 -0.099,-0.0785 -0.1,-0.0755 -0.103,-0.0722 -0.105,-0.069 -0.107,-0.0657 -0.109,-0.0622 -0.111,-0.0588 -0.113,-0.0553 -0.115,-0.0517 -0.116,-0.0481 -0.117,-0.0444 -0.119,-0.0407 -0.12,-0.037 -0.121,-0.0331 -0.123,-0.0294 -0.123,-0.0254 -156.637,-28.727495 -0.124,-0.022 -0.125,-0.018 -0.125,-0.014 -0.125,-0.009 -0.125,-0.006 -0.126,-0.002 -0.126,0.002 -0.125,0.006 -0.125,0.009 -0.125,0.014 -0.125,0.018 -0.124,0.022 -156.6373255,28.727495 -0.12305,0.0254 -0.12219,0.0294 -0.1212,0.0331 -0.1201,0.037 -0.11888,0.0407 -0.11756,0.0444 -0.11608,0.0481 -0.11454,0.0517 -0.11284,0.0553 -0.11105,0.0588 -0.10915,0.0622 -0.10714,0.0657 -0.10503,0.069 -0.10281,0.0722 -0.10048,0.0755 -0.09807,0.0785 -0.09555,0.0817 -0.09294,0.0845 -0.09024,0.0875 -0.08745,0.0902 -0.08456,0.093 -0.08162,0.0955 -0.07857,0.0981 -0.07544,0.1005 -0.07225,0.1028 -0.069,0.105 -0.06566,0.1071 -0.06226,0.1092 -0.05879,0.111 -0.05528,0.1129 -0.05171,0.1145 -0.0481,0.1161 -0.04442,0.1176 -0.04069,0.1188 -0.03694,0.1201 -0.03318,0.1212 -0.02932,0.1222 -0.02549,0.1231 -0.0216,0.1238 -0.0177,0.1244 -0.0138,0.1249 -0.00985,0.1252 -0.00592,0.1256 -0.00197,0.1256 0.00197,0.1256 0.00592,0.1256 0.00985,0.1252 0.0138,0.1249 0.0177,0.1244 17.78946053,100.8904 0.0255,0.123 0.0293,0.1222 0.0332,0.1212 0.0369,0.1201 0.0407,0.1189 0.0444,0.1176 0.0481,0.1161 0.0517,0.1145 0.0553,0.1128 0.0588,0.1111 0.0623,0.1091 0.0656,0.1072 0.069,0.105 0.0723,0.1028 0.0754,0.1005 0.0786,0.0981 0.0816,0.0955 0.0846,0.093 0.0874,0.0902 0.0903,0.0874 0.0929,0.0846 0.0956,0.0816 0.098,0.0786 0.1005,0.0754 0.1028,0.0723 0.105,0.069 0.1072,0.0656 0.1091,0.0623 0.1111,0.0588 0.1128,0.0553 0.1146,0.0517 0.116,0.0481 0.1176,0.0444 0.1189,0.0407 0.1201,0.0369 0.1212,0.0332 0.1222,0.0293 0.123,0.0255 0.1238,0.0216 0.1244,0.0177 0.1249,0.0138 0.1253,0.0099 0.1255,0.0059 0.1257,0.002 H 299.44563 Z m -139.089,-132.020199 -0.092,-0.009 -0.091,-0.014 -0.091,-0.021 -0.089,-0.025 -0.087,-0.032 -0.085,-0.037 -0.083,-0.042 -0.079,-0.047 -0.077,-0.052 -0.073,-0.057 -0.07,-0.061 -0.065,-0.066 -0.062,-0.069 -0.056,-0.073 -0.052,-0.077 -0.048,-0.08 -0.042,-0.082 -0.036,-0.085 -0.032,-0.087 -0.026,-0.089 -0.02,-0.091 -0.014,-0.091 -0.009,-0.093 -0.003,-0.092 0.003,-0.093 0.009,-0.092 0.014,-0.092 0.02,-0.09 0.026,-0.089 0.032,-0.087 0.036,-0.085 0.042,-0.083 0.048,-0.08 0.052,-0.076 0.056,-0.073 0.062,-0.07 0.065,-0.065 0.07,-0.062 0.073,-0.057 0.077,-0.052 0.079,-0.047 0.083,-0.042 0.085,-0.037 0.087,-0.031 0.089,-0.026 0.091,-0.02 0.091,-0.015 0.092,-0.008 0.093,-0.003 0.093,0.003 0.092,0.008 0.091,0.015 0.091,0.02 0.089,0.026 0.087,0.031 0.085,0.037 0.083,0.042 0.079,0.047 0.077,0.052 0.073,0.057 0.07,0.062 0.065,0.065 0.062,0.07 0.056,0.073 0.052,0.076 0.048,0.08 0.042,0.083 0.036,0.085 0.032,0.087 0.026,0.089 0.02,0.09 0.014,0.092 0.009,0.092 0.003,0.093 -0.003,0.092 -0.009,0.093 -0.014,0.091 -0.02,0.091 -0.026,0.089 -0.032,0.087 -0.036,0.085 -0.042,0.082 -0.048,0.08 -0.052,0.077 -0.056,0.073 -0.062,0.069 -0.065,0.066 -0.07,0.061 -0.073,0.057 -0.077,0.052 -0.079,0.047 -0.083,0.042 -0.085,0.037 -0.087,0.032 -0.089,0.025 -0.091,0.021 -0.091,0.014 -0.092,0.009 -0.093,0.003 z m -78.318495,14.363999 -0.0923,-0.009 -0.0915,-0.014 -0.0904,-0.021 -0.089,-0.026 -0.0872,-0.031 -0.085,-0.037 -0.0826,-0.042 -0.0798,-0.047 -0.0766,-0.052 -0.0732,-0.057 -0.0695,-0.061 -0.0655,-0.066 -0.0613,-0.069 -0.0568,-0.073 -0.0521,-0.077 -0.0472,-0.08 -0.042,-0.082 -0.0368,-0.085 -0.0314,-0.088 -0.0259,-0.089 -0.0202,-0.09 -0.0145,-0.091 -0.0087,-0.093 -0.0029,-0.092 0.0029,-0.093 0.0087,-0.092 0.0145,-0.092 0.0202,-0.09 0.0259,-0.089 0.0314,-0.087 0.0368,-0.085 0.042,-0.083 0.0472,-0.08 0.0521,-0.076 0.0568,-0.074 0.0613,-0.069 0.0655,-0.066 0.0695,-0.061 0.0732,-0.057 0.0766,-0.052 0.0798,-0.047 0.0826,-0.042 0.085,-0.037 0.0872,-0.031 0.089,-0.026 0.0904,-0.02 0.0915,-0.015 0.0923,-0.008 0.0926,-0.003 0.0926,0.003 0.0923,0.008 0.0915,0.015 0.0904,0.02 0.089,0.026 0.0872,0.031 0.085,0.037 0.0826,0.042 0.0797,0.047 0.0767,0.052 0.0732,0.057 0.0695,0.061 0.0655,0.066 0.0613,0.069 0.0568,0.074 0.0521,0.076 0.0471,0.08 0.0421,0.083 0.0368,0.085 0.0314,0.087 0.0258,0.089 0.0203,0.09 0.0145,0.092 0.0087,0.092 0.0029,0.093 -0.0029,0.092 -0.0087,0.093 -0.0145,0.091 -0.0203,0.09 -0.0258,0.089 -0.0314,0.088 -0.0368,0.085 -0.0421,0.082 -0.0471,0.08 -0.0521,0.077 -0.0568,0.073 -0.0613,0.069 -0.0655,0.066 -0.0695,0.061 -0.0732,0.057 -0.0767,0.052 -0.0797,0.047 -0.0826,0.042 -0.085,0.037 -0.0872,0.031 -0.089,0.026 -0.0904,0.021 -0.0915,0.014 -0.0923,0.009 -0.0926,0.003 z m 156.637495,0 -0.092,-0.009 -0.091,-0.014 -0.091,-0.021 -0.089,-0.026 -0.087,-0.031 -0.085,-0.037 -0.083,-0.042 -0.079,-0.047 -0.077,-0.052 -0.073,-0.057 -0.07,-0.061 -0.065,-0.066 -0.062,-0.069 -0.056,-0.073 -0.052,-0.077 -0.048,-0.08 -0.042,-0.082 -0.037,-0.085 -0.031,-0.088 -0.026,-0.089 -0.02,-0.09 -0.014,-0.091 -0.009,-0.093 -0.003,-0.092 0.003,-0.093 0.009,-0.092 0.014,-0.092 0.02,-0.09 0.026,-0.089 0.031,-0.087 0.037,-0.085 0.042,-0.083 0.048,-0.08 0.052,-0.076 0.056,-0.074 0.062,-0.069 0.065,-0.066 0.07,-0.061 0.073,-0.057 0.077,-0.052 0.079,-0.047 0.083,-0.042 0.085,-0.037 0.087,-0.031 0.089,-0.026 0.091,-0.02 0.091,-0.015 0.092,-0.008 0.093,-0.003 0.093,0.003 0.092,0.008 0.091,0.015 0.091,0.02 0.089,0.026 0.087,0.031 0.085,0.037 0.082,0.042 0.08,0.047 0.077,0.052 0.073,0.057 0.07,0.061 0.065,0.066 0.061,0.069 0.057,0.074 0.052,0.076 0.047,0.08 0.043,0.083 0.036,0.085 0.032,0.087 0.026,0.089 0.02,0.09 0.014,0.092 0.009,0.092 0.003,0.093 -0.003,0.092 -0.009,0.093 -0.014,0.091 -0.02,0.09 -0.026,0.089 -0.032,0.088 -0.036,0.085 -0.043,0.082 -0.047,0.08 -0.052,0.077 -0.057,0.073 -0.061,0.069 -0.065,0.066 -0.07,0.061 -0.073,0.057 -0.077,0.052 -0.08,0.047 -0.082,0.042 -0.085,0.037 -0.087,0.031 -0.089,0.026 -0.091,0.021 -0.091,0.014 -0.092,0.009 -0.093,0.003 z m -234.9564155,14.3637 -0.09226,-0.0087 -0.09152,-0.0145 -0.09042,-0.0202 -0.08899,-0.0259 -0.08718,-0.0314 -0.08503,-0.0368 -0.08257,-0.042 -0.07976,-0.0472 -0.07664,-0.0521 -0.07321,-0.0568 -0.06951,-0.0613 -0.06552,-0.0655 -0.06128,-0.0695 -0.05679,-0.0732 -0.05209,-0.0766 -0.04717,-0.0798 -0.04207,-0.0826 -0.0368,-0.085 -0.03139,-0.0872 -0.02585,-0.089 -0.02022,-0.0904 -0.01449,-0.0915 -0.00871,-0.0923 -0.00292,-0.0926 0.00292,-0.0926 0.00871,-0.0923 0.01449,-0.0915 0.02022,-0.0904 0.02585,-0.089 0.03139,-0.0872 0.0368,-0.085 0.04207,-0.0826 0.04717,-0.0797 0.05209,-0.0767 0.05679,-0.0732 0.06128,-0.0695 0.06552,-0.0655 0.06951,-0.0613 0.07321,-0.0568 0.07664,-0.0521 0.07976,-0.0472 0.08257,-0.042 0.08503,-0.0368 0.08718,-0.0314 0.08899,-0.0259 0.09042,-0.0202 0.09152,-0.0145 0.09226,-0.0087 0.09262,-0.0029 0.0926,0.0029 0.09226,0.0087 0.09152,0.0145 0.09042,0.0202 0.08899,0.0259 0.08719,0.0314 0.08504,0.0368 0.08256,0.042 0.07976,0.0472 0.07663,0.0521 0.07323,0.0568 0.0695,0.0613 0.06552,0.0655 0.06128,0.0695 0.0568,0.0732 0.05207,0.0767 0.04717,0.0797 0.04207,0.0826 0.0368,0.085 0.03139,0.0872 0.02585,0.089 0.02022,0.0904 0.01449,0.0915 0.00873,0.0923 0.0029,0.0926 -0.0029,0.0926 -0.00873,0.0923 -0.01449,0.0915 -0.02022,0.0904 -0.02585,0.089 -0.03139,0.0872 -0.0368,0.085 -0.04207,0.0826 -0.04717,0.0798 -0.05207,0.0766 -0.0568,0.0732 -0.06128,0.0695 -0.06552,0.0655 -0.0695,0.0613 -0.07323,0.0568 -0.07663,0.0521 -0.07976,0.0472 -0.08256,0.042 -0.08504,0.0368 -0.08719,0.0314 -0.08899,0.0259 -0.09042,0.0202 -0.09152,0.0145 -0.09226,0.0087 -0.0926,0.0029 z m 313.2754155,0 -0.092,-0.0087 -0.092,-0.0145 -0.09,-0.0202 -0.089,-0.0259 -0.087,-0.0314 -0.085,-0.0368 -0.083,-0.042 -0.08,-0.0472 -0.076,-0.0521 -0.073,-0.0568 -0.07,-0.0613 -0.065,-0.0655 -0.062,-0.0695 -0.056,-0.0732 -0.053,-0.0766 -0.047,-0.0798 -0.042,-0.0826 -0.037,-0.085 -0.031,-0.0872 -0.026,-0.089 -0.02,-0.0904 -0.015,-0.0915 -0.008,-0.0923 -0.003,-0.0926 0.003,-0.0926 0.008,-0.0923 0.015,-0.0915 0.02,-0.0904 0.026,-0.089 0.031,-0.0872 0.037,-0.085 0.042,-0.0826 0.047,-0.0797 0.053,-0.0767 0.056,-0.0732 0.062,-0.0695 0.065,-0.0655 0.07,-0.0613 0.073,-0.0568 0.076,-0.0521 0.08,-0.0472 0.083,-0.042 0.085,-0.0368 0.087,-0.0314 0.089,-0.0259 0.09,-0.0202 0.092,-0.0145 0.092,-0.0087 0.093,-0.0029 0.092,0.0029 0.093,0.0087 0.091,0.0145 0.091,0.0202 0.089,0.0259 0.087,0.0314 0.085,0.0368 0.082,0.042 0.08,0.0472 0.077,0.0521 0.073,0.0568 0.07,0.0613 0.065,0.0655 0.061,0.0695 0.057,0.0732 0.052,0.0767 0.047,0.0797 0.042,0.0826 0.037,0.085 0.032,0.0872 0.025,0.089 0.021,0.0904 0.014,0.0915 0.009,0.0923 0.003,0.0926 -0.003,0.0926 -0.009,0.0923 -0.014,0.0915 -0.021,0.0904 -0.025,0.089 -0.032,0.0872 -0.037,0.085 -0.042,0.0826 -0.047,0.0798 -0.052,0.0766 -0.057,0.0732 -0.061,0.0695 -0.065,0.0655 -0.07,0.0613 -0.073,0.0568 -0.077,0.0521 -0.08,0.0472 -0.082,0.042 -0.085,0.0368 -0.087,0.0314 -0.089,0.0259 -0.091,0.0202 -0.091,0.0145 -0.093,0.0087 -0.092,0.0029 z m -295.507595,100.7666 -0.0922,-0.0088 -0.0915,-0.0145 -0.0905,-0.0202 -0.089,-0.0258 -0.0871,-0.0314 -0.0851,-0.0368 -0.0825,-0.0421 -0.0798,-0.0471 -0.0766,-0.0521 -0.0733,-0.0568 -0.0695,-0.0613 -0.0655,-0.0655 -0.0613,-0.0695 -0.0568,-0.0732 -0.052,-0.0767 -0.0472,-0.0797 -0.0421,-0.0826 -0.0368,-0.0851 -0.0314,-0.0871 -0.0258,-0.089 -0.0202,-0.0904 -0.0145,-0.0916 -0.0087,-0.0922 -0.003,-0.0926 0.003,-0.0926 0.0087,-0.0923 0.0145,-0.0915 0.0202,-0.0904 0.0258,-0.089 0.0314,-0.0872 0.0368,-0.08506 0.0421,-0.08256 0.0472,-0.07976 0.052,-0.07663 0.0568,-0.07321 0.0613,-0.06952 0.0655,-0.06552 0.0695,-0.06128 0.0733,-0.0568 0.0766,-0.05207 0.0798,-0.04717 0.0825,-0.04207 0.0851,-0.0368 0.0871,-0.03139 0.089,-0.02585 0.0905,-0.02022 0.0915,-0.01449 0.0922,-0.0087 0.0927,-0.0029 0.0926,0.0029 0.0922,0.0087 0.0915,0.01449 0.0905,0.02022 0.0889,0.02585 0.0872,0.03139 0.0851,0.0368 0.0825,0.04207 0.0798,0.04717 0.0766,0.05207 0.0733,0.0568 0.0695,0.06128 0.0655,0.06552 0.0613,0.06952 0.0567,0.07321 0.0521,0.07663 0.0472,0.07976 0.0421,0.08256 0.0368,0.08506 0.0314,0.0872 0.0258,0.089 0.0202,0.0904 0.0145,0.0915 0.0087,0.0923 0.0029,0.0926 -0.0029,0.0926 -0.0087,0.0922 -0.0145,0.0916 -0.0202,0.0904 -0.0258,0.089 -0.0314,0.0871 -0.0368,0.0851 -0.0421,0.0826 -0.0472,0.0797 -0.0521,0.0767 -0.0567,0.0732 -0.0613,0.0695 -0.0655,0.0655 -0.0695,0.0613 -0.0733,0.0568 -0.0766,0.0521 -0.0798,0.0471 -0.0825,0.0421 -0.0851,0.0368 -0.0872,0.0314 -0.0889,0.0258 -0.0905,0.0202 -0.0915,0.0145 -0.0922,0.0088 -0.0926,0.0029 z m 277.739595,0 -0.092,-0.0088 -0.091,-0.0145 -0.091,-0.0202 -0.089,-0.0258 -0.087,-0.0314 -0.085,-0.0368 -0.083,-0.0421 -0.079,-0.0471 -0.077,-0.0521 -0.073,-0.0568 -0.07,-0.0613 -0.065,-0.0655 -0.062,-0.0695 -0.056,-0.0732 -0.052,-0.0767 -0.048,-0.0797 -0.042,-0.0826 -0.036,-0.0851 -0.032,-0.0871 -0.026,-0.089 -0.02,-0.0904 -0.014,-0.0916 -0.009,-0.0922 -0.003,-0.0926 0.003,-0.0926 0.009,-0.0923 0.014,-0.0915 0.02,-0.0904 0.026,-0.089 0.032,-0.0872 0.036,-0.08506 0.042,-0.08256 0.048,-0.07976 0.052,-0.07663 0.056,-0.07321 0.062,-0.06952 0.065,-0.06552 0.07,-0.06128 0.073,-0.0568 0.077,-0.05207 0.079,-0.04717 0.083,-0.04207 0.085,-0.0368 0.087,-0.03139 0.089,-0.02585 0.091,-0.02022 0.091,-0.01449 0.092,-0.0087 0.093,-0.0029 0.093,0.0029 0.092,0.0087 0.091,0.01449 0.091,0.02022 0.089,0.02585 0.087,0.03139 0.085,0.0368 0.083,0.04207 0.079,0.04717 0.077,0.05207 0.073,0.0568 0.07,0.06128 0.065,0.06552 0.061,0.06952 0.057,0.07321 0.052,0.07663 0.047,0.07976 0.043,0.08256 0.036,0.08506 0.032,0.0872 0.026,0.089 0.02,0.0904 0.014,0.0915 0.009,0.0923 0.003,0.0926 -0.003,0.0926 -0.009,0.0922 -0.014,0.0916 -0.02,0.0904 -0.026,0.089 -0.032,0.0871 -0.036,0.0851 -0.043,0.0826 -0.047,0.0797 -0.052,0.0767 -0.057,0.0732 -0.061,0.0695 -0.065,0.0655 -0.07,0.0613 -0.073,0.0568 -0.077,0.0521 -0.079,0.0471 -0.083,0.0421 -0.085,0.0368 -0.087,0.0314 -0.089,0.0258 -0.091,0.0202 -0.091,0.0145 -0.092,0.0088 -0.093,0.0029 z m -182.429,0 -0.092,-0.0088 -0.092,-0.0145 -0.09,-0.0202 -0.089,-0.0258 -0.087,-0.0314 -0.086,-0.0368 -0.082,-0.0421 -0.08,-0.0471 -0.076,-0.0521 -0.074,-0.0568 -0.069,-0.0613 -0.066,-0.0655 -0.061,-0.0695 -0.057,-0.0732 -0.052,-0.0767 -0.047,-0.0798 -0.042,-0.0825 -0.037,-0.0851 -0.031,-0.0871 -0.026,-0.089 -0.02,-0.0904 -0.015,-0.0916 -0.009,-0.0922 -0.002,-0.0926 0.002,-0.0926 0.009,-0.0923 0.015,-0.0915 0.02,-0.0904 0.026,-0.089 0.031,-0.0872 0.037,-0.08506 0.042,-0.08256 0.047,-0.07976 0.052,-0.07663 0.057,-0.07321 0.061,-0.06952 0.066,-0.06552 0.069,-0.06128 0.074,-0.0568 0.076,-0.05207 0.08,-0.04717 0.082,-0.04207 0.086,-0.0368 0.087,-0.03139 0.089,-0.02585 0.09,-0.02022 0.092,-0.01449 0.092,-0.0087 0.093,-0.0029 0.092,0.0029 0.092,0.0087 0.092,0.01449 0.09,0.02022 0.089,0.02585 0.088,0.03139 0.085,0.0368 0.082,0.04207 0.08,0.04717 0.076,0.05207 0.074,0.0568 0.069,0.06128 0.066,0.06552 0.061,0.06952 0.057,0.07321 0.052,0.07663 0.047,0.07976 0.042,0.08256 0.037,0.08506 0.031,0.0872 0.026,0.089 0.02,0.0904 0.015,0.0915 0.009,0.0923 0.003,0.0926 -0.003,0.0926 -0.009,0.0922 -0.015,0.0916 -0.02,0.0904 -0.026,0.089 -0.031,0.0871 -0.037,0.0851 -0.042,0.0825 -0.047,0.0798 -0.052,0.0767 -0.057,0.0732 -0.061,0.0695 -0.066,0.0655 -0.069,0.0613 -0.074,0.0568 -0.076,0.0521 -0.08,0.0471 -0.082,0.0421 -0.085,0.0368 -0.088,0.0314 -0.089,0.0258 -0.09,0.0202 -0.092,0.0145 -0.092,0.0088 -0.092,0.0029 z m 87.119,0 -0.092,-0.0088 -0.092,-0.0145 -0.09,-0.0202 -0.089,-0.0258 -0.088,-0.0314 -0.085,-0.0368 -0.082,-0.0421 -0.08,-0.0471 -0.077,-0.0521 -0.073,-0.0568 -0.069,-0.0613 -0.066,-0.0655 -0.061,-0.0695 -0.057,-0.0732 -0.052,-0.0767 -0.047,-0.0798 -0.042,-0.0825 -0.037,-0.0851 -0.031,-0.0871 -0.026,-0.089 -0.02,-0.0904 -0.015,-0.0916 -0.009,-0.0922 -0.003,-0.0926 0.003,-0.0926 0.009,-0.0923 0.015,-0.0915 0.02,-0.0904 0.026,-0.089 0.031,-0.0872 0.037,-0.08506 0.042,-0.08256 0.047,-0.07976 0.052,-0.07663 0.057,-0.07321 0.061,-0.06952 0.066,-0.06552 0.069,-0.06128 0.073,-0.0568 0.077,-0.05207 0.08,-0.04717 0.082,-0.04207 0.085,-0.0368 0.088,-0.03139 0.089,-0.02585 0.09,-0.02022 0.092,-0.01449 0.092,-0.0087 0.092,-0.0029 0.093,0.0029 0.092,0.0087 0.092,0.01449 0.09,0.02022 0.089,0.02585 0.087,0.03139 0.085,0.0368 0.083,0.04207 0.08,0.04717 0.076,0.05207 0.074,0.0568 0.069,0.06128 0.066,0.06552 0.061,0.06952 0.057,0.07321 0.052,0.07663 0.047,0.07976 0.042,0.08256 0.037,0.08506 0.031,0.0872 0.026,0.089 0.02,0.0904 0.015,0.0915 0.009,0.0923 0.002,0.0926 -0.002,0.0926 -0.009,0.0922 -0.015,0.0916 -0.02,0.0904 -0.026,0.089 -0.031,0.0871 -0.037,0.0851 -0.042,0.0825 -0.047,0.0798 -0.052,0.0767 -0.057,0.0732 -0.061,0.0695 -0.066,0.0655 -0.069,0.0613 -0.074,0.0568 -0.076,0.0521 -0.08,0.0471 -0.083,0.0421 -0.085,0.0368 -0.087,0.0314 -0.089,0.0258 -0.09,0.0202 -0.092,0.0145 -0.092,0.0088 -0.093,0.0029 z"
     id="path867"
     style="fill:none;stroke:#000000;stroke-width:0.05;stroke-miterlimit:4;stroke-dasharray:none;marker-start:url(#Arrow2Lstart)"
     inkscape:connector-curvature="0" />
  <rect
     style="fill:none;fill-opacity:0;stroke:#000020;stroke-width:0.05;stroke-miterlimit:4;stroke-dasharray:none;stroke-opacity:1"
     id="rect1255"
     width="25.4"
     height="25.4"
     x="-0.3095924"
     y="-115.96356" />
</svg>
