<?xml version="1.0" encoding="UTF-8" standalone="no"?>
<svg
   xmlns:dc="http://purl.org/dc/elements/1.1/"
   xmlns:cc="http://creativecommons.org/ns#"
   xmlns:rdf="http://www.w3.org/1999/02/22-rdf-syntax-ns#"
   xmlns:svg="http://www.w3.org/2000/svg"
   xmlns="http://www.w3.org/2000/svg"
   xmlns:sodipodi="http://sodipodi.sourceforge.net/DTD/sodipodi-0.dtd"
   xmlns:inkscape="http://www.inkscape.org/namespaces/inkscape"
   height="149.24057mm"
   version="1.1"
   viewBox="-7 -123 321.29581 149.24057"
   width="321.29581mm"
   id="svg6"
   sodipodi:docname="plate.svg"
   inkscape:version="0.92.3 (2405546, 2018-03-11)">
  <metadata
     id="metadata12">
    <rdf:RDF>
      <cc:Work
         rdf:about="">
        <dc:format>image/svg+xml</dc:format>
        <dc:type
           rdf:resource="http://purl.org/dc/dcmitype/StillImage" />
        <dc:title>OpenSCAD Model</dc:title>
      </cc:Work>
    </rdf:RDF>
  </metadata>
  <defs
     id="defs10" />
  <sodipodi:namedview
     pagecolor="#ffffff"
     bordercolor="#666666"
     borderopacity="1"
     objecttolerance="10"
     gridtolerance="10"
     guidetolerance="10"
     inkscape:pageopacity="0"
     inkscape:pageshadow="2"
     inkscape:window-width="1920"
     inkscape:window-height="1017"
     id="namedview8"
     showgrid="false"
     fit-margin-top="0"
     fit-margin-left="0"
     fit-margin-right="0"
     fit-margin-bottom="0"
     inkscape:zoom="1.1832298"
     inkscape:cx="607.17279"
     inkscape:cy="259.29149"
     inkscape:window-x="-8"
     inkscape:window-y="-8"
     inkscape:window-maximized="1"
     inkscape:current-layer="svg6"
     inkscape:document-units="mm" />
  <title
     id="title2">OpenSCAD Model</title>
  <path
     d="m 292.6438,26.228568 0.125,-0.0059 0.125,-0.0099 0.125,-0.0138 0.125,-0.0177 0.123,-0.0216 0.124,-0.0255 0.122,-0.0293 0.121,-0.0332 0.12,-0.0369 0.119,-0.0407 0.117,-0.0444 0.117,-0.0481 0.114,-0.0517 0.113,-0.0553 0.111,-0.0588 0.109,-0.0623 0.107,-0.0656 0.105,-0.069 0.103,-0.0723 0.101,-0.0754 0.098,-0.0786 0.095,-0.0816 0.093,-0.0846 0.09,-0.0874 0.088,-0.0902 0.084,-0.093 0.082,-0.0955 0.079,-0.0981 0.075,-0.1005 0.072,-0.1028 0.069,-0.105 0.066,-0.1072 0.062,-0.1091 0.059,-0.1111 0.055,-0.1128 0.052,-0.1145 0.048,-0.1161 0.044,-0.1176 0.041,-0.1189 0.037,-0.1201 0.033,-0.1212 0.03,-0.1222 0.025,-0.123 17.79,-100.8904 0.017,-0.1244 0.014,-0.1249 0.01,-0.1252 0.006,-0.1256 0.002,-0.1256 -0.002,-0.1256 -0.006,-0.1256 -0.01,-0.1252 -0.014,-0.1249 -0.017,-0.1244 -0.022,-0.1238 -0.026,-0.1231 -0.029,-0.1222 -0.033,-0.1212 -0.037,-0.1201 -0.041,-0.1188 -0.044,-0.1176 -0.048,-0.1161 -0.052,-0.1145 -0.055,-0.1129 -0.059,-0.111 -0.062,-0.1092 -0.066,-0.1071 -0.069,-0.105 -0.072,-0.1028 -0.076,-0.1005 -0.078,-0.0981 -0.082,-0.0955 -0.084,-0.093 -0.088,-0.0902 -0.09,-0.0875 -0.093,-0.0845 -0.095,-0.0817 -0.099,-0.0785 -0.1,-0.0755 -0.103,-0.0722 -0.105,-0.069 -0.107,-0.0657 -0.109,-0.0622 -0.111,-0.0588 -0.113,-0.0553 -0.115,-0.0517 -0.116,-0.0481 -0.117,-0.0444 -0.119,-0.0407 -0.12,-0.037 -0.121,-0.0331 -0.123,-0.0294 -0.123,-0.0254 -156.637,-28.727498 -0.124,-0.022 -0.125,-0.018 -0.125,-0.014 -0.125,-0.009 -0.125,-0.006 -0.126,-0.002 -0.126,0.002 -0.125,0.006 -0.125,0.009 -0.125,0.014 -0.125,0.018 -0.124,0.022 -156.6373288,28.727498 -0.12305,0.0254 -0.12219,0.0294 -0.1212,0.0331 -0.1201,0.037 -0.11888,0.0407 -0.11756,0.0444 -0.11608,0.0481 -0.11454,0.0517 -0.11284,0.0553 -0.11105,0.0588 -0.10915,0.0622 -0.10714,0.0657 -0.10503,0.069 -0.10281,0.0722 -0.10048,0.0755 -0.09807,0.0785 -0.09555,0.0817 -0.09294,0.0845 -0.09024,0.0875 -0.08745,0.0902 -0.08456,0.093 -0.08162,0.0955 -0.07857,0.0981 -0.07544,0.1005 -0.07225,0.1028 -0.069,0.105 -0.06566,0.1071 -0.06226,0.1092 -0.05879,0.111 -0.05528,0.1129 -0.05171,0.1145 -0.0481,0.1161 -0.0444,0.1176 -0.04071,0.1188 -0.03694,0.1201 -0.03316,0.1212 -0.02934,0.1222 -0.02549,0.1231 -0.0216,0.1238 -0.0177,0.1244 -0.0138,0.1249 -0.00985,0.1252 -0.00592,0.1256 -0.00197,0.1256 0.00197,0.1256 0.00592,0.1256 0.00985,0.1252 0.0138,0.1249 0.0177,0.1244 17.7894598,100.8904 0.0255,0.123 0.0293,0.1222 0.0332,0.1212 0.0369,0.1201 0.0407,0.1189 0.0444,0.1176 0.0481,0.1161 0.0517,0.1145 0.0553,0.1128 0.0588,0.1111 0.0623,0.1091 0.0656,0.1072 0.069,0.105 0.0723,0.1028 0.0754,0.1005 0.0786,0.0981 0.0816,0.0955 0.0846,0.093 0.0874,0.0902 0.0903,0.0874 0.0929,0.0846 0.0956,0.0816 0.098,0.0786 0.1005,0.0754 0.1028,0.0723 0.105,0.069 0.1072,0.0656 0.1091,0.0623 0.1111,0.0588 0.1128,0.0553 0.1146,0.0517 0.116,0.0481 0.1176,0.0444 0.1189,0.0407 0.1201,0.0369 0.1212,0.0332 0.1222,0.0293 0.123,0.0255 0.1238,0.0216 0.1244,0.0177 0.1249,0.0138 0.1253,0.0099 0.1255,0.0059 0.1257,0.002 H 292.5178 Z m -139.067,-132.371198 -0.07,-0.007 -0.069,-0.011 -0.069,-0.016 -0.068,-0.019 -0.066,-0.024 -0.065,-0.028 -0.063,-0.032 -0.061,-0.036 -0.058,-0.04 -0.056,-0.043 -0.053,-0.047 -0.05,-0.05 -0.046,-0.052 -0.044,-0.056 -0.039,-0.059 -0.036,-0.06 -0.032,-0.063 -0.028,-0.065 -0.024,-0.066 -0.02,-0.068 -0.015,-0.069 -0.011,-0.07 -0.007,-0.07 -0.002,-0.07 0.002,-0.071 0.007,-0.07 0.011,-0.07 0.015,-0.069 0.02,-0.067 0.024,-0.067 0.028,-0.064 0.032,-0.063 0.036,-0.061 0.039,-0.058 0.044,-0.056 0.046,-0.053 0.05,-0.05 0.053,-0.047 0.056,-0.043 0.058,-0.039 0.061,-0.036 0.063,-0.032 0.065,-0.028 0.066,-0.024 0.068,-0.02 0.069,-0.015 0.069,-0.011 0.07,-0.007 0.071,-0.002 0.071,0.002 0.07,0.007 0.069,0.011 0.069,0.015 0.068,0.02 0.066,0.024 0.065,0.028 0.063,0.032 0.061,0.036 0.058,0.039 0.056,0.043 0.053,0.047 0.05,0.05 0.046,0.053 0.044,0.056 0.039,0.058 0.036,0.061 0.032,0.063 0.028,0.064 0.024,0.067 0.02,0.067 0.015,0.069 0.011,0.07 0.007,0.07 0.002,0.071 -0.002,0.07 -0.007,0.07 -0.011,0.07 -0.015,0.069 -0.02,0.068 -0.024,0.066 -0.028,0.065 -0.032,0.063 -0.036,0.06 -0.039,0.059 -0.044,0.056 -0.046,0.052 -0.05,0.05 -0.053,0.047 -0.056,0.043 -0.058,0.04 -0.061,0.036 -0.063,0.032 -0.065,0.028 -0.066,0.024 -0.068,0.019 -0.069,0.016 -0.069,0.011 -0.07,0.007 -0.071,0.002 z m -78.318399,14.362998 -0.0703,-0.006 -0.0696,-0.011 -0.0689,-0.016 -0.0677,-0.019 -0.0664,-0.024 -0.0648,-0.028 -0.0628,-0.032 -0.0608,-0.036 -0.0583,-0.04 -0.0557,-0.043 -0.053,-0.047 -0.0498,-0.05 -0.0467,-0.052 -0.0432,-0.056 -0.0397,-0.059 -0.0359,-0.06 -0.032,-0.063 -0.0281,-0.065 -0.0238,-0.066 -0.0197,-0.068 -0.0154,-0.069 -0.0111,-0.07 -0.0066,-0.07 -0.0022,-0.07 0.0022,-0.071 0.0066,-0.07 0.0111,-0.07 0.0154,-0.069 0.0197,-0.067 0.0238,-0.067 0.0281,-0.064 0.032,-0.063 0.0359,-0.061 0.0397,-0.058 0.0432,-0.056 0.0467,-0.053 0.0498,-0.05 0.053,-0.047 0.0557,-0.043 0.0583,-0.04 0.0608,-0.035 0.0628,-0.032 0.0648,-0.028 0.0664,-0.024 0.0677,-0.02 0.0689,-0.015 0.0696,-0.011 0.0703,-0.007 0.0705,-0.002 0.0705,0.002 0.0702,0.007 0.0697,0.011 0.0689,0.015 0.0677,0.02 0.0664,0.024 0.0647,0.028 0.0629,0.032 0.0607,0.035 0.0584,0.04 0.0557,0.043 0.0529,0.047 0.0499,0.05 0.0467,0.053 0.0432,0.056 0.0397,0.058 0.0359,0.061 0.032,0.063 0.028,0.064 0.0239,0.067 0.0197,0.067 0.0154,0.069 0.011,0.07 0.0067,0.07 0.0022,0.071 -0.0022,0.07 -0.0067,0.07 -0.011,0.07 -0.0154,0.069 -0.0197,0.068 -0.0239,0.066 -0.028,0.065 -0.032,0.063 -0.0359,0.06 -0.0397,0.059 -0.0432,0.056 -0.0467,0.052 -0.0499,0.05 -0.0529,0.047 -0.0557,0.043 -0.0584,0.04 -0.0607,0.036 -0.0629,0.032 -0.0647,0.028 -0.0664,0.024 -0.0677,0.019 -0.0689,0.016 -0.0697,0.011 -0.0702,0.006 -0.0705,0.003 z m 156.637399,0 -0.07,-0.006 -0.07,-0.011 -0.068,-0.016 -0.068,-0.019 -0.067,-0.024 -0.064,-0.028 -0.063,-0.032 -0.061,-0.036 -0.058,-0.04 -0.056,-0.043 -0.053,-0.047 -0.05,-0.05 -0.046,-0.052 -0.044,-0.056 -0.039,-0.059 -0.036,-0.06 -0.032,-0.063 -0.028,-0.065 -0.024,-0.066 -0.02,-0.068 -0.015,-0.069 -0.011,-0.07 -0.007,-0.07 -0.002,-0.07 0.002,-0.071 0.007,-0.07 0.011,-0.07 0.015,-0.069 0.02,-0.067 0.024,-0.067 0.028,-0.064 0.032,-0.063 0.036,-0.061 0.039,-0.058 0.044,-0.056 0.046,-0.053 0.05,-0.05 0.053,-0.047 0.056,-0.043 0.058,-0.04 0.061,-0.035 0.063,-0.032 0.064,-0.028 0.067,-0.024 0.068,-0.02 0.068,-0.015 0.07,-0.011 0.07,-0.007 0.071,-0.002 0.07,0.002 0.071,0.007 0.069,0.011 0.069,0.015 0.068,0.02 0.066,0.024 0.065,0.028 0.063,0.032 0.061,0.035 0.058,0.04 0.056,0.043 0.053,0.047 0.05,0.05 0.046,0.053 0.043,0.056 0.04,0.058 0.036,0.061 0.032,0.063 0.028,0.064 0.024,0.067 0.02,0.067 0.015,0.069 0.011,0.07 0.007,0.07 0.002,0.071 -0.002,0.07 -0.007,0.07 -0.011,0.07 -0.015,0.069 -0.02,0.068 -0.024,0.066 -0.028,0.065 -0.032,0.063 -0.036,0.06 -0.04,0.059 -0.043,0.056 -0.046,0.052 -0.05,0.05 -0.053,0.047 -0.056,0.043 -0.058,0.04 -0.061,0.036 -0.063,0.032 -0.065,0.028 -0.066,0.024 -0.068,0.019 -0.069,0.016 -0.069,0.011 -0.071,0.006 -0.07,0.003 z m -234.9563088,14.3644 -0.07024,-0.0067 -0.06969,-0.011 -0.06884,-0.0154 -0.06775,-0.0197 -0.06638,-0.0239 -0.06474,-0.028 -0.06287,-0.032 -0.06071,-0.0359 -0.05835,-0.0397 -0.05576,-0.0432 -0.05292,-0.0467 -0.04988,-0.0499 -0.04666,-0.0529 -0.04323,-0.0557 -0.03965,-0.0584 -0.03592,-0.0607 -0.03203,-0.0628 -0.02802,-0.0648 -0.02389,-0.0664 -0.01968,-0.0677 -0.0154,-0.0689 -0.01103,-0.0696 -0.00664,-0.0703 -0.00221,-0.0705 0.00221,-0.0705 0.00664,-0.0702 0.01103,-0.0697 0.0154,-0.0689 0.01968,-0.0677 0.02389,-0.0664 0.02802,-0.0647 0.03203,-0.0629 0.03592,-0.0607 0.03965,-0.0584 0.04323,-0.0557 0.04666,-0.0529 0.04988,-0.0499 0.05292,-0.0467 0.05576,-0.0432 0.05835,-0.0397 0.06071,-0.0359 0.06287,-0.032 0.06474,-0.028 0.06638,-0.0239 0.06775,-0.0197 0.06884,-0.0154 0.06969,-0.011 0.07024,-0.0067 0.07051,-0.0022 0.07051,0.0022 0.07023,0.0067 0.06968,0.011 0.06886,0.0154 0.06773,0.0197 0.06639,0.0239 0.06475,0.028 0.06285,0.032 0.06073,0.0359 0.05835,0.0397 0.05574,0.0432 0.05292,0.0467 0.04989,0.0499 0.04665,0.0529 0.04324,0.0557 0.03966,0.0584 0.0359,0.0607 0.03203,0.0629 0.02802,0.0647 0.02391,0.0664 0.01968,0.0677 0.01538,0.0689 0.01103,0.0697 0.00664,0.0702 0.00223,0.0705 -0.00223,0.0705 -0.00664,0.0703 -0.01103,0.0696 -0.01538,0.0689 -0.01968,0.0677 -0.02391,0.0664 -0.02802,0.0648 -0.03203,0.0628 -0.0359,0.0607 -0.03966,0.0584 -0.04324,0.0557 -0.04665,0.0529 -0.04989,0.0499 -0.05292,0.0467 -0.05574,0.0432 -0.05835,0.0397 -0.06073,0.0359 -0.06285,0.032 -0.06475,0.028 -0.06639,0.0239 -0.06773,0.0197 -0.06886,0.0154 -0.06968,0.011 -0.07023,0.0067 -0.07051,0.0022 z m 313.2753088,0 -0.07,-0.0067 -0.07,-0.011 -0.068,-0.0154 -0.068,-0.0197 -0.067,-0.0239 -0.064,-0.028 -0.063,-0.032 -0.061,-0.0359 -0.058,-0.0397 -0.056,-0.0432 -0.053,-0.0467 -0.05,-0.0499 -0.046,-0.0529 -0.044,-0.0557 -0.039,-0.0584 -0.036,-0.0607 -0.032,-0.0628 -0.028,-0.0648 -0.024,-0.0664 -0.02,-0.0677 -0.015,-0.0689 -0.011,-0.0696 -0.007,-0.0703 -0.002,-0.0705 0.002,-0.0705 0.007,-0.0702 0.011,-0.0697 0.015,-0.0689 0.02,-0.0677 0.024,-0.0664 0.028,-0.0647 0.032,-0.0629 0.036,-0.0607 0.039,-0.0584 0.044,-0.0557 0.046,-0.0529 0.05,-0.0499 0.053,-0.0467 0.056,-0.0432 0.058,-0.0397 0.061,-0.0359 0.063,-0.032 0.064,-0.028 0.067,-0.0239 0.068,-0.0197 0.068,-0.0154 0.07,-0.011 0.07,-0.0067 0.071,-0.0022 0.07,0.0022 0.071,0.0067 0.069,0.011 0.069,0.0154 0.068,0.0197 0.066,0.0239 0.065,0.028 0.063,0.032 0.061,0.0359 0.058,0.0397 0.056,0.0432 0.053,0.0467 0.049,0.0499 0.047,0.0529 0.043,0.0557 0.04,0.0584 0.036,0.0607 0.032,0.0629 0.028,0.0647 0.024,0.0664 0.02,0.0677 0.015,0.0689 0.011,0.0697 0.007,0.0702 0.002,0.0705 -0.002,0.0705 -0.007,0.0703 -0.011,0.0696 -0.015,0.0689 -0.02,0.0677 -0.024,0.0664 -0.028,0.0648 -0.032,0.0628 -0.036,0.0607 -0.04,0.0584 -0.043,0.0557 -0.047,0.0529 -0.049,0.0499 -0.053,0.0467 -0.056,0.0432 -0.058,0.0397 -0.061,0.0359 -0.063,0.032 -0.065,0.028 -0.066,0.0239 -0.068,0.0197 -0.069,0.0154 -0.069,0.011 -0.071,0.0067 -0.07,0.0022 z m -295.507499,100.7666 -0.0702,-0.0067 -0.0697,-0.011 -0.0688,-0.0154 -0.0678,-0.0197 -0.0664,-0.0239 -0.0647,-0.028 -0.0629,-0.032 -0.0607,-0.036 -0.0583,-0.0396 -0.0558,-0.0432 -0.0529,-0.0467 -0.0499,-0.0499 -0.0466,-0.0529 -0.0433,-0.0557 -0.0396,-0.0584 -0.0359,-0.0607 -0.0321,-0.0629 -0.028,-0.0647 -0.0239,-0.0664 -0.0197,-0.0678 -0.0154,-0.0688 -0.011,-0.0697 -0.0066,-0.0702 -0.0023,-0.0705 0.0023,-0.0705 0.0066,-0.0703 0.011,-0.0697 0.0154,-0.0688 0.0197,-0.0678 0.0239,-0.0663 0.028,-0.0648 0.0321,-0.0628 0.0359,-0.06077 0.0396,-0.05835 0.0433,-0.05574 0.0466,-0.05292 0.0499,-0.04988 0.0529,-0.04666 0.0558,-0.04324 0.0583,-0.03964 0.0607,-0.03592 0.0629,-0.03203 0.0647,-0.02802 0.0664,-0.02389 0.0678,-0.01969 0.0688,-0.01539 0.0697,-0.01103 0.0702,-0.0066 0.0706,-0.0022 0.0705,0.0022 0.0702,0.0066 0.0697,0.01103 0.0688,0.01539 0.0678,0.01969 0.0663,0.02389 0.0648,0.02802 0.0629,0.03203 0.0607,0.03592 0.0583,0.03964 0.0558,0.04324 0.0529,0.04666 0.0499,0.04988 0.0466,0.05292 0.0433,0.05574 0.0396,0.05835 0.0359,0.06077 0.0321,0.0628 0.028,0.0648 0.0239,0.0663 0.0197,0.0678 0.0154,0.0688 0.011,0.0697 0.0066,0.0703 0.0023,0.0705 -0.0023,0.0705 -0.0066,0.0702 -0.011,0.0697 -0.0154,0.0688 -0.0197,0.0678 -0.0239,0.0664 -0.028,0.0647 -0.0321,0.0629 -0.0359,0.0607 -0.0396,0.0584 -0.0433,0.0557 -0.0466,0.0529 -0.0499,0.0499 -0.0529,0.0467 -0.0558,0.0432 -0.0583,0.0396 -0.0607,0.036 -0.0629,0.032 -0.0648,0.028 -0.0663,0.0239 -0.0678,0.0197 -0.0688,0.0154 -0.0697,0.011 -0.0702,0.0067 -0.0705,0.0022 z m 277.739499,0 -0.07,-0.0067 -0.069,-0.011 -0.069,-0.0154 -0.068,-0.0197 -0.066,-0.0239 -0.065,-0.028 -0.063,-0.032 -0.061,-0.036 -0.058,-0.0396 -0.056,-0.0432 -0.053,-0.0467 -0.05,-0.0499 -0.046,-0.0529 -0.044,-0.0557 -0.039,-0.0584 -0.036,-0.0607 -0.032,-0.0629 -0.028,-0.0647 -0.024,-0.0664 -0.02,-0.0678 -0.015,-0.0688 -0.011,-0.0697 -0.007,-0.0702 -0.002,-0.0705 0.002,-0.0705 0.007,-0.0703 0.011,-0.0697 0.015,-0.0688 0.02,-0.0678 0.024,-0.0663 0.028,-0.0648 0.032,-0.0628 0.036,-0.06077 0.039,-0.05835 0.044,-0.05574 0.046,-0.05292 0.05,-0.04988 0.053,-0.04666 0.056,-0.04324 0.058,-0.03964 0.061,-0.03592 0.063,-0.03203 0.065,-0.02802 0.066,-0.02389 0.068,-0.01969 0.069,-0.01539 0.069,-0.01103 0.07,-0.0066 0.071,-0.0022 0.07,0.0022 0.071,0.0066 0.069,0.01103 0.069,0.01539 0.068,0.01969 0.066,0.02389 0.065,0.02802 0.063,0.03203 0.061,0.03592 0.058,0.03964 0.056,0.04324 0.053,0.04666 0.05,0.04988 0.046,0.05292 0.043,0.05574 0.04,0.05835 0.036,0.06077 0.032,0.0628 0.028,0.0648 0.024,0.0663 0.02,0.0678 0.015,0.0688 0.011,0.0697 0.007,0.0703 0.002,0.0705 -0.002,0.0705 -0.007,0.0702 -0.011,0.0697 -0.015,0.0688 -0.02,0.0678 -0.024,0.0664 -0.028,0.0647 -0.032,0.0629 -0.036,0.0607 -0.04,0.0584 -0.043,0.0557 -0.046,0.0529 -0.05,0.0499 -0.053,0.0467 -0.056,0.0432 -0.058,0.0396 -0.061,0.036 -0.063,0.032 -0.065,0.028 -0.066,0.0239 -0.068,0.0197 -0.069,0.0154 -0.069,0.011 -0.071,0.0067 -0.07,0.0022 z m -182.429,0 -0.07,-0.0067 -0.07,-0.011 -0.069,-0.0154 -0.068,-0.0197 -0.066,-0.0239 -0.065,-0.028 -0.062,-0.032 -0.061,-0.036 -0.059,-0.0396 -0.055,-0.0432 -0.053,-0.0467 -0.05,-0.0499 -0.047,-0.0529 -0.043,-0.0557 -0.04,-0.0584 -0.036,-0.0607 -0.032,-0.0629 -0.028,-0.0647 -0.024,-0.0664 -0.019,-0.0678 -0.016,-0.0688 -0.011,-0.0697 -0.006,-0.0702 -0.002,-0.0705 0.002,-0.0705 0.006,-0.0703 0.011,-0.0697 0.016,-0.0688 0.019,-0.0678 0.024,-0.0663 0.028,-0.0648 0.032,-0.0628 0.036,-0.06077 0.04,-0.05835 0.043,-0.05574 0.047,-0.05292 0.05,-0.04988 0.053,-0.04666 0.055,-0.04324 0.059,-0.03964 0.061,-0.03592 0.062,-0.03203 0.065,-0.02802 0.066,-0.02389 0.068,-0.01969 0.069,-0.01539 0.07,-0.01103 0.07,-0.0066 0.071,-0.0022 0.07,0.0022 0.07,0.0066 0.07,0.01103 0.069,0.01539 0.068,0.01969 0.066,0.02389 0.065,0.02802 0.063,0.03203 0.06,0.03592 0.059,0.03964 0.055,0.04324 0.053,0.04666 0.05,0.04988 0.047,0.05292 0.043,0.05574 0.04,0.05835 0.036,0.06077 0.032,0.0628 0.028,0.0648 0.024,0.0663 0.019,0.0678 0.016,0.0688 0.011,0.0697 0.006,0.0703 0.003,0.0705 -0.003,0.0705 -0.006,0.0702 -0.011,0.0697 -0.016,0.0688 -0.019,0.0678 -0.024,0.0664 -0.028,0.0647 -0.032,0.0629 -0.036,0.0607 -0.04,0.0584 -0.043,0.0557 -0.047,0.0529 -0.05,0.0499 -0.053,0.0467 -0.055,0.0432 -0.059,0.0396 -0.06,0.036 -0.063,0.032 -0.065,0.028 -0.066,0.0239 -0.068,0.0197 -0.069,0.0154 -0.07,0.011 -0.07,0.0067 -0.07,0.0022 z m 87.119,0 -0.07,-0.0067 -0.07,-0.011 -0.069,-0.0154 -0.068,-0.0197 -0.066,-0.0239 -0.065,-0.028 -0.063,-0.032 -0.06,-0.036 -0.059,-0.0396 -0.055,-0.0432 -0.053,-0.0467 -0.05,-0.0499 -0.047,-0.0529 -0.043,-0.0557 -0.04,-0.0584 -0.036,-0.0607 -0.032,-0.0629 -0.028,-0.0647 -0.024,-0.0664 -0.019,-0.0678 -0.016,-0.0688 -0.011,-0.0697 -0.006,-0.0702 -0.003,-0.0705 0.003,-0.0705 0.006,-0.0703 0.011,-0.0697 0.016,-0.0688 0.019,-0.0678 0.024,-0.0663 0.028,-0.0648 0.032,-0.0628 0.036,-0.06077 0.04,-0.05835 0.043,-0.05574 0.047,-0.05292 0.05,-0.04988 0.053,-0.04666 0.055,-0.04324 0.059,-0.03964 0.06,-0.03592 0.063,-0.03203 0.065,-0.02802 0.066,-0.02389 0.068,-0.01969 0.069,-0.01539 0.07,-0.01103 0.07,-0.0066 0.07,-0.0022 0.071,0.0022 0.07,0.0066 0.07,0.01103 0.069,0.01539 0.067,0.01969 0.067,0.02389 0.065,0.02802 0.062,0.03203 0.061,0.03592 0.059,0.03964 0.055,0.04324 0.053,0.04666 0.05,0.04988 0.047,0.05292 0.043,0.05574 0.04,0.05835 0.036,0.06077 0.032,0.0628 0.028,0.0648 0.024,0.0663 0.019,0.0678 0.016,0.0688 0.011,0.0697 0.006,0.0703 0.002,0.0705 -0.002,0.0705 -0.006,0.0702 -0.011,0.0697 -0.016,0.0688 -0.019,0.0678 -0.024,0.0664 -0.028,0.0647 -0.032,0.0629 -0.036,0.0607 -0.04,0.0584 -0.043,0.0557 -0.047,0.0529 -0.05,0.0499 -0.053,0.0467 -0.055,0.0432 -0.059,0.0396 -0.061,0.036 -0.062,0.032 -0.065,0.028 -0.067,0.0239 -0.067,0.0197 -0.069,0.0154 -0.07,0.011 -0.07,0.0067 -0.071,0.0022 z"
     id="path4"
     style="fill:none;stroke:#000000;stroke-width:0.02;stroke-miterlimit:4;stroke-dasharray:none"
     inkscape:connector-curvature="0" />
  <rect
     style="fill:none;stroke-width:0.99999994;stroke-miterlimit:4;stroke-dasharray:none"
     id="rect4524"
     width="34.181816"
     height="18.363636"
     x="10.465981"
     y="-123" />
  <rect
     style="fill:none;fill-opacity:1;stroke:#000000;stroke-width:0.02;stroke-miterlimit:4;stroke-dasharray:none;stroke-opacity:1"
     id="rect4526"
     width="25.4"
     height="25.4"
     x="-2.4431081"
     y="-116.76363" />
</svg>
