  0
SECTION
  2
BLOCKS
  0
ENDSEC
  0
SECTION
  2
ENTITIES
  0
LINE
  8
0
 10
292.996
 20
-14.5922
 11
293.121
 21
-14.5863
  0
LINE
  8
0
 10
293.121
 20
-14.5863
 11
293.246
 21
-14.5764
  0
LINE
  8
0
 10
293.246
 20
-14.5764
 11
293.371
 21
-14.5626
  0
LINE
  8
0
 10
293.371
 20
-14.5626
 11
293.496
 21
-14.5449
  0
LINE
  8
0
 10
293.496
 20
-14.5449
 11
293.619
 21
-14.5233
  0
LINE
  8
0
 10
293.619
 20
-14.5233
 11
293.743
 21
-14.4978
  0
LINE
  8
0
 10
293.743
 20
-14.4978
 11
293.865
 21
-14.4685
  0
LINE
  8
0
 10
293.865
 20
-14.4685
 11
293.986
 21
-14.4353
  0
LINE
  8
0
 10
293.986
 20
-14.4353
 11
294.106
 21
-14.3984
  0
LINE
  8
0
 10
294.106
 20
-14.3984
 11
294.225
 21
-14.3577
  0
LINE
  8
0
 10
294.225
 20
-14.3577
 11
294.342
 21
-14.3133
  0
LINE
  8
0
 10
294.342
 20
-14.3133
 11
294.459
 21
-14.2652
  0
LINE
  8
0
 10
294.459
 20
-14.2652
 11
294.573
 21
-14.2135
  0
LINE
  8
0
 10
294.573
 20
-14.2135
 11
294.686
 21
-14.1582
  0
LINE
  8
0
 10
294.686
 20
-14.1582
 11
294.797
 21
-14.0994
  0
LINE
  8
0
 10
294.797
 20
-14.0994
 11
294.906
 21
-14.0371
  0
LINE
  8
0
 10
294.906
 20
-14.0371
 11
295.013
 21
-13.9715
  0
LINE
  8
0
 10
295.013
 20
-13.9715
 11
295.118
 21
-13.9025
  0
LINE
  8
0
 10
295.118
 20
-13.9025
 11
295.221
 21
-13.8302
  0
LINE
  8
0
 10
295.221
 20
-13.8302
 11
295.322
 21
-13.7548
  0
LINE
  8
0
 10
295.322
 20
-13.7548
 11
295.42
 21
-13.6762
  0
LINE
  8
0
 10
295.42
 20
-13.6762
 11
295.515
 21
-13.5946
  0
LINE
  8
0
 10
295.515
 20
-13.5946
 11
295.608
 21
-13.51
  0
LINE
  8
0
 10
295.608
 20
-13.51
 11
295.698
 21
-13.4226
  0
LINE
  8
0
 10
295.698
 20
-13.4226
 11
295.786
 21
-13.3324
  0
LINE
  8
0
 10
295.786
 20
-13.3324
 11
295.87
 21
-13.2394
  0
LINE
  8
0
 10
295.87
 20
-13.2394
 11
295.952
 21
-13.1439
  0
LINE
  8
0
 10
295.952
 20
-13.1439
 11
296.031
 21
-13.0458
  0
LINE
  8
0
 10
296.031
 20
-13.0458
 11
296.106
 21
-12.9453
  0
LINE
  8
0
 10
296.106
 20
-12.9453
 11
296.178
 21
-12.8425
  0
LINE
  8
0
 10
296.178
 20
-12.8425
 11
296.247
 21
-12.7375
  0
LINE
  8
0
 10
296.247
 20
-12.7375
 11
296.313
 21
-12.6303
  0
LINE
  8
0
 10
296.313
 20
-12.6303
 11
296.375
 21
-12.5212
  0
LINE
  8
0
 10
296.375
 20
-12.5212
 11
296.434
 21
-12.4101
  0
LINE
  8
0
 10
296.434
 20
-12.4101
 11
296.489
 21
-12.2973
  0
LINE
  8
0
 10
296.489
 20
-12.2973
 11
296.541
 21
-12.1828
  0
LINE
  8
0
 10
296.541
 20
-12.1828
 11
296.589
 21
-12.0667
  0
LINE
  8
0
 10
296.589
 20
-12.0667
 11
296.633
 21
-11.9491
  0
LINE
  8
0
 10
296.633
 20
-11.9491
 11
296.674
 21
-11.8302
  0
LINE
  8
0
 10
296.674
 20
-11.8302
 11
296.711
 21
-11.7101
  0
LINE
  8
0
 10
296.711
 20
-11.7101
 11
296.744
 21
-11.5889
  0
LINE
  8
0
 10
296.744
 20
-11.5889
 11
296.774
 21
-11.4667
  0
LINE
  8
0
 10
296.774
 20
-11.4667
 11
296.799
 21
-11.3437
  0
LINE
  8
0
 10
296.799
 20
-11.3437
 11
314.589
 21
89.5467
  0
LINE
  8
0
 10
314.589
 20
89.5467
 11
314.606
 21
89.6711
  0
LINE
  8
0
 10
314.606
 20
89.6711
 11
314.62
 21
89.796
  0
LINE
  8
0
 10
314.62
 20
89.796
 11
314.63
 21
89.9212
  0
LINE
  8
0
 10
314.63
 20
89.9212
 11
314.636
 21
90.0468
  0
LINE
  8
0
 10
314.636
 20
90.0468
 11
314.638
 21
90.1724
  0
LINE
  8
0
 10
314.638
 20
90.1724
 11
314.636
 21
90.298
  0
LINE
  8
0
 10
314.636
 20
90.298
 11
314.63
 21
90.4236
  0
LINE
  8
0
 10
314.63
 20
90.4236
 11
314.62
 21
90.5488
  0
LINE
  8
0
 10
314.62
 20
90.5488
 11
314.606
 21
90.6737
  0
LINE
  8
0
 10
314.606
 20
90.6737
 11
314.589
 21
90.7981
  0
LINE
  8
0
 10
314.589
 20
90.7981
 11
314.567
 21
90.9219
  0
LINE
  8
0
 10
314.567
 20
90.9219
 11
314.541
 21
91.045
  0
LINE
  8
0
 10
314.541
 20
91.045
 11
314.512
 21
91.1672
  0
LINE
  8
0
 10
314.512
 20
91.1672
 11
314.479
 21
91.2884
  0
LINE
  8
0
 10
314.479
 20
91.2884
 11
314.442
 21
91.4085
  0
LINE
  8
0
 10
314.442
 20
91.4085
 11
314.401
 21
91.5273
  0
LINE
  8
0
 10
314.401
 20
91.5273
 11
314.357
 21
91.6449
  0
LINE
  8
0
 10
314.357
 20
91.6449
 11
314.309
 21
91.761
  0
LINE
  8
0
 10
314.309
 20
91.761
 11
314.257
 21
91.8755
  0
LINE
  8
0
 10
314.257
 20
91.8755
 11
314.202
 21
91.9884
  0
LINE
  8
0
 10
314.202
 20
91.9884
 11
314.143
 21
92.0994
  0
LINE
  8
0
 10
314.143
 20
92.0994
 11
314.081
 21
92.2086
  0
LINE
  8
0
 10
314.081
 20
92.2086
 11
314.015
 21
92.3157
  0
LINE
  8
0
 10
314.015
 20
92.3157
 11
313.946
 21
92.4207
  0
LINE
  8
0
 10
313.946
 20
92.4207
 11
313.874
 21
92.5235
  0
LINE
  8
0
 10
313.874
 20
92.5235
 11
313.798
 21
92.624
  0
LINE
  8
0
 10
313.798
 20
92.624
 11
313.72
 21
92.7221
  0
LINE
  8
0
 10
313.72
 20
92.7221
 11
313.638
 21
92.8176
  0
LINE
  8
0
 10
313.638
 20
92.8176
 11
313.554
 21
92.9106
  0
LINE
  8
0
 10
313.554
 20
92.9106
 11
313.466
 21
93.0008
  0
LINE
  8
0
 10
313.466
 20
93.0008
 11
313.376
 21
93.0883
  0
LINE
  8
0
 10
313.376
 20
93.0883
 11
313.283
 21
93.1728
  0
LINE
  8
0
 10
313.283
 20
93.1728
 11
313.188
 21
93.2545
  0
LINE
  8
0
 10
313.188
 20
93.2545
 11
313.089
 21
93.333
  0
LINE
  8
0
 10
313.089
 20
93.333
 11
312.989
 21
93.4085
  0
LINE
  8
0
 10
312.989
 20
93.4085
 11
312.886
 21
93.4807
  0
LINE
  8
0
 10
312.886
 20
93.4807
 11
312.781
 21
93.5497
  0
LINE
  8
0
 10
312.781
 20
93.5497
 11
312.674
 21
93.6154
  0
LINE
  8
0
 10
312.674
 20
93.6154
 11
312.565
 21
93.6776
  0
LINE
  8
0
 10
312.565
 20
93.6776
 11
312.454
 21
93.7364
  0
LINE
  8
0
 10
312.454
 20
93.7364
 11
312.341
 21
93.7917
  0
LINE
  8
0
 10
312.341
 20
93.7917
 11
312.226
 21
93.8434
  0
LINE
  8
0
 10
312.226
 20
93.8434
 11
312.11
 21
93.8915
  0
LINE
  8
0
 10
312.11
 20
93.8915
 11
311.993
 21
93.9359
  0
LINE
  8
0
 10
311.993
 20
93.9359
 11
311.874
 21
93.9766
  0
LINE
  8
0
 10
311.874
 20
93.9766
 11
311.754
 21
94.0136
  0
LINE
  8
0
 10
311.754
 20
94.0136
 11
311.633
 21
94.0467
  0
LINE
  8
0
 10
311.633
 20
94.0467
 11
311.51
 21
94.0761
  0
LINE
  8
0
 10
311.51
 20
94.0761
 11
311.387
 21
94.1015
  0
LINE
  8
0
 10
311.387
 20
94.1015
 11
154.75
 21
122.829
  0
LINE
  8
0
 10
154.75
 20
122.829
 11
154.626
 21
122.851
  0
LINE
  8
0
 10
154.626
 20
122.851
 11
154.501
 21
122.869
  0
LINE
  8
0
 10
154.501
 20
122.869
 11
154.376
 21
122.883
  0
LINE
  8
0
 10
154.376
 20
122.883
 11
154.251
 21
122.892
  0
LINE
  8
0
 10
154.251
 20
122.892
 11
154.126
 21
122.898
  0
LINE
  8
0
 10
154.126
 20
122.898
 11
154
 21
122.9
  0
LINE
  8
0
 10
154
 20
122.9
 11
153.874
 21
122.898
  0
LINE
  8
0
 10
153.874
 20
122.898
 11
153.749
 21
122.892
  0
LINE
  8
0
 10
153.749
 20
122.892
 11
153.624
 21
122.883
  0
LINE
  8
0
 10
153.624
 20
122.883
 11
153.499
 21
122.869
  0
LINE
  8
0
 10
153.499
 20
122.869
 11
153.374
 21
122.851
  0
LINE
  8
0
 10
153.374
 20
122.851
 11
153.25
 21
122.829
  0
LINE
  8
0
 10
153.25
 20
122.829
 11
-3.38733
 21
94.1015
  0
LINE
  8
0
 10
-3.38733
 20
94.1015
 11
-3.51038
 21
94.0761
  0
LINE
  8
0
 10
-3.51038
 20
94.0761
 11
-3.63257
 21
94.0467
  0
LINE
  8
0
 10
-3.63257
 20
94.0467
 11
-3.75377
 21
94.0136
  0
LINE
  8
0
 10
-3.75377
 20
94.0136
 11
-3.87387
 21
93.9766
  0
LINE
  8
0
 10
-3.87387
 20
93.9766
 11
-3.99275
 21
93.9359
  0
LINE
  8
0
 10
-3.99275
 20
93.9359
 11
-4.11031
 21
93.8915
  0
LINE
  8
0
 10
-4.11031
 20
93.8915
 11
-4.22639
 21
93.8434
  0
LINE
  8
0
 10
-4.22639
 20
93.8434
 11
-4.34093
 21
93.7917
  0
LINE
  8
0
 10
-4.34093
 20
93.7917
 11
-4.45377
 21
93.7364
  0
LINE
  8
0
 10
-4.45377
 20
93.7364
 11
-4.56482
 21
93.6776
  0
LINE
  8
0
 10
-4.56482
 20
93.6776
 11
-4.67397
 21
93.6154
  0
LINE
  8
0
 10
-4.67397
 20
93.6154
 11
-4.78111
 21
93.5497
  0
LINE
  8
0
 10
-4.78111
 20
93.5497
 11
-4.88614
 21
93.4807
  0
LINE
  8
0
 10
-4.88614
 20
93.4807
 11
-4.98895
 21
93.4085
  0
LINE
  8
0
 10
-4.98895
 20
93.4085
 11
-5.08943
 21
93.333
  0
LINE
  8
0
 10
-5.08943
 20
93.333
 11
-5.1875
 21
93.2545
  0
LINE
  8
0
 10
-5.1875
 20
93.2545
 11
-5.28305
 21
93.1728
  0
LINE
  8
0
 10
-5.28305
 20
93.1728
 11
-5.37599
 21
93.0883
  0
LINE
  8
0
 10
-5.37599
 20
93.0883
 11
-5.46623
 21
93.0008
  0
LINE
  8
0
 10
-5.46623
 20
93.0008
 11
-5.55368
 21
92.9106
  0
LINE
  8
0
 10
-5.55368
 20
92.9106
 11
-5.63824
 21
92.8176
  0
LINE
  8
0
 10
-5.63824
 20
92.8176
 11
-5.71986
 21
92.7221
  0
LINE
  8
0
 10
-5.71986
 20
92.7221
 11
-5.79843
 21
92.624
  0
LINE
  8
0
 10
-5.79843
 20
92.624
 11
-5.87387
 21
92.5235
  0
LINE
  8
0
 10
-5.87387
 20
92.5235
 11
-5.94612
 21
92.4207
  0
LINE
  8
0
 10
-5.94612
 20
92.4207
 11
-6.01512
 21
92.3157
  0
LINE
  8
0
 10
-6.01512
 20
92.3157
 11
-6.08078
 21
92.2086
  0
LINE
  8
0
 10
-6.08078
 20
92.2086
 11
-6.14304
 21
92.0994
  0
LINE
  8
0
 10
-6.14304
 20
92.0994
 11
-6.20183
 21
91.9884
  0
LINE
  8
0
 10
-6.20183
 20
91.9884
 11
-6.25711
 21
91.8755
  0
LINE
  8
0
 10
-6.25711
 20
91.8755
 11
-6.30882
 21
91.761
  0
LINE
  8
0
 10
-6.30882
 20
91.761
 11
-6.35692
 21
91.6449
  0
LINE
  8
0
 10
-6.35692
 20
91.6449
 11
-6.40134
 21
91.5273
  0
LINE
  8
0
 10
-6.40134
 20
91.5273
 11
-6.44203
 21
91.4085
  0
LINE
  8
0
 10
-6.44203
 20
91.4085
 11
-6.47897
 21
91.2884
  0
LINE
  8
0
 10
-6.47897
 20
91.2884
 11
-6.51215
 21
91.1672
  0
LINE
  8
0
 10
-6.51215
 20
91.1672
 11
-6.54147
 21
91.045
  0
LINE
  8
0
 10
-6.54147
 20
91.045
 11
-6.56696
 21
90.9219
  0
LINE
  8
0
 10
-6.56696
 20
90.9219
 11
-6.58856
 21
90.7981
  0
LINE
  8
0
 10
-6.58856
 20
90.7981
 11
-6.60626
 21
90.6737
  0
LINE
  8
0
 10
-6.60626
 20
90.6737
 11
-6.62006
 21
90.5488
  0
LINE
  8
0
 10
-6.62006
 20
90.5488
 11
-6.62991
 21
90.4236
  0
LINE
  8
0
 10
-6.62991
 20
90.4236
 11
-6.63583
 21
90.298
  0
LINE
  8
0
 10
-6.63583
 20
90.298
 11
-6.6378
 21
90.1724
  0
LINE
  8
0
 10
-6.6378
 20
90.1724
 11
-6.63583
 21
90.0468
  0
LINE
  8
0
 10
-6.63583
 20
90.0468
 11
-6.62991
 21
89.9212
  0
LINE
  8
0
 10
-6.62991
 20
89.9212
 11
-6.62006
 21
89.796
  0
LINE
  8
0
 10
-6.62006
 20
89.796
 11
-6.60626
 21
89.6711
  0
LINE
  8
0
 10
-6.60626
 20
89.6711
 11
-6.58856
 21
89.5467
  0
LINE
  8
0
 10
-6.58856
 20
89.5467
 11
11.2009
 21
-11.3437
  0
LINE
  8
0
 10
11.2009
 20
-11.3437
 11
11.2264
 21
-11.4667
  0
LINE
  8
0
 10
11.2264
 20
-11.4667
 11
11.2557
 21
-11.5889
  0
LINE
  8
0
 10
11.2557
 20
-11.5889
 11
11.2889
 21
-11.7101
  0
LINE
  8
0
 10
11.2889
 20
-11.7101
 11
11.3258
 21
-11.8302
  0
LINE
  8
0
 10
11.3258
 20
-11.8302
 11
11.3665
 21
-11.9491
  0
LINE
  8
0
 10
11.3665
 20
-11.9491
 11
11.4109
 21
-12.0667
  0
LINE
  8
0
 10
11.4109
 20
-12.0667
 11
11.459
 21
-12.1828
  0
LINE
  8
0
 10
11.459
 20
-12.1828
 11
11.5107
 21
-12.2973
  0
LINE
  8
0
 10
11.5107
 20
-12.2973
 11
11.566
 21
-12.4101
  0
LINE
  8
0
 10
11.566
 20
-12.4101
 11
11.6248
 21
-12.5212
  0
LINE
  8
0
 10
11.6248
 20
-12.5212
 11
11.6871
 21
-12.6303
  0
LINE
  8
0
 10
11.6871
 20
-12.6303
 11
11.7527
 21
-12.7375
  0
LINE
  8
0
 10
11.7527
 20
-12.7375
 11
11.8217
 21
-12.8425
  0
LINE
  8
0
 10
11.8217
 20
-12.8425
 11
11.894
 21
-12.9453
  0
LINE
  8
0
 10
11.894
 20
-12.9453
 11
11.9694
 21
-13.0458
  0
LINE
  8
0
 10
11.9694
 20
-13.0458
 11
12.048
 21
-13.1439
  0
LINE
  8
0
 10
12.048
 20
-13.1439
 11
12.1296
 21
-13.2394
  0
LINE
  8
0
 10
12.1296
 20
-13.2394
 11
12.2142
 21
-13.3324
  0
LINE
  8
0
 10
12.2142
 20
-13.3324
 11
12.3016
 21
-13.4226
  0
LINE
  8
0
 10
12.3016
 20
-13.4226
 11
12.3919
 21
-13.51
  0
LINE
  8
0
 10
12.3919
 20
-13.51
 11
12.4848
 21
-13.5946
  0
LINE
  8
0
 10
12.4848
 20
-13.5946
 11
12.5804
 21
-13.6762
  0
LINE
  8
0
 10
12.5804
 20
-13.6762
 11
12.6784
 21
-13.7548
  0
LINE
  8
0
 10
12.6784
 20
-13.7548
 11
12.7789
 21
-13.8302
  0
LINE
  8
0
 10
12.7789
 20
-13.8302
 11
12.8817
 21
-13.9025
  0
LINE
  8
0
 10
12.8817
 20
-13.9025
 11
12.9867
 21
-13.9715
  0
LINE
  8
0
 10
12.9867
 20
-13.9715
 11
13.0939
 21
-14.0371
  0
LINE
  8
0
 10
13.0939
 20
-14.0371
 11
13.203
 21
-14.0994
  0
LINE
  8
0
 10
13.203
 20
-14.0994
 11
13.3141
 21
-14.1582
  0
LINE
  8
0
 10
13.3141
 20
-14.1582
 11
13.4269
 21
-14.2135
  0
LINE
  8
0
 10
13.4269
 20
-14.2135
 11
13.5415
 21
-14.2652
  0
LINE
  8
0
 10
13.5415
 20
-14.2652
 11
13.6575
 21
-14.3133
  0
LINE
  8
0
 10
13.6575
 20
-14.3133
 11
13.7751
 21
-14.3577
  0
LINE
  8
0
 10
13.7751
 20
-14.3577
 11
13.894
 21
-14.3984
  0
LINE
  8
0
 10
13.894
 20
-14.3984
 11
14.0141
 21
-14.4353
  0
LINE
  8
0
 10
14.0141
 20
-14.4353
 11
14.1353
 21
-14.4685
  0
LINE
  8
0
 10
14.1353
 20
-14.4685
 11
14.2575
 21
-14.4978
  0
LINE
  8
0
 10
14.2575
 20
-14.4978
 11
14.3805
 21
-14.5233
  0
LINE
  8
0
 10
14.3805
 20
-14.5233
 11
14.5043
 21
-14.5449
  0
LINE
  8
0
 10
14.5043
 20
-14.5449
 11
14.6287
 21
-14.5626
  0
LINE
  8
0
 10
14.6287
 20
-14.5626
 11
14.7536
 21
-14.5764
  0
LINE
  8
0
 10
14.7536
 20
-14.5764
 11
14.8789
 21
-14.5863
  0
LINE
  8
0
 10
14.8789
 20
-14.5863
 11
15.0044
 21
-14.5922
  0
LINE
  8
0
 10
15.0044
 20
-14.5922
 11
15.1301
 21
-14.5942
  0
LINE
  8
0
 10
15.1301
 20
-14.5942
 11
292.87
 21
-14.5942
  0
LINE
  8
0
 10
292.87
 20
-14.5942
 11
292.996
 21
-14.5922
  0
LINE
  8
0
 10
153.907
 20
117.428
 11
153.815
 21
117.437
  0
LINE
  8
0
 10
153.815
 20
117.437
 11
153.724
 21
117.451
  0
LINE
  8
0
 10
153.724
 20
117.451
 11
153.633
 21
117.472
  0
LINE
  8
0
 10
153.633
 20
117.472
 11
153.544
 21
117.497
  0
LINE
  8
0
 10
153.544
 20
117.497
 11
153.457
 21
117.529
  0
LINE
  8
0
 10
153.457
 20
117.529
 11
153.372
 21
117.566
  0
LINE
  8
0
 10
153.372
 20
117.566
 11
153.289
 21
117.608
  0
LINE
  8
0
 10
153.289
 20
117.608
 11
153.21
 21
117.655
  0
LINE
  8
0
 10
153.21
 20
117.655
 11
153.133
 21
117.707
  0
LINE
  8
0
 10
153.133
 20
117.707
 11
153.06
 21
117.764
  0
LINE
  8
0
 10
153.06
 20
117.764
 11
152.99
 21
117.825
  0
LINE
  8
0
 10
152.99
 20
117.825
 11
152.925
 21
117.891
  0
LINE
  8
0
 10
152.925
 20
117.891
 11
152.863
 21
117.96
  0
LINE
  8
0
 10
152.863
 20
117.96
 11
152.807
 21
118.033
  0
LINE
  8
0
 10
152.807
 20
118.033
 11
152.755
 21
118.11
  0
LINE
  8
0
 10
152.755
 20
118.11
 11
152.707
 21
118.19
  0
LINE
  8
0
 10
152.707
 20
118.19
 11
152.665
 21
118.272
  0
LINE
  8
0
 10
152.665
 20
118.272
 11
152.629
 21
118.357
  0
LINE
  8
0
 10
152.629
 20
118.357
 11
152.597
 21
118.444
  0
LINE
  8
0
 10
152.597
 20
118.444
 11
152.571
 21
118.533
  0
LINE
  8
0
 10
152.571
 20
118.533
 11
152.551
 21
118.624
  0
LINE
  8
0
 10
152.551
 20
118.624
 11
152.537
 21
118.715
  0
LINE
  8
0
 10
152.537
 20
118.715
 11
152.528
 21
118.808
  0
LINE
  8
0
 10
152.528
 20
118.808
 11
152.525
 21
118.9
  0
LINE
  8
0
 10
152.525
 20
118.9
 11
152.528
 21
118.993
  0
LINE
  8
0
 10
152.528
 20
118.993
 11
152.537
 21
119.085
  0
LINE
  8
0
 10
152.537
 20
119.085
 11
152.551
 21
119.177
  0
LINE
  8
0
 10
152.551
 20
119.177
 11
152.571
 21
119.267
  0
LINE
  8
0
 10
152.571
 20
119.267
 11
152.597
 21
119.356
  0
LINE
  8
0
 10
152.597
 20
119.356
 11
152.629
 21
119.443
  0
LINE
  8
0
 10
152.629
 20
119.443
 11
152.665
 21
119.528
  0
LINE
  8
0
 10
152.665
 20
119.528
 11
152.707
 21
119.611
  0
LINE
  8
0
 10
152.707
 20
119.611
 11
152.755
 21
119.691
  0
LINE
  8
0
 10
152.755
 20
119.691
 11
152.807
 21
119.767
  0
LINE
  8
0
 10
152.807
 20
119.767
 11
152.863
 21
119.84
  0
LINE
  8
0
 10
152.863
 20
119.84
 11
152.925
 21
119.91
  0
LINE
  8
0
 10
152.925
 20
119.91
 11
152.99
 21
119.975
  0
LINE
  8
0
 10
152.99
 20
119.975
 11
153.06
 21
120.037
  0
LINE
  8
0
 10
153.06
 20
120.037
 11
153.133
 21
120.094
  0
LINE
  8
0
 10
153.133
 20
120.094
 11
153.21
 21
120.146
  0
LINE
  8
0
 10
153.21
 20
120.146
 11
153.289
 21
120.193
  0
LINE
  8
0
 10
153.289
 20
120.193
 11
153.372
 21
120.235
  0
LINE
  8
0
 10
153.372
 20
120.235
 11
153.457
 21
120.272
  0
LINE
  8
0
 10
153.457
 20
120.272
 11
153.544
 21
120.303
  0
LINE
  8
0
 10
153.544
 20
120.303
 11
153.633
 21
120.329
  0
LINE
  8
0
 10
153.633
 20
120.329
 11
153.724
 21
120.349
  0
LINE
  8
0
 10
153.724
 20
120.349
 11
153.815
 21
120.364
  0
LINE
  8
0
 10
153.815
 20
120.364
 11
153.907
 21
120.372
  0
LINE
  8
0
 10
153.907
 20
120.372
 11
154
 21
120.375
  0
LINE
  8
0
 10
154
 20
120.375
 11
154.093
 21
120.372
  0
LINE
  8
0
 10
154.093
 20
120.372
 11
154.185
 21
120.364
  0
LINE
  8
0
 10
154.185
 20
120.364
 11
154.276
 21
120.349
  0
LINE
  8
0
 10
154.276
 20
120.349
 11
154.367
 21
120.329
  0
LINE
  8
0
 10
154.367
 20
120.329
 11
154.456
 21
120.303
  0
LINE
  8
0
 10
154.456
 20
120.303
 11
154.543
 21
120.272
  0
LINE
  8
0
 10
154.543
 20
120.272
 11
154.628
 21
120.235
  0
LINE
  8
0
 10
154.628
 20
120.235
 11
154.711
 21
120.193
  0
LINE
  8
0
 10
154.711
 20
120.193
 11
154.79
 21
120.146
  0
LINE
  8
0
 10
154.79
 20
120.146
 11
154.867
 21
120.094
  0
LINE
  8
0
 10
154.867
 20
120.094
 11
154.94
 21
120.037
  0
LINE
  8
0
 10
154.94
 20
120.037
 11
155.01
 21
119.975
  0
LINE
  8
0
 10
155.01
 20
119.975
 11
155.075
 21
119.91
  0
LINE
  8
0
 10
155.075
 20
119.91
 11
155.137
 21
119.84
  0
LINE
  8
0
 10
155.137
 20
119.84
 11
155.193
 21
119.767
  0
LINE
  8
0
 10
155.193
 20
119.767
 11
155.245
 21
119.691
  0
LINE
  8
0
 10
155.245
 20
119.691
 11
155.293
 21
119.611
  0
LINE
  8
0
 10
155.293
 20
119.611
 11
155.335
 21
119.528
  0
LINE
  8
0
 10
155.335
 20
119.528
 11
155.371
 21
119.443
  0
LINE
  8
0
 10
155.371
 20
119.443
 11
155.403
 21
119.356
  0
LINE
  8
0
 10
155.403
 20
119.356
 11
155.429
 21
119.267
  0
LINE
  8
0
 10
155.429
 20
119.267
 11
155.449
 21
119.177
  0
LINE
  8
0
 10
155.449
 20
119.177
 11
155.463
 21
119.085
  0
LINE
  8
0
 10
155.463
 20
119.085
 11
155.472
 21
118.993
  0
LINE
  8
0
 10
155.472
 20
118.993
 11
155.475
 21
118.9
  0
LINE
  8
0
 10
155.475
 20
118.9
 11
155.472
 21
118.808
  0
LINE
  8
0
 10
155.472
 20
118.808
 11
155.463
 21
118.715
  0
LINE
  8
0
 10
155.463
 20
118.715
 11
155.449
 21
118.624
  0
LINE
  8
0
 10
155.449
 20
118.624
 11
155.429
 21
118.533
  0
LINE
  8
0
 10
155.429
 20
118.533
 11
155.403
 21
118.444
  0
LINE
  8
0
 10
155.403
 20
118.444
 11
155.371
 21
118.357
  0
LINE
  8
0
 10
155.371
 20
118.357
 11
155.335
 21
118.272
  0
LINE
  8
0
 10
155.335
 20
118.272
 11
155.293
 21
118.19
  0
LINE
  8
0
 10
155.293
 20
118.19
 11
155.245
 21
118.11
  0
LINE
  8
0
 10
155.245
 20
118.11
 11
155.193
 21
118.033
  0
LINE
  8
0
 10
155.193
 20
118.033
 11
155.137
 21
117.96
  0
LINE
  8
0
 10
155.137
 20
117.96
 11
155.075
 21
117.891
  0
LINE
  8
0
 10
155.075
 20
117.891
 11
155.01
 21
117.825
  0
LINE
  8
0
 10
155.01
 20
117.825
 11
154.94
 21
117.764
  0
LINE
  8
0
 10
154.94
 20
117.764
 11
154.867
 21
117.707
  0
LINE
  8
0
 10
154.867
 20
117.707
 11
154.79
 21
117.655
  0
LINE
  8
0
 10
154.79
 20
117.655
 11
154.711
 21
117.608
  0
LINE
  8
0
 10
154.711
 20
117.608
 11
154.628
 21
117.566
  0
LINE
  8
0
 10
154.628
 20
117.566
 11
154.543
 21
117.529
  0
LINE
  8
0
 10
154.543
 20
117.529
 11
154.456
 21
117.497
  0
LINE
  8
0
 10
154.456
 20
117.497
 11
154.367
 21
117.472
  0
LINE
  8
0
 10
154.367
 20
117.472
 11
154.276
 21
117.451
  0
LINE
  8
0
 10
154.276
 20
117.451
 11
154.185
 21
117.437
  0
LINE
  8
0
 10
154.185
 20
117.437
 11
154.093
 21
117.428
  0
LINE
  8
0
 10
154.093
 20
117.428
 11
154
 21
117.425
  0
LINE
  8
0
 10
154
 20
117.425
 11
153.907
 21
117.428
  0
LINE
  8
0
 10
-2.73042
 20
88.7003
 11
-2.82268
 21
88.709
  0
LINE
  8
0
 10
-2.82268
 20
88.709
 11
-2.9142
 21
88.7235
  0
LINE
  8
0
 10
-2.9142
 20
88.7235
 11
-3.00462
 21
88.7437
  0
LINE
  8
0
 10
-3.00462
 20
88.7437
 11
-3.09361
 21
88.7696
  0
LINE
  8
0
 10
-3.09361
 20
88.7696
 11
-3.18079
 21
88.801
  0
LINE
  8
0
 10
-3.18079
 20
88.801
 11
-3.26582
 21
88.8378
  0
LINE
  8
0
 10
-3.26582
 20
88.8378
 11
-3.34839
 21
88.8798
  0
LINE
  8
0
 10
-3.34839
 20
88.8798
 11
-3.42815
 21
88.927
  0
LINE
  8
0
 10
-3.42815
 20
88.927
 11
-3.50479
 21
88.9791
  0
LINE
  8
0
 10
-3.50479
 20
88.9791
 11
-3.578
 21
89.0359
  0
LINE
  8
0
 10
-3.578
 20
89.0359
 11
-3.64751
 21
89.0972
  0
LINE
  8
0
 10
-3.64751
 20
89.0972
 11
-3.71303
 21
89.1627
  0
LINE
  8
0
 10
-3.71303
 20
89.1627
 11
-3.77431
 21
89.2322
  0
LINE
  8
0
 10
-3.77431
 20
89.2322
 11
-3.8311
 21
89.3054
  0
LINE
  8
0
 10
-3.8311
 20
89.3054
 11
-3.88319
 21
89.382
  0
LINE
  8
0
 10
-3.88319
 20
89.382
 11
-3.93036
 21
89.4618
  0
LINE
  8
0
 10
-3.93036
 20
89.4618
 11
-3.97243
 21
89.5444
  0
LINE
  8
0
 10
-3.97243
 20
89.5444
 11
-4.00923
 21
89.6294
  0
LINE
  8
0
 10
-4.00923
 20
89.6294
 11
-4.04062
 21
89.7166
  0
LINE
  8
0
 10
-4.04062
 20
89.7166
 11
-4.06647
 21
89.8056
  0
LINE
  8
0
 10
-4.06647
 20
89.8056
 11
-4.08669
 21
89.896
  0
LINE
  8
0
 10
-4.08669
 20
89.896
 11
-4.10118
 21
89.9875
  0
LINE
  8
0
 10
-4.10118
 20
89.9875
 11
-4.10989
 21
90.0798
  0
LINE
  8
0
 10
-4.10989
 20
90.0798
 11
-4.11281
 21
90.1724
  0
LINE
  8
0
 10
-4.11281
 20
90.1724
 11
-4.10989
 21
90.265
  0
LINE
  8
0
 10
-4.10989
 20
90.265
 11
-4.10118
 21
90.3573
  0
LINE
  8
0
 10
-4.10118
 20
90.3573
 11
-4.08669
 21
90.4488
  0
LINE
  8
0
 10
-4.08669
 20
90.4488
 11
-4.06647
 21
90.5392
  0
LINE
  8
0
 10
-4.06647
 20
90.5392
 11
-4.04062
 21
90.6282
  0
LINE
  8
0
 10
-4.04062
 20
90.6282
 11
-4.00923
 21
90.7154
  0
LINE
  8
0
 10
-4.00923
 20
90.7154
 11
-3.97243
 21
90.8004
  0
LINE
  8
0
 10
-3.97243
 20
90.8004
 11
-3.93036
 21
90.883
  0
LINE
  8
0
 10
-3.93036
 20
90.883
 11
-3.88319
 21
90.9627
  0
LINE
  8
0
 10
-3.88319
 20
90.9627
 11
-3.8311
 21
91.0394
  0
LINE
  8
0
 10
-3.8311
 20
91.0394
 11
-3.77431
 21
91.1126
  0
LINE
  8
0
 10
-3.77431
 20
91.1126
 11
-3.71303
 21
91.1821
  0
LINE
  8
0
 10
-3.71303
 20
91.1821
 11
-3.64751
 21
91.2476
  0
LINE
  8
0
 10
-3.64751
 20
91.2476
 11
-3.578
 21
91.3089
  0
LINE
  8
0
 10
-3.578
 20
91.3089
 11
-3.50479
 21
91.3657
  0
LINE
  8
0
 10
-3.50479
 20
91.3657
 11
-3.42815
 21
91.4178
  0
LINE
  8
0
 10
-3.42815
 20
91.4178
 11
-3.34839
 21
91.465
  0
LINE
  8
0
 10
-3.34839
 20
91.465
 11
-3.26582
 21
91.507
  0
LINE
  8
0
 10
-3.26582
 20
91.507
 11
-3.18079
 21
91.5438
  0
LINE
  8
0
 10
-3.18079
 20
91.5438
 11
-3.09361
 21
91.5752
  0
LINE
  8
0
 10
-3.09361
 20
91.5752
 11
-3.00462
 21
91.6011
  0
LINE
  8
0
 10
-3.00462
 20
91.6011
 11
-2.9142
 21
91.6213
  0
LINE
  8
0
 10
-2.9142
 20
91.6213
 11
-2.82268
 21
91.6358
  0
LINE
  8
0
 10
-2.82268
 20
91.6358
 11
-2.73042
 21
91.6445
  0
LINE
  8
0
 10
-2.73042
 20
91.6445
 11
-2.6378
 21
91.6474
  0
LINE
  8
0
 10
-2.6378
 20
91.6474
 11
-2.5452
 21
91.6445
  0
LINE
  8
0
 10
-2.5452
 20
91.6445
 11
-2.45294
 21
91.6358
  0
LINE
  8
0
 10
-2.45294
 20
91.6358
 11
-2.36142
 21
91.6213
  0
LINE
  8
0
 10
-2.36142
 20
91.6213
 11
-2.271
 21
91.6011
  0
LINE
  8
0
 10
-2.271
 20
91.6011
 11
-2.18201
 21
91.5752
  0
LINE
  8
0
 10
-2.18201
 20
91.5752
 11
-2.09482
 21
91.5438
  0
LINE
  8
0
 10
-2.09482
 20
91.5438
 11
-2.00978
 21
91.507
  0
LINE
  8
0
 10
-2.00978
 20
91.507
 11
-1.92722
 21
91.465
  0
LINE
  8
0
 10
-1.92722
 20
91.465
 11
-1.84746
 21
91.4178
  0
LINE
  8
0
 10
-1.84746
 20
91.4178
 11
-1.77083
 21
91.3657
  0
LINE
  8
0
 10
-1.77083
 20
91.3657
 11
-1.6976
 21
91.3089
  0
LINE
  8
0
 10
-1.6976
 20
91.3089
 11
-1.6281
 21
91.2476
  0
LINE
  8
0
 10
-1.6281
 20
91.2476
 11
-1.56258
 21
91.1821
  0
LINE
  8
0
 10
-1.56258
 20
91.1821
 11
-1.5013
 21
91.1126
  0
LINE
  8
0
 10
-1.5013
 20
91.1126
 11
-1.4445
 21
91.0394
  0
LINE
  8
0
 10
-1.4445
 20
91.0394
 11
-1.39243
 21
90.9627
  0
LINE
  8
0
 10
-1.39243
 20
90.9627
 11
-1.34526
 21
90.883
  0
LINE
  8
0
 10
-1.34526
 20
90.883
 11
-1.30319
 21
90.8004
  0
LINE
  8
0
 10
-1.30319
 20
90.8004
 11
-1.26639
 21
90.7154
  0
LINE
  8
0
 10
-1.26639
 20
90.7154
 11
-1.235
 21
90.6282
  0
LINE
  8
0
 10
-1.235
 20
90.6282
 11
-1.20915
 21
90.5392
  0
LINE
  8
0
 10
-1.20915
 20
90.5392
 11
-1.18893
 21
90.4488
  0
LINE
  8
0
 10
-1.18893
 20
90.4488
 11
-1.17444
 21
90.3573
  0
LINE
  8
0
 10
-1.17444
 20
90.3573
 11
-1.16571
 21
90.265
  0
LINE
  8
0
 10
-1.16571
 20
90.265
 11
-1.16281
 21
90.1724
  0
LINE
  8
0
 10
-1.16281
 20
90.1724
 11
-1.16571
 21
90.0798
  0
LINE
  8
0
 10
-1.16571
 20
90.0798
 11
-1.17444
 21
89.9875
  0
LINE
  8
0
 10
-1.17444
 20
89.9875
 11
-1.18893
 21
89.896
  0
LINE
  8
0
 10
-1.18893
 20
89.896
 11
-1.20915
 21
89.8056
  0
LINE
  8
0
 10
-1.20915
 20
89.8056
 11
-1.235
 21
89.7166
  0
LINE
  8
0
 10
-1.235
 20
89.7166
 11
-1.26639
 21
89.6294
  0
LINE
  8
0
 10
-1.26639
 20
89.6294
 11
-1.30319
 21
89.5444
  0
LINE
  8
0
 10
-1.30319
 20
89.5444
 11
-1.34526
 21
89.4618
  0
LINE
  8
0
 10
-1.34526
 20
89.4618
 11
-1.39243
 21
89.382
  0
LINE
  8
0
 10
-1.39243
 20
89.382
 11
-1.4445
 21
89.3054
  0
LINE
  8
0
 10
-1.4445
 20
89.3054
 11
-1.5013
 21
89.2322
  0
LINE
  8
0
 10
-1.5013
 20
89.2322
 11
-1.56258
 21
89.1627
  0
LINE
  8
0
 10
-1.56258
 20
89.1627
 11
-1.6281
 21
89.0972
  0
LINE
  8
0
 10
-1.6281
 20
89.0972
 11
-1.6976
 21
89.0359
  0
LINE
  8
0
 10
-1.6976
 20
89.0359
 11
-1.77083
 21
88.9791
  0
LINE
  8
0
 10
-1.77083
 20
88.9791
 11
-1.84746
 21
88.927
  0
LINE
  8
0
 10
-1.84746
 20
88.927
 11
-1.92722
 21
88.8798
  0
LINE
  8
0
 10
-1.92722
 20
88.8798
 11
-2.00978
 21
88.8378
  0
LINE
  8
0
 10
-2.00978
 20
88.8378
 11
-2.09482
 21
88.801
  0
LINE
  8
0
 10
-2.09482
 20
88.801
 11
-2.18201
 21
88.7696
  0
LINE
  8
0
 10
-2.18201
 20
88.7696
 11
-2.271
 21
88.7437
  0
LINE
  8
0
 10
-2.271
 20
88.7437
 11
-2.36142
 21
88.7235
  0
LINE
  8
0
 10
-2.36142
 20
88.7235
 11
-2.45294
 21
88.709
  0
LINE
  8
0
 10
-2.45294
 20
88.709
 11
-2.5452
 21
88.7003
  0
LINE
  8
0
 10
-2.5452
 20
88.7003
 11
-2.6378
 21
88.6974
  0
LINE
  8
0
 10
-2.6378
 20
88.6974
 11
-2.73042
 21
88.7003
  0
LINE
  8
0
 10
310.545
 20
88.7003
 11
310.453
 21
88.709
  0
LINE
  8
0
 10
310.453
 20
88.709
 11
310.361
 21
88.7235
  0
LINE
  8
0
 10
310.361
 20
88.7235
 11
310.271
 21
88.7437
  0
LINE
  8
0
 10
310.271
 20
88.7437
 11
310.182
 21
88.7696
  0
LINE
  8
0
 10
310.182
 20
88.7696
 11
310.095
 21
88.801
  0
LINE
  8
0
 10
310.095
 20
88.801
 11
310.01
 21
88.8378
  0
LINE
  8
0
 10
310.01
 20
88.8378
 11
309.927
 21
88.8798
  0
LINE
  8
0
 10
309.927
 20
88.8798
 11
309.847
 21
88.927
  0
LINE
  8
0
 10
309.847
 20
88.927
 11
309.771
 21
88.9791
  0
LINE
  8
0
 10
309.771
 20
88.9791
 11
309.698
 21
89.0359
  0
LINE
  8
0
 10
309.698
 20
89.0359
 11
309.628
 21
89.0972
  0
LINE
  8
0
 10
309.628
 20
89.0972
 11
309.563
 21
89.1627
  0
LINE
  8
0
 10
309.563
 20
89.1627
 11
309.501
 21
89.2322
  0
LINE
  8
0
 10
309.501
 20
89.2322
 11
309.445
 21
89.3054
  0
LINE
  8
0
 10
309.445
 20
89.3054
 11
309.392
 21
89.382
  0
LINE
  8
0
 10
309.392
 20
89.382
 11
309.345
 21
89.4618
  0
LINE
  8
0
 10
309.345
 20
89.4618
 11
309.303
 21
89.5444
  0
LINE
  8
0
 10
309.303
 20
89.5444
 11
309.266
 21
89.6294
  0
LINE
  8
0
 10
309.266
 20
89.6294
 11
309.235
 21
89.7166
  0
LINE
  8
0
 10
309.235
 20
89.7166
 11
309.209
 21
89.8056
  0
LINE
  8
0
 10
309.209
 20
89.8056
 11
309.189
 21
89.896
  0
LINE
  8
0
 10
309.189
 20
89.896
 11
309.174
 21
89.9875
  0
LINE
  8
0
 10
309.174
 20
89.9875
 11
309.166
 21
90.0798
  0
LINE
  8
0
 10
309.166
 20
90.0798
 11
309.163
 21
90.1724
  0
LINE
  8
0
 10
309.163
 20
90.1724
 11
309.166
 21
90.265
  0
LINE
  8
0
 10
309.166
 20
90.265
 11
309.174
 21
90.3573
  0
LINE
  8
0
 10
309.174
 20
90.3573
 11
309.189
 21
90.4488
  0
LINE
  8
0
 10
309.189
 20
90.4488
 11
309.209
 21
90.5392
  0
LINE
  8
0
 10
309.209
 20
90.5392
 11
309.235
 21
90.6282
  0
LINE
  8
0
 10
309.235
 20
90.6282
 11
309.266
 21
90.7154
  0
LINE
  8
0
 10
309.266
 20
90.7154
 11
309.303
 21
90.8004
  0
LINE
  8
0
 10
309.303
 20
90.8004
 11
309.345
 21
90.883
  0
LINE
  8
0
 10
309.345
 20
90.883
 11
309.392
 21
90.9627
  0
LINE
  8
0
 10
309.392
 20
90.9627
 11
309.445
 21
91.0394
  0
LINE
  8
0
 10
309.445
 20
91.0394
 11
309.501
 21
91.1126
  0
LINE
  8
0
 10
309.501
 20
91.1126
 11
309.563
 21
91.1821
  0
LINE
  8
0
 10
309.563
 20
91.1821
 11
309.628
 21
91.2476
  0
LINE
  8
0
 10
309.628
 20
91.2476
 11
309.698
 21
91.3089
  0
LINE
  8
0
 10
309.698
 20
91.3089
 11
309.771
 21
91.3657
  0
LINE
  8
0
 10
309.771
 20
91.3657
 11
309.847
 21
91.4178
  0
LINE
  8
0
 10
309.847
 20
91.4178
 11
309.927
 21
91.465
  0
LINE
  8
0
 10
309.927
 20
91.465
 11
310.01
 21
91.507
  0
LINE
  8
0
 10
310.01
 20
91.507
 11
310.095
 21
91.5438
  0
LINE
  8
0
 10
310.095
 20
91.5438
 11
310.182
 21
91.5752
  0
LINE
  8
0
 10
310.182
 20
91.5752
 11
310.271
 21
91.6011
  0
LINE
  8
0
 10
310.271
 20
91.6011
 11
310.361
 21
91.6213
  0
LINE
  8
0
 10
310.361
 20
91.6213
 11
310.453
 21
91.6358
  0
LINE
  8
0
 10
310.453
 20
91.6358
 11
310.545
 21
91.6445
  0
LINE
  8
0
 10
310.545
 20
91.6445
 11
310.638
 21
91.6474
  0
LINE
  8
0
 10
310.638
 20
91.6474
 11
310.73
 21
91.6445
  0
LINE
  8
0
 10
310.73
 20
91.6445
 11
310.823
 21
91.6358
  0
LINE
  8
0
 10
310.823
 20
91.6358
 11
310.914
 21
91.6213
  0
LINE
  8
0
 10
310.914
 20
91.6213
 11
311.005
 21
91.6011
  0
LINE
  8
0
 10
311.005
 20
91.6011
 11
311.094
 21
91.5752
  0
LINE
  8
0
 10
311.094
 20
91.5752
 11
311.181
 21
91.5438
  0
LINE
  8
0
 10
311.181
 20
91.5438
 11
311.266
 21
91.507
  0
LINE
  8
0
 10
311.266
 20
91.507
 11
311.348
 21
91.465
  0
LINE
  8
0
 10
311.348
 20
91.465
 11
311.428
 21
91.4178
  0
LINE
  8
0
 10
311.428
 20
91.4178
 11
311.505
 21
91.3657
  0
LINE
  8
0
 10
311.505
 20
91.3657
 11
311.578
 21
91.3089
  0
LINE
  8
0
 10
311.578
 20
91.3089
 11
311.648
 21
91.2476
  0
LINE
  8
0
 10
311.648
 20
91.2476
 11
311.713
 21
91.1821
  0
LINE
  8
0
 10
311.713
 20
91.1821
 11
311.774
 21
91.1126
  0
LINE
  8
0
 10
311.774
 20
91.1126
 11
311.831
 21
91.0394
  0
LINE
  8
0
 10
311.831
 20
91.0394
 11
311.883
 21
90.9627
  0
LINE
  8
0
 10
311.883
 20
90.9627
 11
311.93
 21
90.883
  0
LINE
  8
0
 10
311.93
 20
90.883
 11
311.972
 21
90.8004
  0
LINE
  8
0
 10
311.972
 20
90.8004
 11
312.009
 21
90.7154
  0
LINE
  8
0
 10
312.009
 20
90.7154
 11
312.041
 21
90.6282
  0
LINE
  8
0
 10
312.041
 20
90.6282
 11
312.066
 21
90.5392
  0
LINE
  8
0
 10
312.066
 20
90.5392
 11
312.087
 21
90.4488
  0
LINE
  8
0
 10
312.087
 20
90.4488
 11
312.101
 21
90.3573
  0
LINE
  8
0
 10
312.101
 20
90.3573
 11
312.11
 21
90.265
  0
LINE
  8
0
 10
312.11
 20
90.265
 11
312.113
 21
90.1724
  0
LINE
  8
0
 10
312.113
 20
90.1724
 11
312.11
 21
90.0798
  0
LINE
  8
0
 10
312.11
 20
90.0798
 11
312.101
 21
89.9875
  0
LINE
  8
0
 10
312.101
 20
89.9875
 11
312.087
 21
89.896
  0
LINE
  8
0
 10
312.087
 20
89.896
 11
312.066
 21
89.8056
  0
LINE
  8
0
 10
312.066
 20
89.8056
 11
312.041
 21
89.7166
  0
LINE
  8
0
 10
312.041
 20
89.7166
 11
312.009
 21
89.6294
  0
LINE
  8
0
 10
312.009
 20
89.6294
 11
311.972
 21
89.5444
  0
LINE
  8
0
 10
311.972
 20
89.5444
 11
311.93
 21
89.4618
  0
LINE
  8
0
 10
311.93
 20
89.4618
 11
311.883
 21
89.382
  0
LINE
  8
0
 10
311.883
 20
89.382
 11
311.831
 21
89.3054
  0
LINE
  8
0
 10
311.831
 20
89.3054
 11
311.774
 21
89.2322
  0
LINE
  8
0
 10
311.774
 20
89.2322
 11
311.713
 21
89.1627
  0
LINE
  8
0
 10
311.713
 20
89.1627
 11
311.648
 21
89.0972
  0
LINE
  8
0
 10
311.648
 20
89.0972
 11
311.578
 21
89.0359
  0
LINE
  8
0
 10
311.578
 20
89.0359
 11
311.505
 21
88.9791
  0
LINE
  8
0
 10
311.505
 20
88.9791
 11
311.428
 21
88.927
  0
LINE
  8
0
 10
311.428
 20
88.927
 11
311.348
 21
88.8798
  0
LINE
  8
0
 10
311.348
 20
88.8798
 11
311.266
 21
88.8378
  0
LINE
  8
0
 10
311.266
 20
88.8378
 11
311.181
 21
88.801
  0
LINE
  8
0
 10
311.181
 20
88.801
 11
311.094
 21
88.7696
  0
LINE
  8
0
 10
311.094
 20
88.7696
 11
311.005
 21
88.7437
  0
LINE
  8
0
 10
311.005
 20
88.7437
 11
310.914
 21
88.7235
  0
LINE
  8
0
 10
310.914
 20
88.7235
 11
310.823
 21
88.709
  0
LINE
  8
0
 10
310.823
 20
88.709
 11
310.73
 21
88.7003
  0
LINE
  8
0
 10
310.73
 20
88.7003
 11
310.638
 21
88.6974
  0
LINE
  8
0
 10
310.638
 20
88.6974
 11
310.545
 21
88.7003
  0
LINE
  8
0
 10
15.0374
 20
-12.0663
 11
14.9452
 21
-12.0575
  0
LINE
  8
0
 10
14.9452
 20
-12.0575
 11
14.8537
 21
-12.043
  0
LINE
  8
0
 10
14.8537
 20
-12.043
 11
14.7632
 21
-12.0228
  0
LINE
  8
0
 10
14.7632
 20
-12.0228
 11
14.6742
 21
-11.997
  0
LINE
  8
0
 10
14.6742
 20
-11.997
 11
14.5871
 21
-11.9656
  0
LINE
  8
0
 10
14.5871
 20
-11.9656
 11
14.502
 21
-11.9288
  0
LINE
  8
0
 10
14.502
 20
-11.9288
 11
14.4195
 21
-11.8867
  0
LINE
  8
0
 10
14.4195
 20
-11.8867
 11
14.3397
 21
-11.8396
  0
LINE
  8
0
 10
14.3397
 20
-11.8396
 11
14.2631
 21
-11.7875
  0
LINE
  8
0
 10
14.2631
 20
-11.7875
 11
14.1898
 21
-11.7307
  0
LINE
  8
0
 10
14.1898
 20
-11.7307
 11
14.1203
 21
-11.6694
  0
LINE
  8
0
 10
14.1203
 20
-11.6694
 11
14.0548
 21
-11.6039
  0
LINE
  8
0
 10
14.0548
 20
-11.6039
 11
13.9935
 21
-11.5344
  0
LINE
  8
0
 10
13.9935
 20
-11.5344
 11
13.9367
 21
-11.4612
  0
LINE
  8
0
 10
13.9367
 20
-11.4612
 11
13.8847
 21
-11.3845
  0
LINE
  8
0
 10
13.8847
 20
-11.3845
 11
13.8375
 21
-11.3048
  0
LINE
  8
0
 10
13.8375
 20
-11.3048
 11
13.7954
 21
-11.2222
  0
LINE
  8
0
 10
13.7954
 20
-11.2222
 11
13.7586
 21
-11.1371
  0
LINE
  8
0
 10
13.7586
 20
-11.1371
 11
13.7272
 21
-11.05
  0
LINE
  8
0
 10
13.7272
 20
-11.05
 11
13.7014
 21
-10.961
  0
LINE
  8
0
 10
13.7014
 20
-10.961
 11
13.6812
 21
-10.8706
  0
LINE
  8
0
 10
13.6812
 20
-10.8706
 11
13.6667
 21
-10.779
  0
LINE
  8
0
 10
13.6667
 20
-10.779
 11
13.658
 21
-10.6868
  0
LINE
  8
0
 10
13.658
 20
-10.6868
 11
13.655
 21
-10.5942
  0
LINE
  8
0
 10
13.655
 20
-10.5942
 11
13.658
 21
-10.5016
  0
LINE
  8
0
 10
13.658
 20
-10.5016
 11
13.6667
 21
-10.4093
  0
LINE
  8
0
 10
13.6667
 20
-10.4093
 11
13.6812
 21
-10.3178
  0
LINE
  8
0
 10
13.6812
 20
-10.3178
 11
13.7014
 21
-10.2274
  0
LINE
  8
0
 10
13.7014
 20
-10.2274
 11
13.7272
 21
-10.1384
  0
LINE
  8
0
 10
13.7272
 20
-10.1384
 11
13.7586
 21
-10.0512
  0
LINE
  8
0
 10
13.7586
 20
-10.0512
 11
13.7954
 21
-9.96614
  0
LINE
  8
0
 10
13.7954
 20
-9.96614
 11
13.8375
 21
-9.88358
  0
LINE
  8
0
 10
13.8375
 20
-9.88358
 11
13.8847
 21
-9.80382
  0
LINE
  8
0
 10
13.8847
 20
-9.80382
 11
13.9367
 21
-9.72719
  0
LINE
  8
0
 10
13.9367
 20
-9.72719
 11
13.9935
 21
-9.65398
  0
LINE
  8
0
 10
13.9935
 20
-9.65398
 11
14.0548
 21
-9.58446
  0
LINE
  8
0
 10
14.0548
 20
-9.58446
 11
14.1203
 21
-9.51894
  0
LINE
  8
0
 10
14.1203
 20
-9.51894
 11
14.1898
 21
-9.45766
  0
LINE
  8
0
 10
14.1898
 20
-9.45766
 11
14.2631
 21
-9.40086
  0
LINE
  8
0
 10
14.2631
 20
-9.40086
 11
14.3397
 21
-9.34879
  0
LINE
  8
0
 10
14.3397
 20
-9.34879
 11
14.4195
 21
-9.30162
  0
LINE
  8
0
 10
14.4195
 20
-9.30162
 11
14.502
 21
-9.25955
  0
LINE
  8
0
 10
14.502
 20
-9.25955
 11
14.5871
 21
-9.22275
  0
LINE
  8
0
 10
14.5871
 20
-9.22275
 11
14.6742
 21
-9.19136
  0
LINE
  8
0
 10
14.6742
 20
-9.19136
 11
14.7632
 21
-9.16551
  0
LINE
  8
0
 10
14.7632
 20
-9.16551
 11
14.8537
 21
-9.14529
  0
LINE
  8
0
 10
14.8537
 20
-9.14529
 11
14.9452
 21
-9.1308
  0
LINE
  8
0
 10
14.9452
 20
-9.1308
 11
15.0374
 21
-9.12209
  0
LINE
  8
0
 10
15.0374
 20
-9.12209
 11
15.1301
 21
-9.11917
  0
LINE
  8
0
 10
15.1301
 20
-9.11917
 11
15.2227
 21
-9.12209
  0
LINE
  8
0
 10
15.2227
 20
-9.12209
 11
15.3149
 21
-9.1308
  0
LINE
  8
0
 10
15.3149
 20
-9.1308
 11
15.4064
 21
-9.14529
  0
LINE
  8
0
 10
15.4064
 20
-9.14529
 11
15.4969
 21
-9.16551
  0
LINE
  8
0
 10
15.4969
 20
-9.16551
 11
15.5858
 21
-9.19136
  0
LINE
  8
0
 10
15.5858
 20
-9.19136
 11
15.673
 21
-9.22275
  0
LINE
  8
0
 10
15.673
 20
-9.22275
 11
15.7581
 21
-9.25955
  0
LINE
  8
0
 10
15.7581
 20
-9.25955
 11
15.8406
 21
-9.30162
  0
LINE
  8
0
 10
15.8406
 20
-9.30162
 11
15.9204
 21
-9.34879
  0
LINE
  8
0
 10
15.9204
 20
-9.34879
 11
15.997
 21
-9.40086
  0
LINE
  8
0
 10
15.997
 20
-9.40086
 11
16.0703
 21
-9.45766
  0
LINE
  8
0
 10
16.0703
 20
-9.45766
 11
16.1398
 21
-9.51894
  0
LINE
  8
0
 10
16.1398
 20
-9.51894
 11
16.2053
 21
-9.58446
  0
LINE
  8
0
 10
16.2053
 20
-9.58446
 11
16.2666
 21
-9.65398
  0
LINE
  8
0
 10
16.2666
 20
-9.65398
 11
16.3233
 21
-9.72719
  0
LINE
  8
0
 10
16.3233
 20
-9.72719
 11
16.3754
 21
-9.80382
  0
LINE
  8
0
 10
16.3754
 20
-9.80382
 11
16.4226
 21
-9.88358
  0
LINE
  8
0
 10
16.4226
 20
-9.88358
 11
16.4647
 21
-9.96614
  0
LINE
  8
0
 10
16.4647
 20
-9.96614
 11
16.5015
 21
-10.0512
  0
LINE
  8
0
 10
16.5015
 20
-10.0512
 11
16.5329
 21
-10.1384
  0
LINE
  8
0
 10
16.5329
 20
-10.1384
 11
16.5587
 21
-10.2274
  0
LINE
  8
0
 10
16.5587
 20
-10.2274
 11
16.5789
 21
-10.3178
  0
LINE
  8
0
 10
16.5789
 20
-10.3178
 11
16.5934
 21
-10.4093
  0
LINE
  8
0
 10
16.5934
 20
-10.4093
 11
16.6021
 21
-10.5016
  0
LINE
  8
0
 10
16.6021
 20
-10.5016
 11
16.605
 21
-10.5942
  0
LINE
  8
0
 10
16.605
 20
-10.5942
 11
16.6021
 21
-10.6868
  0
LINE
  8
0
 10
16.6021
 20
-10.6868
 11
16.5934
 21
-10.779
  0
LINE
  8
0
 10
16.5934
 20
-10.779
 11
16.5789
 21
-10.8706
  0
LINE
  8
0
 10
16.5789
 20
-10.8706
 11
16.5587
 21
-10.961
  0
LINE
  8
0
 10
16.5587
 20
-10.961
 11
16.5329
 21
-11.05
  0
LINE
  8
0
 10
16.5329
 20
-11.05
 11
16.5015
 21
-11.1371
  0
LINE
  8
0
 10
16.5015
 20
-11.1371
 11
16.4647
 21
-11.2222
  0
LINE
  8
0
 10
16.4647
 20
-11.2222
 11
16.4226
 21
-11.3048
  0
LINE
  8
0
 10
16.4226
 20
-11.3048
 11
16.3754
 21
-11.3845
  0
LINE
  8
0
 10
16.3754
 20
-11.3845
 11
16.3233
 21
-11.4612
  0
LINE
  8
0
 10
16.3233
 20
-11.4612
 11
16.2666
 21
-11.5344
  0
LINE
  8
0
 10
16.2666
 20
-11.5344
 11
16.2053
 21
-11.6039
  0
LINE
  8
0
 10
16.2053
 20
-11.6039
 11
16.1398
 21
-11.6694
  0
LINE
  8
0
 10
16.1398
 20
-11.6694
 11
16.0703
 21
-11.7307
  0
LINE
  8
0
 10
16.0703
 20
-11.7307
 11
15.997
 21
-11.7875
  0
LINE
  8
0
 10
15.997
 20
-11.7875
 11
15.9204
 21
-11.8396
  0
LINE
  8
0
 10
15.9204
 20
-11.8396
 11
15.8406
 21
-11.8867
  0
LINE
  8
0
 10
15.8406
 20
-11.8867
 11
15.7581
 21
-11.9288
  0
LINE
  8
0
 10
15.7581
 20
-11.9288
 11
15.673
 21
-11.9656
  0
LINE
  8
0
 10
15.673
 20
-11.9656
 11
15.5858
 21
-11.997
  0
LINE
  8
0
 10
15.5858
 20
-11.997
 11
15.4969
 21
-12.0228
  0
LINE
  8
0
 10
15.4969
 20
-12.0228
 11
15.4064
 21
-12.043
  0
LINE
  8
0
 10
15.4064
 20
-12.043
 11
15.3149
 21
-12.0575
  0
LINE
  8
0
 10
15.3149
 20
-12.0575
 11
15.2227
 21
-12.0663
  0
LINE
  8
0
 10
15.2227
 20
-12.0663
 11
15.1301
 21
-12.0692
  0
LINE
  8
0
 10
15.1301
 20
-12.0692
 11
15.0374
 21
-12.0663
  0
LINE
  8
0
 10
292.777
 20
-12.0663
 11
292.685
 21
-12.0575
  0
LINE
  8
0
 10
292.685
 20
-12.0575
 11
292.594
 21
-12.043
  0
LINE
  8
0
 10
292.594
 20
-12.043
 11
292.503
 21
-12.0228
  0
LINE
  8
0
 10
292.503
 20
-12.0228
 11
292.414
 21
-11.997
  0
LINE
  8
0
 10
292.414
 20
-11.997
 11
292.327
 21
-11.9656
  0
LINE
  8
0
 10
292.327
 20
-11.9656
 11
292.242
 21
-11.9288
  0
LINE
  8
0
 10
292.242
 20
-11.9288
 11
292.159
 21
-11.8867
  0
LINE
  8
0
 10
292.159
 20
-11.8867
 11
292.08
 21
-11.8396
  0
LINE
  8
0
 10
292.08
 20
-11.8396
 11
292.003
 21
-11.7875
  0
LINE
  8
0
 10
292.003
 20
-11.7875
 11
291.93
 21
-11.7307
  0
LINE
  8
0
 10
291.93
 20
-11.7307
 11
291.86
 21
-11.6694
  0
LINE
  8
0
 10
291.86
 20
-11.6694
 11
291.795
 21
-11.6039
  0
LINE
  8
0
 10
291.795
 20
-11.6039
 11
291.733
 21
-11.5344
  0
LINE
  8
0
 10
291.733
 20
-11.5344
 11
291.677
 21
-11.4612
  0
LINE
  8
0
 10
291.677
 20
-11.4612
 11
291.625
 21
-11.3845
  0
LINE
  8
0
 10
291.625
 20
-11.3845
 11
291.577
 21
-11.3048
  0
LINE
  8
0
 10
291.577
 20
-11.3048
 11
291.535
 21
-11.2222
  0
LINE
  8
0
 10
291.535
 20
-11.2222
 11
291.499
 21
-11.1371
  0
LINE
  8
0
 10
291.499
 20
-11.1371
 11
291.467
 21
-11.05
  0
LINE
  8
0
 10
291.467
 20
-11.05
 11
291.441
 21
-10.961
  0
LINE
  8
0
 10
291.441
 20
-10.961
 11
291.421
 21
-10.8706
  0
LINE
  8
0
 10
291.421
 20
-10.8706
 11
291.407
 21
-10.779
  0
LINE
  8
0
 10
291.407
 20
-10.779
 11
291.398
 21
-10.6868
  0
LINE
  8
0
 10
291.398
 20
-10.6868
 11
291.395
 21
-10.5942
  0
LINE
  8
0
 10
291.395
 20
-10.5942
 11
291.398
 21
-10.5016
  0
LINE
  8
0
 10
291.398
 20
-10.5016
 11
291.407
 21
-10.4093
  0
LINE
  8
0
 10
291.407
 20
-10.4093
 11
291.421
 21
-10.3178
  0
LINE
  8
0
 10
291.421
 20
-10.3178
 11
291.441
 21
-10.2274
  0
LINE
  8
0
 10
291.441
 20
-10.2274
 11
291.467
 21
-10.1384
  0
LINE
  8
0
 10
291.467
 20
-10.1384
 11
291.499
 21
-10.0512
  0
LINE
  8
0
 10
291.499
 20
-10.0512
 11
291.535
 21
-9.96614
  0
LINE
  8
0
 10
291.535
 20
-9.96614
 11
291.577
 21
-9.88358
  0
LINE
  8
0
 10
291.577
 20
-9.88358
 11
291.625
 21
-9.80382
  0
LINE
  8
0
 10
291.625
 20
-9.80382
 11
291.677
 21
-9.72719
  0
LINE
  8
0
 10
291.677
 20
-9.72719
 11
291.733
 21
-9.65398
  0
LINE
  8
0
 10
291.733
 20
-9.65398
 11
291.795
 21
-9.58446
  0
LINE
  8
0
 10
291.795
 20
-9.58446
 11
291.86
 21
-9.51894
  0
LINE
  8
0
 10
291.86
 20
-9.51894
 11
291.93
 21
-9.45766
  0
LINE
  8
0
 10
291.93
 20
-9.45766
 11
292.003
 21
-9.40086
  0
LINE
  8
0
 10
292.003
 20
-9.40086
 11
292.08
 21
-9.34879
  0
LINE
  8
0
 10
292.08
 20
-9.34879
 11
292.159
 21
-9.30162
  0
LINE
  8
0
 10
292.159
 20
-9.30162
 11
292.242
 21
-9.25955
  0
LINE
  8
0
 10
292.242
 20
-9.25955
 11
292.327
 21
-9.22275
  0
LINE
  8
0
 10
292.327
 20
-9.22275
 11
292.414
 21
-9.19136
  0
LINE
  8
0
 10
292.414
 20
-9.19136
 11
292.503
 21
-9.16551
  0
LINE
  8
0
 10
292.503
 20
-9.16551
 11
292.594
 21
-9.14529
  0
LINE
  8
0
 10
292.594
 20
-9.14529
 11
292.685
 21
-9.1308
  0
LINE
  8
0
 10
292.685
 20
-9.1308
 11
292.777
 21
-9.12209
  0
LINE
  8
0
 10
292.777
 20
-9.12209
 11
292.87
 21
-9.11917
  0
LINE
  8
0
 10
292.87
 20
-9.11917
 11
292.963
 21
-9.12209
  0
LINE
  8
0
 10
292.963
 20
-9.12209
 11
293.055
 21
-9.1308
  0
LINE
  8
0
 10
293.055
 20
-9.1308
 11
293.146
 21
-9.14529
  0
LINE
  8
0
 10
293.146
 20
-9.14529
 11
293.237
 21
-9.16551
  0
LINE
  8
0
 10
293.237
 20
-9.16551
 11
293.326
 21
-9.19136
  0
LINE
  8
0
 10
293.326
 20
-9.19136
 11
293.413
 21
-9.22275
  0
LINE
  8
0
 10
293.413
 20
-9.22275
 11
293.498
 21
-9.25955
  0
LINE
  8
0
 10
293.498
 20
-9.25955
 11
293.581
 21
-9.30162
  0
LINE
  8
0
 10
293.581
 20
-9.30162
 11
293.66
 21
-9.34879
  0
LINE
  8
0
 10
293.66
 20
-9.34879
 11
293.737
 21
-9.40086
  0
LINE
  8
0
 10
293.737
 20
-9.40086
 11
293.81
 21
-9.45766
  0
LINE
  8
0
 10
293.81
 20
-9.45766
 11
293.88
 21
-9.51894
  0
LINE
  8
0
 10
293.88
 20
-9.51894
 11
293.945
 21
-9.58446
  0
LINE
  8
0
 10
293.945
 20
-9.58446
 11
294.006
 21
-9.65398
  0
LINE
  8
0
 10
294.006
 20
-9.65398
 11
294.063
 21
-9.72719
  0
LINE
  8
0
 10
294.063
 20
-9.72719
 11
294.115
 21
-9.80382
  0
LINE
  8
0
 10
294.115
 20
-9.80382
 11
294.162
 21
-9.88358
  0
LINE
  8
0
 10
294.162
 20
-9.88358
 11
294.205
 21
-9.96614
  0
LINE
  8
0
 10
294.205
 20
-9.96614
 11
294.241
 21
-10.0512
  0
LINE
  8
0
 10
294.241
 20
-10.0512
 11
294.273
 21
-10.1384
  0
LINE
  8
0
 10
294.273
 20
-10.1384
 11
294.299
 21
-10.2274
  0
LINE
  8
0
 10
294.299
 20
-10.2274
 11
294.319
 21
-10.3178
  0
LINE
  8
0
 10
294.319
 20
-10.3178
 11
294.333
 21
-10.4093
  0
LINE
  8
0
 10
294.333
 20
-10.4093
 11
294.342
 21
-10.5016
  0
LINE
  8
0
 10
294.342
 20
-10.5016
 11
294.345
 21
-10.5942
  0
LINE
  8
0
 10
294.345
 20
-10.5942
 11
294.342
 21
-10.6868
  0
LINE
  8
0
 10
294.342
 20
-10.6868
 11
294.333
 21
-10.779
  0
LINE
  8
0
 10
294.333
 20
-10.779
 11
294.319
 21
-10.8706
  0
LINE
  8
0
 10
294.319
 20
-10.8706
 11
294.299
 21
-10.961
  0
LINE
  8
0
 10
294.299
 20
-10.961
 11
294.273
 21
-11.05
  0
LINE
  8
0
 10
294.273
 20
-11.05
 11
294.241
 21
-11.1371
  0
LINE
  8
0
 10
294.241
 20
-11.1371
 11
294.205
 21
-11.2222
  0
LINE
  8
0
 10
294.205
 20
-11.2222
 11
294.162
 21
-11.3048
  0
LINE
  8
0
 10
294.162
 20
-11.3048
 11
294.115
 21
-11.3845
  0
LINE
  8
0
 10
294.115
 20
-11.3845
 11
294.063
 21
-11.4612
  0
LINE
  8
0
 10
294.063
 20
-11.4612
 11
294.006
 21
-11.5344
  0
LINE
  8
0
 10
294.006
 20
-11.5344
 11
293.945
 21
-11.6039
  0
LINE
  8
0
 10
293.945
 20
-11.6039
 11
293.88
 21
-11.6694
  0
LINE
  8
0
 10
293.88
 20
-11.6694
 11
293.81
 21
-11.7307
  0
LINE
  8
0
 10
293.81
 20
-11.7307
 11
293.737
 21
-11.7875
  0
LINE
  8
0
 10
293.737
 20
-11.7875
 11
293.66
 21
-11.8396
  0
LINE
  8
0
 10
293.66
 20
-11.8396
 11
293.581
 21
-11.8867
  0
LINE
  8
0
 10
293.581
 20
-11.8867
 11
293.498
 21
-11.9288
  0
LINE
  8
0
 10
293.498
 20
-11.9288
 11
293.413
 21
-11.9656
  0
LINE
  8
0
 10
293.413
 20
-11.9656
 11
293.326
 21
-11.997
  0
LINE
  8
0
 10
293.326
 20
-11.997
 11
293.237
 21
-12.0228
  0
LINE
  8
0
 10
293.237
 20
-12.0228
 11
293.146
 21
-12.043
  0
LINE
  8
0
 10
293.146
 20
-12.043
 11
293.055
 21
-12.0575
  0
LINE
  8
0
 10
293.055
 20
-12.0575
 11
292.963
 21
-12.0663
  0
LINE
  8
0
 10
292.963
 20
-12.0663
 11
292.87
 21
-12.0692
  0
LINE
  8
0
 10
292.87
 20
-12.0692
 11
292.777
 21
-12.0663
  0
ENDSEC
  0
SECTION
  2
OBJECTS
  0
DICTIONARY
  0
ENDSEC
  0
EOF
