  0
SECTION
  2
BLOCKS
  0
ENDSEC
  0
SECTION
  2
ENTITIES
  0
LINE
  8
0
 10
177.483
 20
-70.7553
 11
154.909
 21
57.2697
  0
LINE
  8
0
 10
154.909
 20
57.2697
 11
0
 21
29.9551
  0
LINE
  8
0
 10
0
 20
29.9551
 11
-154.909
 21
57.2697
  0
LINE
  8
0
 10
-154.909
 20
57.2697
 11
-177.483
 21
-70.7553
  0
LINE
  8
0
 10
-177.483
 20
-70.7553
 11
-0.000854492
 21
-102.05
  0
LINE
  8
0
 10
-0.000854492
 20
-102.05
 11
0
 21
-102.045
  0
LINE
  8
0
 10
0
 20
-102.045
 11
0.000854492
 21
-102.05
  0
LINE
  8
0
 10
0.000854492
 20
-102.05
 11
177.483
 21
-70.7553
  0
LINE
  8
0
 10
-150.921
 20
50.079
 11
-151.009
 21
50.0861
  0
LINE
  8
0
 10
-151.009
 20
50.0861
 11
-151.096
 21
50.0986
  0
LINE
  8
0
 10
-151.096
 20
50.0986
 11
-151.182
 21
50.1166
  0
LINE
  8
0
 10
-151.182
 20
50.1166
 11
-151.267
 21
50.14
  0
LINE
  8
0
 10
-151.267
 20
50.14
 11
-151.35
 21
50.1686
  0
LINE
  8
0
 10
-151.35
 20
50.1686
 11
-151.431
 21
50.2024
  0
LINE
  8
0
 10
-151.431
 20
50.2024
 11
-151.51
 21
50.2412
  0
LINE
  8
0
 10
-151.51
 20
50.2412
 11
-151.586
 21
50.2849
  0
LINE
  8
0
 10
-151.586
 20
50.2849
 11
-151.66
 21
50.3334
  0
LINE
  8
0
 10
-151.66
 20
50.3334
 11
-151.73
 21
50.3863
  0
LINE
  8
0
 10
-151.73
 20
50.3863
 11
-151.797
 21
50.4435
  0
LINE
  8
0
 10
-151.797
 20
50.4435
 11
-151.86
 21
50.5048
  0
LINE
  8
0
 10
-151.86
 20
50.5048
 11
-151.919
 21
50.57
  0
LINE
  8
0
 10
-151.919
 20
50.57
 11
-151.974
 21
50.6387
  0
LINE
  8
0
 10
-151.974
 20
50.6387
 11
-152.024
 21
50.7108
  0
LINE
  8
0
 10
-152.024
 20
50.7108
 11
-152.07
 21
50.7858
  0
LINE
  8
0
 10
-152.07
 20
50.7858
 11
-152.111
 21
50.8636
  0
LINE
  8
0
 10
-152.111
 20
50.8636
 11
-152.147
 21
50.9439
  0
LINE
  8
0
 10
-152.147
 20
50.9439
 11
-152.178
 21
51.0262
  0
LINE
  8
0
 10
-152.178
 20
51.0262
 11
-152.204
 21
51.1103
  0
LINE
  8
0
 10
-152.204
 20
51.1103
 11
-152.224
 21
51.1958
  0
LINE
  8
0
 10
-152.224
 20
51.1958
 11
-152.239
 21
51.2825
  0
LINE
  8
0
 10
-152.239
 20
51.2825
 11
-152.249
 21
51.3699
  0
LINE
  8
0
 10
-152.249
 20
51.3699
 11
-152.253
 21
51.4578
  0
LINE
  8
0
 10
-152.253
 20
51.4578
 11
-152.251
 21
51.5457
  0
LINE
  8
0
 10
-152.251
 20
51.5457
 11
-152.244
 21
51.6334
  0
LINE
  8
0
 10
-152.244
 20
51.6334
 11
-152.232
 21
51.7205
  0
LINE
  8
0
 10
-152.232
 20
51.7205
 11
-152.214
 21
51.8066
  0
LINE
  8
0
 10
-152.214
 20
51.8066
 11
-152.19
 21
51.8914
  0
LINE
  8
0
 10
-152.19
 20
51.8914
 11
-152.162
 21
51.9745
  0
LINE
  8
0
 10
-152.162
 20
51.9745
 11
-152.128
 21
52.0557
  0
LINE
  8
0
 10
-152.128
 20
52.0557
 11
-152.089
 21
52.1346
  0
LINE
  8
0
 10
-152.089
 20
52.1346
 11
-152.045
 21
52.2109
  0
LINE
  8
0
 10
-152.045
 20
52.2109
 11
-151.997
 21
52.2844
  0
LINE
  8
0
 10
-151.997
 20
52.2844
 11
-151.944
 21
52.3546
  0
LINE
  8
0
 10
-151.944
 20
52.3546
 11
-151.887
 21
52.4214
  0
LINE
  8
0
 10
-151.887
 20
52.4214
 11
-151.825
 21
52.4844
  0
LINE
  8
0
 10
-151.825
 20
52.4844
 11
-151.76
 21
52.5435
  0
LINE
  8
0
 10
-151.76
 20
52.5435
 11
-151.691
 21
52.5984
  0
LINE
  8
0
 10
-151.691
 20
52.5984
 11
-151.619
 21
52.6488
  0
LINE
  8
0
 10
-151.619
 20
52.6488
 11
-151.544
 21
52.6946
  0
LINE
  8
0
 10
-151.544
 20
52.6946
 11
-151.467
 21
52.7357
  0
LINE
  8
0
 10
-151.467
 20
52.7357
 11
-151.386
 21
52.7717
  0
LINE
  8
0
 10
-151.386
 20
52.7717
 11
-151.304
 21
52.8027
  0
LINE
  8
0
 10
-151.304
 20
52.8027
 11
-151.22
 21
52.8284
  0
LINE
  8
0
 10
-151.22
 20
52.8284
 11
-151.134
 21
52.8488
  0
LINE
  8
0
 10
-151.134
 20
52.8488
 11
-151.048
 21
52.8637
  0
LINE
  8
0
 10
-151.048
 20
52.8637
 11
-150.96
 21
52.8732
  0
LINE
  8
0
 10
-150.96
 20
52.8732
 11
-150.872
 21
52.8772
  0
LINE
  8
0
 10
-150.872
 20
52.8772
 11
-150.784
 21
52.8757
  0
LINE
  8
0
 10
-150.784
 20
52.8757
 11
-150.697
 21
52.8686
  0
LINE
  8
0
 10
-150.697
 20
52.8686
 11
-150.61
 21
52.8561
  0
LINE
  8
0
 10
-150.61
 20
52.8561
 11
-150.524
 21
52.8381
  0
LINE
  8
0
 10
-150.524
 20
52.8381
 11
-150.439
 21
52.8147
  0
LINE
  8
0
 10
-150.439
 20
52.8147
 11
-150.356
 21
52.7861
  0
LINE
  8
0
 10
-150.356
 20
52.7861
 11
-150.274
 21
52.7523
  0
LINE
  8
0
 10
-150.274
 20
52.7523
 11
-150.196
 21
52.7135
  0
LINE
  8
0
 10
-150.196
 20
52.7135
 11
-150.119
 21
52.6698
  0
LINE
  8
0
 10
-150.119
 20
52.6698
 11
-150.046
 21
52.6214
  0
LINE
  8
0
 10
-150.046
 20
52.6214
 11
-149.976
 21
52.5684
  0
LINE
  8
0
 10
-149.976
 20
52.5684
 11
-149.909
 21
52.5112
  0
LINE
  8
0
 10
-149.909
 20
52.5112
 11
-149.846
 21
52.4499
  0
LINE
  8
0
 10
-149.846
 20
52.4499
 11
-149.787
 21
52.3847
  0
LINE
  8
0
 10
-149.787
 20
52.3847
 11
-149.732
 21
52.316
  0
LINE
  8
0
 10
-149.732
 20
52.316
 11
-149.681
 21
52.2439
  0
LINE
  8
0
 10
-149.681
 20
52.2439
 11
-149.636
 21
52.1689
  0
LINE
  8
0
 10
-149.636
 20
52.1689
 11
-149.595
 21
52.0911
  0
LINE
  8
0
 10
-149.595
 20
52.0911
 11
-149.558
 21
52.0109
  0
LINE
  8
0
 10
-149.558
 20
52.0109
 11
-149.528
 21
51.9285
  0
LINE
  8
0
 10
-149.528
 20
51.9285
 11
-149.502
 21
51.8444
  0
LINE
  8
0
 10
-149.502
 20
51.8444
 11
-149.481
 21
51.7589
  0
LINE
  8
0
 10
-149.481
 20
51.7589
 11
-149.466
 21
51.6722
  0
LINE
  8
0
 10
-149.466
 20
51.6722
 11
-149.457
 21
51.5848
  0
LINE
  8
0
 10
-149.457
 20
51.5848
 11
-149.453
 21
51.4969
  0
LINE
  8
0
 10
-149.453
 20
51.4969
 11
-149.454
 21
51.409
  0
LINE
  8
0
 10
-149.454
 20
51.409
 11
-149.462
 21
51.3213
  0
LINE
  8
0
 10
-149.462
 20
51.3213
 11
-149.474
 21
51.2343
  0
LINE
  8
0
 10
-149.474
 20
51.2343
 11
-149.492
 21
51.1482
  0
LINE
  8
0
 10
-149.492
 20
51.1482
 11
-149.515
 21
51.0634
  0
LINE
  8
0
 10
-149.515
 20
51.0634
 11
-149.544
 21
50.9802
  0
LINE
  8
0
 10
-149.544
 20
50.9802
 11
-149.578
 21
50.899
  0
LINE
  8
0
 10
-149.578
 20
50.899
 11
-149.617
 21
50.8201
  0
LINE
  8
0
 10
-149.617
 20
50.8201
 11
-149.66
 21
50.7438
  0
LINE
  8
0
 10
-149.66
 20
50.7438
 11
-149.709
 21
50.6703
  0
LINE
  8
0
 10
-149.709
 20
50.6703
 11
-149.762
 21
50.6001
  0
LINE
  8
0
 10
-149.762
 20
50.6001
 11
-149.819
 21
50.5333
  0
LINE
  8
0
 10
-149.819
 20
50.5333
 11
-149.88
 21
50.4703
  0
LINE
  8
0
 10
-149.88
 20
50.4703
 11
-149.945
 21
50.4112
  0
LINE
  8
0
 10
-149.945
 20
50.4112
 11
-150.014
 21
50.3563
  0
LINE
  8
0
 10
-150.014
 20
50.3563
 11
-150.086
 21
50.3059
  0
LINE
  8
0
 10
-150.086
 20
50.3059
 11
-150.161
 21
50.2601
  0
LINE
  8
0
 10
-150.161
 20
50.2601
 11
-150.239
 21
50.2191
  0
LINE
  8
0
 10
-150.239
 20
50.2191
 11
-150.319
 21
50.183
  0
LINE
  8
0
 10
-150.319
 20
50.183
 11
-150.402
 21
50.1521
  0
LINE
  8
0
 10
-150.402
 20
50.1521
 11
-150.486
 21
50.1263
  0
LINE
  8
0
 10
-150.486
 20
50.1263
 11
-150.571
 21
50.106
  0
LINE
  8
0
 10
-150.571
 20
50.106
 11
-150.658
 21
50.091
  0
LINE
  8
0
 10
-150.658
 20
50.091
 11
-150.745
 21
50.0815
  0
LINE
  8
0
 10
-150.745
 20
50.0815
 11
-150.833
 21
50.0775
  0
LINE
  8
0
 10
-150.833
 20
50.0775
 11
-150.921
 21
50.079
  0
LINE
  8
0
 10
150.745
 20
50.0815
 11
150.658
 21
50.091
  0
LINE
  8
0
 10
150.658
 20
50.091
 11
150.571
 21
50.106
  0
LINE
  8
0
 10
150.571
 20
50.106
 11
150.486
 21
50.1263
  0
LINE
  8
0
 10
150.486
 20
50.1263
 11
150.402
 21
50.1521
  0
LINE
  8
0
 10
150.402
 20
50.1521
 11
150.319
 21
50.183
  0
LINE
  8
0
 10
150.319
 20
50.183
 11
150.239
 21
50.2191
  0
LINE
  8
0
 10
150.239
 20
50.2191
 11
150.161
 21
50.2601
  0
LINE
  8
0
 10
150.161
 20
50.2601
 11
150.086
 21
50.3059
  0
LINE
  8
0
 10
150.086
 20
50.3059
 11
150.014
 21
50.3563
  0
LINE
  8
0
 10
150.014
 20
50.3563
 11
149.945
 21
50.4112
  0
LINE
  8
0
 10
149.945
 20
50.4112
 11
149.88
 21
50.4703
  0
LINE
  8
0
 10
149.88
 20
50.4703
 11
149.819
 21
50.5333
  0
LINE
  8
0
 10
149.819
 20
50.5333
 11
149.762
 21
50.6001
  0
LINE
  8
0
 10
149.762
 20
50.6001
 11
149.709
 21
50.6703
  0
LINE
  8
0
 10
149.709
 20
50.6703
 11
149.66
 21
50.7438
  0
LINE
  8
0
 10
149.66
 20
50.7438
 11
149.617
 21
50.8201
  0
LINE
  8
0
 10
149.617
 20
50.8201
 11
149.578
 21
50.899
  0
LINE
  8
0
 10
149.578
 20
50.899
 11
149.544
 21
50.9802
  0
LINE
  8
0
 10
149.544
 20
50.9802
 11
149.515
 21
51.0634
  0
LINE
  8
0
 10
149.515
 20
51.0634
 11
149.492
 21
51.1482
  0
LINE
  8
0
 10
149.492
 20
51.1482
 11
149.474
 21
51.2343
  0
LINE
  8
0
 10
149.474
 20
51.2343
 11
149.462
 21
51.3213
  0
LINE
  8
0
 10
149.462
 20
51.3213
 11
149.454
 21
51.409
  0
LINE
  8
0
 10
149.454
 20
51.409
 11
149.453
 21
51.4969
  0
LINE
  8
0
 10
149.453
 20
51.4969
 11
149.457
 21
51.5848
  0
LINE
  8
0
 10
149.457
 20
51.5848
 11
149.466
 21
51.6722
  0
LINE
  8
0
 10
149.466
 20
51.6722
 11
149.481
 21
51.7589
  0
LINE
  8
0
 10
149.481
 20
51.7589
 11
149.502
 21
51.8444
  0
LINE
  8
0
 10
149.502
 20
51.8444
 11
149.528
 21
51.9285
  0
LINE
  8
0
 10
149.528
 20
51.9285
 11
149.558
 21
52.0109
  0
LINE
  8
0
 10
149.558
 20
52.0109
 11
149.595
 21
52.0911
  0
LINE
  8
0
 10
149.595
 20
52.0911
 11
149.636
 21
52.1689
  0
LINE
  8
0
 10
149.636
 20
52.1689
 11
149.681
 21
52.2439
  0
LINE
  8
0
 10
149.681
 20
52.2439
 11
149.732
 21
52.316
  0
LINE
  8
0
 10
149.732
 20
52.316
 11
149.787
 21
52.3847
  0
LINE
  8
0
 10
149.787
 20
52.3847
 11
149.846
 21
52.4499
  0
LINE
  8
0
 10
149.846
 20
52.4499
 11
149.909
 21
52.5112
  0
LINE
  8
0
 10
149.909
 20
52.5112
 11
149.976
 21
52.5684
  0
LINE
  8
0
 10
149.976
 20
52.5684
 11
150.046
 21
52.6214
  0
LINE
  8
0
 10
150.046
 20
52.6214
 11
150.119
 21
52.6698
  0
LINE
  8
0
 10
150.119
 20
52.6698
 11
150.196
 21
52.7135
  0
LINE
  8
0
 10
150.196
 20
52.7135
 11
150.274
 21
52.7523
  0
LINE
  8
0
 10
150.274
 20
52.7523
 11
150.356
 21
52.7861
  0
LINE
  8
0
 10
150.356
 20
52.7861
 11
150.439
 21
52.8147
  0
LINE
  8
0
 10
150.439
 20
52.8147
 11
150.524
 21
52.8381
  0
LINE
  8
0
 10
150.524
 20
52.8381
 11
150.61
 21
52.8561
  0
LINE
  8
0
 10
150.61
 20
52.8561
 11
150.697
 21
52.8686
  0
LINE
  8
0
 10
150.697
 20
52.8686
 11
150.784
 21
52.8757
  0
LINE
  8
0
 10
150.784
 20
52.8757
 11
150.872
 21
52.8772
  0
LINE
  8
0
 10
150.872
 20
52.8772
 11
150.96
 21
52.8732
  0
LINE
  8
0
 10
150.96
 20
52.8732
 11
151.048
 21
52.8637
  0
LINE
  8
0
 10
151.048
 20
52.8637
 11
151.134
 21
52.8488
  0
LINE
  8
0
 10
151.134
 20
52.8488
 11
151.22
 21
52.8284
  0
LINE
  8
0
 10
151.22
 20
52.8284
 11
151.304
 21
52.8027
  0
LINE
  8
0
 10
151.304
 20
52.8027
 11
151.386
 21
52.7717
  0
LINE
  8
0
 10
151.386
 20
52.7717
 11
151.467
 21
52.7357
  0
LINE
  8
0
 10
151.467
 20
52.7357
 11
151.544
 21
52.6946
  0
LINE
  8
0
 10
151.544
 20
52.6946
 11
151.619
 21
52.6488
  0
LINE
  8
0
 10
151.619
 20
52.6488
 11
151.691
 21
52.5984
  0
LINE
  8
0
 10
151.691
 20
52.5984
 11
151.76
 21
52.5435
  0
LINE
  8
0
 10
151.76
 20
52.5435
 11
151.825
 21
52.4844
  0
LINE
  8
0
 10
151.825
 20
52.4844
 11
151.887
 21
52.4214
  0
LINE
  8
0
 10
151.887
 20
52.4214
 11
151.944
 21
52.3546
  0
LINE
  8
0
 10
151.944
 20
52.3546
 11
151.997
 21
52.2844
  0
LINE
  8
0
 10
151.997
 20
52.2844
 11
152.045
 21
52.2109
  0
LINE
  8
0
 10
152.045
 20
52.2109
 11
152.089
 21
52.1346
  0
LINE
  8
0
 10
152.089
 20
52.1346
 11
152.128
 21
52.0557
  0
LINE
  8
0
 10
152.128
 20
52.0557
 11
152.162
 21
51.9745
  0
LINE
  8
0
 10
152.162
 20
51.9745
 11
152.19
 21
51.8914
  0
LINE
  8
0
 10
152.19
 20
51.8914
 11
152.214
 21
51.8066
  0
LINE
  8
0
 10
152.214
 20
51.8066
 11
152.232
 21
51.7205
  0
LINE
  8
0
 10
152.232
 20
51.7205
 11
152.244
 21
51.6334
  0
LINE
  8
0
 10
152.244
 20
51.6334
 11
152.251
 21
51.5457
  0
LINE
  8
0
 10
152.251
 20
51.5457
 11
152.253
 21
51.4578
  0
LINE
  8
0
 10
152.253
 20
51.4578
 11
152.249
 21
51.3699
  0
LINE
  8
0
 10
152.249
 20
51.3699
 11
152.239
 21
51.2825
  0
LINE
  8
0
 10
152.239
 20
51.2825
 11
152.224
 21
51.1958
  0
LINE
  8
0
 10
152.224
 20
51.1958
 11
152.204
 21
51.1103
  0
LINE
  8
0
 10
152.204
 20
51.1103
 11
152.178
 21
51.0262
  0
LINE
  8
0
 10
152.178
 20
51.0262
 11
152.147
 21
50.9439
  0
LINE
  8
0
 10
152.147
 20
50.9439
 11
152.111
 21
50.8636
  0
LINE
  8
0
 10
152.111
 20
50.8636
 11
152.07
 21
50.7858
  0
LINE
  8
0
 10
152.07
 20
50.7858
 11
152.024
 21
50.7108
  0
LINE
  8
0
 10
152.024
 20
50.7108
 11
151.974
 21
50.6387
  0
LINE
  8
0
 10
151.974
 20
50.6387
 11
151.919
 21
50.57
  0
LINE
  8
0
 10
151.919
 20
50.57
 11
151.86
 21
50.5048
  0
LINE
  8
0
 10
151.86
 20
50.5048
 11
151.797
 21
50.4435
  0
LINE
  8
0
 10
151.797
 20
50.4435
 11
151.73
 21
50.3863
  0
LINE
  8
0
 10
151.73
 20
50.3863
 11
151.66
 21
50.3334
  0
LINE
  8
0
 10
151.66
 20
50.3334
 11
151.586
 21
50.2849
  0
LINE
  8
0
 10
151.586
 20
50.2849
 11
151.51
 21
50.2412
  0
LINE
  8
0
 10
151.51
 20
50.2412
 11
151.431
 21
50.2024
  0
LINE
  8
0
 10
151.431
 20
50.2024
 11
151.35
 21
50.1686
  0
LINE
  8
0
 10
151.35
 20
50.1686
 11
151.267
 21
50.14
  0
LINE
  8
0
 10
151.267
 20
50.14
 11
151.182
 21
50.1166
  0
LINE
  8
0
 10
151.182
 20
50.1166
 11
151.096
 21
50.0986
  0
LINE
  8
0
 10
151.096
 20
50.0986
 11
151.009
 21
50.0861
  0
LINE
  8
0
 10
151.009
 20
50.0861
 11
150.921
 21
50.079
  0
LINE
  8
0
 10
150.921
 20
50.079
 11
150.833
 21
50.0775
  0
LINE
  8
0
 10
150.833
 20
50.0775
 11
150.745
 21
50.0815
  0
LINE
  8
0
 10
-109.778
 20
22.403
 11
-107.346
 21
36.1903
  0
LINE
  8
0
 10
-107.346
 20
36.1903
 11
-93.5591
 21
33.7592
  0
LINE
  8
0
 10
-93.5591
 20
33.7592
 11
-95.9902
 21
19.9719
  0
LINE
  8
0
 10
-95.9902
 20
19.9719
 11
-109.778
 21
22.403
  0
LINE
  8
0
 10
93.5591
 20
33.7592
 11
107.346
 21
36.1903
  0
LINE
  8
0
 10
107.346
 20
36.1903
 11
109.778
 21
22.403
  0
LINE
  8
0
 10
109.778
 20
22.403
 11
95.9902
 21
19.9719
  0
LINE
  8
0
 10
95.9902
 20
19.9719
 11
93.5591
 21
33.7592
  0
LINE
  8
0
 10
-129.357
 20
20.7783
 11
-126.926
 21
34.5656
  0
LINE
  8
0
 10
-126.926
 20
34.5656
 11
-113.139
 21
32.1345
  0
LINE
  8
0
 10
-113.139
 20
32.1345
 11
-115.57
 21
18.3472
  0
LINE
  8
0
 10
-115.57
 20
18.3472
 11
-129.357
 21
20.7783
  0
LINE
  8
0
 10
113.139
 20
32.1345
 11
126.926
 21
34.5656
  0
LINE
  8
0
 10
126.926
 20
34.5656
 11
129.357
 21
20.7783
  0
LINE
  8
0
 10
129.357
 20
20.7783
 11
115.57
 21
18.3472
  0
LINE
  8
0
 10
115.57
 20
18.3472
 11
113.139
 21
32.1345
  0
LINE
  8
0
 10
-148.937
 20
19.1536
 11
-146.506
 21
32.9409
  0
LINE
  8
0
 10
-146.506
 20
32.9409
 11
-132.718
 21
30.5098
  0
LINE
  8
0
 10
-132.718
 20
30.5098
 11
-135.149
 21
16.7225
  0
LINE
  8
0
 10
-135.149
 20
16.7225
 11
-148.937
 21
19.1536
  0
LINE
  8
0
 10
132.718
 20
30.5098
 11
146.506
 21
32.9409
  0
LINE
  8
0
 10
146.506
 20
32.9409
 11
148.937
 21
19.1536
  0
LINE
  8
0
 10
148.937
 20
19.1536
 11
135.149
 21
16.7225
  0
LINE
  8
0
 10
135.149
 20
16.7225
 11
132.718
 21
30.5098
  0
LINE
  8
0
 10
-28.8051
 20
28.5467
 11
-28.8927
 21
28.5537
  0
LINE
  8
0
 10
-28.8927
 20
28.5537
 11
-28.9798
 21
28.5663
  0
LINE
  8
0
 10
-28.9798
 20
28.5663
 11
-29.0659
 21
28.5842
  0
LINE
  8
0
 10
-29.0659
 20
28.5842
 11
-29.1507
 21
28.6076
  0
LINE
  8
0
 10
-29.1507
 20
28.6076
 11
-29.2338
 21
28.6362
  0
LINE
  8
0
 10
-29.2338
 20
28.6362
 11
-29.315
 21
28.67
  0
LINE
  8
0
 10
-29.315
 20
28.67
 11
-29.3939
 21
28.7089
  0
LINE
  8
0
 10
-29.3939
 20
28.7089
 11
-29.4703
 21
28.7526
  0
LINE
  8
0
 10
-29.4703
 20
28.7526
 11
-29.5437
 21
28.801
  0
LINE
  8
0
 10
-29.5437
 20
28.801
 11
-29.6139
 21
28.8539
  0
LINE
  8
0
 10
-29.6139
 20
28.8539
 11
-29.6807
 21
28.9111
  0
LINE
  8
0
 10
-29.6807
 20
28.9111
 11
-29.7438
 21
28.9725
  0
LINE
  8
0
 10
-29.7438
 20
28.9725
 11
-29.8028
 21
29.0376
  0
LINE
  8
0
 10
-29.8028
 20
29.0376
 11
-29.8577
 21
29.1064
  0
LINE
  8
0
 10
-29.8577
 20
29.1064
 11
-29.9082
 21
29.1784
  0
LINE
  8
0
 10
-29.9082
 20
29.1784
 11
-29.954
 21
29.2535
  0
LINE
  8
0
 10
-29.954
 20
29.2535
 11
-29.995
 21
29.3313
  0
LINE
  8
0
 10
-29.995
 20
29.3313
 11
-30.0311
 21
29.4115
  0
LINE
  8
0
 10
-30.0311
 20
29.4115
 11
-30.062
 21
29.4938
  0
LINE
  8
0
 10
-30.062
 20
29.4938
 11
-30.0877
 21
29.5779
  0
LINE
  8
0
 10
-30.0877
 20
29.5779
 11
-30.1081
 21
29.6635
  0
LINE
  8
0
 10
-30.1081
 20
29.6635
 11
-30.123
 21
29.7502
  0
LINE
  8
0
 10
-30.123
 20
29.7502
 11
-30.1326
 21
29.8376
  0
LINE
  8
0
 10
-30.1326
 20
29.8376
 11
-30.1366
 21
29.9254
  0
LINE
  8
0
 10
-30.1366
 20
29.9254
 11
-30.135
 21
30.0134
  0
LINE
  8
0
 10
-30.135
 20
30.0134
 11
-30.128
 21
30.101
  0
LINE
  8
0
 10
-30.128
 20
30.101
 11
-30.1154
 21
30.1881
  0
LINE
  8
0
 10
-30.1154
 20
30.1881
 11
-30.0974
 21
30.2742
  0
LINE
  8
0
 10
-30.0974
 20
30.2742
 11
-30.0741
 21
30.359
  0
LINE
  8
0
 10
-30.0741
 20
30.359
 11
-30.0454
 21
30.4421
  0
LINE
  8
0
 10
-30.0454
 20
30.4421
 11
-30.0116
 21
30.5233
  0
LINE
  8
0
 10
-30.0116
 20
30.5233
 11
-29.9728
 21
30.6022
  0
LINE
  8
0
 10
-29.9728
 20
30.6022
 11
-29.9291
 21
30.6786
  0
LINE
  8
0
 10
-29.9291
 20
30.6786
 11
-29.8807
 21
30.752
  0
LINE
  8
0
 10
-29.8807
 20
30.752
 11
-29.8278
 21
30.8222
  0
LINE
  8
0
 10
-29.8278
 20
30.8222
 11
-29.7705
 21
30.889
  0
LINE
  8
0
 10
-29.7705
 20
30.889
 11
-29.7092
 21
30.9521
  0
LINE
  8
0
 10
-29.7092
 20
30.9521
 11
-29.644
 21
31.0111
  0
LINE
  8
0
 10
-29.644
 20
31.0111
 11
-29.5753
 21
31.066
  0
LINE
  8
0
 10
-29.5753
 20
31.066
 11
-29.5033
 21
31.1165
  0
LINE
  8
0
 10
-29.5033
 20
31.1165
 11
-29.4282
 21
31.1623
  0
LINE
  8
0
 10
-29.4282
 20
31.1623
 11
-29.3504
 21
31.2033
  0
LINE
  8
0
 10
-29.3504
 20
31.2033
 11
-29.2702
 21
31.2393
  0
LINE
  8
0
 10
-29.2702
 20
31.2393
 11
-29.1879
 21
31.2703
  0
LINE
  8
0
 10
-29.1879
 20
31.2703
 11
-29.1037
 21
31.296
  0
LINE
  8
0
 10
-29.1037
 20
31.296
 11
-29.0182
 21
31.3164
  0
LINE
  8
0
 10
-29.0182
 20
31.3164
 11
-28.9315
 21
31.3314
  0
LINE
  8
0
 10
-28.9315
 20
31.3314
 11
-28.8441
 21
31.3409
  0
LINE
  8
0
 10
-28.8441
 20
31.3409
 11
-28.7562
 21
31.3449
  0
LINE
  8
0
 10
-28.7562
 20
31.3449
 11
-28.6683
 21
31.3433
  0
LINE
  8
0
 10
-28.6683
 20
31.3433
 11
-28.5806
 21
31.3363
  0
LINE
  8
0
 10
-28.5806
 20
31.3363
 11
-28.4936
 21
31.3237
  0
LINE
  8
0
 10
-28.4936
 20
31.3237
 11
-28.4075
 21
31.3057
  0
LINE
  8
0
 10
-28.4075
 20
31.3057
 11
-28.3227
 21
31.2824
  0
LINE
  8
0
 10
-28.3227
 20
31.2824
 11
-28.2395
 21
31.2538
  0
LINE
  8
0
 10
-28.2395
 20
31.2538
 11
-28.1583
 21
31.2199
  0
LINE
  8
0
 10
-28.1583
 20
31.2199
 11
-28.0794
 21
31.1811
  0
LINE
  8
0
 10
-28.0794
 20
31.1811
 11
-28.0031
 21
31.1374
  0
LINE
  8
0
 10
-28.0031
 20
31.1374
 11
-27.9297
 21
31.089
  0
LINE
  8
0
 10
-27.9297
 20
31.089
 11
-27.8594
 21
31.0361
  0
LINE
  8
0
 10
-27.8594
 20
31.0361
 11
-27.7926
 21
30.9788
  0
LINE
  8
0
 10
-27.7926
 20
30.9788
 11
-27.7296
 21
30.9175
  0
LINE
  8
0
 10
-27.7296
 20
30.9175
 11
-27.6705
 21
30.8524
  0
LINE
  8
0
 10
-27.6705
 20
30.8524
 11
-27.6157
 21
30.7836
  0
LINE
  8
0
 10
-27.6157
 20
30.7836
 11
-27.5652
 21
30.7116
  0
LINE
  8
0
 10
-27.5652
 20
30.7116
 11
-27.5194
 21
30.6365
  0
LINE
  8
0
 10
-27.5194
 20
30.6365
 11
-27.4784
 21
30.5587
  0
LINE
  8
0
 10
-27.4784
 20
30.5587
 11
-27.4423
 21
30.4785
  0
LINE
  8
0
 10
-27.4423
 20
30.4785
 11
-27.4114
 21
30.3962
  0
LINE
  8
0
 10
-27.4114
 20
30.3962
 11
-27.3857
 21
30.3121
  0
LINE
  8
0
 10
-27.3857
 20
30.3121
 11
-27.3653
 21
30.2265
  0
LINE
  8
0
 10
-27.3653
 20
30.2265
 11
-27.3503
 21
30.1398
  0
LINE
  8
0
 10
-27.3503
 20
30.1398
 11
-27.3408
 21
30.0524
  0
LINE
  8
0
 10
-27.3408
 20
30.0524
 11
-27.3368
 21
29.9645
  0
LINE
  8
0
 10
-27.3368
 20
29.9645
 11
-27.3384
 21
29.8766
  0
LINE
  8
0
 10
-27.3384
 20
29.8766
 11
-27.3454
 21
29.7889
  0
LINE
  8
0
 10
-27.3454
 20
29.7889
 11
-27.3579
 21
29.7019
  0
LINE
  8
0
 10
-27.3579
 20
29.7019
 11
-27.3759
 21
29.6158
  0
LINE
  8
0
 10
-27.3759
 20
29.6158
 11
-27.3993
 21
29.531
  0
LINE
  8
0
 10
-27.3993
 20
29.531
 11
-27.4279
 21
29.4478
  0
LINE
  8
0
 10
-27.4279
 20
29.4478
 11
-27.4617
 21
29.3666
  0
LINE
  8
0
 10
-27.4617
 20
29.3666
 11
-27.5006
 21
29.2877
  0
LINE
  8
0
 10
-27.5006
 20
29.2877
 11
-27.5443
 21
29.2114
  0
LINE
  8
0
 10
-27.5443
 20
29.2114
 11
-27.5927
 21
29.138
  0
LINE
  8
0
 10
-27.5927
 20
29.138
 11
-27.6456
 21
29.0677
  0
LINE
  8
0
 10
-27.6456
 20
29.0677
 11
-27.7028
 21
29.001
  0
LINE
  8
0
 10
-27.7028
 20
29.001
 11
-27.7642
 21
28.9379
  0
LINE
  8
0
 10
-27.7642
 20
28.9379
 11
-27.8293
 21
28.8788
  0
LINE
  8
0
 10
-27.8293
 20
28.8788
 11
-27.898
 21
28.824
  0
LINE
  8
0
 10
-27.898
 20
28.824
 11
-27.9701
 21
28.7735
  0
LINE
  8
0
 10
-27.9701
 20
28.7735
 11
-28.0452
 21
28.7277
  0
LINE
  8
0
 10
-28.0452
 20
28.7277
 11
-28.123
 21
28.6867
  0
LINE
  8
0
 10
-28.123
 20
28.6867
 11
-28.2032
 21
28.6506
  0
LINE
  8
0
 10
-28.2032
 20
28.6506
 11
-28.2855
 21
28.6197
  0
LINE
  8
0
 10
-28.2855
 20
28.6197
 11
-28.3696
 21
28.594
  0
LINE
  8
0
 10
-28.3696
 20
28.594
 11
-28.4552
 21
28.5736
  0
LINE
  8
0
 10
-28.4552
 20
28.5736
 11
-28.5418
 21
28.5586
  0
LINE
  8
0
 10
-28.5418
 20
28.5586
 11
-28.6293
 21
28.5491
  0
LINE
  8
0
 10
-28.6293
 20
28.5491
 11
-28.7171
 21
28.5451
  0
LINE
  8
0
 10
-28.7171
 20
28.5451
 11
-28.8051
 21
28.5467
  0
LINE
  8
0
 10
28.6293
 20
28.5491
 11
28.5418
 21
28.5586
  0
LINE
  8
0
 10
28.5418
 20
28.5586
 11
28.4552
 21
28.5736
  0
LINE
  8
0
 10
28.4552
 20
28.5736
 11
28.3696
 21
28.594
  0
LINE
  8
0
 10
28.3696
 20
28.594
 11
28.2855
 21
28.6197
  0
LINE
  8
0
 10
28.2855
 20
28.6197
 11
28.2032
 21
28.6506
  0
LINE
  8
0
 10
28.2032
 20
28.6506
 11
28.123
 21
28.6867
  0
LINE
  8
0
 10
28.123
 20
28.6867
 11
28.0452
 21
28.7277
  0
LINE
  8
0
 10
28.0452
 20
28.7277
 11
27.9701
 21
28.7735
  0
LINE
  8
0
 10
27.9701
 20
28.7735
 11
27.898
 21
28.824
  0
LINE
  8
0
 10
27.898
 20
28.824
 11
27.8293
 21
28.8788
  0
LINE
  8
0
 10
27.8293
 20
28.8788
 11
27.7642
 21
28.9379
  0
LINE
  8
0
 10
27.7642
 20
28.9379
 11
27.7028
 21
29.001
  0
LINE
  8
0
 10
27.7028
 20
29.001
 11
27.6456
 21
29.0677
  0
LINE
  8
0
 10
27.6456
 20
29.0677
 11
27.5927
 21
29.138
  0
LINE
  8
0
 10
27.5927
 20
29.138
 11
27.5443
 21
29.2114
  0
LINE
  8
0
 10
27.5443
 20
29.2114
 11
27.5006
 21
29.2877
  0
LINE
  8
0
 10
27.5006
 20
29.2877
 11
27.4617
 21
29.3666
  0
LINE
  8
0
 10
27.4617
 20
29.3666
 11
27.4279
 21
29.4478
  0
LINE
  8
0
 10
27.4279
 20
29.4478
 11
27.3993
 21
29.531
  0
LINE
  8
0
 10
27.3993
 20
29.531
 11
27.3759
 21
29.6158
  0
LINE
  8
0
 10
27.3759
 20
29.6158
 11
27.3579
 21
29.7019
  0
LINE
  8
0
 10
27.3579
 20
29.7019
 11
27.3454
 21
29.7889
  0
LINE
  8
0
 10
27.3454
 20
29.7889
 11
27.3384
 21
29.8766
  0
LINE
  8
0
 10
27.3384
 20
29.8766
 11
27.3368
 21
29.9645
  0
LINE
  8
0
 10
27.3368
 20
29.9645
 11
27.3408
 21
30.0524
  0
LINE
  8
0
 10
27.3408
 20
30.0524
 11
27.3503
 21
30.1398
  0
LINE
  8
0
 10
27.3503
 20
30.1398
 11
27.3653
 21
30.2265
  0
LINE
  8
0
 10
27.3653
 20
30.2265
 11
27.3857
 21
30.3121
  0
LINE
  8
0
 10
27.3857
 20
30.3121
 11
27.4114
 21
30.3962
  0
LINE
  8
0
 10
27.4114
 20
30.3962
 11
27.4423
 21
30.4785
  0
LINE
  8
0
 10
27.4423
 20
30.4785
 11
27.4784
 21
30.5587
  0
LINE
  8
0
 10
27.4784
 20
30.5587
 11
27.5194
 21
30.6365
  0
LINE
  8
0
 10
27.5194
 20
30.6365
 11
27.5652
 21
30.7116
  0
LINE
  8
0
 10
27.5652
 20
30.7116
 11
27.6157
 21
30.7836
  0
LINE
  8
0
 10
27.6157
 20
30.7836
 11
27.6705
 21
30.8524
  0
LINE
  8
0
 10
27.6705
 20
30.8524
 11
27.7296
 21
30.9175
  0
LINE
  8
0
 10
27.7296
 20
30.9175
 11
27.7926
 21
30.9788
  0
LINE
  8
0
 10
27.7926
 20
30.9788
 11
27.8594
 21
31.0361
  0
LINE
  8
0
 10
27.8594
 20
31.0361
 11
27.9297
 21
31.089
  0
LINE
  8
0
 10
27.9297
 20
31.089
 11
28.0031
 21
31.1374
  0
LINE
  8
0
 10
28.0031
 20
31.1374
 11
28.0794
 21
31.1811
  0
LINE
  8
0
 10
28.0794
 20
31.1811
 11
28.1583
 21
31.2199
  0
LINE
  8
0
 10
28.1583
 20
31.2199
 11
28.2395
 21
31.2538
  0
LINE
  8
0
 10
28.2395
 20
31.2538
 11
28.3227
 21
31.2824
  0
LINE
  8
0
 10
28.3227
 20
31.2824
 11
28.4075
 21
31.3057
  0
LINE
  8
0
 10
28.4075
 20
31.3057
 11
28.4936
 21
31.3237
  0
LINE
  8
0
 10
28.4936
 20
31.3237
 11
28.5806
 21
31.3363
  0
LINE
  8
0
 10
28.5806
 20
31.3363
 11
28.6683
 21
31.3433
  0
LINE
  8
0
 10
28.6683
 20
31.3433
 11
28.7562
 21
31.3449
  0
LINE
  8
0
 10
28.7562
 20
31.3449
 11
28.8441
 21
31.3409
  0
LINE
  8
0
 10
28.8441
 20
31.3409
 11
28.9315
 21
31.3314
  0
LINE
  8
0
 10
28.9315
 20
31.3314
 11
29.0182
 21
31.3164
  0
LINE
  8
0
 10
29.0182
 20
31.3164
 11
29.1037
 21
31.296
  0
LINE
  8
0
 10
29.1037
 20
31.296
 11
29.1879
 21
31.2703
  0
LINE
  8
0
 10
29.1879
 20
31.2703
 11
29.2702
 21
31.2393
  0
LINE
  8
0
 10
29.2702
 20
31.2393
 11
29.3504
 21
31.2033
  0
LINE
  8
0
 10
29.3504
 20
31.2033
 11
29.4282
 21
31.1623
  0
LINE
  8
0
 10
29.4282
 20
31.1623
 11
29.5033
 21
31.1165
  0
LINE
  8
0
 10
29.5033
 20
31.1165
 11
29.5753
 21
31.066
  0
LINE
  8
0
 10
29.5753
 20
31.066
 11
29.644
 21
31.0111
  0
LINE
  8
0
 10
29.644
 20
31.0111
 11
29.7092
 21
30.9521
  0
LINE
  8
0
 10
29.7092
 20
30.9521
 11
29.7705
 21
30.889
  0
LINE
  8
0
 10
29.7705
 20
30.889
 11
29.8278
 21
30.8222
  0
LINE
  8
0
 10
29.8278
 20
30.8222
 11
29.8807
 21
30.752
  0
LINE
  8
0
 10
29.8807
 20
30.752
 11
29.9291
 21
30.6786
  0
LINE
  8
0
 10
29.9291
 20
30.6786
 11
29.9728
 21
30.6022
  0
LINE
  8
0
 10
29.9728
 20
30.6022
 11
30.0116
 21
30.5233
  0
LINE
  8
0
 10
30.0116
 20
30.5233
 11
30.0454
 21
30.4421
  0
LINE
  8
0
 10
30.0454
 20
30.4421
 11
30.0741
 21
30.359
  0
LINE
  8
0
 10
30.0741
 20
30.359
 11
30.0974
 21
30.2742
  0
LINE
  8
0
 10
30.0974
 20
30.2742
 11
30.1154
 21
30.1881
  0
LINE
  8
0
 10
30.1154
 20
30.1881
 11
30.128
 21
30.101
  0
LINE
  8
0
 10
30.128
 20
30.101
 11
30.135
 21
30.0134
  0
LINE
  8
0
 10
30.135
 20
30.0134
 11
30.1366
 21
29.9254
  0
LINE
  8
0
 10
30.1366
 20
29.9254
 11
30.1326
 21
29.8376
  0
LINE
  8
0
 10
30.1326
 20
29.8376
 11
30.123
 21
29.7502
  0
LINE
  8
0
 10
30.123
 20
29.7502
 11
30.1081
 21
29.6635
  0
LINE
  8
0
 10
30.1081
 20
29.6635
 11
30.0877
 21
29.5779
  0
LINE
  8
0
 10
30.0877
 20
29.5779
 11
30.062
 21
29.4938
  0
LINE
  8
0
 10
30.062
 20
29.4938
 11
30.0311
 21
29.4115
  0
LINE
  8
0
 10
30.0311
 20
29.4115
 11
29.995
 21
29.3313
  0
LINE
  8
0
 10
29.995
 20
29.3313
 11
29.954
 21
29.2535
  0
LINE
  8
0
 10
29.954
 20
29.2535
 11
29.9082
 21
29.1784
  0
LINE
  8
0
 10
29.9082
 20
29.1784
 11
29.8577
 21
29.1064
  0
LINE
  8
0
 10
29.8577
 20
29.1064
 11
29.8028
 21
29.0376
  0
LINE
  8
0
 10
29.8028
 20
29.0376
 11
29.7438
 21
28.9725
  0
LINE
  8
0
 10
29.7438
 20
28.9725
 11
29.6807
 21
28.9111
  0
LINE
  8
0
 10
29.6807
 20
28.9111
 11
29.6139
 21
28.8539
  0
LINE
  8
0
 10
29.6139
 20
28.8539
 11
29.5437
 21
28.801
  0
LINE
  8
0
 10
29.5437
 20
28.801
 11
29.4703
 21
28.7526
  0
LINE
  8
0
 10
29.4703
 20
28.7526
 11
29.3939
 21
28.7089
  0
LINE
  8
0
 10
29.3939
 20
28.7089
 11
29.315
 21
28.67
  0
LINE
  8
0
 10
29.315
 20
28.67
 11
29.2338
 21
28.6362
  0
LINE
  8
0
 10
29.2338
 20
28.6362
 11
29.1507
 21
28.6076
  0
LINE
  8
0
 10
29.1507
 20
28.6076
 11
29.0659
 21
28.5842
  0
LINE
  8
0
 10
29.0659
 20
28.5842
 11
28.9798
 21
28.5663
  0
LINE
  8
0
 10
28.9798
 20
28.5663
 11
28.8927
 21
28.5537
  0
LINE
  8
0
 10
28.8927
 20
28.5537
 11
28.8051
 21
28.5467
  0
LINE
  8
0
 10
28.8051
 20
28.5467
 11
28.7171
 21
28.5451
  0
LINE
  8
0
 10
28.7171
 20
28.5451
 11
28.6293
 21
28.5491
  0
LINE
  8
0
 10
75.716
 20
25.5359
 11
89.5033
 21
27.967
  0
LINE
  8
0
 10
89.5033
 20
27.967
 11
91.9344
 21
14.1797
  0
LINE
  8
0
 10
91.9344
 20
14.1797
 11
78.1471
 21
11.7486
  0
LINE
  8
0
 10
78.1471
 20
11.7486
 11
75.716
 21
25.5359
  0
LINE
  8
0
 10
-91.9344
 20
14.1797
 11
-89.5033
 21
27.967
  0
LINE
  8
0
 10
-89.5033
 20
27.967
 11
-75.716
 21
25.5359
  0
LINE
  8
0
 10
-75.716
 20
25.5359
 11
-78.1471
 21
11.7486
  0
LINE
  8
0
 10
-78.1471
 20
11.7486
 11
-91.9344
 21
14.1797
  0
LINE
  8
0
 10
57.8729
 20
17.3125
 11
71.6602
 21
19.7436
  0
LINE
  8
0
 10
71.6602
 20
19.7436
 11
74.0913
 21
5.95631
  0
LINE
  8
0
 10
74.0913
 20
5.95631
 11
60.304
 21
3.52524
  0
LINE
  8
0
 10
60.304
 20
3.52524
 11
57.8729
 21
17.3125
  0
LINE
  8
0
 10
-74.0913
 20
5.95631
 11
-71.6602
 21
19.7436
  0
LINE
  8
0
 10
-71.6602
 20
19.7436
 11
-57.8729
 21
17.3125
  0
LINE
  8
0
 10
-57.8729
 20
17.3125
 11
-60.304
 21
3.52524
  0
LINE
  8
0
 10
-60.304
 20
3.52524
 11
-74.0913
 21
5.95631
  0
LINE
  8
0
 10
96.8584
 20
15.0479
 11
110.646
 21
17.479
  0
LINE
  8
0
 10
110.646
 20
17.479
 11
113.077
 21
3.69168
  0
LINE
  8
0
 10
113.077
 20
3.69168
 11
99.2895
 21
1.2606
  0
LINE
  8
0
 10
99.2895
 20
1.2606
 11
96.8584
 21
15.0479
  0
LINE
  8
0
 10
-113.077
 20
3.69168
 11
-110.646
 21
17.479
  0
LINE
  8
0
 10
-110.646
 20
17.479
 11
-96.8584
 21
15.0479
  0
LINE
  8
0
 10
-96.8584
 20
15.0479
 11
-99.2895
 21
1.2606
  0
LINE
  8
0
 10
-99.2895
 20
1.2606
 11
-113.077
 21
3.69168
  0
LINE
  8
0
 10
116.438
 20
13.4232
 11
130.225
 21
15.8543
  0
LINE
  8
0
 10
130.225
 20
15.8543
 11
132.656
 21
2.06696
  0
LINE
  8
0
 10
132.656
 20
2.06696
 11
118.869
 21
-0.364105
  0
LINE
  8
0
 10
118.869
 20
-0.364105
 11
116.438
 21
13.4232
  0
LINE
  8
0
 10
-132.656
 20
2.06696
 11
-130.225
 21
15.8543
  0
LINE
  8
0
 10
-130.225
 20
15.8543
 11
-116.438
 21
13.4232
  0
LINE
  8
0
 10
-116.438
 20
13.4232
 11
-118.869
 21
-0.364105
  0
LINE
  8
0
 10
-118.869
 20
-0.364105
 11
-132.656
 21
2.06696
  0
LINE
  8
0
 10
-152.236
 20
0.442215
 11
-149.805
 21
14.2295
  0
LINE
  8
0
 10
-149.805
 20
14.2295
 11
-136.018
 21
11.7985
  0
LINE
  8
0
 10
-136.018
 20
11.7985
 11
-138.449
 21
-1.98885
  0
LINE
  8
0
 10
-138.449
 20
-1.98885
 11
-152.236
 21
0.442215
  0
LINE
  8
0
 10
136.018
 20
11.7985
 11
149.805
 21
14.2295
  0
LINE
  8
0
 10
149.805
 20
14.2295
 11
152.236
 21
0.442215
  0
LINE
  8
0
 10
152.236
 20
0.442215
 11
138.449
 21
-1.98885
  0
LINE
  8
0
 10
138.449
 20
-1.98885
 11
136.018
 21
11.7985
  0
LINE
  8
0
 10
-56.2482
 20
-2.26701
 11
-53.8171
 21
11.5203
  0
LINE
  8
0
 10
-53.8171
 20
11.5203
 11
-40.0298
 21
9.08919
  0
LINE
  8
0
 10
-40.0298
 20
9.08919
 11
-42.4609
 21
-4.69809
  0
LINE
  8
0
 10
-42.4609
 20
-4.69809
 11
-56.2482
 21
-2.26701
  0
LINE
  8
0
 10
40.0298
 20
9.08919
 11
53.8171
 21
11.5203
  0
LINE
  8
0
 10
53.8171
 20
11.5203
 11
56.2482
 21
-2.26701
  0
LINE
  8
0
 10
56.2482
 20
-2.26701
 11
42.4609
 21
-4.69809
  0
LINE
  8
0
 10
42.4609
 20
-4.69809
 11
40.0298
 21
9.08919
  0
LINE
  8
0
 10
-95.2337
 20
-4.53166
 11
-92.8026
 21
9.25563
  0
LINE
  8
0
 10
-92.8026
 20
9.25563
 11
-79.0153
 21
6.82455
  0
LINE
  8
0
 10
-79.0153
 20
6.82455
 11
-81.4464
 21
-6.96274
  0
LINE
  8
0
 10
-81.4464
 20
-6.96274
 11
-95.2337
 21
-4.53166
  0
LINE
  8
0
 10
79.0153
 20
6.82455
 11
92.8026
 21
9.25563
  0
LINE
  8
0
 10
92.8026
 20
9.25563
 11
95.2337
 21
-4.53166
  0
LINE
  8
0
 10
95.2337
 20
-4.53166
 11
81.4464
 21
-6.96274
  0
LINE
  8
0
 10
81.4464
 20
-6.96274
 11
79.0153
 21
6.82455
  0
LINE
  8
0
 10
61.1722
 20
-1.39877
 11
74.9595
 21
1.03227
  0
LINE
  8
0
 10
74.9595
 20
1.03227
 11
77.3906
 21
-12.755
  0
LINE
  8
0
 10
77.3906
 20
-12.755
 11
63.6033
 21
-15.1861
  0
LINE
  8
0
 10
63.6033
 20
-15.1861
 11
61.1722
 21
-1.39877
  0
LINE
  8
0
 10
-77.3906
 20
-12.755
 11
-74.9595
 21
1.03227
  0
LINE
  8
0
 10
-74.9595
 20
1.03227
 11
-61.1722
 21
-1.39877
  0
LINE
  8
0
 10
-61.1722
 20
-1.39877
 11
-63.6033
 21
-15.1861
  0
LINE
  8
0
 10
-63.6033
 20
-15.1861
 11
-77.3906
 21
-12.755
  0
LINE
  8
0
 10
100.158
 20
-3.66342
 11
113.945
 21
-1.23235
  0
LINE
  8
0
 10
113.945
 20
-1.23235
 11
116.376
 21
-15.0197
  0
LINE
  8
0
 10
116.376
 20
-15.0197
 11
102.589
 21
-17.4507
  0
LINE
  8
0
 10
102.589
 20
-17.4507
 11
100.158
 21
-3.66342
  0
LINE
  8
0
 10
-116.376
 20
-15.0197
 11
-113.945
 21
-1.23235
  0
LINE
  8
0
 10
-113.945
 20
-1.23235
 11
-100.158
 21
-3.66342
  0
LINE
  8
0
 10
-100.158
 20
-3.66342
 11
-102.589
 21
-17.4507
  0
LINE
  8
0
 10
-102.589
 20
-17.4507
 11
-116.376
 21
-15.0197
  0
LINE
  8
0
 10
-135.956
 20
-16.6444
 11
-133.525
 21
-2.85707
  0
LINE
  8
0
 10
-133.525
 20
-2.85707
 11
-119.737
 21
-5.28815
  0
LINE
  8
0
 10
-119.737
 20
-5.28815
 11
-122.168
 21
-19.0755
  0
LINE
  8
0
 10
-122.168
 20
-19.0755
 11
-135.956
 21
-16.6444
  0
LINE
  8
0
 10
119.737
 20
-5.28815
 11
133.525
 21
-2.85707
  0
LINE
  8
0
 10
133.525
 20
-2.85707
 11
135.956
 21
-16.6444
  0
LINE
  8
0
 10
135.956
 20
-16.6444
 11
122.168
 21
-19.0755
  0
LINE
  8
0
 10
122.168
 20
-19.0755
 11
119.737
 21
-5.28815
  0
LINE
  8
0
 10
-155.535
 20
-18.2691
 11
-153.104
 21
-4.48181
  0
LINE
  8
0
 10
-153.104
 20
-4.48181
 11
-139.317
 21
-6.91289
  0
LINE
  8
0
 10
-139.317
 20
-6.91289
 11
-141.748
 21
-20.7002
  0
LINE
  8
0
 10
-141.748
 20
-20.7002
 11
-155.535
 21
-18.2691
  0
LINE
  8
0
 10
139.317
 20
-6.91289
 11
153.104
 21
-4.48181
  0
LINE
  8
0
 10
153.104
 20
-4.48181
 11
155.535
 21
-18.2691
  0
LINE
  8
0
 10
155.535
 20
-18.2691
 11
141.748
 21
-20.7002
  0
LINE
  8
0
 10
141.748
 20
-20.7002
 11
139.317
 21
-6.91289
  0
LINE
  8
0
 10
43.3291
 20
-9.62213
 11
57.1164
 21
-7.19106
  0
LINE
  8
0
 10
57.1164
 20
-7.19106
 11
59.5475
 21
-20.9784
  0
LINE
  8
0
 10
59.5475
 20
-20.9784
 11
45.7602
 21
-23.4094
  0
LINE
  8
0
 10
45.7602
 20
-23.4094
 11
43.3291
 21
-9.62213
  0
LINE
  8
0
 10
-59.5475
 20
-20.9784
 11
-57.1164
 21
-7.19106
  0
LINE
  8
0
 10
-57.1164
 20
-7.19106
 11
-43.3291
 21
-9.62213
  0
LINE
  8
0
 10
-43.3291
 20
-9.62213
 11
-45.7602
 21
-23.4094
  0
LINE
  8
0
 10
-45.7602
 20
-23.4094
 11
-59.5475
 21
-20.9784
  0
LINE
  8
0
 10
-98.533
 20
-23.243
 11
-96.102
 21
-9.4557
  0
LINE
  8
0
 10
-96.102
 20
-9.4557
 11
-82.3147
 21
-11.8868
  0
LINE
  8
0
 10
-82.3147
 20
-11.8868
 11
-84.7457
 21
-25.6741
  0
LINE
  8
0
 10
-84.7457
 20
-25.6741
 11
-98.533
 21
-23.243
  0
LINE
  8
0
 10
82.3147
 20
-11.8868
 11
96.102
 21
-9.4557
  0
LINE
  8
0
 10
96.102
 20
-9.4557
 11
98.533
 21
-23.243
  0
LINE
  8
0
 10
98.533
 20
-23.243
 11
84.7457
 21
-25.6741
  0
LINE
  8
0
 10
84.7457
 20
-25.6741
 11
82.3147
 21
-11.8868
  0
LINE
  8
0
 10
64.4715
 20
-20.1101
 11
78.2589
 21
-17.679
  0
LINE
  8
0
 10
78.2589
 20
-17.679
 11
80.6899
 21
-31.4664
  0
LINE
  8
0
 10
80.6899
 20
-31.4664
 11
66.9026
 21
-33.8974
  0
LINE
  8
0
 10
66.9026
 20
-33.8974
 11
64.4715
 21
-20.1101
  0
LINE
  8
0
 10
-80.6899
 20
-31.4664
 11
-78.2589
 21
-17.679
  0
LINE
  8
0
 10
-78.2589
 20
-17.679
 11
-64.4715
 21
-20.1101
  0
LINE
  8
0
 10
-64.4715
 20
-20.1101
 11
-66.9026
 21
-33.8974
  0
LINE
  8
0
 10
-66.9026
 20
-33.8974
 11
-80.6899
 21
-31.4664
  0
LINE
  8
0
 10
-119.675
 20
-33.731
 11
-117.244
 21
-19.9437
  0
LINE
  8
0
 10
-117.244
 20
-19.9437
 11
-103.457
 21
-22.3748
  0
LINE
  8
0
 10
-103.457
 20
-22.3748
 11
-105.888
 21
-36.1621
  0
LINE
  8
0
 10
-105.888
 20
-36.1621
 11
-119.675
 21
-33.731
  0
LINE
  8
0
 10
103.457
 20
-22.3748
 11
117.244
 21
-19.9437
  0
LINE
  8
0
 10
117.244
 20
-19.9437
 11
119.675
 21
-33.731
  0
LINE
  8
0
 10
119.675
 20
-33.731
 11
105.888
 21
-36.1621
  0
LINE
  8
0
 10
105.888
 20
-36.1621
 11
103.457
 21
-22.3748
  0
LINE
  8
0
 10
123.037
 20
-23.9995
 11
136.824
 21
-21.5684
  0
LINE
  8
0
 10
136.824
 20
-21.5684
 11
139.255
 21
-35.3557
  0
LINE
  8
0
 10
139.255
 20
-35.3557
 11
125.468
 21
-37.7868
  0
LINE
  8
0
 10
125.468
 20
-37.7868
 11
123.037
 21
-23.9995
  0
LINE
  8
0
 10
-139.255
 20
-35.3557
 11
-136.824
 21
-21.5684
  0
LINE
  8
0
 10
-136.824
 20
-21.5684
 11
-123.037
 21
-23.9995
  0
LINE
  8
0
 10
-123.037
 20
-23.9995
 11
-125.468
 21
-37.7868
  0
LINE
  8
0
 10
-125.468
 20
-37.7868
 11
-139.255
 21
-35.3557
  0
LINE
  8
0
 10
142.616
 20
-25.6242
 11
156.404
 21
-23.1932
  0
LINE
  8
0
 10
156.404
 20
-23.1932
 11
158.835
 21
-36.9805
  0
LINE
  8
0
 10
158.835
 20
-36.9805
 11
145.047
 21
-39.4115
  0
LINE
  8
0
 10
145.047
 20
-39.4115
 11
142.616
 21
-25.6242
  0
LINE
  8
0
 10
-158.835
 20
-36.9805
 11
-156.404
 21
-23.1932
  0
LINE
  8
0
 10
-156.404
 20
-23.1932
 11
-142.616
 21
-25.6242
  0
LINE
  8
0
 10
-142.616
 20
-25.6242
 11
-145.047
 21
-39.4115
  0
LINE
  8
0
 10
-145.047
 20
-39.4115
 11
-158.835
 21
-36.9805
  0
LINE
  8
0
 10
-62.8468
 20
-39.6897
 11
-60.4158
 21
-25.9024
  0
LINE
  8
0
 10
-60.4158
 20
-25.9024
 11
-46.6284
 21
-28.3335
  0
LINE
  8
0
 10
-46.6284
 20
-28.3335
 11
-49.0595
 21
-42.1208
  0
LINE
  8
0
 10
-49.0595
 20
-42.1208
 11
-62.8468
 21
-39.6897
  0
LINE
  8
0
 10
46.6284
 20
-28.3335
 11
60.4158
 21
-25.9024
  0
LINE
  8
0
 10
60.4158
 20
-25.9024
 11
62.8468
 21
-39.6897
  0
LINE
  8
0
 10
62.8468
 20
-39.6897
 11
49.0595
 21
-42.1208
  0
LINE
  8
0
 10
49.0595
 20
-42.1208
 11
46.6284
 21
-28.3335
  0
LINE
  8
0
 10
-101.832
 20
-41.9544
 11
-99.4013
 21
-28.1671
  0
LINE
  8
0
 10
-99.4013
 20
-28.1671
 11
-85.614
 21
-30.5981
  0
LINE
  8
0
 10
-85.614
 20
-30.5981
 11
-88.045
 21
-44.3854
  0
LINE
  8
0
 10
-88.045
 20
-44.3854
 11
-101.832
 21
-41.9544
  0
LINE
  8
0
 10
85.614
 20
-30.5981
 11
99.4013
 21
-28.1671
  0
LINE
  8
0
 10
99.4013
 20
-28.1671
 11
101.832
 21
-41.9544
  0
LINE
  8
0
 10
101.832
 20
-41.9544
 11
88.045
 21
-44.3854
  0
LINE
  8
0
 10
88.045
 20
-44.3854
 11
85.614
 21
-30.5981
  0
LINE
  8
0
 10
-83.9892
 20
-50.1777
 11
-81.5582
 21
-36.3904
  0
LINE
  8
0
 10
-81.5582
 20
-36.3904
 11
-67.7709
 21
-38.8215
  0
LINE
  8
0
 10
-67.7709
 20
-38.8215
 11
-70.2019
 21
-52.6088
  0
LINE
  8
0
 10
-70.2019
 20
-52.6088
 11
-83.9892
 21
-50.1777
  0
LINE
  8
0
 10
67.7709
 20
-38.8215
 11
81.5582
 21
-36.3904
  0
LINE
  8
0
 10
81.5582
 20
-36.3904
 11
83.9892
 21
-50.1777
  0
LINE
  8
0
 10
83.9892
 20
-50.1777
 11
70.2019
 21
-52.6088
  0
LINE
  8
0
 10
70.2019
 20
-52.6088
 11
67.7709
 21
-38.8215
  0
LINE
  8
0
 10
-122.975
 20
-52.4424
 11
-120.544
 21
-38.655
  0
LINE
  8
0
 10
-120.544
 20
-38.655
 11
-106.756
 21
-41.0861
  0
LINE
  8
0
 10
-106.756
 20
-41.0861
 11
-109.187
 21
-54.8734
  0
LINE
  8
0
 10
-109.187
 20
-54.8734
 11
-122.975
 21
-52.4424
  0
LINE
  8
0
 10
106.756
 20
-41.0861
 11
120.544
 21
-38.655
  0
LINE
  8
0
 10
120.544
 20
-38.655
 11
122.975
 21
-52.4424
  0
LINE
  8
0
 10
122.975
 20
-52.4424
 11
109.187
 21
-54.8734
  0
LINE
  8
0
 10
109.187
 20
-54.8734
 11
106.756
 21
-41.0861
  0
LINE
  8
0
 10
-142.554
 20
-54.0671
 11
-140.123
 21
-40.2798
  0
LINE
  8
0
 10
-140.123
 20
-40.2798
 11
-126.336
 21
-42.7108
  0
LINE
  8
0
 10
-126.336
 20
-42.7108
 11
-128.767
 21
-56.4982
  0
LINE
  8
0
 10
-128.767
 20
-56.4982
 11
-142.554
 21
-54.0671
  0
LINE
  8
0
 10
126.336
 20
-42.7108
 11
140.123
 21
-40.2798
  0
LINE
  8
0
 10
140.123
 20
-40.2798
 11
142.554
 21
-54.0671
  0
LINE
  8
0
 10
142.554
 20
-54.0671
 11
128.767
 21
-56.4982
  0
LINE
  8
0
 10
128.767
 20
-56.4982
 11
126.336
 21
-42.7108
  0
LINE
  8
0
 10
145.916
 20
-44.3356
 11
159.703
 21
-41.9045
  0
LINE
  8
0
 10
159.703
 20
-41.9045
 11
162.134
 21
-55.6918
  0
LINE
  8
0
 10
162.134
 20
-55.6918
 11
148.347
 21
-58.1229
  0
LINE
  8
0
 10
148.347
 20
-58.1229
 11
145.916
 21
-44.3356
  0
LINE
  8
0
 10
-162.134
 20
-55.6918
 11
-159.703
 21
-41.9045
  0
LINE
  8
0
 10
-159.703
 20
-41.9045
 11
-145.916
 21
-44.3356
  0
LINE
  8
0
 10
-145.916
 20
-44.3356
 11
-148.347
 21
-58.1229
  0
LINE
  8
0
 10
-148.347
 20
-58.1229
 11
-162.134
 21
-55.6918
  0
LINE
  8
0
 10
49.9278
 20
-47.0448
 11
63.7151
 21
-44.6138
  0
LINE
  8
0
 10
63.7151
 20
-44.6138
 11
66.1461
 21
-58.4011
  0
LINE
  8
0
 10
66.1461
 20
-58.4011
 11
52.3588
 21
-60.8321
  0
LINE
  8
0
 10
52.3588
 20
-60.8321
 11
49.9278
 21
-47.0448
  0
LINE
  8
0
 10
-66.1461
 20
-58.4011
 11
-63.7151
 21
-44.6138
  0
LINE
  8
0
 10
-63.7151
 20
-44.6138
 11
-49.9278
 21
-47.0448
  0
LINE
  8
0
 10
-49.9278
 20
-47.0448
 11
-52.3588
 21
-60.8321
  0
LINE
  8
0
 10
-52.3588
 20
-60.8321
 11
-66.1461
 21
-58.4011
  0
LINE
  8
0
 10
-105.132
 20
-60.6657
 11
-102.701
 21
-46.8784
  0
LINE
  8
0
 10
-102.701
 20
-46.8784
 11
-88.9133
 21
-49.3095
  0
LINE
  8
0
 10
-88.9133
 20
-49.3095
 11
-91.3444
 21
-63.0968
  0
LINE
  8
0
 10
-91.3444
 20
-63.0968
 11
-105.132
 21
-60.6657
  0
LINE
  8
0
 10
88.9133
 20
-49.3095
 11
102.701
 21
-46.8784
  0
LINE
  8
0
 10
102.701
 20
-46.8784
 11
105.132
 21
-60.6657
  0
LINE
  8
0
 10
105.132
 20
-60.6657
 11
91.3444
 21
-63.0968
  0
LINE
  8
0
 10
91.3444
 20
-63.0968
 11
88.9133
 21
-49.3095
  0
LINE
  8
0
 10
-87.2886
 20
-68.8891
 11
-84.8575
 21
-55.1017
  0
LINE
  8
0
 10
-84.8575
 20
-55.1017
 11
-71.0702
 21
-57.5328
  0
LINE
  8
0
 10
-71.0702
 20
-57.5328
 11
-73.5013
 21
-71.3201
  0
LINE
  8
0
 10
-73.5013
 20
-71.3201
 11
-87.2886
 21
-68.8891
  0
LINE
  8
0
 10
71.0702
 20
-57.5328
 11
84.8575
 21
-55.1017
  0
LINE
  8
0
 10
84.8575
 20
-55.1017
 11
87.2886
 21
-68.8891
  0
LINE
  8
0
 10
87.2886
 20
-68.8891
 11
73.5013
 21
-71.3201
  0
LINE
  8
0
 10
73.5013
 20
-71.3201
 11
71.0702
 21
-57.5328
  0
LINE
  8
0
 10
33.6475
 20
-64.1315
 11
47.4348
 21
-61.7004
  0
LINE
  8
0
 10
47.4348
 20
-61.7004
 11
49.8659
 21
-75.4877
  0
LINE
  8
0
 10
49.8659
 20
-75.4877
 11
36.0786
 21
-77.9188
  0
LINE
  8
0
 10
36.0786
 20
-77.9188
 11
33.6475
 21
-64.1315
  0
LINE
  8
0
 10
-49.8659
 20
-75.4877
 11
-47.4348
 21
-61.7004
  0
LINE
  8
0
 10
-47.4348
 20
-61.7004
 11
-33.6475
 21
-64.1315
  0
LINE
  8
0
 10
-33.6475
 20
-64.1315
 11
-36.0786
 21
-77.9188
  0
LINE
  8
0
 10
-36.0786
 20
-77.9188
 11
-49.8659
 21
-75.4877
  0
LINE
  8
0
 10
53.2271
 20
-65.7562
 11
67.0144
 21
-63.3251
  0
LINE
  8
0
 10
67.0144
 20
-63.3251
 11
69.4454
 21
-77.1124
  0
LINE
  8
0
 10
69.4454
 20
-77.1124
 11
55.6581
 21
-79.5435
  0
LINE
  8
0
 10
55.6581
 20
-79.5435
 11
53.2271
 21
-65.7562
  0
LINE
  8
0
 10
-69.4454
 20
-77.1124
 11
-67.0144
 21
-63.3251
  0
LINE
  8
0
 10
-67.0144
 20
-63.3251
 11
-53.2271
 21
-65.7562
  0
LINE
  8
0
 10
-53.2271
 20
-65.7562
 11
-55.6581
 21
-79.5435
  0
LINE
  8
0
 10
-55.6581
 20
-79.5435
 11
-69.4454
 21
-77.1124
  0
LINE
  8
0
 10
14.9361
 20
-67.4308
 11
28.7234
 21
-64.9997
  0
LINE
  8
0
 10
28.7234
 20
-64.9997
 11
31.1545
 21
-78.787
  0
LINE
  8
0
 10
31.1545
 20
-78.787
 11
17.3672
 21
-81.2181
  0
LINE
  8
0
 10
17.3672
 20
-81.2181
 11
14.9361
 21
-67.4308
  0
LINE
  8
0
 10
-31.1545
 20
-78.787
 11
-28.7234
 21
-64.9997
  0
LINE
  8
0
 10
-28.7234
 20
-64.9997
 11
-14.9361
 21
-67.4308
  0
LINE
  8
0
 10
-14.9361
 20
-67.4308
 11
-17.3672
 21
-81.2181
  0
LINE
  8
0
 10
-17.3672
 20
-81.2181
 11
-31.1545
 21
-78.787
  0
LINE
  8
0
 10
171.583
 20
-68.0954
 11
171.496
 21
-68.0859
  0
LINE
  8
0
 10
171.496
 20
-68.0859
 11
171.409
 21
-68.071
  0
LINE
  8
0
 10
171.409
 20
-68.071
 11
171.324
 21
-68.0506
  0
LINE
  8
0
 10
171.324
 20
-68.0506
 11
171.239
 21
-68.0248
  0
LINE
  8
0
 10
171.239
 20
-68.0248
 11
171.157
 21
-67.9939
  0
LINE
  8
0
 10
171.157
 20
-67.9939
 11
171.077
 21
-67.9579
  0
LINE
  8
0
 10
171.077
 20
-67.9579
 11
170.999
 21
-67.9168
  0
LINE
  8
0
 10
170.999
 20
-67.9168
 11
170.924
 21
-67.871
  0
LINE
  8
0
 10
170.924
 20
-67.871
 11
170.852
 21
-67.8206
  0
LINE
  8
0
 10
170.852
 20
-67.8206
 11
170.783
 21
-67.7657
  0
LINE
  8
0
 10
170.783
 20
-67.7657
 11
170.718
 21
-67.7066
  0
LINE
  8
0
 10
170.718
 20
-67.7066
 11
170.657
 21
-67.6436
  0
LINE
  8
0
 10
170.657
 20
-67.6436
 11
170.6
 21
-67.5768
  0
LINE
  8
0
 10
170.6
 20
-67.5768
 11
170.547
 21
-67.5065
  0
LINE
  8
0
 10
170.547
 20
-67.5065
 11
170.498
 21
-67.4331
  0
LINE
  8
0
 10
170.498
 20
-67.4331
 11
170.454
 21
-67.3568
  0
LINE
  8
0
 10
170.454
 20
-67.3568
 11
170.416
 21
-67.2779
  0
LINE
  8
0
 10
170.416
 20
-67.2779
 11
170.382
 21
-67.1967
  0
LINE
  8
0
 10
170.382
 20
-67.1967
 11
170.353
 21
-67.1135
  0
LINE
  8
0
 10
170.353
 20
-67.1135
 11
170.33
 21
-67.0287
  0
LINE
  8
0
 10
170.33
 20
-67.0287
 11
170.312
 21
-66.9427
  0
LINE
  8
0
 10
170.312
 20
-66.9427
 11
170.299
 21
-66.8556
  0
LINE
  8
0
 10
170.299
 20
-66.8556
 11
170.292
 21
-66.7679
  0
LINE
  8
0
 10
170.292
 20
-66.7679
 11
170.291
 21
-66.68
  0
LINE
  8
0
 10
170.291
 20
-66.68
 11
170.295
 21
-66.5921
  0
LINE
  8
0
 10
170.295
 20
-66.5921
 11
170.304
 21
-66.5047
  0
LINE
  8
0
 10
170.304
 20
-66.5047
 11
170.319
 21
-66.418
  0
LINE
  8
0
 10
170.319
 20
-66.418
 11
170.34
 21
-66.3325
  0
LINE
  8
0
 10
170.34
 20
-66.3325
 11
170.365
 21
-66.2484
  0
LINE
  8
0
 10
170.365
 20
-66.2484
 11
170.396
 21
-66.166
  0
LINE
  8
0
 10
170.396
 20
-66.166
 11
170.432
 21
-66.0858
  0
LINE
  8
0
 10
170.432
 20
-66.0858
 11
170.473
 21
-66.008
  0
LINE
  8
0
 10
170.473
 20
-66.008
 11
170.519
 21
-65.933
  0
LINE
  8
0
 10
170.519
 20
-65.933
 11
170.57
 21
-65.8609
  0
LINE
  8
0
 10
170.57
 20
-65.8609
 11
170.624
 21
-65.7922
  0
LINE
  8
0
 10
170.624
 20
-65.7922
 11
170.684
 21
-65.727
  0
LINE
  8
0
 10
170.684
 20
-65.727
 11
170.747
 21
-65.6657
  0
LINE
  8
0
 10
170.747
 20
-65.6657
 11
170.813
 21
-65.6085
  0
LINE
  8
0
 10
170.813
 20
-65.6085
 11
170.884
 21
-65.5555
  0
LINE
  8
0
 10
170.884
 20
-65.5555
 11
170.957
 21
-65.5071
  0
LINE
  8
0
 10
170.957
 20
-65.5071
 11
171.033
 21
-65.4634
  0
LINE
  8
0
 10
171.033
 20
-65.4634
 11
171.112
 21
-65.4246
  0
LINE
  8
0
 10
171.112
 20
-65.4246
 11
171.193
 21
-65.3908
  0
LINE
  8
0
 10
171.193
 20
-65.3908
 11
171.277
 21
-65.3622
  0
LINE
  8
0
 10
171.277
 20
-65.3622
 11
171.361
 21
-65.3388
  0
LINE
  8
0
 10
171.361
 20
-65.3388
 11
171.448
 21
-65.3208
  0
LINE
  8
0
 10
171.448
 20
-65.3208
 11
171.535
 21
-65.3083
  0
LINE
  8
0
 10
171.535
 20
-65.3083
 11
171.622
 21
-65.3012
  0
LINE
  8
0
 10
171.622
 20
-65.3012
 11
171.71
 21
-65.2997
  0
LINE
  8
0
 10
171.71
 20
-65.2997
 11
171.798
 21
-65.3037
  0
LINE
  8
0
 10
171.798
 20
-65.3037
 11
171.885
 21
-65.3132
  0
LINE
  8
0
 10
171.885
 20
-65.3132
 11
171.972
 21
-65.3281
  0
LINE
  8
0
 10
171.972
 20
-65.3281
 11
172.058
 21
-65.3485
  0
LINE
  8
0
 10
172.058
 20
-65.3485
 11
172.142
 21
-65.3742
  0
LINE
  8
0
 10
172.142
 20
-65.3742
 11
172.224
 21
-65.4052
  0
LINE
  8
0
 10
172.224
 20
-65.4052
 11
172.304
 21
-65.4412
  0
LINE
  8
0
 10
172.304
 20
-65.4412
 11
172.382
 21
-65.4823
  0
LINE
  8
0
 10
172.382
 20
-65.4823
 11
172.457
 21
-65.5281
  0
LINE
  8
0
 10
172.457
 20
-65.5281
 11
172.529
 21
-65.5785
  0
LINE
  8
0
 10
172.529
 20
-65.5785
 11
172.598
 21
-65.6334
  0
LINE
  8
0
 10
172.598
 20
-65.6334
 11
172.663
 21
-65.6925
  0
LINE
  8
0
 10
172.663
 20
-65.6925
 11
172.724
 21
-65.7555
  0
LINE
  8
0
 10
172.724
 20
-65.7555
 11
172.782
 21
-65.8223
  0
LINE
  8
0
 10
172.782
 20
-65.8223
 11
172.835
 21
-65.8925
  0
LINE
  8
0
 10
172.835
 20
-65.8925
 11
172.883
 21
-65.966
  0
LINE
  8
0
 10
172.883
 20
-65.966
 11
172.927
 21
-66.0423
  0
LINE
  8
0
 10
172.927
 20
-66.0423
 11
172.966
 21
-66.1212
  0
LINE
  8
0
 10
172.966
 20
-66.1212
 11
172.999
 21
-66.2024
  0
LINE
  8
0
 10
172.999
 20
-66.2024
 11
173.028
 21
-66.2856
  0
LINE
  8
0
 10
173.028
 20
-66.2856
 11
173.051
 21
-66.3703
  0
LINE
  8
0
 10
173.051
 20
-66.3703
 11
173.069
 21
-66.4564
  0
LINE
  8
0
 10
173.069
 20
-66.4564
 11
173.082
 21
-66.5435
  0
LINE
  8
0
 10
173.082
 20
-66.5435
 11
173.089
 21
-66.6311
  0
LINE
  8
0
 10
173.089
 20
-66.6311
 11
173.09
 21
-66.7191
  0
LINE
  8
0
 10
173.09
 20
-66.7191
 11
173.086
 21
-66.8069
  0
LINE
  8
0
 10
173.086
 20
-66.8069
 11
173.077
 21
-66.8944
  0
LINE
  8
0
 10
173.077
 20
-66.8944
 11
173.062
 21
-66.981
  0
LINE
  8
0
 10
173.062
 20
-66.981
 11
173.042
 21
-67.0666
  0
LINE
  8
0
 10
173.042
 20
-67.0666
 11
173.016
 21
-67.1507
  0
LINE
  8
0
 10
173.016
 20
-67.1507
 11
172.985
 21
-67.233
  0
LINE
  8
0
 10
172.985
 20
-67.233
 11
172.949
 21
-67.3133
  0
LINE
  8
0
 10
172.949
 20
-67.3133
 11
172.908
 21
-67.3911
  0
LINE
  8
0
 10
172.908
 20
-67.3911
 11
172.862
 21
-67.4661
  0
LINE
  8
0
 10
172.862
 20
-67.4661
 11
172.812
 21
-67.5382
  0
LINE
  8
0
 10
172.812
 20
-67.5382
 11
172.757
 21
-67.6069
  0
LINE
  8
0
 10
172.757
 20
-67.6069
 11
172.698
 21
-67.6721
  0
LINE
  8
0
 10
172.698
 20
-67.6721
 11
172.635
 21
-67.7334
  0
LINE
  8
0
 10
172.635
 20
-67.7334
 11
172.568
 21
-67.7906
  0
LINE
  8
0
 10
172.568
 20
-67.7906
 11
172.498
 21
-67.8436
  0
LINE
  8
0
 10
172.498
 20
-67.8436
 11
172.424
 21
-67.892
  0
LINE
  8
0
 10
172.424
 20
-67.892
 11
172.348
 21
-67.9357
  0
LINE
  8
0
 10
172.348
 20
-67.9357
 11
172.269
 21
-67.9745
  0
LINE
  8
0
 10
172.269
 20
-67.9745
 11
172.188
 21
-68.0083
  0
LINE
  8
0
 10
172.188
 20
-68.0083
 11
172.105
 21
-68.0369
  0
LINE
  8
0
 10
172.105
 20
-68.0369
 11
172.02
 21
-68.0603
  0
LINE
  8
0
 10
172.02
 20
-68.0603
 11
171.934
 21
-68.0783
  0
LINE
  8
0
 10
171.934
 20
-68.0783
 11
171.847
 21
-68.0908
  0
LINE
  8
0
 10
171.847
 20
-68.0908
 11
171.759
 21
-68.0979
  0
LINE
  8
0
 10
171.759
 20
-68.0979
 11
171.671
 21
-68.0994
  0
LINE
  8
0
 10
171.671
 20
-68.0994
 11
171.583
 21
-68.0954
  0
LINE
  8
0
 10
-171.759
 20
-68.0979
 11
-171.847
 21
-68.0908
  0
LINE
  8
0
 10
-171.847
 20
-68.0908
 11
-171.934
 21
-68.0783
  0
LINE
  8
0
 10
-171.934
 20
-68.0783
 11
-172.02
 21
-68.0603
  0
LINE
  8
0
 10
-172.02
 20
-68.0603
 11
-172.105
 21
-68.0369
  0
LINE
  8
0
 10
-172.105
 20
-68.0369
 11
-172.188
 21
-68.0083
  0
LINE
  8
0
 10
-172.188
 20
-68.0083
 11
-172.269
 21
-67.9745
  0
LINE
  8
0
 10
-172.269
 20
-67.9745
 11
-172.348
 21
-67.9357
  0
LINE
  8
0
 10
-172.348
 20
-67.9357
 11
-172.424
 21
-67.892
  0
LINE
  8
0
 10
-172.424
 20
-67.892
 11
-172.498
 21
-67.8436
  0
LINE
  8
0
 10
-172.498
 20
-67.8436
 11
-172.568
 21
-67.7906
  0
LINE
  8
0
 10
-172.568
 20
-67.7906
 11
-172.635
 21
-67.7334
  0
LINE
  8
0
 10
-172.635
 20
-67.7334
 11
-172.698
 21
-67.6721
  0
LINE
  8
0
 10
-172.698
 20
-67.6721
 11
-172.757
 21
-67.6069
  0
LINE
  8
0
 10
-172.757
 20
-67.6069
 11
-172.812
 21
-67.5382
  0
LINE
  8
0
 10
-172.812
 20
-67.5382
 11
-172.862
 21
-67.4661
  0
LINE
  8
0
 10
-172.862
 20
-67.4661
 11
-172.908
 21
-67.3911
  0
LINE
  8
0
 10
-172.908
 20
-67.3911
 11
-172.949
 21
-67.3133
  0
LINE
  8
0
 10
-172.949
 20
-67.3133
 11
-172.985
 21
-67.233
  0
LINE
  8
0
 10
-172.985
 20
-67.233
 11
-173.016
 21
-67.1507
  0
LINE
  8
0
 10
-173.016
 20
-67.1507
 11
-173.042
 21
-67.0666
  0
LINE
  8
0
 10
-173.042
 20
-67.0666
 11
-173.062
 21
-66.981
  0
LINE
  8
0
 10
-173.062
 20
-66.981
 11
-173.077
 21
-66.8944
  0
LINE
  8
0
 10
-173.077
 20
-66.8944
 11
-173.086
 21
-66.8069
  0
LINE
  8
0
 10
-173.086
 20
-66.8069
 11
-173.09
 21
-66.7191
  0
LINE
  8
0
 10
-173.09
 20
-66.7191
 11
-173.089
 21
-66.6311
  0
LINE
  8
0
 10
-173.089
 20
-66.6311
 11
-173.082
 21
-66.5435
  0
LINE
  8
0
 10
-173.082
 20
-66.5435
 11
-173.069
 21
-66.4564
  0
LINE
  8
0
 10
-173.069
 20
-66.4564
 11
-173.051
 21
-66.3703
  0
LINE
  8
0
 10
-173.051
 20
-66.3703
 11
-173.028
 21
-66.2856
  0
LINE
  8
0
 10
-173.028
 20
-66.2856
 11
-172.999
 21
-66.2024
  0
LINE
  8
0
 10
-172.999
 20
-66.2024
 11
-172.966
 21
-66.1212
  0
LINE
  8
0
 10
-172.966
 20
-66.1212
 11
-172.927
 21
-66.0423
  0
LINE
  8
0
 10
-172.927
 20
-66.0423
 11
-172.883
 21
-65.966
  0
LINE
  8
0
 10
-172.883
 20
-65.966
 11
-172.835
 21
-65.8925
  0
LINE
  8
0
 10
-172.835
 20
-65.8925
 11
-172.782
 21
-65.8223
  0
LINE
  8
0
 10
-172.782
 20
-65.8223
 11
-172.724
 21
-65.7555
  0
LINE
  8
0
 10
-172.724
 20
-65.7555
 11
-172.663
 21
-65.6925
  0
LINE
  8
0
 10
-172.663
 20
-65.6925
 11
-172.598
 21
-65.6334
  0
LINE
  8
0
 10
-172.598
 20
-65.6334
 11
-172.529
 21
-65.5785
  0
LINE
  8
0
 10
-172.529
 20
-65.5785
 11
-172.457
 21
-65.5281
  0
LINE
  8
0
 10
-172.457
 20
-65.5281
 11
-172.382
 21
-65.4823
  0
LINE
  8
0
 10
-172.382
 20
-65.4823
 11
-172.304
 21
-65.4412
  0
LINE
  8
0
 10
-172.304
 20
-65.4412
 11
-172.224
 21
-65.4052
  0
LINE
  8
0
 10
-172.224
 20
-65.4052
 11
-172.142
 21
-65.3742
  0
LINE
  8
0
 10
-172.142
 20
-65.3742
 11
-172.058
 21
-65.3485
  0
LINE
  8
0
 10
-172.058
 20
-65.3485
 11
-171.972
 21
-65.3281
  0
LINE
  8
0
 10
-171.972
 20
-65.3281
 11
-171.885
 21
-65.3132
  0
LINE
  8
0
 10
-171.885
 20
-65.3132
 11
-171.798
 21
-65.3037
  0
LINE
  8
0
 10
-171.798
 20
-65.3037
 11
-171.71
 21
-65.2997
  0
LINE
  8
0
 10
-171.71
 20
-65.2997
 11
-171.622
 21
-65.3012
  0
LINE
  8
0
 10
-171.622
 20
-65.3012
 11
-171.535
 21
-65.3083
  0
LINE
  8
0
 10
-171.535
 20
-65.3083
 11
-171.448
 21
-65.3208
  0
LINE
  8
0
 10
-171.448
 20
-65.3208
 11
-171.361
 21
-65.3388
  0
LINE
  8
0
 10
-171.361
 20
-65.3388
 11
-171.277
 21
-65.3622
  0
LINE
  8
0
 10
-171.277
 20
-65.3622
 11
-171.193
 21
-65.3908
  0
LINE
  8
0
 10
-171.193
 20
-65.3908
 11
-171.112
 21
-65.4246
  0
LINE
  8
0
 10
-171.112
 20
-65.4246
 11
-171.033
 21
-65.4634
  0
LINE
  8
0
 10
-171.033
 20
-65.4634
 11
-170.957
 21
-65.5071
  0
LINE
  8
0
 10
-170.957
 20
-65.5071
 11
-170.884
 21
-65.5555
  0
LINE
  8
0
 10
-170.884
 20
-65.5555
 11
-170.813
 21
-65.6085
  0
LINE
  8
0
 10
-170.813
 20
-65.6085
 11
-170.747
 21
-65.6657
  0
LINE
  8
0
 10
-170.747
 20
-65.6657
 11
-170.684
 21
-65.727
  0
LINE
  8
0
 10
-170.684
 20
-65.727
 11
-170.624
 21
-65.7922
  0
LINE
  8
0
 10
-170.624
 20
-65.7922
 11
-170.57
 21
-65.8609
  0
LINE
  8
0
 10
-170.57
 20
-65.8609
 11
-170.519
 21
-65.933
  0
LINE
  8
0
 10
-170.519
 20
-65.933
 11
-170.473
 21
-66.008
  0
LINE
  8
0
 10
-170.473
 20
-66.008
 11
-170.432
 21
-66.0858
  0
LINE
  8
0
 10
-170.432
 20
-66.0858
 11
-170.396
 21
-66.166
  0
LINE
  8
0
 10
-170.396
 20
-66.166
 11
-170.365
 21
-66.2484
  0
LINE
  8
0
 10
-170.365
 20
-66.2484
 11
-170.34
 21
-66.3325
  0
LINE
  8
0
 10
-170.34
 20
-66.3325
 11
-170.319
 21
-66.418
  0
LINE
  8
0
 10
-170.319
 20
-66.418
 11
-170.304
 21
-66.5047
  0
LINE
  8
0
 10
-170.304
 20
-66.5047
 11
-170.295
 21
-66.5921
  0
LINE
  8
0
 10
-170.295
 20
-66.5921
 11
-170.291
 21
-66.68
  0
LINE
  8
0
 10
-170.291
 20
-66.68
 11
-170.292
 21
-66.7679
  0
LINE
  8
0
 10
-170.292
 20
-66.7679
 11
-170.299
 21
-66.8556
  0
LINE
  8
0
 10
-170.299
 20
-66.8556
 11
-170.312
 21
-66.9427
  0
LINE
  8
0
 10
-170.312
 20
-66.9427
 11
-170.33
 21
-67.0287
  0
LINE
  8
0
 10
-170.33
 20
-67.0287
 11
-170.353
 21
-67.1135
  0
LINE
  8
0
 10
-170.353
 20
-67.1135
 11
-170.382
 21
-67.1967
  0
LINE
  8
0
 10
-170.382
 20
-67.1967
 11
-170.416
 21
-67.2779
  0
LINE
  8
0
 10
-170.416
 20
-67.2779
 11
-170.454
 21
-67.3568
  0
LINE
  8
0
 10
-170.454
 20
-67.3568
 11
-170.498
 21
-67.4331
  0
LINE
  8
0
 10
-170.498
 20
-67.4331
 11
-170.547
 21
-67.5065
  0
LINE
  8
0
 10
-170.547
 20
-67.5065
 11
-170.6
 21
-67.5768
  0
LINE
  8
0
 10
-170.6
 20
-67.5768
 11
-170.657
 21
-67.6436
  0
LINE
  8
0
 10
-170.657
 20
-67.6436
 11
-170.718
 21
-67.7066
  0
LINE
  8
0
 10
-170.718
 20
-67.7066
 11
-170.783
 21
-67.7657
  0
LINE
  8
0
 10
-170.783
 20
-67.7657
 11
-170.852
 21
-67.8206
  0
LINE
  8
0
 10
-170.852
 20
-67.8206
 11
-170.924
 21
-67.871
  0
LINE
  8
0
 10
-170.924
 20
-67.871
 11
-170.999
 21
-67.9168
  0
LINE
  8
0
 10
-170.999
 20
-67.9168
 11
-171.077
 21
-67.9579
  0
LINE
  8
0
 10
-171.077
 20
-67.9579
 11
-171.157
 21
-67.9939
  0
LINE
  8
0
 10
-171.157
 20
-67.9939
 11
-171.239
 21
-68.0248
  0
LINE
  8
0
 10
-171.239
 20
-68.0248
 11
-171.324
 21
-68.0506
  0
LINE
  8
0
 10
-171.324
 20
-68.0506
 11
-171.409
 21
-68.071
  0
LINE
  8
0
 10
-171.409
 20
-68.071
 11
-171.496
 21
-68.0859
  0
LINE
  8
0
 10
-171.496
 20
-68.0859
 11
-171.583
 21
-68.0954
  0
LINE
  8
0
 10
-171.583
 20
-68.0954
 11
-171.671
 21
-68.0994
  0
LINE
  8
0
 10
-171.671
 20
-68.0994
 11
-171.759
 21
-68.0979
  0
LINE
  8
0
 10
12.0444
 20
-96.2264
 11
11.9569
 21
-96.2169
  0
LINE
  8
0
 10
11.9569
 20
-96.2169
 11
11.8703
 21
-96.202
  0
LINE
  8
0
 10
11.8703
 20
-96.202
 11
11.7847
 21
-96.1816
  0
LINE
  8
0
 10
11.7847
 20
-96.1816
 11
11.7006
 21
-96.1559
  0
LINE
  8
0
 10
11.7006
 20
-96.1559
 11
11.6183
 21
-96.1249
  0
LINE
  8
0
 10
11.6183
 20
-96.1249
 11
11.538
 21
-96.0889
  0
LINE
  8
0
 10
11.538
 20
-96.0889
 11
11.4603
 21
-96.0478
  0
LINE
  8
0
 10
11.4603
 20
-96.0478
 11
11.3852
 21
-96.002
  0
LINE
  8
0
 10
11.3852
 20
-96.002
 11
11.3131
 21
-95.9516
  0
LINE
  8
0
 10
11.3131
 20
-95.9516
 11
11.2444
 21
-95.8967
  0
LINE
  8
0
 10
11.2444
 20
-95.8967
 11
11.1792
 21
-95.8376
  0
LINE
  8
0
 10
11.1792
 20
-95.8376
 11
11.1179
 21
-95.7746
  0
LINE
  8
0
 10
11.1179
 20
-95.7746
 11
11.0607
 21
-95.7078
  0
LINE
  8
0
 10
11.0607
 20
-95.7078
 11
11.0078
 21
-95.6375
  0
LINE
  8
0
 10
11.0078
 20
-95.6375
 11
10.9594
 21
-95.5641
  0
LINE
  8
0
 10
10.9594
 20
-95.5641
 11
10.9156
 21
-95.4878
  0
LINE
  8
0
 10
10.9156
 20
-95.4878
 11
10.8768
 21
-95.4089
  0
LINE
  8
0
 10
10.8768
 20
-95.4089
 11
10.843
 21
-95.3277
  0
LINE
  8
0
 10
10.843
 20
-95.3277
 11
10.8144
 21
-95.2445
  0
LINE
  8
0
 10
10.8144
 20
-95.2445
 11
10.791
 21
-95.1597
  0
LINE
  8
0
 10
10.791
 20
-95.1597
 11
10.773
 21
-95.0737
  0
LINE
  8
0
 10
10.773
 20
-95.0737
 11
10.7605
 21
-94.9866
  0
LINE
  8
0
 10
10.7605
 20
-94.9866
 11
10.7534
 21
-94.8989
  0
LINE
  8
0
 10
10.7534
 20
-94.8989
 11
10.7519
 21
-94.811
  0
LINE
  8
0
 10
10.7519
 20
-94.811
 11
10.7559
 21
-94.7231
  0
LINE
  8
0
 10
10.7559
 20
-94.7231
 11
10.7654
 21
-94.6357
  0
LINE
  8
0
 10
10.7654
 20
-94.6357
 11
10.7804
 21
-94.549
  0
LINE
  8
0
 10
10.7804
 20
-94.549
 11
10.8007
 21
-94.4635
  0
LINE
  8
0
 10
10.8007
 20
-94.4635
 11
10.8265
 21
-94.3794
  0
LINE
  8
0
 10
10.8265
 20
-94.3794
 11
10.8574
 21
-94.297
  0
LINE
  8
0
 10
10.8574
 20
-94.297
 11
10.8934
 21
-94.2168
  0
LINE
  8
0
 10
10.8934
 20
-94.2168
 11
10.9345
 21
-94.139
  0
LINE
  8
0
 10
10.9345
 20
-94.139
 11
10.9803
 21
-94.0639
  0
LINE
  8
0
 10
10.9803
 20
-94.0639
 11
11.0307
 21
-93.9919
  0
LINE
  8
0
 10
11.0307
 20
-93.9919
 11
11.0856
 21
-93.9232
  0
LINE
  8
0
 10
11.0856
 20
-93.9232
 11
11.1447
 21
-93.858
  0
LINE
  8
0
 10
11.1447
 20
-93.858
 11
11.2077
 21
-93.7967
  0
LINE
  8
0
 10
11.2077
 20
-93.7967
 11
11.2745
 21
-93.7395
  0
LINE
  8
0
 10
11.2745
 20
-93.7395
 11
11.3448
 21
-93.6865
  0
LINE
  8
0
 10
11.3448
 20
-93.6865
 11
11.4182
 21
-93.6381
  0
LINE
  8
0
 10
11.4182
 20
-93.6381
 11
11.4945
 21
-93.5944
  0
LINE
  8
0
 10
11.4945
 20
-93.5944
 11
11.5734
 21
-93.5556
  0
LINE
  8
0
 10
11.5734
 20
-93.5556
 11
11.6546
 21
-93.5218
  0
LINE
  8
0
 10
11.6546
 20
-93.5218
 11
11.7378
 21
-93.4932
  0
LINE
  8
0
 10
11.7378
 20
-93.4932
 11
11.8226
 21
-93.4698
  0
LINE
  8
0
 10
11.8226
 20
-93.4698
 11
11.9086
 21
-93.4518
  0
LINE
  8
0
 10
11.9086
 20
-93.4518
 11
11.9957
 21
-93.4393
  0
LINE
  8
0
 10
11.9957
 20
-93.4393
 11
12.0834
 21
-93.4322
  0
LINE
  8
0
 10
12.0834
 20
-93.4322
 11
12.1713
 21
-93.4307
  0
LINE
  8
0
 10
12.1713
 20
-93.4307
 11
12.2592
 21
-93.4347
  0
LINE
  8
0
 10
12.2592
 20
-93.4347
 11
12.3466
 21
-93.4442
  0
LINE
  8
0
 10
12.3466
 20
-93.4442
 11
12.4333
 21
-93.4591
  0
LINE
  8
0
 10
12.4333
 20
-93.4591
 11
12.5188
 21
-93.4795
  0
LINE
  8
0
 10
12.5188
 20
-93.4795
 11
12.6029
 21
-93.5052
  0
LINE
  8
0
 10
12.6029
 20
-93.5052
 11
12.6853
 21
-93.5362
  0
LINE
  8
0
 10
12.6853
 20
-93.5362
 11
12.7655
 21
-93.5722
  0
LINE
  8
0
 10
12.7655
 20
-93.5722
 11
12.8433
 21
-93.6133
  0
LINE
  8
0
 10
12.8433
 20
-93.6133
 11
12.9184
 21
-93.6591
  0
LINE
  8
0
 10
12.9184
 20
-93.6591
 11
12.9904
 21
-93.7095
  0
LINE
  8
0
 10
12.9904
 20
-93.7095
 11
13.0591
 21
-93.7644
  0
LINE
  8
0
 10
13.0591
 20
-93.7644
 11
13.1243
 21
-93.8235
  0
LINE
  8
0
 10
13.1243
 20
-93.8235
 11
13.1856
 21
-93.8865
  0
LINE
  8
0
 10
13.1856
 20
-93.8865
 11
13.2428
 21
-93.9533
  0
LINE
  8
0
 10
13.2428
 20
-93.9533
 11
13.2958
 21
-94.0235
  0
LINE
  8
0
 10
13.2958
 20
-94.0235
 11
13.3442
 21
-94.097
  0
LINE
  8
0
 10
13.3442
 20
-94.097
 11
13.3879
 21
-94.1733
  0
LINE
  8
0
 10
13.3879
 20
-94.1733
 11
13.4267
 21
-94.2522
  0
LINE
  8
0
 10
13.4267
 20
-94.2522
 11
13.4605
 21
-94.3334
  0
LINE
  8
0
 10
13.4605
 20
-94.3334
 11
13.4892
 21
-94.4165
  0
LINE
  8
0
 10
13.4892
 20
-94.4165
 11
13.5125
 21
-94.5013
  0
LINE
  8
0
 10
13.5125
 20
-94.5013
 11
13.5305
 21
-94.5874
  0
LINE
  8
0
 10
13.5305
 20
-94.5874
 11
13.543
 21
-94.6745
  0
LINE
  8
0
 10
13.543
 20
-94.6745
 11
13.5501
 21
-94.7622
  0
LINE
  8
0
 10
13.5501
 20
-94.7622
 11
13.5516
 21
-94.8501
  0
LINE
  8
0
 10
13.5516
 20
-94.8501
 11
13.5476
 21
-94.9379
  0
LINE
  8
0
 10
13.5476
 20
-94.9379
 11
13.5381
 21
-95.0254
  0
LINE
  8
0
 10
13.5381
 20
-95.0254
 11
13.5232
 21
-95.112
  0
LINE
  8
0
 10
13.5232
 20
-95.112
 11
13.5028
 21
-95.1976
  0
LINE
  8
0
 10
13.5028
 20
-95.1976
 11
13.4771
 21
-95.2817
  0
LINE
  8
0
 10
13.4771
 20
-95.2817
 11
13.4461
 21
-95.364
  0
LINE
  8
0
 10
13.4461
 20
-95.364
 11
13.4101
 21
-95.4443
  0
LINE
  8
0
 10
13.4101
 20
-95.4443
 11
13.369
 21
-95.522
  0
LINE
  8
0
 10
13.369
 20
-95.522
 11
13.3232
 21
-95.5971
  0
LINE
  8
0
 10
13.3232
 20
-95.5971
 11
13.2728
 21
-95.6692
  0
LINE
  8
0
 10
13.2728
 20
-95.6692
 11
13.2179
 21
-95.7379
  0
LINE
  8
0
 10
13.2179
 20
-95.7379
 11
13.1588
 21
-95.8031
  0
LINE
  8
0
 10
13.1588
 20
-95.8031
 11
13.0958
 21
-95.8644
  0
LINE
  8
0
 10
13.0958
 20
-95.8644
 11
13.029
 21
-95.9216
  0
LINE
  8
0
 10
13.029
 20
-95.9216
 11
12.9588
 21
-95.9745
  0
LINE
  8
0
 10
12.9588
 20
-95.9745
 11
12.8853
 21
-96.023
  0
LINE
  8
0
 10
12.8853
 20
-96.023
 11
12.809
 21
-96.0667
  0
LINE
  8
0
 10
12.809
 20
-96.0667
 11
12.7301
 21
-96.1055
  0
LINE
  8
0
 10
12.7301
 20
-96.1055
 11
12.6489
 21
-96.1393
  0
LINE
  8
0
 10
12.6489
 20
-96.1393
 11
12.5658
 21
-96.1679
  0
LINE
  8
0
 10
12.5658
 20
-96.1679
 11
12.481
 21
-96.1913
  0
LINE
  8
0
 10
12.481
 20
-96.1913
 11
12.3949
 21
-96.2093
  0
LINE
  8
0
 10
12.3949
 20
-96.2093
 11
12.3078
 21
-96.2218
  0
LINE
  8
0
 10
12.3078
 20
-96.2218
 11
12.2202
 21
-96.2289
  0
LINE
  8
0
 10
12.2202
 20
-96.2289
 11
12.1322
 21
-96.2304
  0
LINE
  8
0
 10
12.1322
 20
-96.2304
 11
12.0444
 21
-96.2264
  0
LINE
  8
0
 10
-12.2202
 20
-96.2289
 11
-12.3078
 21
-96.2218
  0
LINE
  8
0
 10
-12.3078
 20
-96.2218
 11
-12.3949
 21
-96.2093
  0
LINE
  8
0
 10
-12.3949
 20
-96.2093
 11
-12.481
 21
-96.1913
  0
LINE
  8
0
 10
-12.481
 20
-96.1913
 11
-12.5658
 21
-96.1679
  0
LINE
  8
0
 10
-12.5658
 20
-96.1679
 11
-12.6489
 21
-96.1393
  0
LINE
  8
0
 10
-12.6489
 20
-96.1393
 11
-12.7301
 21
-96.1055
  0
LINE
  8
0
 10
-12.7301
 20
-96.1055
 11
-12.809
 21
-96.0667
  0
LINE
  8
0
 10
-12.809
 20
-96.0667
 11
-12.8853
 21
-96.023
  0
LINE
  8
0
 10
-12.8853
 20
-96.023
 11
-12.9588
 21
-95.9745
  0
LINE
  8
0
 10
-12.9588
 20
-95.9745
 11
-13.029
 21
-95.9216
  0
LINE
  8
0
 10
-13.029
 20
-95.9216
 11
-13.0958
 21
-95.8644
  0
LINE
  8
0
 10
-13.0958
 20
-95.8644
 11
-13.1588
 21
-95.8031
  0
LINE
  8
0
 10
-13.1588
 20
-95.8031
 11
-13.2179
 21
-95.7379
  0
LINE
  8
0
 10
-13.2179
 20
-95.7379
 11
-13.2728
 21
-95.6692
  0
LINE
  8
0
 10
-13.2728
 20
-95.6692
 11
-13.3232
 21
-95.5971
  0
LINE
  8
0
 10
-13.3232
 20
-95.5971
 11
-13.369
 21
-95.522
  0
LINE
  8
0
 10
-13.369
 20
-95.522
 11
-13.4101
 21
-95.4443
  0
LINE
  8
0
 10
-13.4101
 20
-95.4443
 11
-13.4461
 21
-95.364
  0
LINE
  8
0
 10
-13.4461
 20
-95.364
 11
-13.4771
 21
-95.2817
  0
LINE
  8
0
 10
-13.4771
 20
-95.2817
 11
-13.5028
 21
-95.1976
  0
LINE
  8
0
 10
-13.5028
 20
-95.1976
 11
-13.5232
 21
-95.112
  0
LINE
  8
0
 10
-13.5232
 20
-95.112
 11
-13.5381
 21
-95.0254
  0
LINE
  8
0
 10
-13.5381
 20
-95.0254
 11
-13.5476
 21
-94.9379
  0
LINE
  8
0
 10
-13.5476
 20
-94.9379
 11
-13.5516
 21
-94.8501
  0
LINE
  8
0
 10
-13.5516
 20
-94.8501
 11
-13.5501
 21
-94.7622
  0
LINE
  8
0
 10
-13.5501
 20
-94.7622
 11
-13.543
 21
-94.6745
  0
LINE
  8
0
 10
-13.543
 20
-94.6745
 11
-13.5305
 21
-94.5874
  0
LINE
  8
0
 10
-13.5305
 20
-94.5874
 11
-13.5125
 21
-94.5013
  0
LINE
  8
0
 10
-13.5125
 20
-94.5013
 11
-13.4892
 21
-94.4165
  0
LINE
  8
0
 10
-13.4892
 20
-94.4165
 11
-13.4605
 21
-94.3334
  0
LINE
  8
0
 10
-13.4605
 20
-94.3334
 11
-13.4267
 21
-94.2522
  0
LINE
  8
0
 10
-13.4267
 20
-94.2522
 11
-13.3879
 21
-94.1733
  0
LINE
  8
0
 10
-13.3879
 20
-94.1733
 11
-13.3442
 21
-94.097
  0
LINE
  8
0
 10
-13.3442
 20
-94.097
 11
-13.2958
 21
-94.0235
  0
LINE
  8
0
 10
-13.2958
 20
-94.0235
 11
-13.2428
 21
-93.9533
  0
LINE
  8
0
 10
-13.2428
 20
-93.9533
 11
-13.1856
 21
-93.8865
  0
LINE
  8
0
 10
-13.1856
 20
-93.8865
 11
-13.1243
 21
-93.8235
  0
LINE
  8
0
 10
-13.1243
 20
-93.8235
 11
-13.0591
 21
-93.7644
  0
LINE
  8
0
 10
-13.0591
 20
-93.7644
 11
-12.9904
 21
-93.7095
  0
LINE
  8
0
 10
-12.9904
 20
-93.7095
 11
-12.9184
 21
-93.6591
  0
LINE
  8
0
 10
-12.9184
 20
-93.6591
 11
-12.8433
 21
-93.6133
  0
LINE
  8
0
 10
-12.8433
 20
-93.6133
 11
-12.7655
 21
-93.5722
  0
LINE
  8
0
 10
-12.7655
 20
-93.5722
 11
-12.6853
 21
-93.5362
  0
LINE
  8
0
 10
-12.6853
 20
-93.5362
 11
-12.6029
 21
-93.5052
  0
LINE
  8
0
 10
-12.6029
 20
-93.5052
 11
-12.5188
 21
-93.4795
  0
LINE
  8
0
 10
-12.5188
 20
-93.4795
 11
-12.4333
 21
-93.4591
  0
LINE
  8
0
 10
-12.4333
 20
-93.4591
 11
-12.3466
 21
-93.4442
  0
LINE
  8
0
 10
-12.3466
 20
-93.4442
 11
-12.2592
 21
-93.4347
  0
LINE
  8
0
 10
-12.2592
 20
-93.4347
 11
-12.1713
 21
-93.4307
  0
LINE
  8
0
 10
-12.1713
 20
-93.4307
 11
-12.0834
 21
-93.4322
  0
LINE
  8
0
 10
-12.0834
 20
-93.4322
 11
-11.9957
 21
-93.4393
  0
LINE
  8
0
 10
-11.9957
 20
-93.4393
 11
-11.9086
 21
-93.4518
  0
LINE
  8
0
 10
-11.9086
 20
-93.4518
 11
-11.8226
 21
-93.4698
  0
LINE
  8
0
 10
-11.8226
 20
-93.4698
 11
-11.7378
 21
-93.4932
  0
LINE
  8
0
 10
-11.7378
 20
-93.4932
 11
-11.6546
 21
-93.5218
  0
LINE
  8
0
 10
-11.6546
 20
-93.5218
 11
-11.5734
 21
-93.5556
  0
LINE
  8
0
 10
-11.5734
 20
-93.5556
 11
-11.4945
 21
-93.5944
  0
LINE
  8
0
 10
-11.4945
 20
-93.5944
 11
-11.4182
 21
-93.6381
  0
LINE
  8
0
 10
-11.4182
 20
-93.6381
 11
-11.3448
 21
-93.6865
  0
LINE
  8
0
 10
-11.3448
 20
-93.6865
 11
-11.2745
 21
-93.7395
  0
LINE
  8
0
 10
-11.2745
 20
-93.7395
 11
-11.2077
 21
-93.7967
  0
LINE
  8
0
 10
-11.2077
 20
-93.7967
 11
-11.1447
 21
-93.858
  0
LINE
  8
0
 10
-11.1447
 20
-93.858
 11
-11.0856
 21
-93.9232
  0
LINE
  8
0
 10
-11.0856
 20
-93.9232
 11
-11.0307
 21
-93.9919
  0
LINE
  8
0
 10
-11.0307
 20
-93.9919
 11
-10.9803
 21
-94.0639
  0
LINE
  8
0
 10
-10.9803
 20
-94.0639
 11
-10.9345
 21
-94.139
  0
LINE
  8
0
 10
-10.9345
 20
-94.139
 11
-10.8934
 21
-94.2168
  0
LINE
  8
0
 10
-10.8934
 20
-94.2168
 11
-10.8574
 21
-94.297
  0
LINE
  8
0
 10
-10.8574
 20
-94.297
 11
-10.8265
 21
-94.3794
  0
LINE
  8
0
 10
-10.8265
 20
-94.3794
 11
-10.8007
 21
-94.4635
  0
LINE
  8
0
 10
-10.8007
 20
-94.4635
 11
-10.7804
 21
-94.549
  0
LINE
  8
0
 10
-10.7804
 20
-94.549
 11
-10.7654
 21
-94.6357
  0
LINE
  8
0
 10
-10.7654
 20
-94.6357
 11
-10.7559
 21
-94.7231
  0
LINE
  8
0
 10
-10.7559
 20
-94.7231
 11
-10.7519
 21
-94.811
  0
LINE
  8
0
 10
-10.7519
 20
-94.811
 11
-10.7534
 21
-94.8989
  0
LINE
  8
0
 10
-10.7534
 20
-94.8989
 11
-10.7605
 21
-94.9866
  0
LINE
  8
0
 10
-10.7605
 20
-94.9866
 11
-10.773
 21
-95.0737
  0
LINE
  8
0
 10
-10.773
 20
-95.0737
 11
-10.791
 21
-95.1597
  0
LINE
  8
0
 10
-10.791
 20
-95.1597
 11
-10.8144
 21
-95.2445
  0
LINE
  8
0
 10
-10.8144
 20
-95.2445
 11
-10.843
 21
-95.3277
  0
LINE
  8
0
 10
-10.843
 20
-95.3277
 11
-10.8768
 21
-95.4089
  0
LINE
  8
0
 10
-10.8768
 20
-95.4089
 11
-10.9156
 21
-95.4878
  0
LINE
  8
0
 10
-10.9156
 20
-95.4878
 11
-10.9594
 21
-95.5641
  0
LINE
  8
0
 10
-10.9594
 20
-95.5641
 11
-11.0078
 21
-95.6375
  0
LINE
  8
0
 10
-11.0078
 20
-95.6375
 11
-11.0607
 21
-95.7078
  0
LINE
  8
0
 10
-11.0607
 20
-95.7078
 11
-11.1179
 21
-95.7746
  0
LINE
  8
0
 10
-11.1179
 20
-95.7746
 11
-11.1792
 21
-95.8376
  0
LINE
  8
0
 10
-11.1792
 20
-95.8376
 11
-11.2444
 21
-95.8967
  0
LINE
  8
0
 10
-11.2444
 20
-95.8967
 11
-11.3131
 21
-95.9516
  0
LINE
  8
0
 10
-11.3131
 20
-95.9516
 11
-11.3852
 21
-96.002
  0
LINE
  8
0
 10
-11.3852
 20
-96.002
 11
-11.4603
 21
-96.0478
  0
LINE
  8
0
 10
-11.4603
 20
-96.0478
 11
-11.538
 21
-96.0889
  0
LINE
  8
0
 10
-11.538
 20
-96.0889
 11
-11.6183
 21
-96.1249
  0
LINE
  8
0
 10
-11.6183
 20
-96.1249
 11
-11.7006
 21
-96.1559
  0
LINE
  8
0
 10
-11.7006
 20
-96.1559
 11
-11.7847
 21
-96.1816
  0
LINE
  8
0
 10
-11.7847
 20
-96.1816
 11
-11.8703
 21
-96.202
  0
LINE
  8
0
 10
-11.8703
 20
-96.202
 11
-11.9569
 21
-96.2169
  0
LINE
  8
0
 10
-11.9569
 20
-96.2169
 11
-12.0444
 21
-96.2264
  0
LINE
  8
0
 10
-12.0444
 20
-96.2264
 11
-12.1322
 21
-96.2304
  0
LINE
  8
0
 10
-12.1322
 20
-96.2304
 11
-12.2202
 21
-96.2289
  0
ENDSEC
  0
SECTION
  2
OBJECTS
  0
DICTIONARY
  0
ENDSEC
  0
EOF
