  0
SECTION
  2
BLOCKS
  0
ENDSEC
  0
SECTION
  2
ENTITIES
  0
LINE
  8
0
 10
292.996
 20
-14.5922
 11
293.121
 21
-14.5863
  0
LINE
  8
0
 10
293.121
 20
-14.5863
 11
293.246
 21
-14.5764
  0
LINE
  8
0
 10
293.246
 20
-14.5764
 11
293.371
 21
-14.5626
  0
LINE
  8
0
 10
293.371
 20
-14.5626
 11
293.496
 21
-14.5449
  0
LINE
  8
0
 10
293.496
 20
-14.5449
 11
293.619
 21
-14.5233
  0
LINE
  8
0
 10
293.619
 20
-14.5233
 11
293.743
 21
-14.4978
  0
LINE
  8
0
 10
293.743
 20
-14.4978
 11
293.865
 21
-14.4685
  0
LINE
  8
0
 10
293.865
 20
-14.4685
 11
293.986
 21
-14.4353
  0
LINE
  8
0
 10
293.986
 20
-14.4353
 11
294.106
 21
-14.3984
  0
LINE
  8
0
 10
294.106
 20
-14.3984
 11
294.225
 21
-14.3577
  0
LINE
  8
0
 10
294.225
 20
-14.3577
 11
294.342
 21
-14.3133
  0
LINE
  8
0
 10
294.342
 20
-14.3133
 11
294.459
 21
-14.2652
  0
LINE
  8
0
 10
294.459
 20
-14.2652
 11
294.573
 21
-14.2135
  0
LINE
  8
0
 10
294.573
 20
-14.2135
 11
294.686
 21
-14.1582
  0
LINE
  8
0
 10
294.686
 20
-14.1582
 11
294.797
 21
-14.0994
  0
LINE
  8
0
 10
294.797
 20
-14.0994
 11
294.906
 21
-14.0371
  0
LINE
  8
0
 10
294.906
 20
-14.0371
 11
295.013
 21
-13.9715
  0
LINE
  8
0
 10
295.013
 20
-13.9715
 11
295.118
 21
-13.9025
  0
LINE
  8
0
 10
295.118
 20
-13.9025
 11
295.221
 21
-13.8302
  0
LINE
  8
0
 10
295.221
 20
-13.8302
 11
295.322
 21
-13.7548
  0
LINE
  8
0
 10
295.322
 20
-13.7548
 11
295.42
 21
-13.6762
  0
LINE
  8
0
 10
295.42
 20
-13.6762
 11
295.515
 21
-13.5946
  0
LINE
  8
0
 10
295.515
 20
-13.5946
 11
295.608
 21
-13.51
  0
LINE
  8
0
 10
295.608
 20
-13.51
 11
295.698
 21
-13.4226
  0
LINE
  8
0
 10
295.698
 20
-13.4226
 11
295.786
 21
-13.3324
  0
LINE
  8
0
 10
295.786
 20
-13.3324
 11
295.87
 21
-13.2394
  0
LINE
  8
0
 10
295.87
 20
-13.2394
 11
295.952
 21
-13.1439
  0
LINE
  8
0
 10
295.952
 20
-13.1439
 11
296.031
 21
-13.0458
  0
LINE
  8
0
 10
296.031
 20
-13.0458
 11
296.106
 21
-12.9453
  0
LINE
  8
0
 10
296.106
 20
-12.9453
 11
296.178
 21
-12.8425
  0
LINE
  8
0
 10
296.178
 20
-12.8425
 11
296.247
 21
-12.7375
  0
LINE
  8
0
 10
296.247
 20
-12.7375
 11
296.313
 21
-12.6303
  0
LINE
  8
0
 10
296.313
 20
-12.6303
 11
296.375
 21
-12.5212
  0
LINE
  8
0
 10
296.375
 20
-12.5212
 11
296.434
 21
-12.4101
  0
LINE
  8
0
 10
296.434
 20
-12.4101
 11
296.489
 21
-12.2973
  0
LINE
  8
0
 10
296.489
 20
-12.2973
 11
296.541
 21
-12.1828
  0
LINE
  8
0
 10
296.541
 20
-12.1828
 11
296.589
 21
-12.0667
  0
LINE
  8
0
 10
296.589
 20
-12.0667
 11
296.633
 21
-11.9491
  0
LINE
  8
0
 10
296.633
 20
-11.9491
 11
296.674
 21
-11.8302
  0
LINE
  8
0
 10
296.674
 20
-11.8302
 11
296.711
 21
-11.7101
  0
LINE
  8
0
 10
296.711
 20
-11.7101
 11
296.744
 21
-11.5889
  0
LINE
  8
0
 10
296.744
 20
-11.5889
 11
296.774
 21
-11.4667
  0
LINE
  8
0
 10
296.774
 20
-11.4667
 11
296.799
 21
-11.3437
  0
LINE
  8
0
 10
296.799
 20
-11.3437
 11
314.589
 21
89.5467
  0
LINE
  8
0
 10
314.589
 20
89.5467
 11
314.606
 21
89.6711
  0
LINE
  8
0
 10
314.606
 20
89.6711
 11
314.62
 21
89.796
  0
LINE
  8
0
 10
314.62
 20
89.796
 11
314.63
 21
89.9212
  0
LINE
  8
0
 10
314.63
 20
89.9212
 11
314.636
 21
90.0468
  0
LINE
  8
0
 10
314.636
 20
90.0468
 11
314.638
 21
90.1724
  0
LINE
  8
0
 10
314.638
 20
90.1724
 11
314.636
 21
90.298
  0
LINE
  8
0
 10
314.636
 20
90.298
 11
314.63
 21
90.4236
  0
LINE
  8
0
 10
314.63
 20
90.4236
 11
314.62
 21
90.5488
  0
LINE
  8
0
 10
314.62
 20
90.5488
 11
314.606
 21
90.6737
  0
LINE
  8
0
 10
314.606
 20
90.6737
 11
314.589
 21
90.7981
  0
LINE
  8
0
 10
314.589
 20
90.7981
 11
314.567
 21
90.9219
  0
LINE
  8
0
 10
314.567
 20
90.9219
 11
314.541
 21
91.045
  0
LINE
  8
0
 10
314.541
 20
91.045
 11
314.512
 21
91.1672
  0
LINE
  8
0
 10
314.512
 20
91.1672
 11
314.479
 21
91.2884
  0
LINE
  8
0
 10
314.479
 20
91.2884
 11
314.442
 21
91.4085
  0
LINE
  8
0
 10
314.442
 20
91.4085
 11
314.401
 21
91.5273
  0
LINE
  8
0
 10
314.401
 20
91.5273
 11
314.357
 21
91.6449
  0
LINE
  8
0
 10
314.357
 20
91.6449
 11
314.309
 21
91.761
  0
LINE
  8
0
 10
314.309
 20
91.761
 11
314.257
 21
91.8755
  0
LINE
  8
0
 10
314.257
 20
91.8755
 11
314.202
 21
91.9884
  0
LINE
  8
0
 10
314.202
 20
91.9884
 11
314.143
 21
92.0994
  0
LINE
  8
0
 10
314.143
 20
92.0994
 11
314.081
 21
92.2086
  0
LINE
  8
0
 10
314.081
 20
92.2086
 11
314.015
 21
92.3157
  0
LINE
  8
0
 10
314.015
 20
92.3157
 11
313.946
 21
92.4207
  0
LINE
  8
0
 10
313.946
 20
92.4207
 11
313.874
 21
92.5235
  0
LINE
  8
0
 10
313.874
 20
92.5235
 11
313.798
 21
92.624
  0
LINE
  8
0
 10
313.798
 20
92.624
 11
313.72
 21
92.7221
  0
LINE
  8
0
 10
313.72
 20
92.7221
 11
313.638
 21
92.8176
  0
LINE
  8
0
 10
313.638
 20
92.8176
 11
313.554
 21
92.9106
  0
LINE
  8
0
 10
313.554
 20
92.9106
 11
313.466
 21
93.0008
  0
LINE
  8
0
 10
313.466
 20
93.0008
 11
313.376
 21
93.0883
  0
LINE
  8
0
 10
313.376
 20
93.0883
 11
313.283
 21
93.1728
  0
LINE
  8
0
 10
313.283
 20
93.1728
 11
313.188
 21
93.2545
  0
LINE
  8
0
 10
313.188
 20
93.2545
 11
313.089
 21
93.333
  0
LINE
  8
0
 10
313.089
 20
93.333
 11
312.989
 21
93.4085
  0
LINE
  8
0
 10
312.989
 20
93.4085
 11
312.886
 21
93.4807
  0
LINE
  8
0
 10
312.886
 20
93.4807
 11
312.781
 21
93.5497
  0
LINE
  8
0
 10
312.781
 20
93.5497
 11
312.674
 21
93.6154
  0
LINE
  8
0
 10
312.674
 20
93.6154
 11
312.565
 21
93.6776
  0
LINE
  8
0
 10
312.565
 20
93.6776
 11
312.454
 21
93.7364
  0
LINE
  8
0
 10
312.454
 20
93.7364
 11
312.341
 21
93.7917
  0
LINE
  8
0
 10
312.341
 20
93.7917
 11
312.226
 21
93.8434
  0
LINE
  8
0
 10
312.226
 20
93.8434
 11
312.11
 21
93.8915
  0
LINE
  8
0
 10
312.11
 20
93.8915
 11
311.993
 21
93.9359
  0
LINE
  8
0
 10
311.993
 20
93.9359
 11
311.874
 21
93.9766
  0
LINE
  8
0
 10
311.874
 20
93.9766
 11
311.754
 21
94.0136
  0
LINE
  8
0
 10
311.754
 20
94.0136
 11
311.633
 21
94.0467
  0
LINE
  8
0
 10
311.633
 20
94.0467
 11
311.51
 21
94.0761
  0
LINE
  8
0
 10
311.51
 20
94.0761
 11
311.387
 21
94.1015
  0
LINE
  8
0
 10
311.387
 20
94.1015
 11
154.75
 21
122.829
  0
LINE
  8
0
 10
154.75
 20
122.829
 11
154.626
 21
122.851
  0
LINE
  8
0
 10
154.626
 20
122.851
 11
154.501
 21
122.869
  0
LINE
  8
0
 10
154.501
 20
122.869
 11
154.376
 21
122.883
  0
LINE
  8
0
 10
154.376
 20
122.883
 11
154.251
 21
122.892
  0
LINE
  8
0
 10
154.251
 20
122.892
 11
154.126
 21
122.898
  0
LINE
  8
0
 10
154.126
 20
122.898
 11
154
 21
122.9
  0
LINE
  8
0
 10
154
 20
122.9
 11
153.874
 21
122.898
  0
LINE
  8
0
 10
153.874
 20
122.898
 11
153.749
 21
122.892
  0
LINE
  8
0
 10
153.749
 20
122.892
 11
153.624
 21
122.883
  0
LINE
  8
0
 10
153.624
 20
122.883
 11
153.499
 21
122.869
  0
LINE
  8
0
 10
153.499
 20
122.869
 11
153.374
 21
122.851
  0
LINE
  8
0
 10
153.374
 20
122.851
 11
153.25
 21
122.829
  0
LINE
  8
0
 10
153.25
 20
122.829
 11
-3.38733
 21
94.1015
  0
LINE
  8
0
 10
-3.38733
 20
94.1015
 11
-3.51038
 21
94.0761
  0
LINE
  8
0
 10
-3.51038
 20
94.0761
 11
-3.63257
 21
94.0467
  0
LINE
  8
0
 10
-3.63257
 20
94.0467
 11
-3.75377
 21
94.0136
  0
LINE
  8
0
 10
-3.75377
 20
94.0136
 11
-3.87387
 21
93.9766
  0
LINE
  8
0
 10
-3.87387
 20
93.9766
 11
-3.99275
 21
93.9359
  0
LINE
  8
0
 10
-3.99275
 20
93.9359
 11
-4.11031
 21
93.8915
  0
LINE
  8
0
 10
-4.11031
 20
93.8915
 11
-4.22639
 21
93.8434
  0
LINE
  8
0
 10
-4.22639
 20
93.8434
 11
-4.34093
 21
93.7917
  0
LINE
  8
0
 10
-4.34093
 20
93.7917
 11
-4.45377
 21
93.7364
  0
LINE
  8
0
 10
-4.45377
 20
93.7364
 11
-4.56482
 21
93.6776
  0
LINE
  8
0
 10
-4.56482
 20
93.6776
 11
-4.67397
 21
93.6154
  0
LINE
  8
0
 10
-4.67397
 20
93.6154
 11
-4.78111
 21
93.5497
  0
LINE
  8
0
 10
-4.78111
 20
93.5497
 11
-4.88614
 21
93.4807
  0
LINE
  8
0
 10
-4.88614
 20
93.4807
 11
-4.98895
 21
93.4085
  0
LINE
  8
0
 10
-4.98895
 20
93.4085
 11
-5.08943
 21
93.333
  0
LINE
  8
0
 10
-5.08943
 20
93.333
 11
-5.1875
 21
93.2545
  0
LINE
  8
0
 10
-5.1875
 20
93.2545
 11
-5.28305
 21
93.1728
  0
LINE
  8
0
 10
-5.28305
 20
93.1728
 11
-5.37599
 21
93.0883
  0
LINE
  8
0
 10
-5.37599
 20
93.0883
 11
-5.46623
 21
93.0008
  0
LINE
  8
0
 10
-5.46623
 20
93.0008
 11
-5.55368
 21
92.9106
  0
LINE
  8
0
 10
-5.55368
 20
92.9106
 11
-5.63824
 21
92.8176
  0
LINE
  8
0
 10
-5.63824
 20
92.8176
 11
-5.71986
 21
92.7221
  0
LINE
  8
0
 10
-5.71986
 20
92.7221
 11
-5.79843
 21
92.624
  0
LINE
  8
0
 10
-5.79843
 20
92.624
 11
-5.87387
 21
92.5235
  0
LINE
  8
0
 10
-5.87387
 20
92.5235
 11
-5.94612
 21
92.4207
  0
LINE
  8
0
 10
-5.94612
 20
92.4207
 11
-6.01512
 21
92.3157
  0
LINE
  8
0
 10
-6.01512
 20
92.3157
 11
-6.08078
 21
92.2086
  0
LINE
  8
0
 10
-6.08078
 20
92.2086
 11
-6.14304
 21
92.0994
  0
LINE
  8
0
 10
-6.14304
 20
92.0994
 11
-6.20183
 21
91.9884
  0
LINE
  8
0
 10
-6.20183
 20
91.9884
 11
-6.25711
 21
91.8755
  0
LINE
  8
0
 10
-6.25711
 20
91.8755
 11
-6.30882
 21
91.761
  0
LINE
  8
0
 10
-6.30882
 20
91.761
 11
-6.35692
 21
91.6449
  0
LINE
  8
0
 10
-6.35692
 20
91.6449
 11
-6.40132
 21
91.5273
  0
LINE
  8
0
 10
-6.40132
 20
91.5273
 11
-6.44203
 21
91.4085
  0
LINE
  8
0
 10
-6.44203
 20
91.4085
 11
-6.47897
 21
91.2884
  0
LINE
  8
0
 10
-6.47897
 20
91.2884
 11
-6.51213
 21
91.1672
  0
LINE
  8
0
 10
-6.51213
 20
91.1672
 11
-6.54147
 21
91.045
  0
LINE
  8
0
 10
-6.54147
 20
91.045
 11
-6.56696
 21
90.9219
  0
LINE
  8
0
 10
-6.56696
 20
90.9219
 11
-6.58856
 21
90.7981
  0
LINE
  8
0
 10
-6.58856
 20
90.7981
 11
-6.60626
 21
90.6737
  0
LINE
  8
0
 10
-6.60626
 20
90.6737
 11
-6.62006
 21
90.5488
  0
LINE
  8
0
 10
-6.62006
 20
90.5488
 11
-6.62991
 21
90.4236
  0
LINE
  8
0
 10
-6.62991
 20
90.4236
 11
-6.63583
 21
90.298
  0
LINE
  8
0
 10
-6.63583
 20
90.298
 11
-6.6378
 21
90.1724
  0
LINE
  8
0
 10
-6.6378
 20
90.1724
 11
-6.63583
 21
90.0468
  0
LINE
  8
0
 10
-6.63583
 20
90.0468
 11
-6.62991
 21
89.9212
  0
LINE
  8
0
 10
-6.62991
 20
89.9212
 11
-6.62006
 21
89.796
  0
LINE
  8
0
 10
-6.62006
 20
89.796
 11
-6.60626
 21
89.6711
  0
LINE
  8
0
 10
-6.60626
 20
89.6711
 11
-6.58856
 21
89.5467
  0
LINE
  8
0
 10
-6.58856
 20
89.5467
 11
11.2009
 21
-11.3437
  0
LINE
  8
0
 10
11.2009
 20
-11.3437
 11
11.2264
 21
-11.4667
  0
LINE
  8
0
 10
11.2264
 20
-11.4667
 11
11.2557
 21
-11.5889
  0
LINE
  8
0
 10
11.2557
 20
-11.5889
 11
11.2889
 21
-11.7101
  0
LINE
  8
0
 10
11.2889
 20
-11.7101
 11
11.3258
 21
-11.8302
  0
LINE
  8
0
 10
11.3258
 20
-11.8302
 11
11.3665
 21
-11.9491
  0
LINE
  8
0
 10
11.3665
 20
-11.9491
 11
11.4109
 21
-12.0667
  0
LINE
  8
0
 10
11.4109
 20
-12.0667
 11
11.459
 21
-12.1828
  0
LINE
  8
0
 10
11.459
 20
-12.1828
 11
11.5107
 21
-12.2973
  0
LINE
  8
0
 10
11.5107
 20
-12.2973
 11
11.566
 21
-12.4101
  0
LINE
  8
0
 10
11.566
 20
-12.4101
 11
11.6248
 21
-12.5212
  0
LINE
  8
0
 10
11.6248
 20
-12.5212
 11
11.6871
 21
-12.6303
  0
LINE
  8
0
 10
11.6871
 20
-12.6303
 11
11.7527
 21
-12.7375
  0
LINE
  8
0
 10
11.7527
 20
-12.7375
 11
11.8217
 21
-12.8425
  0
LINE
  8
0
 10
11.8217
 20
-12.8425
 11
11.894
 21
-12.9453
  0
LINE
  8
0
 10
11.894
 20
-12.9453
 11
11.9694
 21
-13.0458
  0
LINE
  8
0
 10
11.9694
 20
-13.0458
 11
12.048
 21
-13.1439
  0
LINE
  8
0
 10
12.048
 20
-13.1439
 11
12.1296
 21
-13.2394
  0
LINE
  8
0
 10
12.1296
 20
-13.2394
 11
12.2142
 21
-13.3324
  0
LINE
  8
0
 10
12.2142
 20
-13.3324
 11
12.3016
 21
-13.4226
  0
LINE
  8
0
 10
12.3016
 20
-13.4226
 11
12.3919
 21
-13.51
  0
LINE
  8
0
 10
12.3919
 20
-13.51
 11
12.4848
 21
-13.5946
  0
LINE
  8
0
 10
12.4848
 20
-13.5946
 11
12.5804
 21
-13.6762
  0
LINE
  8
0
 10
12.5804
 20
-13.6762
 11
12.6784
 21
-13.7548
  0
LINE
  8
0
 10
12.6784
 20
-13.7548
 11
12.7789
 21
-13.8302
  0
LINE
  8
0
 10
12.7789
 20
-13.8302
 11
12.8817
 21
-13.9025
  0
LINE
  8
0
 10
12.8817
 20
-13.9025
 11
12.9867
 21
-13.9715
  0
LINE
  8
0
 10
12.9867
 20
-13.9715
 11
13.0939
 21
-14.0371
  0
LINE
  8
0
 10
13.0939
 20
-14.0371
 11
13.203
 21
-14.0994
  0
LINE
  8
0
 10
13.203
 20
-14.0994
 11
13.3141
 21
-14.1582
  0
LINE
  8
0
 10
13.3141
 20
-14.1582
 11
13.4269
 21
-14.2135
  0
LINE
  8
0
 10
13.4269
 20
-14.2135
 11
13.5415
 21
-14.2652
  0
LINE
  8
0
 10
13.5415
 20
-14.2652
 11
13.6575
 21
-14.3133
  0
LINE
  8
0
 10
13.6575
 20
-14.3133
 11
13.7751
 21
-14.3577
  0
LINE
  8
0
 10
13.7751
 20
-14.3577
 11
13.894
 21
-14.3984
  0
LINE
  8
0
 10
13.894
 20
-14.3984
 11
14.0141
 21
-14.4353
  0
LINE
  8
0
 10
14.0141
 20
-14.4353
 11
14.1353
 21
-14.4685
  0
LINE
  8
0
 10
14.1353
 20
-14.4685
 11
14.2575
 21
-14.4978
  0
LINE
  8
0
 10
14.2575
 20
-14.4978
 11
14.3805
 21
-14.5233
  0
LINE
  8
0
 10
14.3805
 20
-14.5233
 11
14.5043
 21
-14.5449
  0
LINE
  8
0
 10
14.5043
 20
-14.5449
 11
14.6287
 21
-14.5626
  0
LINE
  8
0
 10
14.6287
 20
-14.5626
 11
14.7536
 21
-14.5764
  0
LINE
  8
0
 10
14.7536
 20
-14.5764
 11
14.8789
 21
-14.5863
  0
LINE
  8
0
 10
14.8789
 20
-14.5863
 11
15.0044
 21
-14.5922
  0
LINE
  8
0
 10
15.0044
 20
-14.5922
 11
15.1301
 21
-14.5942
  0
LINE
  8
0
 10
15.1301
 20
-14.5942
 11
292.87
 21
-14.5942
  0
LINE
  8
0
 10
292.87
 20
-14.5942
 11
292.996
 21
-14.5922
  0
LINE
  8
0
 10
153.929
 20
117.779
 11
153.859
 21
117.786
  0
LINE
  8
0
 10
153.859
 20
117.786
 11
153.79
 21
117.797
  0
LINE
  8
0
 10
153.79
 20
117.797
 11
153.721
 21
117.813
  0
LINE
  8
0
 10
153.721
 20
117.813
 11
153.653
 21
117.832
  0
LINE
  8
0
 10
153.653
 20
117.832
 11
153.587
 21
117.856
  0
LINE
  8
0
 10
153.587
 20
117.856
 11
153.522
 21
117.884
  0
LINE
  8
0
 10
153.522
 20
117.884
 11
153.459
 21
117.916
  0
LINE
  8
0
 10
153.459
 20
117.916
 11
153.398
 21
117.952
  0
LINE
  8
0
 10
153.398
 20
117.952
 11
153.34
 21
117.992
  0
LINE
  8
0
 10
153.34
 20
117.992
 11
153.284
 21
118.035
  0
LINE
  8
0
 10
153.284
 20
118.035
 11
153.231
 21
118.082
  0
LINE
  8
0
 10
153.231
 20
118.082
 11
153.181
 21
118.132
  0
LINE
  8
0
 10
153.181
 20
118.132
 11
153.135
 21
118.184
  0
LINE
  8
0
 10
153.135
 20
118.184
 11
153.091
 21
118.24
  0
LINE
  8
0
 10
153.091
 20
118.24
 11
153.052
 21
118.299
  0
LINE
  8
0
 10
153.052
 20
118.299
 11
153.016
 21
118.359
  0
LINE
  8
0
 10
153.016
 20
118.359
 11
152.984
 21
118.422
  0
LINE
  8
0
 10
152.984
 20
118.422
 11
152.956
 21
118.487
  0
LINE
  8
0
 10
152.956
 20
118.487
 11
152.932
 21
118.553
  0
LINE
  8
0
 10
152.932
 20
118.553
 11
152.912
 21
118.621
  0
LINE
  8
0
 10
152.912
 20
118.621
 11
152.897
 21
118.69
  0
LINE
  8
0
 10
152.897
 20
118.69
 11
152.886
 21
118.76
  0
LINE
  8
0
 10
152.886
 20
118.76
 11
152.879
 21
118.83
  0
LINE
  8
0
 10
152.879
 20
118.83
 11
152.877
 21
118.9
  0
LINE
  8
0
 10
152.877
 20
118.9
 11
152.879
 21
118.971
  0
LINE
  8
0
 10
152.879
 20
118.971
 11
152.886
 21
119.041
  0
LINE
  8
0
 10
152.886
 20
119.041
 11
152.897
 21
119.111
  0
LINE
  8
0
 10
152.897
 20
119.111
 11
152.912
 21
119.18
  0
LINE
  8
0
 10
152.912
 20
119.18
 11
152.932
 21
119.247
  0
LINE
  8
0
 10
152.932
 20
119.247
 11
152.956
 21
119.314
  0
LINE
  8
0
 10
152.956
 20
119.314
 11
152.984
 21
119.378
  0
LINE
  8
0
 10
152.984
 20
119.378
 11
153.016
 21
119.441
  0
LINE
  8
0
 10
153.016
 20
119.441
 11
153.052
 21
119.502
  0
LINE
  8
0
 10
153.052
 20
119.502
 11
153.091
 21
119.56
  0
LINE
  8
0
 10
153.091
 20
119.56
 11
153.135
 21
119.616
  0
LINE
  8
0
 10
153.135
 20
119.616
 11
153.181
 21
119.669
  0
LINE
  8
0
 10
153.181
 20
119.669
 11
153.231
 21
119.719
  0
LINE
  8
0
 10
153.231
 20
119.719
 11
153.284
 21
119.766
  0
LINE
  8
0
 10
153.284
 20
119.766
 11
153.34
 21
119.809
  0
LINE
  8
0
 10
153.34
 20
119.809
 11
153.398
 21
119.848
  0
LINE
  8
0
 10
153.398
 20
119.848
 11
153.459
 21
119.884
  0
LINE
  8
0
 10
153.459
 20
119.884
 11
153.522
 21
119.916
  0
LINE
  8
0
 10
153.522
 20
119.916
 11
153.587
 21
119.944
  0
LINE
  8
0
 10
153.587
 20
119.944
 11
153.653
 21
119.968
  0
LINE
  8
0
 10
153.653
 20
119.968
 11
153.721
 21
119.988
  0
LINE
  8
0
 10
153.721
 20
119.988
 11
153.79
 21
120.003
  0
LINE
  8
0
 10
153.79
 20
120.003
 11
153.859
 21
120.014
  0
LINE
  8
0
 10
153.859
 20
120.014
 11
153.929
 21
120.021
  0
LINE
  8
0
 10
153.929
 20
120.021
 11
154
 21
120.023
  0
LINE
  8
0
 10
154
 20
120.023
 11
154.071
 21
120.021
  0
LINE
  8
0
 10
154.071
 20
120.021
 11
154.141
 21
120.014
  0
LINE
  8
0
 10
154.141
 20
120.014
 11
154.21
 21
120.003
  0
LINE
  8
0
 10
154.21
 20
120.003
 11
154.279
 21
119.988
  0
LINE
  8
0
 10
154.279
 20
119.988
 11
154.347
 21
119.968
  0
LINE
  8
0
 10
154.347
 20
119.968
 11
154.413
 21
119.944
  0
LINE
  8
0
 10
154.413
 20
119.944
 11
154.478
 21
119.916
  0
LINE
  8
0
 10
154.478
 20
119.916
 11
154.541
 21
119.884
  0
LINE
  8
0
 10
154.541
 20
119.884
 11
154.602
 21
119.848
  0
LINE
  8
0
 10
154.602
 20
119.848
 11
154.66
 21
119.809
  0
LINE
  8
0
 10
154.66
 20
119.809
 11
154.716
 21
119.766
  0
LINE
  8
0
 10
154.716
 20
119.766
 11
154.769
 21
119.719
  0
LINE
  8
0
 10
154.769
 20
119.719
 11
154.819
 21
119.669
  0
LINE
  8
0
 10
154.819
 20
119.669
 11
154.865
 21
119.616
  0
LINE
  8
0
 10
154.865
 20
119.616
 11
154.909
 21
119.56
  0
LINE
  8
0
 10
154.909
 20
119.56
 11
154.948
 21
119.502
  0
LINE
  8
0
 10
154.948
 20
119.502
 11
154.984
 21
119.441
  0
LINE
  8
0
 10
154.984
 20
119.441
 11
155.016
 21
119.378
  0
LINE
  8
0
 10
155.016
 20
119.378
 11
155.044
 21
119.314
  0
LINE
  8
0
 10
155.044
 20
119.314
 11
155.068
 21
119.247
  0
LINE
  8
0
 10
155.068
 20
119.247
 11
155.088
 21
119.18
  0
LINE
  8
0
 10
155.088
 20
119.18
 11
155.103
 21
119.111
  0
LINE
  8
0
 10
155.103
 20
119.111
 11
155.114
 21
119.041
  0
LINE
  8
0
 10
155.114
 20
119.041
 11
155.121
 21
118.971
  0
LINE
  8
0
 10
155.121
 20
118.971
 11
155.123
 21
118.9
  0
LINE
  8
0
 10
155.123
 20
118.9
 11
155.121
 21
118.83
  0
LINE
  8
0
 10
155.121
 20
118.83
 11
155.114
 21
118.76
  0
LINE
  8
0
 10
155.114
 20
118.76
 11
155.103
 21
118.69
  0
LINE
  8
0
 10
155.103
 20
118.69
 11
155.088
 21
118.621
  0
LINE
  8
0
 10
155.088
 20
118.621
 11
155.068
 21
118.553
  0
LINE
  8
0
 10
155.068
 20
118.553
 11
155.044
 21
118.487
  0
LINE
  8
0
 10
155.044
 20
118.487
 11
155.016
 21
118.422
  0
LINE
  8
0
 10
155.016
 20
118.422
 11
154.984
 21
118.359
  0
LINE
  8
0
 10
154.984
 20
118.359
 11
154.948
 21
118.299
  0
LINE
  8
0
 10
154.948
 20
118.299
 11
154.909
 21
118.24
  0
LINE
  8
0
 10
154.909
 20
118.24
 11
154.865
 21
118.184
  0
LINE
  8
0
 10
154.865
 20
118.184
 11
154.819
 21
118.132
  0
LINE
  8
0
 10
154.819
 20
118.132
 11
154.769
 21
118.082
  0
LINE
  8
0
 10
154.769
 20
118.082
 11
154.716
 21
118.035
  0
LINE
  8
0
 10
154.716
 20
118.035
 11
154.66
 21
117.992
  0
LINE
  8
0
 10
154.66
 20
117.992
 11
154.602
 21
117.952
  0
LINE
  8
0
 10
154.602
 20
117.952
 11
154.541
 21
117.916
  0
LINE
  8
0
 10
154.541
 20
117.916
 11
154.478
 21
117.884
  0
LINE
  8
0
 10
154.478
 20
117.884
 11
154.413
 21
117.856
  0
LINE
  8
0
 10
154.413
 20
117.856
 11
154.347
 21
117.832
  0
LINE
  8
0
 10
154.347
 20
117.832
 11
154.279
 21
117.813
  0
LINE
  8
0
 10
154.279
 20
117.813
 11
154.21
 21
117.797
  0
LINE
  8
0
 10
154.21
 20
117.797
 11
154.141
 21
117.786
  0
LINE
  8
0
 10
154.141
 20
117.786
 11
154.071
 21
117.779
  0
LINE
  8
0
 10
154.071
 20
117.779
 11
154
 21
117.777
  0
LINE
  8
0
 10
154
 20
117.777
 11
153.929
 21
117.779
  0
LINE
  8
0
 10
75.6106
 20
103.416
 11
75.5403
 21
103.422
  0
LINE
  8
0
 10
75.5403
 20
103.422
 11
75.4707
 21
103.433
  0
LINE
  8
0
 10
75.4707
 20
103.433
 11
75.4018
 21
103.449
  0
LINE
  8
0
 10
75.4018
 20
103.449
 11
75.3341
 21
103.468
  0
LINE
  8
0
 10
75.3341
 20
103.468
 11
75.2677
 21
103.492
  0
LINE
  8
0
 10
75.2677
 20
103.492
 11
75.2029
 21
103.52
  0
LINE
  8
0
 10
75.2029
 20
103.52
 11
75.1401
 21
103.552
  0
LINE
  8
0
 10
75.1401
 20
103.552
 11
75.0793
 21
103.588
  0
LINE
  8
0
 10
75.0793
 20
103.588
 11
75.021
 21
103.628
  0
LINE
  8
0
 10
75.021
 20
103.628
 11
74.9653
 21
103.671
  0
LINE
  8
0
 10
74.9653
 20
103.671
 11
74.9123
 21
103.718
  0
LINE
  8
0
 10
74.9123
 20
103.718
 11
74.8625
 21
103.768
  0
LINE
  8
0
 10
74.8625
 20
103.768
 11
74.8158
 21
103.82
  0
LINE
  8
0
 10
74.8158
 20
103.82
 11
74.7726
 21
103.876
  0
LINE
  8
0
 10
74.7726
 20
103.876
 11
74.7329
 21
103.935
  0
LINE
  8
0
 10
74.7329
 20
103.935
 11
74.697
 21
103.995
  0
LINE
  8
0
 10
74.697
 20
103.995
 11
74.665
 21
104.058
  0
LINE
  8
0
 10
74.665
 20
104.058
 11
74.6369
 21
104.123
  0
LINE
  8
0
 10
74.6369
 20
104.123
 11
74.6131
 21
104.189
  0
LINE
  8
0
 10
74.6131
 20
104.189
 11
74.5934
 21
104.257
  0
LINE
  8
0
 10
74.5934
 20
104.257
 11
74.578
 21
104.326
  0
LINE
  8
0
 10
74.578
 20
104.326
 11
74.5669
 21
104.396
  0
LINE
  8
0
 10
74.5669
 20
104.396
 11
74.5603
 21
104.466
  0
LINE
  8
0
 10
74.5603
 20
104.466
 11
74.5581
 21
104.536
  0
LINE
  8
0
 10
74.5581
 20
104.536
 11
74.5603
 21
104.607
  0
LINE
  8
0
 10
74.5603
 20
104.607
 11
74.5669
 21
104.677
  0
LINE
  8
0
 10
74.5669
 20
104.677
 11
74.578
 21
104.747
  0
LINE
  8
0
 10
74.578
 20
104.747
 11
74.5934
 21
104.816
  0
LINE
  8
0
 10
74.5934
 20
104.816
 11
74.6131
 21
104.883
  0
LINE
  8
0
 10
74.6131
 20
104.883
 11
74.6369
 21
104.95
  0
LINE
  8
0
 10
74.6369
 20
104.95
 11
74.665
 21
105.014
  0
LINE
  8
0
 10
74.665
 20
105.014
 11
74.697
 21
105.077
  0
LINE
  8
0
 10
74.697
 20
105.077
 11
74.7329
 21
105.138
  0
LINE
  8
0
 10
74.7329
 20
105.138
 11
74.7726
 21
105.196
  0
LINE
  8
0
 10
74.7726
 20
105.196
 11
74.8158
 21
105.252
  0
LINE
  8
0
 10
74.8158
 20
105.252
 11
74.8625
 21
105.305
  0
LINE
  8
0
 10
74.8625
 20
105.305
 11
74.9123
 21
105.355
  0
LINE
  8
0
 10
74.9123
 20
105.355
 11
74.9653
 21
105.402
  0
LINE
  8
0
 10
74.9653
 20
105.402
 11
75.021
 21
105.445
  0
LINE
  8
0
 10
75.021
 20
105.445
 11
75.0793
 21
105.485
  0
LINE
  8
0
 10
75.0793
 20
105.485
 11
75.1401
 21
105.52
  0
LINE
  8
0
 10
75.1401
 20
105.52
 11
75.2029
 21
105.552
  0
LINE
  8
0
 10
75.2029
 20
105.552
 11
75.2677
 21
105.58
  0
LINE
  8
0
 10
75.2677
 20
105.58
 11
75.3341
 21
105.604
  0
LINE
  8
0
 10
75.3341
 20
105.604
 11
75.4018
 21
105.624
  0
LINE
  8
0
 10
75.4018
 20
105.624
 11
75.4707
 21
105.639
  0
LINE
  8
0
 10
75.4707
 20
105.639
 11
75.5403
 21
105.65
  0
LINE
  8
0
 10
75.5403
 20
105.65
 11
75.6106
 21
105.657
  0
LINE
  8
0
 10
75.6106
 20
105.657
 11
75.6811
 21
105.659
  0
LINE
  8
0
 10
75.6811
 20
105.659
 11
75.7516
 21
105.657
  0
LINE
  8
0
 10
75.7516
 20
105.657
 11
75.8218
 21
105.65
  0
LINE
  8
0
 10
75.8218
 20
105.65
 11
75.8915
 21
105.639
  0
LINE
  8
0
 10
75.8915
 20
105.639
 11
75.9604
 21
105.624
  0
LINE
  8
0
 10
75.9604
 20
105.624
 11
76.0281
 21
105.604
  0
LINE
  8
0
 10
76.0281
 20
105.604
 11
76.0945
 21
105.58
  0
LINE
  8
0
 10
76.0945
 20
105.58
 11
76.1592
 21
105.552
  0
LINE
  8
0
 10
76.1592
 20
105.552
 11
76.2221
 21
105.52
  0
LINE
  8
0
 10
76.2221
 20
105.52
 11
76.2828
 21
105.485
  0
LINE
  8
0
 10
76.2828
 20
105.485
 11
76.3412
 21
105.445
  0
LINE
  8
0
 10
76.3412
 20
105.445
 11
76.3969
 21
105.402
  0
LINE
  8
0
 10
76.3969
 20
105.402
 11
76.4498
 21
105.355
  0
LINE
  8
0
 10
76.4498
 20
105.355
 11
76.4997
 21
105.305
  0
LINE
  8
0
 10
76.4997
 20
105.305
 11
76.5464
 21
105.252
  0
LINE
  8
0
 10
76.5464
 20
105.252
 11
76.5896
 21
105.196
  0
LINE
  8
0
 10
76.5896
 20
105.196
 11
76.6293
 21
105.138
  0
LINE
  8
0
 10
76.6293
 20
105.138
 11
76.6652
 21
105.077
  0
LINE
  8
0
 10
76.6652
 20
105.077
 11
76.6972
 21
105.014
  0
LINE
  8
0
 10
76.6972
 20
105.014
 11
76.7252
 21
104.95
  0
LINE
  8
0
 10
76.7252
 20
104.95
 11
76.7491
 21
104.883
  0
LINE
  8
0
 10
76.7491
 20
104.883
 11
76.7688
 21
104.816
  0
LINE
  8
0
 10
76.7688
 20
104.816
 11
76.7842
 21
104.747
  0
LINE
  8
0
 10
76.7842
 20
104.747
 11
76.7952
 21
104.677
  0
LINE
  8
0
 10
76.7952
 20
104.677
 11
76.8019
 21
104.607
  0
LINE
  8
0
 10
76.8019
 20
104.607
 11
76.8041
 21
104.536
  0
LINE
  8
0
 10
76.8041
 20
104.536
 11
76.8019
 21
104.466
  0
LINE
  8
0
 10
76.8019
 20
104.466
 11
76.7952
 21
104.396
  0
LINE
  8
0
 10
76.7952
 20
104.396
 11
76.7842
 21
104.326
  0
LINE
  8
0
 10
76.7842
 20
104.326
 11
76.7688
 21
104.257
  0
LINE
  8
0
 10
76.7688
 20
104.257
 11
76.7491
 21
104.189
  0
LINE
  8
0
 10
76.7491
 20
104.189
 11
76.7252
 21
104.123
  0
LINE
  8
0
 10
76.7252
 20
104.123
 11
76.6972
 21
104.058
  0
LINE
  8
0
 10
76.6972
 20
104.058
 11
76.6652
 21
103.995
  0
LINE
  8
0
 10
76.6652
 20
103.995
 11
76.6293
 21
103.935
  0
LINE
  8
0
 10
76.6293
 20
103.935
 11
76.5896
 21
103.876
  0
LINE
  8
0
 10
76.5896
 20
103.876
 11
76.5464
 21
103.82
  0
LINE
  8
0
 10
76.5464
 20
103.82
 11
76.4997
 21
103.768
  0
LINE
  8
0
 10
76.4997
 20
103.768
 11
76.4498
 21
103.718
  0
LINE
  8
0
 10
76.4498
 20
103.718
 11
76.3969
 21
103.671
  0
LINE
  8
0
 10
76.3969
 20
103.671
 11
76.3412
 21
103.628
  0
LINE
  8
0
 10
76.3412
 20
103.628
 11
76.2828
 21
103.588
  0
LINE
  8
0
 10
76.2828
 20
103.588
 11
76.2221
 21
103.552
  0
LINE
  8
0
 10
76.2221
 20
103.552
 11
76.1592
 21
103.52
  0
LINE
  8
0
 10
76.1592
 20
103.52
 11
76.0945
 21
103.492
  0
LINE
  8
0
 10
76.0945
 20
103.492
 11
76.0281
 21
103.468
  0
LINE
  8
0
 10
76.0281
 20
103.468
 11
75.9604
 21
103.449
  0
LINE
  8
0
 10
75.9604
 20
103.449
 11
75.8915
 21
103.433
  0
LINE
  8
0
 10
75.8915
 20
103.433
 11
75.8218
 21
103.422
  0
LINE
  8
0
 10
75.8218
 20
103.422
 11
75.7516
 21
103.416
  0
LINE
  8
0
 10
75.7516
 20
103.416
 11
75.6811
 21
103.413
  0
LINE
  8
0
 10
75.6811
 20
103.413
 11
75.6106
 21
103.416
  0
LINE
  8
0
 10
232.248
 20
103.416
 11
232.178
 21
103.422
  0
LINE
  8
0
 10
232.178
 20
103.422
 11
232.108
 21
103.433
  0
LINE
  8
0
 10
232.108
 20
103.433
 11
232.04
 21
103.449
  0
LINE
  8
0
 10
232.04
 20
103.449
 11
231.972
 21
103.468
  0
LINE
  8
0
 10
231.972
 20
103.468
 11
231.905
 21
103.492
  0
LINE
  8
0
 10
231.905
 20
103.492
 11
231.841
 21
103.52
  0
LINE
  8
0
 10
231.841
 20
103.52
 11
231.778
 21
103.552
  0
LINE
  8
0
 10
231.778
 20
103.552
 11
231.717
 21
103.588
  0
LINE
  8
0
 10
231.717
 20
103.588
 11
231.659
 21
103.628
  0
LINE
  8
0
 10
231.659
 20
103.628
 11
231.603
 21
103.671
  0
LINE
  8
0
 10
231.603
 20
103.671
 11
231.55
 21
103.718
  0
LINE
  8
0
 10
231.55
 20
103.718
 11
231.5
 21
103.768
  0
LINE
  8
0
 10
231.5
 20
103.768
 11
231.454
 21
103.82
  0
LINE
  8
0
 10
231.454
 20
103.82
 11
231.41
 21
103.876
  0
LINE
  8
0
 10
231.41
 20
103.876
 11
231.371
 21
103.935
  0
LINE
  8
0
 10
231.371
 20
103.935
 11
231.335
 21
103.995
  0
LINE
  8
0
 10
231.335
 20
103.995
 11
231.303
 21
104.058
  0
LINE
  8
0
 10
231.303
 20
104.058
 11
231.275
 21
104.123
  0
LINE
  8
0
 10
231.275
 20
104.123
 11
231.251
 21
104.189
  0
LINE
  8
0
 10
231.251
 20
104.189
 11
231.231
 21
104.257
  0
LINE
  8
0
 10
231.231
 20
104.257
 11
231.216
 21
104.326
  0
LINE
  8
0
 10
231.216
 20
104.326
 11
231.205
 21
104.396
  0
LINE
  8
0
 10
231.205
 20
104.396
 11
231.198
 21
104.466
  0
LINE
  8
0
 10
231.198
 20
104.466
 11
231.196
 21
104.536
  0
LINE
  8
0
 10
231.196
 20
104.536
 11
231.198
 21
104.607
  0
LINE
  8
0
 10
231.198
 20
104.607
 11
231.205
 21
104.677
  0
LINE
  8
0
 10
231.205
 20
104.677
 11
231.216
 21
104.747
  0
LINE
  8
0
 10
231.216
 20
104.747
 11
231.231
 21
104.816
  0
LINE
  8
0
 10
231.231
 20
104.816
 11
231.251
 21
104.883
  0
LINE
  8
0
 10
231.251
 20
104.883
 11
231.275
 21
104.95
  0
LINE
  8
0
 10
231.275
 20
104.95
 11
231.303
 21
105.014
  0
LINE
  8
0
 10
231.303
 20
105.014
 11
231.335
 21
105.077
  0
LINE
  8
0
 10
231.335
 20
105.077
 11
231.371
 21
105.138
  0
LINE
  8
0
 10
231.371
 20
105.138
 11
231.41
 21
105.196
  0
LINE
  8
0
 10
231.41
 20
105.196
 11
231.454
 21
105.252
  0
LINE
  8
0
 10
231.454
 20
105.252
 11
231.5
 21
105.305
  0
LINE
  8
0
 10
231.5
 20
105.305
 11
231.55
 21
105.355
  0
LINE
  8
0
 10
231.55
 20
105.355
 11
231.603
 21
105.402
  0
LINE
  8
0
 10
231.603
 20
105.402
 11
231.659
 21
105.445
  0
LINE
  8
0
 10
231.659
 20
105.445
 11
231.717
 21
105.485
  0
LINE
  8
0
 10
231.717
 20
105.485
 11
231.778
 21
105.52
  0
LINE
  8
0
 10
231.778
 20
105.52
 11
231.841
 21
105.552
  0
LINE
  8
0
 10
231.841
 20
105.552
 11
231.905
 21
105.58
  0
LINE
  8
0
 10
231.905
 20
105.58
 11
231.972
 21
105.604
  0
LINE
  8
0
 10
231.972
 20
105.604
 11
232.04
 21
105.624
  0
LINE
  8
0
 10
232.04
 20
105.624
 11
232.108
 21
105.639
  0
LINE
  8
0
 10
232.108
 20
105.639
 11
232.178
 21
105.65
  0
LINE
  8
0
 10
232.178
 20
105.65
 11
232.248
 21
105.657
  0
LINE
  8
0
 10
232.248
 20
105.657
 11
232.319
 21
105.659
  0
LINE
  8
0
 10
232.319
 20
105.659
 11
232.389
 21
105.657
  0
LINE
  8
0
 10
232.389
 20
105.657
 11
232.46
 21
105.65
  0
LINE
  8
0
 10
232.46
 20
105.65
 11
232.529
 21
105.639
  0
LINE
  8
0
 10
232.529
 20
105.639
 11
232.598
 21
105.624
  0
LINE
  8
0
 10
232.598
 20
105.624
 11
232.666
 21
105.604
  0
LINE
  8
0
 10
232.666
 20
105.604
 11
232.732
 21
105.58
  0
LINE
  8
0
 10
232.732
 20
105.58
 11
232.797
 21
105.552
  0
LINE
  8
0
 10
232.797
 20
105.552
 11
232.86
 21
105.52
  0
LINE
  8
0
 10
232.86
 20
105.52
 11
232.921
 21
105.485
  0
LINE
  8
0
 10
232.921
 20
105.485
 11
232.979
 21
105.445
  0
LINE
  8
0
 10
232.979
 20
105.445
 11
233.035
 21
105.402
  0
LINE
  8
0
 10
233.035
 20
105.402
 11
233.088
 21
105.355
  0
LINE
  8
0
 10
233.088
 20
105.355
 11
233.138
 21
105.305
  0
LINE
  8
0
 10
233.138
 20
105.305
 11
233.184
 21
105.252
  0
LINE
  8
0
 10
233.184
 20
105.252
 11
233.227
 21
105.196
  0
LINE
  8
0
 10
233.227
 20
105.196
 11
233.267
 21
105.138
  0
LINE
  8
0
 10
233.267
 20
105.138
 11
233.303
 21
105.077
  0
LINE
  8
0
 10
233.303
 20
105.077
 11
233.335
 21
105.014
  0
LINE
  8
0
 10
233.335
 20
105.014
 11
233.363
 21
104.95
  0
LINE
  8
0
 10
233.363
 20
104.95
 11
233.387
 21
104.883
  0
LINE
  8
0
 10
233.387
 20
104.883
 11
233.407
 21
104.816
  0
LINE
  8
0
 10
233.407
 20
104.816
 11
233.422
 21
104.747
  0
LINE
  8
0
 10
233.422
 20
104.747
 11
233.433
 21
104.677
  0
LINE
  8
0
 10
233.433
 20
104.677
 11
233.44
 21
104.607
  0
LINE
  8
0
 10
233.44
 20
104.607
 11
233.442
 21
104.536
  0
LINE
  8
0
 10
233.442
 20
104.536
 11
233.44
 21
104.466
  0
LINE
  8
0
 10
233.44
 20
104.466
 11
233.433
 21
104.396
  0
LINE
  8
0
 10
233.433
 20
104.396
 11
233.422
 21
104.326
  0
LINE
  8
0
 10
233.422
 20
104.326
 11
233.407
 21
104.257
  0
LINE
  8
0
 10
233.407
 20
104.257
 11
233.387
 21
104.189
  0
LINE
  8
0
 10
233.387
 20
104.189
 11
233.363
 21
104.123
  0
LINE
  8
0
 10
233.363
 20
104.123
 11
233.335
 21
104.058
  0
LINE
  8
0
 10
233.335
 20
104.058
 11
233.303
 21
103.995
  0
LINE
  8
0
 10
233.303
 20
103.995
 11
233.267
 21
103.935
  0
LINE
  8
0
 10
233.267
 20
103.935
 11
233.227
 21
103.876
  0
LINE
  8
0
 10
233.227
 20
103.876
 11
233.184
 21
103.82
  0
LINE
  8
0
 10
233.184
 20
103.82
 11
233.138
 21
103.768
  0
LINE
  8
0
 10
233.138
 20
103.768
 11
233.088
 21
103.718
  0
LINE
  8
0
 10
233.088
 20
103.718
 11
233.035
 21
103.671
  0
LINE
  8
0
 10
233.035
 20
103.671
 11
232.979
 21
103.628
  0
LINE
  8
0
 10
232.979
 20
103.628
 11
232.921
 21
103.588
  0
LINE
  8
0
 10
232.921
 20
103.588
 11
232.86
 21
103.552
  0
LINE
  8
0
 10
232.86
 20
103.552
 11
232.797
 21
103.52
  0
LINE
  8
0
 10
232.797
 20
103.52
 11
232.732
 21
103.492
  0
LINE
  8
0
 10
232.732
 20
103.492
 11
232.666
 21
103.468
  0
LINE
  8
0
 10
232.666
 20
103.468
 11
232.598
 21
103.449
  0
LINE
  8
0
 10
232.598
 20
103.449
 11
232.529
 21
103.433
  0
LINE
  8
0
 10
232.529
 20
103.433
 11
232.46
 21
103.422
  0
LINE
  8
0
 10
232.46
 20
103.422
 11
232.389
 21
103.416
  0
LINE
  8
0
 10
232.389
 20
103.416
 11
232.319
 21
103.413
  0
LINE
  8
0
 10
232.319
 20
103.413
 11
232.248
 21
103.416
  0
LINE
  8
0
 10
-2.70831
 20
89.0516
 11
-2.77855
 21
89.0583
  0
LINE
  8
0
 10
-2.77855
 20
89.0583
 11
-2.84824
 21
89.0693
  0
LINE
  8
0
 10
-2.84824
 20
89.0693
 11
-2.91708
 21
89.0847
  0
LINE
  8
0
 10
-2.91708
 20
89.0847
 11
-2.98483
 21
89.1044
  0
LINE
  8
0
 10
-2.98483
 20
89.1044
 11
-3.05121
 21
89.1283
  0
LINE
  8
0
 10
-3.05121
 20
89.1283
 11
-3.11595
 21
89.1563
  0
LINE
  8
0
 10
-3.11595
 20
89.1563
 11
-3.17882
 21
89.1883
  0
LINE
  8
0
 10
-3.17882
 20
89.1883
 11
-3.23953
 21
89.2242
  0
LINE
  8
0
 10
-3.23953
 20
89.2242
 11
-3.29788
 21
89.2639
  0
LINE
  8
0
 10
-3.29788
 20
89.2639
 11
-3.35364
 21
89.3071
  0
LINE
  8
0
 10
-3.35364
 20
89.3071
 11
-3.40656
 21
89.3538
  0
LINE
  8
0
 10
-3.40656
 20
89.3538
 11
-3.45644
 21
89.4037
  0
LINE
  8
0
 10
-3.45644
 20
89.4037
 11
-3.5031
 21
89.4566
  0
LINE
  8
0
 10
-3.5031
 20
89.4566
 11
-3.54633
 21
89.5123
  0
LINE
  8
0
 10
-3.54633
 20
89.5123
 11
-3.58598
 21
89.5707
  0
LINE
  8
0
 10
-3.58598
 20
89.5707
 11
-3.6219
 21
89.6314
  0
LINE
  8
0
 10
-3.6219
 20
89.6314
 11
-3.65393
 21
89.6942
  0
LINE
  8
0
 10
-3.65393
 20
89.6942
 11
-3.68195
 21
89.759
  0
LINE
  8
0
 10
-3.68195
 20
89.759
 11
-3.70584
 21
89.8254
  0
LINE
  8
0
 10
-3.70584
 20
89.8254
 11
-3.72552
 21
89.8931
  0
LINE
  8
0
 10
-3.72552
 20
89.8931
 11
-3.74092
 21
89.962
  0
LINE
  8
0
 10
-3.74092
 20
89.962
 11
-3.75195
 21
90.0316
  0
LINE
  8
0
 10
-3.75195
 20
90.0316
 11
-3.75859
 21
90.1019
  0
LINE
  8
0
 10
-3.75859
 20
90.1019
 11
-3.7608
 21
90.1724
  0
LINE
  8
0
 10
-3.7608
 20
90.1724
 11
-3.75859
 21
90.2429
  0
LINE
  8
0
 10
-3.75859
 20
90.2429
 11
-3.75195
 21
90.3131
  0
LINE
  8
0
 10
-3.75195
 20
90.3131
 11
-3.74092
 21
90.3828
  0
LINE
  8
0
 10
-3.74092
 20
90.3828
 11
-3.72552
 21
90.4517
  0
LINE
  8
0
 10
-3.72552
 20
90.4517
 11
-3.70584
 21
90.5194
  0
LINE
  8
0
 10
-3.70584
 20
90.5194
 11
-3.68195
 21
90.5858
  0
LINE
  8
0
 10
-3.68195
 20
90.5858
 11
-3.65393
 21
90.6505
  0
LINE
  8
0
 10
-3.65393
 20
90.6505
 11
-3.6219
 21
90.7134
  0
LINE
  8
0
 10
-3.6219
 20
90.7134
 11
-3.58598
 21
90.7741
  0
LINE
  8
0
 10
-3.58598
 20
90.7741
 11
-3.54633
 21
90.8325
  0
LINE
  8
0
 10
-3.54633
 20
90.8325
 11
-3.5031
 21
90.8882
  0
LINE
  8
0
 10
-3.5031
 20
90.8882
 11
-3.45644
 21
90.9411
  0
LINE
  8
0
 10
-3.45644
 20
90.9411
 11
-3.40656
 21
90.991
  0
LINE
  8
0
 10
-3.40656
 20
90.991
 11
-3.35364
 21
91.0377
  0
LINE
  8
0
 10
-3.35364
 20
91.0377
 11
-3.29788
 21
91.0809
  0
LINE
  8
0
 10
-3.29788
 20
91.0809
 11
-3.23953
 21
91.1206
  0
LINE
  8
0
 10
-3.23953
 20
91.1206
 11
-3.17882
 21
91.1565
  0
LINE
  8
0
 10
-3.17882
 20
91.1565
 11
-3.11595
 21
91.1885
  0
LINE
  8
0
 10
-3.11595
 20
91.1885
 11
-3.05121
 21
91.2165
  0
LINE
  8
0
 10
-3.05121
 20
91.2165
 11
-2.98483
 21
91.2404
  0
LINE
  8
0
 10
-2.98483
 20
91.2404
 11
-2.91708
 21
91.2601
  0
LINE
  8
0
 10
-2.91708
 20
91.2601
 11
-2.84824
 21
91.2755
  0
LINE
  8
0
 10
-2.84824
 20
91.2755
 11
-2.77855
 21
91.2865
  0
LINE
  8
0
 10
-2.77855
 20
91.2865
 11
-2.70831
 21
91.2932
  0
LINE
  8
0
 10
-2.70831
 20
91.2932
 11
-2.6378
 21
91.2954
  0
LINE
  8
0
 10
-2.6378
 20
91.2954
 11
-2.56729
 21
91.2932
  0
LINE
  8
0
 10
-2.56729
 20
91.2932
 11
-2.49706
 21
91.2865
  0
LINE
  8
0
 10
-2.49706
 20
91.2865
 11
-2.42738
 21
91.2755
  0
LINE
  8
0
 10
-2.42738
 20
91.2755
 11
-2.35852
 21
91.2601
  0
LINE
  8
0
 10
-2.35852
 20
91.2601
 11
-2.29079
 21
91.2404
  0
LINE
  8
0
 10
-2.29079
 20
91.2404
 11
-2.2244
 21
91.2165
  0
LINE
  8
0
 10
-2.2244
 20
91.2165
 11
-2.15965
 21
91.1885
  0
LINE
  8
0
 10
-2.15965
 20
91.1885
 11
-2.0968
 21
91.1565
  0
LINE
  8
0
 10
-2.0968
 20
91.1565
 11
-2.03607
 21
91.1206
  0
LINE
  8
0
 10
-2.03607
 20
91.1206
 11
-1.97772
 21
91.0809
  0
LINE
  8
0
 10
-1.97772
 20
91.0809
 11
-1.92198
 21
91.0377
  0
LINE
  8
0
 10
-1.92198
 20
91.0377
 11
-1.86906
 21
90.991
  0
LINE
  8
0
 10
-1.86906
 20
90.991
 11
-1.81917
 21
90.9411
  0
LINE
  8
0
 10
-1.81917
 20
90.9411
 11
-1.77252
 21
90.8882
  0
LINE
  8
0
 10
-1.77252
 20
90.8882
 11
-1.72928
 21
90.8325
  0
LINE
  8
0
 10
-1.72928
 20
90.8325
 11
-1.68962
 21
90.7741
  0
LINE
  8
0
 10
-1.68962
 20
90.7741
 11
-1.65372
 21
90.7134
  0
LINE
  8
0
 10
-1.65372
 20
90.7134
 11
-1.62169
 21
90.6505
  0
LINE
  8
0
 10
-1.62169
 20
90.6505
 11
-1.59367
 21
90.5858
  0
LINE
  8
0
 10
-1.59367
 20
90.5858
 11
-1.56976
 21
90.5194
  0
LINE
  8
0
 10
-1.56976
 20
90.5194
 11
-1.55008
 21
90.4517
  0
LINE
  8
0
 10
-1.55008
 20
90.4517
 11
-1.5347
 21
90.3828
  0
LINE
  8
0
 10
-1.5347
 20
90.3828
 11
-1.52367
 21
90.3131
  0
LINE
  8
0
 10
-1.52367
 20
90.3131
 11
-1.51703
 21
90.2429
  0
LINE
  8
0
 10
-1.51703
 20
90.2429
 11
-1.5148
 21
90.1724
  0
LINE
  8
0
 10
-1.5148
 20
90.1724
 11
-1.51703
 21
90.1019
  0
LINE
  8
0
 10
-1.51703
 20
90.1019
 11
-1.52367
 21
90.0316
  0
LINE
  8
0
 10
-1.52367
 20
90.0316
 11
-1.5347
 21
89.962
  0
LINE
  8
0
 10
-1.5347
 20
89.962
 11
-1.55008
 21
89.8931
  0
LINE
  8
0
 10
-1.55008
 20
89.8931
 11
-1.56976
 21
89.8254
  0
LINE
  8
0
 10
-1.56976
 20
89.8254
 11
-1.59367
 21
89.759
  0
LINE
  8
0
 10
-1.59367
 20
89.759
 11
-1.62169
 21
89.6942
  0
LINE
  8
0
 10
-1.62169
 20
89.6942
 11
-1.65372
 21
89.6314
  0
LINE
  8
0
 10
-1.65372
 20
89.6314
 11
-1.68962
 21
89.5707
  0
LINE
  8
0
 10
-1.68962
 20
89.5707
 11
-1.72928
 21
89.5123
  0
LINE
  8
0
 10
-1.72928
 20
89.5123
 11
-1.77252
 21
89.4566
  0
LINE
  8
0
 10
-1.77252
 20
89.4566
 11
-1.81917
 21
89.4037
  0
LINE
  8
0
 10
-1.81917
 20
89.4037
 11
-1.86906
 21
89.3538
  0
LINE
  8
0
 10
-1.86906
 20
89.3538
 11
-1.92198
 21
89.3071
  0
LINE
  8
0
 10
-1.92198
 20
89.3071
 11
-1.97772
 21
89.2639
  0
LINE
  8
0
 10
-1.97772
 20
89.2639
 11
-2.03607
 21
89.2242
  0
LINE
  8
0
 10
-2.03607
 20
89.2242
 11
-2.0968
 21
89.1883
  0
LINE
  8
0
 10
-2.0968
 20
89.1883
 11
-2.15965
 21
89.1563
  0
LINE
  8
0
 10
-2.15965
 20
89.1563
 11
-2.2244
 21
89.1283
  0
LINE
  8
0
 10
-2.2244
 20
89.1283
 11
-2.29079
 21
89.1044
  0
LINE
  8
0
 10
-2.29079
 20
89.1044
 11
-2.35852
 21
89.0847
  0
LINE
  8
0
 10
-2.35852
 20
89.0847
 11
-2.42738
 21
89.0693
  0
LINE
  8
0
 10
-2.42738
 20
89.0693
 11
-2.49706
 21
89.0583
  0
LINE
  8
0
 10
-2.49706
 20
89.0583
 11
-2.56729
 21
89.0516
  0
LINE
  8
0
 10
-2.56729
 20
89.0516
 11
-2.6378
 21
89.0494
  0
LINE
  8
0
 10
-2.6378
 20
89.0494
 11
-2.70831
 21
89.0516
  0
LINE
  8
0
 10
310.567
 20
89.0516
 11
310.497
 21
89.0583
  0
LINE
  8
0
 10
310.497
 20
89.0583
 11
310.427
 21
89.0693
  0
LINE
  8
0
 10
310.427
 20
89.0693
 11
310.359
 21
89.0847
  0
LINE
  8
0
 10
310.359
 20
89.0847
 11
310.291
 21
89.1044
  0
LINE
  8
0
 10
310.291
 20
89.1044
 11
310.224
 21
89.1283
  0
LINE
  8
0
 10
310.224
 20
89.1283
 11
310.16
 21
89.1563
  0
LINE
  8
0
 10
310.16
 20
89.1563
 11
310.097
 21
89.1883
  0
LINE
  8
0
 10
310.097
 20
89.1883
 11
310.036
 21
89.2242
  0
LINE
  8
0
 10
310.036
 20
89.2242
 11
309.978
 21
89.2639
  0
LINE
  8
0
 10
309.978
 20
89.2639
 11
309.922
 21
89.3071
  0
LINE
  8
0
 10
309.922
 20
89.3071
 11
309.869
 21
89.3538
  0
LINE
  8
0
 10
309.869
 20
89.3538
 11
309.819
 21
89.4037
  0
LINE
  8
0
 10
309.819
 20
89.4037
 11
309.773
 21
89.4566
  0
LINE
  8
0
 10
309.773
 20
89.4566
 11
309.729
 21
89.5123
  0
LINE
  8
0
 10
309.729
 20
89.5123
 11
309.69
 21
89.5707
  0
LINE
  8
0
 10
309.69
 20
89.5707
 11
309.654
 21
89.6314
  0
LINE
  8
0
 10
309.654
 20
89.6314
 11
309.622
 21
89.6942
  0
LINE
  8
0
 10
309.622
 20
89.6942
 11
309.594
 21
89.759
  0
LINE
  8
0
 10
309.594
 20
89.759
 11
309.57
 21
89.8254
  0
LINE
  8
0
 10
309.57
 20
89.8254
 11
309.55
 21
89.8931
  0
LINE
  8
0
 10
309.55
 20
89.8931
 11
309.535
 21
89.962
  0
LINE
  8
0
 10
309.535
 20
89.962
 11
309.524
 21
90.0316
  0
LINE
  8
0
 10
309.524
 20
90.0316
 11
309.517
 21
90.1019
  0
LINE
  8
0
 10
309.517
 20
90.1019
 11
309.515
 21
90.1724
  0
LINE
  8
0
 10
309.515
 20
90.1724
 11
309.517
 21
90.2429
  0
LINE
  8
0
 10
309.517
 20
90.2429
 11
309.524
 21
90.3131
  0
LINE
  8
0
 10
309.524
 20
90.3131
 11
309.535
 21
90.3828
  0
LINE
  8
0
 10
309.535
 20
90.3828
 11
309.55
 21
90.4517
  0
LINE
  8
0
 10
309.55
 20
90.4517
 11
309.57
 21
90.5194
  0
LINE
  8
0
 10
309.57
 20
90.5194
 11
309.594
 21
90.5858
  0
LINE
  8
0
 10
309.594
 20
90.5858
 11
309.622
 21
90.6505
  0
LINE
  8
0
 10
309.622
 20
90.6505
 11
309.654
 21
90.7134
  0
LINE
  8
0
 10
309.654
 20
90.7134
 11
309.69
 21
90.7741
  0
LINE
  8
0
 10
309.69
 20
90.7741
 11
309.729
 21
90.8325
  0
LINE
  8
0
 10
309.729
 20
90.8325
 11
309.773
 21
90.8882
  0
LINE
  8
0
 10
309.773
 20
90.8882
 11
309.819
 21
90.9411
  0
LINE
  8
0
 10
309.819
 20
90.9411
 11
309.869
 21
90.991
  0
LINE
  8
0
 10
309.869
 20
90.991
 11
309.922
 21
91.0377
  0
LINE
  8
0
 10
309.922
 20
91.0377
 11
309.978
 21
91.0809
  0
LINE
  8
0
 10
309.978
 20
91.0809
 11
310.036
 21
91.1206
  0
LINE
  8
0
 10
310.036
 20
91.1206
 11
310.097
 21
91.1565
  0
LINE
  8
0
 10
310.097
 20
91.1565
 11
310.16
 21
91.1885
  0
LINE
  8
0
 10
310.16
 20
91.1885
 11
310.224
 21
91.2165
  0
LINE
  8
0
 10
310.224
 20
91.2165
 11
310.291
 21
91.2404
  0
LINE
  8
0
 10
310.291
 20
91.2404
 11
310.359
 21
91.2601
  0
LINE
  8
0
 10
310.359
 20
91.2601
 11
310.427
 21
91.2755
  0
LINE
  8
0
 10
310.427
 20
91.2755
 11
310.497
 21
91.2865
  0
LINE
  8
0
 10
310.497
 20
91.2865
 11
310.567
 21
91.2932
  0
LINE
  8
0
 10
310.567
 20
91.2932
 11
310.638
 21
91.2954
  0
LINE
  8
0
 10
310.638
 20
91.2954
 11
310.708
 21
91.2932
  0
LINE
  8
0
 10
310.708
 20
91.2932
 11
310.779
 21
91.2865
  0
LINE
  8
0
 10
310.779
 20
91.2865
 11
310.848
 21
91.2755
  0
LINE
  8
0
 10
310.848
 20
91.2755
 11
310.917
 21
91.2601
  0
LINE
  8
0
 10
310.917
 20
91.2601
 11
310.985
 21
91.2404
  0
LINE
  8
0
 10
310.985
 20
91.2404
 11
311.051
 21
91.2165
  0
LINE
  8
0
 10
311.051
 20
91.2165
 11
311.116
 21
91.1885
  0
LINE
  8
0
 10
311.116
 20
91.1885
 11
311.179
 21
91.1565
  0
LINE
  8
0
 10
311.179
 20
91.1565
 11
311.24
 21
91.1206
  0
LINE
  8
0
 10
311.24
 20
91.1206
 11
311.298
 21
91.0809
  0
LINE
  8
0
 10
311.298
 20
91.0809
 11
311.354
 21
91.0377
  0
LINE
  8
0
 10
311.354
 20
91.0377
 11
311.407
 21
90.991
  0
LINE
  8
0
 10
311.407
 20
90.991
 11
311.456
 21
90.9411
  0
LINE
  8
0
 10
311.456
 20
90.9411
 11
311.503
 21
90.8882
  0
LINE
  8
0
 10
311.503
 20
90.8882
 11
311.546
 21
90.8325
  0
LINE
  8
0
 10
311.546
 20
90.8325
 11
311.586
 21
90.7741
  0
LINE
  8
0
 10
311.586
 20
90.7741
 11
311.622
 21
90.7134
  0
LINE
  8
0
 10
311.622
 20
90.7134
 11
311.654
 21
90.6505
  0
LINE
  8
0
 10
311.654
 20
90.6505
 11
311.682
 21
90.5858
  0
LINE
  8
0
 10
311.682
 20
90.5858
 11
311.706
 21
90.5194
  0
LINE
  8
0
 10
311.706
 20
90.5194
 11
311.726
 21
90.4517
  0
LINE
  8
0
 10
311.726
 20
90.4517
 11
311.741
 21
90.3828
  0
LINE
  8
0
 10
311.741
 20
90.3828
 11
311.752
 21
90.3131
  0
LINE
  8
0
 10
311.752
 20
90.3131
 11
311.759
 21
90.2429
  0
LINE
  8
0
 10
311.759
 20
90.2429
 11
311.761
 21
90.1724
  0
LINE
  8
0
 10
311.761
 20
90.1724
 11
311.759
 21
90.1019
  0
LINE
  8
0
 10
311.759
 20
90.1019
 11
311.752
 21
90.0316
  0
LINE
  8
0
 10
311.752
 20
90.0316
 11
311.741
 21
89.962
  0
LINE
  8
0
 10
311.741
 20
89.962
 11
311.726
 21
89.8931
  0
LINE
  8
0
 10
311.726
 20
89.8931
 11
311.706
 21
89.8254
  0
LINE
  8
0
 10
311.706
 20
89.8254
 11
311.682
 21
89.759
  0
LINE
  8
0
 10
311.682
 20
89.759
 11
311.654
 21
89.6942
  0
LINE
  8
0
 10
311.654
 20
89.6942
 11
311.622
 21
89.6314
  0
LINE
  8
0
 10
311.622
 20
89.6314
 11
311.586
 21
89.5707
  0
LINE
  8
0
 10
311.586
 20
89.5707
 11
311.546
 21
89.5123
  0
LINE
  8
0
 10
311.546
 20
89.5123
 11
311.503
 21
89.4566
  0
LINE
  8
0
 10
311.503
 20
89.4566
 11
311.456
 21
89.4037
  0
LINE
  8
0
 10
311.456
 20
89.4037
 11
311.407
 21
89.3538
  0
LINE
  8
0
 10
311.407
 20
89.3538
 11
311.354
 21
89.3071
  0
LINE
  8
0
 10
311.354
 20
89.3071
 11
311.298
 21
89.2639
  0
LINE
  8
0
 10
311.298
 20
89.2639
 11
311.24
 21
89.2242
  0
LINE
  8
0
 10
311.24
 20
89.2242
 11
311.179
 21
89.1883
  0
LINE
  8
0
 10
311.179
 20
89.1883
 11
311.116
 21
89.1563
  0
LINE
  8
0
 10
311.116
 20
89.1563
 11
311.051
 21
89.1283
  0
LINE
  8
0
 10
311.051
 20
89.1283
 11
310.985
 21
89.1044
  0
LINE
  8
0
 10
310.985
 20
89.1044
 11
310.917
 21
89.0847
  0
LINE
  8
0
 10
310.917
 20
89.0847
 11
310.848
 21
89.0693
  0
LINE
  8
0
 10
310.848
 20
89.0693
 11
310.779
 21
89.0583
  0
LINE
  8
0
 10
310.779
 20
89.0583
 11
310.708
 21
89.0516
  0
LINE
  8
0
 10
310.708
 20
89.0516
 11
310.638
 21
89.0494
  0
LINE
  8
0
 10
310.638
 20
89.0494
 11
310.567
 21
89.0516
  0
LINE
  8
0
 10
15.0595
 20
-11.715
 11
14.9893
 21
-11.7083
  0
LINE
  8
0
 10
14.9893
 20
-11.7083
 11
14.9196
 21
-11.6973
  0
LINE
  8
0
 10
14.9196
 20
-11.6973
 11
14.8508
 21
-11.6819
  0
LINE
  8
0
 10
14.8508
 20
-11.6819
 11
14.783
 21
-11.6622
  0
LINE
  8
0
 10
14.783
 20
-11.6622
 11
14.7166
 21
-11.6383
  0
LINE
  8
0
 10
14.7166
 20
-11.6383
 11
14.6519
 21
-11.6103
  0
LINE
  8
0
 10
14.6519
 20
-11.6103
 11
14.589
 21
-11.5783
  0
LINE
  8
0
 10
14.589
 20
-11.5783
 11
14.5283
 21
-11.5423
  0
LINE
  8
0
 10
14.5283
 20
-11.5423
 11
14.47
 21
-11.5027
  0
LINE
  8
0
 10
14.47
 20
-11.5027
 11
14.4142
 21
-11.4595
  0
LINE
  8
0
 10
14.4142
 20
-11.4595
 11
14.3613
 21
-11.4128
  0
LINE
  8
0
 10
14.3613
 20
-11.4128
 11
14.3114
 21
-11.3629
  0
LINE
  8
0
 10
14.3114
 20
-11.3629
 11
14.2648
 21
-11.31
  0
LINE
  8
0
 10
14.2648
 20
-11.31
 11
14.2215
 21
-11.2543
  0
LINE
  8
0
 10
14.2215
 20
-11.2543
 11
14.1819
 21
-11.1959
  0
LINE
  8
0
 10
14.1819
 20
-11.1959
 11
14.146
 21
-11.1352
  0
LINE
  8
0
 10
14.146
 20
-11.1352
 11
14.1139
 21
-11.0723
  0
LINE
  8
0
 10
14.1139
 20
-11.0723
 11
14.0859
 21
-11.0076
  0
LINE
  8
0
 10
14.0859
 20
-11.0076
 11
14.062
 21
-10.9412
  0
LINE
  8
0
 10
14.062
 20
-10.9412
 11
14.0423
 21
-10.8734
  0
LINE
  8
0
 10
14.0423
 20
-10.8734
 11
14.0269
 21
-10.8046
  0
LINE
  8
0
 10
14.0269
 20
-10.8046
 11
14.0159
 21
-10.7349
  0
LINE
  8
0
 10
14.0159
 20
-10.7349
 11
14.0093
 21
-10.6647
  0
LINE
  8
0
 10
14.0093
 20
-10.6647
 11
14.007
 21
-10.5942
  0
LINE
  8
0
 10
14.007
 20
-10.5942
 11
14.0093
 21
-10.5237
  0
LINE
  8
0
 10
14.0093
 20
-10.5237
 11
14.0159
 21
-10.4534
  0
LINE
  8
0
 10
14.0159
 20
-10.4534
 11
14.0269
 21
-10.3837
  0
LINE
  8
0
 10
14.0269
 20
-10.3837
 11
14.0423
 21
-10.3149
  0
LINE
  8
0
 10
14.0423
 20
-10.3149
 11
14.062
 21
-10.2471
  0
LINE
  8
0
 10
14.062
 20
-10.2471
 11
14.0859
 21
-10.1808
  0
LINE
  8
0
 10
14.0859
 20
-10.1808
 11
14.1139
 21
-10.116
  0
LINE
  8
0
 10
14.1139
 20
-10.116
 11
14.146
 21
-10.0532
  0
LINE
  8
0
 10
14.146
 20
-10.0532
 11
14.1819
 21
-9.99243
  0
LINE
  8
0
 10
14.1819
 20
-9.99243
 11
14.2215
 21
-9.93408
  0
LINE
  8
0
 10
14.2215
 20
-9.93408
 11
14.2648
 21
-9.87834
  0
LINE
  8
0
 10
14.2648
 20
-9.87834
 11
14.3114
 21
-9.82542
  0
LINE
  8
0
 10
14.3114
 20
-9.82542
 11
14.3613
 21
-9.77554
  0
LINE
  8
0
 10
14.3613
 20
-9.77554
 11
14.4142
 21
-9.72888
  0
LINE
  8
0
 10
14.4142
 20
-9.72888
 11
14.47
 21
-9.68564
  0
LINE
  8
0
 10
14.47
 20
-9.68564
 11
14.5283
 21
-9.646
  0
LINE
  8
0
 10
14.5283
 20
-9.646
 11
14.589
 21
-9.61008
  0
LINE
  8
0
 10
14.589
 20
-9.61008
 11
14.6519
 21
-9.57805
  0
LINE
  8
0
 10
14.6519
 20
-9.57805
 11
14.7166
 21
-9.55003
  0
LINE
  8
0
 10
14.7166
 20
-9.55003
 11
14.783
 21
-9.52614
  0
LINE
  8
0
 10
14.783
 20
-9.52614
 11
14.8508
 21
-9.50645
  0
LINE
  8
0
 10
14.8508
 20
-9.50645
 11
14.9196
 21
-9.49106
  0
LINE
  8
0
 10
14.9196
 20
-9.49106
 11
14.9893
 21
-9.48003
  0
LINE
  8
0
 10
14.9893
 20
-9.48003
 11
15.0595
 21
-9.47339
  0
LINE
  8
0
 10
15.0595
 20
-9.47339
 11
15.1301
 21
-9.47118
  0
LINE
  8
0
 10
15.1301
 20
-9.47118
 11
15.2006
 21
-9.47339
  0
LINE
  8
0
 10
15.2006
 20
-9.47339
 11
15.2708
 21
-9.48003
  0
LINE
  8
0
 10
15.2708
 20
-9.48003
 11
15.3405
 21
-9.49106
  0
LINE
  8
0
 10
15.3405
 20
-9.49106
 11
15.4093
 21
-9.50645
  0
LINE
  8
0
 10
15.4093
 20
-9.50645
 11
15.4771
 21
-9.52614
  0
LINE
  8
0
 10
15.4771
 20
-9.52614
 11
15.5434
 21
-9.55003
  0
LINE
  8
0
 10
15.5434
 20
-9.55003
 11
15.6082
 21
-9.57805
  0
LINE
  8
0
 10
15.6082
 20
-9.57805
 11
15.6711
 21
-9.61008
  0
LINE
  8
0
 10
15.6711
 20
-9.61008
 11
15.7318
 21
-9.646
  0
LINE
  8
0
 10
15.7318
 20
-9.646
 11
15.7901
 21
-9.68564
  0
LINE
  8
0
 10
15.7901
 20
-9.68564
 11
15.8459
 21
-9.72888
  0
LINE
  8
0
 10
15.8459
 20
-9.72888
 11
15.8988
 21
-9.77554
  0
LINE
  8
0
 10
15.8988
 20
-9.77554
 11
15.9487
 21
-9.82542
  0
LINE
  8
0
 10
15.9487
 20
-9.82542
 11
15.9953
 21
-9.87834
  0
LINE
  8
0
 10
15.9953
 20
-9.87834
 11
16.0386
 21
-9.93408
  0
LINE
  8
0
 10
16.0386
 20
-9.93408
 11
16.0782
 21
-9.99243
  0
LINE
  8
0
 10
16.0782
 20
-9.99243
 11
16.1141
 21
-10.0532
  0
LINE
  8
0
 10
16.1141
 20
-10.0532
 11
16.1462
 21
-10.116
  0
LINE
  8
0
 10
16.1462
 20
-10.116
 11
16.1742
 21
-10.1808
  0
LINE
  8
0
 10
16.1742
 20
-10.1808
 11
16.1981
 21
-10.2471
  0
LINE
  8
0
 10
16.1981
 20
-10.2471
 11
16.2178
 21
-10.3149
  0
LINE
  8
0
 10
16.2178
 20
-10.3149
 11
16.2332
 21
-10.3837
  0
LINE
  8
0
 10
16.2332
 20
-10.3837
 11
16.2442
 21
-10.4534
  0
LINE
  8
0
 10
16.2442
 20
-10.4534
 11
16.2508
 21
-10.5237
  0
LINE
  8
0
 10
16.2508
 20
-10.5237
 11
16.2531
 21
-10.5942
  0
LINE
  8
0
 10
16.2531
 20
-10.5942
 11
16.2508
 21
-10.6647
  0
LINE
  8
0
 10
16.2508
 20
-10.6647
 11
16.2442
 21
-10.7349
  0
LINE
  8
0
 10
16.2442
 20
-10.7349
 11
16.2332
 21
-10.8046
  0
LINE
  8
0
 10
16.2332
 20
-10.8046
 11
16.2178
 21
-10.8734
  0
LINE
  8
0
 10
16.2178
 20
-10.8734
 11
16.1981
 21
-10.9412
  0
LINE
  8
0
 10
16.1981
 20
-10.9412
 11
16.1742
 21
-11.0076
  0
LINE
  8
0
 10
16.1742
 20
-11.0076
 11
16.1462
 21
-11.0723
  0
LINE
  8
0
 10
16.1462
 20
-11.0723
 11
16.1141
 21
-11.1352
  0
LINE
  8
0
 10
16.1141
 20
-11.1352
 11
16.0782
 21
-11.1959
  0
LINE
  8
0
 10
16.0782
 20
-11.1959
 11
16.0386
 21
-11.2543
  0
LINE
  8
0
 10
16.0386
 20
-11.2543
 11
15.9953
 21
-11.31
  0
LINE
  8
0
 10
15.9953
 20
-11.31
 11
15.9487
 21
-11.3629
  0
LINE
  8
0
 10
15.9487
 20
-11.3629
 11
15.8988
 21
-11.4128
  0
LINE
  8
0
 10
15.8988
 20
-11.4128
 11
15.8459
 21
-11.4595
  0
LINE
  8
0
 10
15.8459
 20
-11.4595
 11
15.7901
 21
-11.5027
  0
LINE
  8
0
 10
15.7901
 20
-11.5027
 11
15.7318
 21
-11.5423
  0
LINE
  8
0
 10
15.7318
 20
-11.5423
 11
15.6711
 21
-11.5783
  0
LINE
  8
0
 10
15.6711
 20
-11.5783
 11
15.6082
 21
-11.6103
  0
LINE
  8
0
 10
15.6082
 20
-11.6103
 11
15.5434
 21
-11.6383
  0
LINE
  8
0
 10
15.5434
 20
-11.6383
 11
15.4771
 21
-11.6622
  0
LINE
  8
0
 10
15.4771
 20
-11.6622
 11
15.4093
 21
-11.6819
  0
LINE
  8
0
 10
15.4093
 20
-11.6819
 11
15.3405
 21
-11.6973
  0
LINE
  8
0
 10
15.3405
 20
-11.6973
 11
15.2708
 21
-11.7083
  0
LINE
  8
0
 10
15.2708
 20
-11.7083
 11
15.2006
 21
-11.715
  0
LINE
  8
0
 10
15.2006
 20
-11.715
 11
15.1301
 21
-11.7172
  0
LINE
  8
0
 10
15.1301
 20
-11.7172
 11
15.0595
 21
-11.715
  0
LINE
  8
0
 10
292.799
 20
-11.715
 11
292.729
 21
-11.7083
  0
LINE
  8
0
 10
292.729
 20
-11.7083
 11
292.66
 21
-11.6973
  0
LINE
  8
0
 10
292.66
 20
-11.6973
 11
292.591
 21
-11.6819
  0
LINE
  8
0
 10
292.591
 20
-11.6819
 11
292.523
 21
-11.6622
  0
LINE
  8
0
 10
292.523
 20
-11.6622
 11
292.457
 21
-11.6383
  0
LINE
  8
0
 10
292.457
 20
-11.6383
 11
292.392
 21
-11.6103
  0
LINE
  8
0
 10
292.392
 20
-11.6103
 11
292.329
 21
-11.5783
  0
LINE
  8
0
 10
292.329
 20
-11.5783
 11
292.268
 21
-11.5423
  0
LINE
  8
0
 10
292.268
 20
-11.5423
 11
292.21
 21
-11.5027
  0
LINE
  8
0
 10
292.21
 20
-11.5027
 11
292.154
 21
-11.4595
  0
LINE
  8
0
 10
292.154
 20
-11.4595
 11
292.101
 21
-11.4128
  0
LINE
  8
0
 10
292.101
 20
-11.4128
 11
292.051
 21
-11.3629
  0
LINE
  8
0
 10
292.051
 20
-11.3629
 11
292.005
 21
-11.31
  0
LINE
  8
0
 10
292.005
 20
-11.31
 11
291.961
 21
-11.2543
  0
LINE
  8
0
 10
291.961
 20
-11.2543
 11
291.922
 21
-11.1959
  0
LINE
  8
0
 10
291.922
 20
-11.1959
 11
291.886
 21
-11.1352
  0
LINE
  8
0
 10
291.886
 20
-11.1352
 11
291.854
 21
-11.0723
  0
LINE
  8
0
 10
291.854
 20
-11.0723
 11
291.826
 21
-11.0076
  0
LINE
  8
0
 10
291.826
 20
-11.0076
 11
291.802
 21
-10.9412
  0
LINE
  8
0
 10
291.802
 20
-10.9412
 11
291.782
 21
-10.8734
  0
LINE
  8
0
 10
291.782
 20
-10.8734
 11
291.767
 21
-10.8046
  0
LINE
  8
0
 10
291.767
 20
-10.8046
 11
291.756
 21
-10.7349
  0
LINE
  8
0
 10
291.756
 20
-10.7349
 11
291.749
 21
-10.6647
  0
LINE
  8
0
 10
291.749
 20
-10.6647
 11
291.747
 21
-10.5942
  0
LINE
  8
0
 10
291.747
 20
-10.5942
 11
291.749
 21
-10.5237
  0
LINE
  8
0
 10
291.749
 20
-10.5237
 11
291.756
 21
-10.4534
  0
LINE
  8
0
 10
291.756
 20
-10.4534
 11
291.767
 21
-10.3837
  0
LINE
  8
0
 10
291.767
 20
-10.3837
 11
291.782
 21
-10.3149
  0
LINE
  8
0
 10
291.782
 20
-10.3149
 11
291.802
 21
-10.2471
  0
LINE
  8
0
 10
291.802
 20
-10.2471
 11
291.826
 21
-10.1808
  0
LINE
  8
0
 10
291.826
 20
-10.1808
 11
291.854
 21
-10.116
  0
LINE
  8
0
 10
291.854
 20
-10.116
 11
291.886
 21
-10.0532
  0
LINE
  8
0
 10
291.886
 20
-10.0532
 11
291.922
 21
-9.99243
  0
LINE
  8
0
 10
291.922
 20
-9.99243
 11
291.961
 21
-9.93408
  0
LINE
  8
0
 10
291.961
 20
-9.93408
 11
292.005
 21
-9.87834
  0
LINE
  8
0
 10
292.005
 20
-9.87834
 11
292.051
 21
-9.82542
  0
LINE
  8
0
 10
292.051
 20
-9.82542
 11
292.101
 21
-9.77554
  0
LINE
  8
0
 10
292.101
 20
-9.77554
 11
292.154
 21
-9.72888
  0
LINE
  8
0
 10
292.154
 20
-9.72888
 11
292.21
 21
-9.68564
  0
LINE
  8
0
 10
292.21
 20
-9.68564
 11
292.268
 21
-9.646
  0
LINE
  8
0
 10
292.268
 20
-9.646
 11
292.329
 21
-9.61008
  0
LINE
  8
0
 10
292.329
 20
-9.61008
 11
292.392
 21
-9.57805
  0
LINE
  8
0
 10
292.392
 20
-9.57805
 11
292.457
 21
-9.55003
  0
LINE
  8
0
 10
292.457
 20
-9.55003
 11
292.523
 21
-9.52614
  0
LINE
  8
0
 10
292.523
 20
-9.52614
 11
292.591
 21
-9.50645
  0
LINE
  8
0
 10
292.591
 20
-9.50645
 11
292.66
 21
-9.49106
  0
LINE
  8
0
 10
292.66
 20
-9.49106
 11
292.729
 21
-9.48003
  0
LINE
  8
0
 10
292.729
 20
-9.48003
 11
292.799
 21
-9.47339
  0
LINE
  8
0
 10
292.799
 20
-9.47339
 11
292.87
 21
-9.47118
  0
LINE
  8
0
 10
292.87
 20
-9.47118
 11
292.94
 21
-9.47339
  0
LINE
  8
0
 10
292.94
 20
-9.47339
 11
293.011
 21
-9.48003
  0
LINE
  8
0
 10
293.011
 20
-9.48003
 11
293.08
 21
-9.49106
  0
LINE
  8
0
 10
293.08
 20
-9.49106
 11
293.149
 21
-9.50645
  0
LINE
  8
0
 10
293.149
 20
-9.50645
 11
293.217
 21
-9.52614
  0
LINE
  8
0
 10
293.217
 20
-9.52614
 11
293.283
 21
-9.55003
  0
LINE
  8
0
 10
293.283
 20
-9.55003
 11
293.348
 21
-9.57805
  0
LINE
  8
0
 10
293.348
 20
-9.57805
 11
293.411
 21
-9.61008
  0
LINE
  8
0
 10
293.411
 20
-9.61008
 11
293.472
 21
-9.646
  0
LINE
  8
0
 10
293.472
 20
-9.646
 11
293.53
 21
-9.68564
  0
LINE
  8
0
 10
293.53
 20
-9.68564
 11
293.586
 21
-9.72888
  0
LINE
  8
0
 10
293.586
 20
-9.72888
 11
293.639
 21
-9.77554
  0
LINE
  8
0
 10
293.639
 20
-9.77554
 11
293.689
 21
-9.82542
  0
LINE
  8
0
 10
293.689
 20
-9.82542
 11
293.735
 21
-9.87834
  0
LINE
  8
0
 10
293.735
 20
-9.87834
 11
293.778
 21
-9.93408
  0
LINE
  8
0
 10
293.778
 20
-9.93408
 11
293.818
 21
-9.99243
  0
LINE
  8
0
 10
293.818
 20
-9.99243
 11
293.854
 21
-10.0532
  0
LINE
  8
0
 10
293.854
 20
-10.0532
 11
293.886
 21
-10.116
  0
LINE
  8
0
 10
293.886
 20
-10.116
 11
293.914
 21
-10.1808
  0
LINE
  8
0
 10
293.914
 20
-10.1808
 11
293.938
 21
-10.2471
  0
LINE
  8
0
 10
293.938
 20
-10.2471
 11
293.958
 21
-10.3149
  0
LINE
  8
0
 10
293.958
 20
-10.3149
 11
293.973
 21
-10.3837
  0
LINE
  8
0
 10
293.973
 20
-10.3837
 11
293.984
 21
-10.4534
  0
LINE
  8
0
 10
293.984
 20
-10.4534
 11
293.991
 21
-10.5237
  0
LINE
  8
0
 10
293.991
 20
-10.5237
 11
293.993
 21
-10.5942
  0
LINE
  8
0
 10
293.993
 20
-10.5942
 11
293.991
 21
-10.6647
  0
LINE
  8
0
 10
293.991
 20
-10.6647
 11
293.984
 21
-10.7349
  0
LINE
  8
0
 10
293.984
 20
-10.7349
 11
293.973
 21
-10.8046
  0
LINE
  8
0
 10
293.973
 20
-10.8046
 11
293.958
 21
-10.8734
  0
LINE
  8
0
 10
293.958
 20
-10.8734
 11
293.938
 21
-10.9412
  0
LINE
  8
0
 10
293.938
 20
-10.9412
 11
293.914
 21
-11.0076
  0
LINE
  8
0
 10
293.914
 20
-11.0076
 11
293.886
 21
-11.0723
  0
LINE
  8
0
 10
293.886
 20
-11.0723
 11
293.854
 21
-11.1352
  0
LINE
  8
0
 10
293.854
 20
-11.1352
 11
293.818
 21
-11.1959
  0
LINE
  8
0
 10
293.818
 20
-11.1959
 11
293.778
 21
-11.2543
  0
LINE
  8
0
 10
293.778
 20
-11.2543
 11
293.735
 21
-11.31
  0
LINE
  8
0
 10
293.735
 20
-11.31
 11
293.689
 21
-11.3629
  0
LINE
  8
0
 10
293.689
 20
-11.3629
 11
293.639
 21
-11.4128
  0
LINE
  8
0
 10
293.639
 20
-11.4128
 11
293.586
 21
-11.4595
  0
LINE
  8
0
 10
293.586
 20
-11.4595
 11
293.53
 21
-11.5027
  0
LINE
  8
0
 10
293.53
 20
-11.5027
 11
293.472
 21
-11.5423
  0
LINE
  8
0
 10
293.472
 20
-11.5423
 11
293.411
 21
-11.5783
  0
LINE
  8
0
 10
293.411
 20
-11.5783
 11
293.348
 21
-11.6103
  0
LINE
  8
0
 10
293.348
 20
-11.6103
 11
293.283
 21
-11.6383
  0
LINE
  8
0
 10
293.283
 20
-11.6383
 11
293.217
 21
-11.6622
  0
LINE
  8
0
 10
293.217
 20
-11.6622
 11
293.149
 21
-11.6819
  0
LINE
  8
0
 10
293.149
 20
-11.6819
 11
293.08
 21
-11.6973
  0
LINE
  8
0
 10
293.08
 20
-11.6973
 11
293.011
 21
-11.7083
  0
LINE
  8
0
 10
293.011
 20
-11.7083
 11
292.94
 21
-11.715
  0
LINE
  8
0
 10
292.94
 20
-11.715
 11
292.87
 21
-11.7172
  0
LINE
  8
0
 10
292.87
 20
-11.7172
 11
292.799
 21
-11.715
  0
LINE
  8
0
 10
110.37
 20
-11.715
 11
110.3
 21
-11.7083
  0
LINE
  8
0
 10
110.3
 20
-11.7083
 11
110.23
 21
-11.6973
  0
LINE
  8
0
 10
110.23
 20
-11.6973
 11
110.161
 21
-11.6819
  0
LINE
  8
0
 10
110.161
 20
-11.6819
 11
110.093
 21
-11.6622
  0
LINE
  8
0
 10
110.093
 20
-11.6622
 11
110.027
 21
-11.6383
  0
LINE
  8
0
 10
110.027
 20
-11.6383
 11
109.962
 21
-11.6103
  0
LINE
  8
0
 10
109.962
 20
-11.6103
 11
109.9
 21
-11.5783
  0
LINE
  8
0
 10
109.9
 20
-11.5783
 11
109.839
 21
-11.5423
  0
LINE
  8
0
 10
109.839
 20
-11.5423
 11
109.78
 21
-11.5027
  0
LINE
  8
0
 10
109.78
 20
-11.5027
 11
109.725
 21
-11.4595
  0
LINE
  8
0
 10
109.725
 20
-11.4595
 11
109.672
 21
-11.4128
  0
LINE
  8
0
 10
109.672
 20
-11.4128
 11
109.622
 21
-11.3629
  0
LINE
  8
0
 10
109.622
 20
-11.3629
 11
109.575
 21
-11.31
  0
LINE
  8
0
 10
109.575
 20
-11.31
 11
109.532
 21
-11.2543
  0
LINE
  8
0
 10
109.532
 20
-11.2543
 11
109.492
 21
-11.1959
  0
LINE
  8
0
 10
109.492
 20
-11.1959
 11
109.456
 21
-11.1352
  0
LINE
  8
0
 10
109.456
 20
-11.1352
 11
109.424
 21
-11.0723
  0
LINE
  8
0
 10
109.424
 20
-11.0723
 11
109.396
 21
-11.0076
  0
LINE
  8
0
 10
109.396
 20
-11.0076
 11
109.372
 21
-10.9412
  0
LINE
  8
0
 10
109.372
 20
-10.9412
 11
109.353
 21
-10.8734
  0
LINE
  8
0
 10
109.353
 20
-10.8734
 11
109.337
 21
-10.8046
  0
LINE
  8
0
 10
109.337
 20
-10.8046
 11
109.326
 21
-10.7349
  0
LINE
  8
0
 10
109.326
 20
-10.7349
 11
109.32
 21
-10.6647
  0
LINE
  8
0
 10
109.32
 20
-10.6647
 11
109.318
 21
-10.5942
  0
LINE
  8
0
 10
109.318
 20
-10.5942
 11
109.32
 21
-10.5237
  0
LINE
  8
0
 10
109.32
 20
-10.5237
 11
109.326
 21
-10.4534
  0
LINE
  8
0
 10
109.326
 20
-10.4534
 11
109.337
 21
-10.3837
  0
LINE
  8
0
 10
109.337
 20
-10.3837
 11
109.353
 21
-10.3149
  0
LINE
  8
0
 10
109.353
 20
-10.3149
 11
109.372
 21
-10.2471
  0
LINE
  8
0
 10
109.372
 20
-10.2471
 11
109.396
 21
-10.1808
  0
LINE
  8
0
 10
109.396
 20
-10.1808
 11
109.424
 21
-10.116
  0
LINE
  8
0
 10
109.424
 20
-10.116
 11
109.456
 21
-10.0532
  0
LINE
  8
0
 10
109.456
 20
-10.0532
 11
109.492
 21
-9.99243
  0
LINE
  8
0
 10
109.492
 20
-9.99243
 11
109.532
 21
-9.93408
  0
LINE
  8
0
 10
109.532
 20
-9.93408
 11
109.575
 21
-9.87834
  0
LINE
  8
0
 10
109.575
 20
-9.87834
 11
109.622
 21
-9.82542
  0
LINE
  8
0
 10
109.622
 20
-9.82542
 11
109.672
 21
-9.77554
  0
LINE
  8
0
 10
109.672
 20
-9.77554
 11
109.725
 21
-9.72888
  0
LINE
  8
0
 10
109.725
 20
-9.72888
 11
109.78
 21
-9.68564
  0
LINE
  8
0
 10
109.78
 20
-9.68564
 11
109.839
 21
-9.646
  0
LINE
  8
0
 10
109.839
 20
-9.646
 11
109.9
 21
-9.61008
  0
LINE
  8
0
 10
109.9
 20
-9.61008
 11
109.962
 21
-9.57805
  0
LINE
  8
0
 10
109.962
 20
-9.57805
 11
110.027
 21
-9.55003
  0
LINE
  8
0
 10
110.027
 20
-9.55003
 11
110.093
 21
-9.52614
  0
LINE
  8
0
 10
110.093
 20
-9.52614
 11
110.161
 21
-9.50645
  0
LINE
  8
0
 10
110.161
 20
-9.50645
 11
110.23
 21
-9.49106
  0
LINE
  8
0
 10
110.23
 20
-9.49106
 11
110.3
 21
-9.48003
  0
LINE
  8
0
 10
110.3
 20
-9.48003
 11
110.37
 21
-9.47339
  0
LINE
  8
0
 10
110.37
 20
-9.47339
 11
110.441
 21
-9.47118
  0
LINE
  8
0
 10
110.441
 20
-9.47118
 11
110.511
 21
-9.47339
  0
LINE
  8
0
 10
110.511
 20
-9.47339
 11
110.581
 21
-9.48003
  0
LINE
  8
0
 10
110.581
 20
-9.48003
 11
110.651
 21
-9.49106
  0
LINE
  8
0
 10
110.651
 20
-9.49106
 11
110.72
 21
-9.50645
  0
LINE
  8
0
 10
110.72
 20
-9.50645
 11
110.788
 21
-9.52614
  0
LINE
  8
0
 10
110.788
 20
-9.52614
 11
110.854
 21
-9.55003
  0
LINE
  8
0
 10
110.854
 20
-9.55003
 11
110.919
 21
-9.57805
  0
LINE
  8
0
 10
110.919
 20
-9.57805
 11
110.982
 21
-9.61008
  0
LINE
  8
0
 10
110.982
 20
-9.61008
 11
111.042
 21
-9.646
  0
LINE
  8
0
 10
111.042
 20
-9.646
 11
111.101
 21
-9.68564
  0
LINE
  8
0
 10
111.101
 20
-9.68564
 11
111.156
 21
-9.72888
  0
LINE
  8
0
 10
111.156
 20
-9.72888
 11
111.209
 21
-9.77554
  0
LINE
  8
0
 10
111.209
 20
-9.77554
 11
111.259
 21
-9.82542
  0
LINE
  8
0
 10
111.259
 20
-9.82542
 11
111.306
 21
-9.87834
  0
LINE
  8
0
 10
111.306
 20
-9.87834
 11
111.349
 21
-9.93408
  0
LINE
  8
0
 10
111.349
 20
-9.93408
 11
111.389
 21
-9.99243
  0
LINE
  8
0
 10
111.389
 20
-9.99243
 11
111.425
 21
-10.0532
  0
LINE
  8
0
 10
111.425
 20
-10.0532
 11
111.457
 21
-10.116
  0
LINE
  8
0
 10
111.457
 20
-10.116
 11
111.485
 21
-10.1808
  0
LINE
  8
0
 10
111.485
 20
-10.1808
 11
111.509
 21
-10.2471
  0
LINE
  8
0
 10
111.509
 20
-10.2471
 11
111.528
 21
-10.3149
  0
LINE
  8
0
 10
111.528
 20
-10.3149
 11
111.544
 21
-10.3837
  0
LINE
  8
0
 10
111.544
 20
-10.3837
 11
111.555
 21
-10.4534
  0
LINE
  8
0
 10
111.555
 20
-10.4534
 11
111.561
 21
-10.5237
  0
LINE
  8
0
 10
111.561
 20
-10.5237
 11
111.564
 21
-10.5942
  0
LINE
  8
0
 10
111.564
 20
-10.5942
 11
111.561
 21
-10.6647
  0
LINE
  8
0
 10
111.561
 20
-10.6647
 11
111.555
 21
-10.7349
  0
LINE
  8
0
 10
111.555
 20
-10.7349
 11
111.544
 21
-10.8046
  0
LINE
  8
0
 10
111.544
 20
-10.8046
 11
111.528
 21
-10.8734
  0
LINE
  8
0
 10
111.528
 20
-10.8734
 11
111.509
 21
-10.9412
  0
LINE
  8
0
 10
111.509
 20
-10.9412
 11
111.485
 21
-11.0076
  0
LINE
  8
0
 10
111.485
 20
-11.0076
 11
111.457
 21
-11.0723
  0
LINE
  8
0
 10
111.457
 20
-11.0723
 11
111.425
 21
-11.1352
  0
LINE
  8
0
 10
111.425
 20
-11.1352
 11
111.389
 21
-11.1959
  0
LINE
  8
0
 10
111.389
 20
-11.1959
 11
111.349
 21
-11.2543
  0
LINE
  8
0
 10
111.349
 20
-11.2543
 11
111.306
 21
-11.31
  0
LINE
  8
0
 10
111.306
 20
-11.31
 11
111.259
 21
-11.3629
  0
LINE
  8
0
 10
111.259
 20
-11.3629
 11
111.209
 21
-11.4128
  0
LINE
  8
0
 10
111.209
 20
-11.4128
 11
111.156
 21
-11.4595
  0
LINE
  8
0
 10
111.156
 20
-11.4595
 11
111.101
 21
-11.5027
  0
LINE
  8
0
 10
111.101
 20
-11.5027
 11
111.042
 21
-11.5423
  0
LINE
  8
0
 10
111.042
 20
-11.5423
 11
110.982
 21
-11.5783
  0
LINE
  8
0
 10
110.982
 20
-11.5783
 11
110.919
 21
-11.6103
  0
LINE
  8
0
 10
110.919
 20
-11.6103
 11
110.854
 21
-11.6383
  0
LINE
  8
0
 10
110.854
 20
-11.6383
 11
110.788
 21
-11.6622
  0
LINE
  8
0
 10
110.788
 20
-11.6622
 11
110.72
 21
-11.6819
  0
LINE
  8
0
 10
110.72
 20
-11.6819
 11
110.651
 21
-11.6973
  0
LINE
  8
0
 10
110.651
 20
-11.6973
 11
110.581
 21
-11.7083
  0
LINE
  8
0
 10
110.581
 20
-11.7083
 11
110.511
 21
-11.715
  0
LINE
  8
0
 10
110.511
 20
-11.715
 11
110.441
 21
-11.7172
  0
LINE
  8
0
 10
110.441
 20
-11.7172
 11
110.37
 21
-11.715
  0
LINE
  8
0
 10
197.489
 20
-11.715
 11
197.419
 21
-11.7083
  0
LINE
  8
0
 10
197.419
 20
-11.7083
 11
197.349
 21
-11.6973
  0
LINE
  8
0
 10
197.349
 20
-11.6973
 11
197.28
 21
-11.6819
  0
LINE
  8
0
 10
197.28
 20
-11.6819
 11
197.212
 21
-11.6622
  0
LINE
  8
0
 10
197.212
 20
-11.6622
 11
197.146
 21
-11.6383
  0
LINE
  8
0
 10
197.146
 20
-11.6383
 11
197.081
 21
-11.6103
  0
LINE
  8
0
 10
197.081
 20
-11.6103
 11
197.018
 21
-11.5783
  0
LINE
  8
0
 10
197.018
 20
-11.5783
 11
196.958
 21
-11.5423
  0
LINE
  8
0
 10
196.958
 20
-11.5423
 11
196.899
 21
-11.5027
  0
LINE
  8
0
 10
196.899
 20
-11.5027
 11
196.844
 21
-11.4595
  0
LINE
  8
0
 10
196.844
 20
-11.4595
 11
196.791
 21
-11.4128
  0
LINE
  8
0
 10
196.791
 20
-11.4128
 11
196.741
 21
-11.3629
  0
LINE
  8
0
 10
196.741
 20
-11.3629
 11
196.694
 21
-11.31
  0
LINE
  8
0
 10
196.694
 20
-11.31
 11
196.651
 21
-11.2543
  0
LINE
  8
0
 10
196.651
 20
-11.2543
 11
196.611
 21
-11.1959
  0
LINE
  8
0
 10
196.611
 20
-11.1959
 11
196.575
 21
-11.1352
  0
LINE
  8
0
 10
196.575
 20
-11.1352
 11
196.543
 21
-11.0723
  0
LINE
  8
0
 10
196.543
 20
-11.0723
 11
196.515
 21
-11.0076
  0
LINE
  8
0
 10
196.515
 20
-11.0076
 11
196.491
 21
-10.9412
  0
LINE
  8
0
 10
196.491
 20
-10.9412
 11
196.472
 21
-10.8734
  0
LINE
  8
0
 10
196.472
 20
-10.8734
 11
196.456
 21
-10.8046
  0
LINE
  8
0
 10
196.456
 20
-10.8046
 11
196.445
 21
-10.7349
  0
LINE
  8
0
 10
196.445
 20
-10.7349
 11
196.439
 21
-10.6647
  0
LINE
  8
0
 10
196.439
 20
-10.6647
 11
196.436
 21
-10.5942
  0
LINE
  8
0
 10
196.436
 20
-10.5942
 11
196.439
 21
-10.5237
  0
LINE
  8
0
 10
196.439
 20
-10.5237
 11
196.445
 21
-10.4534
  0
LINE
  8
0
 10
196.445
 20
-10.4534
 11
196.456
 21
-10.3837
  0
LINE
  8
0
 10
196.456
 20
-10.3837
 11
196.472
 21
-10.3149
  0
LINE
  8
0
 10
196.472
 20
-10.3149
 11
196.491
 21
-10.2471
  0
LINE
  8
0
 10
196.491
 20
-10.2471
 11
196.515
 21
-10.1808
  0
LINE
  8
0
 10
196.515
 20
-10.1808
 11
196.543
 21
-10.116
  0
LINE
  8
0
 10
196.543
 20
-10.116
 11
196.575
 21
-10.0532
  0
LINE
  8
0
 10
196.575
 20
-10.0532
 11
196.611
 21
-9.99243
  0
LINE
  8
0
 10
196.611
 20
-9.99243
 11
196.651
 21
-9.93408
  0
LINE
  8
0
 10
196.651
 20
-9.93408
 11
196.694
 21
-9.87834
  0
LINE
  8
0
 10
196.694
 20
-9.87834
 11
196.741
 21
-9.82542
  0
LINE
  8
0
 10
196.741
 20
-9.82542
 11
196.791
 21
-9.77554
  0
LINE
  8
0
 10
196.791
 20
-9.77554
 11
196.844
 21
-9.72888
  0
LINE
  8
0
 10
196.844
 20
-9.72888
 11
196.899
 21
-9.68564
  0
LINE
  8
0
 10
196.899
 20
-9.68564
 11
196.958
 21
-9.646
  0
LINE
  8
0
 10
196.958
 20
-9.646
 11
197.018
 21
-9.61008
  0
LINE
  8
0
 10
197.018
 20
-9.61008
 11
197.081
 21
-9.57805
  0
LINE
  8
0
 10
197.081
 20
-9.57805
 11
197.146
 21
-9.55003
  0
LINE
  8
0
 10
197.146
 20
-9.55003
 11
197.212
 21
-9.52614
  0
LINE
  8
0
 10
197.212
 20
-9.52614
 11
197.28
 21
-9.50645
  0
LINE
  8
0
 10
197.28
 20
-9.50645
 11
197.349
 21
-9.49106
  0
LINE
  8
0
 10
197.349
 20
-9.49106
 11
197.419
 21
-9.48003
  0
LINE
  8
0
 10
197.419
 20
-9.48003
 11
197.489
 21
-9.47339
  0
LINE
  8
0
 10
197.489
 20
-9.47339
 11
197.559
 21
-9.47118
  0
LINE
  8
0
 10
197.559
 20
-9.47118
 11
197.63
 21
-9.47339
  0
LINE
  8
0
 10
197.63
 20
-9.47339
 11
197.7
 21
-9.48003
  0
LINE
  8
0
 10
197.7
 20
-9.48003
 11
197.77
 21
-9.49106
  0
LINE
  8
0
 10
197.77
 20
-9.49106
 11
197.839
 21
-9.50645
  0
LINE
  8
0
 10
197.839
 20
-9.50645
 11
197.906
 21
-9.52614
  0
LINE
  8
0
 10
197.906
 20
-9.52614
 11
197.973
 21
-9.55003
  0
LINE
  8
0
 10
197.973
 20
-9.55003
 11
198.038
 21
-9.57805
  0
LINE
  8
0
 10
198.038
 20
-9.57805
 11
198.1
 21
-9.61008
  0
LINE
  8
0
 10
198.1
 20
-9.61008
 11
198.161
 21
-9.646
  0
LINE
  8
0
 10
198.161
 20
-9.646
 11
198.22
 21
-9.68564
  0
LINE
  8
0
 10
198.22
 20
-9.68564
 11
198.275
 21
-9.72888
  0
LINE
  8
0
 10
198.275
 20
-9.72888
 11
198.328
 21
-9.77554
  0
LINE
  8
0
 10
198.328
 20
-9.77554
 11
198.378
 21
-9.82542
  0
LINE
  8
0
 10
198.378
 20
-9.82542
 11
198.425
 21
-9.87834
  0
LINE
  8
0
 10
198.425
 20
-9.87834
 11
198.468
 21
-9.93408
  0
LINE
  8
0
 10
198.468
 20
-9.93408
 11
198.508
 21
-9.99243
  0
LINE
  8
0
 10
198.508
 20
-9.99243
 11
198.544
 21
-10.0532
  0
LINE
  8
0
 10
198.544
 20
-10.0532
 11
198.576
 21
-10.116
  0
LINE
  8
0
 10
198.576
 20
-10.116
 11
198.604
 21
-10.1808
  0
LINE
  8
0
 10
198.604
 20
-10.1808
 11
198.628
 21
-10.2471
  0
LINE
  8
0
 10
198.628
 20
-10.2471
 11
198.647
 21
-10.3149
  0
LINE
  8
0
 10
198.647
 20
-10.3149
 11
198.663
 21
-10.3837
  0
LINE
  8
0
 10
198.663
 20
-10.3837
 11
198.674
 21
-10.4534
  0
LINE
  8
0
 10
198.674
 20
-10.4534
 11
198.68
 21
-10.5237
  0
LINE
  8
0
 10
198.68
 20
-10.5237
 11
198.682
 21
-10.5942
  0
LINE
  8
0
 10
198.682
 20
-10.5942
 11
198.68
 21
-10.6647
  0
LINE
  8
0
 10
198.68
 20
-10.6647
 11
198.674
 21
-10.7349
  0
LINE
  8
0
 10
198.674
 20
-10.7349
 11
198.663
 21
-10.8046
  0
LINE
  8
0
 10
198.663
 20
-10.8046
 11
198.647
 21
-10.8734
  0
LINE
  8
0
 10
198.647
 20
-10.8734
 11
198.628
 21
-10.9412
  0
LINE
  8
0
 10
198.628
 20
-10.9412
 11
198.604
 21
-11.0076
  0
LINE
  8
0
 10
198.604
 20
-11.0076
 11
198.576
 21
-11.0723
  0
LINE
  8
0
 10
198.576
 20
-11.0723
 11
198.544
 21
-11.1352
  0
LINE
  8
0
 10
198.544
 20
-11.1352
 11
198.508
 21
-11.1959
  0
LINE
  8
0
 10
198.508
 20
-11.1959
 11
198.468
 21
-11.2543
  0
LINE
  8
0
 10
198.468
 20
-11.2543
 11
198.425
 21
-11.31
  0
LINE
  8
0
 10
198.425
 20
-11.31
 11
198.378
 21
-11.3629
  0
LINE
  8
0
 10
198.378
 20
-11.3629
 11
198.328
 21
-11.4128
  0
LINE
  8
0
 10
198.328
 20
-11.4128
 11
198.275
 21
-11.4595
  0
LINE
  8
0
 10
198.275
 20
-11.4595
 11
198.22
 21
-11.5027
  0
LINE
  8
0
 10
198.22
 20
-11.5027
 11
198.161
 21
-11.5423
  0
LINE
  8
0
 10
198.161
 20
-11.5423
 11
198.1
 21
-11.5783
  0
LINE
  8
0
 10
198.1
 20
-11.5783
 11
198.038
 21
-11.6103
  0
LINE
  8
0
 10
198.038
 20
-11.6103
 11
197.973
 21
-11.6383
  0
LINE
  8
0
 10
197.973
 20
-11.6383
 11
197.906
 21
-11.6622
  0
LINE
  8
0
 10
197.906
 20
-11.6622
 11
197.839
 21
-11.6819
  0
LINE
  8
0
 10
197.839
 20
-11.6819
 11
197.77
 21
-11.6973
  0
LINE
  8
0
 10
197.77
 20
-11.6973
 11
197.7
 21
-11.7083
  0
LINE
  8
0
 10
197.7
 20
-11.7083
 11
197.63
 21
-11.715
  0
LINE
  8
0
 10
197.63
 20
-11.715
 11
197.559
 21
-11.7172
  0
LINE
  8
0
 10
197.559
 20
-11.7172
 11
197.489
 21
-11.715
  0
ENDSEC
  0
SECTION
  2
OBJECTS
  0
DICTIONARY
  0
ENDSEC
  0
EOF
